<svg width="1376" height="611" viewBox="0 0 1376 611" fill="none" xmlns="http://www.w3.org/2000/svg">
<rect width="1376" height="611" fill="white"/>
<path d="M741.93 468.46C823.762 468.46 890.1 459.492 890.1 448.43C890.1 437.368 823.762 428.4 741.93 428.4C660.098 428.4 593.76 437.368 593.76 448.43C593.76 459.492 660.098 468.46 741.93 468.46Z" fill="#E6E7E8"/>
<path fill-rule="evenodd" clip-rule="evenodd" d="M894.8 276.05C898.3 255.39 900.05 230.69 900.05 201.97C900.05 149.08 893.39 108.18 880.09 79.28C872.38 62.64 862.97 48.68 851.85 37.38C840.72 26.08 827.81 17.5 813.1 11.63C798.39 5.76002 782.01 2.83002 763.97 2.83002C736.65 2.83002 713.14 9.44002 693.43 22.66C673.72 35.88 658.7 55.1 648.37 80.32C642.41 95.56 638.03 113.77 635.23 134.96C632.43 156.16 631.03 179.98 631.03 206.42C631.03 226.91 632.3 245.96 634.84 263.56C637.37 281.16 641.36 297.23 646.79 311.77C657.48 338.4 673.37 359.24 694.48 374.3C715.59 389.36 739.45 396.89 766.07 396.89C789.19 396.89 810.21 391.29 829.12 380.08C848.04 368.88 863.45 352.94 875.36 332.27C884.82 315.46 891.29 296.72 894.8 276.05ZM822.29 118.02C826.14 138.43 828.07 164.66 828.07 196.71C828.07 230.52 826.23 257.84 822.55 278.67C818.87 299.52 812.47 315.54 803.37 326.75C794.26 337.96 781.65 343.56 765.54 343.56C749.95 343.56 737.6 338.17 728.5 327.4C719.39 316.63 712.91 300.74 709.06 279.72C705.21 258.7 703.28 231.73 703.28 198.8C703.28 150.29 707.79 114.38 716.81 91.09C725.83 67.8 741.9 56.15 765.02 56.15C781.13 56.15 793.74 61.36 802.85 71.78C811.96 82.21 818.43 97.62 822.29 118.02Z" fill="#78DFE8"/>
<path fill-rule="evenodd" clip-rule="evenodd" d="M692.84 376.6C714.33 391.93 738.96 399.71 766.06 399.71C789.59 399.71 811.28 393.92 830.53 382.52C849.78 371.12 865.67 354.7 877.79 333.67C887.35 316.67 894 297.45 897.55 276.54C901.06 255.83 902.84 230.75 902.84 201.99C902.84 148.93 896.04 107.26 882.62 78.12C874.82 61.26 865.13 46.9 853.83 35.42C842.49 23.9 829.13 15.02 814.12 9.03003C799.14 3.06003 782.26 0.0300293 763.95 0.0300293C736.19 0.0300293 711.93 6.86003 691.85 20.34C671.76 33.81 656.25 53.64 645.74 79.31C639.73 94.7 635.25 113.3 632.44 134.61C629.63 155.83 628.21 179.99 628.21 206.44C628.21 226.97 629.5 246.33 632.05 263.98C634.61 281.7 638.68 298.11 644.18 312.83C655.01 339.84 671.39 361.3 692.84 376.6ZM694.99 25C714.13 12.15 737.33 5.64003 763.96 5.64003C781.56 5.64003 797.74 8.53003 812.04 14.25C826.32 19.95 839.04 28.4 849.83 39.36C860.67 50.38 869.99 64.21 877.52 80.47C890.6 108.86 897.23 149.74 897.23 201.98C897.23 230.42 895.48 255.19 892.02 275.59C888.58 295.86 882.15 314.47 872.92 330.88C861.3 351.03 846.09 366.78 827.68 377.68C809.29 388.58 788.56 394.1 766.06 394.1C740.16 394.1 716.63 386.67 696.11 372.03C675.54 357.35 659.83 336.73 649.42 310.8C644.09 296.52 640.12 280.5 637.62 263.18C635.11 245.79 633.84 226.7 633.84 206.44C633.84 180.24 635.25 156.32 638.02 135.35C640.77 114.49 645.14 96.32 650.97 81.4C661.04 56.82 675.85 37.85 694.99 25ZM765.54 346.38C749.15 346.38 735.97 340.61 726.35 329.23C716.96 318.13 710.21 301.65 706.29 280.24C702.42 259.16 700.46 231.77 700.46 198.82C700.46 150.18 705.08 113.6 714.18 90.09C723.62 65.71 740.72 53.35 765.01 53.35C781.9 53.35 795.34 58.93 804.96 69.94C814.36 80.69 821.12 96.7 825.05 117.5C828.92 138.01 830.88 164.66 830.88 196.71C830.88 230.51 829.01 258.26 825.32 279.16C821.58 300.38 814.93 316.99 805.56 328.52C795.93 340.38 782.46 346.38 765.54 346.38ZM719.42 92.12C728.06 69.81 742.97 58.97 765.01 58.97C780.42 58.97 792.1 63.77 800.72 73.64C809.44 83.63 815.77 98.74 819.51 118.55C823.31 138.71 825.24 165.01 825.24 196.71C825.24 230.19 823.4 257.6 819.77 278.19C816.2 298.45 809.94 314.2 801.18 324.98C792.55 335.6 780.89 340.76 765.53 340.76C750.67 340.76 739.25 335.8 730.63 325.6C721.89 315.26 715.55 299.66 711.81 279.23C708.01 258.49 706.08 231.43 706.08 198.82C706.08 150.87 710.57 114.98 719.42 92.12Z" fill="#1A4A67"/>
<path d="M1029.4 566.24C1111.23 566.24 1177.57 557.272 1177.57 546.21C1177.57 535.148 1111.23 526.18 1029.4 526.18C947.568 526.18 881.23 535.148 881.23 546.21C881.23 557.272 947.568 566.24 1029.4 566.24Z" fill="#E6E7E8"/>
<path fill-rule="evenodd" clip-rule="evenodd" d="M1071.59 423.26V472.13C1071.59 485.27 1074.61 495.21 1080.66 501.94C1086.7 508.68 1094.63 512.05 1104.44 512.05C1114.41 512.05 1122.39 508.77 1128.34 502.2C1134.29 495.63 1137.27 485.61 1137.27 472.12V423.25H1153.29C1166.6 423.25 1176.58 420.93 1183.24 416.29C1189.89 411.65 1193.22 404.25 1193.22 394.09C1193.22 381.66 1189.14 373.6 1181 369.92C1172.86 366.24 1162.04 364.4 1148.56 364.4H1137.26V161.05C1137.26 130.58 1123.95 115.34 1097.33 115.34C1089.09 115.34 1082.04 118.1 1076.18 123.62C1070.31 129.14 1062.82 138.03 1053.72 150.29L914.48 336.55C910.63 341.64 907.39 345.93 904.76 349.43C902.13 352.93 899.59 356.57 897.14 360.33C894.69 364.1 892.85 367.68 891.62 371.1C890.39 374.52 889.78 377.89 889.78 381.22C889.78 394.19 893.94 404.43 902.26 411.96C910.58 419.5 923.06 423.26 939.7 423.26H1071.59ZM1071.59 364.42H958.62L1071.59 211.78V364.42Z" fill="#78DFE8"/>
<path fill-rule="evenodd" clip-rule="evenodd" d="M1078.56 503.82C1085.13 511.15 1093.83 514.87 1104.43 514.87C1115.19 514.87 1123.93 511.24 1130.39 504.1C1136.8 497.03 1140.05 486.27 1140.05 472.13V426.07H1153.27C1167.11 426.07 1177.72 423.55 1184.83 418.6C1192.26 413.43 1196.02 405.19 1196.02 394.1C1196.02 380.52 1191.36 371.53 1182.15 367.37C1173.68 363.54 1162.37 361.6 1148.55 361.6H1140.06V161.06C1140.06 128.86 1125.68 112.54 1097.32 112.54C1088.39 112.54 1080.62 115.58 1074.25 121.58C1068.28 127.18 1060.62 136.28 1051.46 148.61L912.23 334.86L910.552 337.078C907.427 341.209 904.739 344.762 902.5 347.75C899.83 351.31 897.24 355.03 894.78 358.8C892.23 362.73 890.27 366.55 888.97 370.16C887.64 373.85 886.97 377.58 886.97 381.22C886.97 394.95 891.48 405.99 900.37 414.04C909.19 422.02 922.41 426.07 939.7 426.07H1068.78V472.13C1068.78 485.92 1072.07 496.58 1078.56 503.82ZM1078.11 125.68C1083.48 120.63 1089.77 118.17 1097.33 118.17C1122.31 118.17 1134.45 132.2 1134.45 161.07V367.22H1148.56C1161.59 367.22 1172.11 369 1179.85 372.49C1186.96 375.7 1190.41 382.77 1190.41 394.1C1190.41 403.37 1187.54 409.87 1181.63 413.99C1175.49 418.28 1165.95 420.45 1153.29 420.45H1134.45V472.13C1134.45 484.83 1131.69 494.32 1126.25 500.32C1120.81 506.33 1113.67 509.25 1104.43 509.25C1095.38 509.25 1088.29 506.25 1082.75 500.07C1077.21 493.9 1074.4 484.49 1074.4 472.13V420.45H939.7C923.85 420.45 911.9 416.89 904.15 409.88C896.38 402.84 892.6 393.47 892.6 381.23C892.6 378.24 893.16 375.16 894.27 372.07C895.42 368.87 897.18 365.44 899.5 361.88C901.89 358.21 904.42 354.59 907.01 351.13C909.63 347.63 912.87 343.34 916.73 338.25L1055.98 151.98C1064.94 139.9 1072.39 131.06 1078.11 125.68ZM1074.4 367.23H953.05L1074.4 203.26V367.23ZM1068.78 361.61H964.2L1068.78 220.3V361.61Z" fill="#1A4A67"/>
<path d="M451.54 595.27C533.372 595.27 599.71 586.302 599.71 575.24C599.71 564.178 533.372 555.21 451.54 555.21C369.708 555.21 303.37 564.178 303.37 575.24C303.37 586.302 369.708 595.27 451.54 595.27Z" fill="#E6E7E8"/>
<path fill-rule="evenodd" clip-rule="evenodd" d="M495.66 455.1V503.97C495.66 517.11 498.68 527.05 504.74 533.79C510.79 540.53 518.71 543.9 528.52 543.9C538.51 543.9 546.47 540.62 552.43 534.05C558.38 527.48 561.36 517.46 561.36 503.97V455.1H577.38C590.69 455.1 600.67 452.78 607.33 448.14C613.98 443.5 617.31 436.1 617.31 425.94C617.31 413.51 613.23 405.45 605.09 401.77C596.94 398.09 586.13 396.25 572.64 396.25H561.34V192.9C561.34 162.43 548.03 147.19 521.41 147.19C513.17 147.19 506.13 149.95 500.26 155.47C494.39 160.99 486.91 169.88 477.8 182.14L338.56 368.39C334.71 373.48 331.47 377.77 328.84 381.27C326.21 384.77 323.67 388.41 321.22 392.17C318.76 395.94 316.92 399.52 315.7 402.94C314.47 406.36 313.86 409.73 313.86 413.06C313.86 426.03 318.02 436.27 326.34 443.8C334.66 451.34 347.14 455.1 363.78 455.1H495.66ZM495.66 396.26H382.69L495.66 243.62V396.26Z" fill="#78DFE8"/>
<path fill-rule="evenodd" clip-rule="evenodd" d="M502.63 535.66C509.21 542.99 517.91 546.71 528.5 546.71C539.27 546.71 548.01 543.09 554.48 535.94C560.89 528.86 564.14 518.11 564.14 503.97V457.91H577.35C591.19 457.91 601.8 455.39 608.91 450.44C616.34 445.27 620.1 437.03 620.1 425.94C620.1 412.36 615.43 403.37 606.23 399.21C597.76 395.38 586.45 393.44 572.63 393.44H564.14V192.9C564.14 160.71 549.76 144.38 521.4 144.38C512.47 144.38 504.7 147.42 498.33 153.42C492.37 159.02 484.7 168.12 475.54 180.45L336.31 366.7C332.45 371.79 329.21 376.08 326.58 379.59C323.9 383.17 321.29 386.89 318.86 390.64C316.3 394.58 314.34 398.4 313.05 402C311.72 405.7 311.05 409.43 311.05 413.07C311.05 426.8 315.56 437.84 324.45 445.89C333.27 453.86 346.5 457.91 363.78 457.91H492.85V503.97C492.85 517.76 496.14 528.42 502.63 535.66ZM502.18 157.52C507.56 152.47 513.85 150.01 521.41 150.01C546.39 150.01 558.53 164.04 558.51 192.91V399.07H572.62C585.64 399.07 596.17 400.85 603.91 404.34C611.02 407.55 614.47 414.62 614.47 425.95C614.47 435.22 611.6 441.72 605.69 445.84C599.55 450.13 590.01 452.3 577.35 452.3H558.52V503.98C558.52 516.68 555.75 526.16 550.31 532.17C544.87 538.18 537.73 541.1 528.49 541.1C519.44 541.1 512.35 538.09 506.81 531.92C501.28 525.75 498.47 516.35 498.47 503.98V452.3H363.77C347.92 452.3 335.97 448.74 328.22 441.73C320.45 434.7 316.67 425.33 316.67 413.08C316.67 410.08 317.23 407 318.34 403.91C319.49 400.72 321.25 397.29 323.57 393.72C325.94 390.07 328.47 386.46 331.08 382.97C333.71 379.47 336.95 375.18 340.81 370.09L480.05 183.81C489.02 171.74 496.46 162.89 502.18 157.52ZM498.47 399.07H377.12L498.47 235.1V399.07ZM492.85 393.45H388.27L492.85 252.14V393.45Z" fill="#1A4A67"/>
<path d="M127.39 404.83C127.97 395.59 130.45 384.57 139.19 381.53C152.03 377.06 161.26 393.3 171.05 402.74C173.29 404.9 175.99 406.86 179.09 407.13C182.18 407.4 185.2 405.94 187.64 404.02C196.18 397.28 198.85 385.58 199.86 374.75C200.88 363.92 200.94 352.53 206.18 342.99C211.41 333.46 224.18 326.94 233.4 332.68C254.15 345.58 261.09 314.89 273.75 304.85C279.08 300.62 286.49 298.34 292.83 300.81C299.05 303.23 302.87 309.54 305.09 315.83C310.13 330.16 309.35 348.83 300.93 361.88C293.01 374.15 275.41 379.03 273.19 395.41C271.66 406.68 279.64 418.05 276.61 429.01C274.08 438.15 264.68 443.86 261.12 452.65C256.33 464.5 263.24 478.9 257.73 490.42C254.14 497.91 246.04 502.41 242.26 509.81C237.61 518.93 240.6 529.89 240.03 540.11C238.82 562.01 218.74 582.29 196.05 580.32C176.66 578.64 167.62 556.4 158.96 541.06C135.75 499.9 124.41 452 127.39 404.83Z" fill="#1A4A67"/>
<path d="M199.53 525.96C199.3 525.96 199.05 525.93 198.82 525.87C197.32 525.48 196.42 523.94 196.81 522.44L225.89 410.64C226.28 409.14 227.83 408.24 229.32 408.63C230.82 409.02 231.72 410.56 231.33 412.06L202.25 523.86C201.91 525.12 200.78 525.96 199.53 525.96Z" fill="white"/>
<path d="M216.53 460.58C215.68 460.58 214.85 460.2 214.3 459.48L190.7 428.71C189.75 427.48 189.99 425.71 191.22 424.77C192.45 423.82 194.21 424.06 195.16 425.29L218.76 456.06C219.71 457.29 219.47 459.06 218.24 460C217.73 460.39 217.13 460.58 216.53 460.58Z" fill="white"/>
<path d="M178.09 588.84C169.24 585.1 161.01 576.77 152.68 569.97C134.5 555.11 133.86 535.92 48.5 521.7C8.81996 515.09 38.1 472.45 16.12 438.62C9.17996 427.94 2.47996 416.12 3.00996 403.39C3.53996 390.66 14.37 377.6 26.98 379.44C34.55 380.54 40.4 386.36 46.84 390.49C53.28 394.62 62.63 396.83 67.97 391.36C63.92 382.8 57.07 375.95 51.7 368.15C46.33 360.36 42.35 350.57 45.16 341.53C49.5 327.56 62.15 336.3 67.49 330.57C74.66 322.89 72.79 302.41 78.09 291.83C90.52 267.02 134.02 257.43 150.26 284.27C169.06 315.34 156.97 357.97 147.85 393.28C135.17 442.37 184.18 458.86 200.2 492.74C211.74 517.17 228.77 561.41 203.77 583.52C194.37 591.85 185.98 592.18 178.09 588.84Z" fill="#37C1D3"/>
<path fill-rule="evenodd" clip-rule="evenodd" d="M176.99 591.43C180.47 592.9 183.85 593.63 187.18 593.63C193.5 593.63 199.6 590.98 205.66 585.63C225.11 568.42 224.14 536.76 202.76 491.54C196.97 479.31 187.06 469.28 177.47 459.58C159.6 441.51 142.72 424.44 150.59 393.99L151.6 390.08L151.603 390.07C160.882 354.302 171.398 313.767 152.68 282.83C145.62 271.15 132.84 264.81 117.8 265.4C99.74 266.12 82.78 276.24 75.59 290.58C73.0521 295.656 72.0617 302.568 71.1024 309.263L71.1 309.28L71.0899 309.35C69.9831 317.059 68.8397 325.021 65.45 328.66C64.18 330.01 61.7 330.04 58.82 330.07L58.8186 330.07C53.6186 330.13 45.7397 330.221 42.49 340.7C39.12 351.53 44.39 362.47 49.4 369.74C51.33 372.54 53.44 375.22 55.49 377.82L55.6232 377.99C58.9147 382.178 62.0522 386.17 64.44 390.59C60.08 393.18 53.31 391.3 48.36 388.12C46.883 387.174 45.4465 386.131 44.0067 385.086C43.8479 384.971 43.689 384.855 43.53 384.74C38.68 381.21 33.67 377.57 27.39 376.65C21.65 375.81 15.82 377.61 10.89 381.7C4.63002 386.89 0.540018 395.15 0.210018 403.27C-0.369982 417.16 6.91002 429.59 13.77 440.15C22.68 453.87 22.74 469.45 22.79 483.2L22.7901 483.214C22.86 502.279 22.9262 520.291 48.04 524.47C115.84 535.77 129.34 550.12 141.25 562.79L141.255 562.795C144.323 566.053 147.222 569.132 150.9 572.14C152.86 573.75 154.83 575.44 156.79 577.14L156.843 577.186C163.247 582.712 169.86 588.418 176.99 591.43ZM201.91 581.44C194.29 588.19 187.26 589.68 179.18 586.26C172.887 583.6 166.643 578.23 160.615 573.046L160.48 572.93C158.48 571.2 156.48 569.47 154.47 567.83C151.112 565.084 148.368 562.173 145.468 559.095L145.36 558.98L145.357 558.977C132.838 545.668 118.645 530.579 48.97 518.97C28.5406 515.57 28.49 502.001 28.42 483.222L28.42 483.22C28.37 468.69 28.3 452.24 18.49 437.13C12.11 427.3 5.33002 415.79 5.83002 403.55C6.09002 397.07 9.49002 390.21 14.48 386.07C17.09 383.91 21.31 381.48 26.58 382.26C31.48 382.97 35.73 386.06 40.22 389.33C41.91 390.56 43.59 391.78 45.32 392.89C53.01 397.82 63.61 399.88 69.99 393.35L71.35 391.95L70.51 390.18C67.74 384.33 63.75 379.26 59.89 374.37L59.7328 374.17C57.7917 371.703 55.7919 369.16 54.01 366.58C49.71 360.33 45.15 351.06 47.84 342.39C49.879 335.823 53.6462 335.78 58.862 335.72L58.87 335.72C62.51 335.68 66.64 335.63 69.54 332.52C74.15 327.58 75.42 318.7 76.65 310.1L76.65 310.1L76.6704 309.959C77.564 303.753 78.4861 297.348 80.61 293.12C86.8 280.74 102.19 271.66 118.01 271.03C125.59 270.72 139.67 272.23 147.86 285.75C165.356 314.653 155.155 353.971 146.157 388.654L146.15 388.68L145.13 392.6C136.47 426.13 155.27 445.16 173.46 463.55L173.478 463.568C182.722 472.922 192.283 482.597 197.66 493.96C217.83 536.66 219.27 566.09 201.91 581.44Z" fill="#1A4A67"/>
<path d="M344.21 512.15C344.47 512.11 344.74 512.14 345.02 512.24C345.91 512.56 346.38 513.52 346.72 514.41C349.84 522.52 349.47 520.47 350.34 531.62C351.12 524.44 350.57 525.77 353.09 519C353.58 517.68 354.14 516.33 355.21 515.41C362.13 509.5 358.02 531.47 357.1 534.06C353.7 543.67 344.7 547.35 335.1 545.54C326.69 543.95 318.09 538.96 313.95 531.31C313.58 530.62 313.24 529.73 313.7 529.09C314.01 528.65 314.59 528.5 315.13 528.42C319.93 527.65 324.83 529.37 329 531.88C333.17 534.39 336.81 537.68 340.8 540.46C343.63 542.43 349.01 541.43 352.46 541.3C358.32 541.08 360.23 538.49 364.75 534.76C365.74 533.95 366.83 533.17 368.1 532.99C369.36 532.8 370.83 533.38 371.26 534.58C371.52 535.3 371.38 536.09 371.17 536.82C368.46 546.1 357.14 546.72 351.14 540.61C345.41 534.78 340.65 524.33 341.64 516.09C341.84 514.43 342.79 512.34 344.21 512.15Z" fill="#8BDEEC"/>
<path d="M120.48 567.93C120.73 568 120.96 568.14 121.18 568.37C121.85 569.09 121.85 570.33 121.77 571.42C121.02 581.48 121.59 579.11 117.45 591.48C121.34 584.09 120.25 585.28 125.53 579.08C126.56 577.87 127.67 576.65 129.04 576.12C137.95 572.71 124.49 594.59 122.51 596.99C115.17 605.88 105.35 606 97.43 599.96C90.48 594.66 84.87 585.63 84.49 575.64C84.46 574.74 84.55 573.64 85.24 573.15C85.72 572.81 86.31 572.9 86.84 573.03C91.55 574.24 95.24 578.19 97.92 582.67C100.6 587.15 102.46 592.24 104.86 596.93C106.56 600.26 111.9 601.48 115.09 602.81C120.51 605.07 123.4 603.1 129.16 601.01C130.42 600.56 131.75 600.19 132.99 600.53C134.23 600.87 135.3 602.11 135.16 603.59C135.08 604.47 134.6 605.27 134.09 605.96C127.52 614.79 116.95 610.63 114.19 601.5C111.56 592.79 111.86 579.51 116.4 571.07C117.31 569.38 119.1 567.54 120.48 567.93Z" fill="#1A4A67"/>
<path d="M198.2 600.44C197.19 600.44 196.21 599.89 195.7 598.93L112.69 440.06C111.97 438.68 112.5 436.99 113.88 436.27C115.27 435.55 116.96 436.09 117.67 437.46L200.68 596.33C201.4 597.71 200.87 599.4 199.49 600.12C199.08 600.33 198.63 600.44 198.2 600.44Z" fill="white"/>
<path d="M156.69 525.41C156.19 525.41 155.69 525.28 155.23 525L94.53 488.02C93.21 487.21 92.78 485.48 93.59 484.16C94.4 482.83 96.13 482.41 97.45 483.22L158.15 520.2C159.47 521.01 159.9 522.74 159.09 524.06C158.56 524.93 157.63 525.41 156.69 525.41Z" fill="white"/>
<path d="M133.86 478.02C133.36 478.02 132.86 477.89 132.4 477.61L71.69 440.63C70.37 439.82 69.94 438.09 70.75 436.77C71.56 435.45 73.29 435.02 74.61 435.83L135.32 472.81C136.64 473.62 137.07 475.35 136.26 476.67C135.73 477.54 134.8 478.02 133.86 478.02Z" fill="white"/>
<path d="M173.86 558.26C173.67 558.26 173.49 558.24 173.3 558.2C171.78 557.89 170.8 556.41 171.1 554.89L182.81 497.33C183.12 495.81 184.61 494.83 186.13 495.14C187.65 495.45 188.63 496.93 188.33 498.45L176.62 556.01C176.34 557.34 175.16 558.26 173.86 558.26Z" fill="white"/>
<path d="M1156.5 357.2C1157.56 350.96 1159.01 344.35 1165 339.81C1172.6 334.08 1185.06 333.35 1195.42 335.42C1205.77 337.5 1215.1 341.98 1225.33 344.97C1228.08 345.77 1231.24 346.45 1233.89 345.41C1236.57 344.37 1237.85 341.91 1238.74 339.63C1248.55 313.39 1238.17 285.87 1238.34 259.45C1238.27 252.26 1239.2 244.32 1244.22 238.17C1257.25 221.26 1262.41 230.42 1274.39 211.81C1282.76 198.81 1284.54 174.43 1298.92 165.93C1328.65 148.34 1327.92 213.67 1330.06 228.65C1334.11 257.07 1373.57 255.63 1366.11 290.08C1362.87 305.04 1352.99 317.24 1346.49 330.66C1340.09 344.13 1338 361.66 1350.97 371.98C1359.42 378.7 1374.23 382.51 1375.38 392.32C1376.04 398.1 1370.93 402.71 1366.02 406.47C1353.77 415.9 1340.9 424.73 1327.44 432.95C1324.04 435.03 1320.42 437.24 1319.23 440.46C1317.59 444.86 1320.98 449.73 1323.47 454.31C1332.66 471.21 1328.76 489.83 1316.77 503.64C1304.87 517.47 1285.8 527.13 1266.07 535.38C1240.69 546.04 1213.87 554.89 1185.77 561.8C1103.33 578.47 1131.84 515.32 1135.35 492.54C1141.73 446.92 1148.78 401.79 1156.5 357.2Z" fill="#1A4A67"/>
<path d="M1206.7 538.74C1206.37 538.74 1206.03 538.68 1205.69 538.55C1204.24 538 1203.52 536.37 1204.07 534.92L1298.94 287.09C1299.49 285.64 1301.11 284.9 1302.57 285.47C1304.02 286.02 1304.74 287.65 1304.19 289.1L1209.32 536.93C1208.89 538.05 1207.83 538.74 1206.7 538.74Z" fill="white"/>
<path d="M1260.62 397.7C1259.64 397.7 1258.68 397.18 1258.16 396.27L1241.39 366.4C1240.63 365.05 1241.11 363.33 1242.47 362.57C1243.83 361.81 1245.54 362.29 1246.3 363.64L1263.07 393.51C1263.83 394.86 1263.35 396.58 1261.99 397.34C1261.56 397.58 1261.09 397.7 1260.62 397.7Z" fill="white"/>
<path d="M1274.42 362.72C1273.36 362.72 1272.34 362.12 1271.87 361.09C1271.22 359.68 1271.83 358.01 1273.24 357.36L1304.34 343C1305.74 342.35 1307.42 342.96 1308.07 344.37C1308.72 345.78 1308.11 347.45 1306.7 348.1L1275.6 362.46C1275.22 362.63 1274.82 362.72 1274.42 362.72Z" fill="white"/>
<path d="M1151.16 564.96C1143.73 563.97 1136.36 562.9 1130.47 558.34C1127.42 555.98 1125.06 551.2 1127.84 548.54C1129.24 547.2 1131.36 547.06 1133.25 546.64C1140.54 545.02 1135.46 539.01 1131.38 537.02C1124.19 533.52 1115.72 531.11 1111.4 524.38C1111.13 523.96 1110.87 523.49 1110.89 522.99C1110.93 522.24 1111.58 521.68 1112.21 521.27C1116.5 518.49 1124.76 520.1 1127.34 515.07C1133.64 502.78 1106.2 487.65 1099.66 481.33C1098.41 480.12 1097.1 478.81 1096.75 477.11C1096.06 473.81 1099.39 470.89 1102.71 470.29C1107.79 469.38 1113.01 471.59 1118.05 470C1122.02 468.75 1124.13 464.5 1124.5 460.59C1125.62 448.83 1118.4 437.32 1117.29 425.72C1116.38 416.23 1120.24 397.31 1133.59 399.82C1139.7 400.97 1142.51 407.85 1145.19 413.46C1147.68 418.66 1151 424.43 1155.16 428.43C1158.21 431.36 1162.36 433.44 1166.58 433.06C1174.77 432.31 1184.47 424.24 1186.54 437.35C1187.17 441.37 1186.32 445.46 1186.45 449.52C1186.58 453.58 1188.07 458.07 1191.74 459.83C1198.42 463.04 1215.34 451.89 1216.39 464.99C1216.66 468.27 1215.34 471.44 1214.24 474.54C1208.93 489.53 1222.86 486.82 1227.95 496.86C1229.78 500.47 1229.59 504.84 1228.34 508.69C1226.33 514.87 1222.05 520.21 1219.22 526.03C1213.47 537.85 1210.37 550.8 1208.14 563.68C1206.51 573.13 1206.59 591.06 1194.01 593.1C1186.25 594.36 1182.01 582.93 1178.61 577.99C1171.99 568.39 1162.1 566.41 1151.16 564.96Z" fill="white"/>
<path fill-rule="evenodd" clip-rule="evenodd" d="M1178.46 583.19C1181.57 588.67 1185.76 596.03 1192.77 596.03C1193.32 596.03 1193.89 595.99 1194.47 595.92C1207.12 593.881 1208.99 579.008 1210.23 569.158L1210.23 569.15C1210.25 569.005 1210.27 568.861 1210.29 568.717C1210.49 567.089 1210.69 565.561 1210.92 564.21C1212.74 553.65 1215.62 539.92 1221.75 527.31C1222.79 525.18 1224.02 523.12 1225.33 520.94L1225.38 520.862C1227.49 517.327 1229.68 513.67 1231.01 509.6C1232.66 504.55 1232.47 499.59 1230.46 495.63C1228.16 491.09 1224.36 488.76 1221.3 486.89C1216.54 483.98 1214.37 482.65 1216.89 475.52L1217.25 474.52C1218.3 471.62 1219.49 468.33 1219.2 464.8C1218.94 461.5 1217.76 459.04 1215.71 457.49C1211.96 454.655 1206.64 455.716 1201.49 456.745L1201.46 456.75L1201.44 456.754C1198.22 457.393 1194.58 458.118 1192.97 457.34C1190.38 456.09 1189.36 452.46 1189.27 449.47C1189.22 447.94 1189.32 446.41 1189.42 444.88L1189.42 444.88L1189.42 444.825C1189.58 442.282 1189.75 439.65 1189.32 436.94C1188.64 432.66 1187.13 429.84 1184.69 428.33C1181.06 426.08 1176.69 427.45 1172.46 428.78C1170.38 429.44 1168.22 430.12 1166.33 430.29C1163.35 430.57 1159.96 429.16 1157.12 426.43C1153.91 423.34 1150.75 418.58 1147.73 412.27L1147.15 411.04C1144.5 405.41 1141.2 398.41 1134.12 397.08C1129.62 396.23 1125.51 397.36 1122.24 400.35C1115.41 406.59 1113.87 419.4 1114.51 426C1115.01 431.19 1116.63 436.29 1118.21 441.23C1120.32 447.85 1122.31 454.1 1121.72 460.33C1121.45 463.2 1119.96 466.47 1117.22 467.33C1115.01 468.027 1112.56 467.792 1109.97 467.544L1109.93 467.54L1109.9 467.537C1107.44 467.298 1104.91 467.052 1102.23 467.53C1099.42 468.04 1096.73 469.74 1095.22 471.98C1094.02 473.75 1093.6 475.73 1094.01 477.69C1094.55 480.3 1096.38 482.07 1097.72 483.36C1099.35 484.927 1102.01 486.888 1105.1 489.165L1105.17 489.22C1113.94 495.67 1128.61 506.47 1124.85 513.8C1124.01 515.45 1121.77 515.94 1118.18 516.57C1115.58 517.02 1112.9 517.49 1110.69 518.92C1109.05 519.99 1108.17 521.31 1108.1 522.85C1108.03 524.32 1108.74 525.43 1109.05 525.91C1112.9 531.913 1119.3 534.724 1125.51 537.447L1125.56 537.47C1127.12 538.15 1128.67 538.83 1130.16 539.56C1132.44 540.68 1134.12 542.82 1134.21 543.29C1134.13 543.38 1133.69 543.68 1132.65 543.91L1131.6 544.12L1131.6 544.12C1129.83 544.45 1127.63 544.86 1125.9 546.52C1124.42 547.94 1123.7 549.81 1123.81 551.95C1123.97 554.98 1125.91 558.37 1128.75 560.57C1135.38 565.7 1143.57 566.79 1150.79 567.75C1161.6 569.18 1170.35 570.97 1176.31 579.61C1176.94 580.517 1177.6 581.678 1178.31 582.929L1178.46 583.19ZM1180.93 576.42C1173.68 565.9 1162.88 563.68 1151.52 562.17L1151.45 562.161C1144.64 561.254 1137.6 560.316 1132.18 556.13C1130.68 554.96 1129.48 553.03 1129.41 551.65C1129.38 551.04 1129.58 550.76 1129.78 550.57C1130.3 550.078 1131.4 549.867 1132.58 549.641L1132.64 549.63C1133.06 549.55 1133.47 549.47 1133.87 549.38C1138.54 548.35 1139.54 545.65 1139.72 544.13C1140.22 539.88 1135.63 535.97 1132.62 534.5C1131.15 533.777 1129.6 533.1 1128.06 532.424L1127.82 532.32C1122.42 529.96 1117.3 527.71 1114.16 523.4C1115.41 522.763 1117.3 522.434 1119.12 522.115L1119.15 522.11L1119.15 522.109C1122.95 521.449 1127.68 520.628 1129.86 516.37C1135.8 504.783 1119.39 492.707 1108.52 484.707L1108.51 484.7C1105.55 482.52 1103 480.64 1101.63 479.32C1100.77 478.49 1099.7 477.45 1099.51 476.54C1099.47 476.37 1099.36 475.87 1099.87 475.12C1100.54 474.12 1101.88 473.3 1103.21 473.06C1105.12 472.722 1107.17 472.918 1109.35 473.127L1109.38 473.13L1109.43 473.135C1112.45 473.423 1115.61 473.724 1118.9 472.68C1124.45 470.93 1126.9 465.21 1127.31 460.85C1128.01 453.47 1125.75 446.37 1123.56 439.51L1123.53 439.426C1121.99 434.587 1120.54 430.014 1120.1 425.45C1119.55 419.68 1121.05 409.03 1126.03 404.48C1128 402.68 1130.28 402.06 1133.08 402.58C1137.33 403.38 1139.74 408.479 1142.07 413.409L1142.07 413.41L1142.66 414.67C1146.02 421.69 1149.47 426.85 1153.22 430.45C1157.24 434.31 1162.2 436.25 1166.84 435.85C1169.27 435.636 1171.65 434.89 1173.97 434.167L1174.15 434.11L1174.16 434.106C1177.16 433.157 1180.27 432.171 1181.73 433.08C1182.66 433.66 1183.37 435.29 1183.76 437.79C1184.09 439.9 1183.95 442.13 1183.8 444.49C1183.69 446.2 1183.59 447.91 1183.64 449.61C1183.83 455.62 1186.4 460.39 1190.52 462.37C1193.83 463.953 1198.03 463.117 1202.49 462.231L1202.55 462.22L1202.58 462.214C1206.34 461.465 1210.57 460.624 1212.32 461.93C1213.04 462.47 1213.46 463.58 1213.6 465.22C1213.79 467.53 1212.91 469.98 1211.97 472.57L1211.6 473.61C1207.56 485.03 1213.55 488.7 1218.37 491.65C1221.2 493.38 1223.87 495.02 1225.45 498.14C1226.75 500.72 1226.83 504.25 1225.67 507.83C1224.52 511.316 1222.59 514.554 1220.53 517.979L1220.51 518.02C1219.19 520.21 1217.84 522.47 1216.69 524.82C1210.26 538.06 1207.26 552.3 1205.37 563.23C1205.11 564.77 1204.88 566.53 1204.65 568.42C1203.24 579.67 1201.43 589.08 1193.57 590.35C1189.71 590.95 1186.64 586.23 1183.34 580.42C1182.48 578.91 1181.68 577.51 1180.93 576.42Z" fill="#1A4A67"/>
<path d="M1153.35 460.24L1202.15 595.27L1153.35 460.24Z" fill="white"/>
<path d="M1202.15 598.08C1201 598.08 1199.92 597.37 1199.51 596.22L1150.71 461.19C1150.18 459.73 1150.94 458.12 1152.4 457.59C1153.86 457.07 1155.47 457.82 1156 459.28L1204.8 594.31C1205.33 595.77 1204.57 597.38 1203.11 597.91C1202.79 598.03 1202.47 598.08 1202.15 598.08Z" fill="#1A4A67"/>
<path d="M1169.05 501.37L1177.11 472.93L1169.05 501.37Z" fill="white"/>
<path d="M1169.05 504.18C1168.8 504.18 1168.54 504.15 1168.29 504.07C1166.79 503.65 1165.93 502.09 1166.35 500.6L1174.41 472.16C1174.83 470.67 1176.39 469.8 1177.88 470.22C1179.38 470.64 1180.24 472.2 1179.82 473.69L1171.76 502.13C1171.41 503.37 1170.28 504.18 1169.05 504.18Z" fill="#1A4A67"/>
<path d="M1187.25 550.14L1195.31 521.71L1187.25 550.14Z" fill="white"/>
<path d="M1187.25 552.95C1187 552.95 1186.74 552.92 1186.49 552.84C1184.99 552.42 1184.13 550.86 1184.55 549.37L1192.61 520.93C1193.03 519.44 1194.59 518.57 1196.08 518.99C1197.58 519.41 1198.44 520.97 1198.02 522.46L1189.96 550.9C1189.61 552.15 1188.48 552.95 1187.25 552.95Z" fill="#1A4A67"/>
<path d="M1176.12 528.04L1148.37 519.63L1176.12 528.04Z" fill="white"/>
<path d="M1176.12 530.85C1175.85 530.85 1175.57 530.81 1175.3 530.73L1147.54 522.32C1146.05 521.87 1145.22 520.3 1145.67 518.81C1146.12 517.32 1147.69 516.48 1149.18 516.94L1176.94 525.35C1178.43 525.8 1179.26 527.37 1178.81 528.86C1178.44 530.07 1177.33 530.85 1176.12 530.85Z" fill="#1A4A67"/>
<path d="M853.09 502.13C853.35 502.14 853.61 502.2 853.88 502.35C854.71 502.8 855.02 503.83 855.22 504.76C857.03 513.26 856.98 511.18 856.08 522.33C857.98 515.37 857.23 516.59 860.78 510.3C861.47 509.08 862.24 507.83 863.44 507.09C871.2 502.34 863.69 523.39 862.37 525.81C857.5 534.77 848.03 536.99 838.84 533.69C830.78 530.79 823.08 524.52 820.19 516.31C819.93 515.57 819.74 514.64 820.29 514.08C820.67 513.69 821.27 513.64 821.81 513.64C826.68 513.63 831.24 516.11 834.96 519.24C838.68 522.37 841.76 526.2 845.26 529.57C847.74 531.96 853.22 531.82 856.64 532.24C862.46 532.94 864.76 530.69 869.81 527.71C870.91 527.06 872.11 526.47 873.39 526.48C874.67 526.49 876.02 527.3 876.26 528.55C876.4 529.3 876.14 530.06 875.82 530.75C871.68 539.49 860.41 538.32 855.44 531.34C850.7 524.69 847.65 513.61 849.92 505.63C850.38 504.01 851.65 502.1 853.09 502.13Z" fill="#8BDEEC"/>
<path d="M1091.04 608.96C1098.09 601.7 1103.9 594.35 1112.56 588.8C1115.48 586.93 1118.89 585.2 1122.24 586.08C1122.87 586.25 1123.54 586.55 1123.83 587.16C1124.09 587.69 1124 588.32 1123.89 588.9C1116.43 625.96 1069.89 610.14 1069.34 576.94C1069.31 574.88 1069.47 572.71 1070.58 571.03C1072.62 567.95 1077.25 567.76 1080.29 569.83C1083.33 571.9 1085.02 575.56 1086.01 579.19C1088.63 588.79 1087.36 598.97 1086.06 608.8C1087.32 595.79 1092.57 583.27 1100.87 573.53C1102.12 572.07 1104.14 570.57 1105.7 571.7C1106.45 572.24 1106.76 573.22 1106.96 574.14C1108.43 580.74 1106.65 587.73 1103.42 593.55C1100.21 599.37 1095.62 604.22 1091.04 608.96Z" fill="#37C1D3"/>
<path d="M1361.15 551.26C1365.54 544.4 1369.32 536.45 1370.29 527.56C1370.52 525.41 1370.55 523.04 1369.57 521.3C1368.72 519.79 1367.29 519.08 1365.9 518.69C1356.04 515.91 1346.79 525.44 1339.68 534.87C1327.11 551.53 1315.89 569.96 1306.27 589.75C1312.03 577.91 1315.06 555.2 1313.69 541.28C1313.64 540.73 1313.55 540.14 1313.23 539.79C1312.9 539.44 1312.43 539.46 1312.01 539.56C1308.98 540.33 1307.07 544.22 1305.61 547.82C1301.11 558.97 1297.2 571.85 1294.59 584.36C1296.23 576.5 1291.38 567.04 1286.98 562.36C1279.11 553.99 1280.79 565.67 1282.5 572.53C1284.17 579.26 1295.3 605.58 1303.23 599.7C1304.68 598.62 1305.04 592.74 1306.23 590.85C1308.31 587.57 1311.2 586.49 1314.18 585.27C1322.18 581.99 1330.51 580.64 1338.03 575.48C1346.82 569.46 1354.76 561.25 1361.15 551.26Z" fill="#8BDEEC"/>
</svg>
