<?xml version="1.0" standalone="no"?><!DOCTYPE svg PUBLIC "-//W3C//DTD SVG 1.1//EN" "http://www.w3.org/Graphics/SVG/1.1/DTD/svg11.dtd"><svg t="1581411656562" class="icon" viewBox="0 0 1466 1024" version="1.1" xmlns="http://www.w3.org/2000/svg" p-id="2224" xmlns:xlink="http://www.w3.org/1999/xlink" width="286.328125" height="200"><defs><style type="text/css"></style></defs><path d="M542.748836 688.85008h-43.377361v69.784795h-105.05821v-69.784795H237.260839v-71.514028l163.778848-219.216873h98.331788v217.985894h43.377361z m-148.435571-72.745007v-41.926564q0-11.826193 0.937889-31.932186t1.465451-21.073191h-2.930903a256.600538 256.600538 0 0 1-20.736137 35.507887l-43.641142 59.424054zM854.977909 578.853299q0 95.693976-35.024288 140.199734t-107.212424 44.505759q-70.590793 0-106.42108-46.484118T570.489831 578.853299q0-96.16292 35.024288-141.049696t107.227078-44.886776q70.341667 0 106.274535 46.733244T854.977909 578.853299z m-178.609215 0q0 61.182596 8.353073 84.087601T712.741197 685.83125q19.944793 0 28.151321-23.66704T749.055083 578.853299q0-59.922307-8.338419-83.970365t-28.01943-24.033403q-19.681012 0-28.019431 23.168787T676.368694 578.853299zM1189.291335 688.85008h-43.362707v69.784795h-105.072865v-69.784795H883.87661v-71.514028l163.72023-219.216873h98.331788v217.985894h43.362707z m-148.435572-72.745007v-41.926564q0-11.826193 0.952544-31.932186t1.465451-21.073191h-2.930903a255.208359 255.208359 0 0 1-20.750791 35.507887l-43.641143 59.424054z" fill="#D2DAE4" p-id="2225"></path><path d="M238.623709 481.532672H79.343798a3.429156 3.429156 0 0 1 0-6.843658h159.279911a3.429156 3.429156 0 0 1 0 6.843658zM310.885117 481.532672h-34.042436a3.429156 3.429156 0 1 1 0-6.843658H310.885117a3.429156 3.429156 0 1 1 0 6.843658zM335.607282 440.514688H50.562332a3.429156 3.429156 0 1 1 0-6.843658h285.04495a3.429156 3.429156 0 1 1 0 6.843658zM27.100456 440.514688h-23.447223a3.429156 3.429156 0 1 1 0-6.843658h23.447223a3.429156 3.429156 0 0 1 0 6.843658zM145.201183 401.533681H50.562332a3.429156 3.429156 0 1 1 0-6.843658h94.638851a3.429156 3.429156 0 0 1 0 6.843658zM369.283355 401.533681H170.538838a3.429156 3.429156 0 1 1 0-6.843658h198.744517a3.429156 3.429156 0 1 1 0 6.843658zM1375.301079 806.994771H1204.913046a3.429156 3.429156 0 1 1 0-6.843658h170.388033a3.429156 3.429156 0 1 1 0 6.843658zM1427.661658 806.994771h-24.648893a3.429156 3.429156 0 0 1 0-6.843658h24.648893a3.429156 3.429156 0 0 1 0 6.843658zM1462.231656 765.962132H1238.940828a3.429156 3.429156 0 1 1 0-6.843658h223.290828a3.429156 3.429156 0 1 1 0 6.843658zM1221.926937 765.962132h-17.013891a3.429156 3.429156 0 1 1 0-6.843658h17.013891a3.429156 3.429156 0 0 1 0 6.843658zM1307.553262 726.99578h-102.581598a3.429156 3.429156 0 1 1 0-6.843658h102.581598a3.429156 3.429156 0 1 1 0 6.843658zM1403.012765 726.99578h-77.082743a3.429156 3.429156 0 1 1 0-6.843658h77.082743a3.429156 3.429156 0 1 1 0 6.843658z" fill="#E2CAC9" p-id="2226"></path><path d="M524.943602 762.430394h-115.404297v-69.784795H252.472225v-78.401649L418.844921 391.568611h106.098681V609.627778h43.362706v83.091094h-43.362706z m-105.072865-10.258159H514.58286V682.314167h43.377361V619.885938H514.58286V401.900044h-90.564896l-161.199652 215.787717v64.626406h157.052425z m0-132.19837h-80.306736l49.649493-67.615927a248.599174 248.599174 0 0 0 20.296502-34.745853l1.465451-2.930902h14.962259l-3.92741 7.019512c-0.175854 1.348215-0.556872 5.656642-1.20167 19.490503-0.61549 13.189063-0.937889 23.857549-0.937889 31.683059zM359.992393 609.627778h49.546912v-36.826793c0-7.98671 0.307745-18.816396 0.937889-32.166658 0-1.025816 0.102582-2.007668 0.146545-2.930903-4.044646 7.151403-8.382382 14.02437-12.969245 20.516319v0.102582zM733.125626 767.368966c-48.521096 0-85.699597-16.325128-110.509689-48.506441-12.309792-15.97342-21.659372-36.03545-27.843577-59.643872-6.052314-23.359295-9.129762-50.851163-9.129762-81.728224 0-32.327858 2.930903-60.786924 8.909945-84.585854 5.979042-24.12133 15.138113-44.183359 27.213432-59.643872 24.25322-31.111533 61.710158-46.894444 111.286378-46.894444 48.359896 0 85.47978 16.413056 110.377799 48.755568 12.353755 16.119965 21.732644 36.255267 27.843577 60.083507 6.066969 23.520495 9.144417 51.217526 9.144416 82.329059 0 32.166658-2.930903 60.479179-8.909944 84.146218-5.979042 23.96013-15.138113 43.963542-27.213433 59.2482-24.150639 30.847752-61.534304 46.440155-111.169142 46.440155z m0-370.641966c-23.256714 0-43.758378 3.634319-60.90416 10.815031a103.636722 103.636722 0 0 0-42.234309 32.093386c-22.509333 28.854738-33.9252 75.236274-33.925199 137.869667 0 59.717144 11.723611 105.146137 34.745852 135.070654a107.520168 107.520168 0 0 0 42.49809 33.280401c16.999236 7.415184 37.119884 11.181394 59.819726 11.181394 23.271368 0 43.773033-3.60501 60.918814-10.727104a103.548795 103.548795 0 0 0 42.234309-31.800295c22.509333-28.605611 33.9252-74.738021 33.9252-137.00505 0-60.186089-11.723611-105.96679-34.892398-136.052507a108.23824 108.23824 0 0 0-42.49809-33.47091c-17.013891-7.473802-37.07592-11.254667-59.687835-11.254667z m0 292.958387c-10.624523 0-24.912674-4.572208-32.870075-26.378125-5.861806-16.002729-8.660818-44.080778-8.660817-85.860796 0-42.087764 2.828321-70.414939 8.660817-86.578869 7.913438-21.981771 22.245552-26.597943 32.870075-26.597942s25.000601 4.777372 32.899384 27.521177c5.861806 16.735455 8.646163 44.754885 8.646163 85.655634s-2.784358 68.568471-8.514273 84.99618c-7.781547 22.538642-22.260207 27.242741-33.031274 27.242741z m0-215.025682c-3.956719 0-16.032038 0-23.154132 19.754285-5.334243 14.815714-8.045328 42.761872-8.045328 83.076439 0 39.977514 2.711085 67.674545 8.045328 82.329059 7.107439 19.534467 19.182759 19.534467 23.154132 19.534467 14.566587 0 20.252538-11.533102 23.271368-20.208574 5.26097-15.152767 7.928092-42.629981 7.928092-81.654952s-2.711085-66.853892-8.059983-82.270441c-7.210021-20.560283-19.182759-20.560283-23.139477-20.560283zM1171.4861 762.430394h-115.404297v-69.784795H899.029378v-78.401649L1065.402074 391.568611h106.084026V609.627778h43.377361v83.091094h-43.377361z m-105.05821-10.258159h94.712123V682.314167h43.377362V619.885938h-43.377362V401.900044h-90.564895l-161.199653 215.787717v64.626406h157.052425z m0-132.19837h-80.306736l49.649493-67.615927a249.375863 249.375863 0 0 0 20.281847-34.745853l1.465452-2.930902h14.962258L1068.523486 521.700695c-0.175854 1.348215-0.556872 5.656642-1.201671 19.490503-0.630144 13.189063-0.937889 23.813585-0.937888 31.683059zM1006.534892 609.627778h49.546911v-36.826793c0-8.030674 0.322399-18.860359 0.952544-32.239931 0-1.011161 0.087927-1.993014 0.13189-2.930903-4.044646 7.151403-8.382382 14.02437-12.969244 20.51632v0.102581zM577.01109 879.651851h-32.239931v27.359978h35.918213v8.221182h-46.601354v-75.895728h44.76954v8.221183h-34.071745v23.989439h32.239931zM594.596506 840.348445a121.77901 121.77901 0 0 1 20.51632-1.568033c11.430521 0 18.816396 1.905087 23.974784 6.184205a18.142288 18.142288 0 0 1 6.521259 14.420041c0 10.023688-6.887622 16.662182-15.621712 19.358613v0.337054c6.404023 2.036977 10.25816 7.429839 12.177901 15.313967 2.711085 10.595214 4.67479 17.907816 6.404023 20.838719h-11.078813c-1.348215-2.139559-3.194684-8.675472-5.524751-18.127634-2.461958-10.477977-6.887622-14.420042-16.603565-14.757095h-10.067651v32.884729h-10.697795z m10.697795 34.526035h10.946922c11.445175 0 18.69916-5.744569 18.69916-14.405388 0-9.80387-7.752238-14.082988-19.050868-14.200224a47.685788 47.685788 0 0 0-10.580559 0.90858zM660.776291 840.348445a121.720392 121.720392 0 0 1 20.516319-1.568033c11.445175 0 18.83105 1.905087 23.98944 6.184205a18.142288 18.142288 0 0 1 6.521258 14.420041c0 10.023688-6.887622 16.662182-15.621711 19.358613v0.337054c6.389368 2.036977 10.25816 7.429839 12.177901 15.313967 2.711085 10.595214 4.67479 17.907816 6.389368 20.838719h-11.064158c-1.348215-2.139559-3.194684-8.675472-5.539407-18.127634-2.461958-10.477977-6.887622-14.420042-16.603564-14.757095h-10.082305v32.884729h-10.697796z m10.697795 34.569998h10.946922c11.445175 0 18.69916-5.744569 18.69916-14.405387 0-9.80387-7.752238-14.082988-19.050868-14.200224a47.465971 47.465971 0 0 0-10.580559 0.90858zM798.162359 876.501131c0 26.114344-17.33629 39.962859-38.497408 39.962859-21.893844 0-37.266429-15.533785-37.266429-38.497408 0-24.106675 16.354438-39.860278 38.497408-39.860278 22.626569 0 37.266429 15.870839 37.266429 38.394827z m-64.333316 1.230979c0 16.222547 9.598707 30.774479 26.378125 30.774479s26.568634-14.302806 26.568633-31.536514c0-15.079495-8.616854-30.774479-26.378125-30.774479s-26.568634 14.874332-26.568633 31.609786zM812.069492 840.348445a121.720392 121.720392 0 0 1 20.51632-1.568033c11.445175 0 18.83105 1.905087 23.989439 6.184205a18.200906 18.200906 0 0 1 6.521259 14.420041c0 10.023688-6.887622 16.662182-15.621712 19.358613v0.337054c6.389368 2.036977 10.25816 7.429839 12.177901 15.313967 2.711085 10.595214 4.67479 17.907816 6.389368 20.838719h-11.064158c-1.348215-2.139559-3.194684-8.675472-5.539406-18.127634-2.461958-10.477977-6.887622-14.420042-16.603564-14.757095h-10.067651v32.884729H812.069492z m10.697796 34.526035h10.946921c11.430521 0 18.69916-5.744569 18.69916-14.405388 0-9.80387-7.752238-14.082988-19.050868-14.200224a47.465971 47.465971 0 0 0-10.580559 0.90858z" fill="#3578B6" p-id="2227"></path><path d="M1279.27005 472.637382a3.414502 3.414502 0 0 1-3.429156-3.414502v-33.426946a3.429156 3.429156 0 1 1 6.843658 0v33.426946a3.414502 3.414502 0 0 1-3.414502 3.414502zM1253.78585 482.309361a3.429156 3.429156 0 0 1-2.315413-0.90858l-25.821253-23.623076a3.429156 3.429156 0 1 1 4.616171-5.055807L1256.101263 476.359629a3.429156 3.429156 0 0 1-2.300758 5.949732zM1243.219946 505.580729h-36.519049a3.429156 3.429156 0 0 1 0-6.843658h36.519049a3.429156 3.429156 0 1 1 0 6.843658zM1227.964597 552.607064a3.487774 3.487774 0 0 1-2.535231-1.113743 3.429156 3.429156 0 0 1 0.219818-4.835989l25.821253-23.637731a3.429156 3.429156 0 0 1 4.616172 5.055807l-25.821254 23.637731a3.370538 3.370538 0 0 1-2.300758 0.893925zM1279.27005 572.053604a3.414502 3.414502 0 0 1-3.429156-3.414501v-33.426946a3.429156 3.429156 0 1 1 6.843658 0V568.595139a3.414502 3.414502 0 0 1-3.414502 3.458465zM1330.575503 552.607064a3.429156 3.429156 0 0 1-2.315413-0.893925l-25.806599-23.637731a3.429156 3.429156 0 1 1 4.616172-5.055807L1332.890916 546.613368a3.429156 3.429156 0 0 1-2.315413 5.949733zM1351.824548 505.580729h-36.504394a3.429156 3.429156 0 1 1 0-6.843658h36.504394a3.429156 3.429156 0 1 1 0 6.843658zM1304.75425 482.309361a3.429156 3.429156 0 0 1-2.300759-5.949732l25.806599-23.637731a3.429156 3.429156 0 0 1 4.630826 5.055807l-25.821253 23.623076a3.429156 3.429156 0 0 1-2.315413 0.90858zM134.005134 639.068696a3.414502 3.414502 0 0 1-3.370538-3.414501v-24.165294a3.429156 3.429156 0 0 1 6.843658 0v24.165294a3.414502 3.414502 0 0 1-3.47312 3.414501zM115.58441 646.0589a3.429156 3.429156 0 0 1-2.315413-0.893926l-18.655196-17.087163a3.429156 3.429156 0 1 1 4.616172-5.055807l18.669851 17.087163a3.429156 3.429156 0 0 1 0.205163 4.83599 3.370538 3.370538 0 0 1-2.520577 1.113743zM107.949409 662.926245h-26.378125a3.429156 3.429156 0 0 1 0-6.843658h26.378125a3.429156 3.429156 0 1 1 0 6.843658zM96.929214 696.880754a3.429156 3.429156 0 0 1-2.315413-5.949733l18.655196-17.087163a3.429156 3.429156 0 0 1 4.630827 5.055807l-18.669851 17.072509a3.414502 3.414502 0 0 1-2.300759 0.90858zM134.005134 710.934433a3.414502 3.414502 0 0 1-3.370538-3.414502v-24.165294a3.429156 3.429156 0 1 1 6.843658 0v24.165294a3.414502 3.414502 0 0 1-3.47312 3.414502zM171.095709 696.880754a3.443811 3.443811 0 0 1-2.315413-0.90858l-18.655196-17.072509a3.429156 3.429156 0 1 1 4.616172-5.055807l18.66985 17.087163a3.429156 3.429156 0 0 1-2.315413 5.949733zM186.45364 662.926245h-26.378125a3.429156 3.429156 0 0 1 0-6.843658h26.378125a3.429156 3.429156 0 1 1 0 6.843658zM152.440513 646.0589a3.385193 3.385193 0 0 1-2.535231-1.113743 3.429156 3.429156 0 0 1 0.219818-4.83599l18.611232-17.087163a3.429156 3.429156 0 0 1 4.630827 5.055807l-18.669851 17.087163a3.399847 3.399847 0 0 1-2.256795 0.893926zM848.236833 140.038535a3.414502 3.414502 0 0 1-3.414502-3.429156V112.45874a3.429156 3.429156 0 1 1 6.843658 0v24.150639a3.429156 3.429156 0 0 1-3.429156 3.429156zM829.816109 147.028738a3.429156 3.429156 0 0 1-2.315413-0.90858L808.845499 129.047649a3.429156 3.429156 0 1 1 4.689445-5.055807l18.66985 17.087163a3.429156 3.429156 0 0 1-2.315413 5.949733zM822.181107 163.881429h-26.378125a3.429156 3.429156 0 0 1 0-6.843658h26.378125a3.429156 3.429156 0 1 1 0 6.843658zM811.146258 197.835938a3.370538 3.370538 0 0 1-2.520576-1.113743 3.429156 3.429156 0 0 1 0.219817-4.83599l18.655197-17.072509a3.429156 3.429156 0 0 1 4.630826 5.041153L813.534944 196.942012a3.414502 3.414502 0 0 1-2.388686 0.893926zM848.236833 211.904271a3.414502 3.414502 0 0 1-3.414502-3.429156v-24.165294a3.429156 3.429156 0 0 1 6.843658 0v24.165294a3.429156 3.429156 0 0 1-3.429156 3.429156zM885.342062 197.835938a3.429156 3.429156 0 0 1-2.315413-0.893926l-18.655197-17.087163a3.414502 3.414502 0 1 1 4.616172-5.041153l18.669851 17.072509a3.429156 3.429156 0 0 1 0.205163 4.83599 3.370538 3.370538 0 0 1-2.520576 1.113743zM900.685338 163.881429h-26.378125a3.429156 3.429156 0 0 1 0-6.843658h26.378125a3.429156 3.429156 0 1 1 0 6.843658zM866.657557 147.028738a3.429156 3.429156 0 0 1-2.300759-5.949733l18.655196-17.087163a3.429156 3.429156 0 0 1 4.630827 5.055807l-18.669851 17.072509a3.429156 3.429156 0 0 1-2.315413 0.90858zM1170.592175 942.050771H265.045798a3.839483 3.839483 0 0 1-3.839483-3.839482v-130.425174a3.839483 3.839483 0 0 1 3.839483-3.839483h905.546377a3.824828 3.824828 0 0 1 3.824828 3.839483v130.425174a3.824828 3.824828 0 0 1-3.824828 3.839482z m-901.721549-7.66431H1166.708729v-122.834136H268.870626z" fill="#D2DAE4" p-id="2228"></path><path d="M415.298529 991.861464h-8.792709v-2.930903h21.571445v2.930903h-8.909945V1015.557813h-3.810173zM430.832313 987.509073h3.795519V999.437848h0.087928a6.770385 6.770385 0 0 1 2.725739-2.461959 8.470309 8.470309 0 0 1 3.883446-0.981852c2.813667 0 7.327257 1.582688 7.327257 8.191873V1015.557813h-3.810173v-10.990885c0-3.092102-1.245634-5.700606-4.83599-5.700606a5.42217 5.42217 0 0 0-5.099771 3.473119 3.898101 3.898101 0 0 0-0.263781 1.670615V1015.557813h-3.795519zM456.932003 1006.662523c0.087927 4.704099 3.370538 6.653149 7.180711 6.653149a14.742441 14.742441 0 0 0 5.788533-0.996507l0.659454 2.491268a18.303488 18.303488 0 0 1-6.960895 1.187015c-6.447986 0-10.25816-3.868792-10.258159-9.657324s3.707592-10.25816 9.80387-10.25816c6.829003 0 8.646163 5.495443 8.646163 9.012526a11.723611 11.723611 0 0 1-0.131891 1.626651z m11.166739-2.491267c0-2.212832-0.996507-5.656642-5.275625-5.656643a6.008351 6.008351 0 0 0-5.861805 5.656643zM485.640195 1002.36875c0-2.256795 0-4.191191-0.175854-5.979041h3.341229l0.117236 3.76621h0.175855a6.213514 6.213514 0 0 1 5.861805-4.191191 3.986028 3.986028 0 0 1 1.06978 0.117236V999.437848a5.612679 5.612679 0 0 0-1.289598-0.117236 5.158389 5.158389 0 0 0-5.09977 4.469626 8.792708 8.792708 0 0 0-0.175855 1.626651v10.25816h-3.76621zM501.46707 1006.662523c0.087927 4.704099 3.370538 6.653149 7.180712 6.653149a14.742441 14.742441 0 0 0 5.788533-0.996507l0.644799 2.491268a18.24487 18.24487 0 0 1-6.960894 1.187015c-6.433332 0-10.25816-3.868792-10.25816-9.657324s3.722247-10.25816 9.818524-10.25816c6.829003 0 8.646163 5.495443 8.646163 9.012526a11.723611 11.723611 0 0 1-0.13189 1.626651z m11.152085-2.491267c0-2.212832-0.996507-5.656642-5.275625-5.656643a6.008351 6.008351 0 0 0-5.861805 5.656643zM535.275034 1012.62691h-0.087927a7.635002 7.635002 0 0 1-6.829004 3.399847c-4.879953 0-8.792708-3.883446-8.792708-9.701288 0-7.151403 5.055807-10.25816 9.466816-10.25816a7.019512 7.019512 0 0 1 6.447986 3.311921h0.087927l0.131891-2.930903h3.575701c-0.073273 1.626651-0.117236 3.282611-0.117236 5.26097v21.732644h-3.810173z m0-8.426345a5.29028 5.29028 0 0 0-0.175854-1.465452 5.466134 5.466134 0 0 0-5.451479-3.956718c-3.92741 0-6.301441 3.048139-6.301441 7.327257 0 3.795519 1.978359 7.122094 6.184204 7.122093a5.627333 5.627333 0 0 0 5.436825-3.795519 5.436825 5.436825 0 0 0 0.307745-1.670614zM562.854829 1010.38477c0 1.978359 0 3.722247 0.175854 5.217007h-3.370538l-0.219818-3.121412h-0.087927a8.016019 8.016019 0 0 1-6.91693 3.561047c-3.282611 0-7.210021-1.65596-7.210021-8.382382V996.506945h3.795519v10.609868c0 3.634319 1.216325 6.096278 4.67479 6.096278a5.495443 5.495443 0 0 0 5.011844-3.165375 4.630826 4.630826 0 0 0 0.351708-1.787851v-11.723611h3.795519zM571.281175 1006.662523c0.087927 4.704099 3.385193 6.653149 7.180711 6.653149a14.874332 14.874332 0 0 0 5.861806-0.996507l0.644799 2.491268a18.303488 18.303488 0 0 1-6.960895 1.187015c-6.447986 0-10.25816-3.868792-10.258159-9.657324s3.707592-10.25816 9.80387-10.25816c6.829003 0 8.646163 5.495443 8.646163 9.012526a15.51913 15.51913 0 0 1-0.117236 1.626651z m11.166739-2.491267c0-2.212832-0.996507-5.656642-5.275625-5.656643a6.008351 6.008351 0 0 0-5.861805 5.656643zM590.317388 1012.04073a10.565905 10.565905 0 0 0 5.011844 1.392178c2.769703 0 4.0593-1.274943 4.0593-2.85763s-1.084434-2.56454-3.883446-3.517083c-3.76621-1.230979-5.539406-3.121411-5.539406-5.42217 0-3.092102 2.72574-5.612679 7.224675-5.612679a11.093467 11.093467 0 0 1 5.143735 1.187016l-0.952544 2.520576a8.792708 8.792708 0 0 0-4.279118-1.099089c-2.256795 0-3.502429 1.187016-3.502429 2.608504s1.245634 2.300759 3.971374 3.238647c3.634319 1.274943 5.495443 2.930903 5.495442 5.788533 0 3.355884-2.85763 5.729915-7.82551 5.729915a12.764082 12.764082 0 0 1-5.861806-1.304251zM612.533631 990.952884V996.506945h5.451479v2.652467h-5.451479v10.331432c0 2.374031 0.732726 3.722247 2.930903 3.722247a9.290962 9.290962 0 0 0 2.198177-0.234472l0.175854 2.608503a10.082306 10.082306 0 0 1-3.370538 0.468944 5.554061 5.554061 0 0 1-4.117918-1.465451 6.711767 6.711767 0 0 1-1.465452-4.982535v-10.448668h-3.238647V996.506945h3.238647v-4.586863zM624.125352 1006.662523c0.073273 4.704099 3.370538 6.653149 7.166057 6.653149a14.874332 14.874332 0 0 0 5.861806-0.996507l0.644798 2.491268a18.303488 18.303488 0 0 1-6.960894 1.187015c-6.447986 0-10.25816-3.868792-10.25816-9.657324s3.707592-10.25816 9.80387-10.25816c6.843658 0 8.646163 5.495443 8.646163 9.012526a12.295137 12.295137 0 0 1-0.117236 1.626651z m11.152085-2.491267c0-2.212832-0.996507-5.656642-5.275625-5.656643a5.979042 5.979042 0 0 0-5.861806 5.656643zM661.728834 987.509073v23.154132c0 1.699924 0 3.634319 0.175855 4.938572h-3.414502l-0.175854-3.311921H658.197096a7.884128 7.884128 0 0 1-7.136748 3.751556c-5.055807 0-8.939253-3.912755-8.939253-9.730597 0-6.374714 4.279118-10.25816 9.378889-10.25816a7.210021 7.210021 0 0 1 6.316095 2.930903h0.087927v-11.430521z m-3.795519 16.735455a5.641988 5.641988 0 0 0-0.175854-1.465451 5.510097 5.510097 0 0 0-5.495443-4.029991c-3.92741 0-6.272132 3.165375-6.272132 7.400529 0 3.883446 2.080941 7.07813 6.184205 7.07813a5.627333 5.627333 0 0 0 5.58337-4.147227 5.539406 5.539406 0 0 0 0.175854-1.465452zM677.247965 1002.705804c0-2.447304-0.087927-4.396354-0.175855-6.257477h3.429157l0.161199 3.282611h0.087927a8.426345 8.426345 0 0 1 7.444493-3.707592c5.055807 0 8.792708 3.912755 8.792709 9.730597 0 6.887622-4.572208 10.25816-9.51078 10.25816a7.561729 7.561729 0 0 1-6.433331-3.004175h-0.087927v10.404704H677.247965z m3.76621 5.099771a7.327257 7.327257 0 0 0 0.175854 1.465452 5.861806 5.861806 0 0 0 5.700606 4.073954c4.029991 0 6.360059-3.01883 6.360059-7.400529 0-3.839483-2.212832-7.122094-6.228169-7.122094a5.964387 5.964387 0 0 0-5.744569 4.308427 5.187698 5.187698 0 0 0-0.263781 1.465452zM713.40065 1015.557813l-0.307744-2.40334h-0.131891a8.089292 8.089292 0 0 1-6.404023 2.842975c-4.235155 0-6.389368-2.72574-6.389368-5.495442 0-4.630826 4.498936-7.166057 12.573573-7.122094v-0.395672c0-1.582688-0.468944-4.396354-4.748062-4.396354a11.210703 11.210703 0 0 0-5.451479 1.465451l-0.864617-2.286104a13.775243 13.775243 0 0 1 6.872967-1.699924c6.404023 0 7.957401 3.986028 7.957401 7.825511v7.166057A24.311839 24.311839 0 0 0 716.815152 1015.557813z m-0.571526-9.774561c-4.147227-0.073273-8.792708 0.600835-8.792708 4.323082a3.238648 3.238648 0 0 0 3.590356 3.326574 5.202352 5.202352 0 0 0 5.055807-3.209338 3.414502 3.414502 0 0 0 0.219818-1.113743zM740.672701 996.506945c-0.087927 1.392179-0.175854 2.930903-0.175854 5.26097v11.122776c0 4.396354-0.952543 7.092785-2.930903 8.792709a11.723611 11.723611 0 0 1-7.605693 2.300758 14.493314 14.493314 0 0 1-6.960894-1.582687l0.937889-2.652467a12.676155 12.676155 0 0 0 6.140241 1.465451c3.898101 0 6.755731-1.861123 6.755731-6.682458v-2.139559h-0.087927A7.649656 7.649656 0 0 1 730.004215 1015.557813a8.865981 8.865981 0 0 1-8.89529-9.334925c0-6.49195 4.616172-10.170233 9.422852-10.170233a7.063476 7.063476 0 0 1 6.521259 3.31192h0.087927l0.175854-2.930903z m-3.92741 7.561729a4.498936 4.498936 0 0 0-0.219818-1.582687 5.407516 5.407516 0 0 0-5.319588-3.678283c-3.634319 0-6.228168 2.813667-6.228169 7.239329 0 3.76621 2.080941 6.887622 6.184205 6.887622a5.363552 5.363552 0 0 0 5.58337-5.42217zM748.937847 1006.662523c0.073273 4.704099 3.370538 6.653149 7.166057 6.653149a14.874332 14.874332 0 0 0 5.861805-0.996507l0.644799 2.491268a18.303488 18.303488 0 0 1-6.960894 1.187015c-6.447986 0-10.25816-3.868792-10.25816-9.657324s3.707592-10.25816 9.80387-10.25816c6.843658 0 8.646163 5.495443 8.646163 9.012526a12.295137 12.295137 0 0 1-0.117236 1.626651z m11.152085-2.491267c0-2.212832-0.996507-5.656642-5.275625-5.656643a5.979042 5.979042 0 0 0-5.861806 5.656643zM795.715055 987.509073v23.154132c0 1.699924 0 3.634319 0.1612 4.938572h-3.414502l-0.1612-3.311921h-0.087927a7.898783 7.898783 0 0 1-7.136748 3.751556c-5.055807 0-8.953908-3.912755-8.953908-9.730597 0-6.374714 4.279118-10.25816 9.378889-10.25816a7.180712 7.180712 0 0 1 6.316095 2.930903h0.087927v-11.430521z m-3.810174 16.735455a5.641988 5.641988 0 0 0-0.175854-1.465451 5.495443 5.495443 0 0 0-5.495443-4.029991c-3.92741 0-6.257477 3.165375-6.257477 7.400529 0 3.883446 2.066286 7.07813 6.184205 7.07813a5.612679 5.612679 0 0 0 5.568715-4.147227 5.539406 5.539406 0 0 0 0.175854-1.465452zM820.950128 1005.871179c0 7.07813-5.348898 10.170233-10.41936 10.170233a9.496125 9.496125 0 0 1-10.023687-9.847833c0-6.418677 4.586863-10.170233 10.375396-10.170233s10.067651 3.986028 10.067651 9.847833z m-16.58891 0.205163c0 4.191191 2.637813 7.327257 6.345405 7.327257s6.360059-3.136066 6.360059-7.444493c0-3.238648-1.773196-7.327257-6.272132-7.327257s-6.433332 3.736901-6.433332 7.444493zM827.867058 1006.662523c0.087927 4.704099 3.385193 6.653149 7.180712 6.653149a14.874332 14.874332 0 0 0 5.861806-0.996507l0.644798 2.491268a18.303488 18.303488 0 0 1-6.960894 1.187015c-6.447986 0-10.25816-3.868792-10.258159-9.657324s3.707592-10.25816 9.803869-10.25816c6.829003 0 8.646163 5.495443 8.646164 9.012526a15.51913 15.51913 0 0 1-0.117237 1.626651z m11.16674-2.491267c0-2.212832-0.996507-5.656642-5.275625-5.656643a6.008351 6.008351 0 0 0-5.861806 5.656643zM846.903272 1012.04073a10.565905 10.565905 0 0 0 5.011844 1.392178c2.769703 0 4.0593-1.274943 4.0593-2.85763s-1.084434-2.56454-3.883446-3.517083c-3.76621-1.230979-5.539406-3.121411-5.539406-5.42217 0-3.092102 2.72574-5.612679 7.224675-5.612679a11.093467 11.093467 0 0 1 5.143734 1.187016l-0.952543 2.520576a8.792708 8.792708 0 0 0-4.279118-1.099089c-2.256795 0-3.502429 1.187016-3.502429 2.608504s1.245634 2.300759 3.971373 3.238647c3.634319 1.274943 5.495443 2.930903 5.495443 5.788533 0 3.355884-2.930903 5.729915-7.82551 5.729915a12.764082 12.764082 0 0 1-5.861806-1.304251zM873.706378 1001.636025c0-1.978359 0-3.60501-0.175854-5.187698h3.370538l0.219818 3.165375h0.087927a7.810856 7.810856 0 0 1 6.91693-3.590356c2.930903 0 7.327257 1.582688 7.327257 8.14791V1015.557813h-3.810173v-10.990885c0-3.092102-1.245634-5.656642-4.83599-5.656643a5.334243 5.334243 0 0 0-5.099771 3.561047 4.498936 4.498936 0 0 0-0.263781 1.626651V1015.557813h-3.795519zM916.629449 1005.871179c0 7.07813-5.363552 10.170233-10.419359 10.170233a9.496125 9.496125 0 0 1-10.023688-9.847833c0-6.418677 4.572208-10.170233 10.375396-10.170233s10.067651 3.986028 10.067651 9.847833z m-16.603564 0.205163c0 4.191191 2.637813 7.327257 6.360059 7.327257s6.360059-3.136066 6.360059-7.444493c0-3.238648-1.773196-7.327257-6.272132-7.327257S899.996576 1002.36875 899.996576 1006.076342zM926.008338 990.952884V996.506945h5.451479v2.652467h-5.451479v10.331432c0 2.374031 0.732726 3.722247 2.930903 3.722247a9.18838 9.18838 0 0 0 2.198177-0.234472l0.175854 2.608503a10.082306 10.082306 0 0 1-3.370538 0.468944 5.510097 5.510097 0 0 1-4.103264-1.465451 6.638495 6.638495 0 0 1-1.465452-4.982535v-10.448668H919.047444V996.506945h3.253302v-4.586863zM947.022911 1006.662523c0.087927 4.704099 3.370538 6.653149 7.180712 6.653149a14.742441 14.742441 0 0 0 5.861805-0.996507l0.644799 2.491268a18.24487 18.24487 0 0 1-6.960894 1.187015c-6.433332 0-10.25816-3.868792-10.25816-9.657324s3.722247-10.25816 9.818524-10.25816c6.829003 0 8.646163 5.495443 8.646164 9.012526a11.723611 11.723611 0 0 1-0.131891 1.626651z m11.152085-2.491267c0-2.212832-0.996507-5.656642-5.275625-5.656643a6.008351 6.008351 0 0 0-5.861806 5.656643zM968.213338 996.506945l2.930903 4.117918c0.776689 1.06978 1.465451 2.066286 2.124904 3.121412h0.131891c0.688762-1.143052 1.377524-2.124905 2.066286-3.165375l2.930903-4.073955h4.103264l-7.136748 9.261653 7.327257 9.891797h-4.396354l-3.077448-4.308428c-0.820653-1.113743-1.465451-2.183523-2.242141-3.326574h-0.087927c-0.688762 1.143052-1.465451 2.183523-2.198177 3.326574l-2.872285 4.205846h-4.191191l7.429839-9.774561-7.092785-9.378889zM990.693362 991.07012a2.374031 2.374031 0 0 1-4.718753 0 2.212832 2.212832 0 0 1 2.374031-2.168868 2.154214 2.154214 0 0 1 2.344722 2.168868zM986.458208 1015.557813v-19.050868h3.795519v19.050868zM996.04226 1012.04073a10.668486 10.668486 0 0 0 5.026498 1.392178c2.755049 0 4.0593-1.274943 4.0593-2.85763s-1.084434-2.56454-3.8981-3.517083c-3.751556-1.230979-5.524752-3.121411-5.524752-5.42217 0-3.092102 2.72574-5.612679 7.224675-5.612679a11.093467 11.093467 0 0 1 5.143735 1.187016l-0.952544 2.520576a8.792708 8.792708 0 0 0-4.279118-1.099089c-2.256795 0-3.502429 1.187016-3.502429 2.608504s1.245634 2.300759 3.971374 3.238647c3.634319 1.274943 5.495443 2.930903 5.495442 5.788533 0 3.355884-2.930903 5.729915-7.82551 5.729915a12.764082 12.764082 0 0 1-5.861806-1.304251zM1018.273157 990.952884V996.506945h5.45148v2.652467h-5.45148v10.331432c0 2.374031 0.732726 3.722247 2.857631 3.722247a9.290962 9.290962 0 0 0 2.198177-0.234472l0.175854 2.608503a10.082306 10.082306 0 0 1-3.370538 0.468944 5.554061 5.554061 0 0 1-4.117919-1.465451 6.711767 6.711767 0 0 1-1.465451-4.982535v-10.448668H1011.370881V996.506945h3.238648v-4.586863zM1026.963284 1013.550145a2.447304 2.447304 0 0 1 2.593849-2.491268 2.491267 2.491267 0 1 1 0 4.982535 2.432649 2.432649 0 0 1-2.593849-2.491267z" fill="#3578B6" p-id="2229"></path><path d="M929.305604 470.483169a3.414502 3.414502 0 0 1-3.414502-3.414502V238.194469H339.036438v101.116146a3.429156 3.429156 0 1 1-6.843658 0V234.765313a3.414502 3.414502 0 0 1 3.414502-3.414502H929.305604a3.414502 3.414502 0 0 1 3.429156 3.414502v232.303354a3.414502 3.414502 0 0 1-3.429156 3.414502z" fill="#E4E8F2" p-id="2230"></path><path d="M1113.791279 354.346146a3.414502 3.414502 0 0 1-3.414502-3.429156v-56.126788H720.068454a3.414502 3.414502 0 0 1-3.414502-3.429157V160.466927a3.429156 3.429156 0 1 1 6.843658 0v127.494271h390.293669a3.429156 3.429156 0 0 1 3.429156 3.429156v59.555945a3.429156 3.429156 0 0 1-3.429156 3.399847z" fill="#E4E8F2" p-id="2231"></path><path d="M335.607282 368.678261c-9.701288 0-17.585417-7.327257-17.585417-16.398401s7.884128-16.383747 17.585417-16.383747 17.585417 7.327257 17.585417 16.383747-7.884128 16.398401-17.585417 16.398401z m0-25.93849c-5.861806 0-10.741759 4.279118-10.741759 9.540089s4.821335 9.554743 10.741759 9.554743 10.741759-4.293773 10.741759-9.554743-4.806681-9.540089-10.741759-9.540089zM720.068454 163.881429c-9.701288 0-17.585417-7.327257-17.585417-16.383747s7.884128-16.398401 17.585417-16.398401 17.585417 7.327257 17.585417 16.398401-7.884128 16.383747-17.585417 16.383747z m0-25.93849c-5.861806 0-10.741759 4.293773-10.741759 9.554743s4.821335 9.540089 10.741759 9.540089 10.756413-4.279118 10.756413-9.540089-4.821335-9.554743-10.756413-9.554743zM1113.791279 381.647505c-9.701288 0-17.585417-7.327257-17.585417-16.398401s7.884128-16.383747 17.585417-16.383746 17.585417 7.327257 17.585417 16.383746-7.884128 16.398401-17.585417 16.398401z m0-25.938489c-5.861806 0-10.741759 4.279118-10.741759 9.540088s4.821335 9.554743 10.741759 9.554743 10.741759-4.293773 10.741759-9.554743-4.821335-9.540089-10.741759-9.540088zM929.305604 498.575872c-9.686634 0-17.585417-7.327257-17.585417-16.383747s7.898783-16.398401 17.585417-16.398401 17.585417 7.327257 17.585416 16.398401-7.854819 16.383747-17.585416 16.383747z m0-25.93849c-5.861806 0-10.741759 4.279118-10.741759 9.554743s4.821335 9.540089 10.741759 9.540089 10.756413-4.279118 10.756413-9.540089-4.792026-9.554743-10.756413-9.554743z" fill="#D2DAE4" p-id="2232"></path><path d="M209.768971 776.029783a3.429156 3.429156 0 0 1-2.315413-5.949732l33.529528-30.686552a3.429156 3.429156 0 0 1 4.616172 5.055807l-33.514874 30.686552a3.429156 3.429156 0 0 1-2.315413 0.893925z" fill="#ECDFDF" p-id="2233"></path><path d="M243.283845 776.029783a3.414502 3.414502 0 0 1-2.315414-0.893925L207.438904 744.449306a3.429156 3.429156 0 0 1 4.630826-5.055807l33.514873 30.686552a3.429156 3.429156 0 0 1-2.300758 5.949732zM226.519081 330.429979a3.370538 3.370538 0 0 1-2.520577-1.113743 3.429156 3.429156 0 0 1 0.205163-4.835989l33.529528-30.671898a3.414502 3.414502 0 1 1 4.616172 5.041153L228.819839 329.536054a3.429156 3.429156 0 0 1-2.300758 0.893925z" fill="#ECDFDF" p-id="2234"></path><path d="M260.033954 330.429979a3.399847 3.399847 0 0 1-2.300759-0.893925l-33.529528-30.686552a3.429156 3.429156 0 0 1 4.630827-5.041153l33.514873 30.671898a3.429156 3.429156 0 0 1 0.219818 4.835989 3.385193 3.385193 0 0 1-2.535231 1.113743zM1313.810739 678.269521a3.429156 3.429156 0 0 1-2.300759-5.949732l33.514874-30.686553a3.429156 3.429156 0 0 1 4.630826 5.055808L1316.18477 677.375596a3.414502 3.414502 0 0 1-2.374031 0.893925z" fill="#ECDFDF" p-id="2235"></path><path d="M1347.340267 678.269521a3.429156 3.429156 0 0 1-2.315413-0.893925l-33.514874-30.686552a3.429156 3.429156 0 1 1 4.616172-5.055808l33.529528 30.686553a3.429156 3.429156 0 0 1-2.315413 5.949732z" fill="#ECDFDF" p-id="2236"></path><path d="M396.013188 204.840795H240.191742a3.531738 3.531738 0 0 1-1.861123-0.527562c-18.435378-2.85763-32.152003-17.702653-32.152004-35.082907 0-19.637049 17.306981-35.610469 38.570681-35.610468a40.812821 40.812821 0 0 1 6.916931 0.58618 56.991405 56.991405 0 0 1 20.296501-30.45208 65.520332 65.520332 0 0 1 40.270604-13.599389c25.176455 0 47.62717 13.86317 57.328459 34.921707a50.279637 50.279637 0 0 1 26.378125-7.459147c26.099689 0 47.319425 19.563776 47.319425 43.611833s-21.146464 43.611833-47.246153 43.611833z m-154.370649-7.151403h154.370649c22.14297 0 40.168023-16.354438 40.168023-36.46043s-18.025052-36.460431-40.168023-36.460431A42.703253 42.703253 0 0 0 370.118662 133.356076a3.546392 3.546392 0 0 1-3.180029 0.600836 3.590356 3.590356 0 0 1-2.359377-2.212832c-7.473802-20.618901-28.517684-34.467417-52.345924-34.467417a58.33962 58.33962 0 0 0-35.859595 12.089974 49.371057 49.371057 0 0 0-18.464688 29.719354 3.575701 3.575701 0 0 1-1.611996 2.359377 3.531738 3.531738 0 0 1-2.813667 0.439636 35.038943 35.038943 0 0 0-8.792708-1.143053c-17.321635 0-31.419278 12.764082-31.419278 28.459066 0 14.214878 11.723611 26.378125 27.286705 28.180631a3.429156 3.429156 0 0 1 1.084434 0.307744zM1320.082871 386.424877h-113.20612c-19.402576 0-35.170833-14.581241-35.170833-32.503712s15.782911-32.503712 35.170833-32.503712a37.427628 37.427628 0 0 1 18.875014 5.070462c7.327257-15.123458 23.711003-25.02991 41.999837-25.02991 21.249045 0 39.435297 13.189063 44.60834 31.902877a31.902877 31.902877 0 0 1 4.396354-0.322399c15.900148 0 28.840083 11.972738 28.840084 26.700524 0 12.983899-10.25816 24.077366-23.901512 26.275544a3.385193 3.385193 0 0 1-1.611997 0.410326z m0-3.63432zM1206.876751 328.261111c-15.636366 0-28.34183 11.518448-28.34183 25.660054S1191.240385 379.55191 1206.876751 379.55191h111.989795a3.795519 3.795519 0 0 1 0.805999-0.190509c10.888304-1.304252 19.050868-9.745252 19.050868-19.651703 0-10.946922-9.862488-19.856866-21.981771-19.856866a24.341148 24.341148 0 0 0-6.125587 0.805998 3.399847 3.399847 0 0 1-2.711085-0.424981 3.355884 3.355884 0 0 1-1.465451-2.256795c-3.194684-17.204399-19.44654-29.7047-38.658608-29.7047-16.969927 0-31.94684 9.847833-37.266429 24.502348a3.414502 3.414502 0 0 1-5.290279 1.538724 30.261571 30.261571 0 0 0-18.347452-6.052315zM1362.961979 927.205749h-94.946596a3.194684 3.194684 0 0 1-1.465451-0.381018c-11.723611-1.905087-20.428392-11.430521-20.428393-22.567951 0-12.646845 11.108122-22.934314 24.751474-22.934314a27.667722 27.667722 0 0 1 3.297266 0.205163c4.572208-15.651021 19.915484-26.68587 37.808646-26.68587 15.328622 0 29.059901 8.191873 35.463924 20.765446a31.961495 31.961495 0 0 1 15.592402-4.029991c16.574255 0 30.056408 12.470991 30.056408 27.843576s-13.555425 27.784958-30.12968 27.784959z m-93.788889-6.843658h93.788889c12.793391 0 23.21275-9.408198 23.21275-20.97061s-10.419359-20.970609-23.21275-20.970609a24.795438 24.795438 0 0 0-15.020877 4.982535 3.429156 3.429156 0 0 1-5.304934-1.538724c-4.396354-12.075319-16.735455-20.179266-30.774479-20.179266-15.84153 0-29.309028 10.25816-31.873568 24.443729a3.429156 3.429156 0 0 1-4.235154 2.696431 19.505158 19.505158 0 0 0-4.99719-0.659453c-9.877142 0-17.907816 7.224675-17.907816 16.119965 0 8.030674 6.682458 14.888986 15.533785 15.944111a2.740394 2.740394 0 0 1 0.74738 0.073273zM187.640655 885.132639H74.434535c-19.402576 0-35.170833-14.654514-35.170833-32.503712s15.782911-32.518366 35.170833-32.518366a37.398319 37.398319 0 0 1 18.875014 5.085116c7.327257-15.138113 23.725658-25.02991 41.999837-25.029909 21.249045 0 39.449951 13.189063 44.60834 31.902876a29.777972 29.777972 0 0 1 4.396355-0.322399c15.914802 0 28.854738 11.972738 28.854738 26.68587 0 12.983899-10.25816 24.092021-23.901513 26.275543a3.253302 3.253302 0 0 1-1.626651 0.424981z m0-3.648974zM74.434535 826.954219c-15.621712 0-28.34183 11.503793-28.341829 25.660054s12.734773 25.660054 28.341829 25.660054h112.00445a3.487774 3.487774 0 0 1 0.791344-0.205163c10.888304-1.289597 19.050868-9.745252 19.050868-19.651704 0-10.946922-9.877142-19.842212-21.981771-19.842211a23.769622 23.769622 0 0 0-6.125587 0.805998 3.429156 3.429156 0 0 1-4.235154-2.696431c-3.194684-17.204399-19.44654-29.690045-38.658608-29.690045-16.969927 0-31.932186 9.847833-37.251774 24.487693a3.414502 3.414502 0 0 1-5.304934 1.553378 30.173644 30.173644 0 0 0-18.288834-6.081623z" fill="#3578B6" p-id="2237"></path><path d="M1253.78585 283.403644a3.443811 3.443811 0 0 1-3.297265-2.476613c-0.117236-0.381017-0.820653-2.56454-2.256796-6.228168a3.429156 3.429156 0 1 1 6.374714-2.505922c2.593849 6.62384 2.593849 7.429839 2.593849 7.781547a3.414502 3.414502 0 0 1-3.414502 3.429156zM1241.314859 254.988542a3.385193 3.385193 0 0 1-3.033484-1.846469c-1.553378-2.930903-3.18003-5.993696-4.879954-8.997871a3.429156 3.429156 0 0 1 5.964388-3.355884c1.729233 3.062793 3.414502 6.16955 4.982534 9.203035a3.414502 3.414502 0 0 1-3.033484 4.997189z m-17.585417-29.675391a3.399847 3.399847 0 0 1-2.85763-1.465451c-1.875778-2.828321-3.824828-5.671297-5.861806-8.455655a3.414502 3.414502 0 1 1 5.58337-3.942064c2.007668 2.842976 4.000682 5.729915 5.861806 8.616854a3.399847 3.399847 0 0 1-0.952544 4.733408 3.355884 3.355884 0 0 1-1.743887 0.439636z m-20.399083-27.843576a3.429156 3.429156 0 0 1-2.667122-1.274943c-2.124905-2.637813-4.396354-5.29028-6.535913-7.898783a3.414502 3.414502 0 1 1 5.202353-4.396354c2.256795 2.637813 4.498936 5.348898 6.667803 8.030673a3.429156 3.429156 0 0 1-2.667121 5.568716z m-22.773115-25.865217a3.429156 3.429156 0 0 1-2.476613-1.055125c-2.344722-2.461958-4.762717-4.923917-7.180711-7.327257a3.414502 3.414502 0 0 1 4.821335-4.850644c2.461958 2.432649 4.909262 4.938571 7.327257 7.444493a3.429156 3.429156 0 0 1-0.102582 4.835989 3.47312 3.47312 0 0 1-2.359377 0.937889z m-24.824746-23.916167a3.399847 3.399847 0 0 1-2.27145-0.864616 489.12371 489.12371 0 0 0-7.737583-6.726422 3.414502 3.414502 0 1 1 4.396354-5.217007c2.637813 2.242141 5.29028 4.542899 7.869474 6.829003a3.429156 3.429156 0 0 1-2.286104 5.979042z m-26.583288-21.981771a3.414502 3.414502 0 0 1-2.066287-0.703416c-2.711085-2.066286-5.466134-4.132573-8.221182-6.140242a3.429156 3.429156 0 0 1 4.029991-5.539406c2.799012 2.051632 5.598024 4.147227 8.338419 6.242823a3.414502 3.414502 0 0 1-2.080941 6.140241z m-28.092704-19.930139a3.399847 3.399847 0 0 1-1.875777-0.571526L1090.505256 99.650694a3.414502 3.414502 0 0 1 3.648974-5.861805c2.930903 1.831814 5.861806 3.736901 8.792709 5.627333a3.429156 3.429156 0 0 1-1.875778 6.286787z m-661.328903-0.424981a3.370538 3.370538 0 0 1-2.740394-1.377524 3.414502 3.414502 0 0 1 0.688762-4.792026c0.117236-0.087927 3.062793-2.27145 8.704782-6.008351a3.429156 3.429156 0 0 1 3.780864 5.715261c-5.451479 3.60501-8.367727 5.759224-8.397036 5.861805a3.429156 3.429156 0 0 1-2.007669 0.659453zM1071.688861 87.927083a3.370538 3.370538 0 0 1-1.68527-0.439635c-2.930903-1.670615-5.964387-3.355884-8.983217-4.982535a3.429156 3.429156 0 1 1 3.267957-6.023005c3.048139 1.65596 6.110932 3.355884 9.100453 5.055807a3.414502 3.414502 0 0 1-1.699923 6.389368z m-602.828084-1.113743a3.414502 3.414502 0 0 1-1.714578-6.374713c2.930903-1.729233 5.993696-3.458465 9.056489-5.143735a3.414502 3.414502 0 1 1 3.326575 5.979042C476.481124 82.944549 473.550221 84.659127 470.619319 86.344396a3.326575 3.326575 0 0 1-1.758542 0.468944zM1041.222126 71.807118a3.253302 3.253302 0 0 1-1.465451-0.351708c-3.048139-1.465451-6.16955-2.930903-9.261653-4.396354a3.414502 3.414502 0 0 1 2.930903-6.19886c3.136066 1.465451 6.301441 2.930903 9.393543 4.484281a3.414502 3.414502 0 0 1-1.465451 6.49195z m-541.982542-1.318906a3.429156 3.429156 0 0 1-1.465451-6.49195c3.077448-1.465451 6.228168-3.077448 9.34958-4.557554a3.414502 3.414502 0 1 1 2.930903 6.169551c-3.077448 1.465451-6.198859 2.930903-9.246999 4.51359a3.341229 3.341229 0 0 1-1.568033 0.351708zM1009.90543 57.577585a3.238648 3.238648 0 0 1-1.318906-0.278436c-3.15072-1.304252-6.345405-2.623158-9.525434-3.8981a3.414502 3.414502 0 0 1 2.549885-6.345405c3.209339 1.274943 6.447986 2.608503 9.613361 3.942064a3.429156 3.429156 0 0 1-1.318906 6.579877zM530.541626 55.980243a3.414502 3.414502 0 0 1-1.348215-6.565222 551.888993 551.888993 0 0 1 9.598706-4.015337 3.414502 3.414502 0 1 1 2.579195 6.33075c-3.15072 1.304252-6.345405 2.637813-9.481471 3.971373a3.370538 3.370538 0 0 1-1.348215 0.278436z m447.197146-10.873649a3.575701 3.575701 0 0 1-1.157707-0.205163c-3.209339-1.143052-6.477295-2.286104-9.715942-3.385193a3.429156 3.429156 0 0 1 2.212831-6.49195c3.267957 1.128398 6.579877 2.27145 9.80387 3.429156a3.429156 3.429156 0 0 1-1.143052 6.65315z m-415.13307-1.802505A3.429156 3.429156 0 0 1 561.477305 36.636285c3.253302-1.187016 6.550568-2.344722 9.80387-3.47312a3.429156 3.429156 0 0 1 2.24214 6.477295c-3.223993 1.099089-6.49195 2.256795-9.701288 3.429156a3.663628 3.663628 0 0 1-1.216325 0.234473z m382.482813-8.997872a3.282611 3.282611 0 0 1-0.996507-0.146545c-3.267957-0.996507-6.579877-1.978359-9.877142-2.930903a3.429156 3.429156 0 0 1 1.905087-6.579877c3.31192 0.952543 6.667804 1.94905 9.950414 2.930903a3.414502 3.414502 0 0 1-0.981852 6.697113zM595.329232 32.430439a3.414502 3.414502 0 0 1-0.981853-6.697113c3.297266-0.996507 6.653149-1.978359 9.979724-2.930902a3.429156 3.429156 0 0 1 1.861124 6.594531c-3.282611 0.923234-6.609186 1.890432-9.877143 2.930903a3.253302 3.253302 0 0 1-0.981852 0.102581z m316.5375-7.327257a3.370538 3.370538 0 0 1-0.849962-0.102581l-0.512908-0.131891c-3.121411-0.791344-6.316095-1.568033-9.466816-2.315413a3.429156 3.429156 0 0 1 1.568033-6.667804c3.194684 0.762035 6.418677 1.553378 9.584052 2.344722l0.512908 0.131891a3.429156 3.429156 0 0 1-0.835307 6.741076zM628.594978 23.447222a3.414502 3.414502 0 0 1-0.791343-6.741076c3.355884-0.805998 6.755731-1.597342 10.126269-2.359377a3.429156 3.429156 0 0 1 1.465451 6.682458c-3.341229 0.74738-6.711767 1.465451-10.023687 2.330068a3.678283 3.678283 0 0 1-0.77669 0.087927z m249.610336-5.861805a3.370538 3.370538 0 0 1-0.659454-0.073273c-3.355884-0.644799-6.755731-1.274943-10.111614-1.861123a3.429156 3.429156 0 0 1 1.187016-6.741077c3.399847 0.600835 6.843658 1.230979 10.258159 1.890433a3.429156 3.429156 0 0 1-0.644798 6.78504z m-215.875645-1.245634a3.414502 3.414502 0 0 1-0.600835-6.78504c3.385193-0.61549 6.843658-1.216325 10.25816-1.773196a3.429156 3.429156 0 1 1 1.099089 6.755731c-3.355884 0.556872-6.770385 1.143052-10.126269 1.743887a2.930903 2.930903 0 0 1-0.630145 0.029309z m181.877172-4.396354h-0.45429c-3.385193-0.45429-6.814349-0.879271-10.258159-1.274943a3.429156 3.429156 0 0 1 0.791343-6.799694c3.429156 0.395672 6.887622 0.835307 10.25816 1.289597a3.429156 3.429156 0 0 1-0.45429 6.814349z m-147.790772-0.791344A3.414502 3.414502 0 0 1 696.005742 4.396354c3.429156-0.424981 6.902276-0.820653 10.331433-1.172361a3.414502 3.414502 0 0 1 0.703416 6.799695c-3.385193 0.366363-6.829003 0.74738-10.258159 1.157706z m113.528519-2.72574h-0.263781c-3.399847-0.249127-6.843658-0.468944-10.25816-0.659453a3.414502 3.414502 0 1 1 0.381017-6.829003c3.443811 0.190509 6.931585 0.410326 10.375396 0.674108a3.414502 3.414502 0 0 1-0.249127 6.829003z m-79.134375-0.439635a3.429156 3.429156 0 0 1-0.219818-6.843658c3.443811-0.205163 6.931585-0.395672 10.39005-0.556871a3.429156 3.429156 0 1 1 0.307745 6.843658c-3.414502 0.146545-6.872967 0.337054-10.258159 0.542217z m44.784194-1.084434h-10.258159A3.429156 3.429156 0 0 1 765.175048 0h10.404705a3.429156 3.429156 0 0 1 0 6.843658zM103.5384 756.524625a3.18003 3.18003 0 0 1-1.94905-0.674107 113.103538 113.103538 0 0 1-7.576384-6.374714 3.194684 3.194684 0 0 1 4.3817-4.704099c2.286104 2.095595 4.689444 4.117918 7.166057 6.023005a3.194684 3.194684 0 0 1-1.94905 5.729915z m-22.230898-23.036895a3.223993 3.223993 0 0 1-2.608503-1.333561c-1.905087-2.667122-3.722247-5.466134-5.392861-8.30911a3.18003 3.18003 0 1 1 5.480788-3.238647 112.429431 112.429431 0 0 0 5.114425 7.840165 3.18003 3.18003 0 0 1-2.593849 5.041153z m-14.742441-28.429757a3.194684 3.194684 0 0 1-3.018829-2.11025c-1.084434-3.077448-2.080941-6.242823-2.930903-9.437507a3.194684 3.194684 0 0 1 6.154896-1.670615c0.835307 3.033484 1.773196 6.052314 2.813666 8.968563A3.194684 3.194684 0 0 1 67.620186 704.882118a3.326575 3.326575 0 0 1-1.055125 0.175855z m-6.931585-31.302042a3.194684 3.194684 0 0 1-3.165375-2.930903c-0.322399-3.238648-0.542217-6.550568-0.659453-9.833179a3.194684 3.194684 0 0 1 6.389368-0.073272c0.102582 3.136066 0.307745 6.301441 0.61549 9.408198a3.194684 3.194684 0 0 1-2.85763 3.487774z m0.293091-32.078731h-0.366363a3.194684 3.194684 0 0 1-2.799012-3.546392c0.366363-3.238648 0.849962-6.506604 1.465451-9.730598a3.18003 3.18003 0 1 1 6.272132 1.113743c-0.542217 3.092102-0.996507 6.242823-1.36287 9.34958a3.18003 3.18003 0 0 1-3.209338 2.813667z m6.902276-31.331351a3.47312 3.47312 0 0 1-1.011162-0.161199 3.194684 3.194684 0 0 1-2.022323-4.029992c1.04047-3.121411 2.183523-6.242823 3.414502-9.246998a3.194684 3.194684 0 1 1 5.861806 2.40334c-1.172361 2.930903-2.27145 5.861806-3.253302 8.792709a3.209339 3.209339 0 0 1-2.989521 2.24214z m13.438189-29.118519a3.194684 3.194684 0 0 1-2.711085-4.865298c1.743887-2.842976 3.590356-5.612679 5.510097-8.221183a3.194684 3.194684 0 1 1 5.143735 3.76621 120.232959 120.232959 0 0 0-5.217007 7.796202 3.194684 3.194684 0 0 1-2.72574 1.524069z m20.516319-24.619583a3.194684 3.194684 0 0 1-2.139559-5.598025 87.282285 87.282285 0 0 1 7.884129-6.140241 3.194684 3.194684 0 1 1 3.590356 5.246316 79.998991 79.998991 0 0 0-7.327257 5.700606 3.238648 3.238648 0 0 1-2.051632 0.791344z m27.697032-15.709639a3.194684 3.194684 0 0 1-0.90858-6.242823 67.762472 67.762472 0 0 1 9.862488-2.168868 3.194684 3.194684 0 0 1 0.893925 6.316095 60.669688 60.669688 0 0 0-8.924599 1.949051 3.341229 3.341229 0 0 1-0.923234 0.146545zM1215.068625 991.890773a3.429156 3.429156 0 0 1-0.087928-6.843658c3.429156-0.087927 6.829003-0.278436 10.12627-0.556871a3.414502 3.414502 0 0 1 0.58618 6.814348c-3.429156 0.29309-6.975549 0.483599-10.521941 0.586181z m-24.106676-0.732726h-0.29309c-3.414502-0.29309-6.916931-0.659453-10.419359-1.113743a3.414502 3.414502 0 1 1 0.849961-6.78504c3.414502 0.424981 6.829003 0.791344 10.155578 1.06978a3.429156 3.429156 0 0 1-0.29309 6.843658z m58.222384-3.751555a3.429156 3.429156 0 0 1-0.849962-6.741077c3.297266-0.835307 6.535913-1.802505 9.64267-2.930902a3.429156 3.429156 0 0 1 2.227486 6.477295c-3.282611 1.128398-6.697113 2.154214-10.184887 3.033484a3.253302 3.253302 0 0 1-0.864616 0.1612z m-92.323438-1.392179a3.824828 3.824828 0 0 1-0.703416-0.073273c-3.385193-0.718071-6.814349-1.465451-10.25816-2.344722a3.429156 3.429156 0 1 1 1.641305-6.653149c3.31192 0.820653 6.667804 1.597342 9.979724 2.300759a3.429156 3.429156 0 0 1-0.718071 6.770385z m-33.280401-8.997872a3.502429 3.502429 0 0 1-1.084434-0.175854c-6.228168-2.066286-9.80387-3.487774-9.965069-3.546392a3.429156 3.429156 0 1 1 2.549885-6.360059s3.561047 1.465451 9.569398 3.414502a3.414502 3.414502 0 0 1-1.06978 6.667803z m157.22828-2.930902a3.414502 3.414502 0 0 1-1.81716-6.316096 91.341585 91.341585 0 0 0 8.133255-5.759224 3.414502 3.414502 0 1 1 4.249809 5.363552 99.650694 99.650694 0 0 1-8.792708 6.184205 3.355884 3.355884 0 0 1-1.787851 0.571526z" fill="#ECDFDF" p-id="2238"></path><path d="M482.167076 368.678261a3.429156 3.429156 0 0 1-3.429157-3.429157v-76.745689a3.429156 3.429156 0 0 1 6.843658 0v76.745689a3.414502 3.414502 0 0 1-3.414501 3.429157zM461.929192 368.678261a3.429156 3.429156 0 0 1-3.429156-3.429157v-38.233626a3.429156 3.429156 0 1 1 6.843658 0v38.233626a3.414502 3.414502 0 0 1-3.414502 3.429157zM790.307539 386.424877a3.414502 3.414502 0 0 1-3.414501-3.414502v-56.126788a3.429156 3.429156 0 1 1 6.843658 0v56.126788a3.414502 3.414502 0 0 1-3.429157 3.414502zM767.314607 381.647505a3.414502 3.414502 0 0 1-3.414502-3.429156v-23.271368a3.429156 3.429156 0 1 1 6.843658 0v23.271368a3.429156 3.429156 0 0 1-3.429156 3.429156zM746.930178 381.647505a3.429156 3.429156 0 0 1-3.429156-3.429156v-38.907734a3.429156 3.429156 0 0 1 6.843658 0v38.907734a3.414502 3.414502 0 0 1-3.414502 3.429156zM501.613616 368.678261a3.414502 3.414502 0 0 1-3.414502-3.429157v-38.365517a3.429156 3.429156 0 1 1 6.843658 0v38.365517a3.429156 3.429156 0 0 1-3.429156 3.429157zM1057.327437 379.361401a3.414502 3.414502 0 0 1-3.414502-3.429156v-17.160436a3.429156 3.429156 0 1 1 6.843658 0v17.160436a3.429156 3.429156 0 0 1-3.429156 3.429156zM1037.089553 379.361401a3.414502 3.414502 0 0 1-3.414501-3.429156V334.122917a3.429156 3.429156 0 1 1 6.843658 0v41.809328a3.429156 3.429156 0 0 1-3.429157 3.429156zM1076.788631 379.361401a3.429156 3.429156 0 0 1-3.429156-3.429156v-29.865899a3.429156 3.429156 0 1 1 6.843658 0v29.865899a3.414502 3.414502 0 0 1-3.414502 3.429156z" fill="#D2DAE4" p-id="2239"></path></svg>