<?xml version="1.0" encoding="UTF-8"?>
<svg width="125px" height="28px" viewBox="0 0 125 28" version="1.1" xmlns="http://www.w3.org/2000/svg" xmlns:xlink="http://www.w3.org/1999/xlink">
    <!-- Generator: Sketch 55.2 (78181) - https://sketchapp.com -->
    <title>编组 13</title>
    <desc>Created with Sketch.</desc>
    <defs>
        <polygon id="path-1" points="-1.91846539e-13 27.9472446 124.965697 27.9472446 124.965697 9.9475983e-14 -1.91846539e-13 9.9475983e-14"></polygon>
        <polygon id="path-3" points="0.0366378591 0.0491602714 5.88925975 0.0491602714 5.88925975 10.4190806 0.0366378591 10.4190806"></polygon>
        <linearGradient x1="57.9199014%" y1="0%" x2="40.2787555%" y2="100%" id="linearGradient-5">
            <stop stop-color="#FF6D02" offset="0%"></stop>
            <stop stop-color="#0B81EF" offset="100%"></stop>
        </linearGradient>
        <polygon id="path-6" points="0.0458628061 0.0491602714 11.8208383 0.0491602714 11.8208383 2.56788967 0.0458628061 2.56788967"></polygon>
        <linearGradient x1="100%" y1="77.0896135%" x2="0%" y2="77.0896135%" id="linearGradient-8">
            <stop stop-color="#FF6E02" offset="0%"></stop>
            <stop stop-color="#FF6F02" offset="100%"></stop>
        </linearGradient>
        <polygon id="path-9" points="0 0.0202666261 0.371064793 0.0202666261 0.371064793 0.452520747 0 0.452520747"></polygon>
        <polygon id="path-11" points="0.0425841812 0.0404675787 5.89524796 0.0404675787 5.89524796 10.41041 0.0425841812 10.41041"></polygon>
        <linearGradient x1="0%" y1="50%" x2="100%" y2="50%" id="linearGradient-13">
            <stop stop-color="#0CC47E" offset="0%"></stop>
            <stop stop-color="#0CBE89" offset="100%"></stop>
        </linearGradient>
    </defs>
    <g id="切片业务SLA保障（改完）" stroke="none" stroke-width="1" fill="none" fill-rule="evenodd">
        <g id="切片业务SLA保障" transform="translate(-28.000000, -11.000000)">
            <g id="编组-13" transform="translate(28.000000, 11.000000)">
                <path d="M102.262943,26.35363 C102.125251,26.1673639 101.909734,25.9029863 101.622378,25.5544884 C101.592445,25.5124283 101.568439,25.4823854 101.544552,25.4523425 L101.975587,25.1519133 C102.059399,25.2481107 102.179131,25.3862481 102.328795,25.5725142 C102.502347,25.7707974 102.634112,25.9150034 102.72391,25.993115 L102.262943,26.35363 Z M100.233489,24.1484798 L100.131657,24.5510549 L102.185117,24.5510549 L102.28683,24.1484798 L100.233489,24.1484798 Z M100.42506,23.3913983 L100.323288,23.7939734 L102.376628,23.7939734 L102.47846,23.3913983 L100.42506,23.3913983 Z M98.9763051,26.3897416 C98.8984794,26.26957 98.8206537,26.1433296 98.7308549,26.0111408 C99.1020235,25.7948318 99.5150982,25.5064197 99.9640924,25.1279391 L100.263422,25.4463339 C100.065864,25.6086258 99.7605484,25.8248747 99.3594468,26.1072781 C99.2037356,26.2334584 99.0720905,26.3235871 98.9763051,26.3897416 L98.9763051,26.3897416 Z M98.1321959,26.5939734 C98.042397,26.4738017 97.9346384,26.3476215 97.80892,26.2154326 C98.0662835,25.921012 98.2639009,25.6145742 98.395546,25.2961193 C98.539284,24.9896815 98.6889488,24.521012 98.8445402,23.8961794 L99.3055675,22.0335185 L103.651832,22.0335185 L103.544013,22.472085 L101.790002,22.472085 C101.772043,22.4961193 101.736123,22.5501966 101.68817,22.6343768 C101.610405,22.7965485 101.544552,22.9107116 101.502646,22.976806 L103.077119,22.976806 L102.580232,24.9777245 L101.382914,24.9777245 L101.131477,25.9810979 C101.035692,26.3175785 100.814188,26.4858189 100.46092,26.5038446 C100.335261,26.5158618 100.107771,26.5218704 99.7785081,26.5218704 C99.8023946,26.3776644 99.8023946,26.2214412 99.7724617,26.0592695 L100.329274,26.0592695 C100.496899,26.0712266 100.604658,26.0051322 100.640517,25.8609262 L100.862081,24.9777245 L99.5270714,24.9777245 L100.023958,22.976806 L100.963853,22.976806 C101.011746,22.8986944 101.077598,22.760497 101.16141,22.574291 C101.149377,22.616291 101.173384,22.5802395 101.227263,22.472085 L99.7125958,22.472085 L99.3355005,23.9922567 C99.1738027,24.6351751 99.0182112,25.1218704 98.8505867,25.4523425 C98.6948755,25.8128575 98.4554119,26.1913983 98.1321959,26.5939734 L98.1321959,26.5939734 Z" id="Fill-3" fill="#FFFFFF"></path>
                <path d="M104.645594,26.5519013 C104.627634,26.527927 104.603688,26.4858069 104.573755,26.4317296 C104.471983,26.2575408 104.400144,26.1433176 104.358238,26.0893004 C105.603448,25.518485 106.381705,24.5991116 106.693008,23.3433777 L105.19636,23.3433777 L105.328065,22.8026052 L106.866619,22.8026052 C106.890565,22.6944506 106.944444,22.5201416 107.016284,22.2797983 C107.070163,22.0515322 107.118056,21.8892403 107.159962,21.7811459 L107.740601,21.7811459 C107.686782,22.009412 107.590936,22.327867 107.459291,22.7425193 C107.465278,22.7304421 107.459291,22.7484678 107.447318,22.8026052 L109.680316,22.8026052 C109.386973,23.8300129 109.12955,24.7073262 108.908046,25.4283562 C108.728448,26.0952489 108.315374,26.4197725 107.668822,26.4077554 C107.375479,26.4197725 107.034243,26.425721 106.645115,26.425721 C106.663075,26.3055494 106.669061,26.1433176 106.663075,25.9450343 C106.657088,25.9029742 106.657088,25.879 106.663075,25.8669828 C106.872605,25.879 107.183908,25.8849485 107.596983,25.8849485 C108.016044,25.9090429 108.279454,25.6806567 108.387213,25.1819442 C108.482998,24.8995408 108.626676,24.4008283 108.818247,23.6797983 C108.872126,23.5175665 108.908046,23.4034635 108.920019,23.337309 L107.261734,23.337309 C106.914511,24.8154807 106.034483,25.8849485 104.645594,26.5519013" id="Fill-5" fill="#FFFFFF"></path>
                <path d="M113.583561,24.0102824 L114.439643,24.0102824 L114.667193,23.0909691 L113.811051,23.0909691 L113.583561,24.0102824 Z M112.733465,23.0909691 L112.853197,22.6102824 L113.41001,22.6102824 L113.607507,21.8111408 L114.1284,21.8111408 L113.930783,22.6102824 L114.786925,22.6102824 L114.984423,21.8111408 L115.505316,21.8111408 L115.307699,22.6102824 L115.906358,22.6102824 L115.786626,23.0909691 L115.187967,23.0909691 L114.960477,24.0102824 L115.720773,24.0102824 L115.607028,24.4729433 L114.846791,24.4729433 L114.529442,25.7527717 L114.008669,25.7527717 L114.325898,24.4729433 L113.445869,24.4729433 C113.284291,25.0077674 112.961015,25.4703682 112.464128,25.8549176 C112.422222,25.8008403 112.350323,25.7287974 112.236638,25.6326 C112.170726,25.5785828 112.122893,25.5364627 112.086973,25.5124283 C112.523994,25.2059906 112.793391,24.8575528 112.907076,24.4729433 L112.188685,24.4729433 L112.30249,24.0102824 L113.062727,24.0102824 L113.290278,23.0909691 L112.733465,23.0909691 Z M112.033094,23.0308833 C111.979155,22.8866773 111.895342,22.6703682 111.79363,22.3879648 C111.739691,22.2438189 111.697785,22.1356043 111.673898,22.0695099 L112.152826,21.8291665 C112.314404,22.1356043 112.458082,22.4480506 112.577814,22.7725142 L112.033094,23.0308833 Z M110.536446,26.5519133 L110.416715,25.993115 C110.51244,25.9390979 110.632172,25.8489691 110.787823,25.7107116 C110.949461,25.5905399 111.063206,25.5064197 111.129059,25.4523425 L111.494301,23.9922567 L110.973408,23.9922567 L111.105172,23.4695099 L112.140793,23.4695099 L111.655879,25.4343167 C111.757651,25.7707974 112.05698,25.9390979 112.541954,25.9570635 C113.751185,25.9570635 114.67312,25.9510549 115.301712,25.9390979 C115.277766,25.993115 115.229873,26.0712266 115.164021,26.1794412 C115.110141,26.2996129 115.062249,26.383673 115.020342,26.4377502 L113.302191,26.4377502 C112.895103,26.425733 112.565841,26.4137159 112.314404,26.3956901 C111.745678,26.383673 111.404502,26.2094841 111.28477,25.8729433 C111.003341,26.0952609 110.751904,26.3235871 110.536446,26.5519133 L110.536446,26.5519133 Z" id="Fill-7" fill="#FFFFFF"></path>
                <path d="M118.354885,25.2300129 C118.330939,25.1098412 118.265086,24.9416009 118.157328,24.7313004 C118.618295,24.5330172 119.037356,24.3227167 119.408525,24.1124163 L119.971264,21.8471803 L120.551904,21.8471803 L120.090996,23.7098412 C120.647749,23.337309 121.174569,22.9167082 121.659423,22.4480386 L122.006705,22.8265794 C121.372067,23.4034635 120.677682,23.9201416 119.923312,24.3888112 L119.630029,25.5725021 C119.552203,25.8248627 119.642002,25.9450343 119.899425,25.9330172 L120.27658,25.9330172 C120.53999,25.9450343 120.713602,25.8369399 120.797414,25.6145622 C120.83932,25.4943906 120.941032,25.2180558 121.10273,24.7913863 C121.150623,24.8034034 121.234435,24.8394549 121.354167,24.8935322 C121.461925,24.9356524 121.539751,24.9656953 121.587644,24.9957382 C121.455939,25.3562532 121.336207,25.6566824 121.222402,25.8970258 C121.078784,26.2695579 120.737548,26.4498155 120.210728,26.4377983 L119.612069,26.4377983 C119.061303,26.4617725 118.863745,26.2034034 119.025323,25.6566824 L119.246827,24.7733605 C119.001437,24.9056094 118.702107,25.055824 118.354885,25.2300129 M116.971983,24.767412 L116.94205,24.088382 C117.624521,23.4335064 118.229167,22.6763648 118.76796,21.8051202 L119.282807,21.9853777 C119.007423,22.39997 118.720067,22.7905279 118.432711,23.1690687 L117.594588,26.5519013 L117.073755,26.5519013 L117.702347,24.0282961 C117.630508,24.1064678 117.510776,24.2266395 117.355125,24.3888112 C117.181513,24.5630601 117.055795,24.6892403 116.971983,24.767412" id="Fill-9" fill="#FFFFFF"></path>
                <g id="编组-6">
                    <mask id="mask-2" fill="white">
                        <use xlink:href="#path-1"></use>
                    </mask>
                    <g id="Clip-12"></g>
                    <g id="编组" mask="url(#mask-2)">
                        <g transform="translate(96.000000, 0.000000)">
                            <g id="编组" stroke-width="1" fill="none" transform="translate(1.014796, 0.008675)">
                                <mask id="mask-4" fill="white">
                                    <use xlink:href="#path-3"></use>
                                </mask>
                                <g id="Clip-2"></g>
                                <path d="M5.85275189,0.529172728 C5.95620138,0.209168279 5.83979832,0.0491371371 5.5035427,0.0491371371 L3.80226719,0.0578124791 C3.46601158,0.0597210544 3.24615903,0.220735402 3.14270954,0.540739851 L0.0743845408,9.94191881 C-0.0310348469,10.2619811 0.0843534184,10.421029 0.420609031,10.4190806 L2.12188454,10.4103873 C2.45819985,10.4103873 2.67906719,10.2503561 2.78454628,9.93035169 L5.85275189,0.529172728 Z" id="Fill-1" fill="url(#linearGradient-5)" mask="url(#mask-4)"></path>
                            </g>
                            <g id="编组" stroke-width="1" fill="none" transform="translate(3.581633, 0.008675)">
                                <mask id="mask-7" fill="white">
                                    <use xlink:href="#path-6"></use>
                                </mask>
                                <g id="Clip-4"></g>
                                <path d="M1.26827403,0.0491487043 C0.922049541,0.0491487043 0.6981975,0.204321655 0.596717908,0.514725392 L0.0803658673,2.08785408 C-0.0211137245,2.39825781 0.101258724,2.55343076 0.447483214,2.55343076 L10.5984271,2.56788967 C10.9446516,2.56788967 11.1685036,2.41271672 11.2699832,2.10231298 L11.7863353,0.529184295 C11.8878148,0.218780558 11.7654424,0.0636076076 11.4192179,0.0636076076 L1.26827403,0.0491487043 Z" id="Fill-3" fill="url(#linearGradient-8)" mask="url(#mask-7)"></path>
                            </g>
                            <g id="编组" stroke-width="1" fill="none" transform="translate(0.000000, 18.573907)">
                                <mask id="mask-10" fill="white">
                                    <use xlink:href="#path-9"></use>
                                </mask>
                                <g id="Clip-6"></g>
                                <path d="M0.0297208749,0.0202666261 C-0.0601064721,0.298823946 0.053674834,0.442831292 0.371064793,0.452520747 L0.0297208749,0.0202666261 Z" id="Fill-5" fill="#0299FF" mask="url(#mask-10)"></path>
                            </g>
                            <path d="M14.2248182,5.88764231 C14.179033,5.84137382 14.1322927,5.79510533 14.0845376,5.74883684 C12.5563743,4.26824513 10.7197728,3.50579824 8.5748524,3.46143833 L8.48226719,3.46143833 L8.38675699,3.46143833 L8.27333862,3.46143833 L8.25841515,3.46143833 L8.14207179,3.46433011 C7.78187893,3.47398866 7.33214526,3.47497186 6.79293046,3.46722189 L5.92139985,6.00620532 C7.59485801,5.93298543 8.94889423,6.353219 9.98356821,7.26702169 C11.0162723,8.18082438 11.6102264,8.98092226 11.7654305,9.66719964 C11.9206345,10.353477 11.9982366,10.8701804 11.9982366,11.2171941 C11.9982366,11.5661163 11.9664197,11.9035293 11.9027861,12.2293173 C11.7077065,13.2530077 11.2102774,14.1513683 10.4104391,14.9244569 C9.35379781,15.9520222 8.07831872,16.4725428 6.58400189,16.4860185 L1.18773505,16.4802349 C0.875297296,16.4783263 0.677292704,16.6026729 0.593721276,16.8532746 L0.0296141327,18.5941266 L0.369869235,19.0250019 L8.38974168,19.0741622 C10.6143534,19.0741622 12.5135738,18.3117153 14.0875223,16.7867637 C14.1352774,16.7404952 14.1820177,16.6942267 14.2278029,16.6479582 C15.7062412,15.1500158 16.4454305,13.3561286 16.4454305,11.2663544 C16.4454305,9.23054076 15.7430723,7.47713847 14.3382366,6.00620532 C14.3004504,5.96572039 14.2626641,5.92621866 14.2248182,5.88764231" id="Fill-7" fill="#379EFA"></path>
                            <g id="编组" stroke-width="1" fill="none" transform="translate(23.340306, 8.799689)">
                                <mask id="mask-12" fill="white">
                                    <use xlink:href="#path-11"></use>
                                </mask>
                                <g id="Clip-10"></g>
                                <path d="M5.85875709,0.52050317 C5.96220658,0.200498721 5.84580352,0.0404675787 5.50948821,0.0404675787 L3.8082127,0.0491429207 C3.47201679,0.0511093316 3.25210454,0.212065844 3.14865505,0.532070293 L0.080330051,9.93324925 C-0.0250893367,10.2532537 0.0902989286,10.4123016 0.426614235,10.41041 L2.12788974,10.4017177 C2.46414536,10.4017177 2.6850127,10.2416866 2.79049179,9.92168213 L5.85875709,0.52050317 Z" id="Fill-9" fill="#0B81EF" mask="url(#mask-12)"></path>
                            </g>
                            <path d="M28.587201,11.0118834 L29.172201,9.27103148 C29.2637117,8.99342053 29.1692163,8.8498147 28.8886551,8.84015616 L20.1584255,8.84015616 C19.8798341,8.84015616 19.6928132,8.98283661 19.5972433,9.2681397 L19.015228,11.0003163 C18.9297464,11.2490095 19.0262117,11.373356 19.304803,11.373356 L28.041002,11.3849448 C28.3175637,11.3868317 28.4996301,11.2624852 28.587201,11.0118834" id="Fill-11" fill="url(#linearGradient-13)"></path>
                            <path d="M28.4230428,3.9414797 C28.5125836,3.66386876 28.3991653,3.52026293 28.0827877,3.51060438 L20.0628556,3.46144411 C17.8383035,3.46144411 15.9390234,4.223891 14.3651346,5.74884262 C12.7931561,7.27379424 12.0072265,9.11394995 12.0072265,11.2692519 C12.0072265,13.3050655 12.7096443,15.0584678 14.1144204,16.529401 C14.1959622,16.6161544 14.2805484,16.7019824 14.3681193,16.7867694 C15.8962229,18.2673611 17.7328244,19.029808 19.8778642,19.0741679 L19.9703301,19.0741679 L20.0658999,19.0741679 L20.1792586,19.0741679 L20.1941821,19.0741679 L20.3106448,19.0712762 C20.670778,19.0616755 21.0229719,19.0317744 21.3672265,18.981631 C21.4567673,18.9199204 21.5233857,18.826458 21.5671413,18.7011282 L22.1521413,16.9602763 C22.221804,16.7520681 22.1860474,16.6190462 22.0446923,16.5612105 C21.987028,16.5631191 21.9282892,16.5641023 21.8685954,16.5641023 C21.6437882,16.5641023 21.4249505,16.5525352 21.2119627,16.529401 C19.9962372,16.3983455 18.9416255,15.8980096 18.0481872,15.0285668 C17.2403499,14.247786 16.740951,13.3455504 16.5499306,12.3218601 C16.4862372,11.9998892 16.4544204,11.6654259 16.4544204,11.3184122 C16.4544204,10.9694899 16.4862372,10.6321348 16.5499306,10.306289 C16.7448908,9.2825986 17.2423198,8.38418018 18.0422775,7.61114937 C19.0988591,6.58364186 20.3742785,6.06983027 21.8685954,6.06983027 L21.8685954,6.04958781 L27.2649816,6.05537137 C27.5773596,6.05727995 27.7753045,5.93299121 27.8589357,5.68233166 L28.4230428,3.9414797 Z" id="Fill-13" fill="#369EFA"></path>
                            <path d="M14.3382605,6.00622267 C14.3004145,5.96573774 14.2626283,5.92617818 14.2248421,5.88765966 C12.7464038,7.38560205 12.0072145,9.17943143 12.0072145,11.2692635 C12.0072145,13.3050771 12.7096324,15.0584794 14.1144084,16.5294125 C14.1521946,16.5698396 14.1900406,16.6093992 14.2277671,16.6479755 C15.7062651,15.1500331 16.4454543,13.3561459 16.4454543,11.2663717 C16.4454543,9.23055811 15.7430365,7.47715582 14.3382605,6.00622267" id="Fill-15" fill="#0B81EF"></path>
                        </g>
                    </g>
                </g>
                <polygon id="Fill-11" fill="#FFFFFF" points="90.726772 24.6591674 91.5648946 24.6591674 91.5648946 5.40772532 90.726772 5.40772532"></polygon>
                <path d="M44.480364,17.4369279 L35.2191092,17.4369279 C34.9137931,17.4369279 34.6683429,17.1905159 34.6683429,16.8841382 C34.6683429,16.5776403 34.9137931,16.3313485 35.2191092,16.3313485 L44.480364,16.3313485 C44.7856801,16.3313485 45.0311303,16.5776403 45.0311303,16.8841382 C45.0371169,17.1905159 44.7856801,17.4369279 44.480364,17.4369279" id="Fill-13" fill="#FFFFFF"></path>
                <path d="M56.6451269,17.9596266 L49.5450311,17.9596266 C49.239715,17.9596266 48.9942648,17.7132747 48.9942648,17.406897 C48.9942648,17.1003991 49.239715,16.8541073 49.5450311,16.8541073 L56.6451269,16.8541073 C56.950443,16.8541073 57.1958932,17.1003991 57.1958932,17.406897 C57.1958932,17.7132747 56.950443,17.9596266 56.6451269,17.9596266" id="Fill-14" fill="#FFFFFF"></path>
                <path d="M56.6451269,19.6360455 L49.5450311,19.6360455 C49.239715,19.6360455 48.9942648,19.3896936 48.9942648,19.0832558 C48.9942648,18.776818 49.239715,18.5304661 49.5450311,18.5304661 L56.6451269,18.5304661 C56.950443,18.5304661 57.1958932,18.776818 57.1958932,19.0832558 C57.1958932,19.3896936 56.950443,19.6360455 56.6451269,19.6360455" id="Fill-15" fill="#FFFFFF"></path>
                <path d="M80.6752634,18.5725142 L75.3233118,18.5725142 C75.0179358,18.5725142 74.7724856,18.3261622 74.7724856,18.0197245 C74.7724856,17.7132867 75.0179358,17.4669948 75.3233118,17.4669948 L80.6752634,17.4669948 C80.9806394,17.4669948 81.2260297,17.7132867 81.2260297,18.0197245 C81.2320761,18.3261622 80.9806394,18.5725142 80.6752634,18.5725142" id="Fill-16" fill="#FFFFFF"></path>
                <path d="M73.7428041,18.5725142 L71.2523827,18.5725142 C70.9470666,18.5725142 70.7016164,18.3261622 70.7016164,18.0197245 C70.7016164,17.7132867 70.9470666,17.4669948 71.2523827,17.4669948 L73.7428041,17.4669948 C74.0481801,17.4669948 74.2935704,17.7132867 74.2935704,18.0197245 C74.299557,18.3261622 74.0481801,18.5725142 73.7428041,18.5725142" id="Fill-17" fill="#FFFFFF"></path>
                <path d="M59.4169061,17.8454996 C59.11159,17.8454996 58.8661398,17.5990876 58.8661398,17.2927099 C58.8661398,16.9862721 59.11159,16.7399202 59.4169061,16.7399202 C60.5543582,16.7399202 61.6918103,16.6017227 62.7933429,16.3313365 L62.8472222,16.3193193 C63.1405651,16.2471562 63.4398946,16.4274137 63.5117337,16.7278429 C63.5835728,17.0223236 63.4039751,17.3227528 63.1046456,17.3948558 L63.0507663,17.406873 C61.8654215,17.695285 60.6441571,17.8454996 59.4169061,17.8454996" id="Fill-18" fill="#FFFFFF"></path>
                <path d="M62.9729646,19.9965605 L59.4169301,19.9965605 C59.111614,19.9965605 58.8661039,19.7502086 58.8661039,19.4437708 C58.8661039,19.137333 59.111614,18.8909811 59.4169301,18.8909811 L62.9789511,18.8909811 C63.2842074,18.8909811 63.5297174,19.137333 63.5297174,19.4437708 C63.5297174,19.7502086 63.2782807,19.9965605 62.9729646,19.9965605" id="Fill-19" fill="#FFFFFF"></path>
                <path d="M56.6451269,21.3124644 L49.5450311,21.3124644 C49.239715,21.3124644 48.9942648,21.0660524 48.9942648,20.7596747 C48.9942648,20.4531768 49.239715,20.206885 49.5450311,20.206885 L56.6451269,20.206885 C56.950443,20.206885 57.1958932,20.4531768 57.1958932,20.7596747 C57.1958932,21.0660524 56.950443,21.3124644 56.6451269,21.3124644" id="Fill-20" fill="#FFFFFF"></path>
                <path d="M66.8103448,21.9853777 C66.7564655,21.9853777 66.6965996,21.9793691 66.6367337,21.9553348 L65.0862069,21.4506738 C64.8048372,21.3605451 64.5833333,21.1381674 64.4935345,20.8557639 C64.4037356,20.5733605 64.4516284,20.2669227 64.6252395,20.0265794 L65.7986111,18.3983133 L64.4935345,17.9596266 C64.2061782,17.8634893 64.050467,17.5510429 64.1463123,17.2566824 C64.2420977,16.9682103 64.5534004,16.8119871 64.8466834,16.9081245 L66.3912835,17.4249227 C66.6666667,17.5150515 66.8881705,17.7373691 66.9779693,18.0197124 C67.0677682,18.2961674 67.0198755,18.6086137 66.8462644,18.8428884 L65.6728927,20.465206 L66.9839559,20.8918755 C67.2713123,20.9879528 67.4329502,21.3004592 67.3371648,21.5888112 C67.2593391,21.8412318 67.0438218,21.9853777 66.8103448,21.9853777" id="Fill-21" fill="#FFFFFF"></path>
                <path d="M44.7617457,26.3115579 L34.9377514,26.3115579 C34.6324353,26.3115579 34.3869852,26.065206 34.3869852,25.7588283 C34.3869852,25.4523305 34.6324353,25.2060386 34.9377514,25.2060386 L44.7617457,25.2060386 C45.0670618,25.2060386 45.3126167,25.4523305 45.3126167,25.7588283 C45.3184986,26.0592575 45.0670618,26.3115579 44.7617457,26.3115579" id="Fill-22" fill="#FFFFFF"></path>
                <path d="M41.4391882,26.3115579 C41.1338721,26.3115579 40.8884219,26.065206 40.8884219,25.7588283 L40.8884219,16.8841502 C40.8884219,16.5776524 41.1338721,16.3313004 41.4391882,16.3313004 C41.7445043,16.3313004 41.9899545,16.5776524 41.9899545,16.8841502 L41.9899545,25.7527597 C41.9899545,26.0592575 41.7445043,26.3115579 41.4391882,26.3115579" id="Fill-23" fill="#FFFFFF"></path>
                <path d="M61.1949353,26.3115579 C60.8896193,26.3115579 60.6441691,26.065206 60.6441691,25.7588283 L60.6441691,17.2867253 C60.6441691,16.9802275 60.8896193,16.7339356 61.1949353,16.7339356 C61.5002514,16.7339356 61.7457016,16.9802275 61.7457016,17.2867253 L61.7457016,25.7527597 C61.7457016,26.0592575 61.5002514,26.3115579 61.1949353,26.3115579" id="Fill-24" fill="#FFFFFF"></path>
                <path d="M71.7732519,26.3115579 L71.2583453,26.3115579 C70.9530891,26.3115579 70.707579,26.065206 70.707579,25.7588283 C70.707579,25.4523305 70.9530891,25.2060386 71.2583453,25.2060386 L71.7732519,25.2060386 C72.0127155,25.2060386 72.210273,25.0077554 72.210273,24.767412 L72.210273,16.8841502 C72.210273,16.5776524 72.4556633,16.3313004 72.7610393,16.3313004 C73.0663554,16.3313004 73.3117457,16.5776524 73.3117457,16.8841502 L73.3117457,24.7613433 C73.3117457,25.6145622 72.6173611,26.3115579 71.7732519,26.3115579" id="Fill-25" fill="#FFFFFF"></path>
                <path d="M77.9993056,20.711606 C77.6939296,20.711606 77.4485393,20.465194 77.4485393,20.1588163 L77.4485393,16.8841382 C77.4485393,16.5776403 77.6939296,16.3313485 77.9993056,16.3313485 C78.3046216,16.3313485 78.550012,16.5776403 78.550012,16.8841382 L78.550012,20.1588163 C78.5560584,20.465194 78.3046216,20.711606 77.9993056,20.711606" id="Fill-26" fill="#FFFFFF"></path>
                <path d="M68.4087763,26.3115579 C68.1034004,26.3115579 67.8580101,26.065206 67.8580101,25.7588283 L67.8580101,16.8480386 C67.8580101,16.5416009 68.1034004,16.295309 68.4087763,16.295309 C68.7140924,16.295309 68.9595426,16.5416009 68.9595426,16.8480386 L68.9595426,25.7527597 C68.9595426,26.0592575 68.7140924,26.3115579 68.4087763,26.3115579" id="Fill-27" fill="#FFFFFF"></path>
                <path d="M59.4169061,24.8454996 C59.11159,24.8454996 58.8661398,24.5990876 58.8661398,24.2927099 L58.8661398,21.2042378 C58.8661398,20.8978601 59.11159,20.6515082 59.4169061,20.6515082 C59.7222222,20.6515082 59.9676724,20.8978601 59.9676724,21.2042378 L59.9676724,24.2927099 C59.9676724,24.5931391 59.7222222,24.8454996 59.4169061,24.8454996" id="Fill-28" fill="#FFFFFF"></path>
                <path d="M38.2662955,26.3115579 C37.9609794,26.3115579 37.7155292,26.065206 37.7155292,25.7588283 L37.7155292,16.8841502 C37.7155292,16.5776524 37.9609794,16.3313004 38.2662955,16.3313004 C38.5716116,16.3313004 38.8170618,16.5776524 38.8170618,16.8841502 L38.8170618,25.7527597 C38.8170618,26.0592575 38.5716116,26.3115579 38.2662955,26.3115579" id="Fill-29" fill="#FFFFFF"></path>
                <path d="M35.5902778,23.5416249 C35.2849617,23.5416249 35.0395115,23.295273 35.0395115,22.9888352 L35.0395115,19.6600798 C35.0395115,19.3536421 35.2849617,19.1072901 35.5902778,19.1072901 C35.8955939,19.1072901 36.1410441,19.3536421 36.1410441,19.6600798 L36.1410441,22.9888352 C36.1410441,23.2892644 35.8896073,23.5416249 35.5902778,23.5416249" id="Fill-30" fill="#FFFFFF"></path>
                <path d="M42.6065733,23.3793811 L41.4391882,23.3793811 C41.1338721,23.3793811 40.8884219,23.1330292 40.8884219,22.8265914 C40.8884219,22.5201536 41.1338721,22.2738618 41.4391882,22.2738618 L42.6065733,22.2738618 C43.1333932,22.2738618 43.5644277,21.8411837 43.5644277,21.3124884 L43.5644277,19.6540592 C43.5644277,19.3476215 43.8098779,19.1012695 44.115194,19.1012695 C44.4205101,19.1012695 44.6659004,19.3476215 44.6659004,19.6540592 L44.6659004,21.3124884 C44.6659602,22.4541193 43.7440254,23.3793811 42.6065733,23.3793811" id="Fill-31" fill="#FFFFFF"></path>
                <path d="M58.0759159,26.3115579 C57.7705999,26.3115579 57.5251497,26.065206 57.5251497,25.7588283 C57.5251497,25.4523305 57.7705999,25.2060386 58.0759159,25.2060386 C58.5069504,25.2060386 58.8601592,24.8514721 58.8601592,24.4188541 C58.8601592,24.1124163 59.1056094,23.8661245 59.4109255,23.8661245 C59.7162416,23.8661245 59.9616918,24.1124163 59.9616918,24.4188541 C59.9676784,25.4583991 59.1175826,26.3115579 58.0759159,26.3115579" id="Fill-32" fill="#FFFFFF"></path>
                <path d="M47.8208693,26.3115579 C47.5155532,26.3115579 47.270103,26.065206 47.270103,25.7588283 L47.270103,17.6832318 C47.270103,17.5450944 47.1623443,17.4369399 47.0246528,17.4369399 L46.3421815,17.4369399 C46.0368654,17.4369399 45.7914751,17.1905279 45.7914751,16.8841502 C45.7914751,16.5776524 46.0368654,16.3313004 46.3421815,16.3313004 L47.0246528,16.3313004 C47.7670498,16.3313004 48.3716355,16.9381674 48.3716355,17.6832318 L48.3716355,25.7527597 C48.3716355,26.0592575 48.1201988,26.3115579 47.8208693,26.3115579" id="Fill-33" fill="#FFFFFF"></path>
                <path d="M58.0759159,26.3115579 L51.0296995,26.3115579 C49.9042205,26.3115579 48.9942589,25.3922446 48.9942589,24.2686395 L48.9942589,23.769927 C48.9942589,22.7304421 49.8383681,21.8772232 50.8800347,21.8772232 L55.3160979,21.8772232 C56.351778,21.8772232 57.2018738,22.7244936 57.2018738,23.769927 L57.2018738,24.2926738 C57.2018738,24.5991116 56.9564236,24.8455236 56.6511075,24.8455236 C56.3457914,24.8455236 56.1003412,24.5991116 56.1003412,24.2926738 L56.1003412,23.769927 C56.1003412,23.337309 55.753119,22.9888112 55.3220845,22.9888112 L50.8860213,22.9888112 C50.4549868,22.9888112 50.1077646,23.337309 50.1077646,23.769927 L50.1077646,24.2686395 C50.1077646,24.7854378 50.5268259,25.2060386 51.0416727,25.2060386 L58.0878891,25.2060386 C58.3932052,25.2060386 58.6386554,25.4523305 58.6386554,25.7588283 C58.6266822,26.0592575 58.381232,26.3115579 58.0759159,26.3115579" id="Fill-34" fill="#FFFFFF"></path>
                <path d="M53.0950611,17.8214412 C52.789745,17.8214412 52.5442948,17.5750893 52.5442948,17.2686515 L52.5442948,16.8480506 C52.5442948,16.5416129 52.789745,16.295321 53.0950611,16.295321 C53.4003772,16.295321 53.6458273,16.5416129 53.6458273,16.8480506 L53.6458273,17.2686515 C53.6458273,17.5750893 53.4003772,17.8214412 53.0950611,17.8214412" id="Fill-35" fill="#FFFFFF"></path>
                <path d="M74.604897,26.3115579 C74.329454,26.3115579 74.0899904,26.1073262 74.0600575,25.8248627 C74.0241978,25.518485 74.2396552,25.24203 74.5389847,25.2060386 C76.6403376,24.9476695 79.190625,22.8205708 79.9568487,20.711618 L75.3232878,20.711618 C75.0179119,20.711618 74.7725216,20.465206 74.7725216,20.1588283 C74.7725216,19.8523305 75.0179119,19.6059785 75.3232878,19.6059785 L80.0466475,19.6059785 C80.3819564,19.6059785 80.6992457,19.7682704 80.8908166,20.0446052 C81.0823875,20.3149914 81.1362668,20.6634893 81.0285081,20.9820043 C80.1724258,23.5056094 77.2030172,25.9991717 74.6647629,26.3115579 C74.6527898,26.3055494 74.6287835,26.3115579 74.604897,26.3115579" id="Fill-36" fill="#FFFFFF"></path>
                <path d="M81.3996767,26.3115579 C81.3757304,26.3115579 81.351784,26.3115579 81.3337644,26.3055494 C79.1547055,26.0351631 76.5265924,24.0823734 75.3532208,21.8591974 C75.2095426,21.5888112 75.3113147,21.2523906 75.5807112,21.1081245 C75.8501078,20.9639185 76.1852969,21.0660644 76.329035,21.3364506 C77.3347821,23.2411717 79.6396193,24.9777124 81.4655292,25.19997 C81.7708453,25.2360815 81.980376,25.5124163 81.9444564,25.8189142 C81.9085369,26.1012575 81.6750599,26.3115579 81.3996767,26.3115579" id="Fill-37" fill="#FFFFFF"></path>
                <path d="M71.2524066,22.2077073 C71.0189296,22.2077073 70.8034124,22.0574927 70.7255867,21.823218 C70.6357878,21.5287373 70.7914392,21.2223597 71.0847821,21.1261622 L73.6409962,20.3089948 C73.9343989,20.2188661 74.2396552,20.3750893 74.3355005,20.6695099 C74.4252993,20.9639305 74.2695881,21.2703682 73.9763051,21.3665056 L71.4200311,22.183733 C71.366092,22.1956901 71.3122725,22.2077073 71.2524066,22.2077073" id="Fill-38" fill="#FFFFFF"></path>
                <path d="M64.2720067,24.3888112 C64.0086566,24.3888112 63.7512332,24.3167682 63.5176964,24.1845794 C63.1525742,23.9682103 62.9011375,23.6076953 62.8172653,23.1991116 L62.4401102,21.3184249 C62.3802443,21.0179957 62.571875,20.7235751 62.8712045,20.6634893 C63.170534,20.6034034 63.4578305,20.7956781 63.523683,21.0961073 L63.900898,22.976794 C63.9308309,23.121 64.0265565,23.1991116 64.0804957,23.2291545 C64.1343151,23.2591974 64.2481202,23.3072661 64.3857519,23.2652661 L69.5641523,21.6129056 C69.8575551,21.5227768 70.1628113,21.6789399 70.2585967,21.9734206 C70.3483956,22.2677811 70.1927443,22.574279 69.8994013,22.6703562 L64.7270474,24.3227167 C64.5713362,24.3648369 64.4216715,24.3888112 64.2720067,24.3888112" id="Fill-39" fill="#FFFFFF"></path>
                <path d="M34.6444085,8.64033734 L34.6444085,8.64033734 L36.7037955,3.66523004 L38.7631825,8.64033734 L34.6444085,8.64033734 Z M35.9494852,2.1690927 L31.2140924,13.321024 L32.7167265,13.321024 L34.1654813,9.81201116 L39.3079622,9.81201116 L40.7866499,13.321024 L42.3072438,13.321024 L37.5479047,2.1690927 L35.9494852,2.1690927 Z" id="Fill-40" fill="#FFFFFF"></path>
                <path d="M46.3840876,8.56223777 L45.0610512,8.56223777 C44.2528616,8.56223777 43.8517601,8.20172275 43.8517601,7.47468412 C43.8517601,6.69356824 44.5342912,6.3030103 45.8931873,6.3030103 C46.874988,6.3030103 47.8208693,6.45322489 48.7308309,6.77167983 L48.7308309,5.52189442 C47.8208693,5.26352532 46.874988,5.13133648 45.8931873,5.13133648 C43.6242696,5.13133648 42.4868175,5.91245236 42.4868175,7.47468412 C42.4868175,9.08498455 43.3428999,9.89013476 45.0610512,9.89013476 L46.3840876,9.89013476 C47.24017,9.89013476 47.6712045,10.2566584 47.6712045,10.9776884 C47.6712045,11.7588043 47.0186662,12.1493622 45.7135896,12.1493622 C44.7317888,12.1493622 43.7859674,11.9931391 42.8759459,11.6867013 L42.8759459,12.9304781 C43.7859076,13.1948558 44.7317888,13.3210361 45.7135896,13.3210361 C47.9765805,13.3210361 49.1079861,12.5399202 49.1079861,10.9776884 C49.1079861,9.36738798 48.204011,8.56223777 46.3840876,8.56223777" id="Fill-41" fill="#FFFFFF"></path>
                <polygon id="Fill-42" fill="#FFFFFF" points="50.26341 13.32103 51.7061782 13.32103 51.7061782 5.13133047 50.26341 5.13133047"></polygon>
                <polygon id="Fill-43" fill="#FFFFFF" points="50.26341 3.33476395 51.7061782 3.33476395 51.7061782 2.16909871 50.26341 2.16909871"></polygon>
                <path d="M58.3213721,11.5064438 L58.3213721,11.5064438 C57.7346863,11.9330532 56.9384698,12.1493622 55.9387093,12.1493622 C54.8491499,12.1493622 54.3043103,11.6867013 54.3043103,10.7433536 C54.3043103,9.86009185 54.9329023,9.42146524 56.1900862,9.42146524 C57.0402419,9.42146524 57.7526461,9.47554249 58.3273587,9.57167983 L58.3213721,11.5064438 Z M56.1123204,5.13133648 C55.2682112,5.13133648 54.4061422,5.26352532 53.5201269,5.52189442 L53.5201269,6.69356824 C54.4061422,6.43519914 55.2682112,6.3030103 56.1123204,6.3030103 C57.5850216,6.3030103 58.3213721,6.74163691 58.3213721,7.63691588 L58.3213721,8.41202318 C57.7107399,8.30386867 56.9983357,8.24979142 56.1841595,8.24979142 C53.9691212,8.24979142 52.861602,9.09099313 52.861602,10.7733966 C52.861602,12.4678172 53.8853089,13.3210361 55.9387093,13.3210361 C56.848671,13.3210361 57.6389009,13.1407785 58.3213721,12.8042979 L58.3213721,13.3210361 L59.3211327,13.3210361 L59.7641403,13.3210361 L59.7641403,7.75107897 C59.7641403,6.00258112 58.5488625,5.13133648 56.1123204,5.13133648 L56.1123204,5.13133648 Z" id="Fill-44" fill="#FFFFFF"></path>
                <polygon id="Fill-45" fill="#FFFFFF" points="61.3086686 13.32103 62.7454502 13.32103 62.7454502 2.16909871 61.3086686 2.16909871"></polygon>
                <path d="M68.516523,5.13133047 C67.5167625,5.13133047 66.5170019,5.47982833 65.523228,6.17682403 L65.5292146,5.13133047 L64.2899904,5.13133047 L64.2899904,13.32103 L65.7327586,13.32103 L65.7327586,7.37253219 C66.4750958,6.68154506 67.2593391,6.33304721 68.0854885,6.33304721 C69.3007663,6.33304721 69.9054119,6.94592275 69.9054119,8.15965665 L69.9054119,13.32103 L71.3481801,13.32103 L71.3481801,8.1776824 C71.3481801,6.14678112 70.4082854,5.13133047 68.516523,5.13133047" id="Fill-46" fill="#FFFFFF"></path>
                <path d="M74.3355005,4.28411416 C74.3355005,3.38282661 74.8742936,2.93218283 75.9399066,2.93218283 C76.6463242,2.93218283 77.2628831,3.03432876 77.7777898,3.24462918 L77.7777898,2.07896395 C77.2270235,1.86866352 76.6163913,1.76050901 75.9518798,1.76050901 C73.9103927,1.76050901 72.8926724,2.75192532 72.8926724,4.72874936 L72.8926724,13.3390498 L74.3355005,13.3390498 L74.3355005,6.30299828 L76.7900024,6.30299828 L76.7900024,5.13132446 L74.3355005,5.13132446 L74.3355005,4.28411416 Z" id="Fill-47" fill="#FFFFFF"></path>
                <path d="M81.2260417,12.1493442 L81.2260417,12.1493442 C79.5857759,12.1493442 78.7655532,11.1639365 78.7655532,9.19912961 C78.7655532,7.27037425 79.5857759,6.30299227 81.2260417,6.30299227 C82.8603807,6.30299227 83.68659,7.26436567 83.68659,9.19912961 C83.68659,11.1639365 82.8603807,12.1493442 81.2260417,12.1493442 M81.2260417,5.13131845 C78.621875,5.13131845 77.322785,6.49526695 77.322785,9.22316395 C77.3287716,11.9450524 78.6338482,13.3090009 81.2260417,13.3090009 C83.8242217,13.3090009 85.1233716,11.9450524 85.1233716,9.22316395 C85.1233716,6.49526695 83.8242217,5.13131845 81.2260417,5.13131845" id="Fill-48" fill="#FFFFFF"></path>
                <path d="M24.7545498,7.99142232 C25.8800287,9.9502206 26.5205939,12.2154567 26.5205939,14.6309073 C26.5205939,18.9691047 24.4492337,22.8265554 21.246408,25.2600318 C21.9348659,24.4429245 22.4377395,23.5296197 22.7250958,22.5261262 C22.9465996,21.7570876 23.0244253,20.9879888 23.0184387,20.2549416 C23.0184387,20.2549416 23.0064655,20.13477 23.0064655,20.0686755 C23.0064655,18.5244695 21.904933,15.6944266 21.904933,15.6944266 C19.1989943,10.0463579 17.8999042,8.26180858 16.5409483,6.60944807 C15.0981801,4.85494163 13.5835728,4.48841803 12.4042146,4.71073562 C13.1824713,4.07983433 14.1343391,3.50901888 15.2478448,3.2085897 C17.3431513,2.63777425 19.612069,3.11846094 21.9827586,4.62060687 L21.9827586,4.61459828 C23.0842912,5.57597167 24.0241858,6.71760258 24.7545498,7.99142232" id="Fill-56" fill="#FFFFFF"></path>
                <path d="M22.240182,18.8549296 C22.4197797,19.9364747 22.4437261,21.1442 22.1024904,22.3519253 C21.5277778,24.3708094 20.0431034,25.993127 17.684387,27.176818 C14.1522989,28.432612 10.1233238,28.1922687 6.62715517,26.167376 C3.38242337,24.2866893 1.23323755,21.2463459 0.395114943,17.8635133 C0.478927203,17.9896936 0.568726054,18.1098652 0.664511494,18.2300369 C2.50838123,20.4712386 5.75311303,21.2343288 7.213841,21.4746721 C7.6927682,21.5648009 8.01604406,21.6188781 8.01604406,21.6188781 C14.2361111,22.0935562 16.4272031,21.8592215 18.5344828,21.504715 C20.7614943,21.1201657 21.8330939,19.9905519 22.240182,18.8549296" id="Fill-57" fill="#FFFFFF"></path>
                <path d="M0.275389128,14.5648069 L0.00599257663,14.5648069 L0.00599257663,14.5587983 L0.275389128,14.5648069 L0.00599257663,14.5587983 L0.311308669,14.5587983 L0.00599257663,14.5587983 L0.323281849,14.5587983 L0.00599257663,14.5587983 C0.00599257663,14.4085837 0.0119791667,14.2583691 0.0179657567,14.1081545 C0.0239523467,14 0.0239523467,13.8858369 0.0299389368,13.7716738 L0.0239523467,13.7716738 C0.305322079,9.48755365 2.64607878,5.41974249 6.62716116,3.11244635 C8.71648108,1.89871245 10.9973719,1.32188841 13.2483297,1.32188841 C15.1640386,1.32188841 17.0617876,1.74849785 18.7978987,2.54763948 C17.5167684,2.25922747 16.2715577,2.26523605 15.0742397,2.58969957 C14.3917684,2.77596567 13.7751497,3.05236052 13.2124102,3.37682403 C13.1645175,3.40085837 13.1226114,3.4248927 13.0747186,3.44892704 C13.0507723,3.46094421 13.0208393,3.48497854 12.996893,3.49699571 C12.9909064,3.49699571 12.9849198,3.50300429 12.9849198,3.50901288 C11.6558968,4.33218884 9.85393319,6.59141631 9.85393319,6.59141631 C6.32783166,11.7648069 5.44181633,13.7896996 4.69349258,15.7965665 C3.92122246,17.8695279 4.32831058,19.3476395 5.07064775,20.2729614 C3.71169181,19.816309 2.18511135,19.0652361 1.16140445,17.8214592 C0.425053879,16.9261803 0.0359255268,15.8626609 5.98659024e-06,14.6609442 L5.98659024e-06,14.5708155 L0.275389128,14.5648069 Z" id="Fill-58" fill="#FFFFFF"></path>
            </g>
        </g>
    </g>
</svg>