<?xml version="1.0" standalone="no"?><!DOCTYPE svg PUBLIC "-//W3C//DTD SVG 1.1//EN" "http://www.w3.org/Graphics/SVG/1.1/DTD/svg11.dtd"><svg t="1617159314263" class="icon" viewBox="0 0 1102 1024" version="1.1" xmlns="http://www.w3.org/2000/svg" p-id="696" xmlns:xlink="http://www.w3.org/1999/xlink" width="137.75" height="128"><defs><style type="text/css"></style></defs><path d="M354.475706 314.950357H827.097703a39.347307 39.347307 0 1 0 0-78.694613H354.475706a39.347307 39.347307 0 1 0 0 78.694613z" fill="#169BFA" p-id="697"></path><path d="M157.548851 472.548324h708.951413c130.547844 0 236.243465-105.842966 236.243465-236.243465S996.851648 0 866.500264 0v78.706892c111.159672 20.959854 157.536572 70.516955 157.536572 157.548852S932.940669 393.804595 820.491726 393.804595H157.548851a39.347307 39.347307 0 1 0 0 78.694614zM551.488513 708.902297H236.39081a39.347307 39.347307 0 0 0 0 78.694614h315.097703a78.706892 78.706892 0 1 1 0 157.413785v78.694614a157.401506 157.401506 0 1 0 0-314.803013z" fill="#169BFA" p-id="698"></path><path d="M866.500264 551.353446H39.353446a39.353446 39.353446 0 1 0 0 78.706893h781.13828c112.448942 0 203.495995 70.504676 203.495995 157.536572s-67.349034 157.56113-236.243465 157.56113v78.841959h78.756008c130.547844 0 236.243465-105.842966 236.243465-236.255744 0-130.695189-105.695621-236.39081-236.243465-236.39081z" fill="#169BFA" p-id="699"></path></svg>