<svg width="1461" height="1001" viewBox="0 0 1461 1001" fill="none" xmlns="http://www.w3.org/2000/svg">
<rect width="1461" height="1001" fill="white"/>
<path d="M178.51 796.73C175.95 802.46 173.05 807.92 168.65 812.18C165.31 815.42 160.14 817.62 155.6 815.7C149.84 813.26 146.84 807.26 141.56 804.17C138.11 802.15 132.87 802.23 130.95 805.73C129.96 807.53 130.13 809.72 130.33 811.77C131.36 822.49 144.44 857.22 129.32 863.44C123.13 865.98 116.93 858.18 110.93 857.39C110.05 857.27 109.03 857.28 108.42 857.93C108.01 858.36 107.88 858.99 107.8 859.58C106.52 868.97 112.29 877.64 116.08 886.33C118.22 891.25 118.17 900.57 110.37 896.42C108.34 895.34 106.33 893.84 104.04 893.97C99.49 894.23 97.94 900.35 98.87 904.82C100.67 913.46 106.49 920.09 112.42 926.68C121.16 936.4 128.54 945.79 127.12 959.55C126.39 966.61 121.43 980.17 129.38 985C137.35 989.84 145.63 985.49 152.86 979.75C165.73 963.41 174.72 943.9 177.74 919.76C184.44 881.7 176.45 836.97 178.51 796.73Z" fill="#37C1D3"/>
<path d="M229.78 863.2C227.83 858.8 229.94 853.61 232.94 849.85C235.95 846.09 239.86 843.06 242.38 838.95C250.6 825.55 235.66 825.37 227.71 819.74C223.62 816.84 221.48 811.78 220.99 806.79C220.31 799.98 221.76 792.23 223.52 785.64C225.42 778.52 228.17 770.17 223.55 764.44C213.46 751.92 195.44 765.98 188.96 775.24C184.51 781.59 181.8 789.39 178.51 796.74C176.45 836.98 184.43 881.71 177.72 919.76C174.7 943.9 165.71 963.41 152.84 979.75C157.3 976.21 161.37 972.14 164.7 969.36C176.62 959.46 189.36 950.19 203.63 943.96C210.65 940.89 218.61 939.36 225.17 935.35C229.26 932.85 232.78 929.06 233.91 924.4C237.05 911.44 222.42 903.18 238.73 893.76C242.1 891.81 245.73 889.97 248.01 886.81C257.14 874.18 233.33 871.22 229.78 863.2Z" fill="#78DFE8"/>
<path fill-rule="evenodd" clip-rule="evenodd" d="M127.91 987.39C130.79 989.14 133.69 989.88 136.56 989.88C146.23 989.88 155.45 981.48 162.05 975.43L162.1 975.384C163.672 973.951 165.144 972.608 166.49 971.49C176.28 963.36 189.46 953.17 204.74 946.5C207.33 945.37 210.04 944.46 212.91 943.5L212.913 943.499C217.542 941.949 222.321 940.35 226.63 937.71C231.88 934.5 235.44 929.99 236.64 925.02C238.029 919.313 236.422 914.365 235.132 910.396L235.13 910.39L235.124 910.372C233.128 904.223 232.028 900.835 240.14 896.15L241.23 895.53L241.255 895.516C244.369 893.739 247.907 891.721 250.29 888.42C252.5 885.36 253.31 882.38 252.68 879.56C251.53 874.35 246.01 871.26 240.67 868.28C237.2 866.34 233.27 864.14 232.34 862.04C230.87 858.73 232.82 854.47 235.13 851.58C236.25 850.19 237.5 848.9 238.83 847.53L238.907 847.45C240.973 845.315 243.111 843.106 244.77 840.4C247.37 836.16 248.15 832.6 247.17 829.52C245.7 824.92 240.82 822.84 236.1 820.84C233.69 819.82 231.2 818.76 229.32 817.43C226.27 815.27 224.25 811.29 223.77 806.5C223.25 801.18 224.07 794.4 226.22 786.35L226.64 784.78C228.54 777.79 230.9 769.09 225.72 762.66C222.42 758.57 218.02 756.51 212.92 756.67C202.16 757.03 191.09 767.25 186.64 773.61C183.14 778.62 180.69 784.44 178.32 790.07C175.11 797.71 172.08 804.92 166.68 810.15C164.11 812.64 160.03 814.52 156.68 813.1C154.057 811.983 151.991 809.851 149.797 807.588L149.78 807.57L149.743 807.532C147.745 805.464 145.673 803.32 142.97 801.74C140.16 800.1 136.59 799.59 133.64 800.41C131.33 801.05 129.54 802.43 128.47 804.38C127.043 806.986 127.315 809.868 127.515 811.983L127.52 812.04C127.778 814.681 128.667 818.486 129.698 822.897L129.72 822.99L129.728 823.026C132.699 835.74 137.661 856.974 128.24 860.85C126 861.77 123.38 860.39 119.64 858.18C116.99 856.61 114.25 854.99 111.28 854.6C109.16 854.33 107.5 854.79 106.36 855.99C105.4 857.01 105.13 858.23 105 859.19C103.88 867.43 107.47 874.84 110.94 882L111.075 882.279C111.91 884.005 112.74 885.722 113.49 887.44C114.83 890.52 114.6 894.15 113.93 894.62C113.93 894.62 113.928 894.62 113.926 894.621C113.87 894.635 113.28 894.783 111.67 893.93C111.3 893.73 110.92 893.52 110.55 893.3C108.76 892.27 106.51 891.01 103.86 891.15C101.59 891.28 99.63 892.34 98.18 894.23C96.08 896.97 95.26 901.34 96.1 905.37C98.1 914.95 104.58 922.17 110.31 928.54C118.74 937.91 125.61 946.69 124.31 959.25C124.175 960.61 123.863 962.23 123.527 963.976L123.49 964.17C122 971.93 119.96 982.56 127.91 987.39ZM129.9 959.83C131.43 945 123.48 934.79 114.49 924.79C108.98 918.66 103.29 912.32 101.62 904.23C101.13 901.85 101.56 899.08 102.66 897.65C103.23 896.91 103.78 896.78 104.2 896.76C105.263 896.721 106.423 897.389 107.719 898.135L107.78 898.17C108.21 898.42 108.63 898.66 109.06 898.89C113.79 901.4 116.55 899.87 117.78 898.73C121.3 895.47 120.2 888.69 118.67 885.19C117.892 883.406 117.032 881.621 116.169 879.828L116.03 879.54C112.81 872.91 109.78 866.64 110.57 860.17C112.41 860.41 114.54 861.67 116.8 863.01C120.83 865.4 125.4 868.1 130.4 866.04C144.25 860.344 138.818 837.125 135.218 821.735L135.21 821.7L135.163 821.497C134.193 817.333 133.357 813.744 133.14 811.5C132.97 809.69 132.87 808.11 133.43 807.08C133.75 806.48 134.34 806.06 135.16 805.83C136.64 805.41 138.66 805.73 140.15 806.6C142.2 807.8 143.93 809.59 145.76 811.49L145.817 811.549C148.289 814.101 150.848 816.742 154.51 818.29C160.61 820.86 167 817.7 170.61 814.2C176.817 808.192 180.205 800.139 183.484 792.346L183.52 792.26C185.87 786.65 188.1 781.36 191.26 776.84C195.37 770.96 204.87 762.57 213.13 762.29C216.4 762.19 219.15 763.45 221.36 766.19C224.74 770.39 222.96 776.96 221.23 783.31L220.8 784.91C218.44 793.73 217.59 800.98 218.19 807.06C218.83 813.47 221.71 818.92 226.09 822.02C228.46 823.69 231.23 824.87 233.91 826.01L233.916 826.013C237.464 827.522 241.13 829.081 241.82 831.23C242.38 832.98 241.13 835.59 239.98 837.46C238.62 839.67 236.76 841.59 234.79 843.62L234.627 843.789C233.318 845.146 231.969 846.544 230.74 848.08C226.41 853.49 225.09 859.56 227.2 864.33C228.887 868.144 233.266 870.592 237.908 873.188L237.93 873.2L237.94 873.206C241.997 875.474 246.59 878.042 247.2 880.79C247.46 881.99 246.99 883.41 245.74 885.14C244.06 887.46 241.34 889.02 238.45 890.66L237.33 891.3C225.27 898.27 227.67 905.65 229.79 912.15L229.806 912.201C230.981 915.825 232.195 919.569 231.19 923.72C230.04 928.46 226.01 931.53 223.71 932.94C219.972 935.237 215.719 936.664 211.218 938.174L211.14 938.2L211.134 938.202C208.276 939.161 205.328 940.151 202.51 941.38C186.58 948.33 172.98 958.83 162.91 967.19C161.491 968.379 159.941 969.789 158.282 971.298L158.28 971.3C150.07 978.78 139.84 988.08 130.82 982.59C126.214 979.799 127.751 971.769 128.989 965.299L129 965.24C129.39 963.23 129.74 961.38 129.9 959.83Z" fill="#1A4A67"/>
<path d="M135.03 995.98C134.7 995.98 134.37 995.92 134.04 995.8C132.59 995.25 131.85 993.63 132.4 992.18L192.25 833.04C192.8 831.59 194.42 830.85 195.87 831.4C197.32 831.95 198.06 833.57 197.51 835.02L137.66 994.16C137.23 995.29 136.17 995.98 135.03 995.98Z" fill="white"/>
<path d="M177.41 885.96C176.5 885.96 175.61 885.52 175.07 884.71C174.21 883.42 174.56 881.67 175.85 880.81L204.97 861.4C206.27 860.54 208.01 860.89 208.87 862.18C209.73 863.47 209.38 865.22 208.09 866.08L178.97 885.49C178.48 885.81 177.94 885.96 177.41 885.96Z" fill="white"/>
<path d="M156.3 943.88C155.39 943.88 154.5 943.44 153.96 942.63C153.1 941.34 153.45 939.59 154.74 938.73L183.86 919.32C185.16 918.46 186.9 918.81 187.76 920.1C188.62 921.39 188.27 923.14 186.98 924L157.86 943.41C157.38 943.73 156.84 943.88 156.3 943.88Z" fill="white"/>
<path d="M163.27 915.42C162.34 915.42 161.44 914.96 160.9 914.13L142.37 885.21C141.54 883.9 141.92 882.17 143.22 881.33C144.52 880.49 146.26 880.87 147.1 882.18L165.63 911.1C166.46 912.41 166.08 914.14 164.78 914.98C164.31 915.28 163.79 915.42 163.27 915.42Z" fill="white"/>
<path d="M84.05 960.97C76.56 949.73 91.54 927.25 80.3 916.01C61.59 897.3 41.03 876.66 29.39 851.43C29.2 851.94 29.04 852.46 28.95 852.99C28.24 856.98 30.09 860.92 31.03 864.86C31.97 868.8 31.53 873.82 27.94 875.7C22.93 878.34 16.71 872.58 11.4 874.56C7.57002 875.98 6.18002 881 7.36002 884.91C8.54002 888.82 11.55 891.85 14.43 894.75C22.22 902.58 29.8 910.61 37.15 918.84C39.12 921.05 40.8 925.09 38.13 926.37C37.33 926.76 36.39 926.67 35.5 926.58C29.25 925.92 22.99 925.27 16.74 924.61C12.97 924.21 8.69002 923.97 5.89002 926.52C2.37002 929.71 3.28002 935.83 6.52002 939.3C9.76002 942.77 14.55 944.25 19.13 945.54C28.54 948.19 33.82 951.87 37.43 961.22C45.65 982.48 63.44 988.21 83.41 988.03C81.44 987.7 79.49 987.29 77.61 986.83L96.91 987.15C92.35 987.67 87.83 987.99 83.41 988.03C93.5 989.72 104.3 989.28 110 982.53C99.54 978.62 90.43 971.61 84.05 960.97Z" fill="#37C1D3"/>
<path d="M117.62 948.91C121.08 944.44 127.79 941.2 127.06 935.59C126.63 932.27 123.54 929.97 120.49 928.6C117.44 927.23 114.06 926.32 111.63 924.02C107.02 919.63 107.74 911.91 110.73 906.29C113.73 900.68 118.51 896.2 121.66 890.67C122.71 888.83 123.58 886.59 122.73 884.65C121.96 882.87 119.97 881.94 118.07 881.57C112.55 880.48 107.01 882.78 101.5 883.88C95.99 884.98 89.17 884.34 86.35 879.47C83.32 874.25 86.69 867.51 85.23 861.66C83.76 855.79 76.77 851.98 71.04 853.94C67.66 855.09 65.08 857.79 62.11 859.77C59.14 861.75 55.08 863 52.1 861.03C48.55 858.69 48.69 853.46 46.53 849.8C44.57 846.47 40.43 844.57 36.63 845.26C33.36 845.85 30.54 848.31 29.38 851.41C41.02 876.65 61.59 897.29 80.29 915.99C91.53 927.23 76.54 949.71 84.04 960.95C90.43 971.59 99.54 978.6 109.99 982.5C112.41 979.63 113.93 975.66 114.05 970.18C114.23 962.86 113.12 954.71 117.62 948.91Z" fill="#78DFE8"/>
<path fill-rule="evenodd" clip-rule="evenodd" d="M83.26 990.85C86.33 991.35 89.55 991.68 92.74 991.68C98.86 991.68 104.85 990.48 109.38 987.02C114.16 983.36 116.67 977.73 116.85 970.29C116.884 969.101 116.875 967.889 116.865 966.669C116.863 966.463 116.861 966.257 116.86 966.05C116.8 960.17 116.76 954.61 119.82 950.66C120.76 949.45 122.03 948.29 123.38 947.06L123.381 947.059C126.731 944.009 130.52 940.56 129.83 935.26C129.33 931.49 126.42 928.22 121.62 926.07C120.916 925.753 120.204 925.467 119.484 925.178C119.386 925.139 119.288 925.1 119.19 925.06L119.144 925.041C117.001 924.178 114.97 923.36 113.55 922.01C110.06 918.69 110.73 912.27 113.2 907.65C114.635 904.968 116.53 902.541 118.536 899.972L118.6 899.89C120.51 897.45 122.49 894.92 124.1 892.1L124.115 892.074C124.809 890.838 126.869 887.174 125.3 883.57C124.26 881.17 121.88 879.49 118.61 878.85C113.895 877.923 109.438 879.063 105.111 880.17L105.07 880.18C103.7 880.54 102.32 880.89 100.94 881.17C96.64 882.04 90.88 881.75 88.77 878.11C87.51 875.93 87.78 873.12 88.11 869.87C88.4 867 88.7 864.03 87.95 861.03C87.06 857.47 84.55 854.34 81.07 852.44C77.59 850.54 73.59 850.13 70.13 851.32C67.4102 852.24 65.2773 853.893 63.2089 855.497L63.14 855.55C62.29 856.21 61.44 856.87 60.55 857.47C58.54 858.82 55.52 859.95 53.65 858.72C52.29 857.83 51.69 855.87 51.01 853.61L50.9829 853.522C50.4615 851.819 49.9232 850.061 48.95 848.41C46.38 844.05 41.14 841.63 36.13 842.53C31.15 843.42 27.06 847.53 26.17 852.51C25.5331 856.093 26.5503 859.517 27.4472 862.537L27.46 862.58C27.4963 862.703 27.5327 862.825 27.5691 862.948C27.8239 863.805 28.0788 864.663 28.28 865.52C28.98 868.44 28.76 872.1 26.62 873.22C25.04 874.05 22.83 873.38 20.27 872.6C17.26 871.68 13.85 870.64 10.41 871.93C4.90002 873.98 3.13002 880.69 4.66002 885.73C6.03036 890.288 9.39253 893.672 12.3672 896.667L12.43 896.73C20.14 904.48 27.75 912.55 35.05 920.71C36.06 921.84 36.61 923.19 36.69 923.85C36.4248 923.85 36.1157 923.821 35.8942 923.8C35.8568 923.796 35.8218 923.793 35.79 923.79L17.03 921.82C12.64 921.36 7.64002 921.14 4.00002 924.44C2.07002 926.19 0.950018 928.7 0.830018 931.52C0.680018 935.01 2.04002 938.63 4.46002 941.22C8.11002 945.12 13.12 946.76 18.36 948.24C27.62 950.85 31.76 954.38 34.8 962.23C43.98 985.95 64.46 990.99 83.26 990.85ZM96.77 985.84L96.6 984.35C91.95 984.88 87.62 985.16 83.56 985.21C81.61 984.87 79.81 984.48 78.28 984.1L78.04 985.09C58.17 984.04 46.17 976.04 40.05 960.21C35.83 949.28 29.21 945.46 19.89 942.84C15.28 941.54 11.24 940.24 8.58002 937.39C7.21002 935.93 6.38002 933.72 6.46002 931.76C6.49002 930.83 6.75002 929.54 7.78002 928.61C9.70002 926.87 13.12 927.06 16.45 927.41L35.21 929.38L35.2735 929.386C36.3133 929.487 37.851 929.635 39.36 928.9C40.87 928.17 41.88 926.86 42.21 925.22C42.8 922.23 40.98 918.9 39.25 916.96C31.88 908.73 24.21 900.58 16.42 892.76L16.3134 892.652C13.7063 890.016 11.0168 887.296 10.05 884.09C9.27002 881.53 10.11 878.04 12.38 877.19C14.0518 876.573 16.2584 877.243 18.6154 877.96L18.65 877.97C21.92 878.97 25.63 880.09 29.25 878.19C34.4 875.48 34.9 868.97 33.77 864.21C33.5469 863.237 33.2601 862.273 32.9735 861.309C32.939 861.192 32.9044 861.076 32.87 860.96L32.8593 860.924C32.0632 858.268 31.3119 855.76 31.72 853.48C32.19 850.85 34.52 848.51 37.15 848.04C39.78 847.57 42.78 848.94 44.13 851.24C44.7688 852.311 45.1855 853.682 45.6268 855.134L45.65 855.21C46.52 858.1 47.51 861.38 50.57 863.39C54.12 865.72 59.02 865.25 63.7 862.12C64.7 861.45 65.66 860.71 66.62 859.96L66.6563 859.932C68.4427 858.542 70.1225 857.236 71.97 856.61C73.97 855.93 76.31 856.2 78.41 857.34C80.52 858.48 82.02 860.31 82.53 862.35C83.0479 864.392 82.812 866.751 82.5631 869.239L82.56 869.27L82.5597 869.274C82.1897 872.963 81.7708 877.141 83.95 880.89C87.56 887.1 95.67 887.94 102.09 886.65C103.56 886.36 105.04 885.98 106.51 885.6C110.41 884.6 114.08 883.66 117.56 884.34C118.9 884.61 119.91 885.16 120.18 885.79C120.47 886.47 120.14 887.72 119.24 889.3C117.83 891.76 116.07 894.02 114.2 896.41C112.11 899.08 109.96 901.84 108.28 904.98C104.92 911.27 103.93 920.56 109.72 926.06C111.93 928.16 114.57 929.22 117.14 930.25C117.23 930.286 117.32 930.322 117.41 930.358C118.068 930.62 118.718 930.88 119.36 931.17C120.74 931.79 123.97 933.49 124.29 935.96C124.58 938.19 122.72 940.06 119.63 942.88C118.16 944.21 116.64 945.6 115.41 947.19C111.163 952.663 111.22 959.746 111.27 966.012L111.27 966.07L111.27 966.077C111.28 967.445 111.29 968.802 111.26 970.13C111.12 975.86 109.4 979.92 105.99 982.53C103.48 984.45 100.24 985.44 96.77 985.84Z" fill="#1A4A67"/>
<path d="M100.42 992.31C99.28 992.31 98.21 991.61 97.79 990.49L63.13 898.34C62.58 896.89 63.32 895.27 64.77 894.72C66.22 894.17 67.84 894.91 68.39 896.36L103.05 988.51C103.6 989.96 102.86 991.58 101.41 992.13C101.08 992.25 100.74 992.31 100.42 992.31Z" fill="white"/>
<path d="M75.87 928.6C75.34 928.6 74.79 928.45 74.31 928.13L57.45 916.89C56.16 916.03 55.81 914.28 56.67 912.99C57.53 911.7 59.28 911.35 60.57 912.21L77.43 923.45C78.72 924.31 79.07 926.06 78.21 927.35C77.67 928.16 76.78 928.6 75.87 928.6Z" fill="white"/>
<path d="M88.09 962.14C87.56 962.14 87.01 961.99 86.53 961.67L69.67 950.43C68.38 949.57 68.03 947.82 68.89 946.53C69.75 945.24 71.49 944.89 72.79 945.75L89.65 956.99C90.94 957.85 91.29 959.6 90.43 960.89C89.89 961.7 89 962.14 88.09 962.14Z" fill="white"/>
<path d="M84.06 945.66C83.54 945.66 83.02 945.52 82.55 945.22C81.24 944.38 80.86 942.64 81.7 941.34L92.43 924.59C93.27 923.28 95.01 922.9 96.31 923.74C97.62 924.58 98 926.32 97.16 927.62L86.43 944.37C85.89 945.21 84.98 945.66 84.06 945.66Z" fill="white"/>
<path d="M77.61 986.82C79.48 987.28 81.43 987.69 83.41 988.02C87.83 987.98 92.36 987.66 96.91 987.14L77.61 986.82Z" fill="#37C1D3"/>
<path d="M120.07 755.29C125.858 755.29 130.55 750.598 130.55 744.81C130.55 739.022 125.858 734.33 120.07 734.33C114.282 734.33 109.59 739.022 109.59 744.81C109.59 750.598 114.282 755.29 120.07 755.29Z" fill="#8BDEEC"/>
<path d="M69.6 746.78C75.3879 746.78 80.08 742.088 80.08 736.3C80.08 730.512 75.3879 725.82 69.6 725.82C63.8121 725.82 59.12 730.512 59.12 736.3C59.12 742.088 63.8121 746.78 69.6 746.78Z" fill="#8BDEEC"/>
<path d="M76.7 801.25C82.4879 801.25 87.18 796.558 87.18 790.77C87.18 784.982 82.4879 780.29 76.7 780.29C70.912 780.29 66.22 784.982 66.22 790.77C66.22 796.558 70.912 801.25 76.7 801.25Z" fill="#8BDEEC"/>
<path d="M1413 761.29H496.72C471.99 761.29 451.76 741.06 451.76 716.33V48.01C451.76 23.28 471.99 3.05005 496.72 3.05005H1413C1437.73 3.05005 1457.96 23.28 1457.96 48.01V716.33C1457.96 741.05 1437.73 761.29 1413 761.29Z" fill="#E6E7E8"/>
<path fill-rule="evenodd" clip-rule="evenodd" d="M496.72 764.1H1413C1439.34 764.1 1460.78 742.67 1460.77 716.32V48.01C1460.77 21.67 1439.34 0.23999 1413 0.23999H496.72C470.38 0.23999 448.95 21.67 448.95 48.01V716.33C448.95 742.67 470.38 764.1 496.72 764.1ZM454.57 48C454.57 24.76 473.48 5.84999 496.72 5.84999V5.85999H1413C1436.24 5.85999 1455.15 24.77 1455.15 48.01V716.31C1455.15 739.55 1436.24 758.46 1413 758.46H496.72C473.48 758.46 454.57 739.55 454.57 716.31V48Z" fill="#1A4A67"/>
<path d="M1384.9 698.04H520.49C495.76 698.04 475.53 677.81 475.53 653.08V80.98C475.53 56.25 495.76 36.02 520.49 36.02H1384.9C1409.63 36.02 1429.86 56.25 1429.86 80.98V653.08C1429.86 677.81 1409.63 698.04 1384.9 698.04Z" fill="white"/>
<path d="M1008.01 726.7H937.44C935.72 726.7 934.32 725.29 934.32 723.58C934.32 721.86 935.73 720.46 937.44 720.46H1008.01C1009.73 720.46 1011.13 721.87 1011.13 723.58C1011.13 725.29 1009.73 726.7 1008.01 726.7Z" fill="#1A4A67"/>
<path d="M505.45 28.52C509.327 28.52 512.47 25.377 512.47 21.5C512.47 17.6229 509.327 14.48 505.45 14.48C501.573 14.48 498.43 17.6229 498.43 21.5C498.43 25.377 501.573 28.52 505.45 28.52Z" fill="#1A4A67"/>
<path d="M535.67 28.52C539.547 28.52 542.69 25.377 542.69 21.5C542.69 17.6229 539.547 14.48 535.67 14.48C531.793 14.48 528.65 17.6229 528.65 21.5C528.65 25.377 531.793 28.52 535.67 28.52Z" fill="#78DFE8"/>
<path d="M566.17 28.52C570.047 28.52 573.19 25.377 573.19 21.5C573.19 17.6229 570.047 14.48 566.17 14.48C562.293 14.48 559.15 17.6229 559.15 21.5C559.15 25.377 562.293 28.52 566.17 28.52Z" fill="#37C1D3"/>
<path d="M738.61 411.06H567.5C562.91 411.06 559.15 407.3 559.15 402.71C559.15 398.12 562.91 394.36 567.5 394.36H738.61C743.2 394.36 746.96 398.12 746.96 402.71C746.96 407.3 743.2 411.06 738.61 411.06Z" fill="#E6E7E8"/>
<path d="M738.61 449.29H567.5C562.91 449.29 559.15 445.53 559.15 440.94C559.15 436.35 562.91 432.59 567.5 432.59H738.61C743.2 432.59 746.96 436.35 746.96 440.94C746.96 445.53 743.2 449.29 738.61 449.29Z" fill="#E6E7E8"/>
<path d="M738.61 487.51H567.5C562.91 487.51 559.15 483.75 559.15 479.16C559.15 474.57 562.91 470.81 567.5 470.81H738.61C743.2 470.81 746.96 474.57 746.96 479.16C746.96 483.76 743.2 487.51 738.61 487.51Z" fill="#E6E7E8"/>
<path d="M738.61 530.61H567.5C562.91 530.61 559.15 526.85 559.15 522.26C559.15 517.67 562.91 513.91 567.5 513.91H738.61C743.2 513.91 746.96 517.67 746.96 522.26C746.96 526.85 743.2 530.61 738.61 530.61Z" fill="#E6E7E8"/>
<path d="M738.61 568.83H567.5C562.91 568.83 559.15 565.07 559.15 560.48C559.15 555.89 562.91 552.13 567.5 552.13H738.61C743.2 552.13 746.96 555.89 746.96 560.48C746.96 565.08 743.2 568.83 738.61 568.83Z" fill="#E6E7E8"/>
<path d="M738.61 607.06H567.5C562.91 607.06 559.15 603.3 559.15 598.71C559.15 594.12 562.91 590.36 567.5 590.36H738.61C743.2 590.36 746.96 594.12 746.96 598.71C746.96 603.3 743.2 607.06 738.61 607.06Z" fill="#E6E7E8"/>
<path d="M994.66 411.06H823.55C818.96 411.06 815.2 407.3 815.2 402.71C815.2 398.12 818.96 394.36 823.55 394.36H994.66C999.25 394.36 1003.01 398.12 1003.01 402.71C1003.01 407.3 999.25 411.06 994.66 411.06Z" fill="#E6E7E8"/>
<path d="M994.66 449.29H823.55C818.96 449.29 815.2 445.53 815.2 440.94C815.2 436.35 818.96 432.59 823.55 432.59H994.66C999.25 432.59 1003.01 436.35 1003.01 440.94C1003.01 445.53 999.25 449.29 994.66 449.29Z" fill="#E6E7E8"/>
<path d="M994.66 487.51H823.55C818.96 487.51 815.2 483.75 815.2 479.16C815.2 474.57 818.96 470.81 823.55 470.81H994.66C999.25 470.81 1003.01 474.57 1003.01 479.16C1003.01 483.76 999.25 487.51 994.66 487.51Z" fill="#E6E7E8"/>
<path d="M994.66 530.61H823.55C818.96 530.61 815.2 526.85 815.2 522.26C815.2 517.67 818.96 513.91 823.55 513.91H994.66C999.25 513.91 1003.01 517.67 1003.01 522.26C1003.01 526.85 999.25 530.61 994.66 530.61Z" fill="#E6E7E8"/>
<path d="M994.66 568.83H823.55C818.96 568.83 815.2 565.07 815.2 560.48C815.2 555.89 818.96 552.13 823.55 552.13H994.66C999.25 552.13 1003.01 555.89 1003.01 560.48C1003.01 565.08 999.25 568.83 994.66 568.83Z" fill="#E6E7E8"/>
<path d="M994.66 607.06H823.55C818.96 607.06 815.2 603.3 815.2 598.71C815.2 594.12 818.96 590.36 823.55 590.36H994.66C999.25 590.36 1003.01 594.12 1003.01 598.71C1003.01 603.3 999.25 607.06 994.66 607.06Z" fill="#E6E7E8"/>
<path d="M1224.18 244.82C1204.48 239.89 1199.55 180.79 1179.85 180.79C1136.57 184.72 1121.57 242.07 1097.2 285.07C1100.39 302.79 1115.94 316.36 1134.55 316.36H1307.97C1328.86 316.36 1345.95 299.27 1345.95 278.38V154.04C1339.93 154.52 1333.78 156.68 1327.62 161.08C1293.14 190.64 1268.51 254.67 1224.18 244.82Z" fill="#78DFE8"/>
<path fill-rule="evenodd" clip-rule="evenodd" d="M1134.56 319.17H1307.97C1330.46 319.17 1348.76 300.88 1348.75 278.37V150.99L1345.72 151.23C1338.88 151.77 1332.24 154.31 1325.78 158.94C1314.48 168.628 1304.18 181.998 1294.21 194.94L1294.14 195.03C1273.04 222.44 1253.09 248.32 1224.82 242.07C1216.64 239.99 1210.77 225.31 1205.1 211.12L1205.09 211.102C1198.29 194.069 1191.86 177.98 1179.6 177.98H1179.59C1144.75 181.15 1127.36 217.43 1110.55 252.52C1105.54 262.98 1100.35 273.81 1094.76 283.68L1094.26 284.56L1094.44 285.56C1097.94 305.04 1114.81 319.17 1134.56 319.17ZM1134.56 313.55C1117.87 313.55 1103.56 301.84 1100.16 285.55C1105.65 275.76 1110.71 265.19 1115.61 254.95L1115.62 254.931C1132.5 219.718 1148.44 186.459 1179.84 183.59C1188.05 183.59 1194.07 198.65 1199.89 213.21C1206.1 228.74 1212.52 244.79 1223.5 247.54L1223.57 247.56C1255.36 254.624 1277.3 226.132 1298.54 198.545L1298.6 198.47C1308.41 185.73 1318.56 172.55 1329.25 163.37C1333.72 160.17 1338.38 158.12 1343.14 157.24V278.38C1343.14 297.77 1327.36 313.55 1307.97 313.55H1134.56Z" fill="#1A4A67"/>
<path d="M1308.28 102.89H1134.86C1113.97 102.89 1096.88 119.98 1096.88 140.87V278.38C1096.88 280.66 1097.12 282.89 1097.51 285.07C1121.87 242.06 1136.88 184.72 1180.16 180.79C1199.86 180.79 1204.79 239.9 1224.49 244.82C1268.82 254.67 1293.45 190.64 1327.93 161.08C1334.09 156.68 1340.24 154.51 1346.26 154.04V140.87C1346.26 119.98 1329.17 102.89 1308.28 102.89Z" fill="white"/>
<path fill-rule="evenodd" clip-rule="evenodd" d="M1094.75 285.56L1096.12 293.24L1099.95 286.45C1105.61 276.441 1110.83 265.567 1115.87 255.047L1115.92 254.95L1115.93 254.931C1132.81 219.718 1148.75 186.46 1180.15 183.59C1188.36 183.59 1194.38 198.65 1200.2 213.21L1200.2 213.219C1206.41 228.746 1212.83 244.801 1223.88 247.56C1255.67 254.624 1277.61 226.132 1298.85 198.545L1298.91 198.47C1308.72 185.73 1318.87 172.55 1329.56 163.37C1334.98 159.49 1340.67 157.3 1346.48 156.84L1349.07 156.64V140.87C1349.07 118.38 1330.77 100.08 1308.28 100.08H1134.87C1112.38 100.08 1094.08 118.38 1094.08 140.87V278.38C1094.08 280.67 1094.3 283.02 1094.75 285.56ZM1099.7 140.87C1099.7 121.48 1115.48 105.7 1134.87 105.7V105.69H1308.28C1327.67 105.69 1343.45 121.47 1343.45 140.86V151.53C1337.52 152.45 1331.74 154.9 1326.1 158.94C1314.8 168.628 1304.5 181.998 1294.53 194.94L1294.46 195.03L1294.46 195.034C1273.34 222.452 1253.4 248.34 1225.17 242.08C1216.98 240.032 1211.11 225.353 1205.43 211.154L1205.42 211.12L1205.41 211.102C1198.61 194.069 1192.18 177.98 1179.92 177.98H1179.91C1145.07 181.15 1127.68 217.43 1110.87 252.52L1110.82 252.626C1107.23 260.122 1103.55 267.785 1099.7 275.16V140.87Z" fill="#1A4A67"/>
<path d="M1246.2 191.26C1258.27 191.26 1268.06 181.473 1268.06 169.4C1268.06 157.327 1258.27 147.54 1246.2 147.54C1234.13 147.54 1224.34 157.327 1224.34 169.4C1224.34 181.473 1234.13 191.26 1246.2 191.26Z" fill="#78DFE8"/>
<path fill-rule="evenodd" clip-rule="evenodd" d="M1221.53 169.39C1221.53 182.99 1232.6 194.06 1246.2 194.06C1259.81 194.06 1270.87 182.99 1270.87 169.39C1270.87 155.79 1259.8 144.72 1246.2 144.72C1232.6 144.72 1221.53 155.79 1221.53 169.39ZM1227.15 169.4C1227.15 158.89 1235.7 150.35 1246.2 150.35C1256.71 150.35 1265.25 158.89 1265.25 169.4C1265.25 179.91 1256.7 188.45 1246.2 188.45C1235.69 188.45 1227.15 179.91 1227.15 169.4Z" fill="#1A4A67"/>
<path d="M604.12 320.73H958.04C982.77 320.73 1003 300.5 1003 275.77V147.87C1003 123.14 982.77 102.91 958.04 102.91H604.12C579.39 102.91 559.16 123.14 559.16 147.87V275.77C559.15 300.49 579.39 320.73 604.12 320.73Z" fill="#E6E7E8"/>
<path fill-rule="evenodd" clip-rule="evenodd" d="M604.12 323.54H958.04C984.38 323.54 1005.82 302.1 1005.81 275.77V147.87C1005.81 121.53 984.38 100.1 958.04 100.1H604.12C577.78 100.1 556.35 121.53 556.35 147.87V275.77C556.35 302.11 577.78 323.54 604.12 323.54ZM561.97 147.85C561.97 124.61 580.88 105.7 604.12 105.7H958.04C981.28 105.7 1000.19 124.61 1000.19 147.85V275.75C1000.19 298.99 981.28 317.9 958.04 317.9H604.12C580.88 317.9 561.97 298.99 561.97 275.75V147.85Z" fill="#1A4A67"/>
<path d="M1141.85 484.29H1300.98C1325.71 484.29 1345.94 464.06 1345.94 439.33C1345.94 414.6 1325.71 394.37 1300.98 394.37H1141.85C1117.12 394.37 1096.89 414.6 1096.89 439.33C1096.89 464.06 1117.12 484.29 1141.85 484.29Z" fill="white"/>
<path fill-rule="evenodd" clip-rule="evenodd" d="M1141.85 487.1H1300.99C1327.33 487.1 1348.76 465.67 1348.76 439.33C1348.76 412.99 1327.33 391.56 1300.99 391.56H1141.85C1115.51 391.56 1094.08 412.99 1094.08 439.33C1094.08 465.67 1115.51 487.1 1141.85 487.1ZM1099.7 439.33C1099.7 416.09 1118.61 397.18 1141.85 397.18H1300.99C1324.23 397.18 1343.14 416.09 1343.14 439.33C1343.14 462.57 1324.23 481.48 1300.99 481.48H1141.85C1118.61 481.48 1099.7 462.57 1099.7 439.33Z" fill="#1A4A67"/>
<path d="M1141.85 597.1H1300.98C1325.71 597.1 1345.94 576.87 1345.94 552.14C1345.94 527.41 1325.71 507.18 1300.98 507.18H1141.85C1117.12 507.18 1096.89 527.41 1096.89 552.14C1096.89 576.87 1117.12 597.1 1141.85 597.1Z" fill="white"/>
<path fill-rule="evenodd" clip-rule="evenodd" d="M1141.85 599.91H1300.99C1327.33 599.91 1348.76 578.48 1348.76 552.13C1348.76 525.79 1327.33 504.36 1300.99 504.36H1141.85C1115.51 504.36 1094.08 525.8 1094.08 552.14C1094.08 578.48 1115.51 599.91 1141.85 599.91ZM1099.7 552.13C1099.7 528.89 1118.61 509.98 1141.85 509.98H1300.99C1324.23 509.98 1343.14 528.89 1343.14 552.13C1343.14 575.37 1324.23 594.28 1300.99 594.28H1141.85C1118.61 594.28 1099.7 575.37 1099.7 552.13Z" fill="#1A4A67"/>
<path d="M972.72 990.16C1155.5 990.16 1303.67 980.055 1303.67 967.59C1303.67 955.125 1155.5 945.02 972.72 945.02C789.941 945.02 641.77 955.125 641.77 967.59C641.77 980.055 789.941 990.16 972.72 990.16Z" fill="#E6E7E8"/>
<path d="M587.18 905.67H418.56C409.11 905.67 401.39 897.94 401.39 888.5V882.03C401.39 872.58 409.12 864.86 418.56 864.86H587.18C596.63 864.86 604.35 872.59 604.35 882.03V888.5C604.35 897.94 596.62 905.67 587.18 905.67Z" fill="#A7A9AC"/>
<path d="M587.18 950.04H418.56C409.11 950.04 401.39 942.31 401.39 932.87V926.4C401.39 916.95 409.12 909.23 418.56 909.23H587.18C596.63 909.23 604.35 916.96 604.35 926.4V932.87C604.35 942.31 596.62 950.04 587.18 950.04Z" fill="#A7A9AC"/>
<path d="M587.18 994.86H418.56C409.11 994.86 401.39 987.13 401.39 977.69V971.22C401.39 961.77 409.12 954.05 418.56 954.05H587.18C596.63 954.05 604.35 961.78 604.35 971.22V977.69C604.35 987.13 596.62 994.86 587.18 994.86Z" fill="#A7A9AC"/>
<path d="M417.94 889.62C420.525 889.62 422.62 887.525 422.62 884.94C422.62 882.355 420.525 880.26 417.94 880.26C415.355 880.26 413.26 882.355 413.26 884.94C413.26 887.525 415.355 889.62 417.94 889.62Z" fill="white"/>
<path d="M586.55 889.62C589.135 889.62 591.23 887.525 591.23 884.94C591.23 882.355 589.135 880.26 586.55 880.26C583.965 880.26 581.87 882.355 581.87 884.94C581.87 887.525 583.965 889.62 586.55 889.62Z" fill="white"/>
<path d="M418.87 932.4C421.455 932.4 423.55 930.305 423.55 927.72C423.55 925.135 421.455 923.04 418.87 923.04C416.285 923.04 414.19 925.135 414.19 927.72C414.19 930.305 416.285 932.4 418.87 932.4Z" fill="white"/>
<path d="M587.49 932.4C590.075 932.4 592.17 930.305 592.17 927.72C592.17 925.135 590.075 923.04 587.49 923.04C584.905 923.04 582.81 925.135 582.81 927.72C582.81 930.305 584.905 932.4 587.49 932.4Z" fill="white"/>
<path d="M418.87 978.88C421.455 978.88 423.55 976.785 423.55 974.2C423.55 971.615 421.455 969.52 418.87 969.52C416.285 969.52 414.19 971.615 414.19 974.2C414.19 976.785 416.285 978.88 418.87 978.88Z" fill="white"/>
<path d="M587.49 978.88C590.075 978.88 592.17 976.785 592.17 974.2C592.17 971.615 590.075 969.52 587.49 969.52C584.905 969.52 582.81 971.615 582.81 974.2C582.81 976.785 584.905 978.88 587.49 978.88Z" fill="white"/>
<path d="M707.91 151.98C708.49 151.58 709.06 151.18 709.64 150.79C727.84 138.42 749.62 128.17 771.21 132.4C809.27 139.85 826.76 181.9 851.04 207.24C868.46 225.42 895.43 239.04 921.53 236.34C943.4 234.08 947.24 210.4 942 192.57C940.06 185.99 937.06 179.69 931.62 175.31C926.61 171.27 914.24 165.7 907.73 169.24C918.95 163.15 933.54 166.18 943.55 174.1C977.4 200.89 968.86 258.19 932.58 278.33C904.48 293.92 870.17 280.2 848.01 260.46C822.97 238.15 815.2 203.54 791.89 179.87C785.65 173.54 778.64 167.98 769.19 168.77C750.48 170.34 747.41 190.17 734.85 200.06C731.61 202.61 727.34 204.18 723.33 203.23C720.38 202.53 717.91 200.59 715.31 199.02C703.5 191.85 669.88 193.11 686.95 170.85C692.71 163.35 700.15 157.37 707.91 151.98Z" fill="#37C1D3"/>
<path fill-rule="evenodd" clip-rule="evenodd" d="M846.16 262.55C861.2 275.94 883.39 287.93 905.9 287.93C915.37 287.93 924.89 285.81 933.95 280.77C952.72 270.35 965.55 249.44 967.45 226.2C969.24 204.22 961.17 184.42 945.3 171.87C933.54 162.55 917.9 160.5 906.4 166.74L909.09 171.68C913.8 169.12 924.77 173.37 929.87 177.47C934.15 180.92 937.15 185.96 939.32 193.34C942.71 204.89 941.64 217.21 936.6 224.73C933.15 229.87 927.98 232.83 921.25 233.53C898.52 235.89 871.77 224.79 853.08 205.28C846.09 197.98 839.74 189.37 833.02 180.25C816.66 158.05 799.73 135.09 771.76 129.62C752.95 125.94 732.11 132.1 708.07 148.45L706.32 149.65C699.7 154.25 691.26 160.62 684.75 169.11C680.04 175.25 678.47 180.36 679.96 184.75C682.378 191.893 691.961 194.485 701.232 196.992L701.26 197C706.24 198.34 710.94 199.61 713.88 201.4C714.44 201.74 714.99 202.09 715.54 202.45L715.568 202.468C717.729 203.862 719.962 205.303 722.71 205.95C727.22 207.01 732.28 205.66 736.61 202.25C741.56 198.35 745.05 193.15 748.43 188.11C754.07 179.7 758.94 172.44 769.44 171.56C777.92 170.86 784.24 176.08 789.9 181.83C800.642 192.742 808.208 206.409 815.533 219.64L815.55 219.67C823.93 234.81 832.6 250.47 846.16 262.55ZM793.9 177.89C788 171.89 780.7 165.88 770.98 165.88C770.32 165.88 769.65 165.91 768.97 165.96C755.781 167.06 749.671 176.168 743.762 184.977L743.76 184.98C740.49 189.87 737.39 194.49 733.13 197.84C730.2 200.15 726.78 201.14 724 200.48C722.17 200.05 720.42 198.92 718.58 197.73C718.394 197.612 718.208 197.493 718.023 197.374C717.612 197.111 717.204 196.848 716.79 196.6C713.175 194.403 708.104 193.034 702.742 191.586L702.72 191.58C695.23 189.56 686.74 187.27 685.28 182.96C684.45 180.52 685.77 177.02 689.2 172.55C695.24 164.68 703.23 158.66 709.52 154.29L711.23 153.11C733.97 137.64 753.41 131.77 770.68 135.15C796.5 140.21 812.77 162.27 828.49 183.6C835.02 192.46 841.78 201.62 849.02 209.18C864.82 225.66 892.27 242.2 921.83 239.13C930.19 238.26 936.91 234.37 941.27 227.87C948.47 217.14 947.77 202.18 944.71 191.77C942.24 183.35 938.54 177.25 933.4 173.11C932.05 172.01 930.19 170.8 928.04 169.66C932.89 170.77 937.67 173.01 941.82 176.29C956.19 187.65 963.49 205.68 961.85 225.75C960.11 247.14 948.38 266.34 931.23 275.86C903.19 291.43 869.88 276.16 849.89 258.35C837.04 246.91 828.61 231.68 820.46 216.95L820.439 216.913C812.936 203.354 805.18 189.339 793.9 177.89Z" fill="#1A4A67"/>
<path d="M505.8 360.39C497.01 370.18 485.64 381.9 480.52 394.43C480.11 395.44 479.76 396.63 480.26 397.6C486.86 410.3 585.25 318.15 595.7 308.58C617.69 288.43 638.17 272.97 657.23 249.85C660.89 245.41 664.64 240.62 665.56 234.82C666.1 231.22 649.3 238.7 646.04 240.36C621.09 253.04 591.8 275.29 571.42 294.14C548.67 315.19 526.59 337.24 505.8 360.39Z" fill="#1A4A67"/>
<path d="M698.37 197.19C697.8 192.48 696.66 187.89 694.86 183.58C690.59 173.31 682.81 163.52 671.37 161.29C689.93 172.98 672.15 195.76 658.79 204.99C655.49 207.27 651.89 209.23 647.94 210.83C637.93 214.88 624.65 218.01 622.1 230.23C654.87 231.08 679.29 217.62 698.37 197.19Z" fill="#37C1D3"/>
<path fill-rule="evenodd" clip-rule="evenodd" d="M622.04 233.03C623.08 233.06 624.12 233.07 625.16 233.07C654.46 233.07 679.1 221.94 700.42 199.13L701.32 198.17L701.16 196.87C700.54 191.74 699.29 186.91 697.46 182.51C694.25 174.79 686.66 161.41 671.92 158.54L657.17 155.67L669.88 163.68C674.28 166.45 676.46 169.92 676.56 174.29C676.77 183.9 666.74 196.09 657.2 202.68C654.01 204.88 650.54 206.75 646.9 208.22C645.52 208.78 644.08 209.32 642.61 209.87L642.594 209.876C633.357 213.335 621.869 217.637 619.36 229.65L618.67 232.94L622.04 233.03ZM682.18 174.15C682.14 172.37 681.85 170.67 681.32 169.06C686.97 173.68 690.43 180.24 692.27 184.66C693.75 188.22 694.81 192.11 695.41 196.24C675.63 216.99 652.87 227.23 625.99 227.44C629.169 220.883 636.973 217.962 644.56 215.124L644.57 215.12C644.775 215.043 644.98 214.966 645.184 214.89C646.491 214.401 647.772 213.922 649 213.42C653.02 211.79 656.86 209.73 660.39 207.29C669.3 201.13 682.46 187.23 682.18 174.15Z" fill="#1A4A67"/>
<path d="M622.1 230.21C622.08 230.32 622.04 230.42 622.02 230.53C618.3 250.11 630.94 269.8 652.52 266.21C682.57 261.2 701.96 226.7 698.37 197.18C679.29 217.62 654.87 231.08 622.1 230.21Z" fill="white"/>
<path fill-rule="evenodd" clip-rule="evenodd" d="M627.72 261.26C632.97 266.63 639.87 269.45 647.53 269.45C649.31 269.45 651.13 269.3 652.98 269C685.88 263.52 704.78 226.58 701.16 196.86L700.43 190.88L696.32 195.28C675.41 217.67 651.31 228.19 622.18 227.41L619.97 227.49L619.26 230.02C617.05 241.69 620.29 253.66 627.72 261.26ZM631.73 257.33C625.97 251.43 623.27 242.26 624.46 233.06C652.19 233.34 675.52 223.58 695.97 203.66C696.17 229.55 678.83 258.99 652.06 263.45C641.86 265.15 635.37 261.06 631.73 257.33Z" fill="#1A4A67"/>
<path d="M330.64 903.12L337.01 963.39L317.08 967.59L314.17 904.31C314.17 904.31 324.72 900.46 330.64 903.12Z" fill="white"/>
<path fill-rule="evenodd" clip-rule="evenodd" d="M311.27 902.38L314.42 971.02L340.08 965.61L333.27 901.21L331.8 900.55C325.03 897.5 314.4 901.23 313.21 901.67L311.27 902.38ZM319.74 964.17L317.08 906.34C320.01 905.5 324.72 904.54 328.04 905.23L333.95 961.17L319.74 964.17Z" fill="#1A4A67"/>
<path d="M413.14 995.35C413.14 995.35 398.21 998.66 370.41 997.63C342.61 996.6 311.73 994.19 306.6 989.48C301.46 984.76 301.75 949.58 310.94 950.61C320.13 951.63 322.22 965.33 339.75 955.27C354.77 946.65 363.72 967.06 387.32 974.87C410.91 982.67 420.47 985.81 413.14 995.35Z" fill="#A7A9AC"/>
<path fill-rule="evenodd" clip-rule="evenodd" d="M370.31 1000.44C374.12 1000.58 377.69 1000.64 381.02 1000.64C401.416 1000.64 412.609 998.337 413.694 998.114C413.724 998.108 413.746 998.103 413.76 998.1L414.76 997.88L415.38 997.07C418.05 993.59 418.92 990.52 418.05 987.67C416.14 981.45 406.85 978.37 388.2 972.2C378.91 969.13 371.97 964 365.85 959.47L365.845 959.466C356.687 952.688 348.788 946.841 338.35 952.83C328.368 958.556 324.866 955.825 320.421 952.358L320.41 952.35C317.94 950.42 315.14 948.24 311.25 947.81C309.4 947.6 305.96 948.07 303.51 953.44C299.21 962.9 299.19 986.49 304.7 991.55C309.57 996.02 331.64 999.01 370.31 1000.44ZM308.63 955.75C309.29 954.3 310.04 953.39 310.57 953.39H310.62C312.93 953.65 314.79 955.1 316.94 956.78L316.941 956.781C321.811 960.581 327.871 965.31 341.13 957.7C348.05 953.73 353.22 957.12 362.5 963.98C368.64 968.52 376.29 974.17 386.58 977.58L386.63 977.597C400.596 982.219 411.611 985.864 412.67 989.31C412.92 990.13 412.53 991.3 411.52 992.8C407.74 993.49 393.54 995.67 370.51 994.82C329.07 993.29 311.3 989.99 308.49 987.41C306.09 985.18 304.5 964.8 308.63 955.75Z" fill="#1A4A67"/>
<path d="M383.23 919.78C382.3 917.61 379.86 915.99 377.74 914.3C358.37 898.86 363.1 875.31 366.2 854.73C373.55 805.91 365.68 756.7 362.74 707.87C359.88 660.21 364.65 612.38 375.54 565.92C379.5 549.04 384.96 522.94 358.85 527.88C346.48 530.22 334.27 529.76 321.94 527.6C315.45 526.46 322.07 524.35 315.45 526.46C292.9 533.66 284.47 576.28 289.1 591.13C298.32 620.7 301.32 649.08 302.82 680.39C304.94 724.79 312.33 769.24 307.06 813.3C304.48 834.89 301.48 856.42 298.6 877.97C296.92 890.54 286.41 918.08 293.46 929.46C303.14 945.08 346.27 931.84 360.68 931.49C371.51 931.21 386.39 927.15 383.23 919.78Z" fill="white"/>
<path fill-rule="evenodd" clip-rule="evenodd" d="M291.07 930.92C295.28 937.72 304.39 939.83 314.89 939.83C324.79 939.83 335.93 937.96 345.35 936.37C351.72 935.3 357.22 934.38 360.73 934.29C367.42 934.13 381.14 932.12 385.25 925.72C386.65 923.54 386.84 921.1 385.8 918.67C384.721 916.173 382.455 914.414 380.446 912.855L380.44 912.85L379.48 912.1C362.337 898.425 365.468 877.986 368.497 858.213L368.5 858.19L368.96 855.14C374.57 817.92 371.37 780.07 368.27 743.47L368.209 742.748C367.238 731.233 366.235 719.346 365.54 707.69C362.78 661.83 367.07 614.35 378.27 566.55C381.56 552.48 384.45 536.82 376.93 528.97C372.96 524.82 366.69 523.52 358.32 525.11C347.24 527.2 335.51 527.11 322.42 524.82C322.06 524.76 321.78 524.7 321.56 524.64V524.23L320.4 523.34C319.09 522.34 318.22 522.61 314.6 523.77C289.57 531.76 281.69 576.78 286.42 591.95C296.13 623.11 298.69 652.93 300.01 680.51C300.635 693.512 301.722 706.711 302.774 719.483L302.8 719.8L302.805 719.861C305.334 750.492 307.948 782.161 304.26 812.95C302.264 829.672 299.974 846.648 297.759 863.077L297.68 863.66L295.81 877.58C295.38 880.806 294.281 885.283 293.111 890.05L293.03 890.38C289.6 904.32 285.34 921.67 291.07 930.92ZM316.76 528.981C316.966 528.915 317.157 528.854 317.33 528.8C318.64 529.86 320.52 530.19 321.47 530.35C335.22 532.76 347.63 532.84 359.39 530.62C365.79 529.41 370.33 530.16 372.9 532.85C378.94 539.16 374.96 556.14 372.82 565.26C361.49 613.59 357.16 661.62 359.95 708.02C360.67 719.98 361.69 732.16 362.69 743.93C365.76 780.21 368.93 817.72 363.43 854.29L362.97 857.33C359.84 877.69 356.31 900.78 376 916.48L377.02 917.28C378.56 918.47 380.15 919.71 380.65 920.87C381 921.68 380.86 922.18 380.54 922.67C378.57 925.75 369.63 928.44 360.62 928.66C356.71 928.76 351.03 929.71 344.45 930.82L344.421 930.825C327.541 933.665 302.046 937.954 295.86 927.96C291.37 920.72 295.49 903.96 298.5 891.73L298.561 891.481C299.825 886.327 300.918 881.873 301.39 878.33L303.26 864.42C305.51 847.78 307.83 830.58 309.86 813.62C313.612 782.31 310.982 750.413 308.437 719.548L308.42 719.34L308.395 719.04C307.343 706.313 306.255 693.159 305.64 680.24C304.31 652.28 301.71 622.03 291.8 590.27C287.56 576.69 295.52 535.76 316.32 529.12C316.473 529.072 316.62 529.025 316.76 528.981Z" fill="#1A4A67"/>
<path d="M453.93 772.96L440.65 832.92L420.15 830.54L437.72 768.8C437.72 768.8 449.1 768.49 453.93 772.96Z" fill="white"/>
<path fill-rule="evenodd" clip-rule="evenodd" d="M416.53 832.96L442.84 836.01L457 772L455.82 770.9C450.31 765.8 438.93 765.97 437.63 766L435.57 766.06L416.53 832.96ZM438.45 829.83L423.75 828.13L439.83 771.64C442.98 771.77 447.82 772.37 450.79 774.12L438.45 829.83Z" fill="#1A4A67"/>
<path d="M520.46 862.02C520.46 862.02 505.36 865.51 477.19 864.73C449.01 863.95 417.7 861.8 412.45 857.07C407.2 852.34 407.16 816.69 416.48 817.64C425.8 818.59 428.05 832.45 445.71 822.09C460.84 813.22 470.11 833.81 494.1 841.5C518.08 849.2 527.8 852.29 520.46 862.02Z" fill="#D1D3D4"/>
<path fill-rule="evenodd" clip-rule="evenodd" d="M477.11 867.54C480 867.62 482.75 867.66 485.36 867.66C507.704 867.66 519.918 865.023 521.028 864.783C521.055 864.777 521.076 864.773 521.09 864.77L522.09 864.54L522.7 863.72C525.37 860.18 526.23 857.07 525.32 854.2C523.342 847.936 513.929 844.916 495.016 838.848L494.96 838.83C485.531 835.807 478.461 830.683 472.221 826.16L472.18 826.13C462.85 819.36 454.78 813.52 444.29 819.67C434.218 825.576 430.625 822.834 426.07 819.358L426.06 819.35L426.035 819.331C423.521 817.416 420.677 815.249 416.76 814.85C414.91 814.65 411.43 815.15 409.01 820.6C404.75 830.21 404.95 854.09 410.57 859.16C415.54 863.63 437.92 866.45 477.11 867.54ZM414.15 822.88C414.81 821.39 415.59 820.44 416.14 820.44C416.15 820.44 416.17 820.44 416.19 820.46C418.526 820.699 420.418 822.143 422.602 823.811L422.64 823.84C427.61 827.64 433.8 832.36 447.12 824.54C454.13 820.43 459.39 823.83 468.87 830.7L468.884 830.71C475.142 835.248 482.938 840.902 493.39 844.25C507.62 848.81 518.85 852.41 519.96 855.91C520.23 856.75 519.84 857.96 518.81 859.5C515.02 860.22 500.65 862.58 477.26 861.93C435.25 860.76 417.21 857.58 414.33 854.99C411.86 852.77 410.05 832.12 414.15 822.88Z" fill="#1A4A67"/>
<path d="M528.34 583.7C515.11 563.7 469.89 563.92 428.4 569.03L376.91 565.99L369.9 546.47C369.9 546.47 287.98 571.49 287.89 571.52C290.48 571.1 290.07 604.11 291.57 606.98C303.3 629.45 336.65 648.03 363.4 648.38C395.18 648.8 425.16 639.64 454.86 629.83C508.79 612.03 433.16 724.44 416 760.04C398.84 795.64 417.7 793.76 460.52 791.89C503.35 790.02 483.12 792.83 490.42 763.09C497.73 733.34 554.51 623.27 528.34 583.7Z" fill="white"/>
<path fill-rule="evenodd" clip-rule="evenodd" d="M408.98 787.9C412.99 793.98 421.77 795.54 435.43 795.54C441.339 795.54 448.16 795.248 455.901 794.917L457.01 794.87L468.04 794.4C483.24 793.79 487.83 793.6 490.37 790.73C492.2 788.65 491.99 786.04 491.72 782.73L491.718 782.705C491.398 778.795 490.915 772.891 493.16 763.76C494.9 756.66 499.75 744.32 505.37 730.03C523.64 683.53 551.24 613.26 530.68 582.16C519.11 564.67 484.66 559.31 428.3 566.22L378.92 563.3L371.63 543L369.07 543.78C287.248 568.764 287.05 568.83 287.02 568.84L287.02 568.84L288.33 574.29C287.05 574.5 286.13 573.69 285.91 573.22C286.734 575.028 287.214 585.635 287.504 592.069L287.51 592.2C287.98 602.8 288.22 606.65 289.07 608.27C301.03 631.16 335.05 650.81 363.36 651.18C395.12 651.61 425.17 642.58 455.74 632.49C460.74 630.84 467.21 629.52 469.69 632.55C478.537 643.347 448.407 696.279 430.396 727.923L430.38 727.95C423.26 740.45 417.12 751.24 413.47 758.81C406.56 773.16 405.17 782.13 408.98 787.9ZM474.05 629C471.93 626.4 468.83 625.11 464.7 625.11C461.69 625.11 458.13 625.8 453.99 627.17C423.9 637.1 394.32 646 363.45 645.57C336.95 645.22 305.18 626.95 294.14 605.84C293.7 604.52 293.37 597.26 293.13 591.96C292.67 581.83 292.31 576.38 291.71 573.29C304.7 569.32 356.05 553.63 368.15 549.94L374.88 568.69L428.47 571.86L428.73 571.83C482.18 565.24 515.81 569.89 525.98 585.26C544.928 613.917 516.885 685.297 500.125 727.958L500.12 727.97L499.987 728.309C494.13 743.229 489.506 755.006 487.69 762.42C485.23 772.449 485.76 778.908 486.11 783.178L486.11 783.18L486.116 783.254C486.236 784.687 486.396 786.607 486.15 786.99C485.255 788.054 477.642 788.366 467.984 788.763L467.81 788.77L456.76 789.24L456.755 789.24C434.108 790.25 417.75 790.98 413.68 784.81C411.15 780.99 412.74 773.28 418.54 761.26C422.102 753.887 428.182 743.199 435.222 730.824L435.27 730.74C463.64 680.91 484.5 641.77 474.05 629Z" fill="#1A4A67"/>
<path d="M420.73 222.01C422.6 222.63 428.22 243.87 418.23 257.61C408.24 271.35 414.04 269.48 404.27 278.84C394.5 288.21 387.63 290.24 387.63 290.24L376.39 294.45L377.64 271.34L388.8 234.49L424 222.01" fill="#1A4A67"/>
<path d="M366.46 316.17C366.46 316.17 360.31 361.23 360.3 361.23C349.42 364.43 338.02 370.54 326.56 370.52C327.08 362.16 335.26 352.6 339.02 344.71C343.58 335.14 346.79 325.23 346.29 314.5C344.97 286.46 366.46 316.17 366.46 316.17Z" fill="white"/>
<path fill-rule="evenodd" clip-rule="evenodd" d="M326.57 373.34H326.62C335.05 373.34 343.24 370.31 351.15 367.38C354.59 366.1 357.86 364.89 360.98 363.97C361.203 363.915 361.4 363.866 361.578 363.78C362.879 363.154 363.232 360.561 366.16 339.09L369.39 315.44L368.73 314.53C364.99 309.35 355.51 297.57 348.57 299.99C343.47 301.78 343.22 309.21 343.48 314.65C343.9 323.56 341.75 332.47 336.49 343.51C335.32 345.97 333.67 348.64 331.92 351.47C328.1 357.66 324.16 364.05 323.76 370.36L323.58 373.34H326.57ZM350.43 305.29C350.52 305.26 350.61 305.25 350.72 305.25C352.68 305.25 358.4 310.11 363.53 316.91C363.167 319.562 362.214 326.54 361.171 334.174C359.831 343.984 358.344 354.876 357.77 359.06C354.908 359.978 352.026 361.044 349.223 362.082L349.2 362.09L349.163 362.104C342.835 364.449 336.328 366.861 329.96 367.53C331.16 363.4 333.97 358.85 336.71 354.42C338.54 351.46 340.27 348.66 341.57 345.93C347.17 334.16 349.56 324.14 349.1 314.38C348.72 306.26 350.41 305.3 350.43 305.29Z" fill="#1A4A67"/>
<path d="M394.2 226.96C394.18 227.01 411.89 239.02 402.5 267.75C392.46 298.5 377.97 324.25 368.68 321.58C342.98 314.21 335.34 295 327.58 278.41C318.07 258.07 344.02 212.48 344.02 212.48L365.78 202.96L394.2 226.96Z" fill="white"/>
<path fill-rule="evenodd" clip-rule="evenodd" d="M367.91 324.28C368.61 324.48 369.32 324.58 370.03 324.58C382.43 324.58 396.53 295.09 405.17 268.62C413.25 243.89 402.4 230.57 397.53 226.09L397.5 226.07C396.88 225.5 396.36 225.07 395.99 224.79L366.26 199.68L342.05 210.28L341.59 211.09C340.5 213 315.03 258.19 325.04 279.6L326.28 282.26C333.81 298.52 342.35 316.95 367.91 324.28ZM330.14 277.22C322.01 259.83 342.69 220.77 346.03 214.67L365.32 206.23L390.96 227.89L390.93 227.99L392.59 229.26C395.2 231.25 407.82 242.43 399.84 266.88C388 303.1 374.58 320.35 369.46 318.88C346.372 312.264 338.758 295.827 331.391 279.924L331.38 279.9L330.14 277.22Z" fill="#1A4A67"/>
<path d="M434.25 220C437.14 212.83 433.91 199.35 428.93 194.37C427.01 192.45 424.5 191.12 421.88 191.16C419.91 191.19 417.91 191.98 416 191.5C410.26 190.05 410.27 185.16 405.01 182.97C401.09 181.34 396.92 184.67 392.73 185.3C389.57 185.77 386.43 184.67 383.36 183.76C374.73 181.19 366.94 176.31 358.02 174.48C350.5 172.94 342.51 173.14 335.33 176.26C327.84 179.52 322.12 186.17 318.7 194.12C316.66 198.87 315.69 204.27 316.59 209.38C315.85 205.18 308.08 208.99 306.75 210.51C301.52 216.48 288.34 233.95 290.23 241.55C291.73 247.57 287.07 253.02 288.4 259.12C289.97 266.38 308.96 270.57 312.36 277.17C316.26 284.74 324.89 289.14 332.74 287.78C330.91 281.07 329.1 274.21 329.24 267.17C329.38 260.13 322.72 227.75 357.74 223.76C371.66 222.17 387.23 234.96 400.91 236.64C407.41 237.44 414.04 236.71 420.36 234.73C425.24 233.2 430.42 226.54 433.44 221.6C433.76 221.09 434.03 220.56 434.25 220Z" fill="#1A4A67"/>
<path d="M582.7 318.21C581.85 317.85 580.96 318.6 580.34 319.29C574.7 325.53 569.05 331.76 563.41 338C562.31 339.22 561.16 340.47 559.68 341.18C558.2 341.89 556.28 341.92 555.05 340.83C553.57 339.52 553.62 337.23 553.79 335.25C554.04 332.26 559 326.33 554.26 325.02C547.53 328.29 541.09 342.17 539.1 349.15C536.45 356.57 542.45 361.84 538.4 368.24C530.88 380.13 523.56 392.11 515.44 403.6C511.18 409.62 506.8 415.55 502.4 421.45C500.41 424.12 492.11 438.81 489.21 439.11C479.57 452.13 470.25 465.65 459.87 478.1C455.91 482.85 425.65 455.46 425.65 455.46C399.12 434.95 394.63 418.77 394.63 418.77L371.42 424.73C371.42 424.73 379.66 445.73 395.83 459.57C413.47 474.66 436.02 498.49 448.38 507.78C460.75 517.07 461.61 512.56 466.28 508.08C476.11 498.61 483.33 484.12 490.9 472.87C503.96 453.45 516.88 433.92 529.37 414.12C535.42 404.53 541.81 394.29 547.34 384.07C552.64 374.28 557.06 368.89 566.77 363.2C574.94 358.41 579.51 350.91 580.97 341.46C582.01 334.72 581.43 327.77 583.29 321.15C583.59 320.1 583.71 318.63 582.7 318.21Z" fill="white"/>
<path fill-rule="evenodd" clip-rule="evenodd" d="M446.69 510.02C452.28 514.22 456.06 515.99 459.1 515.99C461.98 515.99 464.18 514.4 466.62 511.78C467.11 511.24 467.64 510.67 468.23 510.1C475.446 503.163 481.143 493.861 486.656 484.859L486.71 484.77L486.759 484.69C488.981 481.06 491.076 477.637 493.23 474.44C508.66 451.51 520.9 432.82 531.75 415.62C537.84 405.97 544.26 395.68 549.82 385.41C554.66 376.47 558.65 371.23 568.2 365.63C576.87 360.55 582.11 352.56 583.76 341.9C584.192 339.122 584.354 336.334 584.511 333.631L584.52 333.48C584.75 329.42 584.97 325.59 586.01 321.91C587 318.38 585.53 316.35 583.82 315.62H583.81C582.75 315.18 580.62 314.81 578.26 317.41L561.33 336.12L561.3 336.154C560.399 337.143 559.469 338.166 558.48 338.64C557.84 338.95 557.14 338.93 556.92 338.73C556.55 338.4 556.44 337.31 556.59 335.49C556.63 335.03 557.14 333.86 557.52 333L557.523 332.994C558.602 330.516 559.829 327.698 558.61 325.14C558.16 324.18 557.16 322.91 555.01 322.32L553.99 322.04L553.03 322.5C544.91 326.44 538.32 341.64 536.45 348.21C534.94 352.45 535.75 356.15 536.41 359.13C537.14 362.45 537.48 364.44 536.03 366.74L531.85 373.38C525.89 382.88 519.72 392.69 513.15 401.98C508.75 408.21 504.3 414.21 500.15 419.78C499.62 420.49 498.66 422.01 497.47 423.9C495.54 426.98 490.5 435 488.58 436.36L487.69 436.45L486.95 437.44C484.33 440.98 481.73 444.55 479.13 448.13C472.41 457.39 465.46 466.96 458.1 475.83C454.08 475.33 439.33 464.06 427.37 453.24C402.08 433.69 397.38 418.16 397.34 418.02L396.6 415.36L367.64 422.79L368.8 425.75C369.14 426.64 377.49 447.57 394 461.7C402 468.543 410.996 477.178 419.696 485.529L419.76 485.59C430.09 495.51 439.85 504.88 446.69 510.02ZM397.65 457.43C385.72 447.23 378.16 432.76 375.31 426.63L392.87 422.1C395.25 427.63 402.79 441.32 423.75 457.52C430 463.18 450.77 481.43 458.52 481.43H458.521C458.63 481.43 458.73 481.43 458.84 481.42C460.49 481.3 461.47 480.51 462.01 479.87C469.621 470.752 476.735 460.958 483.62 451.479L483.67 451.41C484.302 450.544 484.934 449.676 485.566 448.809C487.361 446.344 489.155 443.881 490.96 441.44C493.35 440.22 496.26 436.36 502.22 426.86C502.322 426.699 502.422 426.54 502.521 426.384C503.461 424.894 504.215 423.699 504.65 423.11C508.83 417.52 513.3 411.47 517.74 405.2C524.4 395.79 530.61 385.91 536.61 376.35L540.78 369.72C543.54 365.35 542.67 361.39 541.9 357.9C541.29 355.16 540.77 352.8 541.8 349.9C543.63 343.49 548.34 333.85 552.92 329.42C552.73 329.9 552.53 330.37 552.37 330.72C551.72 332.2 551.11 333.61 550.99 334.99L550.989 335.004C550.838 336.81 550.527 340.546 553.18 342.91C555.16 344.67 558.19 344.98 560.89 343.69C562.9 342.73 564.34 341.14 565.49 339.87L579.76 324.1C579.25 327.14 579.07 330.18 578.9 333.14C578.75 335.87 578.6 338.46 578.2 341.02C576.82 349.94 572.5 356.58 565.36 360.77C554.72 367.01 550.12 373.06 544.88 382.73C539.4 392.85 533.04 403.05 527 412.62C516.18 429.78 503.96 448.42 488.57 471.3C486.346 474.596 484.221 478.07 481.969 481.75L481.92 481.83L481.898 481.867C476.555 490.585 471.031 499.599 464.33 506.05C463.724 506.638 463.175 507.227 462.653 507.785C462.599 507.844 462.544 507.902 462.49 507.96L462.481 507.97C459.748 510.923 458.72 512.033 450.07 505.53C443.534 500.625 433.959 491.435 423.807 481.691L423.65 481.54C414.87 473.11 405.79 464.4 397.65 457.43Z" fill="#1A4A67"/>
<path d="M375.83 448.71C372.99 421.53 386.12 378.27 370.28 356.21C368.66 353.95 366.91 351.69 364.55 350.21C334.75 331.51 314.13 360.57 304.61 386.14C296.35 408.31 297.37 428.71 296.76 451.84C295.73 490.82 286.66 528.74 275.08 565.79C270.95 579.01 269.85 594.4 281.54 596.41C297.33 599.12 300.73 579.67 315.79 574.65C329.55 570.06 340.67 572.88 355.71 573.7C363.17 574.11 387.53 569.2 386.04 555.33C382.52 522.45 377.23 494.1 377.06 471.2C377.01 463.77 376.62 456.24 375.83 448.71Z" fill="#37C1D3"/>
<path fill-rule="evenodd" clip-rule="evenodd" d="M281.07 599.18C282.28 599.38 283.43 599.48 284.52 599.48C292.843 599.48 297.92 593.819 302.848 588.324L302.95 588.21L302.989 588.167C306.887 583.79 310.909 579.274 316.7 577.34C326.67 574.014 335.362 574.808 345.409 575.727L345.44 575.73L345.981 575.779C349.035 576.054 352.21 576.341 355.58 576.52C361.11 576.82 377.23 574.3 384.83 566.29C387.91 563.04 389.31 559.15 388.87 555.04C387.63 543.51 386.2 532.67 384.81 522.18C382.23 502.71 380.01 485.9 379.9 471.18C379.84 463.5 379.42 455.84 378.65 448.43C377.68 439.18 378.61 427.98 379.61 416.12L379.613 416.088C381.512 393.308 383.475 369.763 372.58 354.58C370.9 352.24 368.88 349.61 366.06 347.84C355.89 341.45 345.93 339.84 336.46 343.05C317.05 349.63 305.89 374.69 301.99 385.16C294.77 404.54 294.47 422.65 294.16 441.82C294.147 442.532 294.134 443.247 294.122 443.964C294.076 446.529 294.03 449.126 293.96 451.76C293.08 485.15 286.43 520.06 272.41 564.95C270.18 572.09 267.15 585.26 272.01 593.2C274.02 596.48 277.06 598.49 281.07 599.18ZM338.26 348.36C340.79 347.5 343.38 347.07 346.03 347.07C351.51 347.07 357.21 348.92 363.05 352.58C365.01 353.81 366.56 355.85 367.99 357.84C377.682 371.329 375.803 393.813 373.985 415.576L373.98 415.63L373.971 415.744C372.964 427.832 372.013 439.251 373.03 448.99C373.79 456.22 374.2 463.7 374.25 471.2C374.37 486.27 376.61 503.24 379.21 522.89L379.245 523.158C380.614 533.525 382.031 544.248 383.25 555.61C383.52 558.1 382.7 560.32 380.73 562.39C374.98 568.45 361.33 571.19 355.87 570.88C352.38 570.69 349.09 570.39 345.94 570.1C335.24 569.12 326 568.28 314.91 571.97C307.681 574.39 302.931 579.729 298.741 584.439L298.74 584.44L298.728 584.454C293.534 590.297 289.434 594.909 282.02 593.63C279.65 593.22 277.95 592.12 276.81 590.26C274.11 585.85 274.46 577.23 277.78 566.62C291.96 521.21 298.68 485.83 299.58 451.9C299.67 448.51 299.73 445.18 299.78 441.9L299.78 441.875C300.09 423.215 300.383 405.582 307.26 387.11C310.87 377.39 321.13 354.17 338.26 348.36Z" fill="#1A4A67"/>
<path d="M400.23 415.17C400.23 415.17 367.98 348.99 347.41 369.43C326.85 389.87 374.76 456.61 374.76 456.61L408.01 422.56L400.23 415.17Z" fill="#78DFE8"/>
<path fill-rule="evenodd" clip-rule="evenodd" d="M372.49 458.25L374.44 460.97L412.02 422.48L402.53 413.48C399.95 408.29 378.52 366.27 358.79 362.93C353.79 362.08 349.3 363.6 345.44 367.44C323.43 389.31 370.48 455.45 372.49 458.25ZM349.4 371.42C351.49 369.34 353.74 368.32 356.22 368.32C356.75 368.32 357.3 368.37 357.85 368.46C372.59 370.95 391.62 403.91 397.71 416.4L404.02 422.63L375.12 452.22C361.38 432.31 334.65 386.08 349.4 371.42Z" fill="#1A4A67"/>
<path d="M398.62 223.99C406.31 219.59 408.54 209.65 409.32 200.82C410.17 191.23 410.01 178.27 401.93 171.51C398.81 168.9 394.99 167.28 391.09 166.11C371.98 160.36 348.87 161.96 330.29 169.01C311.34 176.2 297.29 192.61 290.57 211.45C287.19 220.92 285.52 231.01 285.59 241.06C285.66 251.68 290.39 262.73 282.15 271.51C285.11 271.52 288.07 271.15 290.94 270.41C280.45 273.11 263.55 273.69 263.12 288.71C262.95 294.69 266.84 299.9 270.12 304.91C273.4 309.92 276.3 316.15 274.02 321.69C271.15 328.68 261.18 331.43 259.89 338.89C258.36 347.75 266.73 351.81 270.1 358.71C274.35 367.41 270.28 377.53 269.3 386.55C268.43 394.55 275.81 398.23 280.63 403.01C294.6 416.85 294.41 432.59 279.14 447.88C278.83 448.19 278.95 448.79 279.17 449.17C279.4 449.57 279.9 449.74 280.35 449.86C300.1 455.02 325.74 435.95 330.29 416.92C332.34 408.35 327.11 400.33 329.4 392.1C331.23 385.52 337.93 381.8 343.71 378.18C357.13 369.78 354.47 348.38 352.76 332.64C351.27 318.91 354.83 316.29 347.01 304.91C342.94 298.99 339.75 292.51 337.05 285.85C333.46 276.99 329.28 282.92 329.59 273.37C329.93 262.89 335.12 253.17 343.61 247.03C348.01 243.85 353.21 241.62 358.56 240.66C364.23 239.64 370.01 238.68 374.42 234.69C378.54 230.96 384.23 222.51 390.61 223.08C398.57 223.79 407.7 221.8 411.83 214.97" fill="#1A4A67"/>
</svg>
