<svg width="892" height="823" viewBox="0 0 892 823" fill="none" xmlns="http://www.w3.org/2000/svg">
<rect width="892" height="823" fill="white"/>
<g opacity="0.31">
<path d="M846.14 507.15L475.76 635.55C452.26 635.55 433.21 616.5 433.21 593V410.13C433.21 386.63 452.26 367.58 475.76 367.58L846.14 239.17C869.64 239.17 888.69 258.22 888.69 281.72V464.59C888.69 488.1 869.64 507.15 846.14 507.15Z" fill="#8BDEEC"/>
<path fill-rule="evenodd" clip-rule="evenodd" d="M475.76 638.36H476.23L846.62 509.96C871.41 509.7 891.5 489.45 891.5 464.6V281.72C891.5 256.71 871.15 236.36 846.14 236.36H845.67L475.28 364.77C450.49 365.03 430.4 385.28 430.4 410.13V593C430.4 618.01 450.75 638.36 475.76 638.36ZM436.02 410.13C436.02 388.22 453.85 370.39 475.76 370.39V370.38H476.23L846.6 241.98C868.3 242.23 885.88 259.96 885.88 281.72V464.6C885.88 486.51 868.05 504.34 846.14 504.34H845.67L475.3 632.74C453.6 632.49 436.02 614.76 436.02 593V410.13Z" fill="#1A4A67"/>
</g>
<path d="M600.41 441.69L486.13 481.3C478.88 481.3 473 475.42 473 468.17V411.74C473 404.49 478.88 398.61 486.13 398.61L600.41 359C607.66 359 613.54 364.88 613.54 372.13V428.56C613.54 435.81 607.66 441.69 600.41 441.69Z" fill="white"/>
<path d="M859.48 177.98L745.2 217.6C737.95 217.6 732.07 211.72 732.07 204.47V148.04C732.07 140.79 737.95 134.91 745.2 134.91L859.48 95.2903C866.73 95.2903 872.61 101.17 872.61 108.42V164.85C872.61 172.1 866.73 177.98 859.48 177.98Z" fill="#D8D8D8"/>
<path fill-rule="evenodd" clip-rule="evenodd" d="M707.96 203.33H708.43L816.66 165.81C824.83 165.55 831.4 158.82 831.4 150.58V97.1602C831.4 88.7602 824.57 81.9202 816.16 81.9202H815.69L707.47 119.44C699.29 119.7 692.72 126.43 692.72 134.67V188.09C692.72 196.49 699.55 203.33 707.96 203.33ZM698.34 134.66C698.34 129.36 702.65 125.04 707.96 125.04H708.43L816.6 87.5402C821.7 87.7702 825.78 91.9902 825.78 97.1502V150.57C825.78 155.87 821.47 160.19 816.16 160.19H815.69L707.52 197.69C702.42 197.46 698.34 193.24 698.34 188.08V134.66Z" fill="#E6E7E8"/>
<path d="M853.4 598.47L745.2 635.98C738.33 635.98 732.77 630.41 732.77 623.55V570.13C732.77 563.26 738.34 557.7 745.2 557.7L853.4 520.19C860.27 520.19 865.83 525.76 865.83 532.62V586.04C865.83 592.9 860.27 598.47 853.4 598.47Z" fill="#E6E7E8"/>
<path d="M673.85 616.66L559.57 656.28C552.32 656.28 546.44 650.4 546.44 643.15V586.72C546.44 579.47 552.32 573.59 559.57 573.59L673.85 533.97C681.1 533.97 686.98 539.85 686.98 547.1V603.53C686.98 610.78 681.1 616.66 673.85 616.66Z" fill="#E6E7E8"/>
<path d="M600.41 544.8L486.13 584.42C478.88 584.42 473 578.54 473 571.29V514.86C473 507.61 478.88 501.73 486.13 501.73L600.41 462.11C607.66 462.11 613.54 467.99 613.54 475.24V531.67C613.54 538.93 607.66 544.8 600.41 544.8Z" fill="white"/>
<path opacity="0.51" d="M655.3 509.79C652.51 509.79 650.22 507.5 650.22 504.71V419.53C650.22 416.74 652.51 414.45 655.3 414.45C658.09 414.45 660.38 416.74 660.38 419.53V504.71C660.38 507.51 658.1 509.79 655.3 509.79Z" fill="white"/>
<path opacity="0.51" d="M682.63 343.2C681.69 340.57 683.08 337.65 685.71 336.71L820.87 288.48C823.5 287.54 826.42 288.93 827.36 291.56C828.3 294.19 826.91 297.11 824.28 298.05L689.12 346.28C686.49 347.21 683.57 345.83 682.63 343.2Z" fill="white"/>
<path opacity="0.51" d="M682.63 361.61C681.69 358.98 683.08 356.06 685.71 355.12L820.87 306.89C823.5 305.95 826.42 307.34 827.36 309.97C828.3 312.6 826.91 315.52 824.28 316.46L689.12 364.69C686.49 365.63 683.57 364.24 682.63 361.61Z" fill="white"/>
<path opacity="0.51" d="M682.63 380.03C681.69 377.4 683.08 374.48 685.71 373.54L820.87 325.31C823.5 324.37 826.42 325.76 827.36 328.39C828.3 331.02 826.91 333.94 824.28 334.88L689.12 383.11C686.49 384.04 683.57 382.66 682.63 380.03Z" fill="white"/>
<path opacity="0.51" d="M682.63 398.44C681.69 395.81 683.08 392.89 685.71 391.95L820.87 343.72C823.5 342.78 826.42 344.17 827.36 346.8C828.3 349.43 826.91 352.35 824.28 353.29L689.12 401.52C686.49 402.46 683.57 401.07 682.63 398.44Z" fill="white"/>
<path opacity="0.51" d="M682.63 416.85C681.69 414.22 683.08 411.3 685.71 410.36L820.87 362.13C823.5 361.19 826.42 362.58 827.36 365.21C828.3 367.84 826.91 370.76 824.28 371.7L689.12 419.93C686.49 420.87 683.57 419.49 682.63 416.85Z" fill="white"/>
<path opacity="0.51" d="M682.63 435.27C681.69 432.64 683.08 429.72 685.71 428.78L820.87 380.55C823.5 379.61 826.42 381 827.36 383.63C828.3 386.26 826.91 389.18 824.28 390.12L689.12 438.35C686.49 439.28 683.57 437.9 682.63 435.27Z" fill="white"/>
<path opacity="0.51" d="M682.63 453.68C681.69 451.05 683.08 448.13 685.71 447.19L820.87 398.96C823.5 398.02 826.42 399.41 827.36 402.04C828.3 404.67 826.91 407.59 824.28 408.53L689.12 456.76C686.49 457.7 683.57 456.31 682.63 453.68Z" fill="white"/>
<path opacity="0.51" d="M682.63 472.1C681.69 469.47 683.08 466.55 685.71 465.61L820.87 417.38C823.5 416.44 826.42 417.83 827.36 420.46C828.3 423.09 826.91 426.01 824.28 426.95L689.12 475.18C686.49 476.11 683.57 474.73 682.63 472.1Z" fill="white"/>
<path opacity="0.51" d="M682.63 490.51C681.69 487.88 683.08 484.96 685.71 484.02L820.87 435.79C823.5 434.85 826.42 436.24 827.36 438.87C828.3 441.5 826.91 444.42 824.28 445.36L689.12 493.59C686.49 494.53 683.57 493.14 682.63 490.51Z" fill="white"/>
<path opacity="0.51" d="M682.63 508.92C681.69 506.29 683.08 503.37 685.71 502.43L820.87 454.2C823.5 453.26 826.42 454.65 827.36 457.28C828.3 459.91 826.91 462.83 824.28 463.77L689.12 512C686.49 512.94 683.57 511.56 682.63 508.92Z" fill="white"/>
<path d="M543.27 311.61C549.058 311.61 553.75 306.918 553.75 301.13C553.75 295.342 549.058 290.65 543.27 290.65C537.482 290.65 532.79 295.342 532.79 301.13C532.79 306.918 537.482 311.61 543.27 311.61Z" fill="#8BDEEC"/>
<path d="M644.06 157.23C649.848 157.23 654.54 152.538 654.54 146.75C654.54 140.962 649.848 136.27 644.06 136.27C638.272 136.27 633.58 140.962 633.58 146.75C633.58 152.538 638.272 157.23 644.06 157.23Z" fill="#8BDEEC"/>
<path d="M580.58 615.71C585.286 615.71 589.1 611.896 589.1 607.19C589.1 602.485 585.286 598.67 580.58 598.67C575.875 598.67 572.06 602.485 572.06 607.19C572.06 611.896 575.875 615.71 580.58 615.71Z" fill="#1A4A67"/>
<path d="M616.75 603.65C621.455 603.65 625.27 599.836 625.27 595.13C625.27 590.425 621.455 586.61 616.75 586.61C612.045 586.61 608.23 590.425 608.23 595.13C608.23 599.836 612.045 603.65 616.75 603.65Z" fill="#1A4A67"/>
<path d="M649.49 592.94C654.196 592.94 658.01 589.126 658.01 584.42C658.01 579.715 654.196 575.9 649.49 575.9C644.785 575.9 640.97 579.715 640.97 584.42C640.97 589.126 644.785 592.94 649.49 592.94Z" fill="#1A4A67"/>
<path d="M764.85 597.99C769.556 597.99 773.37 594.176 773.37 589.47C773.37 584.765 769.556 580.95 764.85 580.95C760.145 580.95 756.33 584.765 756.33 589.47C756.33 594.176 760.145 597.99 764.85 597.99Z" fill="white"/>
<path d="M801.02 585.92C805.725 585.92 809.54 582.106 809.54 577.4C809.54 572.695 805.725 568.88 801.02 568.88C796.315 568.88 792.5 572.695 792.5 577.4C792.5 582.106 796.315 585.92 801.02 585.92Z" fill="white"/>
<path d="M833.75 575.22C838.455 575.22 842.27 571.406 842.27 566.7C842.27 561.995 838.455 558.18 833.75 558.18C829.045 558.18 825.23 561.995 825.23 566.7C825.23 571.406 829.045 575.22 833.75 575.22Z" fill="white"/>
<path d="M763.77 150.46C768.475 150.46 772.29 146.646 772.29 141.94C772.29 137.235 768.475 133.42 763.77 133.42C759.065 133.42 755.25 137.235 755.25 141.94C755.25 146.646 759.065 150.46 763.77 150.46Z" fill="white"/>
<path d="M796.51 139.76C801.216 139.76 805.03 135.946 805.03 131.24C805.03 126.535 801.216 122.72 796.51 122.72C791.805 122.72 787.99 126.535 787.99 131.24C787.99 135.946 791.805 139.76 796.51 139.76Z" fill="white"/>
<path d="M614.44 211.07C615.7 210.29 617.02 209.59 618.36 208.97C636.21 200.78 657.4 208.64 665.59 226.49C673.78 244.34 665.92 265.52 648.07 273.71L644.51 265.95C658.08 259.72 664.05 243.62 657.83 230.05C651.6 216.48 635.5 210.51 621.93 216.73C620.91 217.2 619.9 217.74 618.94 218.33L614.44 211.07Z" fill="#E6E7E8"/>
<path d="M635.75 274.66L651.52 276.14L644.92 261.75L635.75 274.66Z" fill="#E6E7E8"/>
<path d="M632.74 280.45C631.48 281.23 630.16 281.93 628.82 282.55C610.97 290.74 589.79 282.88 581.59 265.03C573.4 247.18 581.26 226 599.11 217.81L602.67 225.57C589.1 231.8 583.13 247.9 589.35 261.47C595.58 275.04 611.68 281.01 625.25 274.79C626.27 274.32 627.28 273.78 628.24 273.19L632.74 280.45Z" fill="#E6E7E8"/>
<path d="M611.42 216.85L595.66 215.37L602.26 229.77L611.42 216.85Z" fill="#E6E7E8"/>
<path opacity="0.36" d="M660.38 421.45C689.121 421.45 712.42 398.151 712.42 369.41C712.42 340.669 689.121 317.37 660.38 317.37C631.639 317.37 608.34 340.669 608.34 369.41C608.34 398.151 631.639 421.45 660.38 421.45Z" fill="#78DFE8"/>
<path opacity="0.36" d="M660.38 406.2C680.699 406.2 697.17 389.729 697.17 369.41C697.17 349.092 680.699 332.62 660.38 332.62C640.062 332.62 623.59 349.092 623.59 369.41C623.59 389.729 640.062 406.2 660.38 406.2Z" fill="#37C1D3"/>
<path d="M660.38 395.43C674.751 395.43 686.4 383.781 686.4 369.41C686.4 355.04 674.751 343.39 660.38 343.39C646.01 343.39 634.36 355.04 634.36 369.41C634.36 383.781 646.01 395.43 660.38 395.43Z" fill="#37C1D3"/>
<path d="M322.02 272.53L294.5 354.05L222.75 360.97C222.75 360.97 277.59 314.84 285.14 262.25C292.7 209.67 322.02 272.53 322.02 272.53Z" fill="white"/>
<path fill-rule="evenodd" clip-rule="evenodd" d="M220.94 358.83L214.04 364.64L296.59 356.69L325.04 272.38L324.56 271.36C321.85 265.55 307.79 236.67 294.93 238.57C288.59 239.5 284.47 247.12 282.36 261.86C275.054 312.734 221.534 358.324 220.941 358.829L220.94 358.83ZM295.76 244.12C295.92 244.09 296.09 244.08 296.26 244.08C302.55 244.08 313.05 260.29 318.99 272.71L292.42 351.43L230.95 357.36C245.85 343.28 281.79 305.41 287.93 262.65C290.23 246.63 294.17 244.36 295.76 244.12Z" fill="#1A4A67"/>
<path d="M427.12 119.33C427.12 119.33 436.02 141.96 406.27 195.44C376.52 248.92 340.54 291.64 324.22 283.37C279.11 260.51 271.77 222.08 263.29 188.49C252.89 147.3 317.37 71.8802 317.37 71.8802L361.19 61.9502L427.12 119.33Z" fill="white"/>
<path fill-rule="evenodd" clip-rule="evenodd" d="M322.95 285.88C324.71 286.77 326.61 287.2 328.64 287.2C349.18 287.2 382.68 243.64 408.72 196.79C438.77 142.77 430.11 119.26 429.73 118.29L429.48 117.65L361.96 58.8901L315.84 69.3401L315.23 70.0501C312.56 73.1801 249.93 147.07 260.56 189.18L261.91 194.59C269.97 226.97 279.11 263.66 322.95 285.88ZM266.02 187.81C256.61 150.57 312.49 82.1301 318.92 74.4201L360.43 65.0201L424.67 120.93C425.67 124.75 429.78 147.4 403.82 194.08C373.05 249.41 338.66 287.52 325.5 280.87C283.96 259.825 275.534 225.987 267.386 193.264L267.38 193.24L266.02 187.81Z" fill="#1A4A67"/>
<path d="M485.98 119.14C490.98 105.52 490.18 90.2301 480.23 75.5101C477.35 71.2501 473.16 67.8901 468.28 67.0301C464.61 66.3801 460.62 67.1401 457.24 65.5501C447.09 60.8101 450.19 44.7601 441.2 38.8201C434.49 34.3901 425.57 39.0901 417.56 38.7601C411.51 38.5101 406.08 35.3501 400.71 32.5601C385.59 24.7101 372.86 12.8501 356.95 6.2701C343.52 0.7201 328.61 -1.7599 314.17 1.4801C299.1 4.8601 286.09 15.1701 276.9 28.7101C271.41 36.8101 267.68 46.4901 267.53 56.3101C267.65 48.2401 251.87 52.5401 248.84 54.9001C236.99 64.1201 228.5 88.9301 229.3 103.72C229.93 115.43 233.26 126.58 233.54 138.36C234.15 164.13 231.38 207.03 269.54 207.73C268.53 194.61 267.62 181.24 270.39 168.22C275.34 145.03 285.65 114.38 307.07 101.2C352.3 73.3901 367.52 145.73 401.73 159.42C433.58 172.18 474.65 149.97 485.98 119.14Z" fill="#1A4A67"/>
<path d="M364.54 563.19C361.27 520.89 355.42 476.15 345.63 433.81C338.06 401.08 330.95 356.26 298.75 337.61C238.44 302.67 199.63 388.93 188.98 434.33C176.84 486.05 178.38 540.54 177.82 593.33C177.32 640.67 170.66 692.84 177.1 739.37C178.24 747.58 181.24 756 187.67 761.23C204.02 774.53 220.88 756.9 234.64 749.06C247.51 741.72 261.14 742.93 274.81 738C286.82 733.67 292.73 724.69 302.78 717.71C329.14 699.39 357.52 728.86 386.09 723.34C448.19 711.34 400.78 728.27 375.79 603.51C373.24 590.81 365.7 578.26 364.54 563.19Z" fill="#8BDEEC"/>
<path fill-rule="evenodd" clip-rule="evenodd" d="M185.9 763.42C190.73 767.35 195.58 768.89 200.36 768.89C210.114 768.89 219.508 762.488 227.605 756.97L227.62 756.96L227.787 756.846C230.695 754.868 233.44 753.002 236.05 751.51C243.18 747.45 250.58 746.15 258.42 744.78L258.498 744.766C264.114 743.781 269.927 742.76 275.78 740.65C283.965 737.705 289.53 732.698 294.911 727.856L294.94 727.83C297.88 725.18 300.92 722.44 304.4 720.02C318.369 710.311 333.199 715.21 348.908 720.399L348.91 720.4L348.935 720.408C361.127 724.436 373.729 728.598 386.64 726.1C390.32 725.39 393.62 724.78 396.55 724.24L396.597 724.231C411.482 721.478 417.062 720.446 419.01 716.19C420.76 712.38 418.42 708.34 413.75 700.3C405.37 685.88 389.79 659.05 378.56 602.96C377.47 597.54 375.58 592.33 373.58 586.82L373.549 586.735C370.819 579.211 367.998 571.438 367.35 562.96C363.67 515.38 357.28 471.71 348.37 433.17C347.75 430.503 347.137 427.75 346.512 424.938C346.432 424.577 346.351 424.214 346.27 423.85L346.267 423.835C339.217 392.148 330.445 352.717 300.16 335.17C283.58 325.56 267.31 324.08 251.85 330.76C215.43 346.48 193.47 402.85 186.24 433.68C175.65 478.83 175.4 526.26 175.16 572.13C175.12 579.21 175.08 586.27 175.01 593.3C174.851 608.099 174.071 623.726 173.316 638.849L173.3 639.16C171.61 672.84 169.87 707.66 174.31 739.76C175.77 750.26 179.77 758.44 185.9 763.42ZM254.08 335.93C259.66 333.52 265.37 332.32 271.19 332.32C279.71 332.32 288.45 334.9 297.37 340.05C325.513 356.356 333.986 394.452 340.795 425.068L340.8 425.09C341.51 428.3 342.21 431.43 342.91 434.46C351.76 472.73 358.1 516.12 361.76 563.42C362.48 572.7 365.44 580.87 368.31 588.77C370.24 594.07 372.06 599.09 373.06 604.09C384.48 661.09 400.36 688.45 408.9 703.15L408.95 703.236C411.654 707.909 414.437 712.717 413.91 713.87C413.17 715.48 405 716.99 395.53 718.74C392.58 719.28 389.28 719.9 385.58 720.61C374.128 722.825 362.258 718.909 350.764 715.118L350.68 715.09L350.655 715.082C334.333 709.694 317.462 704.126 301.2 715.43C297.468 718.017 294.33 720.838 291.297 723.565L291.18 723.67L291.172 723.677C285.965 728.365 281.036 732.801 273.88 735.38C268.53 737.311 263.014 738.281 257.688 739.218L257.45 739.26L257.394 739.27C249.441 740.667 241.221 742.111 233.27 746.64C230.41 748.27 227.51 750.24 224.45 752.33L224.449 752.331C212.879 760.22 200.9 768.39 189.46 759.07C183.14 753.93 180.76 745.32 179.89 739C175.523 707.439 177.248 672.911 178.917 639.51L178.92 639.45L178.938 639.094C179.692 623.925 180.471 608.263 180.63 593.37C180.697 587.49 180.729 581.588 180.761 575.672C180.767 574.505 180.773 573.338 180.78 572.17C181.02 526.61 181.27 479.5 191.72 434.98C198.23 407.22 219.64 350.8 254.08 335.93Z" fill="#1A4A67"/>
<path d="M519.89 469.95C543.48 454.74 552.62 420.6 574.44 402.3C583.33 394.85 593.87 390.43 604.32 386.34C619.24 380.49 634.31 375.1 649.49 370.18C648.54 377.94 642.56 383.69 636.35 387.12C630.14 390.55 623.27 392.5 617.49 396.8C614.94 398.69 612.6 401.11 611.28 404.22C608.31 411.21 611.19 419.61 609.94 427.24C607.59 441.55 592.91 447.39 581.66 454.39C558.43 468.84 543.42 497.31 519.21 509.51C519.21 509.51 337.53 660.36 315.13 656.19C292.73 652.02 261.82 446.27 261.82 446.27C261.82 446.27 240.5 340.23 296.51 391.03C352.52 441.83 318.04 610.58 345.72 593.16C373.4 575.74 519.89 469.95 519.89 469.95Z" fill="white"/>
<path fill-rule="evenodd" clip-rule="evenodd" d="M314.6 658.96C314.95 659.03 315.35 659.06 315.77 659.06C342.6 659.04 501.21 528.09 520.76 511.86C534 505.1 544.59 493.65 554.83 482.57L554.865 482.532C563.614 473.074 572.654 463.301 583.15 456.77C584.837 455.727 586.597 454.709 588.38 453.679L588.93 453.36L588.937 453.356C599.065 447.527 610.55 440.917 612.72 427.69C613.29 424.22 613.09 420.72 612.89 417.33C612.63 412.94 612.39 408.8 613.87 405.31C614.83 403.04 616.57 400.99 619.17 399.05C622.461 396.607 626.161 394.969 630.079 393.234L630.11 393.22L630.363 393.108C632.784 392.033 635.284 390.923 637.71 389.58C642.61 386.87 651.02 380.79 652.28 370.52L652.82 366.15L648.63 367.51C633.46 372.42 618.21 377.88 603.3 383.72C592.34 388.02 581.76 392.5 572.64 400.15C562.21 408.9 554.6 421.1 547.25 432.91L547.227 432.946C538.636 446.733 530.519 459.757 518.37 467.59L518.25 467.67C516.79 468.73 371.5 573.6 344.21 590.78C343.38 591.3 342.26 591.85 341.56 591.48C336.613 588.832 335.911 563.801 335.231 539.575L335.23 539.53C333.81 488.8 331.86 419.31 298.38 388.95C283.98 375.89 273.2 371.7 265.43 376.11C247.45 386.31 257.8 440.66 259.02 446.69C264.23 481.38 291.4 654.64 314.6 658.96ZM268.2 381C269.3 380.38 270.56 380.07 271.99 380.07C277.39 380.07 285.09 384.49 294.61 393.11C326.302 421.863 328.219 489.937 329.619 539.654L329.62 539.69C330.61 575.2 331.43 592.44 338.92 596.44C340.61 597.34 343.42 597.92 347.2 595.54C374.43 578.4 517.85 474.9 521.48 472.27C534.638 463.764 543.451 449.627 551.978 435.948L552.02 435.88L552.034 435.858C559.149 424.435 566.506 412.625 576.24 404.46C584.72 397.36 594.84 393.08 605.34 388.96C618.5 383.8 631.92 378.95 645.32 374.51C642.75 379.87 637.51 383.27 634.99 384.67C632.7 385.93 630.34 386.98 627.83 388.09C623.79 389.87 619.61 391.72 615.81 394.55C612.43 397.07 610.04 399.96 608.69 403.13C606.701 407.829 606.99 412.827 607.27 417.665L607.27 417.67C607.46 420.9 607.63 423.94 607.16 426.8C605.42 437.4 595.6 443.05 586.11 448.51L585.623 448.79C583.759 449.864 581.917 450.925 580.16 452.02C569.01 458.96 559.7 469.03 550.69 478.78L550.655 478.818C540.228 490.094 530.386 500.737 517.93 507.01L517.4 507.36C448.62 564.46 334.58 653.5 316.41 653.5C316.13 653.5 315.86 653.47 315.63 653.43C301.53 650.81 277.28 530.47 264.55 445.72C260.18 423.98 257.31 387.18 268.2 381Z" fill="#1A4A67"/>
<path d="M336.84 475.03C336.84 475.03 330.41 344.33 276.2 355.12C221.99 365.9 256.8 512.62 256.8 512.62L345.26 493.68L336.84 475.03Z" fill="#37C1D3"/>
<path fill-rule="evenodd" clip-rule="evenodd" d="M254.07 513.27L254.7 515.94L349.28 495.7L339.63 474.36C339.18 466.16 333.88 383.48 302.16 358.73C294.28 352.58 285.38 350.44 275.66 352.37C266.96 354.1 259.87 359.14 254.6 367.35C229.22 406.86 253.04 508.94 254.07 513.27ZM276.75 357.88C278.71 357.49 280.61 357.29 282.47 357.29C288.31 357.29 293.66 359.23 298.69 363.17C329.34 387.09 333.99 474.31 334.03 475.19L334.06 475.72L341.27 491.67L258.93 509.3C255.31 492.77 237.41 404.51 259.32 370.39C263.8 363.41 269.5 359.32 276.75 357.88Z" fill="#1A4A67"/>
<path d="M459.09 794.81H93.2101C76.9301 794.81 63.6101 781.49 63.6101 765.21V723.48C63.6101 707.2 76.9301 693.88 93.2101 693.88H459.09C475.37 693.88 488.69 707.2 488.69 723.48V765.21C488.68 781.49 475.36 794.81 459.09 794.81Z" fill="#E6E7E8"/>
<path d="M267.37 820.02H22.7002C11.8102 820.02 2.91016 811.11 2.91016 800.23V772.33C2.91016 761.44 11.8202 752.54 22.7002 752.54H267.37C278.26 752.54 287.16 761.45 287.16 772.33V800.23C287.16 811.11 278.25 820.02 267.37 820.02Z" fill="white"/>
<path fill-rule="evenodd" clip-rule="evenodd" d="M22.7001 822.83H267.37C279.83 822.83 289.97 812.69 289.97 800.23V772.33C289.97 759.87 279.83 749.73 267.37 749.73H22.7001C10.2401 749.73 0.100098 759.87 0.100098 772.33V800.23C0.100098 812.69 10.2401 822.83 22.7001 822.83ZM5.7201 772.32C5.7201 762.96 13.3401 755.34 22.7001 755.34H267.37C276.73 755.34 284.35 762.96 284.35 772.32V800.22C284.35 809.58 276.73 817.2 267.37 817.2H22.7001C13.3401 817.2 5.7201 809.58 5.7201 800.22V772.32Z" fill="#1A4A67"/>
<path d="M254.73 787.93L253.83 789.03C253.48 789.46 252.84 789.52 252.41 789.17L232 772.55C231.57 772.2 231.51 771.56 231.86 771.13L232.76 770.03C233.11 769.6 233.75 769.54 234.18 769.89L254.59 786.51C255.01 786.86 255.07 787.5 254.73 787.93Z" fill="#1A4A67"/>
<path d="M254.73 787.06L253.83 785.96C253.48 785.53 252.84 785.47 252.41 785.82L232 802.44C231.57 802.79 231.51 803.43 231.86 803.86L232.76 804.96C233.11 805.39 233.75 805.45 234.18 805.1L254.59 788.48C255.01 788.13 255.07 787.49 254.73 787.06Z" fill="#1A4A67"/>
<path d="M226.23 787.93L225.33 789.03C224.98 789.46 224.34 789.52 223.91 789.17L203.5 772.55C203.07 772.2 203.01 771.56 203.36 771.13L204.26 770.03C204.61 769.6 205.25 769.54 205.68 769.89L226.09 786.51C226.52 786.86 226.58 787.5 226.23 787.93Z" fill="#1A4A67"/>
<path d="M226.23 787.06L225.33 785.96C224.98 785.53 224.34 785.47 223.91 785.82L203.5 802.44C203.07 802.79 203.01 803.43 203.36 803.86L204.26 804.96C204.61 805.39 205.25 805.45 205.68 805.1L226.09 788.48C226.52 788.13 226.58 787.49 226.23 787.06Z" fill="#1A4A67"/>
<path d="M195.13 787.93L194.23 789.03C193.88 789.46 193.24 789.52 192.81 789.17L172.4 772.55C171.97 772.2 171.91 771.56 172.26 771.13L173.16 770.03C173.51 769.6 174.15 769.54 174.58 769.89L194.99 786.51C195.42 786.86 195.48 787.5 195.13 787.93Z" fill="#1A4A67"/>
<path d="M195.13 787.06L194.23 785.96C193.88 785.53 193.24 785.47 192.81 785.82L172.4 802.44C171.97 802.79 171.91 803.43 172.26 803.86L173.16 804.96C173.51 805.39 174.15 805.45 174.58 805.1L194.99 788.48C195.42 788.13 195.48 787.49 195.13 787.06Z" fill="#1A4A67"/>
</svg>
