<svg width="1238" height="929" viewBox="0 0 1238 929" fill="none" xmlns="http://www.w3.org/2000/svg">
<rect width="1238" height="929" fill="white"/>
<path d="M697.237 794.468C773.559 767.904 827.616 723.917 817.977 696.222C808.337 668.526 738.651 667.609 662.329 694.173C586.006 720.737 531.949 764.723 541.589 792.419C551.228 820.115 620.914 821.032 697.237 794.468Z" fill="#D7D7D8"/>
<path d="M712.88 751.158C770.452 731.121 812.534 701.693 806.874 685.43C801.213 669.167 749.954 672.228 692.382 692.266C634.81 712.304 592.728 741.731 598.388 757.994C604.048 774.257 655.308 771.196 712.88 751.158Z" fill="#BFBEBE"/>
<path d="M916 574.04C903.12 562.14 890.11 548.05 877.67 533.36C915.06 670.43 839.91 766.51 728.49 807.89C613.24 851.11 437.67 856.74 312.41 836.88C360.75 908.97 441.2 910.43 628.07 915C840.37 920.19 959.09 879.52 999.37 780.21C1039.65 680.91 973.14 626.83 916 574.04Z" fill="#8BDEEC"/>
<path fill-rule="evenodd" clip-rule="evenodd" d="M627.94 920.26C639.95 920.55 651.63 920.7 663.01 920.7C754.51 920.7 825.74 911.17 880.01 891.75C942.83 869.26 983.47 833.42 1004.24 782.2C1043.93 684.34 982.31 627.78 927.93 577.89C925.13 575.32 922.34 572.76 919.57 570.2C864.148 518.997 805.274 425.431 803.564 422.713L803.53 422.66L800.04 417.06L795.37 421.73C793.53 423.57 610.39 606.11 507 637.39C492.704 641.718 477.766 645.813 461.966 650.145L461.29 650.33C386.56 670.81 309.28 691.99 286.79 739.34C277.65 758.57 278.55 780.82 289.46 805.5C337.037 913.152 415.078 915.06 623.631 920.159L623.68 920.16L627.94 920.26ZM510.03 647.43C607.83 617.84 768.23 463.18 798.14 433.73C811.87 455 863.35 532.55 912.44 577.88C915.101 580.34 917.781 582.8 920.47 585.269L920.83 585.6L920.84 585.61C975.227 635.527 1031.46 687.136 994.51 778.24C974.92 826.54 936.31 860.43 876.46 881.86C816.7 903.26 735.49 912.38 628.2 909.76L623.94 909.66L623.909 909.659C414.493 904.54 343.938 902.815 299.05 801.25C289.3 779.19 288.39 760.41 296.26 743.84C316.69 700.84 394.99 679.38 464.06 660.45L465.015 660.188C480.772 655.865 495.69 651.772 510.03 647.43Z" fill="#1A4A67"/>
<path d="M1138.01 736.92C1153.27 691.14 1126.29 615.55 1154.21 566.8C1153.71 566.14 1153.16 565.54 1152.5 565.1C1146.12 560.87 1140.99 565.96 1139.89 573.27C1139.28 577.33 1138.99 581.87 1136 584.68C1131.51 588.9 1123.99 586.42 1119.31 582.41C1114.63 578.4 1110.82 572.98 1105 570.94C1103.25 570.33 1101.22 570.08 1099.61 570.99C1097.48 572.18 1096.79 574.92 1096.75 577.36C1096.62 585.88 1101.79 593.56 1103.31 601.94C1106 616.74 1096.68 621.66 1090.37 632.56C1083.83 643.85 1088.85 653.49 1086.22 665.42C1085.19 670.09 1082.24 674.62 1077.73 676.24C1066.97 680.11 1029.24 655.34 1038.53 688.53C1042.58 702.97 1056.03 717.4 1057.07 732.34C1058.01 745.92 1040.8 764.01 1055.04 775.51C1067.13 785.28 1084.14 779.01 1090.72 797.61C1091.89 800.91 1092.22 804.42 1091.98 807.9C1112.8 788.8 1129.23 766.18 1138.01 736.92Z" fill="#88E1EB"/>
<path d="M1212.86 703.55C1206.37 691.99 1216.83 680.97 1215.69 669.41C1214.03 652.54 1204.78 663.84 1193.83 657.5C1190.09 655.33 1188.85 650.3 1189.81 646.09C1191.82 637.25 1207.02 624.78 1197.56 615.45C1192.81 610.76 1184.53 613.45 1179.59 617.94C1173.55 623.42 1159.69 641.96 1154.62 625.41C1151.56 615.41 1154.07 604.69 1155.73 594.37C1156.68 588.48 1158.92 573.1 1154.2 566.8C1126.28 615.55 1153.26 691.14 1138 736.92C1129.22 766.18 1112.79 788.8 1091.96 807.9C1091.35 816.4 1086.85 824.7 1079.55 829.19C1106.19 816.35 1137.48 819.4 1166.69 823.97C1173.84 825.09 1183.47 824.83 1185.5 817.88C1187.19 812.1 1181.81 806.85 1180.1 801.08C1178.13 794.44 1181.82 786.62 1188.19 783.91C1193.81 781.53 1200.22 782.95 1206.31 782.64C1212.4 782.33 1219.5 778.73 1219.49 772.63C1219.48 764.53 1207.35 760.87 1206.67 752.8C1205.63 740.42 1225.35 740.81 1229.93 732.11C1237.4 717.94 1218.52 713.65 1212.86 703.55Z" fill="#37C1D3"/>
<path fill-rule="evenodd" clip-rule="evenodd" d="M1076.81 824.73L1081.83 833.92C1107.72 821.44 1138.79 824.91 1165.92 829.18C1179.15 831.25 1188.16 827.68 1190.58 819.38C1192.28 813.55 1189.6 808.55 1187.44 804.52L1187.44 804.52C1186.5 802.77 1185.61 801.11 1185.16 799.61C1183.94 795.51 1186.33 790.44 1190.27 788.77C1193.04 787.6 1196.59 787.73 1200.35 787.87L1200.58 787.878C1202.53 787.946 1204.54 788.016 1206.61 787.91C1215.42 787.45 1224.78 781.95 1224.77 772.65C1224.76 766.25 1220.32 762.07 1216.76 758.72L1216.73 758.692C1214.34 756.442 1212.09 754.322 1211.93 752.38C1211.68 749.39 1213.98 747.83 1221.04 744.66L1221.1 744.632C1226.15 742.359 1231.85 739.789 1234.6 734.57C1241.51 721.451 1231.65 713.661 1225.12 708.501L1225.12 708.5C1222.06 706.09 1218.9 703.59 1217.45 701C1214.85 696.37 1216.06 691.88 1218.26 684.94L1218.26 684.935C1219.78 680.126 1221.5 674.688 1220.93 668.91C1219.55 654.82 1212.14 654.01 1205.26 654.36L1205.22 654.362C1202.24 654.511 1199.4 654.653 1196.49 652.97C1195.11 652.17 1194.43 649.61 1194.96 647.26C1195.41 645.26 1197.29 642.25 1199.12 639.35C1203.72 632.03 1210.66 620.98 1201.28 611.72C1194.23 604.77 1183.04 607.75 1176.09 614.06C1175.1 614.958 1173.9 616.201 1172.56 617.582L1172.42 617.73C1170.2 620.03 1163.45 627.02 1161.19 626.94C1161.19 626.94 1161.19 626.939 1161.19 626.938C1161.14 626.896 1160.42 626.305 1159.67 623.87C1157.35 616.33 1158.77 608 1160.28 599.18C1160.36 598.69 1160.44 598.2 1160.53 597.712C1160.67 596.876 1160.81 596.043 1160.94 595.21C1163.99 576.22 1162.23 565.26 1155.41 560.74C1151.47 558.13 1147.2 557.62 1143.4 559.31C1138.9 561.31 1135.66 566.24 1134.72 572.51L1134.51 573.98L1134.51 573.999C1134.12 576.783 1133.72 579.653 1132.42 580.87C1130.49 582.68 1125.77 581.04 1122.73 578.44C1121.54 577.432 1120.42 576.314 1119.3 575.195C1119.2 575.094 1119.1 574.992 1119 574.89L1118.97 574.861C1115.68 571.568 1111.94 567.835 1106.75 566.01C1103.15 564.74 1099.79 564.89 1097.05 566.43C1093.6 568.36 1091.58 572.33 1091.51 577.3C1091.41 583.293 1093.38 588.571 1095.28 593.677L1095.3 593.72C1096.49 596.91 1097.61 599.92 1098.15 602.9C1099.67 611.26 1096.58 615.25 1091.9 621.28C1089.97 623.77 1087.78 626.6 1085.83 629.96C1081.14 638.05 1081.43 645.56 1081.69 652.19C1081.85 656.31 1082 660.21 1081.09 664.32C1080.33 667.73 1078.32 670.48 1075.95 671.33C1074.06 672 1067.35 670.17 1062.9 668.95C1052.52 666.11 1041.77 663.17 1035.5 669.48C1031.43 673.58 1030.76 680.28 1033.48 689.97C1035.36 696.71 1039.01 703.25 1042.54 709.57C1047.05 717.66 1051.31 725.31 1051.83 732.72C1052.1 736.504 1050.31 741.348 1048.4 746.483L1048.38 746.55L1048.38 746.555C1044.73 756.415 1039.73 769.912 1051.74 779.61C1057.29 784.09 1063.53 785.69 1069.04 787.1C1076.95 789.12 1082.66 790.59 1085.77 799.37C1088.95 808.35 1084.93 819.73 1076.81 824.73ZM1167.51 818.78C1154.01 816.67 1139.56 814.75 1125.05 814.75C1114.95 814.75 1104.83 815.68 1094.98 818.09C1097.76 811.01 1098.19 803 1095.65 795.82C1090.67 781.75 1080.12 779.05 1071.63 776.88C1066.73 775.63 1062.1 774.44 1058.32 771.39C1052.75 766.9 1054.01 761.46 1058.21 750.14L1058.22 750.125C1060.42 744.16 1062.71 737.985 1062.29 731.94C1061.62 722.216 1056.6 713.199 1051.74 704.481L1051.7 704.41C1048.33 698.36 1045.14 692.63 1043.58 687.09C1041.22 678.67 1042.86 676.9 1042.93 676.83C1044.88 674.85 1054.8 677.56 1060.12 679.02L1060.12 679.02C1067.83 681.13 1074.48 682.95 1079.49 681.15C1085.25 679.08 1089.79 673.48 1091.32 666.53C1092.51 661.127 1092.32 656.17 1092.15 651.796L1092.15 651.73L1092.15 651.631C1091.92 645.478 1091.74 640.601 1094.89 635.17C1096.47 632.43 1098.35 630 1100.17 627.66L1100.19 627.628C1105.41 620.888 1110.8 613.919 1108.45 600.98C1107.74 597.08 1106.4 593.49 1105.1 590.01L1105.09 589.983C1103.45 585.593 1101.91 581.452 1101.97 577.42C1101.98 576.54 1102.12 575.95 1102.24 575.63C1102.46 575.65 1102.8 575.72 1103.24 575.87C1106.2 576.91 1108.8 579.51 1111.55 582.27L1111.55 582.27C1112.96 583.68 1114.38 585.1 1115.88 586.38C1122.63 592.15 1132.93 594.72 1139.57 588.48C1143.56 584.733 1144.28 579.557 1144.86 575.398L1144.86 575.39L1145.05 574.03C1145.52 570.86 1146.85 569.2 1147.62 568.86C1148.18 568.61 1149.08 569.12 1149.57 569.45C1149.75 569.57 1153.9 572.58 1150.54 593.51L1149.89 597.39L1149.89 597.403C1148.25 607.029 1146.55 616.995 1149.59 626.92C1151.35 632.65 1154.37 636.07 1158.58 637.07C1166.47 638.95 1173.93 631.21 1179.93 624.98C1180.11 624.798 1180.28 624.619 1180.45 624.442C1181.44 623.416 1182.33 622.491 1183.1 621.8C1186.4 618.8 1191.71 617.03 1193.86 619.16C1196.74 622 1195.4 625.45 1190.19 633.74C1187.79 637.55 1185.53 641.16 1184.68 644.9C1183.1 651.85 1185.77 658.88 1191.18 662.02C1196.77 665.262 1201.94 665.002 1205.72 664.812L1205.75 664.81C1206.96 664.74 1208.78 664.65 1209.19 664.81C1209.2 664.82 1210.04 665.7 1210.45 669.91C1210.81 673.537 1209.56 677.501 1208.23 681.703L1208.22 681.75L1208.22 681.76C1205.92 689.038 1203.31 697.284 1208.27 706.11C1210.74 710.505 1214.72 713.653 1218.58 716.7L1218.59 716.71C1226.2 722.73 1227.86 724.79 1225.29 729.66C1224.22 731.697 1220.41 733.404 1216.74 735.051L1216.72 735.06L1216.69 735.074C1209.86 738.143 1200.53 742.337 1201.45 753.23C1201.95 759.18 1206.16 763.15 1209.54 766.33C1211.96 768.6 1214.25 770.75 1214.25 772.63C1214.26 775.07 1209.85 777.2 1206.05 777.39C1204.42 777.479 1202.67 777.413 1200.84 777.344L1200.73 777.34C1196.2 777.17 1191.08 776.98 1186.15 779.07C1177.31 782.82 1172.34 793.36 1175.08 802.56C1175.82 805.067 1177.05 807.357 1178.13 809.383L1178.16 809.44C1179.92 812.71 1180.94 814.81 1180.48 816.4C1179.64 819.3 1173.17 819.66 1167.51 818.78Z" fill="#1A4A67"/>
<rect x="1129.49" y="694.07" width="10.49" height="130.36" fill="#1A4A67"/>
<rect x="1130.65" y="770.419" width="54.2794" height="10.4899" transform="rotate(-50.942 1130.65 770.419)" fill="#1A4A67"/>
<rect x="1090.59" y="707.809" width="10.4899" height="53.2596" transform="rotate(-49.9164 1090.59 707.809)" fill="#1A4A67"/>
<path d="M1089.91 918.2C1090.74 921.06 1091.7 924.06 1093.7 925.9C1096.06 928.07 1099.27 928.11 1102.23 928.05C1119.33 927.69 1136.47 928.69 1153.58 928.6C1169.75 928.52 1183.11 929.71 1184.8 905.28C1184.92 903.58 1185.07 898.72 1185.31 892.1H1083.3C1085.27 900.94 1087.45 909.66 1089.91 918.2Z" fill="#1A4A67"/>
<path d="M1189.06 810.92C1189.03 810.92 1073.85 810.92 1073.85 810.92C1077.88 837.7 1081.61 865.41 1087.04 892.12H1179.84C1180.71 865.75 1182.82 810.92 1189.06 810.92Z" fill="white"/>
<path fill-rule="evenodd" clip-rule="evenodd" d="M1082.76 897.36H1184.92L1185.08 892.28C1187.1 830.99 1190.26 817.47 1191.97 814.87C1191.69 815.29 1190.62 816.16 1189.05 816.16V805.67H1078.79C1072.66 805.67 1068.6 805.67 1068.6 810.92L1068.66 811.7C1069.25 815.596 1069.83 819.51 1070.41 823.438C1070.57 824.571 1070.74 825.705 1070.91 826.84C1074.13 848.71 1077.46 871.32 1081.9 893.16L1082.76 897.36ZM1174.78 886.87H1091.35C1087.37 866.6 1084.28 845.63 1081.3 825.31L1081.3 825.303C1080.85 822.256 1080.4 819.208 1079.95 816.17H1180.57C1178.08 826.48 1176.19 846.82 1174.78 886.87Z" fill="#1A4A67"/>
<path d="M1035.98 597.38C1041.77 597.38 1046.46 592.688 1046.46 586.9C1046.46 581.112 1041.77 576.42 1035.98 576.42C1030.19 576.42 1025.5 581.112 1025.5 586.9C1025.5 592.688 1030.19 597.38 1035.98 597.38Z" fill="#8BDEEC"/>
<path d="M1074.59 532.33C1080.38 532.33 1085.07 527.638 1085.07 521.85C1085.07 516.062 1080.38 511.37 1074.59 511.37C1068.8 511.37 1064.11 516.062 1064.11 521.85C1064.11 527.638 1068.8 532.33 1074.59 532.33Z" fill="#8BDEEC"/>
<path d="M1226.93 576.69C1232.72 576.69 1237.41 571.998 1237.41 566.21C1237.41 560.422 1232.72 555.73 1226.93 555.73C1221.14 555.73 1216.45 560.422 1216.45 566.21C1216.45 571.998 1221.14 576.69 1226.93 576.69Z" fill="#8BDEEC"/>
<path fill-rule="evenodd" clip-rule="evenodd" d="M442.61 456.73L587.27 581.6L523.73 460.28L442.61 456.73ZM574.82 565.9L453.23 460.95L521.41 463.93L574.82 565.9Z" fill="#231F20"/>
<path d="M356.42 465.03L403.87 459.18L479.88 571.59L356.42 465.03Z" fill="white"/>
<path fill-rule="evenodd" clip-rule="evenodd" d="M344.04 461.27L506.34 601.36L406.42 453.58L344.04 461.27ZM453.42 541.82L368.81 468.79L401.33 464.78L453.42 541.82Z" fill="#1A4A67"/>
<path d="M619.02 482.72L360.04 465.22C353.04 465.76 346.97 461.05 346.48 454.68L294.29 314.66C293.8 308.3 299.07 302.7 306.06 302.16L565.04 319.66C572.04 319.12 578.11 323.83 578.6 330.2L630.79 470.22C631.29 476.58 626.02 482.18 619.02 482.72Z" fill="white"/>
<path fill-rule="evenodd" clip-rule="evenodd" d="M360.04 470.48L619.05 487.98L619.43 487.95C629.3 487.19 636.74 479.05 636.03 469.82L635.98 469.08L583.76 328.99C582.63 320.29 574.54 313.88 565.05 314.41L306.04 296.91L305.66 296.94C295.79 297.7 288.35 305.84 289.06 315.07L289.11 315.81L341.33 455.9C342.46 464.6 350.54 471.02 360.04 470.48ZM618.95 477.46L360.01 459.97L359.63 460C355.51 460.31 351.97 457.76 351.7 454.29L351.65 453.55L299.5 313.65C299.62 310.53 302.44 307.86 306.13 307.43L565.07 324.92L565.45 324.89C569.56 324.57 573.11 327.13 573.38 330.6L573.43 331.34L625.58 471.24C625.46 474.36 622.64 477.03 618.95 477.46Z" fill="#1A4A67"/>
<path d="M489.091 396.701C492.168 382.545 481.274 368.159 464.76 364.57C448.245 360.98 432.363 369.546 429.286 383.702C426.209 397.858 437.103 412.244 453.617 415.833C470.132 419.423 486.014 410.857 489.091 396.701Z" fill="#4FD7E1"/>
<path d="M628.07 478.24L657.45 485.13L663.97 521.5L701.95 538.43L741.17 578.43L670.69 548.32L600.93 484.09L628.07 478.24Z" fill="#D1D3D4"/>
<path fill-rule="evenodd" clip-rule="evenodd" d="M667.8 552.79L763.44 593.65L705 534.04L668.64 517.84L662.01 480.8L628.12 472.86L589.94 481.1L667.8 552.79ZM718.9 563.21L673.58 543.85L611.92 487.08L628.01 483.61L652.89 489.44L659.29 525.16L698.9 542.81L718.9 563.21Z" fill="#1A4A67"/>
<path d="M495.39 319.44C495.39 319.44 309.29 305.08 305.23 306.33C301.17 307.58 295.86 307.58 302.11 321.01C308.36 334.44 321.86 374.23 321.86 374.23L495.39 319.44Z" fill="#D8D8D8"/>
<path fill-rule="evenodd" clip-rule="evenodd" d="M869.55 248.34C870.83 249.18 872.14 249.54 873.49 249.54C877.32 249.54 881.39 246.61 885.63 243.54C887.37 242.28 889.18 240.98 890.8 240C894.617 237.7 899.81 235.263 904.839 232.902L904.97 232.84C909.9 230.53 914.99 228.14 919.17 225.72L1051.74 217.25C1055.02 217.41 1058.29 216.42 1060.87 214.42C1063.47 212.4 1065.12 209.6 1065.58 206.47L1098.88 117.13L1099.14 116.44L1099.19 115.71C1099.46 112.24 1098.26 108.9 1095.8 106.29C1093.48 103.82 1090.29 102.31 1086.81 102.04L1086.43 102.01L920.05 113.25C912.91 112.91 906.66 118.04 906.13 124.87C905.552 132.402 901.052 142.112 897.079 150.687L897.05 150.75L897.028 150.798C894.986 155.2 893.055 159.364 891.61 163.25C889.307 169.439 886.692 175.848 884.151 182.073L883.83 182.86L883.806 182.918C877.374 198.69 870.726 214.99 867.13 231.45C865.61 238.4 864.86 245.26 869.55 248.34ZM876.74 236.99C876.88 236.09 877.08 235 877.37 233.69C880.761 218.142 887.225 202.286 893.479 186.944L893.53 186.82L893.541 186.792C896.208 180.251 898.964 173.491 901.42 166.91C902.688 163.504 904.47 159.648 906.36 155.56L906.55 155.15C910.91 145.76 915.84 135.11 916.57 125.67C916.67 124.5 918.1 123.61 919.65 123.73L920.03 123.76L1086.29 112.53C1087.03 112.64 1087.7 112.98 1088.16 113.47C1088.37 113.69 1088.59 114.01 1088.69 114.4L1055.52 203.39L1055.26 204.08L1055.21 204.82C1055.16 205.44 1054.76 205.88 1054.43 206.13C1053.82 206.6 1052.97 206.83 1052.13 206.76L1051.76 206.73L915.95 215.41L914.85 216.08C910.96 218.45 905.65 220.94 900.51 223.35C895.2 225.84 889.71 228.42 885.38 231.03C883.446 232.196 881.522 233.579 879.653 234.923L879.49 235.04C878.67 235.63 877.69 236.33 876.74 236.99Z" fill="#E6E7E8"/>
<path d="M992.63 175.31L1046.68 172.96C1050.32 172.8 1053.16 169.7 1053 166.06C1052.84 162.42 1049.74 159.58 1046.1 159.74L992.05 162.09C988.41 162.25 985.57 165.35 985.73 168.99C985.89 172.62 988.99 175.46 992.63 175.31Z" fill="#E6E7E8"/>
<path d="M953.76 152.92L1051.68 148.67C1055.32 148.51 1058.16 145.41 1058 141.77C1057.84 138.13 1054.74 135.29 1051.1 135.45L953.18 139.7C949.54 139.86 946.7 142.96 946.86 146.6C947.02 150.23 950.12 153.08 953.76 152.92Z" fill="#E6E7E8"/>
<path fill-rule="evenodd" clip-rule="evenodd" d="M370.319 265.074C375.102 268.519 379.686 271.82 383.88 271.82C385.28 271.82 386.65 271.45 387.98 270.6C393 267.31 392.12 259.67 390.43 251.91C386.29 232.9 378.59 214.03 371.14 195.79L370.76 194.859C367.819 187.651 364.795 180.241 362.13 173.08C360.46 168.59 358.22 163.76 355.85 158.65L355.812 158.567C351.191 148.587 345.958 137.285 345.27 128.42C344.98 124.64 343.12 121.24 340.03 118.84C337.2 116.64 333.68 115.54 329.97 115.73L137.39 102.72L137.01 102.75C128.93 103.38 122.84 110.07 123.43 117.68L123.48 118.42L162.32 222.61C163.33 229.67 169.85 234.87 177.55 234.47L331.24 244.29C336.08 247.11 342.02 249.9 347.78 252.6L347.886 252.65C353.743 255.394 359.787 258.226 364.26 260.93C366.16 262.08 368.27 263.59 370.3 265.06L370.319 265.074ZM334.44 233.98L177.5 223.95L177.13 223.97C174.88 224.15 172.82 222.77 172.68 220.96L172.63 220.23L133.9 116.33C134.1 114.83 135.6 113.52 137.5 113.25L329.98 126.25L330.36 126.22C331.59 126.12 332.72 126.44 333.59 127.12C334.1 127.51 334.73 128.2 334.81 129.22C335.639 139.981 341.3 152.198 346.304 162.994L346.33 163.05L346.421 163.247C348.668 168.094 350.791 172.675 352.3 176.73C355.14 184.35 358.33 192.17 361.42 199.74L361.491 199.914C368.739 217.69 376.233 236.069 380.17 254.13C380.72 256.65 381.01 258.5 381.15 259.83C379.638 258.858 377.885 257.597 376.506 256.605L376.43 256.55L376.147 256.347C374.035 254.829 371.852 253.261 369.67 251.95C364.763 248.988 358.521 246.055 352.464 243.21L352.23 243.1L352.123 243.05C346.186 240.265 340.063 237.393 335.54 234.65L334.44 233.98Z" fill="#E6E7E8"/>
<path d="M245.95 186.73L183.39 184.01C179.18 183.83 175.89 180.23 176.07 176.02C176.25 171.81 179.85 168.52 184.06 168.7L246.62 171.42C250.83 171.6 254.12 175.2 253.94 179.41C253.75 183.62 250.16 186.91 245.95 186.73Z" fill="#E6E7E8"/>
<path d="M290.94 160.82L177.6 155.9C173.39 155.72 170.1 152.12 170.28 147.91C170.46 143.7 174.06 140.41 178.27 140.59L291.62 145.51C295.83 145.69 299.12 149.29 298.94 153.5C298.75 157.7 295.15 161 290.94 160.82Z" fill="#E6E7E8"/>
<g opacity="0.72">
<path fill-rule="evenodd" clip-rule="evenodd" d="M480.25 108.17C483.49 110.51 486.81 112.9 490.09 112.9C491.32 112.9 492.54 112.57 493.75 111.78C498.5 108.67 496.96 101.59 496.13 97.79C493.428 85.4261 488.459 73.2412 483.652 61.4533L483.61 61.35L483.406 60.8493C481.475 56.1189 479.559 51.4261 477.83 46.78C476.761 43.9019 475.351 40.8537 473.858 37.626L473.73 37.35L473.708 37.3019C470.793 31.0137 467.499 23.9063 467.08 18.53C466.63 12.75 461.45 8.40001 455.39 8.64001L331.36 0.26001L330.98 0.29001C328.06 0.52001 325.37 1.79001 323.41 3.87001C321.35 6.06001 320.3 8.99001 320.53 11.91L320.58 12.64L345.61 79.79C346.48 85.14 351.56 89.07 357.21 88.82L455.63 95.11C458.597 96.8178 462.111 98.471 465.545 100.087C465.71 100.165 465.875 100.242 466.04 100.32C469.79 102.07 473.66 103.89 476.48 105.59C477.699 106.333 478.978 107.254 480.218 108.146L480.25 108.17ZM458.84 84.81L357.2 78.31L356.83 78.34C356.28 78.37 356 78.15 355.97 78.12L355.92 77.39L331.17 10.97C331.27 10.9 331.4 10.83 331.57 10.79L455.4 19.16L455.78 19.13C456.31 19.1 456.61 19.32 456.64 19.35C457.2 26.62 460.93 34.67 464.22 41.77C465.68 44.91 467.05 47.87 468.01 50.45C469.771 55.2014 471.729 59.9997 473.703 64.8357L473.9 65.32C478.44 76.44 483.13 87.93 485.69 99.17C484.43 98.26 483.14 97.36 481.91 96.62C478.63 94.64 474.5 92.7 470.51 90.83C466.71 89.05 462.79 87.21 459.94 85.48L458.84 84.81Z" fill="#E6E7E8"/>
<path d="M401.28 56.2201L361 54.4801C358.29 54.3601 356.17 52.0501 356.29 49.3401C356.41 46.6301 358.72 44.5101 361.43 44.6301L401.71 46.3801C404.42 46.5001 406.54 48.8101 406.42 51.5201C406.31 54.2201 403.99 56.3401 401.28 56.2201Z" fill="#E6E7E8"/>
<path d="M430.25 39.54L357.27 36.37C354.56 36.25 352.44 33.94 352.56 31.23C352.68 28.52 354.99 26.4 357.7 26.52L430.68 29.69C433.39 29.81 435.51 32.12 435.39 34.83C435.28 37.54 432.96 39.66 430.25 39.54Z" fill="#E6E7E8"/>
</g>
<path d="M498.55 195.87L435.99 193.15C431.78 192.97 428.49 189.37 428.67 185.16C428.85 180.95 432.45 177.66 436.66 177.84L499.22 180.56C503.43 180.74 506.72 184.34 506.54 188.55C506.35 192.76 502.76 196.05 498.55 195.87Z" fill="#E6E7E8"/>
<path d="M504.79 226.44L442.23 223.72C438.02 223.54 434.73 219.94 434.91 215.73C435.09 211.52 438.69 208.23 442.9 208.41L505.46 211.13C509.67 211.31 512.96 214.91 512.78 219.12C512.6 223.33 509 226.63 504.79 226.44Z" fill="#E6E7E8"/>
<path d="M515.88 257.83L453.32 255.11C449.11 254.93 445.82 251.33 446 247.12C446.18 242.91 449.78 239.62 453.99 239.8L516.55 242.52C520.76 242.7 524.05 246.3 523.87 250.51C523.69 254.72 520.09 258.01 515.88 257.83Z" fill="#E6E7E8"/>
<path d="M724.6 50.01C724.6 50.01 736.94 77.43 717.66 94.31C698.38 111.19 672.17 97.83 646.73 113.29C621.29 128.75 624.03 147.07 635.7 187.86C649.58 236.38 664.74 234.93 678.37 238.44C692 241.96 696.07 279.93 697.61 297.51C699.15 315.09 701.46 327.04 652.89 350.95C604.32 374.86 630.82 411.43 635.69 458.83C641.08 511.26 578.87 541.5 568.08 554.16C557.29 566.82 531.84 568.93 517.96 542.21C504.08 515.49 574.61 495.82 568.45 452.93C562.28 410.04 524.62 381.18 577.82 338.99C631.02 296.8 620.51 263.06 602.78 228.61C585.05 194.16 576.57 180.8 591.21 136.5C605.85 92.2 590.44 105.56 609.71 70.4C629 35.25 699.16 -3.43003 724.6 50.01Z" fill="#1A4A67"/>
<path d="M799.84 551.64L797 542.6L792.47 566.16L799.84 551.64Z" fill="#8BDEEC"/>
<path d="M780.28 601.76L795.77 521.19L805.49 552.1L780.28 601.76Z" fill="#1A4A67"/>
<path d="M807.02 450.15C795.78 414.87 791.72 401.75 776.11 367.61C760.5 333.47 728.02 312.14 728.02 312.14L698.05 310.53L687.42 309.96C687.42 309.96 682.42 310.27 659.01 329.63C639.2 346.01 620.06 388.08 614.63 400.66C613.64 402.95 613.11 404.26 613.11 404.26L603.12 514.17L673.38 566L723.04 583.9L774.13 602.31L792.48 566.15L797.01 542.59L805.78 496.98L822.02 492.3C822.01 492.31 818.26 485.44 807.02 450.15Z" fill="#8BDEEC"/>
<path fill-rule="evenodd" clip-rule="evenodd" d="M670.88 570.68L776.7 608.82L797.48 567.89L810.31 501.16L829.61 495.55L826.64 489.86C826.48 489.56 822.75 482.26 812.02 448.58L811.23 446.1C800.64 412.84 796.25 399.07 780.88 365.45C764.82 330.33 732.28 308.67 730.9 307.77L729.72 306.99L687.41 304.71L687.11 304.73C681.57 305.07 666.96 316.26 655.68 325.59C634.97 342.7 615.34 385.78 609.82 398.58C608.8 400.94 608.25 402.29 608.25 402.29L607.96 403.01L597.63 516.64L670.88 570.68ZM771.55 595.8L675.88 561.32L608.62 511.69L618.27 405.51C618.51 404.92 618.91 403.97 619.45 402.72C624.74 390.47 643.46 349.28 662.36 333.66C679.82 319.23 686.43 315.91 688.07 315.23L726.27 317.29C731.99 321.34 758.13 340.9 771.34 369.79C786.45 402.83 790.48 415.47 801.24 449.26L802.03 451.74C808.51 472.08 812.53 483.11 814.84 488.91L801.23 492.83L787.46 564.43L771.55 595.8Z" fill="#1A4A67"/>
<path d="M778.29 496.17L776.7 491.73L747.38 409.99L725.04 532.72L775.8 563.81L783.79 530.95L778.29 496.17Z" fill="#37C1D3"/>
<path d="M640.56 104.45C640.56 104.45 610.38 126.71 622.39 176.71C634.4 226.71 671.75 269.41 686.82 266.4C728.49 258.08 743.1 228.63 757.55 203.36C775.27 172.37 740.09 96.7701 740.09 96.7701L706.86 78.8501L640.56 104.45Z" fill="white"/>
<path fill-rule="evenodd" clip-rule="evenodd" d="M705.87 76.26C683.91 85.51 662.05 94.79 640.56 104.45C633.79 109.47 628.49 116.44 624.66 124.08C620.78 131.72 618.49 140.19 617.71 148.77C616.99 157.33 617.22 166.1 619.02 174.53C620.49 183.02 622.93 191.24 625.82 199.32C631.8 215.39 639.84 230.71 650.2 244.57C655.46 251.45 661.18 258.03 668.21 263.73C671.77 266.53 675.58 269.22 680.77 270.84C682.12 271.2 683.55 271.47 685.16 271.51C685.94 271.52 686.806 271.415 687.618 271.317L687.68 271.31L689.34 270.95L695.79 269.44C704.31 267.01 712.6 263.38 720.09 258.46C727.6 253.56 734.22 247.4 739.87 240.64C745.56 233.88 750.17 226.48 754.49 219.13L760.76 208.11C760.96 207.737 761.154 207.396 761.349 207.054C761.661 206.507 761.975 205.955 762.32 205.26C762.493 204.898 762.673 204.537 762.854 204.177C763.226 203.435 763.597 202.694 763.9 201.94L765.14 198.55L766.05 195.13C768.09 185.99 767.76 177.01 766.72 168.36C765.62 159.7 763.77 151.27 761.49 143.02C756.93 126.48 750.72 110.71 743.48 95.2L742.93 94.03L741.87 93.49L708.19 76.4L706.98 75.79L705.87 76.26ZM706.603 81.8973C684.766 89.5477 662.845 97.1817 640.56 104.45C628.24 116.06 622.35 132.81 621.91 149.03C621.75 151.07 621.86 153.11 621.98 155.16C622.002 155.576 622.021 155.993 622.04 156.409C622.112 158.032 622.185 159.652 622.48 161.26L623.32 167.33L624.67 173.32C626.49 181.31 629.27 189.14 632.44 196.72C638.76 211.91 647.14 226.3 657.3 239.06C662.37 245.41 667.94 251.44 674.1 256.19C677.14 258.54 680.49 260.54 683.38 261.34C684.07 261.49 684.7 261.59 685.21 261.59C685.318 261.586 685.409 261.57 685.495 261.555C685.608 261.536 685.711 261.519 685.83 261.53L687.24 261.18L693.04 259.74C700.66 257.5 707.9 254.25 714.43 249.89C720.96 245.55 726.75 240.11 731.82 233.95C736.91 227.8 741.37 220.98 745.58 213.87L751.86 203.03C752.03 202.724 752.218 202.401 752.407 202.079C752.761 201.472 753.115 200.866 753.35 200.37C753.496 200.058 753.653 199.753 753.811 199.448C754.052 198.981 754.294 198.512 754.5 198.01L755.45 195.49L756.18 192.82C757.85 185.53 757.78 177.46 757.02 169.45C756.19 161.41 754.63 153.34 752.62 145.36C748.613 129.794 743.433 114.247 737.171 99.391L738.34 100.06L736.73 98.35C736.877 98.6967 737.024 99.0437 737.171 99.391L706.603 81.8973ZM706.603 81.8973C707.029 81.7482 707.454 81.5991 707.88 81.45L705.56 81.3L706.603 81.8973Z" fill="#1A4A67"/>
<path d="M700.7 82.3601C700.7 82.3601 721.67 89.3901 740.1 118.92C758.53 148.45 746.44 153.27 746.44 192.86C746.44 204.43 744.27 215.83 738 225.69C733.45 232.85 726.96 238.49 722.25 245.51C716.3 254.37 714.4 264.37 714.88 274.94C715.89 297.29 719.46 315.85 739.31 328.47C760.77 342.11 770.78 360.33 776.42 384.95C783.17 414.43 831.77 431.11 848.73 419.86C865.69 408.61 815.1 416.12 825.13 367.61C835.15 319.09 838.59 298.5 809.29 285.02C779.99 271.54 793.99 267.98 809.41 238.45C824.83 208.92 785.08 209.28 800.77 157.88C818.88 98.5501 802.47 32.4301 713.8 50.7101C625.13 68.9901 700.7 82.3601 700.7 82.3601Z" fill="#1A4A67"/>
<path d="M679.11 138.82C704.55 123.35 698.39 111.18 717.67 94.31C736.94 77.43 724.61 50.01 724.61 50.01C699.17 -3.43002 629.01 35.24 609.73 70.4C590.45 105.56 605.88 92.2 591.23 136.5C581.13 167.03 582.03 182.87 589.37 201.05L630.84 217.84C614.05 154.14 659.98 150.45 679.11 138.82Z" fill="#1A4A67"/>
<path d="M782.35 549.76C782.35 549.76 782.35 566.93 775.79 563.81C769.23 560.69 707.72 522.28 699.6 513.23C691.48 504.17 672.43 471.39 671.5 464.83C670.56 458.27 673.69 457.96 660.88 459.83C648.08 461.7 624.97 468.89 628.41 472.94C631.84 477 641.52 474.19 641.52 474.19C641.52 474.19 630.18 481.37 635.69 482.31C641.2 483.25 657.44 480.12 657.44 485.12C657.44 490.12 656.5 506.98 660.25 515.41C664 523.84 668.68 526.65 680.86 529.46C693.04 532.27 695.19 531.33 705.2 541.64C715.21 551.95 771.1 601.59 778.28 604.09C785.46 606.59 788.58 610.96 797.33 595.03C806.07 579.11 812.32 566.93 812.94 541.95C813.56 516.97 810.75 492.93 810.75 492.93L782.96 497.93C782.98 497.93 785.48 526.03 782.35 549.76Z" fill="white"/>
<path fill-rule="evenodd" clip-rule="evenodd" d="M779.01 610.01C781.62 611.09 783.99 611.77 786.25 611.77C791.49 611.77 796.14 608.13 801.95 597.59C811.65 579.93 817.58 567.39 818.21 542.11C818.84 517.05 816.11 493.35 815.99 492.35L815.34 486.81L777.34 493.64L777.76 498.42C777.79 498.69 780.18 526.21 777.16 549.1L777.11 549.78C777.11 552.68 776.69 556.03 776.13 558.07C763.75 551.13 710.33 517.33 703.52 509.74C695.06 500.3 677.51 469 676.71 464.1C676.575 463.101 676.552 462.286 676.532 461.621L676.53 461.54L676.529 461.527C676.479 459.787 676.404 457.165 674.11 455.23C671.463 453.002 668.815 453.389 660.965 454.536L660.94 454.54L660.14 454.66C659.81 454.71 626.92 460.09 623.27 469.73C622.41 472.01 622.84 474.48 624.42 476.35C625.72 477.88 627.35 478.88 629.11 479.5C628.75 480.79 628.94 481.74 629.07 482.38C629.27 483.38 630.29 486.72 634.83 487.49C637.128 487.881 640.116 487.756 643.596 487.61L643.83 487.6C646.11 487.5 649.91 487.34 652.18 487.55V487.66L652.179 487.715C652.039 495.259 651.779 509.22 655.48 517.55C660.3 528.39 667.13 531.68 679.7 534.58C681.5 534.99 683.09 535.33 684.52 535.63C692.38 537.29 694.01 537.64 701.45 545.3C709.25 553.33 767.46 605.88 776.57 609.05C777.44 609.36 778.25 609.69 779.01 610.01ZM660.47 479.9C657.94 477.49 654 476.94 649.29 476.94C648.907 476.94 648.52 476.945 648.13 476.95C647.735 476.955 647.337 476.96 646.94 476.96L666.22 464.71C666.246 464.943 666.279 465.183 666.313 465.43C666.319 465.47 666.324 465.51 666.33 465.55C667.49 473.69 687.36 507.38 695.72 516.71C704.65 526.67 766.71 565.27 773.56 568.53C776.24 569.81 779.13 569.7 781.48 568.21C786.7 564.91 787.58 555.59 787.61 550.09C789.98 531.76 789.14 511.33 788.57 502.23L806.13 499.07C806.91 507.55 808.16 524.54 807.73 541.8C807.14 565.17 801.66 576.29 792.76 592.49C787.471 602.118 786.63 601.77 783.052 600.291L783.05 600.29C782.11 599.9 781.12 599.49 780.12 599.15C773.52 596.3 720.68 550.01 708.99 537.97C699.79 528.5 696.08 527.33 686.7 525.35L686.54 525.316C685.202 525.035 683.723 524.725 682.06 524.34C670.38 521.64 667.81 519.44 665.07 513.27C662.302 507.056 662.559 493.625 662.669 487.866L662.67 487.85C662.673 487.665 662.677 487.485 662.68 487.31C662.696 486.444 662.71 485.702 662.71 485.12C662.71 483.14 661.91 481.28 660.47 479.9Z" fill="#1A4A67"/>
<path fill-rule="evenodd" clip-rule="evenodd" d="M442.61 456.73L587.27 581.6L523.73 460.28L442.61 456.73ZM574.82 565.9L453.23 460.95L521.41 463.93L574.82 565.9Z" fill="#231F20"/>
<path d="M356.42 465.03L403.87 459.18L479.88 571.59L356.42 465.03Z" fill="white"/>
<path fill-rule="evenodd" clip-rule="evenodd" d="M344.04 461.27L506.34 601.36L406.42 453.58L344.04 461.27ZM453.42 541.82L368.81 468.79L401.33 464.78L453.42 541.82Z" fill="#1A4A67"/>
<path d="M619.02 482.72L360.04 465.22C353.04 465.76 346.97 461.05 346.48 454.68L294.29 314.66C293.8 308.3 299.07 302.7 306.06 302.16L565.04 319.66C572.04 319.12 578.11 323.83 578.6 330.2L630.79 470.22C631.29 476.58 626.02 482.18 619.02 482.72Z" fill="white"/>
<path fill-rule="evenodd" clip-rule="evenodd" d="M360.04 470.48L619.05 487.98L619.43 487.95C629.3 487.19 636.74 479.05 636.03 469.82L635.98 469.08L583.76 328.99C582.63 320.29 574.54 313.88 565.05 314.41L306.04 296.91L305.66 296.94C295.79 297.7 288.35 305.84 289.06 315.07L289.11 315.81L341.33 455.9C342.46 464.6 350.54 471.02 360.04 470.48ZM618.95 477.46L360.01 459.97L359.63 460C355.51 460.31 351.97 457.76 351.7 454.29L351.65 453.55L299.5 313.65C299.62 310.53 302.44 307.86 306.13 307.43L565.07 324.92L565.45 324.89C569.56 324.57 573.11 327.13 573.38 330.6L573.43 331.34L625.58 471.24C625.46 474.36 622.64 477.03 618.95 477.46Z" fill="#1A4A67"/>
<path d="M489.091 396.701C492.168 382.545 481.274 368.159 464.76 364.57C448.245 360.98 432.363 369.546 429.286 383.702C426.209 397.858 437.103 412.244 453.617 415.833C470.132 419.423 486.014 410.857 489.091 396.701Z" fill="#4FD7E1"/>
<path d="M628.07 478.24L657.45 485.13L663.97 521.5L701.95 538.43L741.17 578.43L670.69 548.32L600.93 484.09L628.07 478.24Z" fill="#D1D3D4"/>
<path fill-rule="evenodd" clip-rule="evenodd" d="M667.8 552.79L763.44 593.65L705 534.04L668.64 517.84L662.01 480.8L628.12 472.86L589.94 481.1L667.8 552.79ZM718.9 563.21L673.58 543.85L611.92 487.08L628.01 483.61L652.89 489.44L659.29 525.16L698.9 542.81L718.9 563.21Z" fill="#1A4A67"/>
<path d="M495.39 319.44C495.39 319.44 309.29 305.08 305.23 306.33C301.17 307.58 295.86 307.58 302.11 321.01C308.36 334.44 321.86 374.23 321.86 374.23L495.39 319.44Z" fill="#D8D8D8"/>
<path fill-rule="evenodd" clip-rule="evenodd" d="M869.55 248.34C870.83 249.18 872.14 249.54 873.49 249.54C877.32 249.54 881.39 246.61 885.63 243.54C887.37 242.28 889.18 240.98 890.8 240C894.617 237.7 899.81 235.263 904.839 232.902L904.97 232.84C909.9 230.53 914.99 228.14 919.17 225.72L1051.74 217.25C1055.02 217.41 1058.29 216.42 1060.87 214.42C1063.47 212.4 1065.12 209.6 1065.58 206.47L1098.88 117.13L1099.14 116.44L1099.19 115.71C1099.46 112.24 1098.26 108.9 1095.8 106.29C1093.48 103.82 1090.29 102.31 1086.81 102.04L1086.43 102.01L920.05 113.25C912.91 112.91 906.66 118.04 906.13 124.87C905.552 132.402 901.052 142.112 897.079 150.687L897.05 150.75L897.028 150.798C894.986 155.2 893.055 159.364 891.61 163.25C889.307 169.439 886.692 175.848 884.151 182.073L883.83 182.86L883.806 182.918C877.374 198.69 870.726 214.99 867.13 231.45C865.61 238.4 864.86 245.26 869.55 248.34ZM876.74 236.99C876.88 236.09 877.08 235 877.37 233.69C880.761 218.142 887.225 202.286 893.479 186.944L893.53 186.82L893.541 186.792C896.208 180.251 898.964 173.491 901.42 166.91C902.688 163.504 904.47 159.648 906.36 155.56L906.55 155.15C910.91 145.76 915.84 135.11 916.57 125.67C916.67 124.5 918.1 123.61 919.65 123.73L920.03 123.76L1086.29 112.53C1087.03 112.64 1087.7 112.98 1088.16 113.47C1088.37 113.69 1088.59 114.01 1088.69 114.4L1055.52 203.39L1055.26 204.08L1055.21 204.82C1055.16 205.44 1054.76 205.88 1054.43 206.13C1053.82 206.6 1052.97 206.83 1052.13 206.76L1051.76 206.73L915.95 215.41L914.85 216.08C910.96 218.45 905.65 220.94 900.51 223.35C895.2 225.84 889.71 228.42 885.38 231.03C883.446 232.196 881.522 233.579 879.653 234.923L879.49 235.04C878.67 235.63 877.69 236.33 876.74 236.99Z" fill="#E6E7E8"/>
<path d="M992.63 175.31L1046.68 172.96C1050.32 172.8 1053.16 169.7 1053 166.06C1052.84 162.42 1049.74 159.58 1046.1 159.74L992.05 162.09C988.41 162.25 985.57 165.35 985.73 168.99C985.89 172.62 988.99 175.46 992.63 175.31Z" fill="#E6E7E8"/>
<path d="M953.76 152.92L1051.68 148.67C1055.32 148.51 1058.16 145.41 1058 141.77C1057.84 138.13 1054.74 135.29 1051.1 135.45L953.18 139.7C949.54 139.86 946.7 142.96 946.86 146.6C947.02 150.23 950.12 153.08 953.76 152.92Z" fill="#E6E7E8"/>
<path fill-rule="evenodd" clip-rule="evenodd" d="M370.319 265.074C375.102 268.519 379.686 271.82 383.88 271.82C385.28 271.82 386.65 271.45 387.98 270.6C393 267.31 392.12 259.67 390.43 251.91C386.29 232.9 378.59 214.03 371.14 195.79L370.76 194.859C367.819 187.651 364.795 180.241 362.13 173.08C360.46 168.59 358.22 163.76 355.85 158.65L355.812 158.567C351.191 148.587 345.958 137.285 345.27 128.42C344.98 124.64 343.12 121.24 340.03 118.84C337.2 116.64 333.68 115.54 329.97 115.73L137.39 102.72L137.01 102.75C128.93 103.38 122.84 110.07 123.43 117.68L123.48 118.42L162.32 222.61C163.33 229.67 169.85 234.87 177.55 234.47L331.24 244.29C336.08 247.11 342.02 249.9 347.78 252.6L347.886 252.65C353.743 255.394 359.787 258.226 364.26 260.93C366.16 262.08 368.27 263.59 370.3 265.06L370.319 265.074ZM334.44 233.98L177.5 223.95L177.13 223.97C174.88 224.15 172.82 222.77 172.68 220.96L172.63 220.23L133.9 116.33C134.1 114.83 135.6 113.52 137.5 113.25L329.98 126.25L330.36 126.22C331.59 126.12 332.72 126.44 333.59 127.12C334.1 127.51 334.73 128.2 334.81 129.22C335.639 139.981 341.3 152.198 346.304 162.994L346.33 163.05L346.421 163.247C348.668 168.094 350.791 172.675 352.3 176.73C355.14 184.35 358.33 192.17 361.42 199.74L361.491 199.914C368.739 217.69 376.233 236.069 380.17 254.13C380.72 256.65 381.01 258.5 381.15 259.83C379.638 258.858 377.885 257.597 376.506 256.605L376.43 256.55L376.147 256.347C374.035 254.829 371.852 253.261 369.67 251.95C364.763 248.988 358.521 246.055 352.464 243.21L352.23 243.1L352.123 243.05C346.186 240.265 340.063 237.393 335.54 234.65L334.44 233.98Z" fill="#E6E7E8"/>
<path d="M245.95 186.73L183.39 184.01C179.18 183.83 175.89 180.23 176.07 176.02C176.25 171.81 179.85 168.52 184.06 168.7L246.62 171.42C250.83 171.6 254.12 175.2 253.94 179.41C253.75 183.62 250.16 186.91 245.95 186.73Z" fill="#E6E7E8"/>
<path d="M290.94 160.82L177.6 155.9C173.39 155.72 170.1 152.12 170.28 147.91C170.46 143.7 174.06 140.41 178.27 140.59L291.62 145.51C295.83 145.69 299.12 149.29 298.94 153.5C298.75 157.7 295.15 161 290.94 160.82Z" fill="#E6E7E8"/>
<g opacity="0.72">
<path fill-rule="evenodd" clip-rule="evenodd" d="M480.25 108.17C483.49 110.51 486.81 112.9 490.09 112.9C491.32 112.9 492.54 112.57 493.75 111.78C498.5 108.67 496.96 101.59 496.13 97.79C493.428 85.4261 488.459 73.2412 483.652 61.4533L483.61 61.35L483.406 60.8493C481.475 56.1189 479.559 51.4261 477.83 46.78C476.761 43.9019 475.351 40.8537 473.858 37.626L473.73 37.35L473.708 37.3019C470.793 31.0137 467.499 23.9063 467.08 18.53C466.63 12.75 461.45 8.40001 455.39 8.64001L331.36 0.26001L330.98 0.29001C328.06 0.52001 325.37 1.79001 323.41 3.87001C321.35 6.06001 320.3 8.99001 320.53 11.91L320.58 12.64L345.61 79.79C346.48 85.14 351.56 89.07 357.21 88.82L455.63 95.11C458.597 96.8178 462.111 98.471 465.545 100.087C465.71 100.165 465.875 100.242 466.04 100.32C469.79 102.07 473.66 103.89 476.48 105.59C477.699 106.333 478.978 107.254 480.218 108.146L480.25 108.17ZM458.84 84.81L357.2 78.31L356.83 78.34C356.28 78.37 356 78.15 355.97 78.12L355.92 77.39L331.17 10.97C331.27 10.9 331.4 10.83 331.57 10.79L455.4 19.16L455.78 19.13C456.31 19.1 456.61 19.32 456.64 19.35C457.2 26.62 460.93 34.67 464.22 41.77C465.68 44.91 467.05 47.87 468.01 50.45C469.771 55.2014 471.729 59.9997 473.703 64.8357L473.9 65.32C478.44 76.44 483.13 87.93 485.69 99.17C484.43 98.26 483.14 97.36 481.91 96.62C478.63 94.64 474.5 92.7 470.51 90.83C466.71 89.05 462.79 87.21 459.94 85.48L458.84 84.81Z" fill="#E6E7E8"/>
<path d="M401.28 56.2201L361 54.4801C358.29 54.3601 356.17 52.0501 356.29 49.3401C356.41 46.6301 358.72 44.5101 361.43 44.6301L401.71 46.3801C404.42 46.5001 406.54 48.8101 406.42 51.5201C406.31 54.2201 403.99 56.3401 401.28 56.2201Z" fill="#E6E7E8"/>
<path d="M430.25 39.54L357.27 36.37C354.56 36.25 352.44 33.94 352.56 31.23C352.68 28.52 354.99 26.4 357.7 26.52L430.68 29.69C433.39 29.81 435.51 32.12 435.39 34.83C435.28 37.54 432.96 39.66 430.25 39.54Z" fill="#E6E7E8"/>
</g>
<path d="M498.55 195.87L435.99 193.15C431.78 192.97 428.49 189.37 428.67 185.16C428.85 180.95 432.45 177.66 436.66 177.84L499.22 180.56C503.43 180.74 506.72 184.34 506.54 188.55C506.35 192.76 502.76 196.05 498.55 195.87Z" fill="#E6E7E8"/>
<path d="M504.79 226.44L442.23 223.72C438.02 223.54 434.73 219.94 434.91 215.73C435.09 211.52 438.69 208.23 442.9 208.41L505.46 211.13C509.67 211.31 512.96 214.91 512.78 219.12C512.6 223.33 509 226.63 504.79 226.44Z" fill="#E6E7E8"/>
<path d="M515.88 257.83L453.32 255.11C449.11 254.93 445.82 251.33 446 247.12C446.18 242.91 449.78 239.62 453.99 239.8L516.55 242.52C520.76 242.7 524.05 246.3 523.87 250.51C523.69 254.72 520.09 258.01 515.88 257.83Z" fill="#E6E7E8"/>
<path d="M230.52 708.82L157.29 816.07L190.63 844.24L260.39 727.8C260.38 727.79 244.39 709.8 230.52 708.82Z" fill="white"/>
<path fill-rule="evenodd" clip-rule="evenodd" d="M150.28 817.01L191.95 852.22L266.85 727.17L264.3 724.29C262.51 722.29 246.44 704.67 230.88 703.57L227.88 703.36L150.28 817.01ZM189.3 836.25L164.29 815.12L232.97 714.54C240.43 716.52 248.97 723.72 253.83 728.53L189.3 836.25Z" fill="#1A4A67"/>
<path d="M8.96981 875.89C8.96981 875.89 37.1398 885.51 91.1198 889.51C145.1 893.52 205.35 895.52 216.3 887.51C227.25 879.5 234.29 811.39 216.3 811.39C198.31 811.39 191.31 837.43 159.58 814.19C132.4 794.28 110.68 831.82 63.3498 841.83C16.0198 851.84 -3.15019 855.86 8.96981 875.89Z" fill="#A7A9AC"/>
<path fill-rule="evenodd" clip-rule="evenodd" d="M90.73 894.74C122.53 897.1 148.62 898.28 168.92 898.28C196.54 898.28 213.45 896.1 219.39 891.73C230.82 883.37 235.94 837.21 229.83 818.52C226.3 807.74 219.83 806.13 216.29 806.13C208.761 806.13 202.923 809.71 197.763 812.873L197.72 812.9L197.713 812.904C188.287 818.692 180.836 823.267 162.66 809.95C143.9 796.22 127.39 805.78 108.28 816.87L108.266 816.878C95.4392 824.316 80.893 832.751 61.93 836.76C24.91 844.59 6.32999 848.53 1.33999 860.04C-0.930014 865.29 0.0999856 871.36 4.47999 878.6L5.46999 880.23L7.26999 880.85C8.44999 881.25 36.69 890.73 90.73 894.74ZM91.51 884.28C46.56 880.94 19.54 873.61 12.51 871.5C10.8 868.28 10.29 865.83 10.98 864.22C13.8065 857.688 34.8582 853.231 64.3213 846.993L64.43 846.97C84.73 842.67 100.72 833.4 113.56 825.95C133.06 814.63 143.83 809.16 156.48 818.42C180.352 835.904 193.032 828.115 203.22 821.856L203.23 821.85L203.233 821.848C207.792 819.049 211.731 816.63 216.31 816.63C217.69 816.63 219.05 819.29 219.87 821.79C225.91 840.28 218.37 879.49 213.21 883.27C207.18 887.68 172.06 890.26 91.51 884.28Z" fill="#1A4A67"/>
<path d="M686.34 592.85C679.87 580.68 644.85 587.54 602.88 571.93C560.9 556.32 533.79 523.53 486.1 485.75C438.41 447.97 441.67 454.52 421.09 452.96C400.51 451.4 375.03 506.98 360.65 536.34C330.38 598.16 292.07 653.4 234.84 689.34C217.45 700.26 140.83 741.8 128.03 759.2C101.07 795.82 233.62 796.13 268.28 800.36C302.59 804.54 321.83 785.05 335.71 754.25C351.55 719.12 368.88 684.74 386.19 650.36C394.85 633.16 403.55 615.97 412.04 598.68C415.7 591.23 423.62 564.19 432.45 560.82C459.61 550.48 495.46 633.27 503.08 651.87C518.43 689.34 574.62 733.06 615.45 737.43C656.28 741.8 686.99 714.64 700.38 674.98C713.78 635.32 686.34 592.85 686.34 592.85Z" fill="white"/>
<path fill-rule="evenodd" clip-rule="evenodd" d="M267.65 805.56C270.94 805.96 274.08 806.15 277.09 806.15C313.58 806.15 330.66 778.22 340.49 756.41C356.102 721.778 373.482 687.265 390.294 653.881L390.32 653.83L394.69 645.16L395.045 644.455C402.215 630.224 409.618 615.53 416.76 600.99C417.748 598.965 418.882 596.013 420.317 592.278L420.37 592.14L420.406 592.047C423.033 585.216 429.88 567.412 434.33 565.72C450.84 559.44 479.04 607 498.24 653.86C514.74 694.13 572.53 738.1 614.91 742.64C655.53 746.98 690.16 721.7 705.37 676.65C719.1 635.98 693.11 593.7 690.87 590.18C686.21 581.75 674.26 580.33 657.78 578.38L657.721 578.373C643.011 576.624 624.723 574.45 604.72 567.01C576.28 556.43 554.97 537.81 528 514.23L527.69 513.959C515.896 503.653 503.694 492.99 489.36 481.64C448.97 449.64 443.93 448.35 429.1 448.05C428.918 448.046 428.735 448.042 428.549 448.038C426.506 447.992 424.212 447.941 421.49 447.73C400.49 446.13 379.92 484.71 358.97 527.82L355.94 534.03C320.69 606.01 281.32 653.95 232.05 684.89C228.22 687.29 221.47 691.21 212.92 696.17C173.18 719.21 133.56 742.82 123.8 756.08C117.8 764.24 118.75 770.74 120.62 774.75C129.75 794.41 182.68 799.53 240.8 803.42L241.498 803.467C252.301 804.197 261.61 804.826 267.65 805.56ZM368.41 532.41C380.16 508.22 404.48 458.18 420.15 458.18C420.33 458.18 420.52 458.18 420.68 458.2C423.779 458.442 426.352 458.497 428.646 458.545L428.87 458.55C440.53 458.78 443.67 458.85 482.83 489.87C497.09 501.17 509.29 511.83 521.08 522.14C547.76 545.47 570.8 565.61 601.04 576.86C622.25 584.75 642.06 587.1 656.52 588.81L656.539 588.812C668.452 590.221 679.701 591.552 681.7 595.32L681.93 595.7L681.932 595.702C682.271 596.237 707.831 636.528 695.41 673.3C681.86 713.43 651.46 736.01 616.01 732.21C577.5 728.09 522.96 686.54 507.94 649.88C494.79 617.77 460.9 544.37 430.59 555.91C422.4 559.03 416.68 572.46 410.57 588.38C409.27 591.79 408.14 594.74 407.34 596.36C400.1 611.09 392.59 626.01 385.32 640.43L380.95 649.1C364.08 682.6 346.64 717.24 330.93 752.09C315.77 785.71 297.26 798.59 268.91 795.14C262.46 794.35 252.74 793.7 241.5 792.95C207.71 790.69 137.4 785.98 130.13 770.33L130.128 770.325C129.766 769.541 128.667 767.16 132.25 762.3C141.53 749.69 191.39 720.78 218.18 705.25L218.242 705.214C226.853 700.221 233.66 696.274 237.63 693.78C288.64 661.76 329.22 612.46 365.37 538.65L368.41 532.41Z" fill="#1A4A67"/>
<path d="M148.66 884.02C148.66 884.02 176.83 893.64 230.81 897.64C284.79 901.64 345.04 903.65 355.99 895.64C366.94 887.63 373.98 819.52 355.99 819.52C338 819.52 331 845.56 299.27 822.32C272.09 802.41 250.37 839.95 203.04 849.96C155.71 859.97 136.54 863.99 148.66 884.02Z" fill="#D1D3D4"/>
<path fill-rule="evenodd" clip-rule="evenodd" d="M230.42 902.87C262.22 905.23 288.31 906.41 308.61 906.41C336.23 906.41 353.14 904.23 359.08 899.86C370.5 891.5 375.62 845.35 369.52 826.66C366 815.87 359.52 814.26 355.98 814.26C348.451 814.26 342.613 817.84 337.453 821.003L337.41 821.03C327.99 826.83 320.54 831.4 302.36 818.08C283.6 804.34 267.09 813.91 247.98 825L247.966 825.008C235.139 832.446 220.593 840.881 201.64 844.89C164.62 852.72 146.03 856.66 141.04 868.17C138.76 873.42 139.79 879.49 144.17 886.73L145.16 888.36L146.96 888.98C148.14 889.38 176.38 898.86 230.42 902.87ZM231.2 892.41C186.26 889.08 159.23 881.74 152.2 879.63C150.48 876.41 149.97 873.96 150.69 872.35C153.517 865.818 174.568 861.361 204.031 855.123L204.14 855.1C224.43 850.8 240.42 841.53 253.26 834.08C272.76 822.77 283.53 817.28 296.18 826.55C320.052 844.034 332.732 836.245 342.92 829.986L342.93 829.98L342.937 829.975C347.484 827.177 351.413 824.76 356 824.76C357.38 824.76 358.74 827.42 359.56 829.92C365.6 848.41 358.06 887.62 352.9 891.4C346.87 895.81 311.75 898.39 231.2 892.41Z" fill="#1A4A67"/>
<path d="M370.2 716.95L296.97 824.2L330.31 852.37L400.07 735.93C400.07 735.92 384.08 717.93 370.2 716.95Z" fill="white"/>
<path fill-rule="evenodd" clip-rule="evenodd" d="M289.98 825.15L331.64 860.36L406.55 735.31L404 732.43C402.21 730.43 386.14 712.81 370.58 711.71L367.58 711.5L289.98 825.15ZM328.98 844.38L303.97 823.25L372.65 722.67C380.11 724.65 388.65 731.85 393.51 736.66L328.98 844.38Z" fill="#1A4A67"/>
<path d="M792.35 591.2C786.17 579.03 752.69 585.89 712.57 570.28C672.45 554.67 646.53 521.88 600.94 484.1C555.35 446.32 558.47 452.87 538.8 451.31C519.13 449.75 494.77 505.33 481.03 534.69C438.75 625 351.77 685.61 272.6 741.36C267.68 744.82 262.16 749.63 263.18 755.56C263.7 758.58 265.86 761.02 268.07 763.15C297.44 791.5 352.46 804.25 392 802.4C431.81 800.54 453.42 767.32 468.46 734.47C495.36 675.7 521.64 615.14 554.32 559.36C566.6 538.42 605.74 622.96 609.14 630.83C629.41 677.83 669.65 729.62 724.6 735.77C763.63 740.14 792.98 712.98 805.79 673.32C818.57 633.66 792.35 591.2 792.35 591.2Z" fill="white"/>
<path fill-rule="evenodd" clip-rule="evenodd" d="M264.42 766.92C292.83 794.35 344.69 807.82 384.52 807.82C387.15 807.82 389.73 807.76 392.23 807.64C436.14 805.59 458.58 768.63 473.21 736.65C477.08 728.2 480.94 719.71 484.8 711.21L484.876 711.042C507.563 661.114 531.021 609.487 558.83 562.01C558.988 561.744 559.121 561.561 559.207 561.444C559.272 561.353 559.31 561.302 559.31 561.28C567.43 561.43 592.15 604.73 604.31 632.9C614.38 656.24 652.77 733 724 740.98C762.96 745.35 796.2 720.04 810.76 674.93C823.86 634.35 799.04 592.13 796.91 588.62C792.425 580.129 780.953 578.703 765.128 576.736L765.08 576.73C751.04 574.99 733.56 572.82 714.46 565.39C687.345 554.846 667.003 536.241 641.263 512.699L641.22 512.66C629.85 502.26 618.1 491.52 604.28 480.06C565.58 447.99 560.74 446.7 546.45 446.4L546.213 446.394C544.192 446.346 541.923 446.292 539.2 446.08C518.95 444.47 499.21 483.09 479.16 526.26L476.27 532.46C435.034 620.562 348.466 681.519 272.081 735.305L272.06 735.32L269.58 737.07C265.94 739.63 256.29 746.42 258 756.44C258.77 760.96 261.68 764.27 264.42 766.92ZM488.695 530.647C499.931 506.465 523.137 456.52 537.88 456.52C538.05 456.52 538.21 456.52 538.39 456.53C541.349 456.772 543.822 456.826 546.017 456.875L546.24 456.88L546.245 456.88C557.281 457.12 560.245 457.184 597.59 488.13C611.22 499.42 622.88 510.08 634.15 520.39L634.164 520.402C659.678 543.737 681.715 563.892 710.67 575.16C730.983 583.063 749.928 585.416 763.775 587.135L763.81 587.14C775.6 588.6 785.8 589.87 787.68 593.57L787.89 593.95C788.14 594.36 812.68 634.89 800.79 671.71C787.85 711.78 758.89 734.33 725.18 730.56C673.04 724.72 633.53 674.14 613.95 628.75C613.62 627.98 580.63 552.09 559.9 550.81C557.53 550.67 553 551.23 549.79 556.71C521.69 604.692 498.107 656.602 475.295 706.814L475.27 706.87L475.002 707.46C471.232 715.762 467.47 724.045 463.69 732.29C450.3 761.56 430.01 795.39 391.76 797.17C353.4 798.96 299.86 786.55 271.72 759.38C270.2 757.92 268.61 756.21 268.35 754.68C267.95 752.36 270.4 749.33 275.62 745.65L278.11 743.9C355.57 689.36 443.36 627.54 485.78 536.91L488.68 530.68L488.695 530.647Z" fill="#1A4A67"/>
</svg>
