<?xml version="1.0" encoding="UTF-8"?>
<svg width="400px" height="388px" viewBox="0 0 400 388" version="1.1" xmlns="http://www.w3.org/2000/svg" xmlns:xlink="http://www.w3.org/1999/xlink">
    <!-- Generator: Sketch 63 (92445) - https://sketch.com -->
    <title>植树背景</title>
    <desc>Created with Sketch.</desc>
    <defs>
        <ellipse id="path-1" cx="162.162162" cy="165.991871" rx="162.162162" ry="163.513514"></ellipse>
    </defs>
    <g id="页面-1" stroke="none" stroke-width="1" fill="none" fill-rule="evenodd">
        <g id="iPhone-8" transform="translate(-109.000000, -62.000000)">
            <g id="场景" transform="translate(93.000000, 62.000000)">
                <g id="植树背景" transform="translate(16.000000, -0.000000)">
                    <g id="编组-22" transform="translate(0.000000, 5.405405)">
                        <mask id="mask-2" fill="white">
                            <use xlink:href="#path-1"></use>
                        </mask>
                        <use id="椭圆形" fill="#DCFFD0" xlink:href="#path-1"></use>
                        <g id="编组-21" mask="url(#mask-2)">
                            <g transform="translate(4.393550, 88.964844)" id="路径-314">
                                <polygon fill="#B1EEA1" points="309.003832 13.4528083 294.208158 159.369721 263.133315 182.576277 297.066517 11.5221178"></polygon>
                                <polygon fill="#8FE079" points="274.134203 25.3101246 236.198775 217.97007 207.766344 230.433119 253.892726 25.3101246"></polygon>
                                <polygon fill="#84D56E" points="115.665397 35.1773649 87.6197091 226.523674 63.307949 215.940488 103.449314 35.1773649"></polygon>
                                <polygon fill="#8FE079" points="97.5624546 48.1297877 77.2450685 222.228674 52.9228383 209.58087 85.346371 48.1297877"></polygon>
                                <polygon fill="#8FE079" points="80.9449687 41.5817673 46.4641739 200 18.7180659 174.101299 58.3136727 35.1773649"></polygon>
                                <polygon fill="#B2EFA0" points="241.582411 27.5601774 223.513496 227.449324 191.266648 236.962891 221.282039 25.3101246"></polygon>
                                <polygon fill="#B2EFA0" points="281.935797 7.71088471 273.169638 186.566987 244.330833 209.1269 269.535176 0"></polygon>
                                <polygon fill="#B2EFA0" points="49.8315173 30.5677259 18.2599955 163.245846 0 138.400794 32.8187821 18.9189189"></polygon>
                                <polygon fill="#B0F299" points="128.698155 51.3513514 108.181836 236.539951 80.9449687 223.179156 116.482072 51.3513514"></polygon>
                            </g>
                        </g>
                        <path d="M152.737691,111.937817 C152.737691,119.410999 152.737691,170.378484 152.737691,170.378484 C145.30997,160.468574 131.139452,147.745108 110.226138,132.208087 L100.704818,144.370249 C118.625047,168.20784 129.801528,189.099573 134.234263,207.045449 C129.806852,238.234955 123.46454,279.377102 115.207327,330.471889 L209.832023,337.760797 L230.511503,326.565616 L217.109672,189.326436 L226.490954,115.991871 L206.116083,76.3301006 C182.483684,81.2007773 164.690887,93.0700161 152.737691,111.937817 Z" id="路径-322" fill="#309142" mask="url(#mask-2)"></path>
                        <path d="M21.889222,78.8389464 C31.9772413,81.1079146 37.021251,87.5475084 37.021251,98.157728 C37.021251,114.073057 38.7907116,127.294922 45.0361745,127.294922 C49.1998164,127.294922 49.8871402,128.260927 47.0981457,130.192937 C45.8918936,132.23492 47.5335308,132.745416 52.0230571,131.724425 C58.7573466,130.192937 62.7563013,133.119985 62.7563013,133.119985 C62.7563013,133.119985 64.8621164,135.891311 68.0201848,130.192937 C70.6370756,134.546558 74.4639267,132.091295 77.6370459,128.266865 C77.6370459,133.119985 77.1174632,134.182987 81.8368973,134.182987 C75.0783955,139.041385 71.5316217,146.528584 77.6370459,149.09668 C83.7424702,151.664775 89.0089712,155.365815 93.8016965,150.874947 C96.9968467,147.881035 100.021638,146.922069 102.876071,147.998047 C105.554693,150.416579 108.499649,150.416579 111.710941,147.998047 C114.922233,145.579515 117.00798,145.945726 117.968183,149.09668 C120.479718,152.501012 124.504193,150.201471 130.04161,142.198057 C132.571468,139.741695 135.326434,138.985299 138.306509,139.928869 C140.958955,140.849125 142.285178,139.711782 142.285178,136.516839 C142.285178,133.321896 143.890824,133.321896 147.102116,136.516839 L150.145012,131.724425 C157.373363,134.193984 170.470469,123.853859 189.436329,100.704049 C193.198614,100.704049 195.26124,101.064761 195.624206,101.786186 C190.095514,108.480056 188.032889,113.188016 189.436329,115.910065 C186.062313,118.787611 181.623611,127.275787 184.472809,134.182987 C181.157688,135.738888 180.0978,138.410579 181.293146,142.198057 C182.596683,144.762634 185.311078,144.456908 189.436329,141.28088 C195.624206,136.516839 196.703289,136.365736 199.743568,138.147303 C201.77042,139.335014 205.197878,138.48624 210.02594,135.600982 C212.779161,135.209477 212.779161,136.058251 210.02594,138.147303 C205.896108,141.28088 204.483942,143.400285 206.377082,144.370249 C207.639175,145.016892 207.639175,146.592369 206.377082,149.09668 C207.412757,150.78279 209.648577,150.416579 213.084541,147.998047 C216.520506,145.579515 218.656641,145.579515 219.492947,147.998047 C223.302347,149.133851 226.303363,148.813169 228.495993,147.036001 C231.784939,144.370249 236.535784,138.147303 244.689437,138.147303 C250.125206,138.147303 252.63216,136.006343 252.210299,131.724425 L250.403538,82.5366871 L123.653491,14.0671189 L19.8390297,59.5003695 L21.889222,78.8389464 Z" id="路径-312" fill="#3CA958" mask="url(#mask-2)"></path>
                        <path d="M216.181752,84.9107897 C210.136095,87.6134924 207.500227,90.242733 208.274148,92.7985114 C209.077734,97.0425992 210.900854,99.1646432 213.743508,99.1646432 C216.033861,101.657077 215.333231,103.855662 211.64162,105.760399 C207.950008,107.665136 207.950008,109.273825 211.64162,110.586465 C207.151657,114.786564 206.029166,117.604519 208.274148,119.040329 C211.64162,121.194046 214.142139,119.029772 218.628829,117.504883 C220.463401,116.977671 223.010927,115.466639 223.010927,118.694573 C223.010927,120.84653 224.968851,120.615586 228.884699,118.001742 C230.596355,116.696139 231.820385,117.042335 232.556788,119.040329 C233.249456,120.795832 234.477411,120.010623 235.876162,120.010623 C239.431443,119.664868 244.209445,121.413772 240.75134,124.103278 C237.293236,126.792784 236.584535,134.91079 245.343823,134.91079 C251.183349,134.91079 256.480024,132.31784 261.23385,127.131942 C264.639131,122.53154 266.736802,121.521986 267.526865,124.103278 C268.182377,126.244968 261.23385,133.407675 265.356265,137.753378 C265.933443,137.526359 265.572909,144.370249 268.722429,144.370249 C271.96295,144.370249 272.651535,142.992261 273.397364,141.375897 C275.851967,136.056271 278.226159,140.676852 279.703685,139.986935 C287.74413,138.945708 282.045734,136.494405 290.462123,133.407675 C298.878513,130.320946 294.444005,120.045925 302.744568,115.991871 C308.47704,112.659681 315.316042,111.815038 315.316042,103.829709 C315.316042,84.8122537 304.22594,65.1415576 282.045734,44.8176204 C272.291955,47.2409001 265.835344,49.1262816 262.675899,50.4737648 C258.478474,52.2639399 256.33122,56.0130177 254.33051,56.7046294 C247.941048,58.9133595 245.833884,56.5162312 239.803789,59.1862859 C235.240535,63.3406356 229.642914,67.4558347 223.010927,71.5318834 C218.458144,73.4594947 215.690308,75.6651182 214.70742,78.1487542 C213.839328,80.4011494 214.330772,82.6551613 216.181752,84.9107897 Z" id="路径-313" fill="#7CCC61" mask="url(#mask-2)"></path>
                        <path d="M31.3529568,67.294394 C33.7506282,70.0023754 36.4990507,70.6793708 39.5982243,69.3253801 C42.6973978,67.9713894 45.4597805,66.6877815 47.8853725,65.4745566 C48.0773258,62.3680321 49.6042272,60.8147698 52.4660766,60.8147698 C55.3279261,60.8147698 58.2587042,60.0234023 61.258411,58.4406672 C67.5213243,57.7522347 69.9133244,58.5436022 68.4344113,60.8147698 C66.9554982,63.0859375 66.0236521,65.2458122 65.638873,67.294394 L61.258411,65.4745566 C58.3571188,69.6113105 54.6395052,71.6796875 50.1055705,71.6796875 C45.5716357,71.6796875 45.5716357,73.3376443 50.1055705,76.6535579 C54.7356615,76.4626443 57.0507071,77.4066547 57.0507071,79.4855891 C57.0507071,81.5645235 60.8452752,81.5645235 68.4344113,79.4855891 L73.1721682,79.4855891 L76.9977105,76.6535579 C87.1162679,78.2028611 93.1056476,77.3688239 94.9658498,74.1514464 C96.8260519,70.9340688 99.1155315,69.3253801 101.834288,69.3253801 L105.963466,65.4745566 C106.623087,62.3680321 108.533895,60.8147698 111.69589,60.8147698 C114.857885,60.8147698 118.658997,57.6484199 123.099226,51.31572 C127.757584,43.2630384 133.858646,39.8670643 141.402411,41.1277977 C148.946176,42.3885311 148.946176,44.7652731 141.402411,48.2580236 C135.929996,52.3666244 135.929996,55.0908819 141.402411,56.430796 C147.605993,56.430796 152.988975,52.0468222 155.221741,56.430796 C156.710252,59.3534452 159.732644,58.5831926 164.288918,54.120038 C168.694246,54.4548128 169.441119,56.7342325 166.529536,60.9582971 C159.00802,65.4745566 156.649612,73.8215266 159.405887,76.6535579 C161.243404,78.5415787 158.820429,80.1493877 152.136964,81.4769848 C143.028779,89.617645 145.451753,94.3148226 159.405887,95.5685177 C164.154987,95.5685177 169.728177,93.6453055 176.125457,89.7988809 C183.104705,85.9524564 186.594329,85.9524564 186.594329,89.7988809 C186.594329,93.6453055 189.243285,94.2220052 194.541197,91.5289802 C200.013611,87.343838 203.340947,87.343838 204.523205,91.5289802 C206.296592,97.8066934 211.67303,104.175465 220.90773,100.991079 C227.064196,98.8681553 229.397301,99.6801978 227.907046,103.427207 C238.598845,112.339439 247.147748,111.527397 253.553754,100.991079 C259.95976,90.4547614 263.88346,90.4547614 265.324855,100.991079 C269.841865,105.560663 274.010306,102.40663 277.830177,91.5289802 C279.506279,87.1608425 286.164005,77.67279 297.803356,63.0648226 L227.907046,-10.8108108 L65.638873,2.47835726 L31.3529568,67.294394 Z" id="路径-311" fill="#73BF5B" mask="url(#mask-2)"></path>
                    </g>
                    <path d="M102.702703,359.883666 C109.902975,331.943863 121.208086,317.416905 136.618038,316.30279 C152.02799,315.188676 166.088596,324.827657 178.799855,345.219735 C180.715377,339.936899 186.165318,336.330165 195.149679,334.399532 C202.635558,332.790904 212.508366,337.477582 222.518038,351.286806 C224.400204,353.88342 229.427677,360.04056 248.648649,362.009977 C244.350305,362.212891 232.303544,362.212891 212.508366,362.009977 L180.35169,359.883666 L102.702703,359.883666 Z" id="路径-323" fill="#7AC663"></path>
                    <path d="M113.513514,329.72973 C122.129536,335.817159 128.290895,339.602343 131.997591,341.085282 C142.211142,338.912118 152.788812,346.456362 155.148038,352.725206 C156.767155,357.502725 157.164085,359.738238 156.338829,359.431744 L113.513514,359.431744 L113.513514,329.72973 Z" id="路径-326" fill="#A5DF93"></path>
                    <path d="M195.400693,348.069039 C204.223036,344.994603 210.684679,341.402303 214.785621,337.292139 C225.316597,326.73748 225.665981,322.812252 227.895209,319.193096 C237.4672,303.652946 250.394228,299.891373 260.564469,311.299235 C264.729857,317.462589 267.771381,322.891332 269.689042,327.585465 C270.346481,329.000721 271.100468,329.013882 271.951003,327.624948 C272.801537,326.236013 275.380786,326.827689 279.688752,329.399976 C282.538112,323.306209 285.614835,320.258973 288.91892,320.258269 C293.875047,320.257213 299.419036,319.425082 307.543471,329.217469 C312.95976,335.745727 316.77481,338.235239 318.98862,336.686004 C330.577874,329.006075 341.840069,329.124597 352.775202,337.041571 C358.448421,341.148949 359.634979,343.063299 370.735528,348.273128 C381.836076,353.482958 408.363227,355.201372 395.002463,356.060922 C353.607243,358.724036 266.631811,355.200302 257.187212,354.969333 C248.649908,354.760553 260.873713,349.917605 257.288801,349.1493 C243.112579,348.901853 222.483209,348.541766 195.400693,348.069039 Z" id="路径-324" fill="#8CD575" transform="translate(297.039679, 330.861929) rotate(-1.000000) translate(-297.039679, -330.861929) "></path>
                    <path d="M32.4324324,334.091832 C42.3268574,328.449944 49.4151452,323.162533 53.6972956,318.229599 C64.7702829,305.473783 69.0280495,300.305824 81.9910486,296.13637 C99.1441093,290.619214 107.832116,299.909179 108.055067,324.006265 C112.661487,318.98882 118.717062,316.072392 126.221793,315.256981 C133.726523,314.44157 134.429904,321.067622 128.331934,335.135135 L32.4324324,334.091832 Z" id="路径-323" fill="#A5DF93"></path>
                    <path d="M75.6756757,335.135135 C89.0284266,321.462 102.621326,316.435516 116.454373,320.055684 C130.287421,323.675853 130.546307,328.702336 117.231034,335.135135 L75.6756757,335.135135 Z" id="路径-327" fill="#ACE899"></path>
                    <path d="M37.8378378,372.972973 C49.9464203,369.831006 58.0554979,364.933134 62.1650707,358.279357 C70.4246017,338.491168 85.933825,325.436866 105.375955,321.755491 C125.426864,320.291209 128.551716,330.839311 114.750509,353.399797 C119.727947,348.401839 126.198819,345.90286 134.163127,345.90286 C140.995716,345.90286 146.284087,352.034523 148.358396,362.749916 C148.358396,367.671703 161.06776,370.746744 186.486486,371.975039 C146.837605,371.975039 121.915624,371.975039 111.720544,371.975039 C95.0602896,371.975039 70.432721,372.307684 37.8378378,372.972973 Z" id="路径-323" fill="#73BF5B"></path>
                    <g id="编组-24" transform="translate(118.918919, 200.000000)">
                        <path d="M42.9781391,59.8673359 C49.8531677,92.2984249 53.6103451,113.436759 54.2496713,123.282337 C54.6547209,129.520072 52.6666974,155.092416 52.0733672,159.057378 C53.5242366,159.057378 54.7823306,158.156362 55.8476493,156.354331 L56.6836659,127.874605 C61.76575,116.929429 65.7769145,110.497699 68.7171594,108.579415 C66.7631546,107.752703 66.1402661,107.177798 66.8484939,106.8547 L56.6836659,125.408527 L52.0733672,97.6316734 C54.6938099,88.3109141 57.5307899,80.7727735 60.5843073,75.0172515 C60.7970361,74.3536207 60.0628616,72.8882971 59.8109754,73.4933569 C56.5463093,79.1814923 53.8195802,86.4595838 51.6307878,95.3276313 L44.8210709,59.8673359 L42.9781391,59.8673359 Z" id="路径-318" fill="#B5F777"></path>
                        <path d="M53.7750933,105.753533 C52.3999877,99.7663977 50.9265661,75.0728119 26.9374402,72.8765025 C22.1025761,73.5235915 19.0224451,74.961698 17.6970475,77.190822 C10.7841287,81.0925316 7.61403967,85.1339302 8.18678038,89.3150177 C13.7102971,88.335682 37.8148948,90.4811167 45.947417,108.579415 C51.6319345,118.180989 54.8037741,107.284514 53.7750933,105.753533 Z" id="路径-317" fill="#A9EA6D"></path>
                        <path d="M1.76786146,0 C-2.89737801,8.61616854 1.76786146,33.089231 14.6136174,48.3716882 C23.1774547,58.559993 33.6255737,64.4955842 45.9579744,66.1784619 C52.0408151,44.150982 49.0574606,26.93596 37.0079111,14.5333959 C24.5692175,0 10.7113264,0 1.76786146,0 Z" id="路径-315" fill="#A9EA6D"></path>
                        <path d="M66.3886081,23.2147735 C61.6910577,31.6991963 55.9701786,50.7931414 67.3861447,65.5797782 C76.1021683,75.663314 87.0175083,79.7782866 100.132165,77.9246959 C101.848047,66.0136872 98.4149563,55.2780975 89.832893,45.7179267 C77.1740994,31.3331751 72.3669242,26.624867 66.3886081,23.2147735 Z" id="路径-315" fill="#A9EA6D" transform="translate(80.641208, 50.785603) rotate(75.000000) translate(-80.641208, -50.785603) "></path>
                        <path d="M72.8358757,75.3181176 C69.6011595,81.991787 64.7925292,94.7361324 72.6659728,106.360183 C78.6768771,114.286716 85.2031647,116.978129 92.2448358,114.434425 C95.3070513,106.962368 94.3543058,99.5690865 89.3865994,92.2545792 C81.6465769,80.661423 79.1854198,77.0194728 72.8358757,75.3181176 Z" id="路径-315" fill="#A9EA6D" transform="translate(81.194673, 95.339759) rotate(75.000000) translate(-81.194673, -95.339759) "></path>
                        <path d="M51.1660878,85.57105 C58.5013039,92.0499729 60.1900532,100.64153 56.2323357,111.345721 C52.2746182,122.049912 45.5860449,130.62518 36.1666157,137.071525 C27.5310759,124.619301 26.5074448,112.922833 33.0957225,101.98212 C39.6840003,91.0414066 45.7074554,85.57105 51.1660878,85.57105 Z" id="路径-316" fill="#A9EA6D"></path>
                        <path d="M87.5727337,171.257237 C75.9743017,165.719293 67.7458136,163.228446 62.8872694,163.784696 C56.5244391,165.68606 44.2405792,172.547867 42.124305,166.921359 C40.0080309,161.294851 44.5251851,153.921934 57.9446381,152.110431 C71.4962725,151.451111 81.3723043,157.83338 87.5727337,171.257237 Z" id="路径-319" fill="#A9EA6D"></path>
                        <path d="M69.7038531,150.047006 C80.2142899,155.228081 84.8831694,161.187904 88.9503757,171.257237 C89.8709548,168.820445 89.2084139,161.19063 87.8833532,156.315506 C86.5582925,151.440381 80.7445493,141.096642 71.4823625,144.439168 C68.0880424,146.121796 68.0880424,148.751107 69.7038531,150.047006 Z" id="路径-320" fill="#73BF5B"></path>
                        <path d="M118.172998,150.041931 C106.890838,152.969496 96.5290525,160.897465 90.7808903,171.257237 C89.4423058,166.703178 90.9115004,161.384065 93.4376479,154.701038 C96.3453263,148.293076 108.477119,136.970766 118.172998,142.636563 C121.181582,145.136752 119.977032,148.914856 118.172998,150.041931 Z" id="路径-320" fill="#73BF5B"></path>
                        <path d="M89.4041943,170.29097 C92.4974823,167.923496 97.1406255,167.923496 103.333624,170.29097 C112.329563,174.332817 119.618209,180.008089 116.616262,186.616469 C112.407257,189.660343 106.104453,186.340788 97.7078502,176.657803 C94.9259604,174.057541 91.5475883,172.660637 87.5727337,172.467091 C87.5727337,171.818504 88.1832206,171.093131 89.4041943,170.29097 Z" id="路径-321" fill="#73BF5B"></path>
                    </g>
                    <ellipse id="椭圆形" fill="#8CD575" cx="271.621622" cy="32.4324324" rx="17.5675676" ry="18.9189189"></ellipse>
                    <circle id="椭圆形" fill="#8CD575" cx="355.405405" cy="239.189189" r="14.8648649"></circle>
                    <circle id="椭圆形" fill="#8CD575" cx="51.3513514" cy="10.8108108" r="10.8108108"></circle>
                    <ellipse id="椭圆形" fill="#8CD575" cx="101.351351" cy="16.2162162" rx="6.75675676" ry="8.10810811"></ellipse>
                    <path d="M100.188708,341.878338 C96.8792916,344.941179 91.33145,349.142921 97.1029781,351.083606 C100.950664,352.377395 104.61904,348.982338 108.108108,340.898435 C104.290607,340.198541 101.650807,340.525175 100.188708,341.878338 Z" id="路径-325" fill="#589F41"></path>
                    <path d="M81.2517046,351.945715 C79.2695286,353.492823 75.2001714,354.835392 78.9208076,356.16736 C81.4012317,357.055339 83.5984074,355.340422 85.5123344,351.02261 C84.3541878,350.622944 82.9339778,350.930646 81.2517046,351.945715 Z" id="路径-325" fill="#5BAD40" transform="translate(81.460271, 353.623905) rotate(-16.000000) translate(-81.460271, -353.623905) "></path>
                    <path d="M124.946747,362.744066 C122.964069,364.29135 119.641931,366.416036 123.087298,367.380395 C125.384209,368.023301 127.58194,366.308189 129.680492,362.235058 C128.042493,361.436664 126.464578,361.606333 124.946747,362.744066 Z" id="路径-325" fill="#5BAD40" transform="translate(125.636506, 364.626535) rotate(-17.000000) translate(-125.636506, -364.626535) "></path>
                </g>
            </g>
        </g>
    </g>
</svg>