<svg width="1102" height="951" viewBox="0 0 1102 951" fill="none" xmlns="http://www.w3.org/2000/svg">
<rect width="1102" height="951" fill="white"/>
<path d="M672.09 940.92H544.17C519.44 940.92 499.21 920.69 499.21 895.96V667.06C499.21 642.33 519.44 622.1 544.17 622.1H672.08C696.81 622.1 717.04 642.33 717.04 667.06V895.96C717.05 920.69 696.82 940.92 672.09 940.92Z" fill="#8BDEEC"/>
<path d="M902.69 940.92H774.78C750.05 940.92 729.82 920.69 729.82 895.96V485.66C729.82 460.93 750.05 440.7 774.78 440.7H902.69C927.42 440.7 947.65 460.93 947.65 485.66V895.96C947.66 920.69 927.42 940.92 902.69 940.92Z" fill="#37C1D3"/>
<path d="M431.33 939.03H303.41C278.68 939.03 258.45 918.8 258.45 894.07V755.03C258.45 730.3 278.68 710.07 303.41 710.07H431.32C456.05 710.07 476.28 730.3 476.28 755.03V894.06C476.29 918.8 456.06 939.03 431.33 939.03Z" fill="#E6E7E8"/>
<path d="M253.76 876.44C249.25 873.9 242.57 875.3 240.42 880.01C234.42 868.88 237.43 855.34 238.92 842.79C239.45 838.29 239.72 833.52 237.77 829.43C235.81 825.34 230.9 822.33 226.68 823.99C218.05 827.38 220.81 844.55 211.6 845.59C206.37 846.18 202.99 840.5 200.06 836.13C196.03 830.12 190.35 825.24 183.8 822.16C181.49 821.08 178.4 820.35 176.68 822.24C175.08 823.99 175.81 826.76 176.68 828.96C179.64 836.43 183.23 843.65 187.39 850.51C187.97 851.47 188.59 852.55 188.35 853.65C187.81 856.15 184.14 855.78 181.78 854.8C173.26 851.25 164.74 847.71 156.22 844.16C153.8 846.41 154.79 850.56 156.88 853.11C158.97 855.66 161.92 857.49 163.65 860.3C166.25 864.54 165.49 869.94 166.06 874.88C166.63 879.83 170.07 885.48 175.01 884.84C170.97 886.7 170.83 892.86 173.58 896.36C176.33 899.86 180.78 901.45 184.91 903.13C189.03 904.82 193.37 907.08 195.15 911.16C196.67 914.63 195.98 918.65 196.73 922.36C200.84 942.69 229.45 950.6 241.31 934.43C249.59 923.18 271.56 886.48 253.76 876.44Z" fill="#37C1D3"/>
<path fill-rule="evenodd" clip-rule="evenodd" d="M216.91 945.18C219.1 945.66 221.28 945.9 223.4 945.9C231.57 945.9 238.97 942.41 243.59 936.1C243.83 935.78 266.99 903.93 262.84 884.67C261.81 879.89 259.22 876.3 255.14 873.99C252.06 872.25 248.13 871.89 244.63 873.03C243.37 873.45 242.22 874.03 241.22 874.76C238.58 866.76 239.82 857.46 241.03 848.42C241.27 846.64 241.5 844.87 241.71 843.12C242.29 838.15 242.53 832.9 240.3 828.22C237.86 823.13 231.56 819.07 225.65 821.38C220.26 823.49 218.45 829.2 216.86 834.24C215.25 839.35 214.12 842.49 211.28 842.81C208.14 843.15 205.37 839.07 202.97 835.45L202.39 834.58C198.05 828.11 192.04 822.94 184.99 819.63C180.65 817.59 176.87 817.85 174.59 820.35C171.552 823.688 173.438 828.435 174.059 829.998L174.06 830C177.07 837.6 180.75 845 184.98 851.97C185.08 852.14 185.28 852.48 185.43 852.74C184.88 852.76 183.86 852.63 182.85 852.21L155.62 840.87L154.3 842.1C150.73 845.42 151.7 851.21 154.71 854.89C155.71 856.11 156.83 857.14 157.91 858.13C159.23 859.33 160.46 860.47 161.26 861.77C162.738 864.176 162.86 867.33 162.989 870.684L162.99 870.7L162.99 870.7C163.05 872.21 163.11 873.72 163.28 875.2C163.77 879.45 165.85 883.48 168.72 885.71C169.07 885.98 169.42 886.22 169.79 886.44C169.55 886.97 169.36 887.53 169.22 888.13C168.42 891.48 169.27 895.38 171.39 898.08C174.38 901.88 178.87 903.7 182.84 905.3L183.86 905.72C187.39 907.17 191.19 909.08 192.59 912.28C193.305 913.909 193.399 915.884 193.498 917.978L193.5 918.02C193.504 918.091 193.507 918.162 193.511 918.233C193.587 919.756 193.665 921.324 193.99 922.92C196.2 933.86 205.2 942.6 216.91 945.18ZM176.2 887.4L193.02 879.65L174.7 882.03C173.82 882.15 173.02 881.9 172.22 881.27C170.55 879.97 169.21 877.26 168.9 874.54C168.74 873.21 168.69 871.84 168.64 870.47L168.639 870.442C168.489 866.521 168.335 862.471 166.09 858.81C164.88 856.84 163.29 855.38 161.75 853.97C160.77 853.07 159.85 852.22 159.1 851.31C158.26 850.29 157.69 848.89 157.65 847.76L180.74 857.37C182.97 858.3 186.18 858.86 188.55 857.62C189.9 856.92 190.82 855.71 191.14 854.23C191.619 852.004 190.504 850.157 189.834 849.046L189.83 849.04C185.75 842.34 182.22 835.23 179.32 827.91C178.17 825 178.67 824.24 178.78 824.12C179.16 823.7 180.65 823.76 182.63 824.69C188.75 827.57 193.98 832.06 197.75 837.68L198.31 838.53C201.27 843 205.33 849.13 211.93 848.37C218.539 847.62 220.589 841.133 222.239 835.914L222.24 835.91C223.57 831.7 224.83 827.72 227.72 826.59C230.49 825.51 233.91 827.85 235.25 830.63C236.77 833.82 236.71 837.66 236.14 842.44C235.985 843.778 235.807 845.122 235.627 846.473C235.575 846.868 235.522 847.264 235.47 847.66C233.94 859.1 232.37 870.93 237.96 881.32L240.64 886.3L242.99 881.16C243.57 879.88 244.78 878.89 246.38 878.37C248.38 877.72 250.68 877.91 252.39 878.88C255.05 880.38 256.67 882.66 257.36 885.85C260.02 898.25 247.56 921.21 239.07 932.77C234.51 938.99 226.68 941.58 218.12 939.69C208.57 937.58 201.27 930.57 199.5 921.81C199.25 920.56 199.18 919.2 199.11 917.76C198.99 915.23 198.86 912.62 197.74 910.04C195.54 904.99 190.56 902.4 185.99 900.53L184.94 900.11C181.3 898.64 177.87 897.25 175.81 894.63C174.74 893.27 174.28 891.15 174.69 889.47C174.94 888.44 175.45 887.75 176.2 887.4Z" fill="#1A4A67"/>
<path d="M146.25 934.46C144.7 932.76 143.05 930.79 143.22 928.5C143.44 925.51 146.96 923.59 149.89 924.21C152.82 924.83 155.05 927.27 156.46 929.91C156.66 926.35 157.54 922.83 159.04 919.59C159.62 918.33 160.7 916.92 162.05 917.22C162.84 917.4 163.37 918.12 163.76 918.83C165.34 921.72 165.69 925.27 164.7 928.41C166.47 922.15 171.77 917.01 178.08 915.43C178.87 915.23 179.75 915.1 180.48 915.47C182.14 916.33 181.64 918.81 180.89 920.53C177.36 928.65 173.48 938.51 166.42 944.3C159.47 949.98 150.61 939.24 146.25 934.46Z" fill="#8BDEEC"/>
<path d="M229.91 945.9C228.67 945.9 227.53 945.07 227.19 943.81L206.27 865.45C205.87 863.95 206.76 862.41 208.26 862.01C209.77 861.62 211.3 862.5 211.7 864L232.62 942.36C233.02 943.86 232.13 945.4 230.63 945.8C230.39 945.87 230.15 945.9 229.91 945.9Z" fill="white"/>
<path d="M216.82 896.89C216.4 896.89 215.97 896.79 215.57 896.59L188.06 882.86C186.67 882.17 186.11 880.48 186.8 879.09C187.49 877.7 189.18 877.14 190.57 877.83L218.08 891.56C219.47 892.25 220.03 893.94 219.34 895.33C218.85 896.32 217.85 896.89 216.82 896.89Z" fill="white"/>
<path d="M224.13 924.27C223.7 924.27 223.26 924.17 222.85 923.96C221.47 923.25 220.93 921.55 221.64 920.17L233.03 898.1C233.74 896.73 235.43 896.18 236.81 896.89C238.19 897.6 238.73 899.3 238.02 900.68L226.63 922.75C226.13 923.72 225.15 924.27 224.13 924.27Z" fill="white"/>
<path d="M894.14 871.28C893.91 870.48 893.71 869.67 893.53 868.85C891.37 858.77 894.13 847.12 902.39 840.95C910.49 834.89 923.51 833.69 926.62 824.06C928.83 817.24 924.44 810.27 921.39 803.78C918.34 797.29 917.36 787.93 923.6 784.4C928.71 781.51 935.46 784.62 940.87 782.35C950.08 778.49 948.71 762.82 957.79 758.67C963.74 755.95 970.85 759.87 977.18 758.23C986.34 755.85 988.74 743.64 986.51 734.45C984.28 725.25 979.26 716.36 980.36 706.96C983.34 681.37 1043.8 662.71 1044.89 696.84C1045.19 706.21 1038.92 714.33 1035.34 723C1031.76 731.67 1032.44 744.21 1041.26 747.4C1047.23 749.56 1055.5 746.78 1059.16 751.98C1065.91 761.57 1042.66 769.02 1044.04 780.66C1044.99 788.65 1056.15 790.13 1061.6 796.06C1068.77 803.86 1063.55 817.19 1054.9 823.3C1046.25 829.41 1035.3 831.18 1025.79 835.84C1021.98 837.7 1018.12 840.4 1017 844.48C1014.48 853.63 1026.43 859.61 1035.81 861.02C1045.2 862.43 1057.38 866.01 1057.37 875.5C1057.36 883.1 1048.92 887.66 1041.51 889.4C1034.11 891.14 1025.54 892.36 1021.35 898.71C1017.35 904.79 1019.21 912.96 1017.04 919.9C1012.14 935.56 960.68 945.2 944.73 941.31C919.68 935.21 926.5 914.1 908.98 895.19C902.53 888.26 896.72 880.34 894.14 871.28Z" fill="#8BDEEC"/>
<path d="M937.92 920.28C942.58 909.2 941.23 896.63 939.8 884.69C939.32 880.7 938.8 876.57 936.72 873.14C934.64 869.7 930.54 867.14 926.64 868.14C921.6 869.43 918.82 875.92 913.63 876.27C909.63 876.54 906.39 872.83 905.19 869.01C902.84 861.51 905.74 853.46 905.79 845.61C905.83 837.75 900.26 828.32 892.56 829.91C884.61 831.55 883.48 842.45 885.04 850.41C885.75 854.05 886.24 858.69 883.08 860.63C879.73 862.68 875.66 859.72 872.76 857.07C867.15 851.95 861.09 847.33 854.67 843.28C851.72 841.42 847.68 839.74 845.03 842C842.47 844.18 843.33 848.3 844.67 851.38C847.41 857.67 851.29 863.46 856.07 868.38C858.48 870.86 861.26 874.65 859.03 877.29C857.23 879.43 853.81 878.54 851.22 877.48C845.63 875.21 831.32 852.52 834.12 877.36C836.92 902.2 863.49 899.8 878.95 909.92C872.5 914.44 872.33 924.59 876.74 931.11C881.15 937.64 888.73 941.22 896.18 943.78C918.93 951.61 928.56 942.56 937.92 920.28Z" fill="#37C1D3"/>
<path fill-rule="evenodd" clip-rule="evenodd" d="M895.26 946.46C901.08 948.45 906.11 949.4 910.52 949.4C925.36 949.4 933.23 938.7 940.5 921.38C945.555 909.343 943.914 895.52 942.594 884.407L942.59 884.37L942.585 884.33C942.097 880.28 941.542 875.687 939.12 871.69C936.68 867.67 931.51 864 925.94 865.43C922.91 866.21 920.67 868.29 918.69 870.13L918.681 870.139C916.825 871.865 915.217 873.36 913.44 873.48C910.9 873.61 908.72 870.88 907.88 868.18C906.555 863.936 907.166 859.314 907.813 854.414L907.82 854.36L907.844 854.176C908.207 851.393 908.581 848.526 908.6 845.63C908.63 839.54 905.83 833.14 901.64 829.7C898.75 827.33 895.41 826.45 891.99 827.16C882.5 829.11 880.3 840.86 882.28 850.95C883.09 855.08 882.87 857.46 881.61 858.23C879.9 859.26 876.89 857.04 874.65 854.99C868.93 849.77 862.71 845.03 856.17 840.9C849.08 836.42 845.01 838.33 843.21 839.86C840.14 842.48 839.74 847.09 842.1 852.5C844.99 859.14 849.01 865.14 854.05 870.34C856.56 872.94 857.37 874.9 856.87 875.49C856.51 875.92 855.07 876.02 852.27 874.89C851.24 874.47 848.82 872.08 847.06 870.33C842.53 865.82 838.23 861.58 834.28 863.49C831.22 864.97 830.36 869.09 831.33 877.68C833.45 896.47 848.2 901.27 861.21 905.5L861.239 905.51C865.919 907.036 870.388 908.494 874.3 910.49C869.39 916.68 870.06 926.27 874.41 932.7C879.55 940.31 888.25 944.05 895.26 946.46ZM836.92 877.05C836.34 871.99 836.62 869.76 836.85 868.86C838.401 869.655 841.3 872.521 843.033 874.234L843.13 874.33L843.177 874.376C845.827 877.007 848.112 879.275 850.18 880.11C855.22 882.15 858.93 881.82 861.2 879.12C862.8 877.22 864.52 873.06 858.11 866.44C853.55 861.73 849.9 856.29 847.28 850.27C846.33 848.1 845.65 845.2 846.88 844.15C848.41 842.82 852.1 844.97 853.19 845.66C859.45 849.61 865.41 854.15 870.88 859.15C872.86 860.96 878.91 866.49 884.56 863.03C889.752 859.845 888.345 852.623 887.813 849.893L887.81 849.88C886.64 843.89 887.05 833.93 893.14 832.67C894.87 832.31 896.54 832.78 898.09 834.05C900.95 836.4 903.02 841.25 902.99 845.6C902.97 848.19 902.623 850.811 902.254 853.589L902.25 853.62L902.236 853.726C901.54 859.003 900.821 864.456 902.52 869.86C904 874.57 908.14 879.47 913.83 879.08C917.6 878.82 920.22 876.39 922.53 874.24L922.588 874.187C924.197 872.696 925.72 871.285 927.35 870.87C930.01 870.17 932.92 872.29 934.32 874.6C936.122 877.556 936.576 881.335 937.014 884.979L937.02 885.03C938.34 896.04 939.83 908.52 935.34 919.2C925.47 942.69 916.54 947.82 897.1 941.14C890.92 939.01 883.28 935.78 879.08 929.55C875.56 924.34 875.45 915.82 880.57 912.23L883.96 909.85L880.49 907.58C875.3 904.18 869.02 902.13 862.95 900.16C849.9 895.91 838.64 892.24 836.92 877.05Z" fill="#1A4A67"/>
<path d="M923.43 943.73C922.49 943.73 921.57 943.26 921.04 942.41L881.7 879.33C880.88 878.01 881.28 876.28 882.6 875.46C883.91 874.63 885.65 875.04 886.47 876.36L925.81 939.44C926.63 940.76 926.23 942.49 924.91 943.31C924.45 943.6 923.93 943.73 923.43 943.73Z" fill="white"/>
<path d="M910.62 923.21C910.39 923.21 910.14 923.18 909.9 923.12C908.4 922.72 907.5 921.19 907.9 919.69L914.77 893.69C915.17 892.19 916.67 891.29 918.21 891.69C919.71 892.09 920.61 893.62 920.21 895.12L913.34 921.12C913 922.38 911.87 923.21 910.62 923.21Z" fill="white"/>
<path d="M894.4 897.21C894.25 897.21 894.1 897.2 893.95 897.18L872.39 893.75C870.86 893.5 869.81 892.06 870.06 890.53C870.3 889 871.74 887.96 873.28 888.2L894.84 891.63C896.37 891.88 897.42 893.32 897.17 894.85C896.96 896.22 895.76 897.21 894.4 897.21Z" fill="white"/>
<path d="M942.25 950.29C941.95 950.29 941.64 950.24 941.34 950.14C939.87 949.63 939.09 948.03 939.6 946.57L1001.95 765.78C1002.46 764.31 1004.06 763.54 1005.52 764.04C1006.99 764.55 1007.77 766.15 1007.26 767.61L944.91 948.4C944.51 949.56 943.42 950.29 942.25 950.29Z" fill="white"/>
<path d="M967.76 880.66C966.33 880.66 965.11 879.58 964.97 878.13C964.82 876.59 965.94 875.21 967.49 875.05L1008.08 870.99C1009.61 870.8 1011 871.96 1011.15 873.51C1011.3 875.05 1010.18 876.43 1008.63 876.59L968.04 880.65C967.94 880.66 967.85 880.66 967.76 880.66Z" fill="white"/>
<path d="M984.55 827.36C983.22 827.36 982.04 826.41 981.79 825.06C981.51 823.53 982.52 822.07 984.04 821.79L1018.45 815.45C1019.97 815.17 1021.44 816.18 1021.72 817.71C1022 819.24 1020.99 820.7 1019.47 820.98L985.06 827.32C984.89 827.35 984.72 827.36 984.55 827.36Z" fill="white"/>
<path d="M976.19 851.5C975.44 851.5 974.69 851.2 974.14 850.61L945.6 820.13C944.54 819 944.6 817.22 945.73 816.16C946.86 815.1 948.64 815.16 949.7 816.29L978.24 846.77C979.3 847.9 979.24 849.68 978.11 850.74C977.57 851.25 976.88 851.5 976.19 851.5Z" fill="white"/>
<path d="M442.75 319.8L358.82 343.99C351.06 346.23 342.89 341.71 340.65 333.95L323.45 274.28C321.21 266.52 325.73 258.35 333.49 256.11L417.42 231.92C425.18 229.68 433.35 234.2 435.59 241.96L452.79 301.63C455.02 309.39 450.5 317.56 442.75 319.8Z" fill="#1A4A67"/>
<path d="M328 264.04L419.13 153.85L430.82 179.46L413.04 180.9L340.91 264.04H328Z" fill="#1A4A67"/>
<path d="M533.1 549.52L518.63 599.68L500.19 596.88L518.62 545.39C518.62 545.39 528.92 545.56 533.1 549.52Z" fill="white"/>
<path fill-rule="evenodd" clip-rule="evenodd" d="M496.39 599.15L520.64 602.83L536.27 548.65L535.03 547.48C530.19 542.9 519.83 542.59 518.66 542.57L516.64 542.54L496.39 599.15ZM516.61 596.54L503.98 594.62L520.55 548.33C523.24 548.57 527.31 549.21 529.86 550.64L516.61 596.54Z" fill="#1A4A67"/>
<path d="M592.69 611.58C592.69 611.58 579.62 616.34 554.28 619.12C528.94 621.9 494.96 620.39 488.88 618.54C479.63 615.74 485.29 587.44 493.76 587.1C502.23 586.76 506.05 598.09 520.53 587.27C532.93 578 543.91 594.11 566.4 597.62C588.89 601.14 598 602.54 592.69 611.58Z" fill="#D1D3D4"/>
<path fill-rule="evenodd" clip-rule="evenodd" d="M488.07 621.24C492.03 622.43 506.13 623.47 522.38 623.47C532.94 623.47 544.42 623.03 554.58 621.94C579.96 619.15 593.09 614.44 593.64 614.24L594.59 613.89L595.1 613.02C597.08 609.65 597.48 606.84 596.33 604.41C593.8 599.08 584.83 597.67 566.83 594.86C557.99 593.48 550.99 590.05 544.81 587.02C535.53 582.47 527.5 578.54 518.84 585.03C510.68 591.14 507.12 589.3 502.63 586.96C500.11 585.64 497.29 584.18 493.65 584.3C487.02 584.56 482.77 594.35 481.62 603.34C480.39 612.96 482.8 619.65 488.07 621.24ZM493.88 589.92C493.96 589.91 494.05 589.91 494.13 589.91C496.14 589.91 497.96 590.85 500.04 591.96C505.01 594.55 511.2 597.77 522.21 589.54C527.86 585.31 532.99 587.49 542.34 592.07L542.346 592.073C548.555 595.112 556.293 598.901 566.1 600.43L566.188 600.444C578.971 602.448 589.993 604.176 591.25 606.82C591.47 607.28 591.29 608.16 590.74 609.28C587.29 610.39 574.78 614.06 553.97 616.34C528.35 619.15 494.83 617.43 489.69 615.87C487.46 615.19 486.4 610.22 487.19 604.06C488.28 595.55 491.88 590 493.88 589.92Z" fill="#1A4A67"/>
<path d="M555.49 552.04C559.36 510.8 573.57 452.24 564.72 410.74C555.72 368.55 525.6 354.09 495.66 323.97C464.73 292.84 464.87 322.6 464.87 322.6L462.12 331.51C476.73 343.71 434.27 351.69 448.51 364.27C463.85 377.82 475.86 384.56 490.68 398.62C509.57 416.54 519.73 408.83 517.66 435.16C517.07 442.63 503.77 510.72 499.86 539.37C495.34 572.53 472.57 562.42 533.95 572.98C572.12 579.53 553.08 577.85 555.49 552.04Z" fill="white"/>
<path fill-rule="evenodd" clip-rule="evenodd" d="M539.65 576.81C547.76 578.23 552.4 579.04 555.32 579.04C557.61 579.04 558.84 578.54 559.84 577.44C561.62 575.48 560.94 572.98 560.07 569.82C559.05 566.12 557.52 560.53 558.29 552.31C559.326 541.166 561.132 528.785 563.045 515.677L563.12 515.16L563.134 515.063C568.221 480.197 573.984 440.692 567.47 410.16C560.582 377.841 541.843 361.512 520.153 342.61L520.13 342.59L519.99 342.468C512.713 336.126 505.182 329.561 497.66 321.99C485.39 309.65 476.23 304.97 469.61 307.72C462.86 310.53 462.15 319.92 462.07 322.16L458.89 332.48L460.33 333.68C461.75 334.87 462.46 335.93 462.43 336.84C462.34 339.28 457.63 342.71 453.84 345.46C448.51 349.32 443 353.32 442.75 358.61C442.62 361.35 443.93 363.97 446.66 366.37C453.6 372.508 459.894 377.274 465.977 381.881L466.16 382.02L466.188 382.041C473.678 387.713 480.75 393.07 488.74 400.65C495.25 406.82 500.68 410.02 505.05 412.59C513.1 417.32 516.1 419.09 514.86 434.93C514.62 438.05 511.88 453.2 508.7 470.76L508.62 471.203C504.444 494.297 499.276 522.873 497.08 538.98C495.81 548.28 493.05 554 491.22 557.78C489.6 561.12 488.43 563.54 489.74 566.01C491.42 569.19 495.26 569.77 509.57 571.92L509.974 571.981C516.064 572.9 523.6 574.038 533.48 575.74L539.65 576.81ZM510.41 566.36C502.74 565.21 496.57 564.28 494.89 563.4C495.093 562.715 495.705 561.433 496.233 560.329L496.29 560.21C498.28 556.1 501.27 549.9 502.66 539.72C504.825 523.816 509.94 495.522 514.095 472.542L514.24 471.74C517.58 453.3 520.21 438.74 520.48 435.34C521.93 416.83 517.43 413.31 507.92 407.72C503.8 405.3 498.67 402.28 492.63 396.55C484.422 388.771 477.239 383.33 469.632 377.567L469.57 377.52C463.51 372.94 457.25 368.2 450.39 362.14C449.01 360.92 448.33 359.82 448.38 358.86C448.499 356.281 453.259 352.82 457.1 350.026L457.15 349.99L457.153 349.988C462.422 346.159 467.87 342.199 468.05 337.01C468.12 334.78 467.22 332.65 465.34 330.66L467.57 323.43L467.69 322.59C467.69 320.51 468.44 314.28 471.78 312.9C473.69 312.12 479.63 311.8 493.68 325.95C501.342 333.662 508.936 340.28 516.284 346.685L516.45 346.83L516.465 346.844C537.399 365.088 555.482 380.848 561.98 411.33C568.28 440.9 562.59 479.92 557.56 514.34L557.471 514.948C555.554 528.103 553.744 540.523 552.69 551.78C551.833 560.983 553.586 567.409 554.637 571.264L554.65 571.31L554.698 571.487C554.876 572.142 555.072 572.862 555.2 573.43C552.94 573.42 547.6 572.49 540.62 571.27L534.43 570.19C524.28 568.45 516.26 567.24 510.41 566.36Z" fill="#1A4A67"/>
<path d="M406.01 627.5L405.27 678.76L386.91 680.29L391.08 626.85C391.08 626.85 400.97 624.67 406.01 627.5Z" fill="white"/>
<path fill-rule="evenodd" clip-rule="evenodd" d="M388.44 624.56L383.84 683.37L408.04 681.35L408.84 625.87L407.38 625.05C401.58 621.8 391.59 623.86 390.47 624.11L388.44 624.56ZM389.96 677.22L393.71 629.24C396.36 628.86 400.38 628.57 403.17 629.37L402.49 676.18L389.96 677.22Z" fill="#1A4A67"/>
<path d="M478.48 697.61C478.48 697.61 465.3 701.57 440.16 702.88C415.02 704.19 386.99 704.59 381.96 701.02C376.93 697.45 374.24 667.8 382.61 667.94C390.98 668.08 394.01 679.46 408.96 669.61C421.77 661.17 431.55 677.66 453.48 682.39C475.41 687.11 484.29 689 478.48 697.61Z" fill="#A7A9AC"/>
<path fill-rule="evenodd" clip-rule="evenodd" d="M380.34 703.31C383.47 705.53 393.13 706.64 409.16 706.64C417.73 706.64 428.12 706.32 440.3 705.68C465.48 704.37 478.73 700.47 479.28 700.3L480.24 700.01L480.8 699.18C481.6 698 484.03 694.4 482.55 690.72C480.37 685.3 471.63 683.41 454.07 679.63C445.47 677.78 438.8 674.01 432.91 670.68L432.867 670.656C424.016 665.666 416.376 661.36 407.42 667.26C398.98 672.82 395.61 670.81 391.36 668.26C388.96 666.82 386.23 665.19 382.66 665.13C380.63 665.08 377.51 665.87 375.72 671.3C372.88 679.94 375.05 699.55 380.34 703.31ZM381.16 672.78C381.59 671.57 382.16 670.75 382.56 670.75C384.64 670.78 386.42 671.84 388.47 673.09L388.482 673.097C393.22 675.926 399.129 679.454 410.51 671.96C416.37 668.1 421.02 670.42 430.15 675.58L430.185 675.599C436.109 678.946 443.469 683.104 453.03 685.16L453.085 685.172C465.542 687.857 476.292 690.174 477.35 692.82C477.54 693.28 477.29 694.12 476.69 695.19C473.21 696.09 460.65 698.99 440.02 700.07C402.51 702.03 386.19 700.57 383.6 698.73C381.28 696.89 378.42 680.46 381.16 672.78Z" fill="#1A4A67"/>
<path d="M445.59 650.26C445.09 648.32 443.15 646.62 441.52 644.92C426.55 629.32 434.31 610.34 440.16 593.61C454.05 553.92 454.41 511.76 459.13 470.62C463.73 430.46 475.17 391.23 491.87 354.01C497.94 340.49 506.73 319.48 482.68 319.94C471.29 320.16 460.46 318.06 449.78 314.53C444.16 312.67 450.38 311.84 444.16 312.67C422.95 315.51 409.03 349.88 410.93 362.92C414.72 388.88 413.14 412.97 409.77 439.31C405 476.65 404.92 514.76 393.59 550.77C388.04 568.42 382.13 585.96 376.33 603.53C372.94 613.78 359.43 635.28 364.01 645.76C370.3 660.15 410.8 655.16 423.71 656.88C433.41 658.15 447.3 656.85 445.59 650.26Z" fill="white"/>
<path fill-rule="evenodd" clip-rule="evenodd" d="M423.34 659.64C425.39 659.92 428 660.12 430.76 660.12C436.91 660.12 443.78 659.11 446.89 655.6C448.38 653.92 448.88 651.77 448.31 649.55C447.701 647.184 445.896 645.355 444.297 643.737L444.29 643.73L443.54 642.97C430.5 629.38 436.31 612.92 441.93 597.01L442.8 594.53C453.42 564.2 456.25 532.14 458.98 501.13L459.067 500.152C459.919 490.527 460.798 480.612 461.91 470.93C466.34 432.34 477.28 393.38 494.43 355.14L494.439 355.119C498.311 346.477 504.776 332.043 499.13 323.5C496.23 319.11 490.75 316.99 482.62 317.11C472.48 317.33 461.96 315.58 450.65 311.84C450.49 311.79 450.35 311.74 450.22 311.69L450.25 311.57L449.26 310.49C448.16 309.29 447.23 309.41 443.78 309.87C435.75 310.94 428 316.15 421.38 324.92C412.68 336.46 406.74 353.68 408.15 363.3C412.13 390.58 409.94 415.76 406.98 438.92C405.57 449.96 404.55 461.23 403.57 472.12C401.24 498.01 398.82 524.78 390.92 549.9C386.58 563.71 381.94 577.69 377.45 591.21L373.67 602.62C372.79 605.28 371.09 608.96 369.29 612.85L369.273 612.888C364.076 624.132 357.614 638.11 361.44 646.86C366.85 659.23 390.52 659.3 409.32 659.22C415.12 659.2 420.2 659.22 423.34 659.64ZM424.08 654.07C420.72 653.62 415.8 653.6 410.08 653.6C409.59 653.6 409.09 653.6 408.58 653.61C393.14 653.61 370.47 653.47 366.59 644.61C363.775 638.181 369.89 624.953 374.368 615.267L374.39 615.22C376.34 611 378.02 607.36 379 604.39L382.78 592.98L383.185 591.759C387.549 578.599 392.051 565.024 396.28 551.59C404.36 525.89 406.81 498.81 409.17 472.63L409.194 472.362C410.167 461.605 411.172 450.49 412.56 439.64C415.57 416.09 417.79 390.44 413.71 362.49C412.64 355.18 417.27 339.7 425.87 328.3C429.84 323.04 436.3 316.53 444.53 315.43C444.708 315.409 444.874 315.386 445.03 315.363C445.173 315.343 445.306 315.324 445.43 315.31C446.506 316.376 448.097 316.906 448.86 317.16L448.89 317.17C460.82 321.12 471.83 322.89 482.73 322.73C488.73 322.62 492.67 323.92 494.44 326.6C498.39 332.57 492.48 345.76 489.3 352.84C471.91 391.62 460.82 431.13 456.33 470.29C455.18 480.378 454.27 490.677 453.391 500.635L453.39 500.64C450.69 531.3 447.89 563.01 437.51 592.68L436.64 595.14L436.635 595.155C430.736 611.861 424.055 630.785 439.49 646.87L440.29 647.69C441.39 648.8 442.63 650.06 442.87 650.97C442.99 651.43 442.91 651.62 442.68 651.88C440.7 654.11 432.01 655.13 424.08 654.07Z" fill="#1A4A67"/>
<path d="M496.52 237.48C493.95 214.49 505.84 177.9 491.5 159.23C490.03 157.32 488.45 155.41 486.32 154.16C459.35 138.34 440.68 162.92 432.06 184.55C424.59 203.3 425.51 220.56 424.95 240.12C424.02 273.09 415.81 305.17 405.33 336.51C401.59 347.69 400.6 360.71 411.17 362.41C425.46 364.7 428.54 348.25 442.18 344C454.64 340.12 464.7 342.5 478.31 343.2C485.06 343.55 507.11 339.4 505.77 327.66C502.58 299.85 497.8 275.86 497.64 256.49C497.59 250.22 497.23 243.85 496.52 237.48Z" fill="#37C1D3"/>
<path fill-rule="evenodd" clip-rule="evenodd" d="M410.73 365.18C411.83 365.36 412.88 365.44 413.87 365.44C421.51 365.44 426.16 360.55 430.67 355.79L430.737 355.72C434.226 352.062 437.833 348.28 443.01 346.67C452.02 343.87 459.89 344.54 468.99 345.32L469.033 345.324C471.94 345.573 474.956 345.831 478.17 345.99C483.31 346.26 498.48 344 505.22 336.82C507.8 334.07 508.96 330.79 508.56 327.33C507.44 317.56 506.14 308.37 504.88 299.49L504.86 299.345C502.548 282.976 500.55 268.824 500.45 256.46C500.39 249.91 500.01 243.41 499.31 237.15C498.44 229.39 499.28 219.95 500.18 209.95C501.92 190.57 503.71 170.52 493.72 157.51C492.18 155.5 490.32 153.24 487.73 151.72C478.24 146.15 468.98 144.86 460.16 147.88C442.89 153.81 432.93 174.76 429.45 183.49C422.884 199.97 422.61 215.331 422.321 231.589L422.32 231.62L422.318 231.723C422.269 234.459 422.219 237.215 422.14 240.03C421.35 268.21 415.34 297.69 402.67 335.61C400.67 341.6 397.94 352.69 402.14 359.63C403.97 362.65 406.94 364.57 410.73 365.18ZM461.99 153.21C464.45 152.36 466.97 151.94 469.55 151.94C474.49 151.94 479.62 153.49 484.88 156.56C486.61 157.57 487.99 159.27 489.26 160.92C497.917 172.186 496.221 191.116 494.582 209.42L494.58 209.44L494.579 209.458C493.659 219.741 492.791 229.455 493.72 237.77C494.4 243.85 494.77 250.15 494.82 256.5C494.92 269.211 496.938 283.494 499.272 300.009L499.31 300.28C500.57 309.13 501.86 318.27 502.97 327.97C503.18 329.78 502.57 331.42 501.11 332.97C496.15 338.26 483.55 340.62 478.45 340.38C475.538 340.233 472.787 340 470.143 339.777C469.918 339.758 469.694 339.739 469.47 339.72C459.78 338.89 451.41 338.18 441.35 341.31C434.761 343.364 430.447 347.892 426.635 351.893L426.6 351.93L426.581 351.95C421.93 356.841 418.261 360.699 411.62 359.63C409.45 359.29 407.92 358.33 406.94 356.72C404.76 353.12 405.15 345.9 407.99 337.4C420.85 298.94 426.94 268.96 427.76 240.2C427.838 237.408 427.888 234.655 427.937 231.94L427.94 231.74L427.941 231.707C428.22 215.969 428.484 201.119 434.67 185.59C437.86 177.58 446.91 158.38 461.99 153.21Z" fill="#1A4A67"/>
<path d="M460.01 177.19C460.01 177.19 452.23 211.1 444.04 252.43C435.85 293.77 448 324.95 448 324.95C449.77 329.51 451.59 334.06 453.57 338.47C457.45 347.16 458.73 352.94 457.22 362.35C455.95 370.28 458.63 377.27 464.45 383.25C468.61 387.52 473.83 390.82 477.43 395.57C478.01 396.33 478.97 397.19 479.84 396.75C480.58 396.38 480.55 395.4 480.42 394.62C479.24 387.59 478.06 380.56 476.87 373.53C476.64 372.16 476.41 370.74 476.75 369.39C477.09 368.04 478.16 366.76 479.63 366.53C481.39 366.26 482.98 367.51 484.27 368.66C486.23 370.42 487.59 376.83 491.21 374.4C492.73 368.24 486.62 356.62 482.84 351.6C479.12 345.92 472 347.06 469.79 341C467.41 334.46 465.04 327.93 462.74 321.37C446.44 256.27 469.42 229.54 469.42 229.54C469.42 229.54 464.38 225.33 467.98 192.98C471.6 160.65 460.01 177.19 460.01 177.19Z" fill="white"/>
<path fill-rule="evenodd" clip-rule="evenodd" d="M475.18 397.29C476.53 399.05 478.03 399.69 479.33 399.69C479.98 399.69 480.58 399.53 481.07 399.27C481.89 398.86 483.73 397.55 483.17 394.16L479.62 373.07C479.44 372 479.26 370.89 479.46 370.09C479.57 369.65 479.88 369.34 480.04 369.31C480.51 369.24 481.23 369.74 482.38 370.76C482.644 370.995 483.156 371.916 483.506 372.546L483.53 372.59L483.535 372.6C484.634 374.568 486.004 377.021 488.55 377.63C489.54 377.87 491.05 377.9 492.77 376.75L493.67 376.14L493.93 375.08C495.81 367.45 488.77 354.83 485.18 350.07C482.99 346.73 479.88 345.28 477.38 344.12C474.7 342.88 473.16 342.07 472.42 340.05C470.04 333.53 467.68 327.01 465.46 320.71C449.78 258.08 471.34 231.65 471.55 231.4L473.66 229.49L471.47 227.66C471.31 227.45 467.57 222.07 470.77 193.32C472.4 178.68 471.34 172.06 467.1 170.46C462.81 168.86 458.82 173.97 457.69 175.58L457.38 176.03L457.26 176.56C457.18 176.9 449.37 210.99 441.27 251.89C433.01 293.55 444.85 324.68 445.36 325.98C446.83 329.76 448.8 334.74 450.98 339.63C454.47 347.46 455.88 352.79 454.42 361.91C453.04 370.51 455.73 378.35 462.42 385.22C464.165 387.015 466.069 388.631 467.914 390.196L467.93 390.21L467.954 390.23C470.655 392.523 473.206 394.688 475.18 397.29ZM446.79 252.98C454.31 215.04 461.57 182.99 462.62 178.38C463.41 177.36 464.43 176.37 465.1 175.95C465.57 177.03 466.52 180.83 465.2 192.68C462.61 215.9 464.38 225.45 466.07 229.35C461.33 236.17 445.58 264.4 460.09 322.31C462.39 328.88 464.76 335.42 467.15 341.97C468.72 346.28 472.21 347.91 475.02 349.22C477.25 350.26 479.17 351.16 480.59 353.31C483.63 357.35 487.3 364.5 488.35 369.69C487.71 368.55 487.05 367.4 486.14 366.58C484.94 365.5 482.44 363.26 479.19 363.76C476.71 364.15 474.69 366.09 474.02 368.7C473.526 370.627 473.833 372.466 474.081 373.957L474.09 374.01L476.88 390.71C475.213 389.013 473.41 387.482 471.643 385.982L471.57 385.92C469.74 384.37 468.02 382.91 466.45 381.3C461.07 375.78 458.9 369.55 459.98 362.81C461.66 352.35 460 346.02 456.12 337.34C453.99 332.56 452.06 327.67 450.61 323.94C450.609 323.936 450.605 323.926 450.599 323.91C450.186 322.791 438.978 292.404 446.79 252.98Z" fill="#1A4A67"/>
<path d="M478.27 226.88C478.27 226.88 496.95 167.1 470.73 168.2C444.51 169.3 435.98 238.34 435.98 238.34L478.98 235.94L478.27 226.88Z" fill="#78DFE8"/>
<path fill-rule="evenodd" clip-rule="evenodd" d="M433.2 237.99L432.79 241.33L482.03 238.58L481.12 227.2C483.03 220.94 493.49 184.59 482.88 170.77C480.01 167.03 475.72 165.17 470.62 165.39C442.35 166.57 433.56 235.07 433.2 237.99ZM470.86 171C471.06 170.99 471.25 170.99 471.44 170.99C474.48 170.99 476.77 172.04 478.43 174.18C486.22 184.32 479.03 215.05 475.6 226.03L475.44 226.55L475.97 233.28L439.24 235.33C442.24 214.92 452.39 171.77 470.86 171Z" fill="#1A4A67"/>
<path d="M505.31 51.4901C505.29 51.5301 521.32 61.6901 512.82 86.0001C503.73 112.01 490.62 133.79 482.21 131.54C458.95 125.31 452.03 109.05 445.01 95.0201C436.4 77.8101 459.89 39.2501 459.89 39.2501L479.59 31.1901L505.31 51.4901Z" fill="white"/>
<path fill-rule="evenodd" clip-rule="evenodd" d="M481.48 134.25C482.13 134.42 482.78 134.5 483.43 134.5C494.76 134.5 507.61 109.42 515.48 86.9201C522.8 65.9501 513.18 54.5201 508.62 50.5301V50.5201L508.42 50.3601C507.85 49.8701 507.37 49.5101 507.03 49.2601L480.05 27.9601L457.98 36.9901L457.5 37.7801C456.5 39.4101 433.3 77.8801 442.5 96.2701L443.62 98.5201L443.621 98.5229C450.471 112.352 458.231 128.021 481.48 134.25ZM447.52 93.7501C441.19 81.1001 455.27 52.4901 461.82 41.4901L479.12 34.4001L502.05 52.5001L502.02 52.6001L503.74 53.8201C506.06 55.4801 517.26 64.7401 510.16 85.0601C499.52 115.52 487.45 130.02 482.93 128.81C462.14 123.24 455.28 109.4 448.65 96.0201L447.52 93.7501Z" fill="#1A4A67"/>
<path d="M535.03 49.8501C537.37 44.4301 534.75 34.2501 530.73 30.4901C529.18 29.0401 527.15 28.0301 525.03 28.0601C523.44 28.0801 521.82 28.6801 520.28 28.3101C515.64 27.2101 515.65 23.5201 511.39 21.8701C508.22 20.6401 504.85 23.1501 501.47 23.6301C498.91 23.9901 496.38 23.1601 493.9 22.4701C486.92 20.5301 480.63 16.8401 473.42 15.4601C467.34 14.3001 460.88 14.4501 455.08 16.8101C449.03 19.2701 444.4 24.2901 441.64 30.3001C439.99 33.8901 439.2 37.9701 439.93 41.8301C439.33 38.6601 433.05 41.5301 431.97 42.6801C427.74 47.1901 417.09 60.3901 418.62 66.1301C419.83 70.6801 416.07 74.8001 417.14 79.4001C418.41 84.8801 433.76 88.0501 436.51 93.0401C439.67 98.7601 446.64 102.09 452.98 101.06C451.5 95.9901 450.04 90.8101 450.15 85.4901C450.27 80.1701 444.88 55.7101 473.19 52.6901C484.44 51.4901 497.03 61.1501 508.09 62.4201C513.34 63.0201 518.7 62.4701 523.81 60.9801C527.76 59.8301 531.94 54.7901 534.39 51.0601C534.64 50.6701 534.85 50.2701 535.03 49.8501Z" fill="#1A4A67"/>
<path d="M517.14 47.3901C524.1 43.6701 526.12 35.2601 526.83 27.7901C527.6 19.6701 527.45 18.2201 520.14 12.5001C517.32 10.2901 510.34 7.93005 510.33 7.93005C492.65 2.01005 472.66 -2.24995 454.13 2.84005C437.1 7.52005 425.34 21.1501 419.5 36.3201C416.53 44.0301 414.88 52.3201 414.84 60.5201C414.8 69.5201 418.54 79.5101 412.22 87.4301C414.55 87.6001 416.92 87.3801 419.16 86.7701C409.46 88.1801 394.85 90.58 394.5 102.13C394.35 107.19 397.87 111.6 400.84 115.83C403.81 120.06 406.43 125.34 404.37 130.02C401.77 135.93 392.74 138.26 391.58 144.57C390.2 152.07 397.77 155.5 400.83 161.34C404.68 168.7 400.99 177.26 400.11 184.89C399.32 191.66 406 194.77 410.36 198.81C423 210.52 422.84 223.83 409.01 236.77C408.73 237.03 408.84 237.54 409.04 237.86C409.25 238.2 409.7 238.34 410.11 238.44C427.98 242.81 451.2 226.67 455.32 210.58C457.18 203.33 452.44 196.55 454.52 189.58C456.75 182.09 465.67 179.28 471.61 174.93C482.54 166.94 494.23 153.11 492.62 139.28C491.64 130.86 488.81 121.37 482.6 114.51C477.17 108.5 460.95 105.22 461.12 96.2401C461.19 92.2701 464.61 89.2001 467.19 86.0401C473.72 78.0301 461.2 71.05 467.38 66.87C471.36 64.18 476.07 62.2901 480.91 61.4801C486.04 60.6201 491.27 59.8101 495.26 56.4301C498.99 53.2701 504.14 46.1301 509.91 46.6101C517.11 47.21 525.38 45.5301 529.11 39.7501" fill="#1A4A67"/>
<path d="M1020.8 319.59H785.61C760.88 319.59 740.65 299.36 740.65 274.63V224.42C740.65 199.69 760.88 179.46 785.61 179.46H1020.8C1045.53 179.46 1065.76 199.69 1065.76 224.42V274.63C1065.76 299.36 1045.53 319.59 1020.8 319.59Z" fill="#E6E7E8"/>
<path d="M963.75 272.99H728.56C703.83 272.99 683.6 252.76 683.6 228.03V117.94C683.6 93.2101 703.83 72.9801 728.56 72.9801H963.75C988.48 72.9801 1008.71 93.2101 1008.71 117.94V228.03C1008.72 252.76 988.48 272.99 963.75 272.99Z" fill="#8BDEEC"/>
<path d="M747.42 216.2C771.17 248.89 816.92 256.14 849.6 232.39L763.6 114.02C730.92 137.76 723.67 183.51 747.42 216.2Z" fill="white"/>
<path d="M771.3 108.43L810.7 162.66L865.98 122.5C843.56 92.8801 801.49 86.5001 771.3 108.43Z" fill="white"/>
<path d="M872.43 131.26C872.16 130.89 871.85 130.56 871.57 130.19L816.29 170.35L857.3 226.8C887.86 204.6 894.64 161.82 872.43 131.26Z" fill="white"/>
<path d="M973.62 153.85H912.83C909.72 153.85 907.18 151.31 907.18 148.2C907.18 145.09 909.72 142.55 912.83 142.55H973.62C976.73 142.55 979.27 145.09 979.27 148.2C979.27 151.3 976.73 153.85 973.62 153.85Z" fill="#1A4A67"/>
<path d="M973.62 173.03H912.83C909.72 173.03 907.18 170.49 907.18 167.38C907.18 164.27 909.72 161.73 912.83 161.73H973.62C976.73 161.73 979.27 164.27 979.27 167.38C979.27 170.48 976.73 173.03 973.62 173.03Z" fill="#1A4A67"/>
<path d="M973.62 192.21H912.83C909.72 192.21 907.18 189.67 907.18 186.56C907.18 183.45 909.72 180.91 912.83 180.91H973.62C976.73 180.91 979.27 183.45 979.27 186.56C979.27 189.67 976.73 192.21 973.62 192.21Z" fill="#1A4A67"/>
<path d="M973.62 211.39H912.83C909.72 211.39 907.18 208.85 907.18 205.74C907.18 202.63 909.72 200.09 912.83 200.09H973.62C976.73 200.09 979.27 202.63 979.27 205.74C979.27 208.85 976.73 211.39 973.62 211.39Z" fill="#1A4A67"/>
<path d="M1091 105.77C1096.79 105.77 1101.48 101.078 1101.48 95.2901C1101.48 89.5021 1096.79 84.8101 1091 84.8101C1085.21 84.8101 1080.52 89.5021 1080.52 95.2901C1080.52 101.078 1085.21 105.77 1091 105.77Z" fill="#8BDEEC"/>
<path d="M1040.53 97.26C1046.32 97.26 1051.01 92.568 1051.01 86.78C1051.01 80.9921 1046.32 76.3 1040.53 76.3C1034.74 76.3 1030.05 80.9921 1030.05 86.78C1030.05 92.568 1034.74 97.26 1040.53 97.26Z" fill="#8BDEEC"/>
<path d="M1047.62 151.73C1053.41 151.73 1058.1 147.038 1058.1 141.25C1058.1 135.462 1053.41 130.77 1047.62 130.77C1041.83 130.77 1037.14 135.462 1037.14 141.25C1037.14 147.038 1041.83 151.73 1047.62 151.73Z" fill="#8BDEEC"/>
<path d="M248.5 492.63H29.7101C13.4301 492.63 0.110107 479.31 0.110107 463.03V456.22C0.110107 439.94 13.4301 426.62 29.7101 426.62H248.5C264.78 426.62 278.1 439.94 278.1 456.22V463.03C278.1 479.31 264.78 492.63 248.5 492.63Z" fill="#E6E7E8"/>
<path d="M246.05 461.66L245.83 461.93C245.31 462.57 244.35 462.67 243.71 462.15L224.56 446.55C223.92 446.03 223.82 445.07 224.34 444.43L224.56 444.16C225.08 443.52 226.04 443.42 226.68 443.94L245.83 459.54C246.48 460.06 246.58 461.01 246.05 461.66Z" fill="white"/>
<path d="M246.05 460L245.83 459.73C245.31 459.09 244.35 458.99 243.71 459.51L224.56 475.11C223.92 475.63 223.82 476.59 224.34 477.23L224.56 477.5C225.08 478.14 226.04 478.24 226.68 477.72L245.83 462.12C246.48 461.59 246.58 460.64 246.05 460Z" fill="white"/>
<path d="M282.38 566.07H136.07C125.18 566.07 116.28 557.16 116.28 546.28V541.73C116.28 530.84 125.19 521.94 136.07 521.94H282.38C293.27 521.94 302.17 530.85 302.17 541.73V546.28C302.17 557.17 293.26 566.07 282.38 566.07Z" fill="#8BDEEC"/>
<path d="M280.74 545.36L280.59 545.54C280.24 545.97 279.6 546.03 279.17 545.68L266.36 535.25C265.93 534.9 265.87 534.26 266.22 533.83L266.37 533.65C266.72 533.22 267.36 533.16 267.79 533.51L280.6 543.94C281.02 544.29 281.09 544.93 280.74 545.36Z" fill="#8BDEEC"/>
<path d="M280.74 544.25L280.59 544.07C280.24 543.64 279.6 543.58 279.17 543.93L266.36 554.36C265.93 554.71 265.87 555.35 266.22 555.78L266.37 555.96C266.72 556.39 267.36 556.45 267.79 556.1L280.6 545.67C281.02 545.32 281.09 544.68 280.74 544.25Z" fill="#8BDEEC"/>
<path d="M201.6 373.68C205.3 373.68 208.3 370.68 208.3 366.98C208.3 363.28 205.3 360.28 201.6 360.28C197.9 360.28 194.9 363.28 194.9 366.98C194.9 370.68 197.9 373.68 201.6 373.68Z" fill="#8BDEEC"/>
<path d="M187.07 344.38C190.77 344.38 193.77 341.38 193.77 337.68C193.77 333.98 190.77 330.98 187.07 330.98C183.37 330.98 180.37 333.98 180.37 337.68C180.37 341.38 183.37 344.38 187.07 344.38Z" fill="#8BDEEC"/>
<path d="M161.56 368.48C165.26 368.48 168.26 365.48 168.26 361.78C168.26 358.08 165.26 355.08 161.56 355.08C157.86 355.08 154.86 358.08 154.86 361.78C154.86 365.48 157.86 368.48 161.56 368.48Z" fill="#8BDEEC"/>
</svg>
