<svg width="1130" height="978" viewBox="0 0 1130 978" fill="none" xmlns="http://www.w3.org/2000/svg">
<rect width="1130" height="978" fill="white"/>
<path d="M571.11 968.95C836.466 968.95 1051.58 960.569 1051.58 950.23C1051.58 939.891 836.466 931.51 571.11 931.51C305.754 931.51 90.6401 939.891 90.6401 950.23C90.6401 960.569 305.754 968.95 571.11 968.95Z" fill="#E6E7E8"/>
<path d="M964.25 762.01H47.9703C23.2403 762.01 3.01025 741.78 3.01025 717.05V48.73C3.01025 24 23.2403 3.77002 47.9703 3.77002H964.25C988.98 3.77002 1009.21 24 1009.21 48.73V717.05C1009.21 741.77 988.98 762.01 964.25 762.01Z" fill="#E6E7E8"/>
<path fill-rule="evenodd" clip-rule="evenodd" d="M47.9702 764.82H964.25C990.59 764.82 1012.02 743.39 1012.02 717.05V48.73C1012.02 22.39 990.59 0.959961 964.25 0.959961H47.9702C21.6302 0.959961 0.200195 22.39 0.200195 48.73V717.05C0.200195 743.39 21.6302 764.82 47.9702 764.82ZM5.8202 48.72C5.8202 25.48 24.7302 6.56996 47.9702 6.56996V6.57996H964.25C987.49 6.57996 1006.4 25.49 1006.4 48.73V717.04C1006.4 740.28 987.49 759.19 964.25 759.19H47.9702C24.7302 759.19 5.8202 740.28 5.8202 717.04V48.72Z" fill="#1A4A67"/>
<path d="M936.14 698.76H71.73C47 698.76 26.77 678.53 26.77 653.8V81.7C26.77 56.97 47 36.74 71.73 36.74H936.14C960.87 36.74 981.1 56.97 981.1 81.7V653.8C981.11 678.53 960.87 698.76 936.14 698.76Z" fill="white"/>
<path d="M559.26 727.42H488.69C486.97 727.42 485.57 726.01 485.57 724.3C485.57 722.58 486.98 721.18 488.69 721.18H559.26C560.98 721.18 562.38 722.59 562.38 724.3C562.38 726.01 560.97 727.42 559.26 727.42Z" fill="#1A4A67"/>
<path d="M56.6904 29.24C60.5674 29.24 63.7104 26.097 63.7104 22.22C63.7104 18.3429 60.5674 15.2 56.6904 15.2C52.8134 15.2 49.6704 18.3429 49.6704 22.22C49.6704 26.097 52.8134 29.24 56.6904 29.24Z" fill="#E3E5FC"/>
<path d="M86.9204 29.24C90.7974 29.24 93.9404 26.097 93.9404 22.22C93.9404 18.3429 90.7974 15.2 86.9204 15.2C83.0434 15.2 79.9004 18.3429 79.9004 22.22C79.9004 26.097 83.0434 29.24 86.9204 29.24Z" fill="white"/>
<path d="M117.42 29.24C121.297 29.24 124.44 26.097 124.44 22.22C124.44 18.3429 121.297 15.2 117.42 15.2C113.543 15.2 110.4 18.3429 110.4 22.22C110.4 26.097 113.543 29.24 117.42 29.24Z" fill="#1A4A67"/>
<path d="M848.17 420.24H677.06C672.47 420.24 668.71 416.48 668.71 411.89C668.71 407.3 672.47 403.54 677.06 403.54H848.17C852.76 403.54 856.52 407.3 856.52 411.89C856.51 416.48 852.76 420.24 848.17 420.24Z" fill="#1A4A67"/>
<path d="M848.17 458.47H677.06C672.47 458.47 668.71 454.71 668.71 450.12C668.71 445.53 672.47 441.77 677.06 441.77H848.17C852.76 441.77 856.52 445.53 856.52 450.12C856.51 454.71 852.76 458.47 848.17 458.47Z" fill="#1A4A67"/>
<path d="M848.17 496.69H677.06C672.47 496.69 668.71 492.93 668.71 488.34C668.71 483.75 672.47 479.99 677.06 479.99H848.17C852.76 479.99 856.52 483.75 856.52 488.34C856.51 492.94 852.76 496.69 848.17 496.69Z" fill="#1A4A67"/>
<path d="M848.17 539.79H677.06C672.47 539.79 668.71 536.03 668.71 531.44C668.71 526.85 672.47 523.09 677.06 523.09H848.17C852.76 523.09 856.52 526.85 856.52 531.44C856.51 536.03 852.76 539.79 848.17 539.79Z" fill="#1A4A67"/>
<path d="M848.17 578.01H677.06C672.47 578.01 668.71 574.25 668.71 569.66C668.71 565.07 672.47 561.31 677.06 561.31H848.17C852.76 561.31 856.52 565.07 856.52 569.66C856.51 574.26 852.76 578.01 848.17 578.01Z" fill="#1A4A67"/>
<path d="M848.17 616.24H677.06C672.47 616.24 668.71 612.48 668.71 607.89C668.71 603.3 672.47 599.54 677.06 599.54H848.17C852.76 599.54 856.52 603.3 856.52 607.89C856.51 612.48 852.76 616.24 848.17 616.24Z" fill="#1A4A67"/>
<path d="M155.37 321.45H509.29C534.02 321.45 554.25 301.22 554.25 276.49V148.59C554.25 123.86 534.02 103.63 509.29 103.63H155.37C130.64 103.63 110.41 123.86 110.41 148.59V276.49C110.4 301.21 130.63 321.45 155.37 321.45Z" fill="#E6E7E8"/>
<path fill-rule="evenodd" clip-rule="evenodd" d="M155.36 324.26H509.29C535.63 324.26 557.07 302.82 557.06 276.49V148.59C557.06 122.25 535.63 100.82 509.29 100.82H155.36C129.02 100.82 107.59 122.25 107.59 148.59V276.49C107.59 302.83 129.02 324.26 155.36 324.26ZM113.21 148.57C113.21 125.33 132.12 106.42 155.36 106.42H509.29C532.53 106.42 551.44 125.33 551.44 148.57V276.47C551.44 299.71 532.53 318.62 509.29 318.62H155.36C132.12 318.62 113.21 299.71 113.21 276.47V148.57Z" fill="#1A4A67"/>
<path d="M120.05 616.35C115.43 616.35 111.64 612.57 111.64 607.94V414.57C111.64 409.95 115.42 406.16 120.05 406.16C124.67 406.16 128.46 409.94 128.46 414.57V607.94C128.46 612.57 124.67 616.35 120.05 616.35Z" fill="#1A4A67"/>
<path d="M160.32 616.35C155.7 616.35 151.91 612.57 151.91 607.94V521.65C151.91 517.03 155.69 513.24 160.32 513.24C164.94 513.24 168.73 517.02 168.73 521.65V607.94C168.73 612.57 164.94 616.35 160.32 616.35Z" fill="#1A4A67"/>
<path d="M200.59 616.35C195.97 616.35 192.18 612.57 192.18 607.94V439.35C192.18 434.73 195.96 430.94 200.59 430.94C205.21 430.94 209 434.72 209 439.35V607.94C208.99 612.57 205.21 616.35 200.59 616.35Z" fill="#1A4A67"/>
<path d="M240.85 616.35C236.23 616.35 232.44 612.57 232.44 607.94V546C232.44 541.38 236.22 537.59 240.85 537.59C245.47 537.59 249.26 541.37 249.26 546V607.95C249.26 612.57 245.48 616.35 240.85 616.35Z" fill="#1A4A67"/>
<path d="M281.12 616.35C276.5 616.35 272.71 612.57 272.71 607.94V503.51C272.71 498.89 276.49 495.1 281.12 495.1C285.74 495.1 289.53 498.88 289.53 503.51V607.94C289.53 612.57 285.75 616.35 281.12 616.35Z" fill="#1A4A67"/>
<path d="M321.39 616.35C316.77 616.35 312.98 612.57 312.98 607.94V577C312.98 572.38 316.76 568.59 321.39 568.59C326.01 568.59 329.8 572.37 329.8 577V607.94C329.8 612.57 326.01 616.35 321.39 616.35Z" fill="#1A4A67"/>
<path d="M168.01 255.45C191.76 288.14 237.51 295.39 270.19 271.64L184.2 153.27C151.51 177.01 144.26 222.76 168.01 255.45Z" fill="#37C1D3"/>
<path d="M191.89 147.68L231.29 201.91L286.57 161.75C264.15 132.13 222.08 125.75 191.89 147.68Z" fill="#37C1D3"/>
<path d="M312.25 157.11C311.89 156.61 311.47 156.17 311.1 155.68L236.87 209.6L291.93 285.39C332.97 255.58 342.06 198.15 312.25 157.11Z" fill="#37C1D3"/>
<path d="M374.4 159.98C374.4 155.09 378.4 151.08 383.3 151.08H502.65C507.54 151.08 511.55 155.08 511.55 159.98C511.55 164.87 507.55 168.88 502.65 168.88H383.3C378.4 168.88 374.4 164.88 374.4 159.98Z" fill="white"/>
<path d="M374.4 202.6C374.4 197.71 378.4 193.7 383.3 193.7H423.77C428.66 193.7 432.67 197.7 432.67 202.6C432.67 207.49 428.67 211.5 423.77 211.5H383.3C378.4 211.5 374.4 207.5 374.4 202.6Z" fill="white"/>
<path fill-rule="evenodd" clip-rule="evenodd" d="M346.74 482.67C346.74 526.4 382.32 561.98 426.05 561.98C469.78 561.98 505.36 526.4 505.36 482.67C505.36 438.94 469.78 403.36 426.05 403.36C382.32 403.36 346.74 438.94 346.74 482.67ZM352.36 482.66C352.36 442.03 385.41 408.97 426.05 408.97C466.68 408.97 499.74 442.03 499.74 482.66C499.74 523.29 466.68 556.35 426.05 556.35C385.42 556.35 352.36 523.29 352.36 482.66Z" fill="#37C1D3"/>
<path fill-rule="evenodd" clip-rule="evenodd" d="M372.97 482.67C372.97 511.94 396.78 535.75 426.05 535.75C455.32 535.75 479.13 511.94 479.13 482.67C479.13 453.4 455.32 429.59 426.05 429.59C396.78 429.59 372.97 453.4 372.97 482.67ZM378.59 482.66C378.59 456.49 399.88 435.2 426.05 435.2C452.22 435.2 473.51 456.5 473.51 482.66C473.51 508.83 452.22 530.12 426.05 530.12C399.88 530.12 378.59 508.83 378.59 482.66Z" fill="#37C1D3"/>
<path fill-rule="evenodd" clip-rule="evenodd" d="M396.01 482.66C396.01 499.22 409.49 512.7 426.05 512.7C442.61 512.7 456.09 499.23 456.08 482.66C456.08 466.1 442.61 452.62 426.05 452.62C409.49 452.62 396.01 466.1 396.01 482.66ZM401.63 482.67C401.63 469.2 412.58 458.25 426.05 458.25C439.51 458.25 450.46 469.2 450.46 482.67C450.46 496.14 439.51 507.09 426.05 507.09C412.58 507.09 401.63 496.14 401.63 482.67Z" fill="#37C1D3"/>
<path d="M423.01 487.71L423.79 470.36C423.86 468.81 425.33 467.61 426.72 467.68C428.27 467.75 429.47 469.06 429.4 470.61L429.09 477.62L554.84 403.74C556.18 402.95 557.9 403.4 558.69 404.74C559.48 406.08 559.03 407.8 557.69 408.59L423.01 487.71Z" fill="#1A4A67"/>
<path d="M438.85 489.18H426.05C424.5 489.18 423.24 487.92 423.24 486.37C423.24 484.82 424.5 483.56 426.05 483.56H438.85C440.4 483.56 441.66 484.82 441.66 486.37C441.66 487.92 440.4 489.18 438.85 489.18Z" fill="#1A4A67"/>
<path d="M653.62 321.78C653.16 321.78 652.7 321.67 652.27 321.43C650.91 320.68 650.41 318.97 651.16 317.61L681.33 262.67L705.85 286.13L722.35 259.96L736.87 268.75L770.92 184.26L794.66 226.37L817.34 192.78L836.44 216.21L875.55 144.17C876.75 141.96 878.35 139.51 880.04 136.91C881.94 133.99 884.01 130.83 885.55 127.88C883.32 128.72 880.93 129.83 878.71 130.87C876.13 132.08 873.69 133.22 871.52 133.95C870.03 134.45 868.46 133.65 867.96 132.18C867.47 130.71 868.26 129.12 869.73 128.62C871.6 127.99 873.9 126.92 876.33 125.78C881.03 123.58 885.88 121.31 890.08 120.99L894.08 120.68L893 124.54C891.65 129.39 887.98 135.02 884.74 139.97C883.11 142.47 881.57 144.82 880.48 146.84L837.36 226.24L817.75 202.18L794.21 237.04L771.74 197.19L739.59 276.97L724.13 267.61L706.91 294.93L682.72 271.77L656.07 320.3C655.58 321.25 654.62 321.78 653.62 321.78Z" fill="#37C1D3"/>
<path d="M892.5 145.34C890.95 145.34 889.69 144.08 889.69 142.53V123.79C889.69 122.24 890.95 120.98 892.5 120.98C894.05 120.98 895.31 122.24 895.31 123.79V142.53C895.31 144.08 894.05 145.34 892.5 145.34Z" fill="#37C1D3"/>
<path d="M649.88 344.57C647.82 344.57 646.13 342.88 646.13 340.82V101.64C646.13 99.58 647.82 97.89 649.88 97.89C651.94 97.89 653.63 99.58 653.63 101.64V340.83C653.63 342.88 651.94 344.57 649.88 344.57Z" fill="#1A4A67"/>
<path d="M627.08 322.71C627.08 320.65 628.77 318.96 630.83 318.96H870.02C872.08 318.96 873.77 320.65 873.77 322.71C873.77 324.77 872.08 326.46 870.02 326.46H630.83C628.77 326.46 627.08 324.77 627.08 322.71Z" fill="#1A4A67"/>
<path d="M788.68 156.77H719.05C712.18 156.77 706.56 151.15 706.56 144.28C706.56 137.41 712.18 131.79 719.05 131.79H788.68C795.55 131.79 801.17 137.41 801.17 144.28C801.17 151.15 795.54 156.77 788.68 156.77Z" fill="#37C1D3"/>
<rect x="834.58" y="211.5" width="5.62" height="3.75" fill="#1A4A67"/>
<path fill-rule="evenodd" clip-rule="evenodd" d="M834.58 162.13H840.2V155.08H834.58V162.13ZM840.2 176.24H834.58V169.19H840.2V176.24ZM834.58 190.35H840.2V183.3H834.58V190.35ZM834.58 204.45H840.2V197.4H834.58V204.45Z" fill="#1A4A67"/>
<path d="M840.2 148.03H834.58V147.09H833.64V141.47H840.2V148.03Z" fill="#1A4A67"/>
<rect x="814.49" y="141.47" width="9.58" height="5.62" fill="#1A4A67"/>
<rect x="801.17" y="141.47" width="3.75" height="5.62" fill="#1A4A67"/>
<path d="M839.12 231.98H835.66C830.98 231.98 827.15 228.15 827.15 223.47V220.01C827.15 215.33 830.98 211.5 835.66 211.5H839.12C843.8 211.5 847.63 215.33 847.63 220.01V223.47C847.63 228.15 843.8 231.98 839.12 231.98Z" fill="#37C1D3"/>
<path d="M1083.84 881.72L1075 941.68L1094.74 946.7L1100.25 883.59C1100.24 883.58 1089.86 879.3 1083.84 881.72Z" fill="white"/>
<path fill-rule="evenodd" clip-rule="evenodd" d="M1071.84 943.78L1097.25 950.23L1103.22 881.79L1101.31 881C1100.14 880.51 1089.67 876.35 1082.79 879.12L1081.29 879.72L1071.84 943.78ZM1092.23 943.16L1078.15 939.58L1086.36 883.93C1089.69 883.37 1094.32 884.52 1097.26 885.49L1092.23 943.16Z" fill="#1A4A67"/>
<path d="M997.62 970.48C997.62 970.48 1012.4 974.4 1040.22 974.51C1068.04 974.62 1098.99 973.48 1104.31 968.98C1109.63 964.48 1110.8 929.31 1101.57 929.96C1092.34 930.61 1089.69 944.21 1072.6 933.44C1057.95 924.21 1048.17 944.23 1024.27 951.07C1000.37 957.91 990.69 960.65 997.62 970.48Z" fill="#D1D3D4"/>
<path fill-rule="evenodd" clip-rule="evenodd" d="M1040.21 977.32C1041.57 977.33 1042.9 977.33 1044.21 977.33C1080.43 977.33 1101.26 975.25 1106.12 971.14C1111.83 966.31 1112.78 942.73 1108.87 933.11C1106.65 927.64 1103.21 927.03 1101.37 927.17C1097.47 927.44 1094.58 929.51 1092.04 931.33L1092.04 931.332C1087.45 934.611 1083.83 937.198 1074.09 931.07C1063.92 924.66 1055.77 930.18 1046.34 936.57C1040.04 940.84 1032.89 945.68 1023.33 948.42C1004.6 953.77 995.19 956.46 993.03 962.6C992.04 965.41 992.79 968.51 995.32 972.1L995.91 972.94L996.9 973.2L996.906 973.201C997.6 973.381 1012.44 977.21 1040.21 977.32ZM1040.23 971.71C1017.18 971.61 1003.09 968.85 999.35 968.01C998.4 966.47 998.06 965.28 998.34 964.48C999.536 961.092 1010.64 957.913 1024.89 953.834L1025.04 953.79C1035.31 950.86 1043.18 945.53 1049.5 941.24C1059.05 934.77 1064.35 931.59 1071.11 935.84C1084.04 943.98 1090.3 939.51 1095.32 935.91L1095.38 935.868C1097.57 934.305 1099.48 932.949 1101.78 932.79H1101.81C1102.34 932.79 1103.07 933.73 1103.67 935.22C1107.43 944.43 1105 964.73 1102.5 966.85C1099.59 969.31 1081.71 971.89 1040.23 971.71Z" fill="#1A4A67"/>
<path d="M1034.65 900.2C1035.41 897.78 1037.72 895.83 1039.7 893.85C1057.84 875.68 1051.33 850.38 1046.66 828.19C1035.6 775.55 1039.69 721.43 1038.89 668.06C1038.11 615.97 1029.69 564.23 1015.28 514.42C1010.05 496.32 1002.6 468.29 1029.03 471.84C1041.55 473.52 1053.69 472.17 1065.83 468.95C1072.22 467.26 1065.45 465.42 1072.22 467.26C1095.27 473.52 1108.45 539.93 1104.96 556.42C1098.02 589.25 1095.67 599.76 1096.57 633.95C1097.85 682.44 1093.87 731.35 1102.49 778.94C1106.72 802.26 1111.35 825.5 1115.87 848.75C1118.51 862.31 1131.09 891.57 1124.93 904.44C1116.47 922.12 1072.43 910.73 1058.03 911.35C1047.22 911.83 1032.06 908.45 1034.65 900.2Z" fill="white"/>
<path fill-rule="evenodd" clip-rule="evenodd" d="M1073.62 915.37C1081.29 916.23 1090.07 917.21 1098.35 917.21C1111.34 917.21 1123.11 914.78 1127.49 905.68C1132.42 895.37 1126.87 876.89 1122.41 862.04C1120.83 856.79 1119.35 851.83 1118.65 848.24L1115.66 832.93C1112.17 815.09 1108.57 796.64 1105.27 778.46C1099.24 745.204 1099.43 710.574 1099.61 677.083L1099.61 676.86C1099.69 662.78 1099.77 648.21 1099.39 633.9C1098.51 600.55 1100.75 589.95 1107.41 558.48L1107.72 557.03C1111.22 540.43 1098.21 471.43 1072.96 464.57L1072.87 464.545C1069.25 463.566 1068.37 463.329 1067.1 464.42L1065.95 465.67L1065.98 465.99L1065.95 466C1065.73 466.068 1065.46 466.155 1065.11 466.25C1052.28 469.65 1040.6 470.57 1029.41 469.07C1021.28 467.98 1015.27 469.61 1011.55 473.93C1004.02 482.66 1008.14 499.82 1012.59 515.21C1027.43 566.51 1035.34 617.95 1036.09 668.11C1036.28 681.11 1036.19 694.39 1036.09 707.24C1035.79 747.29 1035.49 788.7 1043.91 828.78L1044.61 832.07L1044.61 832.086C1049.17 853.521 1053.89 875.684 1037.71 891.88L1036.81 892.77L1036.8 892.78C1034.93 894.597 1032.82 896.655 1031.97 899.38C1031.11 902.12 1031.57 904.76 1033.29 907C1037.51 912.49 1049.1 914.57 1058.16 914.18C1061.66 914.031 1067.13 914.643 1073.51 915.358L1073.62 915.37ZM1074.25 909.78C1068.32 909.11 1063.11 908.53 1059.27 908.53C1058.8 908.53 1058.34 908.54 1057.91 908.55C1049.17 908.92 1040.15 906.69 1037.74 903.56C1037.14 902.78 1037.02 902.03 1037.33 901.04C1037.76 899.67 1039.27 898.2 1040.73 896.78L1041.69 895.83C1060.02 877.47 1054.76 852.72 1050.11 830.88L1049.42 827.6C1041.12 788.157 1041.42 747.107 1041.71 707.4L1041.71 707.26C1041.81 694.38 1041.91 681.07 1041.71 668.01C1040.95 617.35 1032.97 565.41 1017.99 513.63C1015.07 503.54 1009.63 484.74 1015.81 477.58C1018.21 474.79 1022.54 473.8 1028.67 474.62C1040.58 476.22 1052.98 475.25 1066.56 471.66C1067.4 471.44 1069.3 470.94 1070.54 469.71C1070.67 469.748 1070.81 469.786 1070.96 469.825C1071.13 469.87 1071.31 469.917 1071.49 469.97C1092.05 475.55 1105.8 538.92 1102.22 555.84L1101.91 557.3C1095.14 589.25 1092.87 600.01 1093.76 634.03C1094.14 648.25 1094.06 662.77 1093.98 676.81C1093.79 710.63 1093.6 745.61 1099.73 779.45C1103 797.481 1106.57 815.747 1110.02 833.433L1110.13 833.99L1113.12 849.3C1113.87 853.16 1115.33 858.02 1117.02 863.64L1117.04 863.706C1121 876.89 1126.4 894.894 1122.41 903.24C1116.98 914.57 1091.26 911.69 1074.25 909.78Z" fill="#1A4A67"/>
<path d="M1101.98 403.47C1101.98 403.47 1113.07 456.2 1112.13 477.75C1111.19 499.3 1092.46 531.45 1092.46 531.45L1080.36 403.48H1101.98V403.47Z" fill="white"/>
<path fill-rule="evenodd" clip-rule="evenodd" d="M1077.28 400.66L1090.49 540.41L1094.9 532.86C1095.68 531.52 1113.99 499.86 1114.95 477.87C1115.88 456.494 1105.46 406.35 1104.76 402.996C1104.75 402.953 1104.75 402.917 1104.74 402.89L1104.27 400.66H1077.28ZM1083.45 406.29L1083.45 406.28V406.29H1083.45ZM1083.45 406.29L1094.39 521.93C1099.89 511.15 1108.71 491.81 1109.33 477.63C1110.13 459.17 1101.77 416.52 1099.7 406.29H1083.45Z" fill="#1A4A67"/>
<path d="M1035.79 306.78L1038.23 352.2L1073.78 365.91C1073.78 365.91 1052.4 334.63 1056.03 306.78C1059.64 278.93 1035.79 306.78 1035.79 306.78Z" fill="white"/>
<path fill-rule="evenodd" clip-rule="evenodd" d="M1035.52 354.16L1081.18 371.77L1076.11 364.32C1075.9 364.01 1055.38 333.58 1058.82 307.14C1059.52 301.74 1059.88 294.3 1054.95 292.11C1048.19 289.11 1037.82 300.09 1033.66 304.95L1032.93 305.8L1035.52 354.16ZM1067.08 360.31L1040.93 350.23L1038.66 307.77C1044.14 301.59 1050.84 296.47 1052.66 297.25C1052.66 297.25 1052.66 297.251 1052.66 297.251C1052.72 297.296 1054.26 298.487 1053.23 306.42C1050.54 327.14 1060.86 349.23 1067.08 360.31Z" fill="#1A4A67"/>
<path d="M1004.02 213.85C1004.02 213.85 996.28 224.11 1003.83 255.56C1011.38 287.02 1023.64 313.88 1033.12 311.98C1059.33 306.74 1068.53 288.22 1077.62 272.32C1088.76 252.82 1066.64 205.26 1066.64 205.26L1045.74 193.98L1004.02 213.85Z" fill="white"/>
<path fill-rule="evenodd" clip-rule="evenodd" d="M1001.1 256.22C1007.71 283.76 1019.68 314.89 1032.19 314.89C1032.68 314.89 1033.18 314.84 1033.68 314.76C1059.76 309.55 1069.78 291.88 1078.62 276.29L1080.07 273.74C1091.79 253.21 1070.12 206.1 1069.19 204.1L1068.8 203.25L1045.82 190.85L1002.19 211.61L1001.78 212.16C1001.43 212.62 993.33 223.85 1001.1 256.22ZM1006.57 254.91C1000.41 229.27 1004.77 218.4 1006 216.02L1045.66 197.14L1064.48 207.29C1067.31 213.64 1084.71 254.27 1075.19 270.93L1073.73 273.5L1073.72 273.511C1065.08 288.757 1056.13 304.521 1032.58 309.23C1032.44 309.26 1032.3 309.27 1032.15 309.27C1026.75 309.27 1015.23 290.97 1006.57 254.91Z" fill="#1A4A67"/>
<path d="M976.11 205.37C973.82 197.99 977.84 188.55 983.21 183.99C985.28 182.23 987.89 181.11 990.5 181.37C992.46 181.56 994.38 182.51 996.33 182.19C1002.17 181.22 1002.87 172.61 1008.29 170.86C1012.33 169.56 1016.21 173.22 1020.33 174.19C1023.44 174.92 1026.66 174.08 1029.79 173.43C1038.6 171.58 1046.77 167.35 1055.8 166.26C1063.42 165.34 1071.37 166.2 1078.26 169.9C1085.46 173.76 1090.62 180.86 1093.37 189.06C1095.01 193.96 1095.54 199.42 1094.22 204.44C1095.3 200.31 1102.73 204.75 1103.94 206.37C1108.66 212.75 1109.47 226.58 1106.96 234C1104.97 239.88 1101.7 245.08 1099.88 251.04C1097.72 258.15 1096.82 266.04 1092.88 272.34C1088.37 279.57 1064.08 303.3 1056.37 301.3C1058.75 294.76 1047.15 288.82 1047.58 281.79C1048.01 274.76 1052.4 238.17 1017.82 231.32C1004.08 228.6 1021.71 224.14 1007.94 224.69C1001.4 224.95 994.85 223.68 988.72 221.19C983.98 219.27 979.37 212.2 976.76 207.03C976.5 206.5 976.28 205.95 976.11 205.37Z" fill="#1A4A67"/>
<path d="M1045.42 252.79C1045.42 252.79 1059.79 240.48 1058.74 257.13C1057.69 273.78 1044.24 278.61 1044.24 278.61" fill="white"/>
<path d="M1045.2 281.27L1043.3 275.98C1043.76 275.81 1055.02 271.47 1055.94 256.96C1056.19 253.01 1055.42 251.54 1054.98 251.32C1053.75 250.71 1049.81 252.75 1047.26 254.93L1043.61 250.66C1045 249.47 1052.21 243.65 1057.5 246.29C1060.56 247.82 1061.93 251.53 1061.56 257.32C1060.38 275.6 1045.81 281.04 1045.2 281.27Z" fill="#1A4A67"/>
<path d="M1039.12 883.78L1026.11 942.97L1045.45 949.35L1055.36 886.78C1055.36 886.79 1045.3 881.79 1039.12 883.78Z" fill="#A7A9AC"/>
<path fill-rule="evenodd" clip-rule="evenodd" d="M1022.82 944.85L1047.71 953.07L1058.46 885.19L1056.61 884.27C1055.48 883.7 1045.36 878.82 1038.26 881.1L1036.73 881.6L1022.82 944.85ZM1043.19 945.65L1029.4 941.1L1041.48 886.15C1044.86 885.83 1049.38 887.29 1052.25 888.47L1043.19 945.65Z" fill="#1A4A67"/>
<path d="M946.91 966.3C946.91 966.3 961.38 971.24 989.12 973.3C1016.86 975.36 1047.82 976.39 1053.44 972.27C1059.07 968.15 1062.69 933.16 1053.44 933.16C1044.19 933.16 1040.6 946.54 1024.29 934.6C1010.32 924.37 999.16 943.66 974.84 948.8C950.53 953.95 940.68 956.01 946.91 966.3Z" fill="#A7A9AC"/>
<path fill-rule="evenodd" clip-rule="evenodd" d="M988.91 976.1C1005.23 977.32 1018.62 977.92 1029.06 977.92C1043.3 977.92 1052.03 976.79 1055.1 974.53C1061.14 970.12 1063.73 946.66 1060.51 936.79C1058.67 931.18 1055.29 930.34 1053.44 930.34C1049.54 930.34 1046.52 932.192 1043.86 933.83L1043.84 933.84L1043.82 933.854C1039.01 936.798 1035.22 939.119 1025.95 932.33C1016.27 925.232 1007.77 930.153 997.931 935.851L997.88 935.88C991.3 939.7 983.83 944.03 974.1 946.09C955.04 950.12 945.47 952.15 942.88 958.12C941.7 960.85 942.23 964.01 944.5 967.76L945.03 968.63L946 968.96L946.009 968.963C946.733 969.204 961.257 974.049 988.91 976.1ZM989.34 970.5C966.34 968.79 952.49 965.05 948.81 963.95C947.96 962.35 947.7 961.14 948.04 960.34C949.48 957.03 960.86 954.62 975.43 951.54C985.861 949.334 994.07 944.578 1000.67 940.751L1000.71 940.73C1010.69 934.95 1016.2 932.14 1022.64 936.86C1034.97 945.9 1041.53 941.87 1046.79 938.63C1049.12 937.2 1051.13 935.97 1053.45 935.97C1053.99 935.97 1054.66 936.98 1055.17 938.53C1058.28 947.98 1054.44 968.07 1051.8 970.01C1048.71 972.26 1030.69 973.57 989.34 970.5Z" fill="#1A4A67"/>
<path d="M988.76 900.36C989.69 898.19 992.13 896.57 994.25 894.88C1013.62 879.44 1008.89 855.89 1005.79 835.31C998.44 786.49 1006.31 737.28 1009.25 688.45C1012.11 640.79 1007.34 592.96 996.45 546.5C992.49 529.62 987.03 503.52 1013.14 508.46C1025.51 510.8 1037.72 510.34 1050.05 508.18C1056.54 507.04 1049.92 504.93 1056.54 507.04C1079.09 514.24 1087.86 538.29 1083.23 553.13C1074.01 582.7 1070.66 629.65 1069.17 660.96C1067.05 705.36 1059.66 749.81 1064.93 793.87C1067.51 815.46 1070.51 836.99 1073.39 858.54C1075.07 871.11 1085.58 898.65 1078.53 910.03C1068.85 925.65 1025.72 912.41 1011.31 912.06C1000.49 911.79 985.6 907.73 988.76 900.36Z" fill="white"/>
<path fill-rule="evenodd" clip-rule="evenodd" d="M1026.68 916.96C1036.11 918.548 1047.22 920.42 1057.1 920.42C1067.6 920.42 1076.71 918.31 1080.92 911.49C1086.66 902.244 1082.39 884.915 1078.96 870.978L1078.96 870.96L1078.92 870.808C1077.74 865.984 1076.62 861.426 1076.18 858.16L1074.25 843.8L1074.13 842.941C1071.95 826.738 1069.7 810.009 1067.72 793.53C1064.03 762.736 1066.65 731.064 1069.18 700.439L1069.18 700.39L1069.21 700.072C1070.26 687.301 1071.35 674.102 1071.97 661.09C1074.31 612.17 1078.99 576.13 1085.91 553.96C1090.71 538.58 1082.18 512.26 1057.39 504.35C1053.76 503.19 1052.9 502.92 1051.59 503.92L1050.39 505.06V505.23C1050.17 505.28 1049.9 505.34 1049.56 505.4C1036.49 507.69 1024.74 507.79 1013.66 505.69C1005.27 504.1 999.02 505.4 995.05 509.55C987.53 517.41 990.42 533.07 993.71 547.13C1004.91 594.92 1009.2 642.41 1006.44 688.27C1005.74 699.949 1004.74 711.87 1003.76 723.406L1003.71 724.03L1003.71 724.082C1000.61 760.676 997.403 798.518 1003.01 835.73L1003.47 838.76C1006.51 858.54 1009.65 879 992.5 892.68L991.54 893.43L991.534 893.435C989.525 894.994 987.259 896.753 986.18 899.25C985.14 901.69 985.33 904.12 986.73 906.3C990.84 912.7 1004.57 914.71 1011.25 914.87C1014.71 914.949 1020.12 915.858 1026.4 916.912L1026.62 916.95L1026.68 916.96ZM991.45 903.26C991.14 902.77 990.99 902.28 991.34 901.47C991.835 900.313 993.406 899.097 994.94 897.909L994.99 897.87L996.01 897.07C1015.7 881.36 1012.16 858.27 1009.03 837.9L1008.57 834.88C1003.06 798.335 1006.24 760.842 1009.3 724.575L1009.31 724.5L1009.36 723.851C1010.34 712.292 1011.34 700.35 1012.05 688.61C1014.84 642.21 1010.51 594.18 999.18 545.85L999.16 545.762C997.025 536.622 993.08 519.73 999.11 513.44C1001.68 510.75 1006.22 510 1012.62 511.21C1024.38 513.44 1036.77 513.35 1050.54 510.94L1050.57 510.934C1051.52 510.762 1053.38 510.428 1054.67 509.38C1054.97 509.48 1055.3 509.59 1055.69 509.71C1077.18 516.57 1084.66 539.13 1080.55 552.29C1073.39 575.23 1068.75 610.74 1066.36 660.83C1065.75 673.725 1064.66 686.855 1063.61 699.569L1063.58 699.94C1061.02 730.86 1058.38 762.84 1062.13 794.21C1064.11 810.713 1066.37 827.447 1068.55 843.655L1068.67 844.56L1070.6 858.92C1071.07 862.463 1072.16 866.916 1073.43 872.07L1073.49 872.32C1076.51 884.55 1080.63 901.31 1076.14 908.55C1069.95 918.544 1044.46 914.255 1027.58 911.415L1027.55 911.41C1020.97 910.3 1015.28 909.35 1011.38 909.25C1002.37 909.03 993.43 906.34 991.45 903.26Z" fill="#1A4A67"/>
<path d="M963.6 393.74C954.26 400.8 944.32 407.05 933.92 412.42C925.83 416.59 903.89 430.66 895.39 422.05C892.91 419.53 891.83 415.98 890.94 412.56C885.67 392.37 878.02 372.91 870.54 353.46C863.85 336.09 855.82 317.77 856.44 298.77C857.08 279.37 855.92 253.2 854.07 248.45C852.22 243.7 837.05 215.74 836.77 224.44C836.49 233.14 851.11 257.06 844.44 256.17C837.77 255.28 823.52 260.84 825.2 270.95C826.88 281.05 837.55 302.84 837.55 302.84C842.22 322.47 847.14 342.06 852.25 361.58C856.07 376.18 859.99 390.78 864.36 405.23C868.61 419.28 872.55 434.53 884.91 443.85C886.52 445.07 888.23 446.15 890.05 447.02C904.69 454.02 921.9 446.69 936.14 438.91C966.69 422.22 995.65 402.96 1024.83 384.03C1019.12 378.42 1013.41 372.82 1007.71 367.21C1006.34 365.87 1004.84 364.45 1002.95 364.17C1000.74 363.83 998.63 365.11 996.8 366.4C987.69 372.79 979.72 380.62 971.17 387.75C968.69 389.8 966.16 391.8 963.6 393.74Z" fill="white"/>
<path fill-rule="evenodd" clip-rule="evenodd" d="M888.83 449.56C893.36 451.73 898.1 452.63 902.9 452.63C914.92 452.63 927.26 446.96 937.54 441.38C964.6 426.595 990.806 409.546 1016.16 393.053L1016.44 392.87L1029.34 384.49L1009.72 365.21C1008.35 363.86 1006.27 361.83 1003.41 361.39C1000.3 360.92 997.62 362.4 995.22 364.09C989 368.45 983.25 373.51 977.7 378.4L977.217 378.825C974.629 381.103 972.046 383.377 969.4 385.58C966.96 387.61 964.47 389.59 961.94 391.5C952.77 398.43 942.92 404.63 932.66 409.92C931.6 410.47 930.3 411.18 928.83 411.99L928.805 412.004C920.525 416.57 903.324 426.054 897.42 420.07C895.42 418.06 894.48 414.91 893.68 411.85C888.68 392.68 881.47 373.96 874.49 355.85L871.17 347.27C865.05 331.61 858.73 315.41 859.27 298.86C859.88 280.11 858.87 252.99 856.7 247.43C856.59 247.15 844.12 219.98 837.43 219.98C837.29 219.98 837.16 219.99 837.03 220.01C836.15 220.16 834.08 220.88 833.97 224.34C833.82 228.739 836.619 235.626 839.328 242.294L839.33 242.3C840.75 245.79 842.76 250.75 843.27 253.27C838.16 253.17 830.65 255.6 826.18 260.22C823.05 263.45 821.75 267.32 822.43 271.4C824.07 281.27 833.57 301.06 834.89 303.78C839.34 322.51 844.27 342.19 849.53 362.28C853.19 376.26 857.19 391.23 861.67 406.03L862.44 408.6L862.45 408.634C866.597 422.483 870.88 436.788 883.21 446.09C885.1 447.52 886.94 448.66 888.83 449.56ZM830.2 264.14C833.4 260.84 839.06 258.89 842.86 258.89C843.28 258.89 843.69 258.91 844.06 258.97C845.67 259.18 847.14 258.64 848.04 257.48C850.24 254.65 848.44 249.88 844.52 240.21C843.24 237.08 841.8 233.51 840.8 230.37C844.8 236.41 850.13 246.12 851.44 249.49C852.97 253.4 854.3 277.96 853.62 298.69C853.04 316.387 859.578 333.134 865.897 349.321L865.9 349.33L869.21 357.88L869.344 358.228C876.213 376.08 883.312 394.532 888.2 413.28C889.19 417.08 890.4 421.03 893.37 424.04C902.265 433.044 920.537 422.973 931.48 416.941L931.5 416.93L931.889 416.716C933.149 416.024 934.265 415.411 935.19 414.93C945.73 409.5 955.86 403.13 965.28 396C967.89 394.03 970.44 392 972.95 389.91C975.79 387.53 978.58 385.08 981.36 382.63C986.8 377.84 992.43 372.89 998.39 368.7C999.84 367.68 1001.32 366.78 1002.5 366.95C1003.49 367.1 1004.55 368.07 1005.72 369.22L1020.35 383.59L1013.31 388.16L1013.21 388.227C987.899 404.696 961.724 421.73 934.78 436.45C921.67 443.61 904.87 451 891.25 444.49C889.7 443.75 888.18 442.81 886.59 441.61C875.72 433.41 871.7 419.99 867.81 407L867.03 404.42C862.58 389.7 858.59 374.79 854.95 360.87C849.67 340.71 844.73 320.96 840.27 302.19L840.06 301.6C840.058 301.595 840.05 301.578 840.036 301.549C839.467 300.376 829.512 279.85 827.96 270.49C827.57 268.17 828.31 266.1 830.2 264.14Z" fill="#1A4A67"/>
<path d="M1062.77 409.29C1062.77 409.29 1032.74 358.9 1055.66 349.48C1078.58 340.06 1101.98 403.47 1101.98 403.47L1064.25 418.35L1062.77 409.29Z" fill="#37C1D3"/>
<path fill-rule="evenodd" clip-rule="evenodd" d="M1060.08 410.27L1062.04 422.24L1105.58 405.08L1104.62 402.5C1103.92 400.61 1087.26 355.99 1067.38 347.27C1062.98 345.34 1058.67 345.21 1054.59 346.89C1050.05 348.75 1046.96 352.08 1045.39 356.78C1039.6 374.14 1057.51 405.86 1060.08 410.27ZM1056.73 352.07C1057.94 351.58 1059.16 351.33 1060.42 351.33C1061.93 351.33 1063.49 351.69 1065.12 352.41C1080.32 359.08 1094.53 392.33 1098.35 401.88L1066.46 414.45L1065.46 408.31L1065.19 407.85C1059.68 398.6 1046.34 371.72 1050.73 358.54C1051.77 355.42 1053.73 353.3 1056.73 352.07Z" fill="#1A4A67"/>
<path d="M993.36 518.57C993.36 516.49 989.89 462.37 997.52 427.68C1005.15 392.99 997.52 363.15 1023.89 342.34C1050.26 321.53 1071.76 349.28 1078.7 363.85C1085.64 378.42 1091.46 424.68 1092.44 449.19C1093.44 474.24 1106.61 527.17 1107.14 528.29C1117.6 550.04 1110.72 548.44 1109.81 550.51C1104.16 563.39 1067.41 565.89 1058.58 561.33C1039.22 551.33 1035.11 545.89 1014.24 549.1C1005.22 550.49 995.25 547.71 992.57 544.94C989.89 542.17 993.36 518.57 993.36 518.57Z" fill="#37C1D3"/>
<path fill-rule="evenodd" clip-rule="evenodd" d="M1057.3 563.81C1060.44 565.44 1066.04 566.22 1072.43 566.22C1080.99 566.22 1090.97 564.83 1098.43 562.17C1105.58 559.63 1110.23 556.2 1112.25 551.95C1112.3 551.92 1112.35 551.89 1112.4 551.85C1116.76 548.77 1117.72 543.73 1109.79 527.26C1108.7 524.05 1096.24 473.17 1095.27 449.05C1094.25 423.67 1088.29 377.37 1081.26 362.61C1075.72 350.98 1064.06 336.18 1049.42 332.77C1040.21 330.62 1031.05 333.09 1022.17 340.1C1002.73 355.46 1000.91 375.06 998.81 397.75C997.94 407.15 997.04 416.87 994.8 427.05C990.28 447.58 988.75 479.46 990.49 516.81C990.507 517.223 990.523 517.57 990.536 517.846C990.547 518.071 990.556 518.25 990.56 518.38C988.16 534.79 988.16 544.38 990.57 546.87C994.01 550.45 1005.06 553.34 1014.68 551.86C1030.9 549.37 1035.96 552.16 1048.2 558.91C1050.87 560.39 1053.84 562.03 1057.3 563.81ZM1050.9 553.997C1041.23 548.659 1035.25 545.36 1024.83 545.36C1021.65 545.36 1018.05 545.66 1013.81 546.34C1005.31 547.65 996.41 544.88 994.79 543.26C993.78 541.15 994.67 529.01 996.14 519L996.17 518.59C996.17 518.38 996.14 517.7 996.09 516.59C994.37 479.71 995.86 448.36 1000.27 428.3C1002.57 417.862 1003.49 408.035 1004.37 398.535L1004.39 398.31C1006.37 376.91 1008.09 358.42 1025.64 344.56C1033.11 338.66 1040.69 336.55 1048.13 338.29C1061.7 341.45 1072.14 356.61 1076.17 365.07C1082.8 378.98 1088.67 424.99 1089.64 449.31C1090.63 473.92 1103.54 527.26 1104.62 529.51C1109.62 539.9 1111.14 545.89 1109.15 547.29C1108.58 547.68 1107.73 548.29 1107.25 549.38C1105.98 552.27 1102.28 554.87 1096.54 556.9C1083.31 561.59 1064.89 561.42 1059.88 558.83C1056.48 557.07 1053.54 555.45 1050.91 554L1050.9 553.997Z" fill="#1A4A67"/>
<path d="M978.65 370.16C978.65 370.16 1027.36 318.23 1046.03 341.8C1064.71 365.37 998.59 413.94 998.59 413.94L968.58 374.92L978.65 370.16Z" fill="#78DFE8"/>
<path fill-rule="evenodd" clip-rule="evenodd" d="M964.24 373.87L998.04 417.83L1000.27 416.2C1002.23 414.76 1048.49 380.51 1051.96 354.65C1052.72 349.03 1051.46 344.12 1048.24 340.05C1044.65 335.53 1039.88 333.11 1034.06 332.87L1034.03 332.869C1033.72 332.859 1033.42 332.85 1033.11 332.85C1011.1 332.85 980.86 363.77 976.97 367.84L964.24 373.87ZM999.12 410.01L972.94 375.97L980.34 372.46L980.71 372.07C981.03 371.73 1013.44 337.66 1033.84 338.48C1038.01 338.66 1041.28 340.31 1043.84 343.54C1046.1 346.41 1046.94 349.8 1046.39 353.9C1043.63 374.42 1008.34 402.89 999.12 410.01Z" fill="#1A4A67"/>
</svg>
