<?xml version="1.0" encoding="utf-8"?>
<!-- Generator: Adobe Illustrator 22.0.0, SVG Export Plug-In . SVG Version: 6.00 Build 0)  -->
<svg version="1.1" id="图层_1" xmlns="http://www.w3.org/2000/svg" xmlns:xlink="http://www.w3.org/1999/xlink" x="0px" y="0px"
	 viewBox="0 0 600 405" enable-background="new 0 0 600 405" xml:space="preserve">
<g>
	<g>
		<g>
			<defs>
				<rect id="SVGID_1_" x="0.3" y="-2" width="599.7" height="407.2"/>
			</defs>
			<clipPath id="SVGID_2_">
				<use xlink:href="#SVGID_1_"  overflow="visible"/>
			</clipPath>
			<g clip-path="url(#SVGID_2_)">
				<g>
					<linearGradient id="SVGID_3_" gradientUnits="userSpaceOnUse" x1="-57.408" y1="499.8698" x2="644.5469" y2="499.8698">
						<stop  offset="6.275474e-07" style="stop-color:#EBCFFF"/>
						<stop  offset="1" style="stop-color:#29ABE2"/>
					</linearGradient>
					<ellipse fill="url(#SVGID_3_)" cx="293.6" cy="499.9" rx="351" ry="207"/>
					<ellipse fill="#2665AA" cx="135.8" cy="363.3" rx="26.5" ry="17.1"/>
					<ellipse fill="#7CACE0" cx="223.2" cy="346.7" rx="22.6" ry="16.5"/>
					<ellipse fill="#427AB7" cx="160.8" cy="328.4" rx="10.5" ry="7.6"/>
					<g>
						<g>
							<path fill="#2665AA" d="M187.8,328.3c0.2,0,0.4,0,0.6,0c1.3,0,1.3-2,0-2c-0.2,0-0.4,0-0.6,0
								C186.5,326.3,186.5,328.3,187.8,328.3L187.8,328.3z"/>
						</g>
					</g>
					<g>
						<g>
							<path fill="#2665AA" d="M158.7,357.9c1.3,0,1.3-2,0-2C157.4,355.9,157.4,357.9,158.7,357.9L158.7,357.9z"/>
						</g>
					</g>
					<g>
						<g>
							<path fill="#2665AA" d="M181.3,390c12.9,0,12.9-20,0-20C168.4,370,168.4,390,181.3,390L181.3,390z"/>
						</g>
					</g>
					<g>
						<g>
							<path fill="#2665AA" d="M456,358.3c1.9,0,3.7,0,5.6,0c2.6,0,5.3-1.1,7.1-2.9c1.7-1.7,3-4.6,2.9-7.1c-0.1-2.6-1-5.3-2.9-7.1
								c-2-1.8-4.4-2.9-7.1-2.9c-1.9,0-3.7,0-5.6,0c-2.6,0-5.3,1.1-7.1,2.9c-1.7,1.7-3,4.6-2.9,7.1c0.1,2.6,1,5.3,2.9,7.1
								C450.8,357.2,453.2,358.3,456,358.3L456,358.3z"/>
						</g>
					</g>
					<g>
						<g>
							<path fill="#2665AA" d="M511,395.4c12.9,0,12.9-20,0-20C498.1,375.4,498.1,395.4,511,395.4L511,395.4z"/>
						</g>
					</g>
					<ellipse fill="#2665AA" cx="419.8" cy="365.2" rx="20.9" ry="13.8"/>
					<ellipse fill="#3075C1" cx="376" cy="346.2" rx="9.8" ry="8.6"/>
					<polygon fill="#7BACDB" points="-4.8,407 58.1,370.8 173.6,399.9 195.5,375 284,407 315.2,375 362.1,407 					"/>
					<ellipse fill="#2A5E8C" cx="83.6" cy="363.1" rx="5.9" ry="4.3"/>
					<polygon fill="#B5D9F7" points="58.1,370.8 203.9,407 72.7,407 					"/>
					<polygon fill="#B5D9F7" points="195.5,378.9 238.3,407 283.2,407 195.5,375 					"/>
					<polygon fill="#9ECEEF" points="315.2,375 313.6,383 320.7,388.9 323,407 362.3,407 					"/>
				</g>
				<g>
					<defs>
						<rect id="SVGID_4_" x="-0.1" y="-0.3" width="600.8" height="405.9"/>
					</defs>
					<clipPath id="SVGID_5_">
						<use xlink:href="#SVGID_4_"  overflow="visible"/>
					</clipPath>
					<g clip-path="url(#SVGID_5_)">
						<g>
							<g opacity="0.6">
								<linearGradient id="SVGID_6_" gradientUnits="userSpaceOnUse" x1="-98.805" y1="294.6909" x2="790.4056" y2="294.6909">
									<stop  offset="0" style="stop-color:#599EE2"/>
									<stop  offset="1" style="stop-color:#0369A9"/>
								</linearGradient>
								<path fill="url(#SVGID_6_)" d="M68.4,534.1c-9.7-17.6,92.5-27.2,136.6-42.2c52.1-17.7,15.4-41.6-43.7-58.2
									s-178.9-4.5-226.5-22.8c-86.4-33.1,4.5-142.3,150.8-163.6c47.3-6.9,73,2.5,104.4-7.8c68.8-22.6,44.9-45.2,70.5-79.5
									c58.4-78.4,163-8.4,189.4-32c13.6-12.2-9.1-24.8-12.3-37.3s24.8-38.2,83.1-37.9c29.9,0.2,62.3,8.4,78.7,20.1
									c107.2,76.5-51.2,92.8,49.6,132.8c39.7,15.8,119.4,26.9,137.6,44.4c17.9,17.2-30.6,34.2-83.6,47.7
									c-53,13.4-24.7,38.8-42.3,56c-24.9,24.3-44.7,35.5,12.3,57.1c12.1,4.6,24,9.5,23,14.8c-2.3,12.2-66.5,18.4-106.3,27
									c-48.9,10.6-63.5,26.9-54.4,41.7c9.1,14.8,38.8,28.7,68.1,42.2c-119.1-6.6-244.5-7.7-365.7-3.3c-56,2-115.9,5.1-167.3-0.1"
									/>
							</g>
							<g opacity="0.6">
								
									<linearGradient id="SVGID_7_" gradientUnits="userSpaceOnUse" x1="549.649" y1="313.2675" x2="1117.6619" y2="313.2675" gradientTransform="matrix(-1 0 0 1 1207.3256 0)">
									<stop  offset="0" style="stop-color:#599EE2"/>
									<stop  offset="1" style="stop-color:#0369A9"/>
								</linearGradient>
								<path fill="url(#SVGID_7_)" d="M607.8,478.8c3.5-12.5-34-19.2-50.2-29.8c-19.1-12.5-5.7-29.4,16.1-41.1
									c21.7-11.8,51.1-21.1,68.6-34c31.7-23.4,12.8-56.3-40.9-71.3c-17.4-4.8-38.3-8.2-49.8-15.5c-25.3-16,16.3-76.4-0.6-94.1
									c-15.2-15.9-73.5,15.7-83.2-1c-5-8.6,3.3-17.5,4.5-26.4c1.2-8.9-10.9-19.7-32.2-19.5c-11,0.1-20.5,3.3-27.1,6.9
									c-47.1,25.6-11.2,30.1-48.2,58.4c-14.6,11.1-176.7,33.8-195.1,41.8c-15.7,6.8-124.2,36.9-59.5,95.6
									c13.5,12.3,60.9,48,67.4,60.2c9.1,17.2,229.3-32.5,208.4-17.2c-4.4,3.2-82.8,26.1-82.5,29.8c0.9,8.6,98.4-6.4,113-0.3
									c18,7.5,23.3,19,20,29.5c-3.3,10.5-14.2,20.2-25,29.8c43.7-4.6,89.7-5.4,134.2-2.3c20.5,1.4,42.6,3.6,61.4-0.1"/>
							</g>
						</g>
						<g>
							<g>
								<path fill="#FFFFFF" d="M179.4,206.2c6-2.6,12.6-4.3,19.1-5.1c4-0.5,7.5-3.1,7.5-7.5c0-3.7-3.5-8-7.5-7.5
									c-9.3,1.2-18,3.5-26.7,7.2c-3.7,1.6-4.6,7.1-2.7,10.3C171.4,207.4,175.7,207.8,179.4,206.2L179.4,206.2z"/>
							</g>
						</g>
					</g>
				</g>
			</g>
		</g>
		<path opacity="0.7" fill="#C2E2EF" d="M259.8,101.9c2.1-8.1,10.3-14.2,20-14.2c10.8,0,19.6,7.4,20.5,16.8
			c10.4,1.1,18.5,8.4,18.5,17.2c0,9.6-9.5,17.4-21.3,17.4c-1,0-1.9-0.1-2.8-0.2l-30-0.5c-0.5,0-0.9,0.1-1.4,0.1
			c-12.1,0-21.9-8.3-21.9-18.4C241.4,110.9,249.4,103.3,259.8,101.9z"/>
		<path opacity="0.7" fill="#C2E2EF" d="M462.7,124.9c2.1-8.1,10.3-14.2,20-14.2c10.8,0,19.6,7.4,20.5,16.8
			c10.4,1.1,18.5,8.4,18.5,17.2c0,9.6-9.5,17.4-21.3,17.4c-1,0-1.9-0.1-2.8-0.2l-30-0.5c-0.5,0-0.9,0.1-1.4,0.1
			c-12.1,0-21.9-8.3-21.9-18.4C444.3,133.9,452.3,126.3,462.7,124.9z"/>
		<path opacity="0.7" fill="#C2E2EF" d="M265.6,153.3H188c-7.9-5.4-14-14.8-14-23.7c0-12.6,9.2-23.1,21-24.5
			c4.2-12.2,15.6-21,29.2-21c15,0,27.5,10.8,30.2,25.1c13.3,0,24.2,9.7,24.2,21.8C278.6,138.6,273.1,147.7,265.6,153.3z"/>
		<g>
			<g>
				<path fill="#006AB2" d="M189.5,227.7c0,21.7-17.9,39.3-39.9,39.3c-22.1,0-39.9-17.6-39.9-39.3c0-21.7,17.9-39.3,39.9-39.3
					C171.6,188.4,189.5,206,189.5,227.7z"/>
				<path fill="#006AB2" d="M243.1,234.2c0,24.3-20,44-44.6,44c-24.7,0-44.6-19.7-44.6-44c0-24.3,20-44,44.6-44
					C223.1,190.2,243.1,209.9,243.1,234.2z"/>
			</g>
			<path fill="#E4CBAC" d="M186.7,267.1v92.6h15V251.3l25.4-21.3l-5.6-10.2l-20.7,21.3V206c0,0-13.2-17.6-18.8,7.4
				c-5.6,25,6.6,12,6.6,12V255l-16-18.5l-4.7,6.5L186.7,267.1z"/>
			<g>
				<path fill="#4A9FD3" d="M198,213.4c0,19.9-17.2,36.1-38.5,36.1c-21.3,0-38.5-16.2-38.5-36.1c0-19.9,17.2-36.1,38.5-36.1
					C180.7,177.3,198,193.4,198,213.4z"/>
				<path fill="#4A9FD3" d="M235.6,170.2c0,25.5-19.6,46.2-43.7,46.2c-24.1,0-43.7-20.7-43.7-46.2c0-25.5,19.6-46.2,43.7-46.2
					C216,124,235.6,144.7,235.6,170.2z"/>
				<path fill="#4A9FD3" d="M281.4,219.2c0,15.7-13.7,28.5-30.7,28.5c-16.9,0-30.7-12.7-30.7-28.5c0-15.7,13.7-28.5,30.7-28.5
					C267.6,190.7,281.4,203.4,281.4,219.2z"/>
			</g>
			<g>
				<path fill="#1184D4" d="M212.3,191.7c0,23.2-20.2,42-45.1,42c-24.9,0-45.1-18.8-45.1-42c0-23.2,20.2-42,45.1-42
					C192.1,149.7,212.3,168.5,212.3,191.7z"/>
				<path fill="#1184D4" d="M270.8,182c0,27.4-21.5,49.6-47.9,49.6c-26.5,0-47.9-22.2-47.9-49.6c0-27.4,21.5-49.6,47.9-49.6
					C249.3,132.4,270.8,154.6,270.8,182z"/>
				<path fill="#1184D4" d="M274.3,234.1c0,11.7-9.5,21.2-21.1,21.2c-11.7,0-21.1-9.5-21.1-21.2c0-11.7,9.5-21.2,21.1-21.2
					C264.8,212.9,274.3,222.4,274.3,234.1z"/>
			</g>
		</g>
		<g>
			<g>
				<path fill="#006AB2" d="M415.6,262.9c0,15.6-12.8,28.3-28.5,28.3c-15.7,0-28.5-12.7-28.5-28.3c0-15.6,12.8-28.3,28.5-28.3
					C402.8,234.6,415.6,247.3,415.6,262.9z"/>
				<path fill="#006AB2" d="M453.8,267.6c0,17.5-14.3,31.6-31.9,31.6c-17.6,0-31.9-14.2-31.9-31.6c0-17.5,14.3-31.6,31.9-31.6
					C439.6,236,453.8,250.1,453.8,267.6z"/>
			</g>
			<path fill="#E4CBAC" d="M413.6,291.2v68.4h10.7v-79.7l18.1-15.3l-4-7.3l-14.8,15.3v-25.3c0,0-9.4-12.6-13.4,5.3
				c-4,18,4.7,8.7,4.7,8.7v21.3l-11.4-13.3l-3.4,4.7L413.6,291.2z"/>
			<g>
				<path fill="#4A9FD3" d="M421.6,252.6c0,14.3-12.3,26-27.5,26c-15.2,0-27.5-11.6-27.5-26c0-14.3,12.3-26,27.5-26
					C409.3,226.6,421.6,238.3,421.6,252.6z"/>
				<path fill="#4A9FD3" d="M448.5,221.6c0,18.3-14,33.2-31.2,33.2c-17.2,0-31.2-14.9-31.2-33.2c0-18.3,14-33.2,31.2-33.2
					C434.5,188.4,448.5,203.2,448.5,221.6z"/>
				<path fill="#4A9FD3" d="M481.2,256.8c0,11.3-9.8,20.5-21.9,20.5c-12.1,0-21.9-9.2-21.9-20.5c0-11.3,9.8-20.5,21.9-20.5
					C471.4,236.3,481.2,245.5,481.2,256.8z"/>
			</g>
			<g>
				<path fill="#1184D4" d="M431.9,237c0,16.7-14.4,30.2-32.2,30.2c-17.8,0-32.2-13.5-32.2-30.2c0-16.7,14.4-30.2,32.2-30.2
					C417.4,206.8,431.9,220.4,431.9,237z"/>
				<path fill="#1184D4" d="M473.6,230c0,19.7-15.3,35.7-34.2,35.7c-18.9,0-34.2-16-34.2-35.7c0-19.7,15.3-35.7,34.2-35.7
					C458.3,194.3,473.6,210.3,473.6,230z"/>
				<path fill="#1184D4" d="M476.1,267.5c0,8.4-6.8,15.2-15.1,15.2c-8.3,0-15.1-6.8-15.1-15.2c0-8.4,6.8-15.2,15.1-15.2
					C469.4,252.3,476.1,259.1,476.1,267.5z"/>
			</g>
		</g>
		<g>
			<g>
				<g>
					<rect x="142.1" y="256.7" fill="#43415E" width="43.7" height="102"/>
					<path fill="#C37F33" d="M185.8,256.7v102h-43.7v-102H185.8 M187,255.5h-1.2h-43.7h-1.2v1.2v102v0.9h1.2h43.7h1.2v-0.9v-102
						V255.5L187,255.5z"/>
				</g>
				<g>
					<rect x="141.1" y="282.4" fill="#C37F33" width="6.4" height="4.7"/>
					<rect x="141.1" y="297.1" fill="#C37F33" width="6.4" height="4.7"/>
					<rect x="141.1" y="311.4" fill="#C37F33" width="6.4" height="4.7"/>
					<rect x="141.1" y="326" fill="#C37F33" width="6.4" height="4.7"/>
					<rect x="141.1" y="340.6" fill="#C37F33" width="6.4" height="4.7"/>
					<rect x="141.1" y="354.7" fill="#C37F33" width="6.4" height="4.9"/>
				</g>
				<g>
					<rect x="169.8" y="255.9" fill="#C37F33" width="16" height="3.5"/>
					<rect x="169.8" y="270.7" fill="#C37F33" width="16" height="3.5"/>
					<rect x="169.8" y="285.4" fill="#C37F33" width="16" height="3.5"/>
					<rect x="169.8" y="300.2" fill="#C37F33" width="16" height="3.5"/>
					<rect x="169.8" y="314.9" fill="#C37F33" width="16" height="3.5"/>
					<rect x="169.8" y="329.7" fill="#C37F33" width="16" height="3.5"/>
					<rect x="169.8" y="344.5" fill="#C37F33" width="16" height="3.5"/>
					<rect x="169.8" y="356.1" fill="#C37F33" width="16" height="3.5"/>
				</g>
				<path fill="#D5AA6E" d="M144.3,238v121.6h32.6V238H144.3z M156.1,255.3h-7.6V242h7.6V255.3z"/>
				<g>
					<path fill="#0D3F45" d="M155.7,242.3v12.6h-6.9v-12.6H155.7 M156.1,242h-7.6v13.3h7.6V242L156.1,242z"/>
					<rect x="148.6" y="243.9" fill="#0D3F45" width="3.8" height="0.3"/>
					<rect x="150.1" y="244" fill="#0D3F45" width="0.3" height="4.4"/>
					<rect x="151.1" y="245.5" fill="#0D3F45" width="0.3" height="1.6"/>
					<rect x="154.3" y="245.5" fill="#0D3F45" width="0.3" height="1.6"/>
					<rect x="151.1" y="251.3" fill="#0D3F45" width="0.3" height="1.6"/>
					<rect x="154.3" y="251.4" fill="#0D3F45" width="0.3" height="1.6"/>
					<rect x="150.1" y="249.9" fill="#0D3F45" width="0.3" height="4.4"/>
					<rect x="152.1" y="247" fill="#0D3F45" width="0.3" height="4.4"/>
					<rect x="153.2" y="247" fill="#0D3F45" width="0.3" height="4.4"/>
					<rect x="152.1" y="242.2" fill="#0D3F45" width="0.3" height="3.3"/>
					<rect x="153.2" y="242.2" fill="#0D3F45" width="0.3" height="3.3"/>
					<rect x="152.1" y="252.8" fill="#0D3F45" width="0.3" height="2.4"/>
					<rect x="153.2" y="252.8" fill="#0D3F45" width="0.3" height="2.4"/>
					<rect x="148.6" y="248.3" fill="#0D3F45" width="3.8" height="0.3"/>
					<rect x="148.6" y="254.2" fill="#0D3F45" width="3.8" height="0.3"/>
					<rect x="153.3" y="254.2" fill="#0D3F45" width="2.6" height="0.3"/>
					<rect x="153.3" y="248.3" fill="#0D3F45" width="2.6" height="0.3"/>
					<rect x="153.3" y="243.9" fill="#0D3F45" width="2.6" height="0.3"/>
					<rect x="150.1" y="245.4" fill="#0D3F45" width="5.9" height="0.3"/>
					<rect x="150.1" y="246.8" fill="#0D3F45" width="5.9" height="0.3"/>
					<rect x="150.1" y="251.2" fill="#0D3F45" width="5.9" height="0.3"/>
					<rect x="150.1" y="252.6" fill="#0D3F45" width="5.9" height="0.3"/>
					<rect x="148.6" y="249.8" fill="#0D3F45" width="7.4" height="0.3"/>
					<rect x="154.7" y="244" fill="#0D3F45" width="1.1" height="1.5"/>
					<rect x="150.2" y="249.9" fill="#0D3F45" width="0.9" height="1.4"/>
					<rect x="152.4" y="247" fill="#0D3F45" width="0.9" height="1.4"/>
					<rect x="153.3" y="252.8" fill="#0D3F45" width="1" height="1.5"/>
				</g>
			</g>
			<g display="none">
				<polygon display="inline" fill="#CDCBC2" points="309.7,321.3 310.2,321.3 310.2,293.4 239.3,293.4 239.3,321.3 239.7,321.3 
					239.7,347.5 260.4,347.5 260.4,321.3 286.5,321.3 286.5,347.6 262.4,347.6 262.4,359.6 286.5,359.6 309.7,359.6 353.9,359.6 
					353.9,347.6 309.7,347.6 				"/>
				<polygon display="inline" fill="#CDCBC2" points="415.5,344.2 415.5,346.2 414.6,346.2 414.6,347.6 412.6,347.6 412.6,350.2 
					414.6,350.2 415.5,350.2 415.5,359.6 440.2,359.6 440.2,344.2 				"/>
				<polygon display="inline" fill="#CDCBC2" points="406,346.2 404.7,346.2 404.7,344.2 363.7,344.2 363.7,359.6 404.7,359.6 
					404.7,350.2 406,350.2 408,350.2 408,347.6 406,347.6 				"/>
			</g>
			<g>
				<g>
					<rect x="216.4" y="341.1" fill="#43415E" width="15.1" height="4.4"/>
					<rect x="216.4" y="326.4" fill="#43415E" width="15.1" height="4.4"/>
					<rect x="216.4" y="311.7" fill="#43415E" width="15.1" height="4.4"/>
					<rect x="216.4" y="296.8" fill="#43415E" width="15.1" height="4.4"/>
				</g>
				<g>
					<g>
						<rect x="216.4" y="326.4" fill="#C37F33" width="15.1" height="0.3"/>
						<rect x="220.8" y="326.4" fill="#C37F33" width="0.3" height="4.4"/>
						<rect x="225.9" y="326.4" fill="#C37F33" width="0.3" height="4.4"/>
					</g>
					<g>
						<rect x="216.4" y="341.1" fill="#C37F33" width="15.1" height="0.3"/>
						<rect x="220.8" y="341.1" fill="#C37F33" width="0.3" height="4.4"/>
						<rect x="225.9" y="341.1" fill="#C37F33" width="0.3" height="4.4"/>
					</g>
					<g>
						<rect x="216.4" y="311.7" fill="#C37F33" width="15.1" height="0.3"/>
						<rect x="220.8" y="311.7" fill="#C37F33" width="0.3" height="4.4"/>
						<rect x="225.9" y="311.7" fill="#C37F33" width="0.3" height="4.4"/>
					</g>
					<g>
						<rect x="216.4" y="296.8" fill="#C37F33" width="15.1" height="0.3"/>
						<rect x="220.8" y="296.8" fill="#C37F33" width="0.3" height="4.4"/>
						<rect x="225.9" y="296.8" fill="#C37F33" width="0.3" height="4.4"/>
					</g>
				</g>
				<g>
					<rect x="216" y="285.7" fill="#C37F33" width="15.4" height="2.1"/>
					<rect x="216" y="300.4" fill="#C37F33" width="15.4" height="2.1"/>
					<rect x="216" y="315" fill="#C37F33" width="15.4" height="2.1"/>
					<rect x="216" y="329.7" fill="#C37F33" width="15.4" height="2.1"/>
					<rect x="216" y="344.4" fill="#C37F33" width="15.4" height="2.1"/>
				</g>
			</g>
			<g>
				<g>
					<rect x="211.5" y="272.7" fill="#0D3F45" width="0.3" height="82.8"/>
					<rect x="210.8" y="272.7" fill="#0D3F45" width="0.3" height="82.8"/>
					<rect x="210.1" y="272.7" fill="#0D3F45" width="0.3" height="82.8"/>
					<rect x="209.4" y="272.7" fill="#0D3F45" width="0.3" height="82.8"/>
					<rect x="208.6" y="272.7" fill="#0D3F45" width="0.3" height="82.8"/>
					<rect x="207.9" y="272.7" fill="#0D3F45" width="0.3" height="82.8"/>
					<rect x="207.2" y="272.7" fill="#0D3F45" width="0.3" height="82.8"/>
					<rect x="206.5" y="272.7" fill="#0D3F45" width="0.3" height="82.8"/>
					<rect x="205.8" y="272.7" fill="#0D3F45" width="0.3" height="82.8"/>
					<rect x="205.1" y="272.7" fill="#0D3F45" width="0.3" height="82.8"/>
					<rect x="204.4" y="272.7" fill="#0D3F45" width="0.3" height="82.8"/>
					<rect x="203.7" y="272.7" fill="#0D3F45" width="0.3" height="82.8"/>
					<rect x="203" y="272.7" fill="#0D3F45" width="0.3" height="82.8"/>
					<rect x="202.3" y="272.7" fill="#0D3F45" width="0.3" height="82.8"/>
					<rect x="201.6" y="272.7" fill="#0D3F45" width="0.3" height="82.8"/>
					<rect x="200.9" y="272.7" fill="#0D3F45" width="0.3" height="82.8"/>
					<rect x="200.1" y="272.7" fill="#0D3F45" width="0.3" height="82.8"/>
					<rect x="199.4" y="272.7" fill="#0D3F45" width="0.3" height="82.8"/>
					<rect x="198.7" y="272.7" fill="#0D3F45" width="0.3" height="82.8"/>
					<rect x="198" y="272.7" fill="#0D3F45" width="0.3" height="82.8"/>
					<rect x="197.3" y="272.7" fill="#0D3F45" width="0.3" height="82.8"/>
					<rect x="196.6" y="272.7" fill="#0D3F45" width="0.3" height="82.8"/>
					<rect x="195.9" y="272.7" fill="#0D3F45" width="0.3" height="82.8"/>
					<rect x="195.2" y="272.7" fill="#0D3F45" width="0.3" height="82.8"/>
					<rect x="194.5" y="272.7" fill="#0D3F45" width="0.3" height="82.8"/>
					<rect x="193.8" y="272.7" fill="#0D3F45" width="0.3" height="82.8"/>
					<rect x="193.1" y="272.7" fill="#0D3F45" width="0.3" height="82.8"/>
					<rect x="192.3" y="272.7" fill="#0D3F45" width="0.3" height="82.8"/>
					<rect x="191.6" y="272.7" fill="#0D3F45" width="0.3" height="82.8"/>
					<rect x="190.9" y="272.7" fill="#0D3F45" width="0.3" height="82.8"/>
				</g>
				<g>
					<rect x="189.6" y="286" fill="#C37F33" width="22.8" height="2.9"/>
					<rect x="189.6" y="300.5" fill="#C37F33" width="22.8" height="2.9"/>
					<rect x="189.6" y="315" fill="#C37F33" width="22.8" height="2.9"/>
					<rect x="189.6" y="329.5" fill="#C37F33" width="22.8" height="2.9"/>
					<rect x="189.6" y="344.1" fill="#C37F33" width="22.8" height="2.9"/>
				</g>
				<path fill="#D5AA6E" d="M185.8,257.8v101.8h31.1v-91.9L185.8,257.8z M211.7,354.7h-20.8v-81.6h20.8V354.7z"/>
				<polygon fill="#C37F33" points="216.8,269.3 185.8,259.7 185.8,257.8 216.8,267.8 				"/>
			</g>
			<rect x="231.6" y="263.8" fill="#0D3F45" width="13.5" height="0.9"/>
			<g>
				<g>
					<rect x="260.3" y="317.4" fill="#0D3F45" width="0.2" height="14.4"/>
					<rect x="259.9" y="317.4" fill="#0D3F45" width="0.2" height="14.4"/>
					<rect x="259.4" y="317.4" fill="#0D3F45" width="0.2" height="14.4"/>
					<rect x="259" y="317.4" fill="#0D3F45" width="0.2" height="14.4"/>
					<rect x="258.6" y="317.4" fill="#0D3F45" width="0.2" height="14.4"/>
					<rect x="258.1" y="317.4" fill="#0D3F45" width="0.2" height="14.4"/>
					<rect x="257.7" y="317.4" fill="#0D3F45" width="0.2" height="14.4"/>
					<rect x="257.3" y="317.4" fill="#0D3F45" width="0.2" height="14.4"/>
					<rect x="256.8" y="317.4" fill="#0D3F45" width="0.2" height="14.4"/>
					<rect x="256.4" y="317.4" fill="#0D3F45" width="0.2" height="14.4"/>
					<rect x="256" y="317.4" fill="#0D3F45" width="0.2" height="14.4"/>
					<rect x="255.5" y="317.4" fill="#0D3F45" width="0.2" height="14.4"/>
					<rect x="255.1" y="317.4" fill="#0D3F45" width="0.2" height="14.4"/>
					<rect x="254.7" y="317.4" fill="#0D3F45" width="0.2" height="14.4"/>
					<rect x="254.2" y="317.4" fill="#0D3F45" width="0.2" height="14.4"/>
					<rect x="253.8" y="317.4" fill="#0D3F45" width="0.2" height="14.4"/>
					<rect x="253.3" y="317.4" fill="#0D3F45" width="0.2" height="14.4"/>
					<rect x="252.9" y="317.4" fill="#0D3F45" width="0.2" height="14.4"/>
					<rect x="252.5" y="317.4" fill="#0D3F45" width="0.2" height="14.4"/>
					<rect x="252" y="317.4" fill="#0D3F45" width="0.2" height="14.4"/>
					<rect x="251.6" y="317.4" fill="#0D3F45" width="0.2" height="14.4"/>
					<rect x="251.2" y="317.4" fill="#0D3F45" width="0.2" height="14.4"/>
					<rect x="250.7" y="317.4" fill="#0D3F45" width="0.2" height="14.4"/>
					<rect x="250.3" y="317.4" fill="#0D3F45" width="0.2" height="14.4"/>
					<rect x="249.9" y="317.4" fill="#0D3F45" width="0.2" height="14.4"/>
					<rect x="249.4" y="317.4" fill="#0D3F45" width="0.2" height="14.4"/>
					<rect x="249" y="317.4" fill="#0D3F45" width="0.2" height="14.4"/>
					<rect x="248.5" y="317.4" fill="#0D3F45" width="0.2" height="14.4"/>
					<rect x="248.1" y="317.4" fill="#0D3F45" width="0.2" height="14.4"/>
					<rect x="247.7" y="317.4" fill="#0D3F45" width="0.2" height="14.4"/>
				</g>
				<g>
					<rect x="281.3" y="289.7" fill="#0D3F45" width="0.1" height="14.4"/>
					<rect x="281" y="289.7" fill="#0D3F45" width="0.1" height="14.4"/>
					<rect x="280.6" y="289.7" fill="#0D3F45" width="0.1" height="14.4"/>
					<rect x="280.3" y="289.7" fill="#0D3F45" width="0.1" height="14.4"/>
					<rect x="280" y="289.7" fill="#0D3F45" width="0.1" height="14.4"/>
					<rect x="279.6" y="289.7" fill="#0D3F45" width="0.1" height="14.4"/>
					<rect x="279.3" y="289.7" fill="#0D3F45" width="0.1" height="14.4"/>
					<rect x="279" y="289.7" fill="#0D3F45" width="0.1" height="14.4"/>
					<rect x="278.6" y="289.7" fill="#0D3F45" width="0.1" height="14.4"/>
					<rect x="278.3" y="289.7" fill="#0D3F45" width="0.1" height="14.4"/>
					<rect x="278" y="289.7" fill="#0D3F45" width="0.1" height="14.4"/>
					<rect x="277.6" y="289.7" fill="#0D3F45" width="0.1" height="14.4"/>
					<rect x="277.3" y="289.7" fill="#0D3F45" width="0.1" height="14.4"/>
					<rect x="277" y="289.7" fill="#0D3F45" width="0.1" height="14.4"/>
					<rect x="276.7" y="289.7" fill="#0D3F45" width="0.1" height="14.4"/>
					<rect x="276.3" y="289.7" fill="#0D3F45" width="0.1" height="14.4"/>
					<rect x="276" y="289.7" fill="#0D3F45" width="0.1" height="14.4"/>
					<rect x="275.7" y="289.7" fill="#0D3F45" width="0.1" height="14.4"/>
					<rect x="275.3" y="289.7" fill="#0D3F45" width="0.1" height="14.4"/>
					<rect x="275" y="289.7" fill="#0D3F45" width="0.1" height="14.4"/>
					<rect x="274.7" y="289.7" fill="#0D3F45" width="0.1" height="14.4"/>
					<rect x="274.3" y="289.7" fill="#0D3F45" width="0.1" height="14.4"/>
					<rect x="274" y="289.7" fill="#0D3F45" width="0.1" height="14.4"/>
					<rect x="273.7" y="289.7" fill="#0D3F45" width="0.1" height="14.4"/>
					<rect x="273.3" y="289.7" fill="#0D3F45" width="0.1" height="14.4"/>
					<rect x="273" y="289.7" fill="#0D3F45" width="0.1" height="14.4"/>
					<rect x="272.7" y="289.7" fill="#0D3F45" width="0.1" height="14.4"/>
					<rect x="272.3" y="289.7" fill="#0D3F45" width="0.1" height="14.4"/>
					<rect x="272" y="289.7" fill="#0D3F45" width="0.1" height="14.4"/>
					<rect x="271.7" y="289.7" fill="#0D3F45" width="0.1" height="14.4"/>
				</g>
				<g>
					<rect x="305.8" y="303.4" fill="#0D3F45" width="0.1" height="13.7"/>
					<rect x="305.4" y="303.4" fill="#0D3F45" width="0.1" height="13.7"/>
					<rect x="305.1" y="303.4" fill="#0D3F45" width="0.1" height="13.7"/>
					<rect x="304.8" y="303.4" fill="#0D3F45" width="0.1" height="13.7"/>
					<rect x="304.4" y="303.4" fill="#0D3F45" width="0.1" height="13.7"/>
					<rect x="304.1" y="303.4" fill="#0D3F45" width="0.1" height="13.7"/>
					<rect x="303.8" y="303.4" fill="#0D3F45" width="0.1" height="13.7"/>
					<rect x="303.4" y="303.4" fill="#0D3F45" width="0.1" height="13.7"/>
					<rect x="303.1" y="303.4" fill="#0D3F45" width="0.1" height="13.7"/>
					<rect x="302.8" y="303.4" fill="#0D3F45" width="0.1" height="13.7"/>
					<rect x="302.4" y="303.4" fill="#0D3F45" width="0.1" height="13.7"/>
					<rect x="302.1" y="303.4" fill="#0D3F45" width="0.1" height="13.7"/>
					<rect x="301.8" y="303.4" fill="#0D3F45" width="0.1" height="13.7"/>
					<rect x="301.4" y="303.4" fill="#0D3F45" width="0.1" height="13.7"/>
					<rect x="301.1" y="303.4" fill="#0D3F45" width="0.1" height="13.7"/>
					<rect x="300.8" y="303.4" fill="#0D3F45" width="0.1" height="13.7"/>
					<rect x="300.4" y="303.4" fill="#0D3F45" width="0.1" height="13.7"/>
					<rect x="300.1" y="303.4" fill="#0D3F45" width="0.1" height="13.7"/>
					<rect x="299.8" y="303.4" fill="#0D3F45" width="0.1" height="13.7"/>
					<rect x="299.4" y="303.4" fill="#0D3F45" width="0.1" height="13.7"/>
					<rect x="299.1" y="303.4" fill="#0D3F45" width="0.1" height="13.7"/>
					<rect x="298.8" y="303.4" fill="#0D3F45" width="0.1" height="13.7"/>
					<rect x="298.5" y="303.4" fill="#0D3F45" width="0.1" height="13.7"/>
					<rect x="298.1" y="303.4" fill="#0D3F45" width="0.1" height="13.7"/>
					<rect x="297.8" y="303.4" fill="#0D3F45" width="0.1" height="13.7"/>
					<rect x="297.5" y="303.4" fill="#0D3F45" width="0.1" height="13.7"/>
					<rect x="297.1" y="303.4" fill="#0D3F45" width="0.1" height="13.7"/>
					<rect x="296.8" y="303.4" fill="#0D3F45" width="0.1" height="13.7"/>
					<rect x="296.5" y="303.4" fill="#0D3F45" width="0.1" height="13.7"/>
					<rect x="296.1" y="303.4" fill="#0D3F45" width="0.1" height="13.7"/>
				</g>
				<g>
					<rect x="291.4" y="332.4" fill="#0D3F45" width="0.1" height="13.7"/>
					<rect x="291.1" y="332.4" fill="#0D3F45" width="0.1" height="13.7"/>
					<rect x="290.7" y="332.4" fill="#0D3F45" width="0.1" height="13.7"/>
					<rect x="290.4" y="332.4" fill="#0D3F45" width="0.1" height="13.7"/>
					<rect x="290.1" y="332.4" fill="#0D3F45" width="0.1" height="13.7"/>
					<rect x="289.8" y="332.4" fill="#0D3F45" width="0.1" height="13.7"/>
					<rect x="289.4" y="332.4" fill="#0D3F45" width="0.1" height="13.7"/>
					<rect x="289.1" y="332.4" fill="#0D3F45" width="0.1" height="13.7"/>
					<rect x="288.8" y="332.4" fill="#0D3F45" width="0.1" height="13.7"/>
					<rect x="288.4" y="332.4" fill="#0D3F45" width="0.1" height="13.7"/>
					<rect x="288.1" y="332.4" fill="#0D3F45" width="0.1" height="13.7"/>
					<rect x="287.8" y="332.4" fill="#0D3F45" width="0.1" height="13.7"/>
					<rect x="287.4" y="332.4" fill="#0D3F45" width="0.1" height="13.7"/>
					<rect x="287.1" y="332.4" fill="#0D3F45" width="0.1" height="13.7"/>
					<rect x="286.8" y="332.4" fill="#0D3F45" width="0.1" height="13.7"/>
					<rect x="286.4" y="332.4" fill="#0D3F45" width="0.1" height="13.7"/>
					<rect x="286.1" y="332.4" fill="#0D3F45" width="0.1" height="13.7"/>
					<rect x="285.8" y="332.4" fill="#0D3F45" width="0.1" height="13.7"/>
					<rect x="285.4" y="332.4" fill="#0D3F45" width="0.1" height="13.7"/>
					<rect x="285.1" y="332.4" fill="#0D3F45" width="0.1" height="13.7"/>
					<rect x="284.8" y="332.4" fill="#0D3F45" width="0.1" height="13.7"/>
					<rect x="284.4" y="332.4" fill="#0D3F45" width="0.1" height="13.7"/>
					<rect x="284.1" y="332.4" fill="#0D3F45" width="0.1" height="13.7"/>
					<rect x="283.8" y="332.4" fill="#0D3F45" width="0.1" height="13.7"/>
					<rect x="283.4" y="332.4" fill="#0D3F45" width="0.1" height="13.7"/>
					<rect x="283.1" y="332.4" fill="#0D3F45" width="0.1" height="13.7"/>
					<rect x="282.8" y="332.4" fill="#0D3F45" width="0.1" height="13.7"/>
					<rect x="282.4" y="332.4" fill="#0D3F45" width="0.1" height="13.7"/>
					<rect x="282.1" y="332.4" fill="#0D3F45" width="0.1" height="13.7"/>
					<rect x="281.8" y="332.4" fill="#0D3F45" width="0.1" height="13.7"/>
				</g>
				<rect x="246.6" y="284.9" fill="#D5AA6E" width="57" height="5.2"/>
				<rect x="246.6" y="283.3" fill="#C37F33" width="57" height="1.7"/>
				<g>
					<rect x="245" y="302" fill="#D5AA6E" width="59.8" height="2.6"/>
					<rect x="245" y="316.1" fill="#D5AA6E" width="59.8" height="2.6"/>
					<rect x="245" y="330.2" fill="#D5AA6E" width="59.8" height="2.6"/>
					<rect x="245" y="344.7" fill="#D5AA6E" width="59.8" height="2.7"/>
				</g>
				<g>
					<path fill="#C37F33" d="M265.1,289.6v12.8h4.9v-12.8H265.1z M267.2,297.7h-1v-6h1V297.7z"/>
					<path fill="#C37F33" d="M291.4,303.9v12.8h4.9v-12.8H291.4z M293.5,311.9h-1v-6h1V311.9z"/>
					<path fill="#C37F33" d="M291.4,318.2V331h4.9v-12.8H291.4z M294.3,320.2h1v6h-1V320.2z"/>
					<path fill="#C37F33" d="M265.1,332.7v12.8h4.9v-12.8H265.1z M268,334.7h1v6h-1V334.7z"/>
					<rect x="265.1" y="303.9" fill="#C37F33" width="4.9" height="12.8"/>
					<rect x="291.4" y="289.6" fill="#C37F33" width="4.9" height="12.8"/>
					<rect x="291.4" y="332.7" fill="#C37F33" width="4.9" height="12.8"/>
					<rect x="265.1" y="318.2" fill="#C37F33" width="4.9" height="12.8"/>
					<rect x="265.1" y="347.4" fill="#C37F33" width="4.9" height="12.2"/>
					<rect x="265.1" y="357.8" fill="#CCA33C" width="4.9" height="1.9"/>
					<rect x="291.4" y="347.4" fill="#C37F33" width="4.9" height="12.2"/>
					<rect x="291.4" y="357.8" fill="#CCA33C" width="4.9" height="1.9"/>
				</g>
				<rect x="245.5" y="313.3" fill="#43415E" width="58.6" height="3.3"/>
				<rect x="245.5" y="299.1" fill="#43415E" width="58.6" height="3.3"/>
				<rect x="245.5" y="327.6" fill="#43415E" width="58.6" height="3.3"/>
				<rect x="245.5" y="341.8" fill="#43415E" width="58.6" height="3.3"/>
			</g>
			<g>
				<rect x="230.3" y="265.1" fill="#D5AA6E" width="16.3" height="94.5"/>
				<rect x="230.1" y="264.3" fill="#C37F33" width="16.7" height="0.8"/>
				<g>
					<path fill="#0D3F45" d="M244.9,250.3v13h-13v-13H244.9 M245.6,249.6h-0.7h-13h-0.7v0.7v13v0.7h0.7h13h0.7v-0.7v-13V249.6
						L245.6,249.6z"/>
					<path fill="#0D3F45" d="M236.9,254.4h-3.5v-1.7h3.5V254.4z M233.8,254.1h2.8v-1h-2.8V254.1z"/>
					<rect x="232.6" y="251" fill="#0D3F45" width="0.3" height="5.2"/>
					<rect x="234.1" y="251" fill="#0D3F45" width="0.3" height="1.9"/>
					<rect x="233.3" y="250" fill="#0D3F45" width="0.3" height="1.1"/>
					<rect x="233.3" y="256" fill="#0D3F45" width="0.3" height="0.9"/>
					<rect x="232.6" y="251" fill="#0D3F45" width="1.6" height="0.3"/>
					<rect x="232.6" y="255.8" fill="#0D3F45" width="1.7" height="0.3"/>
					<rect x="231.6" y="255" fill="#0D3F45" width="1.1" height="0.3"/>
					<rect x="231.6" y="256.7" fill="#0D3F45" width="13.4" height="0.3"/>
					<rect x="231.6" y="251.8" fill="#0D3F45" width="1.1" height="0.3"/>
					<rect x="235" y="249.9" fill="#0D3F45" width="0.3" height="3"/>
					<rect x="235" y="254.2" fill="#0D3F45" width="0.3" height="2.7"/>
					<rect x="234.1" y="254.2" fill="#0D3F45" width="0.3" height="1.9"/>
					<rect x="237.5" y="251" fill="#0D3F45" width="0.3" height="5.2"/>
					<rect x="236" y="251" fill="#0D3F45" width="0.3" height="1.9"/>
					<rect x="236.8" y="250" fill="#0D3F45" width="0.3" height="1.1"/>
					<rect x="236.8" y="256" fill="#0D3F45" width="0.3" height="0.9"/>
					<rect x="236.1" y="251" fill="#0D3F45" width="1.6" height="0.3"/>
					<rect x="236.1" y="255.8" fill="#0D3F45" width="1.6" height="0.3"/>
					<rect x="237.7" y="255" fill="#0D3F45" width="1.1" height="0.3"/>
					<rect x="237.7" y="251.8" fill="#0D3F45" width="1.1" height="0.3"/>
					<rect x="236" y="254.2" fill="#0D3F45" width="0.3" height="1.9"/>
					<path fill="#0D3F45" d="M242.6,255.1H241v-3.2h1.6V255.1z M241.4,254.8h0.9v-2.6h-0.9V254.8z"/>
					<rect x="239.4" y="251.1" fill="#0D3F45" width="4.7" height="0.3"/>
					<rect x="242.4" y="252.5" fill="#0D3F45" width="1.7" height="0.3"/>
					<rect x="244" y="251.8" fill="#0D3F45" width="1" height="0.3"/>
					<rect x="238.8" y="251.8" fill="#0D3F45" width="0.8" height="0.3"/>
					<rect x="243.9" y="251.1" fill="#0D3F45" width="0.3" height="1.5"/>
					<rect x="239.4" y="251.2" fill="#0D3F45" width="0.3" height="1.5"/>
					<rect x="240.2" y="250.2" fill="#0D3F45" width="0.3" height="1.1"/>
					<rect x="243.2" y="250.2" fill="#0D3F45" width="0.3" height="1.1"/>
					<rect x="242.4" y="253.4" fill="#0D3F45" width="2.7" height="0.3"/>
					<rect x="238.6" y="253.4" fill="#0D3F45" width="2.6" height="0.3"/>
					<rect x="239.4" y="252.5" fill="#0D3F45" width="1.7" height="0.3"/>
					<rect x="239.4" y="255.7" fill="#0D3F45" width="4.7" height="0.3"/>
					<rect x="242.4" y="254.3" fill="#0D3F45" width="1.7" height="0.3"/>
					<rect x="244" y="255" fill="#0D3F45" width="1" height="0.3"/>
					<rect x="238.8" y="255" fill="#0D3F45" width="0.8" height="0.3"/>
					<rect x="243.9" y="254.4" fill="#0D3F45" width="0.3" height="1.5"/>
					<rect x="239.4" y="254.4" fill="#0D3F45" width="0.3" height="1.5"/>
					<rect x="240.2" y="255.8" fill="#0D3F45" width="0.3" height="1.1"/>
					<rect x="243.2" y="255.8" fill="#0D3F45" width="0.3" height="1.1"/>
					<rect x="239.4" y="254.3" fill="#0D3F45" width="1.7" height="0.3"/>
					<path fill="#0D3F45" d="M243.3,260.9h-3.5v-1.7h3.5V260.9z M240.2,260.6h2.8v-1h-2.8V260.6z"/>
					<rect x="243.9" y="257.5" fill="#0D3F45" width="0.3" height="5.2"/>
					<rect x="242.4" y="260.8" fill="#0D3F45" width="0.3" height="1.9"/>
					<rect x="243.1" y="262.5" fill="#0D3F45" width="0.3" height="1.1"/>
					<rect x="243.2" y="256.8" fill="#0D3F45" width="0.3" height="0.9"/>
					<rect x="242.5" y="262.3" fill="#0D3F45" width="1.6" height="0.3"/>
					<rect x="242.5" y="257.5" fill="#0D3F45" width="1.6" height="0.3"/>
					<rect x="244" y="258.3" fill="#0D3F45" width="1.1" height="0.3"/>
					<rect x="244" y="261.6" fill="#0D3F45" width="1.1" height="0.3"/>
					<rect x="241.4" y="260.8" fill="#0D3F45" width="0.3" height="3"/>
					<rect x="241.4" y="256.9" fill="#0D3F45" width="0.3" height="2.5"/>
					<rect x="238.5" y="250" fill="#0D3F45" width="0.3" height="6.9"/>
					<rect x="238.1" y="256.8" fill="#0D3F45" width="0.3" height="6.9"/>
					<rect x="242.4" y="257.5" fill="#0D3F45" width="0.3" height="1.9"/>
					<rect x="238.9" y="257.5" fill="#0D3F45" width="0.3" height="5.2"/>
					<rect x="240.4" y="260.8" fill="#0D3F45" width="0.3" height="1.9"/>
					<rect x="239.7" y="262.5" fill="#0D3F45" width="0.3" height="1.1"/>
					<rect x="239.7" y="256.8" fill="#0D3F45" width="0.3" height="0.9"/>
					<rect x="239" y="262.3" fill="#0D3F45" width="1.6" height="0.3"/>
					<rect x="239" y="257.5" fill="#0D3F45" width="1.6" height="0.3"/>
					<rect x="237.9" y="258.3" fill="#0D3F45" width="1.1" height="0.3"/>
					<rect x="237.9" y="261.6" fill="#0D3F45" width="1.1" height="0.3"/>
					<rect x="240.4" y="257.5" fill="#0D3F45" width="0.3" height="1.9"/>
					<path fill="#0D3F45" d="M235.7,261.8h-1.6v-3.3h1.6V261.8z M234.5,261.4h0.9v-2.6h-0.9V261.4z"/>
					<rect x="232.6" y="262.3" fill="#0D3F45" width="4.7" height="0.3"/>
					<rect x="232.6" y="260.9" fill="#0D3F45" width="1.7" height="0.3"/>
					<rect x="231.7" y="261.6" fill="#0D3F45" width="1" height="0.3"/>
					<rect x="237.1" y="261.6" fill="#0D3F45" width="0.8" height="0.3"/>
					<rect x="232.6" y="261" fill="#0D3F45" width="0.3" height="1.5"/>
					<rect x="237" y="261" fill="#0D3F45" width="0.3" height="1.5"/>
					<rect x="236.3" y="262.4" fill="#0D3F45" width="0.3" height="1.1"/>
					<rect x="233.3" y="262.4" fill="#0D3F45" width="0.3" height="1.1"/>
					<rect x="231.6" y="260" fill="#0D3F45" width="2.7" height="0.3"/>
					<rect x="235.6" y="260" fill="#0D3F45" width="2.6" height="0.3"/>
					<rect x="235.6" y="260.9" fill="#0D3F45" width="1.7" height="0.3"/>
					<rect x="232.6" y="257.7" fill="#0D3F45" width="4.7" height="0.3"/>
					<rect x="232.6" y="259.1" fill="#0D3F45" width="1.7" height="0.3"/>
					<rect x="231.7" y="258.3" fill="#0D3F45" width="1" height="0.3"/>
					<rect x="237.1" y="258.3" fill="#0D3F45" width="0.8" height="0.3"/>
					<rect x="232.6" y="257.7" fill="#0D3F45" width="0.3" height="1.5"/>
					<rect x="237" y="257.7" fill="#0D3F45" width="0.3" height="1.5"/>
					<rect x="236.3" y="256.8" fill="#0D3F45" width="0.3" height="1.1"/>
					<rect x="233.3" y="256.8" fill="#0D3F45" width="0.3" height="1.1"/>
					<rect x="235.6" y="259.1" fill="#0D3F45" width="1.7" height="0.3"/>
				</g>
			</g>
			<g>
				<rect x="302.9" y="280.9" fill="#C37F33" width="134" height="1.7"/>
				<g>
					<rect x="313.7" y="290.8" fill="#43415E" width="11.7" height="8.1"/>
					<rect x="313.7" y="335" fill="#43415E" width="5.9" height="8.1"/>
					<rect x="322" y="335" fill="#43415E" width="15.1" height="8.1"/>
					<rect x="327.8" y="290.8" fill="#43415E" width="9.3" height="8.1"/>
					<rect x="313.7" y="305.7" fill="#43415E" width="23.4" height="22.4"/>
					<g>
						<rect x="321.4" y="305.7" fill="#C37F33" width="2.4" height="14.7"/>
						<rect x="313.7" y="314" fill="#C37F33" width="23.4" height="6.4"/>
						<rect x="323.5" y="318.8" fill="#C37F33" width="2" height="9.4"/>
					</g>
				</g>
				<g>
					<rect x="309.5" y="347.4" fill="#C37F33" width="4.9" height="12.2"/>
					<rect x="309.5" y="357.8" fill="#CCA33C" width="4.9" height="1.9"/>
					<rect x="340.3" y="347.4" fill="#C37F33" width="4.9" height="12.2"/>
					<rect x="340.3" y="357.8" fill="#CCA33C" width="4.9" height="1.9"/>
					<rect x="352.3" y="347.4" fill="#C37F33" width="4.9" height="12.2"/>
					<rect x="352.3" y="357.8" fill="#CCA33C" width="4.9" height="1.9"/>
					<rect x="376.3" y="347.4" fill="#C37F33" width="4.9" height="12.2"/>
					<rect x="376.3" y="357.8" fill="#CCA33C" width="4.9" height="1.9"/>
					<rect x="402.8" y="347.4" fill="#C37F33" width="4.9" height="12.2"/>
					<rect x="402.8" y="357.8" fill="#CCA33C" width="4.9" height="1.9"/>
					<rect x="433.6" y="346.9" fill="#C37F33" width="4.9" height="12.7"/>
					<rect x="433.6" y="357.7" fill="#CCA33C" width="4.9" height="1.9"/>
				</g>
				<path fill="#D5AA6E" d="M302.9,282.6v64.8h134v-64.8H302.9z M368.7,321.9h4.4v3.2h-4.4V321.9z M366,321.9h1.7v3.2H366V321.9z
					 M358.1,321.9h1.7v3.2h-1.7V321.9z M352.8,321.9h1.7v3.2h-1.7V321.9z M313.7,290.8h11.7v8.1h-11.7V290.8z M319.6,343.1h-5.9V335
					h5.9V343.1z M337.1,343.1H322V335h15.1V343.1z M337.1,328.2h-23.4v-22.4h23.4V328.2z M337.1,298.9h-9.3v-8.1h9.3V298.9z
					 M352.2,332.5h-2.3v-3.2h2.3V332.5z M352.2,328.6h-2.3v-6.7h2.3V328.6z M354.5,332.5h-1.7v-3.2h1.7V332.5z M357.2,332.5h-1.7
					v-3.2h1.7V332.5z M357.2,328.6h-4.4v-2.8h4.4V328.6z M357.2,325.1h-1.7v-3.2h1.7V325.1z M360,332.5h-2v-6.7h2V332.5z
					 M362.6,332.6h-1.9v-3.3h1.9V332.6z M362.6,328.6h-1.9v-2.8h1.9V328.6z M365.2,332.6h-1.9v-3.3h1.9V332.6z M365.2,328.6h-1.9
					v-2.8h1.9V328.6z M365.2,325.1h-4.4v-3.2h4.4V325.1z M367.9,332.5h-2v-6.7h2V332.5z M370.5,332.6h-1.9v-3.3h1.9V332.6z
					 M370.5,328.6h-1.9v-2.8h1.9V328.6z M371.3,325.8h1.9v2.8h-1.9V325.8z M375.7,332.5h-4.4v-3.2h4.4V332.5z M375.7,328.6h-1.8
					v-6.7h1.8V328.6z M378.4,332.6h-1.9v-3.3h1.9V332.6z M378.4,328.6h-1.9v-2.8h1.9V328.6z M381.3,332.5h-2.1v-6.7h2.1V332.5z
					 M381.3,325.3h-4.8v-3.4h4.8V325.3z M405,306.8h-2.1v-2.2h2.1V306.8z M405,302.3h-2.1v-2.2h2.1V302.3z M405,297.8h-2.1v-2.2h2.1
					V297.8z M409.9,306.8h-2.1v-2.2h2.1V306.8z M409.9,302.3h-2.1v-2.2h2.1V302.3z M409.9,297.8h-2.1v-2.2h2.1V297.8z M414.7,306.8
					h-2.1v-2.2h2.1V306.8z M414.7,302.3h-2.1v-2.2h2.1V302.3z M414.7,297.8h-2.1v-2.2h2.1V297.8z M419.6,306.8h-2.1v-2.2h2.1V306.8z
					 M419.6,302.3h-2.1v-2.2h2.1V302.3z M419.6,297.8h-2.1v-2.2h2.1V297.8z"/>
				<rect x="346.7" y="292.2" fill="#77191D" width="38.3" height="6.1"/>
				<g>
					<rect x="308.9" y="277.9" fill="#C37F33" width="1.7" height="3.9"/>
					<rect x="343.3" y="277.9" fill="#C37F33" width="1.7" height="3.9"/>
					<rect x="354.9" y="277.9" fill="#C37F33" width="1.7" height="3.9"/>
					<rect x="308.9" y="277.9" fill="#C37F33" width="47.7" height="2.2"/>
				</g>
			</g>
			<g>
				<path fill="#D5AA6E" d="M433.3,263.2v96.4h5v-71.3h8.2v71.3h37.4v-96.4H433.3z M479.5,275.3h-8.2v-8.1h8.2V275.3z"/>
				<rect x="471.3" y="267.2" fill="#43415E" width="8.2" height="8.1"/>
				<g>
					<rect x="471.3" y="267.2" fill="#0D3F45" width="4.5" height="1.1"/>
					<rect x="471.3" y="267.2" fill="#0D3F45" width="1.1" height="8.1"/>
					<rect x="471.3" y="274.4" fill="#0D3F45" width="4.5" height="0.8"/>
					<rect x="476.3" y="274.4" fill="#0D3F45" width="2.5" height="0.8"/>
					<rect x="474.2" y="275" fill="#0D3F45" width="3.9" height="0.3"/>
					<rect x="475.3" y="267.2" fill="#0D3F45" width="3.9" height="0.3"/>
					<rect x="473.1" y="271.8" fill="#0D3F45" width="2.6" height="0.8"/>
					<rect x="475" y="270.2" fill="#0D3F45" width="3.8" height="1"/>
					<rect x="474.7" y="271.8" fill="#0D3F45" width="1.1" height="3.4"/>
					<rect x="478.4" y="267.1" fill="#0D3F45" width="1.1" height="8.1"/>
					<rect x="474.7" y="267.7" fill="#0D3F45" width="1.1" height="3.4"/>
				</g>
			</g>
			<g>
				<g>
					<rect x="431.1" y="300.1" fill="#C37F33" width="19.3" height="2.3"/>
					<rect x="431.1" y="315" fill="#C37F33" width="19.3" height="2.3"/>
					<rect x="431.1" y="329.8" fill="#C37F33" width="19.3" height="2.3"/>
					<rect x="431.1" y="344.6" fill="#C37F33" width="19.3" height="2.3"/>
				</g>
				<g>
					<rect x="431.8" y="296.9" fill="#43415E" width="17.9" height="3.4"/>
					<rect x="431.6" y="296.8" fill="#C37F33" width="18.4" height="0.3"/>
					<rect x="437.6" y="296.9" fill="#C37F33" width="0.2" height="3.4"/>
					<rect x="431.6" y="296.9" fill="#C37F33" width="0.2" height="3.4"/>
					<rect x="449.7" y="296.9" fill="#C37F33" width="0.2" height="3.4"/>
					<rect x="443.7" y="296.9" fill="#C37F33" width="0.2" height="3.4"/>
				</g>
				<g>
					<rect x="431.8" y="311.7" fill="#43415E" width="17.9" height="3.4"/>
					<rect x="431.6" y="311.6" fill="#C37F33" width="18.4" height="0.3"/>
					<rect x="437.6" y="311.7" fill="#C37F33" width="0.2" height="3.4"/>
					<rect x="431.6" y="311.7" fill="#C37F33" width="0.2" height="3.4"/>
					<rect x="449.7" y="311.7" fill="#C37F33" width="0.2" height="3.4"/>
					<rect x="443.7" y="311.7" fill="#C37F33" width="0.2" height="3.4"/>
				</g>
				<g>
					<rect x="431.8" y="326.6" fill="#43415E" width="17.9" height="3.4"/>
					<rect x="431.6" y="326.5" fill="#C37F33" width="18.4" height="0.3"/>
					<rect x="437.6" y="326.6" fill="#C37F33" width="0.2" height="3.4"/>
					<rect x="431.6" y="326.6" fill="#C37F33" width="0.2" height="3.4"/>
					<rect x="449.7" y="326.6" fill="#C37F33" width="0.2" height="3.4"/>
					<rect x="443.7" y="326.6" fill="#C37F33" width="0.2" height="3.4"/>
				</g>
				<g>
					<rect x="431.8" y="341.4" fill="#43415E" width="17.9" height="3.4"/>
					<rect x="431.6" y="341.3" fill="#C37F33" width="18.4" height="0.3"/>
					<rect x="437.6" y="341.4" fill="#C37F33" width="0.2" height="3.4"/>
					<rect x="431.6" y="341.4" fill="#C37F33" width="0.2" height="3.4"/>
					<rect x="449.7" y="341.4" fill="#C37F33" width="0.2" height="3.4"/>
					<rect x="443.7" y="341.4" fill="#C37F33" width="0.2" height="3.4"/>
				</g>
			</g>
		</g>
		<g>
			<g>
				<path fill="#025388" d="M149.9,356.6C149.9,356.6,149.9,356.6,149.9,356.6c-0.2-0.2-0.2-0.3-0.3-0.5c-0.1-0.4-0.1-0.8-0.1-1.3
					c0.1-5.3,0.8-10.4,2.6-15.4c1-2.7,2.1-6.3,5.3-7.1c0.3-0.1,5.8,3.5-2.2,26c0.4,0.1,6-11.3,14.4-11.1c-0.2-0.1,0.3,7.4-8.2,13.3
					c-3.7-1.3-7.5-2.7-11.2-4C150.1,356.7,150,356.6,149.9,356.6z"/>
				<path fill="none" stroke="#5FABD6" stroke-miterlimit="10" d="M156.7,332.9c0,0-6.3,7.6-5.6,24.1"/>
				<path fill="#5FABD6" d="M156.7,332.9c0,0-5.5,17.9-4.1,24.6"/>
				<path fill="none" stroke="#5FABD6" stroke-miterlimit="10" d="M157.4,332.4c0,0,1.7,15.5-3.7,25.6"/>
				<path fill="#5FABD6" d="M157,359.1c2.2-6.3,12.7-11.8,12.7-11.8s-4.5,11-10.9,12.4"/>
				<g>
					
						<ellipse transform="matrix(0.9832 -0.1826 0.1826 0.9832 -57.8089 34.3108)" fill="#A784BC" cx="157.4" cy="331" rx="1.1" ry="1.5"/>
					
						<ellipse transform="matrix(0.9832 -0.1826 0.1826 0.9832 -58.1549 34.1072)" fill="#A784BC" cx="156.1" cy="332.8" rx="1.5" ry="1.1"/>
					
						<ellipse transform="matrix(0.9832 -0.1826 0.1826 0.9832 -58.0046 34.6256)" fill="#A784BC" cx="159" cy="332.2" rx="1.5" ry="1.1"/>
					
						<ellipse transform="matrix(0.937 -0.3492 0.3492 0.937 -106.6857 76.164)" fill="#A784BC" cx="157.9" cy="334" rx="1.1" ry="1.5"/>
				</g>
				<path fill="#A784BC" d="M168.7,348.3c0,0-6.6,8.5-10.6,11.2"/>
			</g>
			<g>
				<path fill="#025388" d="M153.6,356.9C153.7,356.9,153.7,356.9,153.6,356.9c0.2-0.2,0.2-0.3,0.2-0.5c0-0.4,0-0.9-0.1-1.3
					c-0.7-5.2-1.9-10.2-4.1-15c-1.2-2.6-2.7-6-6-6.5c-0.3,0-5.4,4.1,4.9,25.7c-0.4,0.2-7.2-10.7-15.5-9.6c0.2-0.1,0.5,7.4,9.6,12.4
					c3.6-1.7,7.2-3.4,10.8-5.1C153.5,357,153.6,357,153.6,356.9z"/>
				<path fill="none" stroke="#5FABD6" stroke-miterlimit="10" d="M144.5,334c0,0,7,6.9,8,23.4"/>
				<path fill="#5FABD6" d="M144.5,334c0,0,7.3,17.2,6.6,24.1"/>
				<path fill="none" stroke="#5FABD6" stroke-miterlimit="10" d="M143.7,333.6c0,0-0.1,15.5,6.3,25.1"/>
				<path fill="#5FABD6" d="M146.8,360.1c-2.8-6.1-13.8-10.5-13.8-10.5s5.6,10.4,12.1,11.3"/>
				<g>
					
						<ellipse transform="matrix(8.212093e-02 -0.9966 0.9966 8.212093e-02 -199.2063 448.1078)" fill="#A784BC" cx="143.7" cy="332.2" rx="1.5" ry="1.1"/>
					
						<ellipse transform="matrix(8.212093e-02 -0.9966 0.9966 8.212093e-02 -199.5063 451.0582)" fill="#A784BC" cx="145.1" cy="333.8" rx="1.1" ry="1.5"/>
					
						<ellipse transform="matrix(8.212093e-02 -0.9966 0.9966 8.212093e-02 -201.9368 447.8969)" fill="#A784BC" cx="142.2" cy="333.6" rx="1.1" ry="1.5"/>
					
						<ellipse transform="matrix(0.2525 -0.9676 0.9676 0.2525 -217.1229 389.3718)" fill="#A784BC" cx="143.4" cy="335.2" rx="1.5" ry="1.1"/>
				</g>
				<path fill="#A784BC" d="M134.2,350.5c0,0,7.4,7.8,11.7,10.1"/>
			</g>
		</g>
		<g>
			<g>
				<path fill="#025388" d="M471.3,357.5C471.3,357.5,471.3,357.5,471.3,357.5c-0.2-0.2-0.2-0.3-0.3-0.5c-0.1-0.4-0.1-0.8-0.1-1.3
					c0.1-5.3,0.8-10.4,2.6-15.4c1-2.7,2.1-6.3,5.3-7.1c0.3-0.1,5.8,3.5-2.2,26c0.4,0.1,6-11.3,14.4-11.1c-0.2-0.1,0.3,7.4-8.2,13.3
					c-3.7-1.3-7.5-2.7-11.2-4C471.5,357.6,471.4,357.6,471.3,357.5z"/>
				<path fill="none" stroke="#5FABD6" stroke-miterlimit="10" d="M478.1,333.8c0,0-6.3,7.6-5.6,24.1"/>
				<path fill="#5FABD6" d="M478.1,333.8c0,0-5.5,17.9-4.1,24.6"/>
				<path fill="none" stroke="#5FABD6" stroke-miterlimit="10" d="M478.8,333.3c0,0,1.7,15.5-3.7,25.6"/>
				<path fill="#5FABD6" d="M478.4,360.1c2.2-6.3,12.7-11.8,12.7-11.8s-4.5,11-10.9,12.4"/>
				<g>
					
						<ellipse transform="matrix(0.9832 -0.1826 0.1826 0.9832 -52.5744 93.0224)" fill="#A784BC" cx="478.7" cy="331.9" rx="1.1" ry="1.5"/>
					
						<ellipse transform="matrix(0.9832 -0.1826 0.1826 0.9832 -52.9204 92.8188)" fill="#A784BC" cx="477.5" cy="333.7" rx="1.5" ry="1.1"/>
					
						<ellipse transform="matrix(0.9832 -0.1826 0.1826 0.9832 -52.7701 93.3373)" fill="#A784BC" cx="480.3" cy="333.2" rx="1.5" ry="1.1"/>
					
						<ellipse transform="matrix(0.937 -0.3492 0.3492 0.937 -86.7819 188.4457)" fill="#A784BC" cx="479.3" cy="334.9" rx="1.1" ry="1.5"/>
				</g>
				<path fill="#A784BC" d="M490.1,349.2c0,0-6.6,8.5-10.6,11.2"/>
			</g>
			<g>
				<path fill="#025388" d="M475,357.8C475,357.8,475.1,357.8,475,357.8c0.2-0.2,0.2-0.3,0.2-0.5c0-0.4,0-0.9-0.1-1.3
					c-0.7-5.2-1.9-10.2-4.1-15c-1.2-2.6-2.7-6-6-6.5c-0.3,0-5.4,4.1,4.9,25.7c-0.4,0.2-7.2-10.7-15.5-9.6c0.2-0.1,0.5,7.4,9.6,12.4
					c3.6-1.7,7.2-3.4,10.8-5.1C474.9,357.9,474.9,357.9,475,357.8z"/>
				<path fill="none" stroke="#5FABD6" stroke-miterlimit="10" d="M465.9,335c0,0,7,6.9,8,23.4"/>
				<path fill="#5FABD6" d="M465.9,335c0,0,7.3,17.2,6.6,24.1"/>
				<path fill="none" stroke="#5FABD6" stroke-miterlimit="10" d="M465.1,334.5c0,0-0.1,15.5,6.3,25.1"/>
				<path fill="#5FABD6" d="M468.2,361.1c-2.8-6.1-13.8-10.5-13.8-10.5s5.6,10.4,12.1,11.3"/>
				<g>
					
						<ellipse transform="matrix(8.212093e-02 -0.9966 0.9966 8.212093e-02 94.8318 769.2465)" fill="#A784BC" cx="465" cy="333.1" rx="1.5" ry="1.1"/>
					
						<ellipse transform="matrix(8.212093e-02 -0.9966 0.9966 8.212093e-02 94.5318 772.1969)" fill="#A784BC" cx="466.5" cy="334.8" rx="1.1" ry="1.5"/>
					
						<ellipse transform="matrix(8.212093e-02 -0.9966 0.9966 8.212093e-02 92.1012 769.0356)" fill="#A784BC" cx="463.6" cy="334.5" rx="1.1" ry="1.5"/>
					
						<ellipse transform="matrix(0.2525 -0.9676 0.9676 0.2525 22.1891 701.0231)" fill="#A784BC" cx="464.8" cy="336.2" rx="1.5" ry="1.1"/>
				</g>
				<path fill="#A784BC" d="M455.5,351.5c0,0,7.4,7.8,11.7,10.1"/>
			</g>
		</g>
	</g>
</g>
</svg>
