<svg width="1257" height="862" viewBox="0 0 1257 862" fill="none" xmlns="http://www.w3.org/2000/svg">
<rect width="1257" height="862" fill="white"/>
<path d="M713.36 861.95C997.439 861.95 1227.73 855.212 1227.73 846.9C1227.73 838.588 997.439 831.85 713.36 831.85C429.281 831.85 198.99 838.588 198.99 846.9C198.99 855.212 429.281 861.95 713.36 861.95Z" fill="#E6E7E8"/>
<path d="M294.03 677C295.36 674.02 296.23 670.86 296.45 667.47C298.48 636.73 266.27 641.72 247.2 632.76C229.39 624.39 228.64 604.98 227.37 587.86C225.68 564.94 224.15 548.71 208.36 530.39C174.65 491.27 182.6 448.54 164.74 403.11C153.2 373.76 126.02 351.01 96.19 340.29C87.35 337.11 77.06 334.71 66.22 337.91C46.51 343.72 35.93 364.77 37.58 380.16C39.23 395.54 48.75 408.07 51.64 423.07C54.53 438.07 47.48 458.75 28.48 467.33C18.95 471.63 6.09 473.56 2 481.66C0.17 485.28 1.04 488.86 2.32 491.97C7.98 505.77 21.11 515.49 26.1 529.52C31.98 546.06 24.56 558.66 18.31 573.78C15.51 580.57 14.07 588.7 17.84 595.01C24.8 606.64 41.78 603.54 49.74 613.93C59.21 626.3 42.9 645.91 29.32 660.99C15.74 676.07 4.44 698.96 20.28 705.79C25.21 707.92 31.67 707.67 37.46 708.49C63.48 712.15 72.33 735.63 78.15 756.63C84.43 779.27 108.8 786.64 125.27 800.03C143.84 815.12 149.77 844.72 180.79 831.76C202.03 822.89 211.69 800.27 223.72 782.33C236.9 762.67 250.93 743.24 259.3 720.91C265.82 704.31 286.8 693.21 294.03 677Z" fill="#E6E7E8"/>
<path d="M172.23 637.35C170.36 630.84 164.51 625.39 160.16 619.53C155.82 613.68 152.99 606.35 157.38 600.52C159.43 597.81 162.79 595.78 165.62 593.46C178.54 582.87 179.26 566.96 175.17 553.1C171.08 539.24 162.95 526.05 160.49 511.98C158.22 498.95 162.92 483.46 179.12 477.72C191.01 473.51 206.21 476.25 215.58 483.05C224.95 489.86 228.84 500 227.87 509.62C227.48 513.47 226.49 517.68 229.35 520.93C234.99 527.36 249.69 524.45 257.71 529.35C264.57 533.54 263.57 541.42 260.68 547.6C257.79 553.77 253.57 560.24 255.97 566.53C258.94 574.29 271.26 579.14 272.5 587.15C273.01 590.43 271.51 593.8 272.5 597.02C275.27 606.09 295.95 610.81 291.63 619.56C288.28 626.35 272.95 625.52 268.22 631.86C263.19 638.59 274.3 646.37 272.91 653.97C272.44 656.56 270.53 658.87 268.67 661.1C256 676.27 243.32 691.43 230.65 706.6C228.36 709.34 226.03 712.12 222.87 714.35C203.41 728.1 173.78 719.25 170.47 701.59C168.89 693.18 166.82 683.25 166.2 674.74C165.31 662.12 175.82 649.86 172.23 637.35Z" fill="#37C1D3"/>
<path fill-rule="evenodd" clip-rule="evenodd" d="M185.03 720.84C190.06 722.88 195.48 723.88 200.87 723.88C209.35 723.88 217.77 721.41 224.5 716.64C227.98 714.18 230.55 711.11 232.81 708.4L270.83 662.9L270.889 662.829C272.855 660.467 275.076 657.797 275.68 654.47C276.467 650.145 274.295 646.118 272.38 642.568L272.36 642.53C269.91 637.99 268.92 635.62 270.48 633.54C272.186 631.256 276.479 629.986 280.63 628.759L280.66 628.75L280.661 628.75C286.181 627.12 291.87 625.44 294.16 620.81C297.67 613.71 290.37 608.8 284.5 604.86C280.58 602.23 276.13 599.24 275.2 596.2C274.833 595 274.997 593.584 275.185 591.961L275.19 591.92L275.196 591.866C275.375 590.309 275.577 588.549 275.29 586.72C274.46 581.42 270.14 577.62 265.95 573.94L265.913 573.908C262.865 571.228 259.725 568.468 258.6 565.53C257.01 561.37 259.33 556.69 261.8 551.74C262.29 550.76 262.77 549.78 263.23 548.81C267.64 539.38 266.13 531.21 259.18 526.97C255.045 524.443 249.712 523.782 244.558 523.142L244.54 523.14L244.529 523.139C239.033 522.459 233.848 521.818 231.47 519.1C229.93 517.34 230.07 515.05 230.5 511.49L230.68 509.92C231.81 498.62 226.79 487.73 217.24 480.79C206.6 473.06 190.54 470.72 178.2 475.09C160.63 481.31 155.26 498.35 157.73 512.48C159.22 520.99 162.7 529.19 166.07 537.11C168.41 542.6 170.82 548.28 172.48 553.91C175.18 563.02 177.63 580 163.85 591.3C163.162 591.866 162.436 592.409 161.705 592.956C161.597 593.037 161.488 593.119 161.38 593.2L161.263 593.288C159.079 594.931 156.82 596.629 155.16 598.83C150.65 604.8 151.63 612.74 157.92 621.21C159.14 622.85 160.47 624.47 161.81 626.08L161.821 626.093C165.177 630.138 168.351 633.965 169.54 638.12C171.268 644.162 169.166 650.383 166.939 656.974L166.93 657C164.98 662.76 162.97 668.71 163.42 674.94C163.96 682.35 165.57 690.81 167 698.27L167.73 702.1C169.24 710.16 175.55 716.99 185.03 720.84ZM180.07 480.38C183.58 479.14 187.5 478.54 191.51 478.54C199.53 478.54 207.88 480.93 213.94 485.35C221.86 491.1 226.02 500.07 225.09 509.36L224.92 510.83L224.915 510.875C224.486 514.527 223.953 519.055 227.25 522.81C231.05 527.14 237.56 527.95 243.86 528.73C248.43 529.29 253.16 529.88 256.27 531.78C262.19 535.4 259.99 542.52 258.16 546.44C257.73 547.37 257.26 548.31 256.79 549.25L256.787 549.256C254.028 554.804 250.901 561.092 253.38 567.56C255.007 571.792 258.685 575.027 262.249 578.161L262.27 578.18C265.86 581.33 269.25 584.31 269.76 587.6C269.93 588.69 269.79 589.95 269.63 591.28C269.4 593.27 269.14 595.52 269.85 597.86C271.37 602.81 276.46 606.23 281.39 609.54C287.8 613.85 290.3 616.02 289.15 618.33C287.96 620.76 283.46 622.09 279.11 623.37L279.109 623.37C274.059 624.86 268.84 626.4 266.01 630.19C262.13 635.37 265.08 640.83 267.45 645.21L267.455 645.219C269.083 648.236 270.62 651.082 270.18 653.47C269.84 655.369 268.092 657.457 266.553 659.297L266.55 659.3L228.53 704.8L228.493 704.845C226.354 707.401 224.153 710.032 221.28 712.06C211.77 718.78 198.37 720.19 187.15 715.64C179.47 712.53 174.41 707.22 173.26 701.07L172.53 697.22L172.464 696.873C171.09 689.649 169.542 681.508 169.04 674.54C168.67 669.44 170.41 664.28 172.26 658.81L172.263 658.8C174.672 651.673 177.159 644.316 174.94 636.58C173.433 631.3 169.735 626.838 166.161 622.526L166.14 622.5C164.86 620.97 163.59 619.43 162.43 617.87C159.12 613.42 155.96 607.1 159.64 602.22C160.839 600.611 162.728 599.202 164.736 597.703L164.74 597.7C165.65 597.02 166.55 596.34 167.41 595.64C183.7 582.29 180.95 562.76 177.87 552.31C176.12 546.37 173.64 540.54 171.24 534.9L171.205 534.817C167.828 526.868 164.635 519.353 163.27 511.5C161.36 500.57 164.61 485.85 180.07 480.38Z" fill="#1A4A67"/>
<path d="M227.95 843.49C226.48 843.49 225.24 842.34 225.15 840.85L209.06 572.68C208.97 571.13 210.15 569.8 211.7 569.71C213.19 569.61 214.58 570.79 214.67 572.35L230.76 840.52C230.85 842.07 229.67 843.4 228.12 843.49C228.06 843.49 228.01 843.49 227.95 843.49Z" fill="#1A4A67"/>
<path d="M216.55 653.49C215.91 653.49 215.27 653.28 214.75 652.84C213.56 651.84 213.4 650.07 214.4 648.88L253.35 602.27C254.35 601.08 256.13 600.92 257.31 601.92C258.5 602.92 258.66 604.69 257.66 605.88L218.71 652.49C218.15 653.14 217.35 653.49 216.55 653.49Z" fill="#1A4A67"/>
<path d="M219.91 709.41C219.24 709.41 218.57 709.17 218.03 708.69L183.18 677.41C182.02 676.37 181.93 674.6 182.96 673.44C184 672.28 185.78 672.19 186.93 673.23L221.78 704.51C222.94 705.55 223.03 707.32 222 708.48C221.44 709.09 220.68 709.41 219.91 709.41Z" fill="#1A4A67"/>
<path d="M179.11 824.62C177.81 824.62 176.65 823.72 176.37 822.4L105.7 491.24C105.37 489.72 106.34 488.23 107.86 487.9C109.38 487.57 110.87 488.54 111.19 490.06L181.86 821.22C182.19 822.74 181.22 824.23 179.7 824.56C179.5 824.6 179.31 824.62 179.11 824.62Z" fill="white"/>
<path d="M134.1 607.06C133.94 607.06 133.77 607.05 133.6 607.02C132.07 606.75 131.06 605.29 131.33 603.76L143.97 533.37C144.25 531.84 145.71 530.83 147.23 531.1C148.76 531.37 149.77 532.83 149.5 534.36L136.86 604.75C136.61 606.11 135.43 607.06 134.1 607.06Z" fill="white"/>
<path d="M159.16 731.1C158.27 731.1 157.4 730.68 156.85 729.89L118.48 674.73C117.59 673.46 117.91 671.7 119.18 670.82C120.46 669.93 122.21 670.25 123.09 671.52L161.46 726.68C162.35 727.95 162.03 729.71 160.76 730.59C160.27 730.94 159.71 731.1 159.16 731.1Z" fill="white"/>
<path d="M60.1301 827.75C56.5901 823.56 53.5501 818.72 52.7601 813.3C52.5701 811.99 52.5501 810.54 53.3401 809.48C54.0201 808.56 55.1801 808.12 56.3001 807.89C64.2401 806.19 71.6901 812.01 77.4301 817.76C87.5601 827.92 96.6001 839.16 104.35 851.23C99.7101 844.01 97.2701 830.16 98.3701 821.67C98.4101 821.34 98.4801 820.97 98.7401 820.76C99.0101 820.54 99.3901 820.56 99.7201 820.62C102.16 821.09 103.7 823.46 104.87 825.66C108.49 832.46 111.65 840.32 113.75 847.95C112.43 843.16 116.34 837.39 119.88 834.53C126.22 829.43 124.87 836.55 123.49 840.73C122.14 844.83 113.18 860.89 106.79 857.3C105.62 856.64 105.33 853.06 104.37 851.9C102.7 849.9 100.37 849.24 97.9701 848.5C91.5301 846.5 84.8201 845.67 78.7501 842.53C71.6801 838.85 65.2801 833.84 60.1301 827.75Z" fill="#1A4A67"/>
<path d="M241.55 797.84C241.93 797.85 242.31 797.95 242.7 798.16C243.92 798.82 244.37 800.32 244.66 801.68C247.31 814.11 247.24 811.06 245.92 827.37C248.7 817.19 247.6 818.97 252.8 809.78C253.81 807.99 254.93 806.16 256.68 805.09C268.03 798.14 257.04 828.93 255.12 832.46C248 845.56 234.15 848.8 220.71 843.98C208.92 839.75 197.66 830.57 193.44 818.56C193.06 817.48 192.78 816.12 193.59 815.3C194.15 814.74 195.02 814.66 195.81 814.65C202.93 814.64 209.6 818.26 215.05 822.84C220.49 827.43 225 833.01 230.12 837.95C233.75 841.45 241.76 841.25 246.76 841.85C255.27 842.88 258.63 839.58 266.02 835.23C267.63 834.28 269.39 833.42 271.26 833.44C273.13 833.46 275.11 834.63 275.46 836.47C275.67 837.56 275.29 838.68 274.81 839.69C268.76 852.47 252.27 850.75 245 840.55C238.07 830.82 233.6 814.62 236.92 802.95C237.6 800.59 239.46 797.79 241.55 797.84Z" fill="#37C1D3"/>
<path d="M831.84 786.59C828.77 780.61 826.22 774.06 826.67 767.35C827.49 755.16 837.58 746.01 846.28 737.43C854.98 728.85 863.53 717.25 860.24 705.48C857.08 694.17 844.75 688.65 834.31 683.28C823.86 677.92 812.7 668.37 815 656.86C818.3 640.37 845.5 637.8 848.45 621.24C849.52 615.25 846.84 609.29 844.24 603.78C835.35 584.99 826.46 566.2 817.57 547.41C813.5 538.81 809.85 527.42 816.66 520.78C821.25 516.31 828.46 516.41 834.47 514.21C850.07 508.49 854.75 489.23 858.33 473C861.91 456.78 870.25 437.65 886.82 436.45C893.2 435.99 899.44 438.52 904.95 441.78C926.8 454.71 940.28 480.59 938.36 505.91C937.54 516.75 934.44 528.85 940.84 537.64C944.17 542.21 949.45 544.84 954.11 548.03C971.95 560.22 981.81 583.13 978.39 604.46C976.06 619.02 968.3 634.52 975.14 647.58C982.8 662.19 1004.73 664.68 1012 679.48C1017.99 691.66 1011.18 706.14 1003.32 717.21C995.46 728.28 985.95 739.77 986.29 753.34C986.46 760.36 989.34 767.04 990.1 774.02C992.05 791.82 980.1 808.31 966.23 819.64C948.32 834.28 921.15 849.81 897.51 841.97C870.45 833 844.83 811.87 831.84 786.59Z" fill="#8BDEEC"/>
<path d="M919.83 846.89C918.38 846.89 917.15 845.78 917.03 844.31L895.41 576.53C895.29 574.98 896.44 573.63 897.99 573.5C899.55 573.39 900.9 574.53 901.02 576.07L922.64 843.85C922.76 845.4 921.61 846.75 920.06 846.88C919.99 846.89 919.91 846.89 919.83 846.89Z" fill="white"/>
<path d="M904.52 657.17C903.9 657.17 903.28 656.97 902.76 656.55C901.55 655.58 901.35 653.81 902.32 652.6L940.3 605.2C941.27 603.99 943.05 603.79 944.25 604.76C945.46 605.73 945.66 607.5 944.69 608.71L906.71 656.11C906.16 656.81 905.34 657.17 904.52 657.17Z" fill="white"/>
<path d="M913.59 749.56C912.97 749.56 912.35 749.36 911.83 748.94C910.62 747.97 910.42 746.2 911.39 744.99L949.37 697.59C950.34 696.38 952.12 696.18 953.32 697.15C954.53 698.12 954.73 699.89 953.76 701.1L915.78 748.5C915.23 749.2 914.41 749.56 913.59 749.56Z" fill="white"/>
<path d="M909.03 713C908.38 713 907.73 712.78 907.2 712.32L871.71 681.77C870.53 680.76 870.4 678.98 871.41 677.81C872.42 676.63 874.19 676.5 875.37 677.51L910.86 708.06C912.04 709.07 912.17 710.85 911.16 712.02C910.6 712.67 909.82 713 909.03 713Z" fill="white"/>
<path d="M924.36 772.84C922.46 768.9 920.51 764.73 920.85 760.37C921.33 754.28 926.1 749.47 930.88 745.66C941.75 736.99 954.26 730.31 963.97 720.35C973.68 710.39 980.3 695.63 975.59 682.55C971.88 672.25 961.74 664.4 961.07 653.47C960.17 639 975.69 629.63 982.98 617.1C989.05 606.67 989.27 593.94 992.95 582.45C996.63 570.96 1006.73 559.39 1018.6 561.55C1031.66 563.92 1036.29 580.25 1036.45 593.53C1036.61 606.81 1035.89 622.23 1046.01 630.82C1049.51 633.79 1054.07 635.62 1056.78 639.33C1059.24 642.71 1059.74 647.09 1060.17 651.25C1062.53 674.41 1064.39 699.74 1051.35 719.02C1048.37 723.43 1044.58 727.59 1043.54 732.82C1040.98 745.75 1056.23 757.05 1054.14 770.07C1052.36 781.11 1039.58 786.26 1032.87 795.21C1025.25 805.37 1025.9 820.02 1018.17 830.09C1006.65 845.1 973.94 848.16 958.84 836.79C941.74 823.89 933.25 791.23 924.36 772.84Z" fill="#1A4A67"/>
<path d="M978.08 846.97C977.93 846.97 977.77 846.96 977.62 846.93C976.09 846.68 975.05 845.23 975.3 843.7L1009.19 638.59C1009.44 637.05 1010.91 636.02 1012.42 636.28C1013.95 636.53 1014.99 637.98 1014.74 639.51L980.85 844.62C980.63 846 979.43 846.97 978.08 846.97Z" fill="white"/>
<path d="M1001.68 712.44C1001.03 712.44 1000.38 712.22 999.86 711.77C998.68 710.76 998.54 708.99 999.54 707.81L1033.05 668.48C1034.06 667.3 1035.84 667.16 1037.01 668.16C1038.19 669.17 1038.33 670.94 1037.33 672.12L1003.82 711.45C1003.26 712.11 1002.47 712.44 1001.68 712.44Z" fill="white"/>
<path d="M987.65 789.05C986.63 789.05 985.64 788.49 985.15 787.52L965.49 749.26C964.78 747.88 965.33 746.19 966.7 745.48C968.08 744.77 969.78 745.31 970.48 746.69L990.14 784.95C990.85 786.33 990.3 788.02 988.93 788.73C988.52 788.95 988.08 789.05 987.65 789.05Z" fill="white"/>
<path d="M1089.2 801.79C1094.28 795.3 1104.4 791.17 1103.86 782.95C1103.4 775.97 1094.75 770.66 1096.45 763.87C1098.05 757.48 1106.78 756.84 1113.33 757.61C1114.62 753.19 1113.65 748.49 1113.2 743.91C1112.75 739.33 1113.01 734.23 1116.14 730.85C1119.27 727.47 1126.07 727.65 1127.53 732.01C1129.85 725.46 1132.17 718.92 1134.5 712.37C1135.45 709.68 1136.84 706.6 1139.63 706.02C1143.7 705.17 1146.45 710.53 1145.81 714.64C1145.17 718.75 1142.76 722.56 1142.91 726.72C1143.1 732 1148.13 736.6 1153.41 736.33C1147.98 740.56 1141.98 747.63 1145.77 753.37C1147.68 756.26 1151.94 758.66 1150.68 761.88C1149.43 765.09 1143.66 764.8 1142.95 768.18C1141.99 772.68 1151.56 774.77 1149.76 779.01C1143.86 778.08 1138.76 785.91 1142 790.93C1145.56 796.45 1154.29 795.63 1159.05 800.17C1162.46 803.43 1162.99 808.85 1161.59 813.35C1156.09 831.05 1135.39 852.32 1115.97 845.37C1100.52 839.83 1074.42 820.64 1089.2 801.79Z" fill="#E6E7E8"/>
<path d="M1121.36 849.39C1121.29 849.39 1121.22 849.39 1121.15 849.38C1119.6 849.26 1118.44 847.91 1118.56 846.37L1125.85 749.1C1125.97 747.55 1127.36 746.4 1128.86 746.51C1130.41 746.63 1131.57 747.98 1131.45 749.52L1124.16 846.79C1124.05 848.27 1122.81 849.39 1121.36 849.39Z" fill="white"/>
<path d="M1124.41 808.56C1123.78 808.56 1123.15 808.35 1122.64 807.93L1104.75 793.35C1103.55 792.37 1103.37 790.6 1104.35 789.4C1105.33 788.19 1107.11 788.02 1108.3 789L1126.19 803.58C1127.39 804.56 1127.57 806.33 1126.59 807.53C1126.04 808.2 1125.22 808.56 1124.41 808.56Z" fill="white"/>
<path d="M1123.78 835.48C1122.96 835.48 1122.15 835.12 1121.59 834.44C1120.62 833.23 1120.81 831.46 1122.01 830.49L1150.27 807.67C1151.48 806.7 1153.25 806.88 1154.23 808.09C1155.2 809.3 1155.01 811.07 1153.81 812.04L1125.55 834.86C1125.03 835.27 1124.4 835.48 1123.78 835.48Z" fill="white"/>
<path d="M821.35 840.54C822.16 832.28 822.14 824.62 824.85 816.56C825.76 813.84 827.06 810.94 829.64 809.7C830.13 809.46 830.71 809.3 831.2 809.52C831.63 809.71 831.9 810.14 832.12 810.57C846.16 837.47 808.48 852.6 791.29 832.37C790.23 831.12 789.23 829.69 789.08 828.05C788.81 825.05 791.67 822.46 794.66 822.11C797.65 821.76 800.58 823.12 803.05 824.83C809.59 829.36 813.94 836.34 818.1 843.11C812.3 834.39 809.31 823.84 809.66 813.38C809.71 811.81 810.24 809.8 811.81 809.67C812.56 809.61 813.25 810.04 813.85 810.5C818.13 813.79 820.54 819.06 821.44 824.39C822.33 829.71 821.86 835.16 821.35 840.54Z" fill="#1A4A67"/>
<path d="M1207.89 814.09C1208.15 814.1 1208.42 814.16 1208.69 814.31C1209.54 814.77 1209.85 815.82 1210.05 816.77C1211.9 825.45 1211.85 823.32 1210.93 834.7C1212.87 827.59 1212.1 828.84 1215.73 822.42C1216.43 821.17 1217.22 819.89 1218.44 819.14C1226.36 814.29 1218.69 835.77 1217.35 838.24C1212.38 847.38 1202.71 849.65 1193.34 846.28C1185.11 843.33 1177.25 836.92 1174.31 828.54C1174.04 827.78 1173.85 826.84 1174.42 826.26C1174.81 825.87 1175.42 825.81 1175.97 825.81C1180.94 825.8 1185.6 828.33 1189.39 831.53C1193.19 834.73 1196.33 838.63 1199.91 842.08C1202.44 844.52 1208.03 844.38 1211.52 844.8C1217.46 845.52 1219.8 843.21 1224.96 840.18C1226.08 839.52 1227.31 838.91 1228.62 838.93C1229.92 838.94 1231.3 839.76 1231.55 841.04C1231.7 841.8 1231.43 842.58 1231.1 843.28C1226.88 852.2 1215.37 851 1210.3 843.88C1205.46 837.09 1202.35 825.78 1204.66 817.64C1205.13 816.01 1206.43 814.06 1207.89 814.09Z" fill="#37C1D3"/>
<path d="M1250.39 766.97C1253.84 766.97 1256.63 764.176 1256.63 760.73C1256.63 757.284 1253.84 754.49 1250.39 754.49C1246.94 754.49 1244.15 757.284 1244.15 760.73C1244.15 764.176 1246.94 766.97 1250.39 766.97Z" fill="#8BDEEC"/>
<path d="M1232.31 742.43C1235.76 742.43 1238.55 739.636 1238.55 736.19C1238.55 732.744 1235.76 729.95 1232.31 729.95C1228.86 729.95 1226.07 732.744 1226.07 736.19C1226.07 739.636 1228.86 742.43 1232.31 742.43Z" fill="#8BDEEC"/>
<path d="M1212.8 768.68C1216.25 768.68 1219.04 765.886 1219.04 762.44C1219.04 758.994 1216.25 756.2 1212.8 756.2C1209.35 756.2 1206.56 758.994 1206.56 762.44C1206.56 765.886 1209.35 768.68 1212.8 768.68Z" fill="#8BDEEC"/>
<path d="M436.32 336.98L551.22 208.68L534.98 246.59L443.08 336.98H436.32Z" fill="#1A4A67"/>
<path d="M499.73 467.84L422.76 438.22C409.33 433.05 402.57 417.83 407.74 404.4L430.08 346.34C435.25 332.91 450.47 326.15 463.9 331.32L540.87 360.94C554.3 366.11 561.06 381.33 555.89 394.76L533.55 452.82C528.37 466.25 513.16 473.01 499.73 467.84Z" fill="#1A4A67"/>
<path d="M729.25 253.91L774.63 177.59C774.63 177.59 792.33 167.5 788.54 181.08C784.75 194.66 744.7 260.48 744.7 260.48L729.25 253.91Z" fill="#1A4A67"/>
<path d="M600.91 192.79L587.39 236.21L549.56 240.76C549.56 240.76 577.97 215.7 581.3 187.81C584.63 159.92 600.91 192.79 600.91 192.79Z" fill="white"/>
<path fill-rule="evenodd" clip-rule="evenodd" d="M547.7 238.66L540.94 244.63L589.53 238.79L603.93 192.55L603.43 191.54C600.59 185.81 593.14 172.6 585.95 173.87C580.63 174.79 579.16 182.08 578.51 187.49C575.397 213.566 548.779 237.682 547.73 238.633C547.714 238.647 547.704 238.656 547.7 238.66ZM586.9 179.41C586.94 179.4 586.99 179.4 587.03 179.4C588.84 179.4 593.86 185.25 597.88 193.04L585.24 233.64L557.42 236.99C566.17 227.78 581.61 208.9 584.09 188.15C585.05 180.09 586.88 179.41 586.9 179.41Z" fill="#1A4A67"/>
<path d="M654.54 110.52C654.54 110.52 659.53 122.37 644.47 151C629.42 179.63 610.93 202.66 602.21 198.49C578.09 186.97 573.73 166.76 568.82 149.11C562.81 127.47 595.94 86.81 595.94 86.81L618.97 81.02L654.54 110.52Z" fill="white"/>
<path fill-rule="evenodd" clip-rule="evenodd" d="M601 201.03C602.06 201.53 603.19 201.77 604.36 201.77C616.53 201.77 634.47 176.07 646.96 152.3C662.45 122.83 657.35 109.95 657.13 109.42L656.86 108.79L619.68 77.94L594.36 84.31L593.77 85.03C592.38 86.74 559.79 127.09 566.12 149.86L566.9 152.7C571.64 169.99 577.01 189.57 601 201.03ZM571.54 148.37C566.4 129.87 593.26 94.77 597.56 89.31L618.29 84.11L652.1 112.15C652.7 114.75 654.26 126.36 641.99 149.7C624.26 183.44 608.23 198.25 603.43 195.97C581.76 185.62 576.96 168.14 572.33 151.23L571.54 148.37Z" fill="#1A4A67"/>
<path d="M575.24 123.86C575.24 123.86 572.8 141.48 572.77 162.78C572.77 163.58 572.7 164.24 572.19 164.85C570.93 166.34 561.44 150.44 560.73 149.21C556.07 141.19 548.95 131.39 551.77 121.68C552.56 118.97 553.98 116.42 554.23 113.62C554.69 108.34 550.62 104.99 549.68 100.25C548.8 95.85 549.98 90.83 551.34 86.67C553.93 78.77 559.19 70.12 566.41 65.65C572.1 62.13 576.92 63.85 582.61 61.87C585.61 60.83 586.96 57.45 588.98 55C592.09 51.24 597.15 49.52 602.03 49.39C608.05 49.22 616.74 50.42 621.87 53.9C628.4 58.33 629.05 70.04 635.22 73.31C636.28 73.87 637.5 74 638.69 74.11C650.2 75.23 661.12 74.71 670.34 82.59C684.9 95.03 674.92 139.03 653.44 126.58C650.98 125.15 648.89 123.17 646.54 121.56C635.24 113.79 620.89 126.81 613.28 107.16C611.92 103.65 588.43 102.4 588.12 111.99C587.73 124.51 575.24 123.86 575.24 123.86Z" fill="#1A4A67"/>
<path d="M409.92 730.69L375.64 778.5L358.48 768.68L397.21 720.92C397.21 720.93 407.35 724.94 409.92 730.69Z" fill="white"/>
<path fill-rule="evenodd" clip-rule="evenodd" d="M354.21 769.48L376.44 782.2L413.15 731.01L412.49 729.54C409.54 722.93 399.4 718.76 398.25 718.31L396.33 717.55L354.21 769.48ZM374.83 774.81L362.74 767.89L398.03 724.37C400.68 725.66 404.63 727.96 406.57 730.54L374.83 774.81Z" fill="#1A4A67"/>
<path d="M418.39 837.73C417.53 838.75 410.94 837.2 409.94 837.05C399.62 835.52 383.68 833.69 375.79 826.29C368.11 819.08 364.19 808.2 357.72 799.97C353.16 794.18 346.81 790.08 341.04 785.56C334.68 780.57 354.12 750.98 361.76 757.52C367.95 762.82 362.68 773.85 380.45 775.2C395.67 776.36 382.64 796.24 398.01 811.86C411.6 825.68 427.76 826.6 418.39 837.73Z" fill="#A7A9AC"/>
<path fill-rule="evenodd" clip-rule="evenodd" d="M410.33 839.99C413.18 840.55 415.29 840.89 416.88 840.89C418.61 840.89 419.74 840.49 420.52 839.57C423.24 836.35 424.31 833.57 423.89 830.83C423.22 826.47 419.01 823.78 413.67 820.38L413.654 820.37C409.617 817.792 404.594 814.584 400.01 809.93C393.173 802.983 392.551 795.187 392.001 788.299L392 788.29L391.999 788.276C391.429 781.219 390.783 773.219 380.66 772.44C370.774 771.68 369.601 768.043 368.112 763.426L368.11 763.42C367.26 760.75 366.28 757.73 363.59 755.42C361.6 753.71 358.95 753.35 356.11 754.39C348.11 757.35 338.48 771.7 337.14 780.26C336.47 784.56 337.95 786.74 339.31 787.8C340.6 788.81 341.93 789.81 343.25 790.8L343.326 790.857C347.888 794.286 352.208 797.533 355.51 801.73C358.043 804.931 360.148 808.549 362.38 812.386L362.4 812.42C365.66 818.02 369.04 823.81 373.87 828.35C381.84 835.83 396.53 837.96 407.26 839.51L409.53 839.84C409.628 839.853 409.782 839.883 409.979 839.922C410.084 839.943 410.202 839.966 410.33 839.99ZM352.88 763.45C355.38 760.91 357.76 759.41 359.14 759.41C359.47 759.41 359.74 759.49 359.95 759.66C361.43 760.93 362.06 762.87 362.78 765.11L362.783 765.12C364.393 770.119 366.599 776.971 380.25 778.01C385.1 778.38 385.75 780.37 386.42 788.71C386.98 795.77 387.76 805.44 396.03 813.85C401.06 818.96 406.39 822.36 410.67 825.09C414.64 827.62 418.07 829.81 418.35 831.65C418.51 832.68 417.67 834.1 416.77 835.27C416.01 835.25 414.48 835.08 411.42 834.47C410.93 834.37 410.55 834.3 410.36 834.27L408.07 833.94L408.039 833.935C398.051 832.486 384.393 830.503 377.72 824.24C373.48 820.26 370.45 815.07 367.25 809.57C365.02 805.73 362.7 801.76 359.93 798.23C356.184 793.473 351.387 789.865 346.746 786.375L346.62 786.28C346.414 786.125 346.208 785.97 346.001 785.815C344.918 785.002 343.839 784.192 342.78 783.36C341.52 781.93 345.22 771.21 352.88 763.45Z" fill="#1A4A67"/>
<path d="M516.3 532.6C504.67 574.07 511.43 574.75 482.79 607.1C468.82 622.88 391.46 688.04 377.06 703.46C356.52 725.45 377.94 735.56 393.18 742C403.15 746.21 409.1 768.12 424.25 751.99C425.75 750.4 451.83 716.73 459.66 701.98C468.63 685.09 520.01 638.89 537.72 622.65C579.88 584 558.57 565.43 584.37 514.83C594.19 495.56 592.01 475.05 594.92 452.89C596.7 439.33 576.01 375.86 547.23 387.08C529.32 394.07 536.16 430.4 536.92 444.73C537.45 454.64 538.88 465.57 536.42 475.16C531.37 494.84 521.8 513.01 516.3 532.6Z" fill="white"/>
<path fill-rule="evenodd" clip-rule="evenodd" d="M413.83 760.65H413.98C418.01 760.65 422.03 758.44 426.27 753.92C427.77 752.32 454.06 718.47 462.11 703.3C470.153 688.152 515.486 646.748 534.902 629.014L534.95 628.97L539.6 624.72C565.22 601.24 568.15 584.4 571.54 564.9L571.549 564.848C573.877 551.51 576.514 536.403 586.86 516.1C594.076 501.958 595.029 487.466 596.038 472.115L596.04 472.09C596.44 465.96 596.86 459.64 597.7 453.25C599.11 442.5 587.78 403.4 569.04 388.7C561.72 382.95 553.81 381.49 546.2 384.46C529.055 391.148 531.699 418.765 533.449 437.045L533.45 437.06C533.74 440.06 533.99 442.72 534.11 444.88C534.21 446.68 534.33 448.51 534.46 450.36L534.461 450.369C535.02 458.566 535.599 467.043 533.69 474.47C531.08 484.62 527.16 494.62 523.36 504.28C519.86 513.18 516.24 522.39 513.59 531.85C510.722 542.061 508.953 549.887 507.534 556.164L507.53 556.18L507.53 556.181C503.15 575.52 501.83 581.351 480.68 605.24C473.39 613.48 448.32 635.59 424.07 656.97C402.36 676.11 381.86 694.2 375 701.54C367.71 709.35 364.72 716.67 366.13 723.28C368.36 733.76 380.7 739.78 392.08 744.59C394.64 745.67 397.22 748.57 399.71 751.37L399.743 751.407C403.575 755.708 407.907 760.57 413.83 760.65ZM513.02 557.41C514.43 551.19 516.19 543.45 519.01 533.36C521.565 524.233 525.109 515.215 528.54 506.482L528.6 506.33C532.46 496.51 536.45 486.35 539.14 475.86C541.27 467.55 540.66 458.61 540.07 449.97L540.045 449.594C539.934 447.902 539.823 446.228 539.73 444.58C539.61 442.36 539.35 439.61 539.05 436.53L539.048 436.511C537.558 420.919 535.065 394.838 548.25 389.7C554.08 387.42 559.75 388.55 565.58 393.12C582.71 406.56 593.26 443.95 592.13 452.52C591.268 459.033 590.847 465.398 590.441 471.558L590.43 471.72L590.427 471.762C589.458 486.516 588.544 500.442 581.86 513.55C571.11 534.63 568.4 550.2 566.01 563.94C562.66 583.19 560.01 598.39 535.81 620.58L531.17 624.82L531.014 624.962C509.695 644.437 465.639 684.679 457.16 700.66C449.5 715.1 423.73 748.38 422.18 750.07C419.06 753.39 416.19 755.06 413.89 755.03C410.443 754.98 407.284 751.436 403.928 747.672L403.89 747.63C400.99 744.36 397.98 740.98 394.26 739.41C384.19 735.15 373.29 729.94 371.62 722.1C370.61 717.39 373.13 711.76 379.1 705.37C385.777 698.233 406.174 680.244 427.764 661.203L427.79 661.18C452.17 639.68 477.37 617.45 484.89 608.96C507 583.99 508.52 577.29 513.02 557.41Z" fill="#1A4A67"/>
<path d="M607.19 751.91L620.2 811.1L600.86 817.48L590.95 754.91C590.96 754.92 601.01 749.91 607.19 751.91Z" fill="white"/>
<path fill-rule="evenodd" clip-rule="evenodd" d="M587.86 753.32L598.61 821.19L623.5 812.98L609.59 749.73L608.06 749.23C600.99 746.96 590.84 751.83 589.71 752.4L587.86 753.32ZM603.12 813.78L594.07 756.6C596.93 755.43 601.46 753.96 604.84 754.29L616.92 809.23L603.12 813.78Z" fill="#1A4A67"/>
<path d="M699.4 834.43C699.4 834.43 684.93 839.37 657.19 841.43C629.45 843.49 598.49 844.52 592.87 840.4C587.24 836.28 583.62 801.29 592.87 801.29C602.12 801.29 605.71 814.67 622.02 802.73C635.99 792.5 647.15 811.79 671.47 816.93C695.79 822.07 705.64 824.13 699.4 834.43Z" fill="#D1D3D4"/>
<path fill-rule="evenodd" clip-rule="evenodd" d="M591.21 842.66C594.29 844.91 603.01 846.04 617.26 846.04C627.69 846.04 641.09 845.44 657.39 844.22C685.044 842.169 699.568 837.324 700.291 837.083L700.3 837.08L701.27 836.75L701.8 835.88C704.08 832.13 704.61 828.97 703.42 826.24C700.833 820.277 691.283 818.255 672.109 814.195L672.04 814.18C662.486 812.163 655.034 807.844 648.452 804.028L648.42 804.01C638.56 798.29 630.04 793.36 620.35 800.46C611.08 807.25 607.28 804.92 602.47 801.97L602.454 801.96C599.788 800.322 596.772 798.47 592.87 798.47C591.01 798.47 587.63 799.31 585.8 804.92C582.58 814.79 585.17 838.24 591.21 842.66ZM591.15 806.65C591.66 805.09 592.34 804.09 592.87 804.09C595.188 804.09 597.197 805.328 599.515 806.757L599.52 806.76C604.79 810 611.35 814.02 623.67 804.99C630.11 800.28 635.62 803.08 645.6 808.87C652.21 812.71 660.44 817.48 671.04 819.72L671.164 819.746C685.515 822.784 696.834 825.179 698.26 828.48C698.6 829.27 698.35 830.48 697.5 832.08C693.82 833.18 679.97 836.92 656.98 838.63C615.62 841.69 597.6 840.38 594.52 838.13C591.89 836.19 588.05 816.1 591.15 806.65Z" fill="#1A4A67"/>
<path d="M656.11 774.96C655.18 772.79 652.74 771.17 650.62 769.48C631.25 754.04 641.36 730.6 639.08 709.91C631.97 645.45 644.21 607.74 619.97 541.89C603.47 497.08 599.02 467.51 595.03 417.73C593.64 400.45 627.87 378.12 601.76 383.06C589.39 385.4 577.18 384.94 564.85 382.78C558.36 381.64 564.98 379.53 558.36 381.64C535.81 388.84 519.03 429.21 518.75 444.76C518.12 479.62 544.88 502.5 552.19 532.99C565.03 586.54 585.21 624.42 579.94 668.48C577.36 690.07 574.36 711.6 571.48 733.15C569.8 745.72 559.29 773.26 566.34 784.64C576.02 800.26 619.15 787.02 633.56 786.67C644.39 786.4 659.27 782.33 656.11 774.96Z" fill="white"/>
<path fill-rule="evenodd" clip-rule="evenodd" d="M563.95 786.11C568.16 792.91 577.27 795.02 587.77 795.02C597.67 795.02 608.81 793.14 618.23 791.55C624.6 790.48 630.1 789.56 633.61 789.47C640.3 789.31 654.02 787.3 658.13 780.9C659.53 778.72 659.72 776.28 658.68 773.85C657.616 771.364 655.356 769.61 653.354 768.056L653.32 768.03L652.36 767.28C639.88 757.33 640.77 743.54 641.72 728.94C642.14 722.56 642.57 715.97 641.86 709.59C639.43 687.47 639.28 668.62 639.14 650.39L639.14 650.354C638.88 616.467 638.634 584.455 622.6 540.91C606.32 496.7 601.8 467.11 597.82 417.5C597.29 410.914 603.243 402.82 608.021 396.322L608.03 396.31C612.79 389.85 615.93 385.57 613.71 382.04C611.68 378.82 606.51 379.3 601.23 380.3C590.15 382.4 578.41 382.3 565.33 380.01C565.03 379.958 564.773 379.9 564.568 379.852C564.534 379.845 564.501 379.837 564.47 379.83V379.42L563.31 378.53C561.99 377.53 561.13 377.8 557.51 378.96C533.09 386.75 516.23 429.48 515.95 444.71C515.56 466.04 525.02 482.97 534.17 499.34C540.54 510.74 546.56 521.52 549.47 533.64C553.446 550.212 558.05 565.069 562.506 579.444L562.52 579.49L562.526 579.508C572.293 611.03 580.729 638.256 577.15 668.14C575.245 684.075 573.07 700.234 570.958 715.928L570.61 718.51L568.69 732.78C568.26 736.006 567.161 740.483 565.991 745.25L565.91 745.58L565.897 745.634C562.479 759.555 558.228 776.872 563.95 786.11ZM559.779 384.137C559.94 384.086 560.091 384.038 560.23 383.99C561.512 385.035 563.368 385.371 564.321 385.543L564.36 385.55C578.11 387.95 590.52 388.04 602.28 385.82C605.98 385.12 607.78 385.11 608.63 385.21C607.972 386.914 605.448 390.346 603.53 392.953L603.51 392.98C598.17 400.24 591.53 409.27 592.22 417.95C596.24 468.09 600.82 498.03 617.33 542.86C633.027 585.491 633.26 615.587 633.53 650.418L633.53 650.44C633.67 668.81 633.82 687.81 636.29 710.22C636.94 716.11 636.53 722.46 636.13 728.59C635.13 743.98 634.1 759.9 648.87 771.68L649.89 772.48C651.43 773.67 653.02 774.91 653.52 776.07C653.87 776.88 653.73 777.38 653.41 777.87C651.44 780.95 642.5 783.64 633.49 783.86C629.58 783.96 623.9 784.91 617.32 786.02L617.291 786.025C600.411 788.865 574.917 793.154 568.73 783.16C564.244 775.926 568.363 759.187 571.373 746.96L571.38 746.93L571.399 746.853C572.681 741.636 573.792 737.112 574.27 733.53L576.19 719.27C578.42 702.75 580.72 685.67 582.74 668.82C586.458 637.757 577.86 610.011 567.907 577.893L567.89 577.84L567.797 577.539C563.396 563.333 558.843 548.635 554.94 532.34C551.85 519.47 545.36 507.85 539.08 496.61C530.29 480.89 521.21 464.63 521.57 444.82C521.83 430.27 537.97 391.1 559.22 384.32C559.418 384.252 559.605 384.193 559.779 384.137Z" fill="#1A4A67"/>
<path d="M606.94 300.54C600.4 274 607.5 229.36 588.79 209.67C586.87 207.65 584.84 205.66 582.3 204.51C558.79 193.92 544.61 213.22 534.5 229.95C524.38 246.7 524.61 264.82 519.67 283.6C514.05 304.95 515.18 327.15 514.78 349.19C514.53 362.61 516.17 375.94 515.41 389.38C514.88 398.76 513.55 408.08 511.41 417.22C509.99 423.3 502.04 435.37 504.36 441.56C506.2 446.46 514.62 444.61 518.76 444.75C534.77 445.28 550.46 440.53 564.7 433.49C577.71 427.06 591.46 427.31 606.47 426.07C613.92 425.45 623.58 419.03 620.21 405.49C612.22 373.4 614.55 345.29 611.25 322.63C610.17 315.31 608.75 307.9 606.94 300.54Z" fill="#37C1D3"/>
<path fill-rule="evenodd" clip-rule="evenodd" d="M501.73 442.56C503.4 447.02 508.02 447.8 512.22 447.8C513.47 447.8 514.69 447.73 515.78 447.66L515.995 447.648C516.992 447.592 517.905 447.541 518.67 447.56C533.49 448.05 549.46 444.17 565.95 436.02C576.193 430.959 587.243 430.222 598.931 429.444L598.99 429.44C601.52 429.28 604.09 429.11 606.7 428.89C610.98 428.54 616.84 426.35 620.49 421.26C622.71 418.17 624.93 412.81 622.94 404.83C617.96 384.831 617.03 366.161 616.21 349.701L616.21 349.7C615.73 339.94 615.27 330.72 614.03 322.24C612.92 314.62 611.46 307.09 609.68 299.87C607.456 290.863 606.853 279.677 606.215 267.83L606.21 267.74L606.21 267.732C604.98 244.894 603.709 221.288 590.83 207.73C588.76 205.55 586.48 203.31 583.46 201.95C555.705 189.442 539.776 215.811 532.114 228.493L532.11 228.5C524.99 240.29 522.86 252.36 520.61 265.14L520.531 265.584C519.526 271.245 518.49 277.082 516.96 282.89C512.294 300.627 512.19 319.072 512.09 336.91L512.09 336.95C512.07 341.02 512.04 345.09 511.97 349.15C511.864 354.968 512.114 360.814 512.357 366.488L512.38 367.02C512.7 374.31 513.02 381.86 512.61 389.24C512.1 398.45 510.77 407.66 508.68 416.6C508.262 418.374 507.099 420.981 505.864 423.75L505.85 423.78C503 430.15 499.78 437.37 501.73 442.56ZM536.91 231.41C545.59 217.05 555.52 204.34 569.48 204.34C573.08 204.34 576.96 205.19 581.14 207.09C583.23 208.03 585.05 209.84 586.74 211.62C598.19 223.68 599.41 246.24 600.58 268.06L600.595 268.327C601.249 280.378 601.867 291.76 604.2 301.23C605.94 308.27 607.37 315.62 608.45 323.06C609.645 331.243 610.096 340.289 610.574 349.861L610.58 349.99C611.41 366.72 612.36 385.67 617.47 406.2C618.65 410.93 618.12 414.9 615.91 417.99C613.38 421.52 609.25 423.04 606.23 423.29C604.118 423.47 602.032 423.61 599.973 423.748C599.517 423.779 599.063 423.809 598.61 423.84C586.32 424.65 574.71 425.43 563.45 430.99C547.8 438.73 532.77 442.42 518.84 441.96C517.89 441.93 516.72 441.99 515.45 442.06L515.397 442.063C512.326 442.233 507.706 442.489 506.99 440.59C505.856 437.575 508.79 430.987 510.947 426.144L510.98 426.07C512.34 423.04 513.61 420.18 514.15 417.88C516.31 408.62 517.68 399.09 518.22 389.55C518.645 381.977 518.318 374.374 518.001 367.022L517.99 366.77L517.988 366.708C517.738 360.978 517.481 355.049 517.59 349.25C517.67 345.16 517.69 341.07 517.71 336.98C517.8 319.47 517.9 301.38 522.39 284.32C524.01 278.14 525.09 272.03 526.13 266.12L526.13 266.119C528.29 253.87 530.33 242.3 536.91 231.41Z" fill="#1A4A67"/>
<path d="M565.22 243.97C565.22 243.97 598.69 320.34 614.97 330.63C631.25 340.92 645.35 339.45 674.05 320.66C702.76 301.87 728.57 279.43 731.3 276.87C734.03 274.31 757.57 271.51 759.63 261.35C761.69 251.19 770.64 218.32 762.02 224.77C753.4 231.22 745.97 252.5 738.79 252.87C731.61 253.24 741.78 230.89 735.25 234.49C728.72 238.09 728.26 244.01 725.91 249.04C723.56 254.07 726.66 259.74 712.39 272.24C698.12 284.74 651.45 317.37 638.02 314.94C624.59 312.5 575.39 240.13 573.38 234.59C571.36 229.06 565.22 243.97 565.22 243.97Z" fill="white"/>
<path fill-rule="evenodd" clip-rule="evenodd" d="M613.47 333.01C620.51 337.45 627.21 339.75 634.51 339.75C645.69 339.75 658.27 334.35 675.6 323.01C704.18 304.3 730.27 281.68 733.14 278.99C733.778 278.549 736.581 277.722 738.896 277.04L739.03 277L739.055 276.993C747.645 274.473 760.602 270.672 762.38 261.91C762.678 260.432 763.129 258.459 763.647 256.195C763.704 255.947 763.762 255.695 763.82 255.44C768.77 233.88 770.18 224.44 766.1 221.78C765.14 221.15 763.12 220.43 760.32 222.52C756.01 225.75 752.25 231.85 748.61 237.76L748.593 237.787C745.575 242.685 741.515 249.271 738.96 250.01C738.62 248.48 739.27 244.49 739.64 242.25L739.646 242.212C740.453 237.272 741.034 233.716 738.57 231.97C737.82 231.44 736.22 230.75 733.87 232.04C728 235.28 726.26 240.09 724.73 244.33C724.3 245.53 723.87 246.72 723.34 247.86C722.595 249.449 722.302 251.027 722.017 252.559L722 252.65L721.998 252.664C721.278 256.591 720.379 261.5 710.52 270.13C694.98 283.74 650.04 314.24 638.51 312.17C627.21 310.12 578.81 241.03 576.01 233.63C575.02 230.9 573.04 230.57 572.24 230.55L572.234 230.55C570.93 230.53 567.732 230.481 562.62 242.9L562.17 244.01L562.65 245.1C564.03 248.25 596.66 322.39 613.47 333.01ZM616.48 328.25C603.95 320.33 577.92 265.78 568.29 243.95C569.4 241.4 570.71 238.94 571.73 237.43C579 249.98 623.02 315.09 637.53 317.72C653.03 320.5 701.63 285.42 714.25 274.37C725.59 264.44 726.73 258.21 727.56 253.67C727.81 252.29 728.01 251.21 728.46 250.24C729.06 248.94 729.55 247.6 730.04 246.24L730.042 246.235C731.131 243.217 732.101 240.529 734.57 238.4C734.46 239.232 734.313 240.137 734.186 240.924C734.163 241.063 734.141 241.199 734.12 241.33C733.27 246.5 732.47 251.38 734.88 254.08C735.88 255.19 737.36 255.76 738.93 255.68C744.355 255.4 748.543 248.602 753.397 240.721L753.41 240.7L753.464 240.612C756.567 235.58 759.759 230.404 762.94 227.63C763.23 232.95 759.88 247.52 758.35 254.17C758.29 254.432 758.231 254.691 758.173 254.946C757.646 257.252 757.186 259.267 756.88 260.78C755.781 266.224 744.335 269.583 737.483 271.593L737.46 271.6C732.89 272.94 730.64 273.64 729.39 274.81C726.48 277.53 700.77 299.81 672.52 318.3C642.73 337.81 630.27 336.97 616.48 328.25Z" fill="#1A4A67"/>
<path d="M611.35 269.11C611.35 269.11 591.01 208.23 566.83 220.5C542.65 232.77 578.52 297.46 578.52 297.46L617.8 276.8L611.35 269.11Z" fill="#78DFE8"/>
<path fill-rule="evenodd" clip-rule="evenodd" d="M576.06 298.84L577.4 301.24L622.19 277.67L613.84 267.71C612.09 262.63 598.58 225.03 580.1 217.45C575.16 215.42 570.27 215.61 565.55 218C561.31 220.16 558.39 223.77 556.87 228.73C549.94 251.34 574.99 296.91 576.06 298.84ZM568.1 223.01C569.84 222.12 571.59 221.68 573.36 221.68C574.87 221.68 576.4 222 577.97 222.64C594.788 229.539 608.196 268.562 608.678 269.964C608.684 269.983 608.688 269.995 608.69 270L608.86 270.51L613.41 275.94L579.69 293.68C574.65 284.02 556.85 247.97 562.25 230.37C563.31 226.87 565.23 224.46 568.1 223.01Z" fill="#1A4A67"/>
<path d="M791.8 63.96C794.28 67.95 798.83 70.57 802.69 68.72C798.32 74.27 799.56 89.9 798.4 97.39C820.96 80.59 843.54 63.43 870.12 64.5C874.42 64.67 879.17 64.93 882.53 61.73C884.11 60.22 885.2 58.09 886.1 55.92C891.99 41.7 891.05 24.98 889.98 9.17001C889.79 6.43001 889.41 3.28001 887.45 1.83001C886.33 1.00001 884.95 0.940007 883.63 0.930007C860.95 0.790007 838.67 8.94001 815.95 7.09001C808.73 6.50001 795.4 -1.36999 788.93 3.36001C783.2 7.56001 783.87 19.05 784.29 25.82C784.99 37.18 785.98 54.57 791.8 63.96Z" fill="#E6E7E8"/>
<path fill-rule="evenodd" clip-rule="evenodd" d="M883.74 106.11L882.58 112.38L889.1 108.33L889.522 108.067C910.899 94.7291 932.878 81.0157 958.41 81.8801L958.452 81.8814C963.081 82.0311 968.312 82.2002 972.41 78.9301C974.55 77.2201 975.85 74.9201 976.74 73.1101C983.146 60.1692 981.902 44.8217 980.902 32.4861L980.9 32.4601L980.898 32.4361C980.727 30.3971 980.377 26.212 977.05 24.1501C975.206 23.0064 973.1 22.9903 971.814 22.9805L971.76 22.9801C961.829 22.8483 952.04 24.1697 942.484 25.4596C941.888 25.54 941.294 25.6203 940.7 25.7001L940.611 25.7121C928.679 27.3183 916.35 28.978 904.25 28.1501C902.1 28.0101 899.09 27.1801 895.9 26.3001C888.86 24.3601 880.89 22.1701 875.57 25.4301C868.369 29.8446 869.168 40.8827 869.598 46.828L869.6 46.8501L869.63 47.3001C870.34 57.0801 871.43 71.8801 877.65 80.2801C879.57 82.8801 882.65 85.0501 886.02 85.7101C884.78 89.66 884.54 94.5701 884.32 99.0901L884.316 99.18C884.187 101.847 884.066 104.36 883.74 106.11ZM892.83 84.5201L901.55 75.2401L889.71 79.9801C887.14 81.0201 883.84 79.2401 882.12 76.9301C876.873 69.8446 875.861 56.0379 875.191 46.8978L875.19 46.8801L875.16 46.4301C874.81 41.6901 874.17 32.8501 878.47 30.2101C881.709 28.2206 888.726 30.1491 894.366 31.6989L894.37 31.7001C894.456 31.7237 894.542 31.7473 894.629 31.7708C898.002 32.6949 901.178 33.5645 903.83 33.7401C916.51 34.6194 929.161 32.9127 941.382 31.2638L941.41 31.2601L941.533 31.2435C951.245 29.9386 961.282 28.5901 971.15 28.5901C971.258 28.5901 971.373 28.589 971.493 28.5879C972.348 28.5799 973.47 28.5695 974.04 28.9201C974.97 29.5001 975.17 31.8901 975.25 32.9101L975.253 32.9468C976.242 45.1878 977.364 59.0716 971.65 70.6201C971.01 71.9101 970.12 73.5201 968.85 74.5301C966.386 76.4975 962.43 76.3717 958.368 76.2425L958.29 76.2401C932.84 75.4201 910.89 88.1201 889.82 101.22C889.86 100.61 889.89 99.9901 889.92 99.3601L889.922 99.3139C890.182 94.088 890.537 86.9529 892.83 84.5201Z" fill="#E6E7E8"/>
<path d="M823.42 109.79C825.9 113.13 830.45 115.33 834.31 113.78C829.94 118.43 831.18 131.53 830.02 137.8C852.58 123.72 875.16 109.34 901.74 110.23C906.04 110.37 910.79 110.59 914.15 107.91C915.73 106.65 916.82 104.86 917.72 103.04C923.61 91.1201 922.67 77.1101 921.6 63.8601C921.41 61.5601 921.03 58.9301 919.07 57.7101C917.95 57.0201 916.57 56.9701 915.25 56.9601C892.57 56.8501 870.29 63.6801 847.57 62.1201C840.35 61.6301 827.02 55.0301 820.55 58.9901C814.82 62.5101 815.49 72.1401 815.91 77.8201C816.6 87.3501 817.59 101.92 823.42 109.79Z" fill="#8BDEEC"/>
<path d="M770.58 136.94C770.35 130.66 770.03 124.03 766.63 118.75C765.33 116.72 763.52 114.91 761.23 114.16C759.22 113.5 757.05 113.7 754.95 113.91C745.23 114.88 735.52 115.85 725.8 116.82C720.72 117.33 715.52 117.87 710.92 120.07C706.32 122.28 702.35 126.53 701.94 131.62C701.65 135.21 703.14 138.72 705 141.8C706.32 143.99 707.86 146.07 709.81 147.72C714.52 151.7 721.06 152.74 727.22 152.59C733.38 152.44 739.51 151.27 745.67 151.5C752.5 151.75 761.73 157.87 767.42 158.23C778.99 158.98 770.8 143.2 770.58 136.94Z" fill="#E6E7E8"/>
<path d="M884.93 131.49C887.96 129.89 891.57 129.98 895 130.11C917.93 130.95 940.86 131.79 963.79 132.64C965.21 132.69 966.68 132.76 967.93 133.44C970.18 134.66 970.99 137.44 971.54 139.94C973.29 147.82 974.55 155.81 975.31 163.84C975.53 166.21 975.69 168.73 974.63 170.87C972.63 174.88 967.42 175.79 962.96 176.22C945.37 177.9 927.71 179.58 910.06 178.71C902.4 178.33 894.69 177.48 887.07 178.4C879.31 179.34 861.03 188.51 853.86 184.86C848.67 182.22 854.13 179.32 857.74 176.05C864.45 169.99 870.85 164.45 874.35 155.84C877.4 148.28 876.7 135.82 884.93 131.49Z" fill="#E6E7E8"/>
<path d="M828.54 212.68C834.14 214.29 839.15 217.5 844.68 219.33C851.88 221.7 859.63 221.62 867.21 221.52C880.86 221.34 894.5 221.15 908.15 220.97C911.97 220.92 916.29 221.08 918.83 223.92C920.49 225.78 920.98 228.38 921.4 230.84C922.72 238.5 924.04 246.15 925.35 253.81C926.05 257.87 926.65 262.42 924.26 265.78C921.58 269.55 916.34 270.2 911.73 270.52C892.1 271.87 872.48 273.23 852.85 274.58C851 274.71 849.02 274.81 847.41 273.89C845.93 273.04 845.02 271.47 844.24 269.95C840.95 263.54 838.57 256.67 837.19 249.6C836.2 244.52 835.68 239.2 833.2 234.66C829.33 227.59 831.62 227.27 827.95 221.02C822.62 211.93 823.06 211.1 828.54 212.68Z" fill="#E6E7E8"/>
<path d="M999.51 94.53C1002.67 95.44 1005.51 97.26 1008.64 98.29C1012.71 99.63 1017.09 99.59 1021.38 99.53C1029.1 99.43 1036.82 99.32 1044.53 99.22C1046.69 99.19 1049.13 99.28 1050.57 100.89C1051.51 101.94 1051.79 103.41 1052.03 104.8C1052.78 109.13 1053.52 113.46 1054.27 117.79C1054.67 120.09 1055 122.66 1053.65 124.56C1052.14 126.69 1049.17 127.06 1046.56 127.24C1035.46 128.01 1024.36 128.77 1013.26 129.54C1012.21 129.61 1011.09 129.67 1010.18 129.15C1009.34 128.67 1008.83 127.78 1008.39 126.92C1006.53 123.3 1005.18 119.41 1004.4 115.41C1003.84 112.53 1003.55 109.53 1002.14 106.96C999.95 102.96 1001.24 102.78 999.17 99.25C996.17 94.1 996.41 93.64 999.51 94.53Z" fill="#8BDEEC"/>
<path d="M903.12 161.9C906.141 161.9 908.59 159.451 908.59 156.43C908.59 153.409 906.141 150.96 903.12 150.96C900.099 150.96 897.65 153.409 897.65 156.43C897.65 159.451 900.099 161.9 903.12 161.9Z" fill="#1A4A67"/>
<path d="M925.98 161.9C929.001 161.9 931.45 159.451 931.45 156.43C931.45 153.409 929.001 150.96 925.98 150.96C922.959 150.96 920.51 153.409 920.51 156.43C920.51 159.451 922.959 161.9 925.98 161.9Z" fill="#1A4A67"/>
<path d="M949.89 161.9C952.911 161.9 955.36 159.451 955.36 156.43C955.36 153.409 952.911 150.96 949.89 150.96C946.869 150.96 944.42 153.409 944.42 156.43C944.42 159.451 946.869 161.9 949.89 161.9Z" fill="#1A4A67"/>
<path d="M1015.76 119.08C1017.75 119.08 1019.36 117.468 1019.36 115.48C1019.36 113.492 1017.75 111.88 1015.76 111.88C1013.77 111.88 1012.16 113.492 1012.16 115.48C1012.16 117.468 1013.77 119.08 1015.76 119.08Z" fill="white"/>
<path d="M1030.82 119.08C1032.81 119.08 1034.42 117.468 1034.42 115.48C1034.42 113.492 1032.81 111.88 1030.82 111.88C1028.83 111.88 1027.22 113.492 1027.22 115.48C1027.22 117.468 1028.83 119.08 1030.82 119.08Z" fill="white"/>
<path d="M1046.56 119.08C1048.55 119.08 1050.16 117.468 1050.16 115.48C1050.16 113.492 1048.55 111.88 1046.56 111.88C1044.57 111.88 1042.96 113.492 1042.96 115.48C1042.96 117.468 1044.57 119.08 1046.56 119.08Z" fill="white"/>
<path d="M872.08 30.89H802.72C801.6 30.89 800.68 29.97 800.68 28.85V21.3C800.68 20.18 801.6 19.26 802.72 19.26H872.08C873.2 19.26 874.12 20.18 874.12 21.3V28.85C874.13 29.97 873.21 30.89 872.08 30.89Z" fill="white"/>
<path d="M872.08 50H832.38C831.26 50 830.34 49.08 830.34 47.96V40.41C830.34 39.29 831.26 38.37 832.38 38.37H872.08C873.2 38.37 874.12 39.29 874.12 40.41V47.96C874.13 49.08 873.21 50 872.08 50Z" fill="white"/>
<path d="M884.45 74.21H830.9C829.78 74.21 828.86 73.29 828.86 72.17V71.13C828.86 70.01 829.78 69.09 830.9 69.09H884.45C885.57 69.09 886.49 70.01 886.49 71.13V72.17C886.49 73.29 885.57 74.21 884.45 74.21Z" fill="white"/>
<path d="M907.12 87.21H830.9C829.78 87.21 828.86 86.29 828.86 85.17V84.19C828.86 83.07 829.78 82.15 830.9 82.15H907.12C908.24 82.15 909.16 83.07 909.16 84.19V85.17C909.17 86.29 908.25 87.21 907.12 87.21Z" fill="white"/>
<path d="M907.12 99.58H830.9C829.78 99.58 828.86 98.66 828.86 97.54V96.56C828.86 95.44 829.78 94.52 830.9 94.52H907.12C908.24 94.52 909.16 95.44 909.16 96.56V97.54C909.17 98.66 908.25 99.58 907.12 99.58Z" fill="white"/>
<path d="M890.77 262.47H874.32C870.11 262.47 866.66 259.02 866.66 254.81V238.36C866.66 234.15 870.11 230.7 874.32 230.7H890.77C894.98 230.7 898.43 234.15 898.43 238.36V254.81C898.43 259.02 894.98 262.47 890.77 262.47Z" fill="white"/>
<path d="M883.79 248.55H881.29C878.44 248.55 876.1 246.22 876.1 243.36V240.86C876.1 238.01 878.43 235.67 881.29 235.67H883.79C886.64 235.67 888.98 238 888.98 240.86V243.36C888.98 246.22 886.65 248.55 883.79 248.55Z" fill="#1A4A67"/>
<path d="M882.54 248.64C877.9 248.64 874.1 252.44 874.1 257.08H890.97C890.98 252.44 887.18 248.64 882.54 248.64Z" fill="#1A4A67"/>
<path d="M752.95 139.63H729.53C725.32 139.63 721.87 136.18 721.87 131.97V108.55C721.87 104.34 725.32 100.89 729.53 100.89H752.95C757.16 100.89 760.61 104.34 760.61 108.55V131.97C760.6 136.19 757.16 139.63 752.95 139.63Z" fill="#8BDEEC"/>
<path d="M748.04 55.3001C751.486 55.3001 754.28 52.5063 754.28 49.0601C754.28 45.6138 751.486 42.8201 748.04 42.8201C744.594 42.8201 741.8 45.6138 741.8 49.0601C741.8 52.5063 744.594 55.3001 748.04 55.3001Z" fill="#8BDEEC"/>
<path d="M729.97 30.76C733.416 30.76 736.21 27.9663 736.21 24.52C736.21 21.0738 733.416 18.28 729.97 18.28C726.524 18.28 723.73 21.0738 723.73 24.52C723.73 27.9663 726.524 30.76 729.97 30.76Z" fill="#8BDEEC"/>
<path d="M710.45 57.01C713.896 57.01 716.69 54.2163 716.69 50.77C716.69 47.3238 713.896 44.53 710.45 44.53C707.004 44.53 704.21 47.3238 704.21 50.77C704.21 54.2163 707.004 57.01 710.45 57.01Z" fill="#8BDEEC"/>
</svg>
