<?xml version="1.0" encoding="iso-8859-1"?>
<!-- Generator: Adobe Illustrator 23.0.0, SVG Export Plug-In . SVG Version: 6.00 Build 0)  -->
<svg version="1.1" id="&#x56FE;&#x5C42;_1" xmlns="http://www.w3.org/2000/svg" xmlns:xlink="http://www.w3.org/1999/xlink" x="0px"
	 y="0px" viewBox="0 0 750 960" style="enable-background:new 0 0 750 960;" xml:space="preserve">
<g>
	<path style="fill:#ABBCD6;" d="M239.251,236.587c0,0,6.338-32.668,6.826-48.27c0-5.851-12.189-8.289-19.503-10.239
		c-7.314-1.95-80.938-25.842-80.938-25.842s-17.553-6.339-16.578,25.354c0.975,31.693,54.946,57.466,54.946,57.466L239.251,236.587z
		"/>
	<path style="fill:#D9E6FF;" d="M137.981,246.668c0,0,6.161-36.405,6.161-42.006c0-5.601-7.281-11.762-24.644-15.682
		s-90.174-21.843-90.174-21.843s-28.004,3.921-21.283,47.607c2.8,10.642,63.29,35.285,63.29,35.285L137.981,246.668z"/>
	<path style="fill:#ABBCD6;" d="M148.623,349.724l20.723-114.257c0,0,35.845-14.562,71.131,0
		c-2.24,27.444-12.322,152.343-12.322,152.343l-75.611-16.803L148.623,349.724z"/>
	<path style="fill:#C8D4E8;" d="M652.699,555.275c0,0,59.369,16.242,77.852,34.725s6.161,50.968-9.521,52.648
		c-14.002,1.68-43.687-23.524-43.687-23.524c7.841,14.002,11.202,21.283,4.481,28.004s-35.086-27.042-41.907-35.644
		s-4.58-17.004-4.58-17.004L652.699,555.275z"/>
	<path style="fill:#C8D4E8;" d="M523.879,548.554l110.337,70.571c0,0,30.805-37.526,25.764-63.85
		c-23.524-16.803-67.77-47.607-67.77-47.607L523.879,548.554z"/>
	<path style="fill:#FFFFFF;" d="M503.156,732.821c0,0,1.68,49.848,34.725,72.811c16.803,10.082,38.646-14.562,36.406-24.084
		s-17.363-36.406-16.242-41.446c4.481,8.961,12.322,18.483,20.723,15.122c8.401-3.361,2.24-22.403-7.281-30.245
		s-19.603-10.082-22.403-16.803S503.156,732.821,503.156,732.821z"/>
	<path style="fill:#FAFCFF;" d="M65.17,248.908l10.642,159.624c0,0,5.041,31.925,48.167,54.328s90.734,40.326,118.738,44.807
		c28.004,4.481,122.098,42.566,131.06,52.648c8.961,10.081,124.899,179.787,124.899,179.787s40.326-21.283,50.408-31.925
		c-8.961-24.084-77.292-161.864-77.292-161.864l-14.562-76.732l-172.506-90.734l-56.008-14.002l-73.931-1.68l-15.122-120.978
		C139.661,242.187,93.734,232.106,65.17,248.908z"/>
	<path style="fill:#B1C2DD;" d="M429.423,639.256c26.77,38.766,55.142,80.213,65.329,95.108l8.404-7.143l-63.94-90.465
		L429.423,639.256z"/>
	<path style="fill:#B1C2DD;" d="M445.467,633.686c-19.043-1.68-57.129-75.611-57.129-75.611s-6.161-12.322-12.322-13.442
		c-23.524-3.361-125.459-53.768-125.459-53.768l2.801,19.205c35.91,9.656,112.383,41.206,120.418,50.245
		c3.54,3.983,28.897,40.425,52.088,73.931C435.789,639.564,439.418,634.974,445.467,633.686z"/>
	<path style="fill:#B1C2DD;" d="M123.979,462.861c41.758,21.693,87.716,39.184,116.013,44.339
		c-1.237-6.15-3.181-15.517-6.236-29.777c-82.332-7.841-133.3-59.369-133.3-59.369l-13.738,13.738
		C93.794,441.693,105.32,453.168,123.979,462.861z"/>
	<path style="fill:#B1C2DD;" d="M71.891,254.509l-6.187,2.406l10.108,151.617c0,0,1.26,7.98,7.91,18.76
		c3.502-3.158,8.208-7.856,14.494-14.84C81.413,414.693,71.891,254.509,71.891,254.509z"/>
	<path style="fill:#DB6445;" d="M268.481,421.975c0,0-15.682,7.841-16.242,48.727c0,20.163,9.521,42.006,9.521,42.006
		s-18.483,3.36-28.004-5.041c-6.161-13.442-9.521-40.326-4.481-59.369c5.041-19.043,20.163-33.045,20.163-33.045L268.481,421.975z"
		/>
	<path style="fill:#7C8F9B;" d="M285.283,430.936c0,0,8.401,68.33,45.927,107.536c-17.923-6.161-42.006-14.002-43.687-17.363
		c-1.68-3.36-34.007-80.552-27.925-95.444C265.68,410.773,285.283,430.936,285.283,430.936z"/>
	<path style="fill:#AEC3E5;" d="M235.398,382.501c0,0-7.803-18.776,5.079-31.097c12.882-12.322,59.929-39.206,66.09-40.886
		c6.161-1.68,26.324-11.762,58.249,4.481c31.925,16.242,121.524,63.857,121.524,63.857l-21.269,16.795
		c0,0-68.89,52.088-80.092,51.528C373.777,446.618,235.398,382.501,235.398,382.501z"/>
	<path style="fill:#95A9C6;" d="M379.195,478.128c0,0,11.944,8.816,26.506-4.066c14.562-12.882,43.126-31.925,43.126-31.925
		l22.963-42.006l-5.072-9.016l-81.741,56.063L379.195,478.128z"/>
	<path style="fill:#718DB5;" d="M245.26,416.885l-11.144-38.85c-1.527-5.322,4.049-9.891,8.968-7.348l142.072,73.456
		c1.662,0.859,2.857,2.412,3.263,4.238l5.621,25.293c1.121,5.046-3.965,9.227-8.699,7.151l-136.549-59.899
		C247.073,420.171,245.778,418.69,245.26,416.885z"/>
	<path style="fill:#DB6445;" d="M549.083,546.873c0,0-20.163,22.963-69.45,8.401s-56.569-68.33-56.008-74.491
		c0.56-6.161,2.24-18.483,10.642-25.204c8.401-6.721,17.363,52.088,17.363,52.088l25.764,20.723l37.526,15.682L549.083,546.873z"/>
	<circle style="fill:#FFFFFF;" cx="523.599" cy="463.141" r="92.134"/>
	<linearGradient id="SVGID_1_" gradientUnits="userSpaceOnUse" x1="457.2293" y1="482.1836" x2="615.215" y2="482.1836">
		<stop  offset="0" style="stop-color:#1B023B"/>
		<stop  offset="0.5096" style="stop-color:#1F0A4F"/>
		<stop  offset="1" style="stop-color:#120F2D"/>
	</linearGradient>
	<path style="fill:url(#SVGID_1_);" d="M615.173,471.822c-1.12,37.526-37.526,83.453-91.574,83.453
		c-40.606,0-66.37-33.605-66.37-73.371c0-26.604,22.963-72.811,91.854-72.811C611.533,409.093,615.733,443.258,615.173,471.822z"/>
	<path style="fill:#EEF6FF;" d="M473.472,447.178c0,0,20.163-36.405,82.332-35.285c62.169,1.12,58.935,65.624,58.935,65.624
		s1.554-12.219,0.994-18.758c-0.56-6.539-2.25-57.964-61.609-59.187c-54.328-1.12-77.292,17.363-91.294,40.326
		C466.751,443.258,473.472,447.178,473.472,447.178z"/>
	<path style="fill:#BBD7FF;" d="M472.352,444.938c0,0,21.283-35.285,83.453-34.165c62.169,1.12,58.935,66.744,58.935,66.744
		s1.554-12.219,0.994-18.758c-0.56-6.539-2.25-63.004-61.609-64.228c-54.328-1.12-81.212,22.403-95.214,45.367
		C462.83,443.258,472.352,444.938,472.352,444.938z"/>
	<path style="fill:#656E7C;" d="M481.873,462.861c0,14.848-10.766,26.884-21.283,26.884s-19.043-12.036-19.043-26.884
		s9.646-29.124,20.163-29.124S481.873,444.378,481.873,462.861z"/>
	<ellipse style="fill:#9EA8B7;" cx="460.59" cy="462.861" rx="19.043" ry="26.884"/>
	<ellipse style="fill:#D6DEEA;" cx="460.59" cy="462.861" rx="15.076" ry="21.283"/>
	<ellipse style="fill:#ACB6C1;" cx="460.59" cy="462.861" rx="13.092" ry="18.483"/>
	<ellipse style="fill:#E5F0F9;" cx="460.59" cy="462.861" rx="11.505" ry="16.242"/>
	<path style="fill:#DB6445;" d="M156.373,363.202c0,0-31.274,6.685-35.754,21.247c-5.363,17.429-11.511,43.756-30.679,51.563
		c-5.726,2.206-9.565-8.005-7.193-10.346c2.373-2.341,21.069-24.974,26.11-44.577c3.921-18.483,32.071-22.352,45.16-24.058
		c0.414,3.309,0.733,5.234,0.733,5.234l0.033,0.901L156.373,363.202z"/>
	<path style="fill:#DB6445;" d="M498.676,740.102c0,0-8.484-2.458-6.202-9.07c2.282-6.612,38.763-19.847,52.447-32.832
		c2.725,1.473,6.403,6.617,4.163,9.978C546.843,711.538,509.317,737.302,498.676,740.102z"/>
	<path style="fill:#DB6445;" d="M140.991,252.826c0,0-30.089-9.079-75.078,7.224c-2.606-1-1.863-10.021-0.743-11.141
		c1.12-1.12,16.242-10.642,36.405-10.642s38.086,3.921,38.086,3.921S143.441,248.903,140.991,252.826z"/>
	<path style="fill:#B5503C;" d="M167.714,244.464c0,0,48.201-8.951,71.963,0.827c2.159-0.046,1.359-8.144,0.799-9.825
		c-0.56-1.68-15.682-7.841-28.004-7.841s-37.526,3.361-43.126,7.841C167.106,238.267,166.082,245.06,167.714,244.464z"/>
	<path style="fill:#B5503C;" d="M634.216,619.124c0,0-11.561-3.155-11.661-7.459c4.28-4.126,29.194-43.901,29.669-61.908
		c2.63-2.968,7.756,5.517,7.756,5.517s4.481,18.483-12.882,47.607C637.016,619.124,634.216,619.124,634.216,619.124z"/>
	<path style="fill:#DB6445;" d="M501.939,607.66c0,0-44.207,28.14-78.343,23.163c-2.772,5.104,2.829,11.517,7.87,11.391
		c5.041-0.126,34.597,3.555,76.947-21.249C511.902,615.604,508.003,608.517,501.939,607.66z"/>
	<path style="fill:#D82E21;" d="M405.702,569.277c0,0,38.086-0.56,51.528-14.002c7.281,18.483,11.762,29.124,11.762,29.124
		s-33.605,15.122-51.528,8.401C416.903,591.68,405.702,569.277,405.702,569.277z"/>
	<path style="fill:#47688E;" d="M349.856,436.665l24.318,9.568c1.491,0.587,2.564,1.912,2.828,3.493l1.651,9.897
		c0.612,3.669-3.191,6.488-6.524,4.834l-24.816-12.315c-1.319-0.654-2.24-1.905-2.474-3.358l-1.153-7.15
		C343.123,438.147,346.569,435.372,349.856,436.665z"/>
	<circle style="fill:#47688E;" cx="331.21" cy="444.378" r="2.8"/>
	<circle style="fill:#47688E;" cx="320.009" cy="438.777" r="2.8"/>
	<circle style="fill:#47688E;" cx="309.367" cy="433.736" r="2.8"/>
	<circle style="fill:#47688E;" cx="299.285" cy="429.816" r="2.8"/>
	<polygon style="fill:#47688E;" points="244.397,381.088 252.798,411.893 258.959,415.254 250.558,385.009 	"/>
	<polygon style="fill:#47688E;" points="253.359,385.009 261.76,415.814 267.921,419.174 259.519,388.93 	"/>
	<polygon style="fill:#47688E;" points="262.32,390.05 270.721,420.854 276.882,424.215 268.481,393.97 	"/>
	<path style="fill:#47688E;" d="M323.149,337.791l24.359-15.788c1.241-0.804,0.978-2.692-0.435-3.126l-2.464-0.758
		c-0.506-0.156-1.054-0.073-1.492,0.224l-23.237,15.801c-1.073,0.729-1,2.333,0.134,2.963l1.341,0.745
		C321.919,338.165,322.609,338.142,323.149,337.791z"/>
	<path style="fill:#47688E;" d="M315.075,331.808l20.133-12.885c1.768-1.131,1.241-3.842-0.822-4.229l-1.739-0.326
		c-0.59-0.111-1.201,0.012-1.702,0.343l-19.258,12.693c-1.425,0.939-1.38,3.044,0.083,3.922l0.864,0.518
		C313.388,332.296,314.334,332.282,315.075,331.808z"/>
	<g>
		<circle style="fill:#F8F9FF;" cx="380.438" cy="380.95" r="27.618"/>
		<linearGradient id="SVGID_2_" gradientUnits="userSpaceOnUse" x1="353.7472" y1="379.6392" x2="407.1288" y2="379.6392">
			<stop  offset="0" style="stop-color:#1B023B"/>
			<stop  offset="0.5096" style="stop-color:#1F0A4F"/>
			<stop  offset="1" style="stop-color:#120F2D"/>
		</linearGradient>
		<circle style="fill:url(#SVGID_2_);" cx="380.438" cy="379.639" r="26.691"/>
		<circle style="fill:#DB6445;" cx="380.438" cy="377.804" r="25.393"/>
		<circle style="fill:#EF9786;" cx="380.438" cy="377.804" r="10.194"/>
	</g>
</g>
</svg>
