<?xml version="1.0" encoding="iso-8859-1"?>
<!-- Generator: Adobe Illustrator 23.0.0, SVG Export Plug-In . SVG Version: 6.00 Build 0)  -->
<svg version="1.1" id="&#x56FE;&#x5C42;_1" xmlns="http://www.w3.org/2000/svg" xmlns:xlink="http://www.w3.org/1999/xlink" x="0px"
	 y="0px" viewBox="0 0 750 960" style="enable-background:new 0 0 750 960;" xml:space="preserve">
<g>
	<path style="fill:#1E1B63;" d="M285.351,511.188c0,0,90.8,189.85,112.596,195.812c21.796,5.962,308.274-23.982,308.274-23.982
		s-5.667-48.241-9.044-60.012c-3.377-11.771-10.606-27.345-28.421-24.318c-17.815,3.027-29.45,18.701-29.45,18.701
		s-80.536-1.666-117.764-5.607c-37.228-3.941-58.611-39.746-58.611-39.746L285.351,511.188z"/>
	<g>
		<path style="fill:#C9C5FF;" d="M469.316,506.448l52.233-31.686c0,0,4.793-19.244-13.409-52.835
			c-18.202-33.591-96.587-183.383-96.587-183.383s-18.586-17.425-45.486-1.111s-57.314,33.175-57.314,33.175L462.52,506.977
			L469.316,506.448z"/>
		<path style="fill:#3C3476;" d="M469.316,506.448l52.233-31.686c0,0,3.603-16.963-14.599-50.554s-98.219-183.256-98.219-183.256
			s-15.764-19.832-42.665-3.518s-57.314,33.175-57.314,33.175L462.52,506.977L469.316,506.448z"/>
		<g>
			<defs>
				<path id="SVGID_1_" d="M469.316,506.448l52.233-31.686c0,0,4.793-19.244-13.409-52.835
					c-18.202-33.591-96.587-183.383-96.587-183.383s-18.586-17.425-45.486-1.111s-57.314,33.175-57.314,33.175L462.52,506.977
					L469.316,506.448z"/>
			</defs>
			<clipPath id="SVGID_2_">
				<use xlink:href="#SVGID_1_"  style="overflow:visible;"/>
			</clipPath>
			
				<radialGradient id="SVGID_3_" cx="178.3989" cy="523.6635" r="104.1592" gradientTransform="matrix(0.997 -0.0776 0.0776 0.997 179.7965 -292.7392)" gradientUnits="userSpaceOnUse">
				<stop  offset="0" style="stop-color:#D96070"/>
				<stop  offset="0.9451" style="stop-color:#D96070;stop-opacity:0"/>
			</radialGradient>
			<circle style="clip-path:url(#SVGID_2_);fill:url(#SVGID_3_);" cx="398.274" cy="215.51" r="104.159"/>
			
				<radialGradient id="SVGID_4_" cx="317.4597" cy="782.6981" r="104.1592" gradientTransform="matrix(0.997 -0.0776 0.0776 0.997 179.7965 -292.7392)" gradientUnits="userSpaceOnUse">
				<stop  offset="0" style="stop-color:#2489C0"/>
				<stop  offset="0.9451" style="stop-color:#2489C0;stop-opacity:0"/>
			</radialGradient>
			<circle style="clip-path:url(#SVGID_2_);fill:url(#SVGID_4_);" cx="557.007" cy="462.979" r="104.159"/>
		</g>
	</g>
	
		<linearGradient id="SVGID_5_" gradientUnits="userSpaceOnUse" x1="-186.0028" y1="764.2543" x2="-186.2001" y2="727.0341" gradientTransform="matrix(0.997 -0.0776 0.0776 0.997 179.7965 -292.7392)">
		<stop  offset="0" style="stop-color:#6583D2"/>
		<stop  offset="1" style="stop-color:#C9DCFF"/>
	</linearGradient>
	<path style="fill:url(#SVGID_5_);" d="M92.894,441.925c0,0-10.213-8.231-77.942,0.047c-10.33,0.804-9.732,15.526,5.742,14.048
		c9.243-0.719,17.942-1.396,17.942-1.396s-15.383,9.675-2.054,19.304c11.209-0.052,12.505-0.973,12.505-0.973
		s1.674,25.031,45.435,14.516C92.133,456.752,92.894,441.925,92.894,441.925z"/>
	<path style="fill:#A6C8FF;" d="M218.103,374.477l-17.609,47.863c0,0-2.9,8.43-36.817,11.889c-33.917,3.459-75.845,5.9-75.845,5.9
		l3.934,50.564l106.226,11.974c0,0,38.732,2.183,50.929-16.816c12.197-18.999-5.203-66.874-5.203-66.874L218.103,374.477z"/>
	<path style="fill:#1E3359;" d="M252.891,458.885c-3.282-2.189-6.351-1.546-7.406,6.789c-2.608,20.604-32.583,19.177-36.791,28.739
		c-1.508,3.428-0.116,6.02,2.29,7.936c12.416-1.041,30.332-4.652,37.936-16.497C253.147,479.267,253.818,469.212,252.891,458.885z"
		/>
	<path style="fill:#0456A1;" d="M97.902,439.503c-6.255,0.405-10.07,0.627-10.07,0.627l3.934,50.564l10.209,1.151L97.902,439.503z"
		/>
	<path style="fill:#637FD1;" d="M379.775,659.732c0,0-116.882-170.044-140.793-203.191s-34.314-68.438-36.85-122.119
		c12.873-10.3,62.998-37.447,62.998-37.447l24.031-21.561c0,0,17.51-17.498,80.108,38.347s87.339,176.992,88.659,204.512
		c3.652,15.305,21.674,81.729,55.398,96.882c33.724,15.153,56.518,37.447,183.455,34.41c9.306,0.096,19.395,10.251,29.518,84.127
		c10.123,73.876,8.682,76.449-3.216,78.195c-35.068,2.728-66.144-45.177-68.948-70.667c-33.917,3.459-144.221,16.416-178.316,7.035
		C425.414,740.144,379.775,659.732,379.775,659.732z"/>
	<g>
		<path style="fill:#25344F;" d="M443.916,735.423c-0.653,0.051-1.266-0.377-1.428-1.034c-0.18-0.731,0.267-1.47,0.998-1.65
			c39.179-9.642,64.111-31.443,74.106-64.797c7.461-24.898,3.335-47.199,3.292-47.421c-0.142-0.74,0.343-1.454,1.083-1.595
			c0.736-0.144,1.453,0.343,1.595,1.083c0.044,0.229,4.292,23.186-3.359,48.716c-4.503,15.029-12.179,28.012-22.814,38.59
			c-13.268,13.196-31.184,22.641-53.253,28.073C444.063,735.405,443.989,735.417,443.916,735.423z"/>
	</g>
	<g>
		<path style="fill:#25344F;" d="M414.347,708.491c-0.653,0.051-1.266-0.377-1.428-1.034c-0.18-0.731,0.267-1.47,0.998-1.65
			c48.897-12.034,69.896-38.019,78.902-57.699c9.741-21.285,7.958-39.902,7.939-40.087c-0.078-0.749,0.467-1.419,1.216-1.496
			c0.012-0.001,0.023-0.002,0.035-0.003c0.735-0.057,1.385,0.482,1.461,1.219c0.081,0.788,1.875,19.547-8.172,41.502
			c-5.898,12.888-14.678,24.16-26.097,33.501c-14.229,11.64-32.61,20.291-54.633,25.711
			C414.495,708.473,414.421,708.485,414.347,708.491z"/>
	</g>
	<path style="fill:#49499B;" d="M726.3,733.693c-10.123-73.876-20.212-84.031-29.518-84.127
		c-126.937,3.038-149.731-19.256-183.455-34.41c-33.724-15.153-51.746-81.577-55.398-96.882
		c-1.32-27.52-26.061-148.667-88.659-204.512s-80.108-38.347-80.108-38.347l-24.031,21.561c0,0-50.125,27.146-62.998,37.447
		c0.232,4.905,0.53,9.656,0.897,14.266c24.235-10.235,97.969-38.188,142.496-20.225c53.868,21.732,86.14,193.221,94.193,219.397
		c8.053,26.176,19.384,94.488,67.073,102.811s172.686,8.933,184.877,33.585c10.281,20.788,33.68,96.638,40.764,119.908
		C734.173,795.602,732.203,776.769,726.3,733.693z"/>
	<path style="fill:#E4E7FD;" d="M265.431,296.706l-0.3,0.27c0,0-50.125,27.146-62.998,37.447
		c2.535,53.681,12.938,88.972,36.85,122.119s140.793,203.191,140.793,203.191s27.823,49.021,64.014,74.374
		c-49.028-62.532-145.489-230.919-180.84-299.942C234.379,378.382,251.248,325.472,265.431,296.706z"/>
	<g>
		<path style="fill:#A0C2EA;" d="M438.661,515.205c-8.443,0.657-19.19,0.459-31.519-2.042
			c-19.902-4.037-39.803-13.131-59.148-27.031c-24.004-17.247-47.231-41.998-69.034-73.562
			c-21.037-23.267-29.848-47.095-26.19-70.827c1.563-10.139,5.434-20.255,11.505-30.067c4.82-7.788,11.031-15.405,18.461-22.638
			c12.617-12.282,24.257-19.138,24.746-19.424c1.3-0.759,2.97-0.321,3.73,0.979c0.76,1.3,0.321,2.97-0.979,3.73
			c-0.114,0.067-11.647,6.872-23.798,18.725c-11.089,10.818-24.998,28.197-28.28,49.552c-3.392,22.065,5.009,44.42,24.966,66.443
			l0.121,0.134l0.103,0.149c48.525,70.314,94.694,92.372,124.88,98.494c32.355,6.562,53.454-3.245,53.663-3.345
			c1.358-0.647,2.987-0.072,3.635,1.287c0.648,1.359,0.072,2.987-1.287,3.635c-0.236,0.112-5.882,2.772-15.77,4.558
			C445.694,514.455,442.403,514.914,438.661,515.205z"/>
	</g>
	<path style="fill:#15346B;" d="M395.284,683.417c17.591,24.407,48.074,59.616,80.536,64.84c7.325,2.015,18.168,2.999,31.014,3.268
		c-9.911-8.972-30.179-19.018-35.464-21.793c-9.98-5.24-29.656-26.136-34.265-36.17C433.351,685.39,399.539,670.852,395.284,683.417
		z"/>
	<path style="fill:#38558F;" d="M139.591,184.041c0,0-30.559,32.912-27.619,70.698c2.94,37.787,50.423,75.117,77.608,73.002
		c37.496-24.249,36.101-42.191,36.101-42.191l-9.957-50.642l-45.103-41.891L139.591,184.041z"/>
	<path style="fill:#313A68;" d="M161.032,319.857c10.177,5.534,20.296,8.526,28.547,7.884
		c37.496-24.249,36.101-42.191,36.101-42.191l-9.957-50.642l-45.103-41.891l-16.156-4.674c-6.193-0.793-12.45-0.829-18.619,0.167
		c-1.438,1.824-3.196,4.166-5.1,6.951C230.643,255.335,182.335,303.923,161.032,319.857z"/>
	<path style="fill:#EEF3FF;" d="M199.402,345.027c0,0,93.75-49.958,97.054-74.282s-4.503-128.191-91.494-121.423
		c0,0-46.066,5.498-72.111,43.352c24.451,4.935,81.851,22.076,85.854,80.565c3.32,42.68-34.629,50.555-34.629,50.555
		S183.14,353.95,199.402,345.027z"/>
	<path style="fill:#BBCEF0;" d="M235.187,151.923c40.447,45.801,26.608,120.007,21.423,133.956
		c-4.607,12.391-53.651,39.313-71.664,48.863c1.415,7.573,5.073,15.435,14.456,10.286c0,0,93.75-49.958,97.054-74.282
		C299.328,249.603,293.803,168.371,235.187,151.923z"/>
	<path style="fill:#F8FAFF;" d="M308.71,582.94c0,0-2.896,36.6,0.01,59.894c2.906,23.294-52.542,13.66-57.843,1.765
		s-15.253-49.223-4.086-77.534C257.958,538.754,308.71,582.94,308.71,582.94z"/>
	<path style="opacity:0.5;fill:#284E84;" d="M380.823,365.89c0,0-3.403-10.645-18.951-45.263
		c-15.547-34.618-54.591-33.768-84.21-17.243c-29.619,16.526-25.663,59.681-20.867,76.287c4.866,16.851,29.559,35.442,29.559,35.442
		c7.591,23.75,12.101,39.535,7.238,50.853c-2.077,4.835-10.652,21.106-20.067,39.844c18.425,26.526,40.587,58.608,59.894,86.604
		l53.523-81.171c19.742-23.962,10.71-50.109,10.71-50.109L380.823,365.89z"/>
	<path style="fill:#CCDDFF;" d="M286.355,415.114c0,0-24.693-18.591-29.559-35.442c-4.795-16.605-8.752-59.761,20.867-76.287
		s68.662-17.375,84.209,17.243s14.949,44.51,14.949,44.51l15.769,97.23c0,0,1.819,23.379-17.923,47.341l-60.536,79.646
		c0,0-42.369-24.327-69.382-16.482c3.516-21.606,43.98-95.588,48.843-106.906C298.456,454.649,293.946,438.864,286.355,415.114z"/>
	<path style="fill:#0456A1;" d="M377.408,368.754l-0.586-3.616c0,0,0.054-0.897-0.294-3.091
		c-11.54,0.643-60.484,5.891-95.476,48.736c3.154,2.713,5.303,4.331,5.303,4.331c0.066,0.206,0.13,0.407,0.195,0.612
		C299.296,404.201,344.661,365.614,377.408,368.754z"/>
	<path style="fill:#1E469E;" d="M379.632,446.967c-1.767,12.445,3.308,28.459-10.251,44.009c-2.649,2.751,1.556,11.539,8.958,13.945
		c15.832-22.194,14.251-42.553,14.251-42.553l-3.912-24.121C385.09,438.266,380.649,439.807,379.632,446.967z"/>
	<path style="fill:#1E469E;" d="M318.954,583.011c-26.601-27.098-62.415-24.171-70.325-23.134c-1.97,5.264-3.348,9.73-3.879,12.997
		c27.012-7.845,69.382,16.482,69.382,16.482L318.954,583.011z"/>
</g>
</svg>
