<svg width="874" height="747" viewBox="0 0 874 747" fill="none" xmlns="http://www.w3.org/2000/svg">
<rect width="874" height="747" fill="white"/>
<path d="M5.0103 743.75C-0.0897 738.67 2.3803 702.98 3.1803 697.25C6.3803 674.29 9.5803 651.32 12.7803 628.36C19.2703 581.78 25.7603 535.21 32.2403 488.63C32.9803 483.31 33.7203 477.98 34.4703 472.66C36.0103 463.8 44.8003 457.06 53.9903 457.68C63.1903 458.29 69.4503 466.04 67.9103 474.9C48.5603 562.61 25.0503 650.48 10.7303 738.65C10.5403 739.84 10.3203 741.08 9.5103 742.11C7.5903 744.51 6.1203 744.86 5.0103 743.75Z" fill="#78DFE8"/>
<path fill-rule="evenodd" clip-rule="evenodd" d="M3.69015 745.08C4.62015 746.01 5.61015 746.23 6.33015 746.23C6.36295 746.23 6.39575 746.228 6.43061 746.225C6.47015 746.223 6.51232 746.22 6.56015 746.22C8.03015 746.13 9.48015 745.17 10.9901 743.26C12.1301 741.82 12.4001 740.15 12.5901 738.94C22.4613 678.158 36.9454 616.52 50.9573 556.893L51.0801 556.37C57.3301 529.79 63.7901 502.3 69.7701 475.21C70.6001 470.48 69.4701 465.85 66.5901 462.19C63.6201 458.41 59.1901 456.15 54.1301 455.81C43.9501 455.13 34.3401 462.55 32.6201 472.41L1.33015 697C1.27015 697.4 -2.78985 738.61 3.69015 745.08ZM36.3101 472.98C37.6501 465.36 44.9201 459.51 52.8101 459.51C53.1701 459.51 53.5201 459.52 53.8601 459.55C57.8501 459.82 61.3101 461.58 63.6201 464.51C65.8301 467.32 66.6901 470.89 66.0701 474.49C60.1101 501.47 53.6601 528.94 47.4101 555.51L47.3838 555.622C33.322 615.437 18.7839 677.278 8.86015 738.34C8.68015 739.46 8.51015 740.31 8.02015 740.93C7.16091 742.018 6.6298 742.343 6.4597 742.447C6.42193 742.471 6.40196 742.483 6.40015 742.49L6.33015 742.42C2.45015 738.56 3.74015 706.77 5.03015 697.51L36.3101 472.98Z" fill="#1A4A67"/>
<path d="M220.12 742.82C225.1 737.59 221.82 701.98 220.89 696.28C217.17 673.42 213.45 650.56 209.73 627.7C202.19 581.34 194.64 534.97 187.1 488.61C186.24 483.31 185.38 478.01 184.51 472.71C182.77 463.9 173.83 457.43 164.65 458.33C155.47 459.23 149.39 467.16 151.13 475.96C172.47 563.05 197.96 650.18 214.28 737.88C214.5 739.06 214.75 740.3 215.58 741.3C217.57 743.66 219.04 743.96 220.12 742.82Z" fill="#78DFE8"/>
<path fill-rule="evenodd" clip-rule="evenodd" d="M218.65 745.34H218.77C219.5 745.34 220.53 745.11 221.48 744.13C227.8 737.49 222.81 696.4 222.74 696L186.35 472.37C184.43 462.62 174.63 455.5 164.48 456.48C159.42 456.97 155.05 459.38 152.17 463.25C149.39 466.99 148.37 471.64 149.32 476.42C155.9 503.24 162.98 530.52 169.83 556.9L169.965 557.419C185.323 616.588 201.203 677.767 212.45 738.23C212.67 739.44 212.99 741.1 214.16 742.51C215.71 744.37 217.18 745.29 218.65 745.34ZM164.85 460.2C165.36 460.14 165.88 460.12 166.39 460.12C174.09 460.12 181.22 465.66 182.67 473.02L219.05 696.58C220.55 705.8 222.56 737.55 218.77 741.53L220.13 742.82L218.78 741.59C218.78 741.59 218.2 741.5 217.04 740.11C216.54 739.51 216.35 738.67 216.14 737.55C204.844 676.856 188.92 615.514 173.518 556.183L173.46 555.96C166.61 529.59 159.53 502.33 152.98 475.61C152.26 471.96 153.04 468.36 155.18 465.48C157.42 462.46 160.85 460.59 164.85 460.2Z" fill="#1A4A67"/>
<path d="M191.88 499.03H30.0304C15.1004 499.03 2.88037 486.81 2.88037 471.88C2.88037 456.95 15.1004 444.73 30.0304 444.73H191.88C206.81 444.73 219.03 456.95 219.03 471.88C219.04 486.81 206.82 499.03 191.88 499.03Z" fill="#1A4A67"/>
<path d="M279.61 743.6C274.72 736.85 278.85 687.08 279.92 679.07C284.2 646.96 288.48 614.84 292.76 582.73C301.44 517.6 310.12 452.46 318.8 387.33C319.79 379.88 320.78 372.44 321.78 364.99C323.74 352.59 332.89 342.69 342.12 342.99C351.35 343.29 357.29 353.69 355.33 366.09C331.8 489.17 304.09 612.73 285.6 736.15C285.35 737.81 285.07 739.56 284.21 741.03C282.16 744.5 280.67 745.06 279.61 743.6Z" fill="#78DFE8"/>
<path fill-rule="evenodd" clip-rule="evenodd" d="M278.09 744.7C279.04 746 280.17 746.23 280.84 746.23C280.89 746.23 280.94 746.23 280.98 746.24C282.64 746.16 284.13 744.85 285.81 742C286.878 740.174 287.189 738.109 287.438 736.451L287.44 736.44C300.218 651.14 317.687 564.382 334.583 480.475L334.63 480.24C342.15 442.92 349.92 404.34 357.17 366.39C358.38 358.74 356.73 351.3 352.76 346.5C349.97 343.12 346.3 341.26 342.17 341.12C332.07 340.72 322.03 351.36 319.91 364.74L278.06 678.82C277.43 683.53 272.43 736.88 278.09 744.7ZM323.62 365.27C325.38 354.1 333.61 344.85 341.7 344.85C341.81 344.85 341.93 344.85 342.06 344.86C345.09 344.96 347.8 346.35 349.89 348.88C353.18 352.86 354.53 359.19 353.49 365.73C346.293 403.377 338.571 441.726 331.102 478.822L330.97 479.48C314.05 563.51 296.56 650.39 283.76 735.87L283.748 735.947C283.531 737.338 283.287 738.902 282.6 740.08C281.83 741.38 281.3 741.99 280.99 742.27C277.11 735.72 280.3 690.38 281.78 679.31L323.62 365.27Z" fill="#1A4A67"/>
<path d="M608.32 743.6C613.21 736.85 609.08 687.08 608.01 679.07C603.73 646.96 599.45 614.84 595.17 582.73C586.49 517.6 577.81 452.46 569.13 387.33C568.14 379.88 567.15 372.44 566.15 364.99C564.19 352.59 555.04 342.69 545.81 342.99C536.58 343.29 530.64 353.69 532.6 366.09C556.13 489.17 583.84 612.73 602.33 736.15C602.58 737.81 602.86 739.56 603.72 741.03C605.77 744.5 607.26 745.06 608.32 743.6Z" fill="#78DFE8"/>
<path fill-rule="evenodd" clip-rule="evenodd" d="M607.09 746.23H606.95C605.29 746.15 603.79 744.84 602.11 741.99C601.04 740.16 600.73 738.1 600.48 736.43C587.69 651.06 570.21 564.23 553.3 480.27C545.78 442.94 538.01 404.35 530.77 366.44C529.55 358.74 531.2 351.3 535.17 346.5C537.97 343.12 541.63 341.26 545.76 341.12C555.99 340.82 565.91 351.36 568.02 364.7L609.88 678.83C609.95 679.39 615.9 736.35 609.84 744.71C608.89 746 607.76 746.23 607.09 746.23ZM606.84 742.52C606.79 742.54 606.75 742.56 606.72 742.59L608.32 743.59L606.84 742.52ZM545.89 344.86C546 344.85 546.12 344.85 546.23 344.85C554.32 344.85 562.55 354.1 564.32 365.23L606.17 679.31C607.64 690.38 610.83 735.74 606.96 742.27C606.65 741.99 606.11 741.38 605.35 740.08C604.64 738.88 604.4 737.28 604.19 735.87C591.39 650.4 573.9 563.53 556.98 479.52C549.46 442.21 541.69 403.62 534.46 365.79C533.42 359.19 534.76 352.87 538.06 348.88C540.15 346.35 542.86 344.96 545.89 344.86Z" fill="#1A4A67"/>
<path d="M751.09 356.21H207.04C201.34 356.21 196.68 351.55 196.68 345.85C196.68 340.15 201.34 335.49 207.04 335.49H751.09C756.79 335.49 761.45 340.15 761.45 345.85C761.45 351.55 756.79 356.21 751.09 356.21Z" fill="#1A4A67"/>
<path d="M584.78 307.96L642.3 178.35C643.21 176.3 645.63 175.37 647.68 176.28L648.68 176.72C650.73 177.63 651.66 180.05 650.75 182.1L593.23 311.71C592.32 313.76 589.9 314.69 587.85 313.78L586.85 313.34C584.8 312.43 583.87 310.01 584.78 307.96Z" fill="#1A4A67"/>
<path d="M640.35 174.55L595.49 40.04C594.78 37.91 595.94 35.59 598.07 34.88L599.11 34.53C601.24 33.82 603.56 34.98 604.27 37.11L649.13 171.62C649.84 173.75 648.68 176.07 646.55 176.78L645.51 177.13C643.38 177.84 641.06 176.68 640.35 174.55Z" fill="#1A4A67"/>
<path d="M646.81 190.64C653.084 190.64 658.17 185.554 658.17 179.28C658.17 173.006 653.084 167.92 646.81 167.92C640.536 167.92 635.45 173.006 635.45 179.28C635.45 185.554 640.536 190.64 646.81 190.64Z" fill="#37C1D3"/>
<path fill-rule="evenodd" clip-rule="evenodd" d="M633.58 179.28C633.58 186.57 639.51 192.51 646.81 192.51C654.1 192.51 660.04 186.58 660.04 179.28C660.04 171.99 654.1 166.05 646.81 166.05C639.52 166.05 633.58 171.99 633.58 179.28ZM637.33 179.28C637.33 174.05 641.58 169.8 646.81 169.8C652.04 169.8 656.29 174.05 656.29 179.28C656.29 184.51 652.03 188.76 646.81 188.76C641.59 188.76 637.33 184.51 637.33 179.28Z" fill="#1A4A67"/>
<path d="M584.331 300.02C563.351 300.02 546.351 315.9 546.351 335.5H622.311C622.311 315.9 605.311 300.02 584.331 300.02Z" fill="white"/>
<path fill-rule="evenodd" clip-rule="evenodd" d="M544.48 335.5V337.37H624.18V335.5C624.18 314.9 606.3 298.15 584.33 298.15C562.36 298.15 544.48 314.91 544.48 335.5ZM584.33 301.89C603.56 301.89 619.33 315.96 620.38 333.62H548.28C549.33 315.96 565.1 301.89 584.33 301.89Z" fill="#1A4A67"/>
<path d="M606.87 24.6199C595.53 13.2799 559.17 31.2499 525.66 64.7599L566.73 105.83C600.24 72.3199 618.21 35.9599 606.87 24.6199Z" fill="#37C1D3"/>
<path fill-rule="evenodd" clip-rule="evenodd" d="M523.01 64.7599L566.73 108.48L568.05 107.16C602.81 72.3899 620.44 35.5599 608.19 23.2999C595.93 11.0399 559.1 28.6699 524.33 63.4399L523.01 64.7599ZM566.73 103.18L528.32 64.7699C563.33 30.2399 596.38 16.7899 605.55 25.9499C614.71 35.1099 601.25 68.1699 566.73 103.18Z" fill="#1A4A67"/>
<path d="M522.29 113.08C521.8 113.08 521.3 112.89 520.94 112.5C520.22 111.75 520.25 110.57 521 109.85L538.41 93.2099C539.16 92.4899 540.35 92.5199 541.06 93.2699C541.78 94.0199 541.75 95.1999 541 95.9199L523.59 112.56C523.22 112.91 522.75 113.08 522.29 113.08Z" fill="#8BDEEC"/>
<path d="M541.93 130.45C541.62 130.45 541.3 130.37 541.01 130.21C540.11 129.7 539.79 128.56 540.3 127.66L552.09 106.66C552.59 105.76 553.73 105.44 554.64 105.94C555.54 106.45 555.86 107.59 555.35 108.49L543.56 129.49C543.22 130.11 542.58 130.45 541.93 130.45Z" fill="#8BDEEC"/>
<path d="M503.13 93.6899C502.38 93.6899 501.67 93.2399 501.38 92.4999C501 91.5399 501.48 90.4499 502.44 90.0699L524.89 81.3399C525.85 80.9699 526.94 81.4399 527.32 82.4099C527.7 83.3799 527.22 84.4599 526.26 84.8399L503.81 93.5699C503.58 93.6499 503.35 93.6899 503.13 93.6899Z" fill="#8BDEEC"/>
<path d="M788.49 538.47C788.47 538.47 715.11 538.47 715.11 538.47C716.05 542.77 716.97 547.12 717.92 551.49H784.32C785.23 544.25 786.54 538.47 788.49 538.47Z" fill="#1A4A67"/>
<path d="M732.62 601.6C733.8 602.79 735.4 602.82 736.88 602.78C745.42 602.59 753.98 603.13 762.53 603.08C770.6 603.04 777.28 603.69 778.12 590.28C778.3 587.45 778.64 568.91 779.84 554.8H722.6C724.76 569.19 727.14 583.69 730.72 597.36C731.14 598.94 731.62 600.59 732.62 601.6Z" fill="white"/>
<path fill-rule="evenodd" clip-rule="evenodd" d="M751.12 604.781C754.58 604.87 758.03 604.96 761.49 604.96C761.84 604.96 762.18 604.96 762.52 604.95H763.64H763.641C771.221 604.94 779.06 604.93 779.97 590.4C780.01 589.67 780.07 587.9 780.15 585.43L780.161 585.105C780.393 578.042 780.814 565.25 781.69 554.96L781.87 552.93H720.42L720.75 555.08C722.73 568.25 725.15 583.5 728.91 597.84C729.39 599.67 729.97 601.58 731.28 602.91C733.09 604.74 735.49 604.69 736.92 604.65C741.62 604.54 746.44 604.66 751.09 604.78L751.12 604.781ZM751.18 601.04C747.77 600.95 744.27 600.86 740.77 600.86C739.46 600.86 738.14 600.88 736.82 600.91C735.38 600.95 734.5 600.86 733.94 600.29C733.27 599.61 732.86 598.19 732.52 596.9C729.01 583.5 726.67 569.24 724.77 556.68H777.8C777.01 566.83 776.63 578.73 776.42 585.32C776.34 587.73 776.28 589.46 776.24 590.17C775.54 601.19 771.31 601.2 763.64 601.21H762.51C758.72 601.23 754.96 601.14 751.18 601.04Z" fill="#1A4A67"/>
<path d="M751.81 585.95C757.327 585.95 761.8 581.477 761.8 575.96C761.8 570.443 757.327 565.97 751.81 565.97C746.293 565.97 741.82 570.443 741.82 575.96C741.82 581.477 746.293 585.95 751.81 585.95Z" fill="white"/>
<path d="M742.92 530.89C742.92 530.89 721.94 516.81 736.88 507.91C751.82 499.02 749.59 486.7 742.92 484.7C736.25 482.71 756.87 474.55 756.87 474.55C756.87 474.55 742.92 479.28 751.08 484.7C759.23 490.12 779.99 503.46 764.42 507.91C748.85 512.36 780.14 519.72 770.05 527.9C759.97 536.07 742.92 530.89 742.92 530.89Z" fill="#E6E7E8"/>
<path d="M677.69 293.6C682.28 290.77 684.47 284.57 682.68 279.49C679.74 271.18 672.14 273.98 666.73 269.62C660.37 264.48 668.06 256.4 667.64 250.33C667.18 243.65 661.17 237.2 659.36 230.75C655.21 215.92 672.07 226.99 676.88 225.26C678.89 224.54 680.21 222.51 680.67 220.43C681.85 215.1 679.6 210.79 682.53 205.75C685.35 200.88 689.51 198.68 688.31 192.06C687.63 188.31 685.32 184.88 685.38 181.07C685.4 179.98 685.71 178.76 686.66 178.22C687.38 177.81 688.29 177.92 689.07 178.2C691.67 179.11 693.37 181.54 695.46 183.33C697.55 185.12 700.91 186.23 702.92 184.34C704.26 183.08 704.39 181.06 704.66 179.24C705.15 175.97 707.44 173.7 710.29 175.59C713.39 177.65 712.21 185.76 711.74 188.67C711 193.28 709.87 198.07 711.24 202.54C713.51 209.93 719.7 201.65 722.4 199.2C724.61 197.19 728.31 195.99 730.43 198.09C734.66 202.26 727.86 207.83 726.96 211.78C726.53 213.66 727.09 215.91 728.76 216.88C733.65 219.72 737.79 214.67 738.53 222.2C739.04 227.37 734.36 232.29 737.26 237.46C739.79 241.97 748.23 243.89 744.89 250.22C742.84 254.11 734.03 253.93 734.5 259.47C734.8 263.08 740.22 264.71 740.23 268.33C740.23 271.06 737.06 272.66 734.34 272.8C731.62 272.94 728.75 272.3 726.24 273.37C723.39 274.58 721.74 278.08 722.63 281.04C723.4 283.62 725.8 285.97 725.05 288.55C724.14 291.65 719.84 291.77 716.64 291.27C703.58 289.22 689.59 287.86 677.69 293.6Z" fill="#37C1D3"/>
<path fill-rule="evenodd" clip-rule="evenodd" d="M676.71 292.01L678.5 295.29C690.2 289.65 704.17 291.21 716.36 293.12C722.01 294.01 725.84 292.53 726.85 289.08C727.56 286.66 726.46 284.6 725.49 282.79L725.443 282.702C725.031 281.925 724.642 281.194 724.44 280.51C723.83 278.45 725.03 275.92 726.99 275.09C728.33 274.52 729.97 274.58 731.7 274.65C731.796 274.653 731.892 274.656 731.988 274.659C732.82 274.687 733.644 274.715 734.46 274.67C738.18 274.48 742.13 272.19 742.13 268.32C742.13 265.668 740.242 263.891 738.714 262.453L738.7 262.44L738.655 262.397C737.532 261.333 736.479 260.336 736.39 259.3C736.25 257.58 737.61 256.79 740.74 255.38L740.769 255.367C743.07 254.331 745.425 253.271 746.58 251.08C749.487 245.567 745.44 242.368 742.481 240.029L742.47 240.02L742.413 239.974C741.031 238.879 739.611 237.753 738.92 236.53C737.61 234.18 738.37 231.77 739.25 228.98L739.266 228.928C739.951 226.734 740.658 224.47 740.42 222C739.84 216.1 737.03 215.75 733.91 215.92L733.891 215.921C732.478 215.991 731.144 216.056 729.73 215.24C728.84 214.72 728.57 213.27 728.82 212.17C729.035 211.221 729.872 209.88 730.686 208.577L730.74 208.49L730.748 208.477C732.837 205.148 735.695 200.595 731.77 196.73C728.84 193.83 724.12 195.11 721.17 197.79C720.726 198.196 720.197 198.742 719.611 199.347L719.55 199.41C719.489 199.474 719.423 199.543 719.352 199.617C718.05 200.979 715.234 203.924 714.02 203.64C713.85 203.6 713.43 203.2 713.06 201.97C711.995 198.505 712.634 194.743 713.311 190.763L713.32 190.71L713.61 188.95C714.95 180.67 714.23 175.92 711.35 174.01C709.73 172.94 707.98 172.72 706.44 173.41C704.58 174.24 703.23 176.31 702.83 178.95L702.73 179.6C702.54 180.99 702.35 182.3 701.65 182.96C700.58 183.98 698.24 183.21 696.7 181.89C696.12 181.39 695.56 180.83 695.01 180.28C693.5 178.76 691.93 177.2 689.71 176.42C688.23 175.91 686.87 175.96 685.76 176.58C684.35 177.37 683.56 178.95 683.52 181.03C683.47 183.61 684.334 185.922 685.171 188.164L685.18 188.19C685.72 189.63 686.23 191 686.48 192.37C687.199 196.301 685.697 198.241 683.614 200.932L683.6 200.95L683.587 200.967C682.73 202.073 681.766 203.318 680.92 204.78C678.89 208.28 679.01 211.42 679.13 214.46L679.132 214.502C679.201 216.357 679.267 218.114 678.85 220C678.48 221.68 677.46 223.05 676.25 223.48C675.268 223.827 672.349 223.033 670.184 222.445L670.13 222.43L670.104 222.423C665.602 221.195 660.945 219.925 658.34 222.55C656.65 224.25 656.4 227.09 657.56 231.25C658.386 234.195 659.993 237.08 661.546 239.866L661.57 239.91L661.581 239.93C663.528 243.424 665.541 247.036 665.78 250.45C665.9 252.25 665.08 254.48 664.21 256.83C662.53 261.34 660.46 266.96 665.56 271.08C667.96 273.02 670.69 273.72 673.11 274.34C676.79 275.28 679.44 275.96 680.91 280.12C682.43 284.4 680.58 289.63 676.71 292.01ZM716.92 289.42C710.91 288.48 704.47 287.62 698.02 287.62C693.23 287.62 688.43 288.09 683.78 289.34C685.31 286.08 685.64 282.25 684.44 278.85C682.3 272.81 677.91 271.68 674.03 270.69C671.78 270.12 669.66 269.58 667.9 268.15C665.03 265.84 665.95 262.83 667.7 258.12C668.68 255.49 669.68 252.78 669.5 250.18C669.2 245.934 666.974 241.938 664.826 238.081L664.82 238.07L664.797 238.029C663.286 235.314 661.857 232.747 661.15 230.23C660.09 226.46 660.75 225.42 660.98 225.19C662.05 224.12 666.3 225.28 669.12 226.05L669.144 226.057C672.494 226.974 675.395 227.768 677.49 227.01C679.91 226.14 681.83 223.77 682.48 220.82C683 218.45 682.92 216.35 682.84 214.32C682.73 211.59 682.64 209.23 684.12 206.67C684.85 205.42 685.7 204.32 686.52 203.26L686.523 203.256C688.792 200.327 691.14 197.297 690.13 191.71C689.825 190.037 689.249 188.48 688.687 186.963L688.66 186.89C687.91 184.89 687.2 182.99 687.23 181.1C687.25 180.28 687.48 179.9 687.56 179.85C687.63 179.81 687.94 179.79 688.43 179.96C689.85 180.46 691.05 181.66 692.32 182.93C692.417 183.025 692.514 183.121 692.61 183.216C693.142 183.742 693.672 184.266 694.23 184.74C697.09 187.19 701.42 188.3 704.19 185.7C705.85 184.13 706.16 181.91 706.41 180.12L706.41 180.12L706.49 179.51C706.72 178 707.37 177.08 707.92 176.84C708.04 176.78 708.43 176.61 709.24 177.14C709.61 177.38 711.37 179.07 709.88 188.36L709.59 190.09C708.86 194.35 708.11 198.75 709.44 203.08C710.17 205.46 711.41 206.88 713.12 207.29C716.36 208.06 719.62 204.72 722.21 202.02C722.315 201.913 722.418 201.808 722.518 201.706C722.944 201.27 723.326 200.879 723.65 200.58C725.32 199.06 727.92 198.23 729.11 199.41C730.72 200.99 729.82 202.88 727.54 206.51C726.49 208.18 725.5 209.76 725.14 211.35C724.48 214.25 725.58 217.19 727.82 218.49C730.2 219.87 732.43 219.76 734.07 219.67L734.093 219.669C736.201 219.56 736.391 219.55 736.66 222.37C736.83 224.086 736.253 225.912 735.644 227.837L735.64 227.85L735.624 227.902C734.638 231.049 733.522 234.611 735.63 238.36C736.69 240.25 738.43 241.63 740.12 242.96C743.51 245.64 744.58 246.8 743.24 249.34C742.69 250.39 740.91 251.19 739.19 251.96C736.26 253.27 732.26 255.07 732.64 259.61C732.85 262.09 734.58 263.72 736.11 265.16C737.51 266.48 738.36 267.35 738.36 268.32C738.37 269.73 736.2 270.82 734.25 270.92C733.44 270.96 732.63 270.93 731.82 270.9H731.82L731.776 270.898C729.73 270.829 727.595 270.756 725.51 271.64C721.78 273.22 719.68 277.68 720.83 281.57C721.15 282.65 721.67 283.62 722.17 284.55C723.01 286.12 723.5 287.14 723.24 288.02C722.75 289.71 719.53 289.83 716.92 289.42Z" fill="#1A4A67"/>
<path d="M702.35 293.35C701.31 293.35 700.48 292.51 700.48 291.48V233.22C700.48 232.19 701.32 231.35 702.35 231.35C703.38 231.35 704.22 232.19 704.22 233.22V291.48C704.22 292.51 703.38 293.35 702.35 293.35Z" fill="white"/>
<path d="M702.35 270.67C701.93 270.67 701.52 270.53 701.17 270.25C700.37 269.6 700.24 268.42 700.9 267.61L716.18 248.77C716.84 247.96 718.02 247.85 718.82 248.49C719.62 249.14 719.75 250.32 719.09 251.13L703.81 269.97C703.43 270.43 702.89 270.67 702.35 270.67Z" fill="white"/>
<path d="M702.35 254.76C701.92 254.76 701.49 254.62 701.14 254.32L682.93 239C682.14 238.33 682.04 237.15 682.7 236.36C683.37 235.57 684.55 235.47 685.34 236.13L703.55 251.46C704.34 252.13 704.44 253.31 703.78 254.1C703.41 254.54 702.88 254.76 702.35 254.76Z" fill="white"/>
<path d="M675.14 285.43C677.53 301.35 679.7 318.01 683.72 333.37C684.06 334.65 684.45 335.99 685.26 336.81C686.22 337.78 687.52 337.8 688.73 337.77C695.68 337.61 702.65 338.06 709.61 338.02C716.18 337.99 721.61 338.51 722.3 327.6C722.54 323.82 723.13 285.42 726.62 285.42C726.61 285.43 675.14 285.43 675.14 285.43Z" fill="white"/>
<path fill-rule="evenodd" clip-rule="evenodd" d="M700.29 339.76C703.11 339.83 705.94 339.9 708.76 339.9C709.05 339.9 709.33 339.9 709.63 339.89H710.54C716.57 339.89 723.42 339.88 724.18 327.72C724.22 327.13 724.27 325.7 724.33 323.71C725.23 295.69 726.59 288.24 727.56 286.93C727.49 287.02 727.16 287.3 726.64 287.3V283.55H672.97L674.32 292.6L674.357 292.85C676.375 306.532 678.461 320.67 681.92 333.85C682.33 335.39 682.82 337 683.94 338.13C685.51 339.73 687.549 339.68 688.779 339.65L688.78 339.65C692.59 339.57 696.51 339.66 700.29 339.76ZM700.38 336.01C697.6 335.94 694.75 335.87 691.9 335.87C690.83 335.87 689.76 335.88 688.68 335.91C687.59 335.93 686.96 335.88 686.59 335.5C686.08 334.98 685.73 333.68 685.53 332.9C682.128 319.91 680.052 305.87 678.042 292.278L678.01 292.06L677.31 287.3H723.44C722.2 291.86 721.27 301.86 720.57 323.59C720.564 323.786 720.558 323.976 720.552 324.16C720.502 325.8 720.466 326.969 720.43 327.49C719.88 336.135 716.764 336.14 710.531 336.15L710.52 336.15H709.6C706.54 336.17 703.45 336.09 700.38 336.01Z" fill="#1A4A67"/>
<path d="M723.94 294.95H677.83C673.7 294.95 670.32 291.57 670.32 287.44V283.42C670.32 279.29 673.7 275.91 677.83 275.91H723.94C728.07 275.91 731.45 279.29 731.45 283.42V287.44C731.45 291.57 728.07 294.95 723.94 294.95Z" fill="#1A4A67"/>
<path d="M221.09 149.93L204.31 200.59L159.84 205.14C159.84 205.14 193.69 176.33 198.19 143.69C202.69 111.05 221.09 149.93 221.09 149.93Z" fill="white"/>
<path fill-rule="evenodd" clip-rule="evenodd" d="M158.63 203.71L154.05 207.61L205.71 202.33L223.11 149.81L222.79 149.13C221.08 145.53 212.1 127.63 204.16 128.83C200.17 129.44 197.61 134.22 196.34 143.43C191.99 174.97 158.96 203.43 158.63 203.71ZM204.764 132.516C204.855 132.507 204.935 132.5 205.03 132.5C208.82 132.5 215.44 142.61 219.07 150.04L202.91 198.83L165.27 202.68C174.63 193.69 196.41 170.25 200.04 143.93C201.44 133.8 203.98 132.63 204.72 132.52C204.735 132.519 204.75 132.517 204.764 132.516Z" fill="#1A4A67"/>
<path d="M292.57 74.49C292.57 74.49 298.17 88.49 279.91 121.77C261.65 155.05 239.48 181.67 229.34 176.6C201.28 162.58 196.59 138.78 191.21 117.97C184.61 92.46 224.34 45.45 224.34 45.45L251.48 39.14L292.57 74.49Z" fill="white"/>
<path fill-rule="evenodd" clip-rule="evenodd" d="M228.5 178.26C229.59 178.81 230.77 179.07 232.02 179.07C244.82 179.07 265.52 151.88 281.54 122.66C300.02 89 294.55 74.39 294.3 73.79L294.13 73.36L251.97 37.09L223.3 43.76L222.9 44.23C221.26 46.18 182.63 92.27 189.39 118.42L190.25 121.77C195.37 141.85 201.18 164.61 228.5 178.26ZM193.03 117.49C187.09 94.54 221.3 52.09 225.38 47.13L250.98 41.17L290.94 75.55C291.58 77.99 294.11 91.99 278.27 120.86C259.43 155.22 238.3 178.98 230.18 174.91C204.39 162.03 199.05 141.09 193.89 120.85L193.03 117.49Z" fill="#1A4A67"/>
<path d="M327.3 73.79C327.59 73.29 327.87 72.77 328.14 72.24C333.68 61.36 335.78 47.17 333.43 35.17C329.45 14.83 309.02 12.67 291.86 16.35C284.02 18.03 276.68 23.16 268.38 20.5C262.19 18.52 259.06 12.71 254.35 8.75995C248.95 4.22995 242.19 1.56995 235.14 0.829952C220.53 -0.700048 207.09 6.85995 199.08 18.81C195.79 23.73 193.68 29.39 193.36 35.3C191.9 33.25 189.82 32.58 187.33 33.06C166.94 37.03 168.11 66.63 169.01 82.16C169.76 95.13 169.03 111.26 176.93 122.37C180.08 126.8 188.34 133.85 193.36 128.93C197.84 124.54 194.34 111.09 195.54 105.33C197.22 97.2399 196.48 58.46 237.74 61.38C254.14 62.54 265.7 90.59 281.12 95.47C296.82 100.45 318.56 88.82 327.3 73.79Z" fill="#1A4A67"/>
<path d="M407.43 589.78L433.9 655.2L414.26 666.86L390.46 596.86C390.46 596.86 400.32 588.85 407.43 589.78Z" fill="white"/>
<path fill-rule="evenodd" clip-rule="evenodd" d="M388.26 596.23L413.23 669.65L436.24 655.99L408.76 588.07L407.67 587.93C399.82 586.91 389.7 595.06 389.27 595.41L388.26 596.23ZM415.28 664.06L392.66 597.52C395.65 595.32 401.61 591.63 406.14 591.57L431.55 654.4L415.28 664.06Z" fill="#1A4A67"/>
<path d="M524.65 664.52C524.65 664.52 509.99 673.44 480.33 681.97C450.68 690.51 417.32 698.57 410.36 695.07C403.4 691.57 392.17 651.99 402.2 649.93C412.23 647.88 418.92 662.52 434.11 645.12C447.12 630.21 463.25 649.99 490.7 650.53C518.15 651.07 529.26 651.26 524.65 664.52Z" fill="#A7A9AC"/>
<path fill-rule="evenodd" clip-rule="evenodd" d="M409.53 696.75C410.88 697.42 413.02 697.73 415.79 697.73C429.25 697.73 457.49 690.5 480.86 683.79C510.41 675.28 525.02 666.51 525.63 666.14L526.2 665.79L526.42 665.15C528 660.62 527.91 657.34 526.16 654.82C522.32 649.3 511.17 649.08 490.74 648.68C479.76 648.47 470.67 645.1 462.65 642.12C451.14 637.85 441.21 634.17 432.7 643.91C423.514 654.436 418.344 652.361 412.367 649.962L412.36 649.96C409.12 648.65 405.76 647.3 401.83 648.11C399.82 648.52 397.28 650.16 396.56 655.62C394.95 667.75 403.07 693.5 409.53 696.75ZM402.58 651.77C403.14 651.65 403.69 651.6 404.23 651.6C406.44 651.6 408.57 652.46 410.97 653.43L410.978 653.433C417.047 655.863 424.595 658.884 435.53 646.36C442.34 638.56 449.9 641.36 461.35 645.61C469.64 648.69 479.05 652.18 490.85 652.41L490.864 652.41C508.616 652.76 520.331 652.991 523.09 656.94C524.01 658.27 524.02 660.34 523.1 663.25C520.11 664.95 505.62 672.74 479.82 680.17C442.02 691.05 416.38 695.98 411.21 693.39C407 691.28 398.74 667.62 400.27 656.1C400.51 654.29 401.11 652.07 402.58 651.77Z" fill="#1A4A67"/>
<path d="M207.901 401.97C221.261 403.48 254.661 419.09 266.971 423.71C293.391 433.63 333.041 490.73 349.121 510.94C366.851 533.22 383.711 541.02 399.651 564.25C410.801 580.36 432.691 584.52 443.981 599.21C452.581 610.4 448.631 610.52 435.441 617.68C417.351 627.5 357.401 671.25 349.171 639.57C346.101 627.74 330.721 612.96 322.741 603.09C304.011 579.92 309.361 542.18 293.301 517.63C285.481 505.68 279.861 491.64 266.231 484.22C254.791 477.99 240.261 477.91 226.621 478.05C207.821 478.23 197.261 445.56 178.451 445.74C153.661 445.98 128.011 470.04 108.131 457.6C74.7106 436.67 119.971 434.87 138.671 434.14C175.691 432.7 171.111 397.82 207.901 401.97Z" fill="white"/>
<path fill-rule="evenodd" clip-rule="evenodd" d="M356.63 651.44C358.92 652.36 361.5 652.78 364.31 652.78C381.56 652.78 407.23 637.01 425.05 626.06L425.341 625.882C429.748 623.177 433.561 620.837 436.31 619.34C437.76 618.55 439.1 617.84 440.33 617.2C446.07 614.19 449.54 612.37 450.27 609.05C450.94 606.01 448.92 602.6 445.45 598.08C439.825 590.766 431.674 585.958 423.78 581.302L423.76 581.29C415.4 576.36 406.76 571.26 401.18 563.2C392.416 550.433 383.553 542.419 374.182 533.946L374.13 533.9L374.017 533.797C366.412 526.919 358.541 519.8 350.57 509.78C347.93 506.46 344.66 502.16 340.92 497.23C321.96 472.25 290.2 430.44 267.62 421.96C264.585 420.825 260.231 418.992 255.169 416.862C254.745 416.684 254.315 416.503 253.88 416.32C238.79 409.95 218.13 401.24 208.11 400.11C188.17 397.86 179.55 406.83 171.21 415.51C163.6 423.42 155.73 431.6 138.6 432.27C118.5 433.05 96.8503 434.61 94.5103 443.4C93.2903 448 97.3003 453.01 107.15 459.18C119.74 467.07 133.91 461.47 148.91 455.54L148.985 455.51C158.712 451.669 168.765 447.7 178.48 447.61H178.62C187.108 447.61 193.926 455.156 201.144 463.143L201.15 463.15C201.29 463.304 201.43 463.459 201.57 463.614C208.936 471.76 216.483 480.106 226.64 479.92C238.8 479.8 253.93 479.66 265.33 485.87C275.458 491.379 280.898 500.596 286.657 510.354L286.66 510.36C288.31 513.17 289.97 515.97 291.73 518.66C299.069 529.877 301.894 544.394 304.626 558.435L304.65 558.56C307.8 574.83 311.07 591.65 321.27 604.27C323.2 606.65 325.56 609.33 328.08 612.18C335.68 620.78 345.13 631.49 347.35 640.04C348.82 645.72 351.95 649.55 356.63 651.44ZM267.11 482.58C256.55 476.82 243.44 476.14 231.95 476.14C230.12 476.14 228.33 476.16 226.58 476.18C218.07 476.3 211.17 468.67 203.91 460.64C203.768 460.483 203.626 460.325 203.483 460.168C196.121 452.026 188.613 443.723 178.42 443.87C167.99 443.97 157.58 448.08 147.51 452.06C133.42 457.63 120.1 462.89 109.12 456.01C98.2103 449.18 97.7803 445.59 98.1103 444.37C99.9403 437.53 129.14 436.39 138.73 436.02C157.37 435.29 166.15 426.16 173.89 418.11L173.958 418.039C182.349 409.319 189.589 401.795 207.68 403.83C217.12 404.895 237.369 413.428 252.232 419.691L252.42 419.77L252.905 419.975C258.339 422.268 263.027 424.246 266.3 425.47C287.862 433.567 319.187 474.809 337.919 499.472L337.94 499.5C341.7 504.45 344.99 508.78 347.64 512.11C355.827 522.403 363.833 529.636 371.581 536.635L371.62 536.67C380.85 545 389.57 552.88 398.1 565.31C404.142 574.038 413.136 579.346 421.835 584.479L421.87 584.5C429.81 589.18 437.31 593.61 442.49 600.35C444.61 603.11 447 606.5 446.62 608.23C446.26 609.85 443.05 611.54 438.6 613.87L438.294 614.031C437.137 614.637 435.88 615.295 434.53 616.03C431.762 617.529 428.028 619.82 423.711 622.469L423.09 622.85C404.22 634.45 372.64 653.86 358.02 647.96C354.45 646.53 352.14 643.63 350.97 639.1C348.51 629.68 339.15 619.07 330.88 609.7C330.656 609.445 330.433 609.191 330.212 608.939C327.991 606.415 325.908 604.047 324.18 601.91C314.57 590.02 311.39 573.67 308.32 557.85C305.52 543.41 302.62 528.48 294.85 516.61C293.12 513.97 291.49 511.22 289.87 508.46C284.11 498.69 278.15 488.59 267.11 482.58Z" fill="#1A4A67"/>
<path d="M332.71 631.64L364.26 694.72L344.26 707.44L315.25 639.67C315.25 639.66 325.17 631.15 332.71 631.64Z" fill="white"/>
<path fill-rule="evenodd" clip-rule="evenodd" d="M312.98 639.13L343.4 710.19L366.69 695.39L333.9 629.84L332.83 629.77C324.65 629.26 314.46 637.87 314.03 638.24L312.98 639.13ZM345.12 704.67L317.53 640.22C320.59 637.83 326.73 633.79 331.56 633.5L361.84 694.04L345.12 704.67Z" fill="#1A4A67"/>
<path d="M455.24 714.52C455.24 714.52 439.14 722.11 407.33 728.08C375.52 734.05 339.85 739.25 332.81 735.22C325.77 731.19 317.05 691.18 327.75 689.98C338.44 688.78 344.34 703.79 361.64 687.87C376.47 674.23 391.87 695.09 420.67 697.9C449.45 700.71 461.11 701.81 455.24 714.52Z" fill="#D1D3D4"/>
<path fill-rule="evenodd" clip-rule="evenodd" d="M331.87 736.85C333.87 737.99 337.75 738.48 342.93 738.48C358.31 738.48 385.08 734.16 407.68 729.94C439.222 724.016 455.23 716.605 456.031 716.234L456.04 716.23L456.66 715.94L456.95 715.32C458.89 711.12 459.11 707.83 457.63 705.24C454.22 699.3 442.43 698.15 420.85 696.05C409.292 694.93 399.994 690.841 391.785 687.232L391.78 687.23C380.09 682.09 370 677.66 360.37 686.51C349.834 696.197 344.265 693.587 338.364 690.821L338.34 690.81L338.329 690.805C335.053 689.256 331.676 687.661 327.53 688.13C325.37 688.37 322.56 689.83 321.4 695.4C318.95 707.25 325.5 733.2 331.87 736.85ZM327.94 691.85C328.28 691.81 328.62 691.79 328.95 691.79C331.638 691.79 334.126 692.958 336.744 694.187L336.75 694.19C343.2 697.23 350.5 700.67 362.91 689.26C370.73 682.07 378.51 685.48 390.27 690.65C398.73 694.37 408.33 698.59 420.66 699.79C439.48 701.62 451.92 702.84 454.36 707.1C455.13 708.45 454.96 710.42 453.81 713.11C450.57 714.53 434.73 721.04 406.98 726.25C366.38 733.87 339 736.61 333.73 733.6C329.47 731.16 322.68 707.7 325.07 696.16C325.45 694.3 326.26 692.04 327.94 691.85Z" fill="#1A4A67"/>
<path d="M178.45 395.34C191.81 397.25 204.14 402.81 216.45 408.68C242.87 421.28 264.96 455.75 281.04 481.41C298.77 509.72 315.63 538.66 331.57 568.16C337.62 579.36 340.1 591.9 345.72 603.18C355.02 621.84 403.09 647.35 371.8 668.46C351.72 682 319.98 675.48 297.34 675.4C296.16 675.4 294.89 675.36 293.97 674.63C292.88 673.76 292.65 672.22 292.5 670.83C289.36 641.36 286.36 616.71 273.01 590.02C254.28 560.59 241.28 540.13 225.22 508.96C217.4 493.78 217.93 481.3 204.31 471.88C192.87 463.96 181.07 466.33 167.44 466.5C148.64 466.73 132.5 466.27 113.7 466.5C88.9104 466.8 72.7204 466 59.3204 444.42C33.6504 403.07 51.9104 403.82 70.6004 402.9C107.61 401.06 141.66 390.07 178.45 395.34Z" fill="white"/>
<path fill-rule="evenodd" clip-rule="evenodd" d="M314.293 678.034C320.984 678.463 327.962 678.91 334.9 678.91C348.68 678.91 362.24 677.16 372.85 670.01C379.73 665.36 383.51 660.05 384.06 654.2C385.169 642.496 373.721 631.13 362.645 620.134L362.6 620.09C356.14 613.69 350.05 607.64 347.41 602.35C344.83 597.179 342.875 591.581 340.981 586.159L340.96 586.1L340.883 585.881C338.708 579.679 336.462 573.279 333.22 567.28C317.34 537.87 300.32 508.65 282.64 480.42C267.61 456.42 244.89 420.17 217.27 406.99C204.66 400.98 192.22 395.42 178.73 393.49C155.157 390.115 132.262 393.41 110.125 396.595L110.02 396.61C97.2104 398.46 83.9604 400.37 70.5204 401.03L68.5104 401.12L68.4873 401.121C58.7459 401.571 49.5476 401.995 46.0704 408.59C42.5304 415.34 46.1204 426.69 57.7404 445.4C71.3304 467.29 87.9804 468.67 113.73 468.36C123.12 468.24 131.99 468.3 140.58 468.36C149.16 468.42 158.05 468.47 167.46 468.36C169.95 468.32 172.39 468.22 174.77 468.12L174.821 468.118C185.34 467.679 194.415 467.3 203.24 473.41C211.92 479.42 214.46 486.55 217.68 495.59C219.28 500.09 220.94 504.74 223.55 509.81C239.69 541.14 253 562.06 271.33 590.85C284.05 616.29 287.23 639.11 290.63 671.02C290.77 672.38 291.02 674.67 292.79 676.08C294.26 677.25 296.1 677.26 297.32 677.26C302.369 677.279 307.847 677.626 313.639 677.993L314.23 678.03L314.293 678.034ZM205.37 470.33C197.94 465.19 190.36 464.16 182.49 464.16C179.91 464.16 177.31 464.268 174.69 464.377L174.63 464.38C172.28 464.48 169.89 464.58 167.43 464.61C158.05 464.73 149.19 464.67 140.61 464.61C140.222 464.608 139.833 464.605 139.444 464.603C131.215 464.555 122.694 464.505 113.69 464.61C88.5204 464.92 73.7604 464.09 60.9204 443.42C50.5304 426.68 46.6504 415.54 49.3904 410.33C51.8604 405.63 60.0304 405.25 68.6804 404.85L70.7004 404.75C84.3204 404.08 97.6604 402.16 110.56 400.3L110.59 400.296C133.499 396.997 155.14 393.881 178.2 397.18C191.17 399.04 203.32 404.48 215.66 410.36C242.29 423.07 264.66 458.77 279.46 482.4C297.1 510.56 314.08 539.71 329.93 569.05C333.06 574.86 335.28 581.2 337.42 587.33C339.35 592.88 341.35 598.61 344.05 604.02C346.958 609.854 353.258 616.108 359.931 622.731L359.95 622.75C369.94 632.66 381.26 643.89 380.32 653.85C379.87 658.59 376.74 662.86 370.75 666.9C355.87 676.93 333.87 675.53 314.47 674.29L313.889 674.254C308.034 673.887 302.49 673.539 297.34 673.52C296.41 673.51 295.55 673.48 295.13 673.15C294.63 672.75 294.47 671.63 294.36 670.62C290.91 638.31 287.68 615.18 274.59 589.01L274.492 588.856C256.173 560.066 242.912 539.225 226.88 508.09C224.39 503.25 222.77 498.71 221.21 494.33L221.205 494.314C217.897 485.041 215.035 477.016 205.37 470.33Z" fill="#1A4A67"/>
<path d="M208.07 250.84C208.07 250.84 211.5 307.25 217.55 307.94C222.62 308.52 239.78 306.86 244.73 306.13C254.9 304.64 265.05 302.96 275.18 301.24C292.72 298.27 310.88 296.01 328.05 291.4C338.54 288.58 357.87 284.01 365.05 275.4C374.79 263.72 397.31 286.05 403.64 291.96C404.56 292.81 405.51 294.23 404.69 295.14C404.32 295.56 403.71 295.66 403.14 295.69C399.15 295.92 395.37 293.96 391.83 292.06C395.2 295.09 398.11 298.63 400.43 302.5C396.65 301.49 393.23 299.39 389.48 298.28C374.4 293.79 365.23 315.73 348.24 309.95C336.85 306.08 325.07 310.69 313.99 313.06C304.01 315.19 294.01 317.24 284 319.23C265.28 322.97 234.61 328.14 215.46 329.33C214.28 329.4 201.73 329.67 200.56 329.4C194.33 328 182.18 299.88 183.71 270.98C184.52 255.79 175.44 254.32 177.8 231.85C179.96 211.27 209.84 218.22 208.07 250.84Z" fill="white"/>
<path fill-rule="evenodd" clip-rule="evenodd" d="M200.14 331.24C200.67 331.36 202.48 331.4 204.68 331.4C209.099 331.4 215.097 331.233 215.559 331.22L215.57 331.22C236.19 329.93 268.52 324.24 284.36 321.08C294.37 319.08 304.38 317.03 314.37 314.9C316.59 314.43 318.83 313.87 321.09 313.3L321.102 313.297C329.908 311.088 339.024 308.801 347.63 311.73C357.349 315.04 364.799 310.051 371.369 305.651L371.37 305.65C377.11 301.81 382.54 298.18 388.93 300.08C390.6 300.58 392.2 301.28 393.9 302.03C395.82 302.88 397.81 303.75 399.94 304.32L404.4 305.51L402.03 301.55C401.13 300.04 400.14 298.58 399.07 297.18C400.42 297.49 401.8 297.65 403.24 297.57C404.05 297.52 405.22 297.35 406.08 296.4C407.48 294.84 407.02 292.57 404.92 290.6L403.87 289.61C397.51 283.61 382.52 269.61 371.49 270.23C368.3 270.42 365.66 271.76 363.61 274.21C357.34 281.73 340.24 286.25 330.02 288.95L327.57 289.6C314.71 293.05 301.08 295.21 287.9 297.29L287.898 297.29C283.539 297.98 279.179 298.67 274.87 299.4C265.27 301.02 254.93 302.74 244.46 304.28C239.07 305.07 222.38 306.6 218.06 306.18C215 303.88 211.46 275.69 209.95 250.84C210.99 230.87 200.5 219.22 190.08 218.39C183.71 217.87 176.96 221.8 175.93 231.67C174.552 244.745 176.975 251.086 179.113 256.681L179.12 256.7L179.124 256.709C180.752 260.965 182.16 264.644 181.83 270.89C180.31 299.54 192.14 329.44 200.14 331.24ZM179.66 232.06C180.31 225.84 183.83 222.09 188.92 222.09C189.2 222.09 189.49 222.1 189.77 222.11C198.45 222.8 207.15 233.07 206.19 250.73L206.18 250.84L206.19 250.95C207.79 277.39 211.03 309.07 217.33 309.79C222.81 310.41 240.4 308.65 244.99 307.97C255.51 306.43 265.86 304.7 275.49 303.07C279.231 302.435 283.003 301.837 286.785 301.239C287.35 301.149 287.915 301.06 288.48 300.97L288.557 300.958C301.803 298.862 315.505 296.693 328.53 293.2L330.96 292.55L330.969 292.548C342.309 289.548 359.432 285.018 366.47 276.59C367.85 274.94 369.56 274.08 371.7 273.95C381.21 273.41 395.79 287.14 401.28 292.32L402.34 293.32C402.53 293.5 402.68 293.67 402.8 293.82C399.265 293.929 395.729 292.028 392.81 290.459L392.7 290.4L379.03 283.06L390.56 293.45C392.33 295.04 393.96 296.76 395.43 298.6C395.42 298.6 395.41 298.59 395.4 298.59C393.68 297.83 391.89 297.04 390 296.48C381.93 294.07 375.5 298.37 369.29 302.53C362.87 306.83 356.8 310.89 348.84 308.18C339.194 304.901 329.538 307.318 320.192 309.657L320.18 309.66C319.959 309.715 319.738 309.77 319.517 309.825C317.529 310.321 315.543 310.816 313.59 311.23C303.62 313.36 293.63 315.4 283.63 317.4C262.52 321.61 233.22 326.36 215.34 327.47C213.92 327.55 202.21 327.77 200.97 327.58C196.71 326.62 183.98 301.16 185.58 271.09C185.95 264.05 184.34 259.83 182.63 255.36C180.54 249.9 178.38 244.25 179.66 232.06Z" fill="#1A4A67"/>
<path d="M186.02 281.59C189.19 269.05 193.16 256.96 197.66 245.75C204.71 228.17 217.17 204.18 207.43 185.8C206.06 183.21 204.55 180.6 202.21 178.7C176.13 157.48 133.93 200.21 116.23 222.48C93.9301 250.53 92.9001 262.31 82.9701 294.88C71.9501 331.05 61.9301 368.9 45.7001 403.47C43.9501 407.2 42.4601 412.28 45.9501 414.67C47.5301 415.75 49.6601 415.83 51.6501 415.78C65.4401 415.42 78.7601 411.04 91.8401 406.81C112.56 400.12 111.71 397.71 133.15 401.21C141.56 402.58 149.66 399.68 158.23 399.4C160.35 399.33 168.77 398.07 170.59 397.13C184.75 389.8 167.77 386.13 167.12 384.31C155 350.45 176.68 318.57 186.02 281.59Z" fill="#37C1D3"/>
<path fill-rule="evenodd" clip-rule="evenodd" d="M44.9002 416.21C46.6502 417.41 48.7602 417.66 50.8502 417.66C51.1302 417.66 51.4202 417.66 51.7202 417.62C65.5102 417.26 78.8002 412.97 91.6602 408.81L92.4302 408.56C96.2614 407.33 99.3608 406.232 101.993 405.299L102.5 405.12C113.48 401.22 116.09 400.3 132.87 403.03C138.332 403.919 143.665 403.102 148.818 402.313L148.84 402.31L148.959 402.292C152.022 401.828 155.181 401.349 158.31 401.24C160.37 401.17 169.24 399.91 171.46 398.76C174.32 397.28 178.13 394.91 178.09 391.51C178.05 387.9 173.78 385.81 170.67 384.29L170.568 384.24C169.932 383.927 169.14 383.537 168.77 383.3C160.611 360.071 168.869 337.402 177.609 313.414L177.61 313.41C181.29 303.32 185.09 292.89 187.83 282.02C190.89 269.9 194.78 257.92 199.39 246.42C200.24 244.31 201.16 242.11 202.12 239.83L202.124 239.821C209.223 222.903 218.059 201.847 209.07 184.9C207.64 182.19 206.01 179.36 203.38 177.22C197.44 172.38 190.34 170.38 182.29 171.25C153.37 174.39 120.96 213.48 114.75 221.29C95.4702 245.54 91.7602 258.24 85.0302 281.29L84.8727 281.83C83.757 285.659 82.5548 289.784 81.1702 294.32C79.2702 300.58 77.3902 306.88 75.5102 313.21L75.4911 313.274C66.577 343.234 57.3606 374.21 44.0102 402.67C40.2102 410.76 42.4002 414.5 44.9002 416.21ZM182.7 174.99C183.77 174.88 184.83 174.82 185.86 174.82C191.58 174.82 196.67 176.61 201.03 180.13C203.12 181.83 204.52 184.29 205.78 186.66C213.94 202.04 205.48 222.2 198.68 238.39C198.483 238.861 198.288 239.329 198.093 239.793C197.339 241.596 196.606 243.346 195.93 245.04C191.25 256.69 187.31 268.83 184.21 281.12C181.524 291.745 177.779 302.033 174.157 311.984L174.1 312.14L174.076 312.207C165.065 336.952 156.558 360.312 165.37 384.92C165.779 386.077 167.003 386.676 169.012 387.661L169.03 387.67L169.123 387.716C170.876 388.582 174.34 390.293 174.35 391.57C174.35 391.72 174.23 393.13 169.74 395.45C168.4 396.14 160.47 397.43 158.18 397.51C154.804 397.62 151.497 398.126 148.308 398.614L148.27 398.62L148.242 398.624C143.153 399.403 138.341 400.139 133.46 399.34C115.754 396.454 112.668 397.547 101.276 401.584L101.23 401.6C98.5202 402.57 95.3002 403.71 91.2702 405.01L90.4902 405.26L90.4475 405.274C77.8508 409.339 64.8352 413.54 51.6002 413.89C49.8502 413.93 48.1102 413.87 47.0002 413.11C44.6402 411.5 45.9102 407.41 47.3902 404.26C60.8602 375.53 70.1302 344.39 79.0902 314.28C80.9702 307.96 82.8502 301.67 84.7502 295.42C86.2002 290.66 87.4702 286.34 88.6302 282.35L88.6331 282.34C95.4511 259.007 98.8728 247.297 117.69 223.63C123.73 216.03 155.26 177.97 182.7 174.99Z" fill="#1A4A67"/>
<path d="M216.29 261.2C216.29 261.2 228.89 189.73 195.96 190.47C163.03 191.21 164.95 274.04 164.95 274.04L218.86 272.09L216.29 261.2Z" fill="#78DFE8"/>
<path fill-rule="evenodd" clip-rule="evenodd" d="M163.08 274.09L163.12 275.99L221.21 273.89L218.19 261.14C219.02 256.23 225.93 212.33 211.34 195.34C207.38 190.73 202.32 188.45 195.91 188.6C181.24 188.94 171.26 203.61 166.26 232.22C162.742 252.379 163.059 272.708 163.079 274.024C163.08 274.062 163.08 274.084 163.08 274.09ZM196 192.35H196.47C201.43 192.35 205.36 194.13 208.51 197.79C222.449 214.02 214.589 260.07 214.451 260.873L214.45 260.88L214.38 261.26L216.52 270.32L166.81 272.11C166.79 266.54 167.02 249.61 169.96 232.82C173.16 214.55 180.27 192.71 196 192.35Z" fill="#1A4A67"/>
<path d="M832.29 647.66H663.67C654.22 647.66 646.5 639.93 646.5 630.49V624.02C646.5 614.57 654.23 606.85 663.67 606.85H832.29C841.74 606.85 849.46 614.58 849.46 624.02V630.49C849.46 639.93 841.73 647.66 832.29 647.66Z" fill="#A7A9AC"/>
<path d="M856.41 692.03H687.79C678.34 692.03 670.62 684.3 670.62 674.86V668.39C670.62 658.94 678.35 651.22 687.79 651.22H856.41C865.86 651.22 873.58 658.95 873.58 668.39V674.86C873.58 684.3 865.85 692.03 856.41 692.03Z" fill="#A7A9AC"/>
<path d="M832.29 736.84H663.67C654.22 736.84 646.5 729.11 646.5 719.67V713.2C646.5 703.75 654.23 696.03 663.67 696.03H832.29C841.74 696.03 849.46 703.76 849.46 713.2V719.67C849.46 729.12 841.73 736.84 832.29 736.84Z" fill="#A7A9AC"/>
<path d="M663.05 631.61C665.635 631.61 667.73 629.515 667.73 626.93C667.73 624.345 665.635 622.25 663.05 622.25C660.466 622.25 658.37 624.345 658.37 626.93C658.37 629.515 660.466 631.61 663.05 631.61Z" fill="white"/>
<path d="M831.66 631.61C834.245 631.61 836.34 629.515 836.34 626.93C836.34 624.345 834.245 622.25 831.66 622.25C829.076 622.25 826.98 624.345 826.98 626.93C826.98 629.515 829.076 631.61 831.66 631.61Z" fill="white"/>
<path d="M686.47 674.39C689.055 674.39 691.15 672.295 691.15 669.71C691.15 667.125 689.055 665.03 686.47 665.03C683.886 665.03 681.79 667.125 681.79 669.71C681.79 672.295 683.886 674.39 686.47 674.39Z" fill="white"/>
<path d="M855.08 674.39C857.665 674.39 859.76 672.295 859.76 669.71C859.76 667.125 857.665 665.03 855.08 665.03C852.495 665.03 850.4 667.125 850.4 669.71C850.4 672.295 852.495 674.39 855.08 674.39Z" fill="white"/>
<path d="M663.98 720.87C666.565 720.87 668.66 718.775 668.66 716.19C668.66 713.605 666.565 711.51 663.98 711.51C661.396 711.51 659.3 713.605 659.3 716.19C659.3 718.775 661.396 720.87 663.98 720.87Z" fill="white"/>
<path d="M832.6 720.87C835.185 720.87 837.28 718.775 837.28 716.19C837.28 713.605 835.185 711.51 832.6 711.51C830.015 711.51 827.92 713.605 827.92 716.19C827.92 718.775 830.015 720.87 832.6 720.87Z" fill="white"/>
<path d="M459.69 335.11H291.92C289.68 335.11 287.84 333.28 287.84 331.03V330.79C287.84 328.55 289.67 326.71 291.92 326.71H459.69C461.93 326.71 463.77 328.54 463.77 330.79V331.03C463.77 333.28 461.93 335.11 459.69 335.11Z" fill="#37C1D3"/>
<path d="M455.5 329.2L539.39 179.64C540.51 177.64 543.02 176.95 544.96 178.1C546.9 179.25 547.57 181.83 546.45 183.83L462.56 333.4C461.44 335.4 458.93 336.09 456.99 334.94C455.05 333.78 454.38 331.2 455.5 329.2Z" fill="#37C1D3"/>
</svg>
