<?xml version="1.0" encoding="iso-8859-1"?>
<!-- Generator: Adobe Illustrator 23.0.2, SVG Export Plug-In . SVG Version: 6.00 Build 0)  -->
<svg version="1.1" id="&#x56FE;&#x5C42;_1" xmlns="http://www.w3.org/2000/svg" xmlns:xlink="http://www.w3.org/1999/xlink" x="0px"
	 y="0px" viewBox="0 0 1000 1000" style="enable-background:new 0 0 1000 1000;" xml:space="preserve">
<g>
	<defs>
		<path id="XMLID_9_" d="M241.243,556.801c0,0-34.891-49.133-53.405-61.238c0,0,55.541-59.471,62.662-97.026
			c0,0,54.117-271.824,295.507-265.416c0,0,92.569,9.257,145.261,48.42c0,0,34.179,37.027,71.919,39.164
			c0,0-25.634,13.529-45.572,11.393c0,0-24.21,2.136-22.074,9.257c0,0,112.506,36.565,106.81,180.278
			s-42.724,175.043-56.965,207.798c0,0-8.307,24.685-4.035,39.638c0,0-10.681-27.771-12.105-36.078c0,0-12.342,9.019-18.751,36.078
			c0,0-7.358-17.09-8.545-30.856c0,0-28.127,33.23-19.226,82.718c0,0,17.802-11.037,21.362,0c0,0,10.325,62.662,34.891,63.374
			H449.167c0,0-4.984-97.197-32.755-86.516c-27.771,10.681-103.25,29.907-132.444,7.833
			C254.773,683.548,241.243,556.801,241.243,556.801z"/>
	</defs>
	<linearGradient id="XMLID_2_" gradientUnits="userSpaceOnUse" x1="495.1995" y1="784.3057" x2="495.1995" y2="133.0097">
		<stop  offset="0" style="stop-color:#55B2B9"/>
		<stop  offset="0.5112" style="stop-color:#49ABB8"/>
		<stop  offset="0.5423" style="stop-color:#449FAC"/>
		<stop  offset="0.7278" style="stop-color:#295C6C"/>
		<stop  offset="0.8622" style="stop-color:#183243"/>
		<stop  offset="0.931" style="stop-color:#112234"/>
	</linearGradient>
	<use xlink:href="#XMLID_9_"  style="overflow:visible;fill:url(#XMLID_2_);"/>
	<clipPath id="XMLID_3_">
		<use xlink:href="#XMLID_9_"  style="overflow:visible;"/>
	</clipPath>
	<linearGradient id="SVGID_1_" gradientUnits="userSpaceOnUse" x1="283.1067" y1="418.652" x2="248.4265" y2="607.054">
		<stop  offset="0" style="stop-color:#FFFFFF"/>
		<stop  offset="0.6256" style="stop-color:#FFFFFF;stop-opacity:0"/>
	</linearGradient>
	<path style="clip-path:url(#XMLID_3_);fill:url(#SVGID_1_);" d="M296.513,475.405c-9.331-35.571-41.693-61.815-80.192-61.815
		c-45.789,0-82.908,37.119-82.908,82.908c0,40.134,28.518,73.602,66.394,81.258c3.598,49.39,44.778,88.35,95.086,88.35
		c52.672,0,95.371-42.699,95.371-95.371C390.264,518.606,348.434,476.273,296.513,475.405z"/>
	<linearGradient id="SVGID_2_" gradientUnits="userSpaceOnUse" x1="755.7985" y1="453.4034" x2="786.591" y2="610.0501">
		<stop  offset="0" style="stop-color:#FFFFFF"/>
		<stop  offset="0.8874" style="stop-color:#FFFFFF;stop-opacity:0"/>
	</linearGradient>
	<path style="clip-path:url(#XMLID_3_);fill:url(#SVGID_2_);" d="M799.034,446.182c-32.486,0-59.48,23.439-65.041,54.323
		c-30.844,1.965-55.257,27.59-55.257,58.93c0,32.621,26.445,59.065,59.065,59.065c26.067,0,48.174-16.893,56.011-40.323
		c1.725,0.135,3.462,0.224,5.221,0.224c36.511,0,66.109-29.598,66.109-66.11S835.545,446.182,799.034,446.182z"/>
	<linearGradient id="SVGID_3_" gradientUnits="userSpaceOnUse" x1="703.4079" y1="415.3804" x2="740.8778" y2="605.9965">
		<stop  offset="0" style="stop-color:#FFFFFF"/>
		<stop  offset="0.6269" style="stop-color:#FFFFFF;stop-opacity:0"/>
	</linearGradient>
	<path style="clip-path:url(#XMLID_3_);fill:url(#SVGID_3_);" d="M761.723,403.294c-36.384,0-66.024,28.806-67.398,64.853
		c-5.465-1.47-11.206-2.266-17.135-2.266c-36.362,0-65.839,29.477-65.839,65.839c0,36.361,29.477,65.838,65.839,65.838
		c35.077,0,63.738-27.434,65.72-62.014c5.974,1.732,12.282,2.679,18.814,2.679c37.259,0,67.464-30.205,67.464-67.464
		C829.188,433.499,798.983,403.294,761.723,403.294z"/>
	<linearGradient id="SVGID_4_" gradientUnits="userSpaceOnUse" x1="372.7966" y1="342.578" x2="232.367" y2="533.6581">
		<stop  offset="0" style="stop-color:#FFFFFF"/>
		<stop  offset="0.661" style="stop-color:#FFFFFF;stop-opacity:0"/>
	</linearGradient>
	<path style="clip-path:url(#XMLID_3_);fill:url(#SVGID_4_);" d="M353.384,442.245c-1.266,0-2.517,0.055-3.763,0.135
		c0-0.024,0.002-0.047,0.002-0.071c0-53.869-43.669-97.539-97.538-97.539s-97.538,43.67-97.538,97.539
		c0,53.869,43.669,97.539,97.538,97.539c18.069,0,34.979-4.932,49.49-13.496c9.553,18.93,29.158,31.92,51.81,31.92
		c32.04,0,58.013-25.974,58.013-58.013S385.424,442.245,353.384,442.245z"/>
	<g style="clip-path:url(#XMLID_3_);">
		<path style="opacity:0.38;fill:none;stroke:#FFFFFF;stroke-width:2;stroke-linecap:round;stroke-miterlimit:10;" d="
			M353.413,525.517c0-7.708,0.492-15.301,1.447-22.75c0.932-7.272,2.305-14.407,4.091-21.375"/>
		<path style="opacity:0.38;fill:none;stroke:#FFFFFF;stroke-width:2;stroke-linecap:round;stroke-miterlimit:10;" d="
			M380.602,619.879c-6.347-10.069-11.709-20.822-15.949-32.123"/>
		<path style="opacity:0.38;fill:none;stroke:#FFFFFF;stroke-width:2;stroke-linecap:round;stroke-miterlimit:10;" d="
			M702.73,567.773c-3.248,13.277-7.993,25.968-14.045,37.882"/>
		<path style="opacity:0.38;fill:none;stroke:#FFFFFF;stroke-width:2;stroke-linecap:round;stroke-miterlimit:10;" d="
			M681.619,432.772c8.13,13.21,14.576,27.568,19.037,42.775"/>
		<path style="opacity:0.38;fill:none;stroke:#FFFFFF;stroke-width:2;stroke-linecap:round;stroke-miterlimit:10;" d="
			M587.406,357.623c14.159,4.788,27.515,11.317,39.815,19.333"/>
		<path style="opacity:0.38;fill:none;stroke:#FFFFFF;stroke-width:2;stroke-linecap:round;stroke-miterlimit:10;" d="
			M479.969,355.665c9.751-2.903,19.855-4.989,30.231-6.179"/>
		<path style="opacity:0.38;fill:none;stroke:#FFFFFF;stroke-width:2;stroke-linecap:round;stroke-miterlimit:10;" d="
			M383.697,426.414c7.861-11.63,17.066-22.276,27.393-31.716"/>
		<radialGradient id="SVGID_5_" cx="530.6065" cy="525.5171" r="177.1932" gradientUnits="userSpaceOnUse">
			<stop  offset="0" style="stop-color:#FFFFFF"/>
			<stop  offset="0.8579" style="stop-color:#FFFFFF;stop-opacity:0.1421"/>
			<stop  offset="1" style="stop-color:#FFFFFF;stop-opacity:0"/>
		</radialGradient>
		<path style="opacity:0.36;fill:url(#SVGID_5_);" d="M707.8,525.517c0,14.562-1.757,28.714-5.07,42.256
			c-2.275,9.298-5.284,18.309-8.961,26.966c-6.261,14.739-14.461,28.455-24.279,40.829c-4.381,5.522-9.085,10.776-14.082,15.735
			c-8.886,8.817-18.702,16.699-29.287,23.486c-6.006,3.851-12.259,7.349-18.731,10.466c-14.454,6.96-29.997,12.017-46.305,14.844
			c-9.902,1.717-20.086,2.611-30.479,2.611c-18.349,0-36.047-2.789-52.692-7.966c-12.532-3.898-24.467-9.149-35.635-15.583
			c-11.326-6.525-21.862-14.266-31.431-23.045c-8.311-7.625-15.891-16.033-22.625-25.107c-7.539-10.159-14.017-21.153-19.27-32.819
			c-5.81-12.905-10.121-26.63-12.71-40.955c-1.86-10.291-2.831-20.891-2.831-31.719c0-20.673,3.54-40.519,10.047-58.964
			c5.049-14.311,11.883-27.78,20.236-40.138c6.321-9.352,13.511-18.068,21.455-26.032c7.318-7.336,15.274-14.034,23.78-20.004
			c11.257-7.9,23.474-14.524,36.442-19.662c20.189-7.998,42.197-12.393,65.232-12.393c16.654,0,32.771,2.297,48.052,6.593
			c15.281,4.295,29.725,10.588,43.034,18.58c14.555,8.74,27.751,19.51,39.197,31.92c2.281,2.473,4.492,5.011,6.631,7.611
			c7.99,9.714,14.967,20.293,20.769,31.576c5.899,11.474,10.583,23.675,13.882,36.433C705.845,495.25,707.8,510.155,707.8,525.517z"
			/>
		<circle style="fill:#FFFFFF;" cx="530.607" cy="525.517" r="132.346"/>
		<circle style="fill:#EFF0E2;" cx="455.339" cy="466.557" r="34.498"/>
		<circle style="fill:#EFF0E2;" cx="519.787" cy="422.494" r="22.11"/>
		<circle style="fill:#EFF0E2;" cx="518.219" cy="473.614" r="12.388"/>
	</g>
	<linearGradient id="SVGID_6_" gradientUnits="userSpaceOnUse" x1="495.4509" y1="648.6795" x2="495.4509" y2="548.8051">
		<stop  offset="0" style="stop-color:#D2EDCC"/>
		<stop  offset="0.5112" style="stop-color:#75D3B8"/>
		<stop  offset="0.7448" style="stop-color:#5ECBB1"/>
		<stop  offset="1" style="stop-color:#49C3AA"/>
	</linearGradient>
	<path style="clip-path:url(#XMLID_3_);fill:url(#SVGID_6_);" d="M155.795,658.877c0,0,139.735-97.376,307.612-55.721
		c167.878,41.655,371.698-49.406,371.698-49.406l-45.572,95.823l-226.437,23.261l-330.399,8.601L155.795,658.877z"/>
	<linearGradient id="SVGID_7_" gradientUnits="userSpaceOnUse" x1="492.6027" y1="709.956" x2="492.6027" y2="584.4721">
		<stop  offset="0" style="stop-color:#AAE7C8"/>
		<stop  offset="0.2741" style="stop-color:#5FB9B3"/>
		<stop  offset="0.4161" style="stop-color:#3DA4A9"/>
		<stop  offset="1" style="stop-color:#3BA7AA"/>
	</linearGradient>
	<path style="clip-path:url(#XMLID_3_);fill:url(#SVGID_7_);" d="M204.216,688.014c0,0,128.172-78.52,225.013-50.038
		c96.841,28.483,321.854-1.424,351.761-25.634l-19.938,84.024L526.07,724.93l-267.347,3.54L204.216,688.014z"/>
	<linearGradient id="SVGID_8_" gradientUnits="userSpaceOnUse" x1="511.1164" y1="764.157" x2="511.1164" y2="689.6772">
		<stop  offset="0" style="stop-color:#B3EDC7"/>
		<stop  offset="0.1023" style="stop-color:#9BDEC1"/>
		<stop  offset="0.5112" style="stop-color:#3DA4A9"/>
		<stop  offset="0.7961" style="stop-color:#1D8088"/>
		<stop  offset="1" style="stop-color:#0A6B74"/>
	</linearGradient>
	<path style="clip-path:url(#XMLID_3_);fill:url(#SVGID_8_);" d="M265.454,715.876c0,0,103.962-63.273,222.165-27.862
		c118.203,35.41,230.891-19.075,230.891-19.075l59.632,88.584l-99.689,6.635l-434.36-8.311L265.454,715.876z"/>
	<linearGradient id="SVGID_9_" gradientUnits="userSpaceOnUse" x1="550.8141" y1="820.9771" x2="550.8141" y2="726.5695">
		<stop  offset="0" style="stop-color:#3CCEB2"/>
		<stop  offset="0.2851" style="stop-color:#289489"/>
		<stop  offset="0.5804" style="stop-color:#165E63"/>
		<stop  offset="0.7241" style="stop-color:#0F4954"/>
	</linearGradient>
	<path style="clip-path:url(#XMLID_3_);fill:url(#SVGID_9_);" d="M338.796,730.189c0,0,71.563-30.975,168.76,13.885
		s234.032-43.792,234.032-43.792l32.992,120.695l-447.533-14.953L338.796,730.189z"/>
	
		<linearGradient id="SVGID_10_" gradientUnits="userSpaceOnUse" x1="1031.0808" y1="-1192.8579" x2="1030.1921" y2="-1066.2068" gradientTransform="matrix(-0.9722 0.9722 -0.7071 -0.7071 746.9712 -1584.528)">
		<stop  offset="0" style="stop-color:#CAE682"/>
		<stop  offset="0.2364" style="stop-color:#92C199"/>
		<stop  offset="0.4932" style="stop-color:#5B9DAF"/>
		<stop  offset="0.6178" style="stop-color:#468FB8"/>
		<stop  offset="0.675" style="stop-color:#4289B1;stop-opacity:0.8504"/>
		<stop  offset="0.7596" style="stop-color:#38799D;stop-opacity:0.6289"/>
		<stop  offset="0.8613" style="stop-color:#275E7C;stop-opacity:0.3628"/>
		<stop  offset="0.9755" style="stop-color:#103A4F;stop-opacity:0.0642"/>
		<stop  offset="1" style="stop-color:#0B3144;stop-opacity:0"/>
	</linearGradient>
	<path style="opacity:0.38;clip-path:url(#XMLID_3_);fill:url(#SVGID_10_);" d="M487.886,159.66l109.04,102.546
		c1.625,1.624,1.126,4.781-1.107,7.014l0,0c-2.233,2.233-5.39,2.732-7.014,1.107l-102.546-109.04
		C484.634,159.663,486.261,158.036,487.886,159.66z"/>
	
		<linearGradient id="SVGID_11_" gradientUnits="userSpaceOnUse" x1="1196.1001" y1="-1190.2719" x2="1194.9059" y2="-1077.8112" gradientTransform="matrix(-0.7071 0.7071 -0.7071 -0.7071 590.3367 -1427.8933)">
		<stop  offset="0" style="stop-color:#CAE682"/>
		<stop  offset="0.2364" style="stop-color:#92C199"/>
		<stop  offset="0.4932" style="stop-color:#5B9DAF"/>
		<stop  offset="0.6178" style="stop-color:#468FB8"/>
		<stop  offset="0.675" style="stop-color:#4289B1;stop-opacity:0.8504"/>
		<stop  offset="0.7596" style="stop-color:#38799D;stop-opacity:0.6289"/>
		<stop  offset="0.8613" style="stop-color:#275E7C;stop-opacity:0.3628"/>
		<stop  offset="0.9755" style="stop-color:#103A4F;stop-opacity:0.0642"/>
		<stop  offset="1" style="stop-color:#0B3144;stop-opacity:0"/>
	</linearGradient>
	<path style="clip-path:url(#XMLID_3_);fill:url(#SVGID_11_);" d="M490.146,162.42l103.105,98.602c1.549,1.549,1.549,4.083,0,5.631
		l0,0c-1.549,1.549-4.083,1.549-5.631,0l-98.602-103.105C487.469,161.999,488.598,160.871,490.146,162.42z"/>
	
		<linearGradient id="SVGID_12_" gradientUnits="userSpaceOnUse" x1="1144.2792" y1="-1101.8362" x2="1142.9116" y2="-975.1894" gradientTransform="matrix(-0.9722 0.9722 -0.7071 -0.7071 746.9712 -1584.528)">
		<stop  offset="0" style="stop-color:#CAE682"/>
		<stop  offset="0.2364" style="stop-color:#92C199"/>
		<stop  offset="0.4932" style="stop-color:#5B9DAF"/>
		<stop  offset="0.6178" style="stop-color:#468FB8"/>
		<stop  offset="0.675" style="stop-color:#4289B1;stop-opacity:0.8504"/>
		<stop  offset="0.7596" style="stop-color:#38799D;stop-opacity:0.6289"/>
		<stop  offset="0.8613" style="stop-color:#275E7C;stop-opacity:0.3628"/>
		<stop  offset="0.9755" style="stop-color:#103A4F;stop-opacity:0.0642"/>
		<stop  offset="1" style="stop-color:#0B3144;stop-opacity:0"/>
	</linearGradient>
	<path style="opacity:0.38;clip-path:url(#XMLID_3_);fill:url(#SVGID_12_);" d="M311.623,203.493l109.04,102.546
		c1.624,1.624,1.126,4.781-1.107,7.014l0,0c-2.233,2.233-5.39,2.732-7.014,1.107L309.996,205.12
		C308.371,203.496,309.998,201.869,311.623,203.493z"/>
	
		<linearGradient id="SVGID_13_" gradientUnits="userSpaceOnUse" x1="1351.7997" y1="-1103.1147" x2="1350.7246" y2="-990.6527" gradientTransform="matrix(-0.7071 0.7071 -0.7071 -0.7071 590.3367 -1427.8933)">
		<stop  offset="0" style="stop-color:#CAE682"/>
		<stop  offset="0.2364" style="stop-color:#92C199"/>
		<stop  offset="0.4932" style="stop-color:#5B9DAF"/>
		<stop  offset="0.6178" style="stop-color:#468FB8"/>
		<stop  offset="0.6462" style="stop-color:#4289B1;stop-opacity:0.8654"/>
		<stop  offset="0.6882" style="stop-color:#38799D;stop-opacity:0.666"/>
		<stop  offset="0.7386" style="stop-color:#275E7C;stop-opacity:0.4265"/>
		<stop  offset="0.7953" style="stop-color:#103A4F;stop-opacity:0.1578"/>
		<stop  offset="0.8074" style="stop-color:#0B3144;stop-opacity:0.1"/>
	</linearGradient>
	<path style="clip-path:url(#XMLID_3_);fill:url(#SVGID_13_);" d="M313.883,206.253l103.105,98.602c1.549,1.549,1.549,4.083,0,5.631
		v0c-1.549,1.549-4.083,1.549-5.631,0l-98.602-103.105C311.207,205.832,312.335,204.704,313.883,206.253z"/>
	
		<linearGradient id="SVGID_14_" gradientUnits="userSpaceOnUse" x1="1229.5662" y1="-1266.9805" x2="1228.1986" y2="-1140.3336" gradientTransform="matrix(-0.9722 0.9722 -0.7071 -0.7071 746.9712 -1584.528)">
		<stop  offset="0" style="stop-color:#CAE682"/>
		<stop  offset="0.2364" style="stop-color:#92C199"/>
		<stop  offset="0.4932" style="stop-color:#5B9DAF"/>
		<stop  offset="0.6178" style="stop-color:#468FB8"/>
		<stop  offset="0.675" style="stop-color:#4289B1;stop-opacity:0.8504"/>
		<stop  offset="0.7596" style="stop-color:#38799D;stop-opacity:0.6289"/>
		<stop  offset="0.8613" style="stop-color:#275E7C;stop-opacity:0.3628"/>
		<stop  offset="0.9755" style="stop-color:#103A4F;stop-opacity:0.0642"/>
		<stop  offset="1" style="stop-color:#0B3144;stop-opacity:0"/>
	</linearGradient>
	<path style="opacity:0.38;clip-path:url(#XMLID_3_);fill:url(#SVGID_14_);" d="M345.483,403.183l109.04,102.546
		c1.624,1.624,1.126,4.781-1.107,7.014h0c-2.233,2.233-5.39,2.732-7.014,1.107L343.855,404.81
		C342.231,403.185,343.858,401.558,345.483,403.183z"/>
	
		<linearGradient id="SVGID_15_" gradientUnits="userSpaceOnUse" x1="1469.059" y1="-1268.2589" x2="1467.9839" y2="-1155.797" gradientTransform="matrix(-0.7071 0.7071 -0.7071 -0.7071 590.3367 -1427.8933)">
		<stop  offset="0" style="stop-color:#CAE682"/>
		<stop  offset="0.2364" style="stop-color:#92C199"/>
		<stop  offset="0.4932" style="stop-color:#5B9DAF"/>
		<stop  offset="0.6178" style="stop-color:#468FB8"/>
		<stop  offset="0.6462" style="stop-color:#4289B1;stop-opacity:0.8654"/>
		<stop  offset="0.6882" style="stop-color:#38799D;stop-opacity:0.666"/>
		<stop  offset="0.7386" style="stop-color:#275E7C;stop-opacity:0.4265"/>
		<stop  offset="0.7953" style="stop-color:#103A4F;stop-opacity:0.1578"/>
		<stop  offset="0.8074" style="stop-color:#0B3144;stop-opacity:0.1"/>
	</linearGradient>
	<path style="clip-path:url(#XMLID_3_);fill:url(#SVGID_15_);" d="M347.743,405.942l103.105,98.602c1.549,1.549,1.549,4.083,0,5.631
		l0,0c-1.549,1.549-4.083,1.549-5.631,0L346.615,407.07C345.066,405.522,346.195,404.393,347.743,405.942z"/>
	<linearGradient id="SVGID_16_" gradientUnits="userSpaceOnUse" x1="726.9429" y1="254.2519" x2="795.058" y2="349.7612">
		<stop  offset="0" style="stop-color:#CAE682"/>
		<stop  offset="0.2364" style="stop-color:#92C199"/>
		<stop  offset="0.4932" style="stop-color:#5B9DAF"/>
		<stop  offset="0.6178" style="stop-color:#468FB8"/>
		<stop  offset="0.675" style="stop-color:#4289B1"/>
		<stop  offset="0.7596" style="stop-color:#38799D"/>
		<stop  offset="0.8613" style="stop-color:#275E7C"/>
		<stop  offset="0.9755" style="stop-color:#103A4F"/>
		<stop  offset="1" style="stop-color:#0B3144"/>
	</linearGradient>
	<circle style="clip-path:url(#XMLID_3_);fill:url(#SVGID_16_);" cx="761.385" cy="302.546" r="63.374"/>
	<g style="display:none;clip-path:url(#XMLID_3_);">
		
			<linearGradient id="SVGID_17_" gradientUnits="userSpaceOnUse" x1="-566.6868" y1="-318.0823" x2="-567.2769" y2="-263.4346" gradientTransform="matrix(0.8073 -0.5901 0.5901 0.8073 1012.9869 247.7049)">
			<stop  offset="0" style="stop-color:#34A798"/>
			<stop  offset="0.3519" style="stop-color:#1E788A"/>
			<stop  offset="0.5508" style="stop-color:#146384"/>
			<stop  offset="0.6504" style="stop-color:#135D7D"/>
			<stop  offset="0.7979" style="stop-color:#104E69"/>
			<stop  offset="0.9745" style="stop-color:#0C3448"/>
			<stop  offset="0.9944" style="stop-color:#0B3144"/>
		</linearGradient>
		<circle style="display:inline;fill:url(#SVGID_17_);" cx="385.17" cy="349.64" r="33.55"/>
		
			<linearGradient id="SVGID_18_" gradientUnits="userSpaceOnUse" x1="-496.2353" y1="-279.4864" x2="-629.808" y2="-279.4864" gradientTransform="matrix(0.8073 -0.5901 0.5901 0.8073 1012.9869 247.7049)">
			<stop  offset="0" style="stop-color:#34A798"/>
			<stop  offset="0.3519" style="stop-color:#1E788A"/>
			<stop  offset="0.5508" style="stop-color:#146384"/>
			<stop  offset="0.6504" style="stop-color:#135D7D"/>
			<stop  offset="0.7979" style="stop-color:#104E69"/>
			<stop  offset="0.9745" style="stop-color:#0C3448"/>
			<stop  offset="0.9944" style="stop-color:#0B3144"/>
		</linearGradient>
		<path style="display:inline;fill:none;stroke:url(#SVGID_18_);stroke-width:3;stroke-linecap:round;stroke-miterlimit:10;" d="
			M415.265,324.025c15.834-8.789,27.741-12.651,30.364-9.063c4.112,5.626-16.152,27.436-45.262,48.712
			c-29.11,21.277-56.042,33.964-60.154,28.338c-2.047-2.8,1.945-9.609,10.061-18.367"/>
	</g>
	<g style="display:none;clip-path:url(#XMLID_3_);">
		<g style="display:inline;">
			<defs>
				<path id="XMLID_27_" d="M618.118,171.973c0,0,38.452-8.189,49.845-2.492c0,0,4.773,3.204-11.677,6.053
					c0,0,18.798-3.56,24.138,1.424c5.341,4.984-24.032,6.231-24.032,6.231s22.786-0.178,20.472,5.519
					c-2.314,5.697-22.311,3.679-22.311,3.679s16.971,3.798,11.63,7.536c-5.341,3.738-33.467,2.136-39.342,3.204L618.118,171.973z"/>
			</defs>
			<use xlink:href="#XMLID_27_"  style="overflow:visible;fill:#FFBFB0;"/>
			<clipPath id="XMLID_4_">
				<use xlink:href="#XMLID_27_"  style="overflow:visible;"/>
			</clipPath>
			<polygon style="clip-path:url(#XMLID_4_);fill:#ED9685;" points="634.208,153.934 635.924,219.752 618.118,218.02 
				618.118,165.539 			"/>
		</g>
		<g style="display:inline;">
			<defs>
				<path id="SVGID_19_" d="M630.313,163.429l-93.252,16.14c-11.037,2.255-19.701,8.865-19.701,19.701v36.078
					c0,3.048,0.722,5.928,1.971,8.511c-1.994,5.497-2.555,11.583-1.315,17.703l9.755,48.154
					c3.603,17.785,21.102,29.388,38.886,25.785l18.61-3.77c7.549-1.529,8.032-6.946,6.503-14.495l-7.749-62.187l46.29-16.14V163.429
					z"/>
			</defs>
			<use xlink:href="#SVGID_19_"  style="overflow:visible;fill:#FF9245;"/>
			<clipPath id="SVGID_20_">
				<use xlink:href="#SVGID_19_"  style="overflow:visible;"/>
			</clipPath>
			<g style="clip-path:url(#SVGID_20_);">
				<path style="fill:#D66213;" d="M589.991,262.406c-2.154-1.502-3.988-3.242-5.727-5.053c-1.725-1.821-3.325-3.737-4.817-5.732
					c-1.493-1.995-2.873-4.074-4.128-6.246c-1.243-2.181-2.388-4.436-3.21-6.931c2.158,1.499,3.993,3.238,5.731,5.05
					c1.725,1.822,3.325,3.736,4.813,5.735c1.488,1.998,2.869,4.077,4.124,6.249C588.018,257.66,589.164,259.914,589.991,262.406z"/>
			</g>
		</g>
		<g style="display:inline;">
			<circle style="fill:#84382F;" cx="645.095" cy="248.779" r="36.859"/>
			<polygon style="fill:#FF846C;" points="635.924,300.819 635.924,316.834 654.954,316.834 654.954,296.293 			"/>
			<path style="fill:#FFBFB0;" d="M647.966,306.852h-5.742c-6.551,0-11.911-5.36-11.911-11.911v-24.172
				c0-6.551,5.36-11.911,11.911-11.911h5.742c6.551,0,11.911,5.36,11.911,11.911v24.172
				C659.877,301.492,654.517,306.852,647.966,306.852z"/>
			<path style="fill:none;stroke:#84382F;stroke-linecap:round;stroke-miterlimit:10;" d="M634.208,273.064c0,0,4.607-6.143,9.215,0
				"/>
			<path style="fill:none;stroke:#84382F;stroke-linecap:round;stroke-miterlimit:10;" d="M647.647,273.064c0,0,3.839-7.103,8.639,0
				"/>
			<path style="fill:#84382F;" d="M638.97,281.679h-0.308c-0.351,0-0.638-0.287-0.638-0.638v-3.907c0-0.351,0.287-0.638,0.638-0.638
				h0.308c0.351,0,0.638,0.287,0.638,0.638v3.907C639.608,281.392,639.32,281.679,638.97,281.679z"/>
			<path style="fill:#84382F;" d="M652.12,281.679h-0.308c-0.351,0-0.638-0.287-0.638-0.638v-3.907c0-0.351,0.287-0.638,0.638-0.638
				h0.308c0.351,0,0.638,0.287,0.638,0.638v3.907C652.758,281.392,652.471,281.679,652.12,281.679z"/>
			<path style="fill:none;stroke:#84382F;stroke-miterlimit:10;" d="M645.439,282.855c0,0,2.76,7.463,2.208,9.623
				c0,0-0.192,1.08-2.208,0.432"/>
			<path style="fill:#FF846C;" d="M642.035,296.365c0,0,2.376,1.738,10.09-0.838c0,0,3.589,0.694-1.187,3.934
				c0,0-6.023,3.24-10.199-0.288C640.739,299.173,637.787,295.527,642.035,296.365z"/>
		</g>
		<g style="display:inline;">
			<defs>
				<polygon id="SVGID_21_" points="572.419,740.202 591.415,809.272 592.949,855.422 644.346,819.953 614.201,721.688 				"/>
			</defs>
			<use xlink:href="#SVGID_21_"  style="overflow:visible;fill:#FFBFB0;"/>
			<clipPath id="SVGID_22_">
				<use xlink:href="#SVGID_21_"  style="overflow:visible;"/>
			</clipPath>
			<polygon style="clip-path:url(#SVGID_22_);fill:#FFDF62;" points="558.277,782.451 643.776,756.817 659.877,844.164 
				567.205,873.358 			"/>
			<polygon style="clip-path:url(#SVGID_22_);fill:#544000;" points="546.42,793.533 648.271,760.778 649.723,766.475 
				548.556,799.23 			"/>
			<polygon style="clip-path:url(#SVGID_22_);fill:#FFFFFF;" points="548.585,801.44 655.632,765.362 655.632,768.21 
				552.383,803.339 			"/>
			<polygon style="clip-path:url(#SVGID_22_);fill:#544000;" points="578.598,858.049 649.093,809.272 654.433,821.734 
				583.939,862.677 			"/>
		</g>
		<g style="display:inline;">
			<defs>
				<polygon id="XMLID_17_" points="658.587,704.599 710.33,770.821 725.284,809.272 755.903,751.595 696.876,676.828 				"/>
			</defs>
			<use xlink:href="#XMLID_17_"  style="overflow:visible;fill:#FFBFB0;"/>
			<clipPath id="XMLID_5_">
				<use xlink:href="#XMLID_17_"  style="overflow:visible;"/>
			</clipPath>
			<polygon style="clip-path:url(#XMLID_5_);fill:#FFDF62;" points="672.116,756.342 737.151,691.307 776.078,760.615 
				723.385,828.498 			"/>
			<polygon style="clip-path:url(#XMLID_5_);fill:#544000;" points="682.56,754.918 732.404,706.023 735.253,709.346 
				686.832,757.766 			"/>
			<polygon style="clip-path:url(#XMLID_5_);fill:#FFFFFF;" points="688.731,758.953 735.727,710.533 738.101,712.431 
				691.105,761.327 			"/>
			<polygon style="clip-path:url(#XMLID_5_);fill:#544000;" points="717.807,809.272 755.903,743.05 763.379,744.474 
				725.996,816.037 			"/>
		</g>
		<g style="display:inline;">
			<defs>
				<path id="XMLID_23_" d="M688.968,442.558c0,0,34.179,65.51-20.65,127.46l46.996,108.234l-65.946,51.793l-70.771-128.697
					l59.426-124.612L688.968,442.558z"/>
			</defs>
			<linearGradient id="XMLID_6_" gradientUnits="userSpaceOnUse" x1="597.7645" y1="549.308" x2="719.1564" y2="612.2005">
				<stop  offset="0.2863" style="stop-color:#125389"/>
				<stop  offset="0.4192" style="stop-color:#13599A"/>
				<stop  offset="0.6069" style="stop-color:#1460AB"/>
				<stop  offset="0.7454" style="stop-color:#1462B1"/>
			</linearGradient>
			<use xlink:href="#XMLID_23_"  style="overflow:visible;fill:url(#XMLID_6_);"/>
			<clipPath id="XMLID_7_">
				<use xlink:href="#XMLID_23_"  style="overflow:visible;"/>
			</clipPath>
			<path style="clip-path:url(#XMLID_7_);fill:none;stroke:#FFFFFF;stroke-width:4;stroke-miterlimit:10;" d="M671.641,481.485
				c0,0-31.806,83.549-49.37,88.771l64.561,138.141"/>
			
				<line style="clip-path:url(#XMLID_7_);fill:none;stroke:#FFFFFF;stroke-width:4;stroke-miterlimit:10;" x1="724.334" y1="654.754" x2="628.917" y2="727.385"/>
			
				<line style="clip-path:url(#XMLID_7_);fill:none;stroke:#FFFFFF;stroke-width:4;stroke-miterlimit:10;" x1="715.315" y1="639.563" x2="624.17" y2="712.194"/>
			<g style="clip-path:url(#XMLID_7_);">
				<path style="fill:#014675;" d="M677.813,570.256c-3.377,0.541-6.747,0.787-10.115,0.928c-3.368,0.16-6.733,0.169-10.095,0.096
					c-3.363-0.081-6.723-0.25-10.08-0.566c-3.357-0.299-6.712-0.704-10.06-1.408c3.377-0.545,6.747-0.792,10.115-0.933
					c3.368-0.158,6.733-0.169,10.095-0.092c3.362,0.085,6.723,0.253,10.08,0.571C671.11,569.152,674.465,569.556,677.813,570.256z"
					/>
			</g>
		</g>
		<g style="display:inline;">
			<defs>
				<path id="XMLID_21_" d="M608.236,416.924L510.24,530.143c0,0-11.393,16.378,0,45.572l50.557,175.88l84.299-15.665
					l-36.859-168.76l73.719-61.238c0,0,33.574-32.755,0-97.553L608.236,416.924z"/>
			</defs>
			<linearGradient id="XMLID_8_" gradientUnits="userSpaceOnUse" x1="576.8499" y1="408.6164" x2="656.4924" y2="725.03">
				<stop  offset="0.2863" style="stop-color:#115EAA"/>
				<stop  offset="0.4243" style="stop-color:#1967BC"/>
				<stop  offset="0.6091" style="stop-color:#2171CD"/>
				<stop  offset="0.7454" style="stop-color:#2474D3"/>
			</linearGradient>
			<use xlink:href="#XMLID_21_"  style="overflow:visible;fill:url(#XMLID_8_);"/>
			<clipPath id="XMLID_10_">
				<use xlink:href="#XMLID_21_"  style="overflow:visible;"/>
			</clipPath>
			<path style="clip-path:url(#XMLID_10_);fill:none;stroke:#FFFFFF;stroke-width:4;stroke-miterlimit:10;" d="M651.174,397.698
				c0,0,20.705,64.086-27.716,96.841s-79.039,43.436-71.207,66.934l48.774,185.137"/>
			
				<line style="clip-path:url(#XMLID_10_);fill:none;stroke:#FFFFFF;stroke-width:4;stroke-miterlimit:10;" x1="532.551" y1="743.05" x2="649.805" y2="715.042"/>
			
				<line style="clip-path:url(#XMLID_10_);fill:none;stroke:#FFFFFF;stroke-width:4;stroke-miterlimit:10;" x1="531.602" y1="727.385" x2="643.159" y2="700.326"/>
			
				<path style="clip-path:url(#XMLID_10_);fill:none;stroke:#FFFFFF;stroke-width:2;stroke-linecap:round;stroke-miterlimit:10;" d="
				M630.313,426.656c0,0-18.722,16.615,4.301,49.37"/>
			<g style="clip-path:url(#XMLID_10_);">
				<path style="fill:#075799;" d="M617.524,568.831c-4.428-0.507-8.782-1.3-13.11-2.194c-2.171-0.42-4.315-0.944-6.471-1.419
					l-6.429-1.581c-4.275-1.099-8.517-2.323-12.735-3.641c-4.217-1.32-8.408-2.744-12.523-4.456
					c4.429,0.503,8.783,1.295,13.111,2.19c4.327,0.897,8.63,1.889,12.9,3.005l6.388,1.742c2.116,0.632,4.244,1.216,6.346,1.904
					C609.217,565.701,613.408,567.123,617.524,568.831z"/>
			</g>
		</g>
		<g style="display:inline;">
			<defs>
				<path id="SVGID_23_" d="M472.975,238.444l-9.048-33.93c-0.814-3.052-2.502-7.45-1.93-10.556
					c0.848-4.603,4.688-6.953,11.215,6.854c0,0-6.587-19.404-0.89-21.896c5.697-2.492,8.723,19.76,8.723,19.76
					s-2.848-16.021,2.848-16.021c5.697,0,7.121,17.446,7.121,17.446s-0.831-7.224,0-9.123c0,0,4.186-13.351,9.257,8.055
					c6.001,25.332,5.34,34.535,5.34,34.535L472.975,238.444z"/>
			</defs>
			<use xlink:href="#SVGID_23_"  style="overflow:visible;fill:#FFBFB0;"/>
			<clipPath id="SVGID_24_">
				<use xlink:href="#SVGID_23_"  style="overflow:visible;"/>
			</clipPath>
			<polygon style="clip-path:url(#SVGID_24_);fill:#ED9685;" points="448.053,229.888 521.158,215.172 517.36,235.347 
				451.69,243.655 			"/>
		</g>
		<g style="display:inline;">
			<defs>
				<path id="XMLID_22_" d="M666.657,312.962h-46.996c-5.229,0-10.106,1.577-14.188,4.272h-67.544l-12.09-97.483l-74.15,17.064
					l26.091,113.378c3.608,15.679,18.329,26.054,33.933,24.736c1.147,0.14,2.313,0.22,3.496,0.22h82.627l4.497,40.35
					c0,3.916,3.204,7.121,7.121,7.121l71.681-7.833c3.916,0,7.121-3.204,7.121-7.121l4.272-68.833
					C692.529,324.605,680.886,312.962,666.657,312.962z"/>
			</defs>
			<linearGradient id="XMLID_11_" gradientUnits="userSpaceOnUse" x1="635.5082" y1="484.1219" x2="554.7699" y2="257.2192">
				<stop  offset="0.2863" style="stop-color:#F79A34"/>
				<stop  offset="0.3765" style="stop-color:#F9AB3F"/>
				<stop  offset="0.5562" style="stop-color:#FCC752"/>
				<stop  offset="0.713" style="stop-color:#FED95E"/>
				<stop  offset="0.8282" style="stop-color:#FFDF62"/>
			</linearGradient>
			<use xlink:href="#XMLID_22_"  style="overflow:visible;fill:url(#XMLID_11_);"/>
			<clipPath id="XMLID_13_">
				<use xlink:href="#XMLID_22_"  style="overflow:visible;"/>
			</clipPath>
			<g style="clip-path:url(#XMLID_13_);">
				<path style="fill:#FF9245;" d="M544.775,311.538c-1.023,2.014-2.311,3.73-3.678,5.356c-1.378,1.614-2.86,3.111-4.431,4.507
					c-1.57,1.397-3.234,2.689-5.001,3.864c-1.777,1.164-3.636,2.236-5.761,3.007c1.02-2.018,2.306-3.735,3.674-5.36
					c1.378-1.614,2.86-3.111,4.434-4.503c1.574-1.393,3.237-2.685,5.004-3.86C540.796,313.387,542.653,312.314,544.775,311.538z"/>
			</g>
		</g>
	</g>
	<g style="clip-path:url(#XMLID_3_);">
		<circle style="fill:#FFFFFF;" cx="411.427" cy="203.616" r="2.848"/>
		<circle style="fill:#FFFFFF;" cx="446.074" cy="304.844" r="2.014"/>
		<circle style="fill:#FFFFFF;" cx="550.992" cy="380.92" r="2.848"/>
		<circle style="fill:#FFFFFF;" cx="731.62" cy="482.774" r="1.201"/>
		<circle style="fill:#FFFFFF;" cx="688.896" cy="217.145" r="1.068"/>
		<circle style="fill:#FFFFFF;" cx="400.153" cy="429.103" r="0.979"/>
		<circle style="opacity:0.56;fill:#FFFFFF;" cx="425.668" cy="172.997" r="2.848"/>
		<circle style="fill:#FFFFFF;" cx="255.959" cy="466.606" r="2.014"/>
		<circle style="opacity:0.47;fill:#FFFFFF;" cx="688.896" cy="276.603" r="2.848"/>
		<circle style="fill:#FFFFFF;" cx="472.427" cy="386.617" r="2.014"/>
		<circle style="fill:#FFFFFF;" cx="358.022" cy="455.809" r="1.307"/>
		<circle style="fill:#FFFFFF;" cx="762.476" cy="439.072" r="1.109"/>
		<circle style="opacity:0.5;fill:#FFFFFF;" cx="734.468" cy="386.617" r="1.276"/>
		<circle style="fill:#FFFFFF;" cx="707.409" cy="378.072" r="1.009"/>
		<circle style="opacity:0.49;fill:#FFFFFF;" cx="306.041" cy="426.255" r="5.934"/>
		<circle style="opacity:0.63;fill:#FFFFFF;" cx="464.357" cy="164.215" r="2.848"/>
		<circle style="fill:#FFFFFF;" cx="439.198" cy="247.764" r="2.014"/>
		<circle style="fill:#FFFFFF;" cx="395.584" cy="249.485" r="4.569"/>
		<circle style="opacity:0.63;fill:#FFFFFF;" cx="436.349" cy="348.877" r="2.848"/>
		<circle style="fill:#FFFFFF;" cx="492.351" cy="149.499" r="2.848"/>
		<circle style="fill:#FFFFFF;" cx="606.889" cy="285.503" r="1.109"/>
		<circle style="fill:#FFFFFF;" cx="439.198" cy="383.769" r="2.014"/>
		<circle style="fill:#FFFFFF;" cx="308.89" cy="332.856" r="1.513"/>
		<circle style="fill:#FFFFFF;" cx="373.688" cy="211.449" r="2.014"/>
		<circle style="fill:#FFFFFF;" cx="537.463" cy="159.824" r="2.848"/>
		<circle style="opacity:0.19;fill:#FFFFFF;" cx="379.384" cy="378.072" r="2.848"/>
		<circle style="fill:#FFFFFF;" cx="379.384" cy="334.369" r="1.127"/>
		<circle style="opacity:0.49;fill:#FFFFFF;" cx="341.289" cy="285.503" r="2.014"/>
	</g>
</g>
</svg>
