<?xml version="1.0" encoding="iso-8859-1"?>
<!-- Generator: Adobe Illustrator 23.0.2, SVG Export Plug-In . SVG Version: 6.00 Build 0)  -->
<svg version="1.1" id="&#x56FE;&#x5C42;_1" xmlns="http://www.w3.org/2000/svg" xmlns:xlink="http://www.w3.org/1999/xlink" x="0px"
	 y="0px" viewBox="0 0 1000 1000" style="enable-background:new 0 0 1000 1000;" xml:space="preserve">
<g>
	<g>
		<defs>
			<path id="XMLID_1_" d="M173.359,547.33c0,0,37.74-54.117,49.845-112.506c12.105-58.389-16.479-232.609,241.289-279.606
				c0,0,90.534-20.53,163.521,45.336c8.721,7.87,21.718,13.173,39.52,14.241c0,0-2.492,7.833-37.027,3.204
				c0,0,105.386,49.845,114.643,158.435c0,0,4.628,55.897,63.73,42.368c0,0,9.85-2.136,15.547-3.679s31.331-8.782,35.366,17.327
				l-12.342,17.09c0,0-1.661-20.887-47.471-6.171c0,0-22.549,6.883-36.79-5.934c0,0,18.751,31.568,67.409,30.144l-31.806,44.385
				c0,0-21.125,3.56-32.755-9.494c0,0-2.848,19.938,1.424,31.331l-130.071,68.358c0,0-46.522,49.845,24.685,85.448
				c0,0,48.42-81.176,130.071-74.53c0,0-29.432,28.957-0.949,74.53c28.483,45.572,1.899,75.954-19.938,79.751H424.719
				c0,0,1.78-64.976-47.352-73.521c0,0-93.546,13.924-113.1,0.554c0,0-29.728-16.041-31.556-71.583c0,0-3.795-45.15-11.642-54.829
				C214.212,559.524,193.944,557.29,173.359,547.33z"/>
		</defs>
		<linearGradient id="XMLID_11_" gradientUnits="userSpaceOnUse" x1="516.575" y1="767.3582" x2="516.575" y2="152.1903">
			<stop  offset="0" style="stop-color:#86E3EA"/>
			<stop  offset="0.0164" style="stop-color:#85DBE7"/>
			<stop  offset="0.1281" style="stop-color:#7DA8D2"/>
			<stop  offset="0.2126" style="stop-color:#7988C5"/>
			<stop  offset="0.2593" style="stop-color:#777CC0"/>
			<stop  offset="0.3408" style="stop-color:#7679BD"/>
			<stop  offset="0.4113" style="stop-color:#7271B2"/>
			<stop  offset="0.4776" style="stop-color:#6C63A0"/>
			<stop  offset="0.5414" style="stop-color:#634F87"/>
			<stop  offset="0.6029" style="stop-color:#583667"/>
			<stop  offset="0.6117" style="stop-color:#563262"/>
			<stop  offset="0.6839" style="stop-color:#4A2D57"/>
			<stop  offset="0.8146" style="stop-color:#291F3B"/>
			<stop  offset="0.8996" style="stop-color:#111425"/>
		</linearGradient>
		<use xlink:href="#XMLID_1_"  style="overflow:visible;fill:url(#XMLID_11_);"/>
		<clipPath id="XMLID_12_">
			<use xlink:href="#XMLID_1_"  style="overflow:visible;"/>
		</clipPath>
		<linearGradient id="SVGID_1_" gradientUnits="userSpaceOnUse" x1="323.9896" y1="627.2883" x2="248.3412" y2="698.994">
			<stop  offset="0" style="stop-color:#FFFFFF"/>
			<stop  offset="0.9262" style="stop-color:#FFFFFF;stop-opacity:0"/>
		</linearGradient>
		<path style="display:none;clip-path:url(#XMLID_12_);fill:url(#SVGID_1_);" d="M196.543,591.01c0,0,70.495-2.848,74.055,81.176
			c0,0,39.164-12.817,56.253,42.724c0,0,10.681,17.09,3.56,63.374l-118.203-35.603L196.543,591.01z"/>
		<linearGradient id="SVGID_2_" gradientUnits="userSpaceOnUse" x1="605.5555" y1="635.199" x2="752.7689" y2="763.5152">
			<stop  offset="0" style="stop-color:#FFFFFF"/>
			<stop  offset="0.2444" style="stop-color:#FFFFFF;stop-opacity:0"/>
		</linearGradient>
		<path style="display:none;clip-path:url(#XMLID_12_);fill:url(#SVGID_2_);" d="M560.408,782.556c0,0-9.257-86.16,48.421-92.569
			c0,0,4.272-52.693,56.965-55.541c0,0-25.634-63.211,46.996-92.487l9.257,14.872l-27.771,127.81l-77.615,75.841L560.408,782.556z"
			/>
		<linearGradient id="SVGID_3_" gradientUnits="userSpaceOnUse" x1="523.0341" y1="531.1534" x2="807.8984" y2="757.0997">
			<stop  offset="0" style="stop-color:#FFFFFF;stop-opacity:0.6"/>
			<stop  offset="0.325" style="stop-color:#FFFFFF;stop-opacity:0"/>
		</linearGradient>
		<path style="display:none;clip-path:url(#XMLID_12_);fill:url(#SVGID_3_);" d="M725.21,448.353c0,0-68.673,5.941-72.233,60.058
			c0,0-56.253-9.257-61.95,40.588c0,0-75.479,9.969-73.343,81.176c0,0-61.238,141.701,39.164,158.079
			c0,0,160.215-126.036,165.199-234.982L725.21,448.353z"/>
		<linearGradient id="SVGID_4_" gradientUnits="userSpaceOnUse" x1="399.771" y1="524.9507" x2="182.7013" y2="770.9656">
			<stop  offset="0" style="stop-color:#FFFFFF;stop-opacity:0.7"/>
			<stop  offset="0.4407" style="stop-color:#FFFFFF;stop-opacity:0"/>
		</linearGradient>
		<path style="display:none;clip-path:url(#XMLID_12_);fill:url(#SVGID_4_);" d="M188.71,469.247c0,0,27.059-14.241,33.467,34.891
			c0,0,47.708-14.953,59.814,42.724c0,0,60.526-27.059,71.919,56.253c0,0,70.809-8.789,89.323,27.526
			c0,0,57.363,89.253-36.63,180.397c0,0-210.772-59.101-224.301-237.118C182.301,573.921,170.908,490.609,188.71,469.247z"/>
		<linearGradient id="SVGID_5_" gradientUnits="userSpaceOnUse" x1="414.4122" y1="427.1346" x2="230.1549" y2="626.3482">
			<stop  offset="0.0097" style="stop-color:#455FAF"/>
			<stop  offset="0.0639" style="stop-color:#4B64B5;stop-opacity:0.9316"/>
			<stop  offset="0.3578" style="stop-color:#677CD0;stop-opacity:0.5609"/>
			<stop  offset="0.614" style="stop-color:#798AE1;stop-opacity:0.2377"/>
			<stop  offset="0.8024" style="stop-color:#7F8FE7;stop-opacity:0"/>
		</linearGradient>
		<path style="clip-path:url(#XMLID_12_);fill:url(#SVGID_5_);" d="M370.242,486.241c-0.538-51.416-42.365-92.935-93.907-92.935
			c-51.878,0-93.933,42.055-93.933,93.933c0,50.603,40.019,91.84,90.132,93.836c2.331,47.999,41.981,86.201,90.558,86.201
			c50.076,0,90.671-40.595,90.671-90.671C453.763,528.938,416.972,489.89,370.242,486.241z"/>
		<linearGradient id="SVGID_6_" gradientUnits="userSpaceOnUse" x1="534.9168" y1="316.276" x2="484.9213" y2="700.2502">
			<stop  offset="0" style="stop-color:#344C90"/>
			<stop  offset="0.0698" style="stop-color:#435AA3;stop-opacity:0.8185"/>
			<stop  offset="0.195" style="stop-color:#5A6FBF;stop-opacity:0.4929"/>
			<stop  offset="0.3042" style="stop-color:#687CD1;stop-opacity:0.2089"/>
			<stop  offset="0.3846" style="stop-color:#6D81D7;stop-opacity:0"/>
		</linearGradient>
		<path style="clip-path:url(#XMLID_12_);fill:url(#SVGID_6_);" d="M762.08,345.639c-32.26,0-60.102,18.89-73.087,46.209
			c-11.08-6.556-23.999-10.332-37.806-10.332c-19.13,0-36.568,7.229-49.745,19.097c-20.605-20.279-48.871-32.796-80.065-32.796
			c-36.226,0-68.507,16.878-89.42,43.196c-13.361-32.974-45.676-56.242-83.443-56.242c-4.595,0-9.108,0.349-13.517,1.013
			c-2.03-33.631-29.935-60.282-64.076-60.282c-35.461,0-64.207,28.747-64.207,64.207c0,32.13,23.601,58.748,54.413,63.464
			c-1.708,6.927-2.631,14.163-2.631,21.617c0,49.716,40.303,90.019,90.019,90.019c24.111,0,45.99-9.498,62.149-24.932
			c12.451,49.556,57.294,86.25,110.713,86.25c47.404,0,88.056-28.896,105.311-70.034c7.673,2.677,15.912,4.15,24.498,4.15
			c27.629,0,51.721-15.08,64.542-37.446c13.129,9.2,29.103,14.615,46.351,14.615c44.672,0,80.886-36.214,80.886-80.886
			C842.966,381.853,806.752,345.639,762.08,345.639z"/>
		<linearGradient id="SVGID_7_" gradientUnits="userSpaceOnUse" x1="543.4095" y1="281.716" x2="446.3935" y2="590.8045">
			<stop  offset="0" style="stop-color:#314975"/>
			<stop  offset="0.1151" style="stop-color:#344F76;stop-opacity:0.6517"/>
			<stop  offset="0.3304" style="stop-color:#375577;stop-opacity:0"/>
		</linearGradient>
		<path style="clip-path:url(#XMLID_12_);fill:url(#SVGID_7_);" d="M729.918,253.918c-40.693,0-75.025,27.147-85.931,64.312
			c-2.935-0.297-5.911-0.45-8.924-0.45c-11.229,0-21.954,2.135-31.821,5.983c-14.678-12.449-33.664-19.972-54.418-19.972
			c-26.944,0-50.913,12.671-66.325,32.362c-6.554-2.298-13.595-3.561-20.933-3.561c-7.447,0-14.589,1.297-21.225,3.66
			c-5.816-28.831-29.666-51.113-59.272-54.606c-11.739-26.104-37.953-44.291-68.431-44.291c-41.43,0-75.016,33.586-75.016,75.016
			c0,41.43,33.586,75.016,75.016,75.016c0.868,0,1.728-0.036,2.589-0.066c12.26,18.879,33.516,31.376,57.704,31.376
			c9.855,0,19.218-2.088,27.692-5.822c7.432,26.681,31.892,46.265,60.942,46.265c11.381,0,22.05-3.02,31.277-8.279
			c14.879,13.258,34.484,21.325,55.981,21.325c8.798,0,17.279-1.354,25.251-3.858c15.777,15.298,37.275,24.732,60.988,24.732
			c39.024,0,72.076-25.513,83.425-60.764c3.746,0.478,7.555,0.751,11.43,0.751c49.466,0,89.565-40.1,89.565-89.565
			C819.483,294.018,779.383,253.918,729.918,253.918z"/>
		<linearGradient id="SVGID_8_" gradientUnits="userSpaceOnUse" x1="399.297" y1="595.9878" x2="135.2136" y2="806.1765">
			<stop  offset="0" style="stop-color:#FFFFFF"/>
			<stop  offset="0.4798" style="stop-color:#FFFFFF;stop-opacity:0"/>
		</linearGradient>
		<path style="clip-path:url(#XMLID_12_);fill:url(#SVGID_8_);" d="M318.027,659.681c-1.135,0-2.265,0.024-3.392,0.058
			c0.121-2.141,0.188-4.296,0.188-6.467c0-62.529-50.69-113.219-113.219-113.219S88.386,590.744,88.386,653.273
			c0,62.529,50.69,113.219,113.219,113.219c2.881,0,5.736-0.109,8.562-0.321c-0.006,0.463-0.018,0.924-0.018,1.389
			c0,59.579,48.299,107.878,107.878,107.878c59.579,0,107.878-48.299,107.878-107.878
			C425.905,707.98,377.607,659.681,318.027,659.681z"/>
		<linearGradient id="SVGID_9_" gradientUnits="userSpaceOnUse" x1="521.5445" y1="581.7819" x2="781.5144" y2="771.5405">
			<stop  offset="0" style="stop-color:#FFFFFF"/>
			<stop  offset="0.6289" style="stop-color:#FFFFFF;stop-opacity:0"/>
		</linearGradient>
		<path style="clip-path:url(#XMLID_12_);fill:url(#SVGID_9_);" d="M748.708,530.952c-53.335,0-96.949,41.589-100.199,94.106
			c-22.203,14.475-38.147,37.744-42.887,64.868c-44.289,6.213-78.371,44.249-78.371,90.251c0,50.339,40.808,91.146,91.147,91.146
			c41.997,0,77.353-28.405,87.921-67.05c47.827-2.224,86.651-38.885,92.247-85.755c30.199-17.311,50.544-49.861,50.544-87.165
			C849.11,575.904,804.159,530.952,748.708,530.952z"/>
		<linearGradient id="SVGID_10_" gradientUnits="userSpaceOnUse" x1="495.7218" y1="495.5315" x2="663.3544" y2="633.6132">
			<stop  offset="0" style="stop-color:#FFFFFF"/>
			<stop  offset="0.8017" style="stop-color:#FFFFFF;stop-opacity:0"/>
		</linearGradient>
		<path style="clip-path:url(#XMLID_12_);fill:url(#SVGID_10_);" d="M715.597,451.913c-33.989,0-62.325,24.178-68.762,56.272
			c-29.088,0.309-53.945,18.225-64.419,43.604c-38.337,10.643-66.884,44.807-69.121,85.975
			c-14.305,15.277-23.067,35.807-23.067,58.387c0,47.192,38.256,85.448,85.448,85.448c37.373,0,69.137-23.996,80.739-57.419
			c27.562-16.542,46.009-46.714,46.009-81.199c0-6.155-0.595-12.17-1.717-17.997c8-9.164,13.668-20.409,16.076-32.825
			c38.187-0.636,68.952-31.77,68.952-70.109C785.736,483.315,754.334,451.913,715.597,451.913z"/>
		<linearGradient id="SVGID_11_" gradientUnits="userSpaceOnUse" x1="373.7831" y1="486.5111" x2="156.5213" y2="752.207">
			<stop  offset="0" style="stop-color:#697DD3"/>
			<stop  offset="0.0143" style="stop-color:#7083D5;stop-opacity:0.9679"/>
			<stop  offset="0.1199" style="stop-color:#A3AFE4;stop-opacity:0.7312"/>
			<stop  offset="0.2194" style="stop-color:#CBD2F0;stop-opacity:0.5083"/>
			<stop  offset="0.3098" style="stop-color:#E7EBF8;stop-opacity:0.3055"/>
			<stop  offset="0.3884" style="stop-color:#F9FAFD;stop-opacity:0.1294"/>
			<stop  offset="0.4461" style="stop-color:#FFFFFF;stop-opacity:0"/>
		</linearGradient>
		<path style="clip-path:url(#XMLID_12_);fill:url(#SVGID_11_);" d="M377.01,600.023c-7.382,0-14.546,0.93-21.384,2.676
			c-0.458-37.099-29.561-67.289-66.221-69.471c0.005-0.284,0.021-0.566,0.021-0.851c0-26.742-21.679-48.421-48.42-48.421
			c-1.805,0-3.584,0.107-5.337,0.299c0.227-2.087,0.353-4.204,0.353-6.352c0-32.051-25.982-58.033-58.033-58.033
			c-32.051,0-58.033,25.982-58.033,58.033c0,32.051,25.982,58.033,58.033,58.033c5.058,0,9.963-0.65,14.64-1.866
			c0.64,18.574,11.731,34.491,27.585,42.042c-3.576,8.442-5.554,17.725-5.554,27.471c0,38.933,31.561,70.495,70.495,70.495
			c2.224,0,4.42-0.116,6.591-0.317c-0.586,4.057-0.895,8.203-0.895,12.422c0,47.585,38.575,86.16,86.16,86.16
			c47.585,0,86.16-38.575,86.16-86.16S424.595,600.023,377.01,600.023z"/>
		<path style="display:none;clip-path:url(#XMLID_12_);fill:#777CC0;" d="M402.135,732.335c0,0,112.15-66.222,200.803-40.588
			c0,0,30.975,17.09,90.788,0c59.814-17.09,138.853,28.839,138.853,28.839l-8.545,81.176L392.855,791.08L402.135,732.335z"/>
		<path style="display:none;clip-path:url(#XMLID_12_);fill:#86E3EA;" d="M418.512,762.954c0,0,59.102-44.86,145.974-42.724
			c0,0,76.191,10.681,103.25,4.984c27.059-5.697,98.977-20.798,159.503-5.058L807.3,782.179H411.391L418.512,762.954z"/>
		<path style="display:none;opacity:0.39;clip-path:url(#XMLID_12_);fill:#FFFFFF;" d="M515.574,265.832
			c0-3.355,0.092-6.688,0.266-10c-4.217-0.291-8.471-0.45-12.762-0.45c-101.069,0-183.001,81.932-183.001,183.001
			s81.932,183.001,183.001,183.001c96.217,0,175.088-74.257,182.438-168.587C590.173,443.794,515.574,363.531,515.574,265.832z"/>
		<linearGradient id="SVGID_12_" gradientUnits="userSpaceOnUse" x1="285.6288" y1="302.685" x2="350.4787" y2="401.7539">
			<stop  offset="0" style="stop-color:#B5FF85"/>
			<stop  offset="0.322" style="stop-color:#5296BB"/>
			<stop  offset="0.4482" style="stop-color:#466BB3;stop-opacity:0.642"/>
			<stop  offset="0.6041" style="stop-color:#3939AA;stop-opacity:0.2"/>
		</linearGradient>
		<circle style="opacity:0.49;clip-path:url(#XMLID_12_);fill:url(#SVGID_12_);" cx="318.054" cy="352.219" r="59.194"/>
		
			<linearGradient id="SVGID_13_" gradientUnits="userSpaceOnUse" x1="1493.7837" y1="-804.7325" x2="1599.4481" y2="-987.7488" gradientTransform="matrix(-0.4507 0.8927 -0.8927 -0.4507 234.7928 -1402.3431)">
			<stop  offset="0" style="stop-color:#B5FF85"/>
			<stop  offset="0.322" style="stop-color:#5296BB"/>
			<stop  offset="0.4482" style="stop-color:#466BB3;stop-opacity:0.642"/>
			<stop  offset="0.6041" style="stop-color:#3939AA;stop-opacity:0.2"/>
		</linearGradient>
		<circle style="clip-path:url(#XMLID_12_);fill:url(#SVGID_13_);" cx="318.054" cy="352.219" r="54.117"/>
		
			<linearGradient id="SVGID_14_" gradientUnits="userSpaceOnUse" x1="470.6286" y1="-18.3345" x2="468.525" y2="-301.3485" gradientTransform="matrix(1.0502 1.2393 -0.7629 0.6465 -87.0896 -261.7044)">
			<stop  offset="0" style="stop-color:#B5FF85"/>
			<stop  offset="0.362" style="stop-color:#5296BB"/>
			<stop  offset="0.5374" style="stop-color:#466BB3;stop-opacity:0.5525"/>
			<stop  offset="0.7539" style="stop-color:#3939AA;stop-opacity:0"/>
		</linearGradient>
		<path style="opacity:0.36;clip-path:url(#XMLID_12_);fill:url(#SVGID_14_);" d="M422.566,308.92l-2.602-3.071
			c-2.969-3.503-2.532-8.799,0.972-11.767L618.66,126.522c3.503-2.969,8.799-2.532,11.767,0.972l2.602,3.071
			c2.969,3.503,2.532,8.799-0.972,11.767L434.334,309.892C430.83,312.861,425.535,312.423,422.566,308.92z"/>
		
			<linearGradient id="SVGID_15_" gradientUnits="userSpaceOnUse" x1="1081.1057" y1="-26.3008" x2="1079.2272" y2="-279.0536" gradientTransform="matrix(0.6465 0.7629 -0.7629 0.6465 -292.8698 -504.5275)">
			<stop  offset="0" style="stop-color:#B5FF85"/>
			<stop  offset="0.362" style="stop-color:#5296BB"/>
			<stop  offset="0.5374" style="stop-color:#466BB3;stop-opacity:0.5525"/>
			<stop  offset="0.7539" style="stop-color:#3939AA;stop-opacity:0"/>
		</linearGradient>
		<path style="clip-path:url(#XMLID_12_);fill:url(#SVGID_15_);" d="M427.33,302.478l-1.431-1.688
			c-1.632-1.926-1.392-4.837,0.534-6.469L607.389,140.97c1.926-1.632,4.837-1.392,6.469,0.534l1.431,1.688
			c1.632,1.926,1.392,4.837-0.534,6.469L433.8,303.013C431.874,304.645,428.963,304.404,427.33,302.478z"/>
		
			<linearGradient id="SVGID_16_" gradientUnits="userSpaceOnUse" x1="570.2747" y1="122.6335" x2="568.2377" y2="-151.4308" gradientTransform="matrix(1.0489 1.2377 -0.7629 0.6465 -128.8416 -310.9723)">
			<stop  offset="0" style="stop-color:#B5FF85"/>
			<stop  offset="0.362" style="stop-color:#5296BB"/>
			<stop  offset="0.5374" style="stop-color:#466BB3;stop-opacity:0.5525"/>
			<stop  offset="0.7539" style="stop-color:#3939AA;stop-opacity:0"/>
		</linearGradient>
		<path style="opacity:0.54;clip-path:url(#XMLID_12_);fill:url(#SVGID_16_);" d="M377.114,473.404l-2.517-2.97
			c-2.871-3.388-2.448-8.509,0.94-11.381l191.487-162.275c3.388-2.871,8.509-2.448,11.381,0.94l2.517,2.97
			c2.871,3.388,2.448,8.509-0.94,11.381L388.495,474.344C385.107,477.215,379.985,476.793,377.114,473.404z"/>
		
			<linearGradient id="SVGID_17_" gradientUnits="userSpaceOnUse" x1="1178.3345" y1="117.8437" x2="1176.4558" y2="-134.9091" gradientTransform="matrix(0.6465 0.7629 -0.7629 0.6465 -292.8698 -504.5275)">
			<stop  offset="0" style="stop-color:#B5FF85"/>
			<stop  offset="0.362" style="stop-color:#5296BB"/>
			<stop  offset="0.5374" style="stop-color:#466BB3;stop-opacity:0.5525"/>
			<stop  offset="0.7539" style="stop-color:#3939AA;stop-opacity:0"/>
		</linearGradient>
		<path style="clip-path:url(#XMLID_12_);fill:url(#SVGID_17_);" d="M380.223,469.846l-1.431-1.688
			c-1.632-1.926-1.392-4.837,0.534-6.469l180.955-153.35c1.926-1.632,4.837-1.392,6.469,0.534l1.431,1.688
			c1.632,1.926,1.392,4.837-0.534,6.469L386.692,470.38C384.766,472.012,381.855,471.772,380.223,469.846z"/>
		<g style="clip-path:url(#XMLID_12_);">
			<radialGradient id="SVGID_18_" cx="467.6689" cy="534.7138" r="102.0879" gradientUnits="userSpaceOnUse">
				<stop  offset="0" style="stop-color:#FFFFFF"/>
				<stop  offset="1" style="stop-color:#FFFFFF;stop-opacity:0"/>
			</radialGradient>
			<circle style="fill:url(#SVGID_18_);" cx="467.669" cy="534.714" r="102.088"/>
			<circle style="fill:#FFFFFF;" cx="467.669" cy="534.714" r="81.048"/>
			<circle style="fill:#EFF0E2;" cx="484.267" cy="483.44" r="13.093"/>
			<circle style="fill:#EFF0E2;" cx="515.717" cy="504.225" r="8.082"/>
			<circle style="fill:#EFF0E2;" cx="510.591" cy="552.314" r="19.766"/>
		</g>
		<g style="display:none;clip-path:url(#XMLID_12_);">
			<radialGradient id="SVGID_19_" cx="465.3467" cy="532.9011" r="90.0811" gradientUnits="userSpaceOnUse">
				<stop  offset="0.2999" style="stop-color:#FED593;stop-opacity:0.6"/>
				<stop  offset="0.6618" style="stop-color:#FED393;stop-opacity:0.2899"/>
				<stop  offset="0.7922" style="stop-color:#FDCC95;stop-opacity:0.1781"/>
				<stop  offset="0.8851" style="stop-color:#FDC198;stop-opacity:0.0985"/>
				<stop  offset="0.9597" style="stop-color:#FCB09C;stop-opacity:0.0346"/>
				<stop  offset="1" style="stop-color:#FBA39F;stop-opacity:0"/>
			</radialGradient>
			<circle style="display:inline;fill:url(#SVGID_19_);" cx="465.347" cy="532.901" r="90.081"/>
			<linearGradient id="SVGID_20_" gradientUnits="userSpaceOnUse" x1="465.8964" y1="606.8533" x2="464.7812" y2="456.8195">
				<stop  offset="0" style="stop-color:#FED593"/>
				<stop  offset="1" style="stop-color:#FBA39F"/>
			</linearGradient>
			<circle style="display:inline;fill:url(#SVGID_20_);" cx="465.347" cy="532.901" r="73.127"/>
			<path style="display:inline;fill:#F9A396;" d="M503.357,579.059c-41.595,0-75.315-33.72-75.315-75.315
				c0-11.696,2.666-22.769,7.423-32.645c-21.746,11.471-36.576,34.29-36.576,60.585c0,37.813,30.654,68.467,68.467,68.467
				c20.146,0,38.257-8.703,50.786-22.552C513.36,578.551,508.418,579.059,503.357,579.059z"/>
			<path style="display:inline;fill:#FF6B81;" d="M442.161,484.947l0.49,4.818c0.055,0.54,0.372,1.019,0.848,1.28l4.247,2.327
				c1.199,0.657,1.124,2.404-0.127,2.956l-4.431,1.955c-0.497,0.219-0.854,0.669-0.955,1.202l-0.901,4.758
				c-0.254,1.343-1.939,1.812-2.85,0.793l-3.228-3.61c-0.362-0.405-0.9-0.605-1.438-0.537l-4.804,0.613
				c-1.356,0.173-2.322-1.284-1.635-2.466l2.435-4.186c0.273-0.469,0.298-1.043,0.066-1.534l-2.068-4.379
				c-0.584-1.236,0.504-2.605,1.84-2.317l4.733,1.023c0.531,0.115,1.084-0.039,1.479-0.411l3.526-3.32
				C440.385,482.976,442.023,483.587,442.161,484.947z"/>
			<path style="display:inline;fill:#FF6B81;" d="M467.891,551.85l0.302,2.972c0.034,0.333,0.23,0.628,0.523,0.789l2.62,1.436
				c0.74,0.405,0.693,1.483-0.078,1.823l-2.733,1.206c-0.306,0.135-0.527,0.413-0.589,0.742l-0.556,2.935
				c-0.157,0.829-1.196,1.118-1.758,0.489l-1.992-2.227c-0.223-0.25-0.555-0.373-0.887-0.331l-2.963,0.378
				c-0.837,0.107-1.433-0.792-1.008-1.521l1.502-2.582c0.168-0.289,0.184-0.643,0.041-0.946l-1.276-2.701
				c-0.36-0.763,0.311-1.607,1.135-1.429l2.92,0.631c0.327,0.071,0.669-0.024,0.912-0.254l2.175-2.048
				C466.795,550.634,467.805,551.011,467.891,551.85z"/>
			<path style="display:inline;fill:#FF6B81;" d="M504.023,507.747l3.128,2.55c0.351,0.286,0.82,0.381,1.254,0.254l3.874-1.131
				c1.094-0.319,2.079,0.754,1.667,1.817L512.487,515c-0.164,0.422-0.109,0.897,0.146,1.271l2.273,3.335
				c0.642,0.942-0.075,2.21-1.212,2.147l-4.029-0.225c-0.452-0.025-0.887,0.174-1.164,0.531l-2.469,3.192
				c-0.697,0.901-2.125,0.612-2.416-0.49l-1.032-3.901c-0.116-0.437-0.439-0.79-0.865-0.943l-3.799-1.362
				c-1.073-0.385-1.239-1.832-0.281-2.449l3.392-2.187c0.38-0.245,0.616-0.662,0.629-1.114l0.121-4.034
				C501.815,507.632,503.14,507.027,504.023,507.747z"/>
		</g>
		
			<linearGradient id="SVGID_21_" gradientUnits="userSpaceOnUse" x1="-567.549" y1="511.2258" x2="-568.1494" y2="430.4504" gradientTransform="matrix(0.8216 -0.5701 0.5701 0.8216 677.1215 -177.5552)">
			<stop  offset="0" style="stop-color:#FED593"/>
			<stop  offset="1" style="stop-color:#FBA39F"/>
		</linearGradient>
		<path style="opacity:0.24;clip-path:url(#XMLID_12_);fill:url(#SVGID_21_);" d="M364.782,630.182
			c-8.958,0-15.268-2.597-18.874-7.794c-8.49-12.236,1.643-33.308,30.118-62.63c2.694-2.774,7.126-2.838,9.898-0.146
			c2.773,2.693,2.838,7.125,0.146,9.898c-28.477,29.324-30.275,42.569-28.659,44.897c1.371,1.976,12.208,4.871,42.977-7.321
			c27.154-10.759,60.398-29.374,93.608-52.416c33.209-23.042,62.284-47.666,81.868-69.335c22.191-24.555,23.273-35.72,21.902-37.695
			c-2.713-3.911-25.425-3.727-75.241,22.297c-3.426,1.789-7.655,0.463-9.446-2.963c-1.79-3.427-0.463-7.656,2.963-9.446
			c21.904-11.443,41.567-19.478,56.861-23.237c18.765-4.612,30.66-2.855,36.366,5.369c7.707,11.108-0.038,29.634-23.019,55.063
			c-20.281,22.441-50.21,47.816-84.274,71.451c-34.064,23.635-68.311,42.787-96.432,53.929
			C388.588,626.821,374.972,630.182,364.782,630.182z"/>
		
			<linearGradient id="SVGID_22_" gradientUnits="userSpaceOnUse" x1="-567.5787" y1="507.2247" x2="-568.1196" y2="434.4509" gradientTransform="matrix(0.8216 -0.5701 0.5701 0.8216 677.1215 -177.5552)">
			<stop  offset="0" style="stop-color:#FED593"/>
			<stop  offset="1" style="stop-color:#FBA39F"/>
		</linearGradient>
		<path style="clip-path:url(#XMLID_12_);fill:url(#SVGID_22_);" d="M364.732,626.211c-6.894,0-12.493-1.715-15.537-6.103
			c-9.024-13.006,11.171-38.482,29.701-57.563c1.154-1.189,3.053-1.217,4.242-0.063c1.189,1.154,1.217,3.054,0.063,4.242
			c-27.412,28.228-32.994,44.318-29.076,49.964c3.429,4.942,17.771,5.991,47.737-5.882c27.43-10.868,60.96-29.637,94.415-52.848
			c72.759-50.483,113.616-99.858,104.777-112.597c-5.311-7.657-32.227-4.123-80.38,21.032c-1.468,0.765-3.281,0.198-4.048-1.27
			c-0.767-1.469-0.198-3.281,1.27-4.048c22.368-11.686,75.731-36.946,88.088-19.133c14.359,20.696-44.044,77.761-106.287,120.947
			c-33.82,23.465-67.78,42.464-95.625,53.497C391.234,621.47,376.192,626.211,364.732,626.211z"/>
		<g style="display:none;clip-path:url(#XMLID_12_);">
			<path style="display:inline;fill:#ED9685;" d="M400.617,306.862c0,0-14.419,10.503-9.435,19.226c0,0,2.466,3.491,9.435-6.053
				c0,0-2.67,5.163,0,6.676c0,0,3.541,5.963,19.75-12.194l-3.016-9.435L400.617,306.862z"/>
			<path style="display:inline;fill:#FFBFB0;" d="M457.391,320.345c0,0-21.111-28.971-37.964-28.971
				c-16.852,0-27.711,0.712-35.841,25.634c0,0-2.848,8.07,10.918-0.237c0,0,21.625-14.901,21.625-0.182
				c0,5.109-2.716,9.841-6.984,12.649c-0.933,0.614-2.773,1.418-4.197,2.783c0,0-5.398,6.634,3.001,6.202
				c6.232-0.321,12.238,2.438,15.738,7.604c0.061,0.091,0.123,0.182,0.185,0.275L457.391,320.345z"/>
			<g style="display:inline;">
				<defs>
					<path id="SVGID_23_" d="M570.748,375.43l-25.157,28.89c-4.005,4.599-11.044,5.085-15.643,1.081l-0.749-0.652l1.676-1.676
						c2.542-2.542,2.542-6.701,0-9.243l-17.474-17.474c0.011-0.013,0.019-0.026,0.031-0.039l25.157-28.89
						c4.005-4.599,11.044-5.085,15.643-1.081l15.436,13.441C574.267,363.792,574.753,370.831,570.748,375.43z"/>
				</defs>
				<defs>
					<path id="SVGID_24_" d="M513.402,376.356l-58.628-58.628c-2.542-2.542-6.701-2.542-9.243,0l-20.576,20.576
						c-2.542,2.542-2.542,6.701,0,9.243l76.102,76.102c2.542,2.542,6.701,2.542,9.243,0l18.9-18.9l-14.687-12.789
						C509.926,387.966,509.433,380.956,513.402,376.356z"/>
				</defs>
				<defs>
					<path id="SVGID_25_" d="M530.876,393.83l-17.474-17.474c-3.969,4.6-3.475,11.61,1.111,15.604l14.687,12.789l1.676-1.676
						C533.418,400.531,533.418,396.372,530.876,393.83z"/>
				</defs>
				<use xlink:href="#SVGID_23_"  style="overflow:visible;fill:#FFBFB0;"/>
				<use xlink:href="#SVGID_24_"  style="overflow:visible;fill:#FFBFB0;"/>
				<use xlink:href="#SVGID_25_"  style="overflow:visible;fill:#FFBFB0;"/>
				<clipPath id="SVGID_26_">
					<use xlink:href="#SVGID_23_"  style="overflow:visible;"/>
				</clipPath>
				<clipPath id="SVGID_27_" style="clip-path:url(#SVGID_26_);">
					<use xlink:href="#SVGID_24_"  style="overflow:visible;"/>
				</clipPath>
				<clipPath id="SVGID_28_" style="clip-path:url(#SVGID_27_);">
					<use xlink:href="#SVGID_25_"  style="overflow:visible;"/>
				</clipPath>
				<polygon style="clip-path:url(#SVGID_28_);fill:#ED9685;" points="516.506,359.733 544.988,381.807 544.988,385.011 
					452.42,385.011 456.198,398.036 564.362,392.488 556.738,360.801 523.27,351.188 				"/>
			</g>
			<g style="display:inline;">
				<defs>
					<path id="SVGID_29_" d="M732.499,459.897l84.024-65.129l79.277,13.346c0,0-17.386,3.6-22.015,10.187l-106.988,91.322
						L732.499,459.897z"/>
				</defs>
				<use xlink:href="#SVGID_29_"  style="overflow:visible;fill:#FFBFB0;"/>
				<clipPath id="SVGID_30_">
					<use xlink:href="#SVGID_29_"  style="overflow:visible;"/>
				</clipPath>
				<polygon style="clip-path:url(#SVGID_30_);fill:#4848DC;" points="764.305,419.072 820.083,484.107 904.344,404.831 
					814.149,382.519 				"/>
				<path style="clip-path:url(#SVGID_30_);fill:#F74D4D;" d="M799.908,401.745c0,0,13.885,16.021,32.755-1.78l-29.195-8.901
					L799.908,401.745z"/>
				<polygon style="clip-path:url(#SVGID_30_);fill:#FFFFFF;" points="768.933,402.101 833.375,477.224 836.935,474.376 
					772.138,398.897 				"/>
				<polygon style="clip-path:url(#SVGID_30_);fill:#FFFFFF;" points="805.961,396.76 903.514,416.342 910.278,399.253 
					809.877,389.016 				"/>
				<polygon style="clip-path:url(#SVGID_30_);fill:#ED9685;" points="732.499,435.924 787.091,518.88 759.567,531.99 
					711.256,452.196 				"/>
			</g>
			<g style="display:inline;">
				<defs>
					<path id="SVGID_31_" d="M586.763,683.96l19.397,107.285c0,0,1.847,24.804-2.426,30.975l65.154-26.228l-21.362-124.374
						L586.763,683.96z"/>
				</defs>
				<use xlink:href="#SVGID_31_"  style="overflow:visible;fill:#FFBFB0;"/>
				<clipPath id="SVGID_32_">
					<use xlink:href="#SVGID_31_"  style="overflow:visible;"/>
				</clipPath>
				<polygon style="clip-path:url(#SVGID_32_);fill:#4848DC;" points="571.572,754.218 677.433,717.19 685.503,822.22 
					588.662,837.292 				"/>
				<path style="clip-path:url(#SVGID_32_);fill:#F74D4D;" d="M658.881,796.942c0,0-9.931-19.226,10.007-26.346l5.222,19.226
					L658.881,796.942z"/>
				<polygon style="clip-path:url(#SVGID_32_);fill:#FFFFFF;" points="564.362,768.459 687.468,724.311 687.607,730.719 
					564.362,774.155 				"/>
				<polygon style="clip-path:url(#SVGID_32_);fill:#FFFFFF;" points="573.461,825.424 683.129,781.988 683.129,799.79 
					586.763,836.105 				"/>
				<path style="clip-path:url(#SVGID_32_);fill:#ED9685;" d="M564.362,700.341c0,0,46.848,31.802,117.343-23.739l-7.595-19.226
					L568.879,685.12L564.362,700.341z"/>
			</g>
			<g style="display:inline;">
				<defs>
					<path id="SVGID_33_" d="M550.21,621.061l-6.779,68.358c0,0,35.024,29.907,125.456-9.257c0,0-12.817-63.374-26.346-78.327
						L550.21,621.061z"/>
				</defs>
				<use xlink:href="#SVGID_33_"  style="overflow:visible;fill:#FF6D00;"/>
				<clipPath id="SVGID_34_">
					<use xlink:href="#SVGID_33_"  style="overflow:visible;"/>
				</clipPath>
				<path style="clip-path:url(#SVGID_34_);fill:none;stroke:#FFFFFF;stroke-width:4;stroke-miterlimit:10;" d="M521.752,653.579
					c0,0,48.871,40.35,152.358-4.747"/>
				<path style="clip-path:url(#SVGID_34_);fill:none;stroke:#FFFFFF;stroke-width:4;stroke-miterlimit:10;" d="M524.576,668.77
					c0,0,56.016,43.673,152.857-5.697"/>
				<path style="clip-path:url(#SVGID_34_);fill:#AA5318;" d="M529.2,640.287c0,0,44.746,38.926,139.688-11.393l-12.342-29.432
					l-123.763,28.483L529.2,640.287z"/>
			</g>
			<g style="display:inline;">
				<defs>
					<path id="XMLID_7_" d="M558.518,424.919L493.72,527.781c0,0-32.043,49.133,23.498,96.129s133.156,0,133.156,0L776.41,517.812
						l-51.981-81.176l-70.495,54.829c0,0,46.759-34.115,20.175-66.546H558.518z"/>
				</defs>
				<linearGradient id="XMLID_13_" gradientUnits="userSpaceOnUse" x1="610.1702" y1="412.8804" x2="653.6985" y2="691.0949">
					<stop  offset="0.2808" style="stop-color:#FF6D00"/>
					<stop  offset="0.4604" style="stop-color:#FF8015"/>
					<stop  offset="0.6689" style="stop-color:#FF8F26"/>
					<stop  offset="0.8227" style="stop-color:#FF952C"/>
				</linearGradient>
				<use xlink:href="#XMLID_7_"  style="overflow:visible;fill:url(#XMLID_13_);"/>
				<clipPath id="XMLID_14_">
					<use xlink:href="#XMLID_7_"  style="overflow:visible;"/>
				</clipPath>
				<path style="clip-path:url(#XMLID_14_);fill:none;stroke:#FFFFFF;stroke-width:4;stroke-miterlimit:10;" d="M627.825,427.617
					l-83.78,126.002c-6.267,9.425-7.028,21.645-1.468,31.504c6.893,12.223,26.13,32.087,63.582,3.421l121.847-96.252"/>
				<g style="clip-path:url(#XMLID_14_);">
					<path style="fill:#AA5318;" d="M658.881,487.477c-5.183,6.498-10.649,12.72-16.214,18.846
						c-2.756,3.089-5.615,6.077-8.425,9.113l-8.585,8.957l-8.739,8.807c-2.968,2.882-5.881,5.817-8.902,8.647
						c-5.985,5.715-12.073,11.332-18.444,16.67c5.18-6.501,10.644-12.725,16.21-18.85c2.755-3.09,5.617-6.075,8.425-9.113
						l8.588-8.953l8.743-8.803c2.965-2.884,5.883-5.816,8.902-8.647C646.427,498.437,652.513,492.819,658.881,487.477z"/>
				</g>
				
					<line style="clip-path:url(#XMLID_14_);fill:none;stroke:#FFFFFF;stroke-width:4;stroke-linecap:round;stroke-miterlimit:10;" x1="710.544" y1="438.772" x2="771.425" y2="532.053"/>
				
					<line style="clip-path:url(#XMLID_14_);fill:none;stroke:#FFFFFF;stroke-width:4;stroke-linecap:round;stroke-miterlimit:10;" x1="696.302" y1="444.469" x2="760.032" y2="540.598"/>
			</g>
			<path style="display:inline;fill:#4848DC;" d="M557.567,381.243l-27.393-20.704c-2.453-1.854-2.943-5.378-1.089-7.831
				l27.981-37.02c5.899-7.804,17.11-9.364,24.915-3.465l6.84,5.17c7.804,5.899,9.364,17.11,3.465,24.915l-28.807,38.113
				C562.079,382.273,559.419,382.643,557.567,381.243z"/>
			<linearGradient id="SVGID_35_" gradientUnits="userSpaceOnUse" x1="615.4909" y1="288.6176" x2="609.4825" y2="412.1881">
				<stop  offset="0.2808" style="stop-color:#4848DC"/>
				<stop  offset="0.2884" style="stop-color:#4949DC"/>
				<stop  offset="0.596" style="stop-color:#5A5AE0"/>
				<stop  offset="0.8227" style="stop-color:#6060E1"/>
			</linearGradient>
			<path style="display:inline;fill:url(#SVGID_35_);" d="M637.11,427.617H587.21c-20.35,0-37-16.65-37-37v-66.989
				c0-20.35,16.65-37,37-37h49.899c20.35,0,37,16.65,37,37v66.989C674.11,410.967,657.46,427.617,637.11,427.617z"/>
			<g style="display:inline;">
				<path style="fill:#381F1F;" d="M597.666,228.42c0,0,6.157-22.315,13.01-28.635c0,0,18.87-3.827,24.388,14.864l-12.105,30.619
					l-6.594,6.053l-14.412-11.393L597.666,228.42z"/>
				<g>
					<g>
						<defs>
							<path id="XMLID_21_" d="M588.602,290.841l7.121-22.786l23.854-13.974l-6.409,39.787
								C613.169,293.867,599.64,309.71,588.602,290.841z"/>
						</defs>
						<clipPath id="XMLID_17_">
							<use xlink:href="#XMLID_21_"  style="overflow:visible;"/>
						</clipPath>
					</g>
					<g>
						<defs>
							<path id="XMLID_20_" d="M588.602,290.841l7.121-22.786l23.854-13.974l-6.409,39.787
								C613.169,293.867,599.64,309.71,588.602,290.841z"/>
						</defs>
						<use xlink:href="#XMLID_20_"  style="overflow:visible;fill:#FFBFB0;"/>
						<clipPath id="XMLID_22_">
							<use xlink:href="#XMLID_20_"  style="overflow:visible;"/>
						</clipPath>
						<path style="clip-path:url(#XMLID_22_);fill:#FFBFB0;" d="M592.934,271.081c0,0,10.711,9.969,29.432-10.598l-2.018-8.39
							l-30.025,16.971L592.934,271.081z"/>
					</g>
					<g>
						<defs>
							<path id="XMLID_18_" d="M588.602,290.841l7.121-22.786l23.854-13.974l-6.409,39.787
								C613.169,293.867,599.64,309.71,588.602,290.841z"/>
						</defs>
						<clipPath id="XMLID_23_">
							<use xlink:href="#XMLID_18_"  style="overflow:visible;"/>
						</clipPath>
					</g>
				</g>
				<path style="fill:#FFBFB0;" d="M598.037,227.467c0,0-4.094,10.325-5.34,16.199c0,0-6.765,5.697-6.231,9.435
					c0,0,3.62,2.492,4.628,2.73c0,0-2.492,11.334,4.272,13.292c0,0,14.33,7.388,24.21-15.042c0,0,7.299,0.089,5.964-9.969
					c0,0-0.979-4.361-6.587,3.649c0,0-3.204,3.568-4.539,1.117c0,0-1.335-1.473-0.534-7.258c0,0-7.121,1.869-6.676-3.916
					c0,0-0.267-5.964,0.623-7.388C607.828,230.315,603.912,225.865,598.037,227.467z"/>
				<path style="fill:#020101;" d="M597.666,236.813c0,0,5.178-2.225,5.979,4.717c0,0-0.148,1.276-0.712,0
					c-0.564-1.276-2.374-4.747-5.267-4.094C597.666,237.436,596.731,237.406,597.666,236.813z"/>
				
					<ellipse transform="matrix(0.3419 -0.9397 0.9397 0.3419 167.0484 721.9498)" style="fill:#020101;" cx="598.972" cy="241.708" rx="1.513" ry="0.668"/>
				<path style="fill:#020101;" d="M592.638,258.916c0,0,4.45,1.78,7.18-1.424c0,0,1.758-0.519-0.142,1.632
					c0,0-2.907,2.477-7.038,0.741C592.638,259.866,591.154,258.976,592.638,258.916z"/>
				<path style="fill:none;stroke:#282828;stroke-linecap:round;stroke-miterlimit:10;" d="M619.577,250.253
					c0,0,1.513,0.534,4.005-4.539"/>
			</g>
			<g style="display:inline;">
				<defs>
					<path id="SVGID_36_" d="M676.452,419.696l-16.24,2.173c-6.856,0.917-13.216-3.941-14.133-10.797l-5.195-38.825
						c-0.917-6.856,3.941-13.216,10.797-14.133l16.24-2.173c6.856-0.917,13.216,3.941,14.133,10.797l5.195,38.825
						C688.167,412.418,683.308,418.778,676.452,419.696z"/>
				</defs>
				<use xlink:href="#SVGID_36_"  style="overflow:visible;fill:#FFBFB0;"/>
				<clipPath id="SVGID_37_">
					<use xlink:href="#SVGID_36_"  style="overflow:visible;"/>
				</clipPath>
				<path style="clip-path:url(#SVGID_37_);fill:#ED9685;" d="M641.29,382.132l53.227-8.189l-1.068-25.278l-48.777,8.545
					c0,0-11.571,9.435-11.037,9.791C634.169,367.357,641.29,382.132,641.29,382.132z"/>
			</g>
			<path style="display:inline;fill:#6060E1;" d="M682.285,365.429l-38.963,5.213c-2.857,0.382-5.508-1.643-5.89-4.5l-6.914-49.599
				c-1.843-13.772,7.918-26.548,21.69-28.391h0c13.772-1.843,26.548,7.918,28.391,21.69l6.817,48.872
				C687.851,361.971,685.542,364.993,682.285,365.429z"/>
			<path style="display:inline;fill:#FFBFB0;" d="M670.824,430.672H478.061c-4.787,0-8.703-3.916-8.703-8.703v-24.106
				c0-4.866,3.981-8.847,8.847-8.847h192.618c9.231,0,16.783,7.552,16.783,16.783v8.09
				C687.607,423.119,680.055,430.672,670.824,430.672z"/>
			<path style="display:inline;fill:#FFBFB0;" d="M476.485,420.106h-40.574c-2.549,0-4.635-2.086-4.635-4.635v-2.234
				c0-2.549,2.086-4.635,4.635-4.635h40.574c2.549,0,4.635,2.086,4.635,4.635v2.234C481.12,418.02,479.034,420.106,476.485,420.106z
				"/>
			<path style="display:inline;fill:#FFBFB0;" d="M482.478,409.541h-40.574c-2.549,0-4.635-2.086-4.635-4.635v-2.234
				c0-2.549,2.086-4.635,4.635-4.635h40.574c2.549,0,4.635,2.086,4.635,4.635v2.234
				C487.113,407.455,485.027,409.541,482.478,409.541z"/>
			<path style="display:inline;fill:#FFBFB0;" d="M485.01,430.672h-40.574c-2.549,0-4.635-2.086-4.635-4.635v-2.234
				c0-2.549,2.086-4.635,4.635-4.635h40.574c2.549,0,4.635,2.086,4.635,4.635v2.234C489.645,428.586,487.559,430.672,485.01,430.672
				z"/>
			<path style="display:inline;fill:#FFBFB0;" d="M493.614,400.521H453.04c-2.549,0-4.635-2.086-4.635-4.635v-2.234
				c0-2.549,2.086-4.635,4.635-4.635h40.574c2.549,0,4.635,2.086,4.635,4.635v2.234
				C498.249,398.435,496.163,400.521,493.614,400.521z"/>
		</g>
	</g>
	<path style="opacity:0.33;fill:#FADD97;" d="M294.226,537.686l4.94,9.032c0.434,0.794,1.087,1.447,1.881,1.881l9.032,4.94
		c3.282,1.795,3.282,6.509,0,8.304l-9.032,4.94c-0.794,0.434-1.447,1.087-1.881,1.881l-4.94,9.032c-1.795,3.282-6.509,3.282-8.304,0
		l-4.94-9.032c-0.434-0.794-1.087-1.447-1.881-1.881l-9.032-4.94c-3.282-1.795-3.282-6.509,0-8.304l9.032-4.94
		c0.794-0.434,1.447-1.087,1.881-1.881l4.94-9.032C287.717,534.404,292.431,534.404,294.226,537.686z"/>
	<path style="fill:#FADD97;" d="M293.333,541.987l3.878,7.09c0.341,0.623,0.853,1.136,1.477,1.477l7.09,3.878
		c2.577,1.409,2.577,5.11,0,6.519l-7.09,3.878c-0.623,0.341-1.136,0.853-1.477,1.477l-3.878,7.09c-1.409,2.577-5.11,2.577-6.519,0
		l-3.878-7.09c-0.341-0.623-0.853-1.136-1.477-1.477l-7.09-3.878c-2.577-1.409-2.577-5.11,0-6.519l7.09-3.878
		c0.623-0.341,1.136-0.853,1.477-1.477l3.878-7.09C288.224,539.41,291.924,539.41,293.333,541.987z"/>
	<path style="opacity:0.42;fill:#86E3EA;" d="M403.642,398.07l-5.837-4.741c-0.371-0.302-0.821-0.49-1.297-0.544l-7.473-0.843
		c-1.965-0.222-2.908-2.527-1.661-4.062l4.741-5.837c0.302-0.371,0.49-0.821,0.544-1.297l0.843-7.473
		c0.222-1.965,2.527-2.908,4.062-1.661l5.837,4.741c0.371,0.302,0.821,0.49,1.297,0.544l7.473,0.843
		c1.965,0.222,2.908,2.527,1.661,4.062l-4.741,5.837c-0.302,0.371-0.49,0.821-0.544,1.297l-0.843,7.473
		C407.483,398.374,405.177,399.317,403.642,398.07z"/>
	<path style="fill:#86E3EA;" d="M403.047,395.478l-4.693-3.812c-0.299-0.242-0.66-0.394-1.042-0.437l-6.008-0.678
		c-1.58-0.178-2.338-2.032-1.336-3.266l3.812-4.693c0.242-0.299,0.394-0.66,0.437-1.042l0.678-6.008
		c0.178-1.58,2.032-2.338,3.266-1.336l4.693,3.812c0.299,0.242,0.66,0.394,1.042,0.437l6.008,0.678
		c1.58,0.178,2.338,2.032,1.336,3.266l-3.812,4.693c-0.242,0.299-0.394,0.66-0.437,1.042l-0.678,6.008
		C406.135,395.722,404.28,396.48,403.047,395.478z"/>
	<circle style="fill:#FFFFFF;" cx="391.299" cy="204.873" r="2.561"/>
	<g>
		<circle style="fill:#FFFFFF;" cx="516.575" cy="263.777" r="1.431"/>
		<circle style="fill:#FFFFFF;" cx="718.068" cy="700.63" r="1.301"/>
		<circle style="fill:#FFFFFF;" cx="411.692" cy="653.633" r="4.52"/>
		<circle style="fill:#FFFFFF;" cx="459.588" cy="195.569" r="1.683"/>
		<circle style="opacity:0.47;fill:#FFFFFF;" cx="280.77" cy="456.486" r="1.606"/>
		<circle style="opacity:0.47;fill:#FFFFFF;" cx="740.164" cy="649.834" r="3.662"/>
		<circle style="fill:#FFFFFF;" cx="464.179" cy="734.522" r="2.167"/>
		<circle style="fill:#FFFFFF;" cx="478.196" cy="631.225" r="4.652"/>
		<circle style="fill:#FFFFFF;" cx="497.966" cy="447.182" r="1.282"/>
		<circle style="fill:#FFFFFF;" cx="236.674" cy="530.75" r="3.964"/>
		<circle style="fill:#FFFFFF;" cx="290.074" cy="640.529" r="2.958"/>
		<circle style="fill:#FFFFFF;" cx="497.966" cy="691.325" r="1.551"/>
		<circle style="fill:#FFFFFF;" cx="356.301" cy="418.982" r="2.955"/>
		<circle style="fill:#FFFFFF;" cx="497.966" cy="326.508" r="2.653"/>
		<circle style="fill:#FFFFFF;" cx="580.808" cy="214.178" r="1.099"/>
		<circle style="fill:#FFFFFF;" cx="323.498" cy="493.132" r="3.904"/>
		<circle style="opacity:0.22;fill:#FFFFFF;" cx="708.764" cy="375.537" r="4.487"/>
		<circle style="fill:#FFFFFF;" cx="332.803" cy="273.081" r="1.521"/>
		<circle style="fill:#FFFFFF;" cx="758.772" cy="738.923" r="2.234"/>
		<circle style="fill:#FFFFFF;" cx="535.184" cy="734.522" r="2.167"/>
		<circle style="fill:#FFFFFF;" cx="464.179" cy="240.892" r="3.49"/>
		<circle style="fill:#FFFFFF;" cx="694.948" cy="299.483" r="1.78"/>
		<circle style="fill:#FFFFFF;" cx="507.271" cy="176.961" r="3.394"/>
		<circle style="fill:#FFFFFF;" cx="255.282" cy="400.373" r="1.863"/>
		<circle style="fill:#FFFFFF;" cx="342.107" cy="551.092" r="1.116"/>
		<circle style="fill:#FFFFFF;" cx="372.69" cy="240.892" r="1.116"/>
		<circle style="fill:#FFFFFF;" cx="356.301" cy="505.472" r="2.955"/>
		<circle style="opacity:0.54;fill:#FFFFFF;" cx="420.996" cy="250.196" r="1.998"/>
		<circle style="fill:#FFFFFF;" cx="650.908" cy="245.169" r="2.048"/>
		<circle style="fill:#FFFFFF;" cx="330.078" cy="209.932" r="3.002"/>
		<circle style="fill:#FFFFFF;" cx="367.663" cy="329.161" r="3.625"/>
		<circle style="fill:#FFFFFF;" cx="543.93" cy="306.063" r="2.196"/>
		<circle style="fill:#FFFFFF;" cx="349.722" cy="456.486" r="1.096"/>
		<circle style="opacity:0.37;fill:#FFFFFF;" cx="232.71" cy="631.225" r="1.829"/>
		<circle style="fill:#FFFFFF;" cx="316.919" cy="691.325" r="3.066"/>
		<circle style="fill:#FFFFFF;" cx="745.843" cy="425.561" r="2.379"/>
		<circle style="fill:#FFFFFF;" cx="681.789" cy="732.846" r="2.674"/>
		<circle style="opacity:0.18;fill:#FFFFFF;" cx="525.5" cy="658.435" r="6.579"/>
		<circle style="fill:#FFFFFF;" cx="296.653" cy="412.403" r="1.059"/>
		<circle style="opacity:0.53;fill:#FFFFFF;" cx="555.999" cy="245.92" r="3.505"/>
	</g>
</g>
</svg>
