<?xml version="1.0" encoding="iso-8859-1"?>
<!-- Generator: Adobe Illustrator 23.0.2, SVG Export Plug-In . SVG Version: 6.00 Build 0)  -->
<svg version="1.1" id="&#x56FE;&#x5C42;_1" xmlns="http://www.w3.org/2000/svg" xmlns:xlink="http://www.w3.org/1999/xlink" x="0px"
	 y="0px" viewBox="0 0 1000 1000" style="enable-background:new 0 0 1000 1000;" xml:space="preserve">
<g>
	<defs>
		<path id="XMLID_18_" d="M195.906,518.153c0,0-40.465-56.406,0-142.241c0,0-55.18-63.763-23.298-114.038
			s148.279-151.707,361.733-52.727c0,0,95.645,55.18,148.372,100.549s67.442-20.846,74.799-33.108c0,0,79.704,20.846,23.298,84.609
			c0,0-40.465,30.655-96.871,0c0,0,30.564,80.93,117.058,55.18c0,0,20.278,36.786-72.914,58.858c0,0,89.473,55.18,74.779,94.418
			c0,0-61.29-18.393-74.779,0c0,0,38.013,12.262,53.953,45.37c0,0-14.715,34.334-28.203,67.442c0,0-17.167-53.953-60.084-56.406
			c0,0-26.977-2.452-24.524,7.357c0,0,49.048,33.108,44.144,53.953c0,0-45.37,41.691-145.919,11.036
			c0,0-6.131,141.014,42.917,212.135H388.421c0,0,64.989-212.135-35.56-180.253s-82.156,34.334-104.228,17.167
			c-22.072-17.167-33.108-92.318-47.822-132.431c0,0-53.953,3.679-53.953-9.81S195.906,518.153,195.906,518.153z"/>
	</defs>
	<linearGradient id="XMLID_2_" gradientUnits="userSpaceOnUse" x1="475.8706" y1="616.2743" x2="473.0099" y2="129.649">
		<stop  offset="0" style="stop-color:#FFCDD6"/>
		<stop  offset="0.3975" style="stop-color:#6D8DAF"/>
		<stop  offset="1" style="stop-color:#253A59"/>
	</linearGradient>
	<use xlink:href="#XMLID_18_"  style="overflow:visible;fill:url(#XMLID_2_);"/>
	<clipPath id="XMLID_3_">
		<use xlink:href="#XMLID_18_"  style="overflow:visible;"/>
	</clipPath>
	<g style="clip-path:url(#XMLID_3_);">
		<defs>
			<polygon id="XMLID_54_" points="310.309,600.344 441.685,600.344 500.431,546.939 582.674,640.932 533.542,732.789 
				322.763,719.897 			"/>
		</defs>
		<linearGradient id="XMLID_4_" gradientUnits="userSpaceOnUse" x1="449.8146" y1="583.4114" x2="435.4871" y2="743.9322">
			<stop  offset="0.3464" style="stop-color:#E7A9B6"/>
			<stop  offset="0.3968" style="stop-color:#DFA7B5"/>
			<stop  offset="0.5606" style="stop-color:#CBA2B3"/>
			<stop  offset="0.7244" style="stop-color:#BF9FB2"/>
			<stop  offset="0.887" style="stop-color:#BB9EB2"/>
		</linearGradient>
		<use xlink:href="#XMLID_54_"  style="overflow:visible;fill:url(#XMLID_4_);"/>
		<clipPath id="XMLID_5_">
			<use xlink:href="#XMLID_54_"  style="overflow:visible;"/>
		</clipPath>
		<linearGradient id="SVGID_1_" gradientUnits="userSpaceOnUse" x1="503.043" y1="536.8331" x2="496.1307" y2="614.2761">
			<stop  offset="0" style="stop-color:#E7A9B6"/>
			<stop  offset="0.2045" style="stop-color:#F0C2CC"/>
			<stop  offset="0.4326" style="stop-color:#F7D6DE"/>
			<stop  offset="0.6606" style="stop-color:#FCE2E8"/>
			<stop  offset="0.887" style="stop-color:#FDE6EC"/>
		</linearGradient>
		<polygon style="clip-path:url(#XMLID_5_);fill:url(#SVGID_1_);" points="446.492,563.154 468.388,594.128 481.205,591.992 
			489.75,603.741 501.499,608.014 513.248,586.993 552.768,586.993 492.954,516.157 		"/>
	</g>
	<g style="clip-path:url(#XMLID_3_);">
		<defs>
			<polygon id="XMLID_55_" points="673.943,579.971 731.62,506.886 830.251,657.035 			"/>
		</defs>
		<linearGradient id="XMLID_6_" gradientUnits="userSpaceOnUse" x1="757.1794" y1="559.6225" x2="737.6806" y2="785.517">
			<stop  offset="0" style="stop-color:#E7A9B6"/>
			<stop  offset="0.0827" style="stop-color:#DFA7B5"/>
			<stop  offset="0.3515" style="stop-color:#CBA2B3"/>
			<stop  offset="0.6202" style="stop-color:#BF9FB2"/>
			<stop  offset="0.887" style="stop-color:#BB9EB2"/>
		</linearGradient>
		<use xlink:href="#XMLID_55_"  style="overflow:visible;fill:url(#XMLID_6_);"/>
		<clipPath id="XMLID_7_">
			<use xlink:href="#XMLID_55_"  style="overflow:visible;"/>
		</clipPath>
		<linearGradient id="SVGID_2_" gradientUnits="userSpaceOnUse" x1="735.5176" y1="499.1807" x2="725.1649" y2="619.1182">
			<stop  offset="0" style="stop-color:#E7A9B6"/>
			<stop  offset="0.2045" style="stop-color:#F0C2CC"/>
			<stop  offset="0.4326" style="stop-color:#F7D6DE"/>
			<stop  offset="0.6606" style="stop-color:#FCE2E8"/>
			<stop  offset="0.887" style="stop-color:#FDE6EC"/>
		</linearGradient>
		<polygon style="clip-path:url(#XMLID_7_);fill:url(#SVGID_2_);" points="695.305,531.645 728.416,546.939 743.369,546.939 
			771.14,519.896 729.484,471.831 		"/>
	</g>
	<g style="clip-path:url(#XMLID_3_);">
		<defs>
			<polygon id="XMLID_28_" points="390.534,727.659 446.006,664.535 528.259,727.659 575.011,892.165 361.841,892.165 			"/>
		</defs>
		<linearGradient id="XMLID_8_" gradientUnits="userSpaceOnUse" x1="467.8975" y1="802.2943" x2="467.0201" y2="653.0363">
			<stop  offset="0" style="stop-color:#FFCDD6"/>
			<stop  offset="0.6486" style="stop-color:#3B4A56"/>
		</linearGradient>
		<use xlink:href="#XMLID_28_"  style="overflow:visible;fill:url(#XMLID_8_);"/>
		<clipPath id="XMLID_9_">
			<use xlink:href="#XMLID_28_"  style="overflow:visible;"/>
		</clipPath>
		<linearGradient id="SVGID_3_" gradientUnits="userSpaceOnUse" x1="459.32" y1="718.8841" x2="465.2173" y2="616.6317">
			<stop  offset="0" style="stop-color:#E6FAFF"/>
			<stop  offset="0.7014" style="stop-color:#F3C6D3"/>
		</linearGradient>
		<polygon style="clip-path:url(#XMLID_9_);fill:url(#SVGID_3_);" points="375.241,622.144 454.37,726.887 554.681,620.008 		"/>
	</g>
	<g style="clip-path:url(#XMLID_3_);">
		<defs>
			<polygon id="XMLID_40_" points="107.431,714.269 258.547,505.554 539.736,892.165 197.59,850.082 			"/>
		</defs>
		<linearGradient id="XMLID_10_" gradientUnits="userSpaceOnUse" x1="323.7108" y1="824.8422" x2="322.2191" y2="571.1006">
			<stop  offset="0" style="stop-color:#FFCDD6"/>
			<stop  offset="0.0834" style="stop-color:#CCABB5"/>
			<stop  offset="0.1686" style="stop-color:#A08E98"/>
			<stop  offset="0.2548" style="stop-color:#7C7580"/>
			<stop  offset="0.3407" style="stop-color:#5F626E"/>
			<stop  offset="0.4264" style="stop-color:#4B5561"/>
			<stop  offset="0.5118" style="stop-color:#3F4D59"/>
			<stop  offset="0.5965" style="stop-color:#3B4A56"/>
		</linearGradient>
		<use xlink:href="#XMLID_40_"  style="overflow:visible;fill:url(#XMLID_10_);"/>
		<clipPath id="XMLID_11_">
			<use xlink:href="#XMLID_40_"  style="overflow:visible;"/>
		</clipPath>
		<linearGradient id="SVGID_4_" gradientUnits="userSpaceOnUse" x1="240.634" y1="636.3158" x2="246.0242" y2="455.6764">
			<stop  offset="0" style="stop-color:#E6FAFF"/>
			<stop  offset="0.7014" style="stop-color:#F3C6D3"/>
		</linearGradient>
		<polygon style="clip-path:url(#XMLID_11_);fill:url(#SVGID_4_);" points="92.55,602.918 230.691,575.375 259.174,631.401 
			279.112,594.373 329.698,662.732 334.267,634.249 389.571,641.113 273.415,462.878 		"/>
	</g>
	<g style="clip-path:url(#XMLID_3_);">
		<defs>
			<polygon id="XMLID_41_" points="495.74,735.311 662.159,505.554 920.394,769.742 667.897,949.55 346.538,949.55 			"/>
		</defs>
		<linearGradient id="XMLID_12_" gradientUnits="userSpaceOnUse" x1="633.8513" y1="925.2321" x2="631.6611" y2="552.6646">
			<stop  offset="0" style="stop-color:#FFCDD6"/>
			<stop  offset="0.0834" style="stop-color:#CCABB5"/>
			<stop  offset="0.1686" style="stop-color:#A08E98"/>
			<stop  offset="0.2548" style="stop-color:#7C7580"/>
			<stop  offset="0.3407" style="stop-color:#5F626E"/>
			<stop  offset="0.4264" style="stop-color:#4B5561"/>
			<stop  offset="0.5118" style="stop-color:#3F4D59"/>
			<stop  offset="0.5965" style="stop-color:#3B4A56"/>
		</linearGradient>
		<use xlink:href="#XMLID_41_"  style="overflow:visible;fill:url(#XMLID_12_);"/>
		<clipPath id="XMLID_13_">
			<use xlink:href="#XMLID_41_"  style="overflow:visible;"/>
		</clipPath>
		<linearGradient id="SVGID_5_" gradientUnits="userSpaceOnUse" x1="660.5321" y1="612.9142" x2="659.8223" y2="492.1754">
			<stop  offset="0" style="stop-color:#E6FAFF"/>
			<stop  offset="0.7014" style="stop-color:#F3C6D3"/>
		</linearGradient>
		<polygon style="clip-path:url(#XMLID_13_);fill:url(#SVGID_5_);" points="533.319,598.646 625.176,594.373 637.993,647.778 
			659.355,590.101 676.445,585.828 699.943,609.327 702.079,575.375 787.527,590.101 663.627,462.878 		"/>
	</g>
	
		<linearGradient id="SVGID_6_" gradientUnits="userSpaceOnUse" x1="1742.5769" y1="441.008" x2="1794.1698" y2="547.6545" gradientTransform="matrix(-1 0 0 1 2037.8346 0)">
		<stop  offset="0" style="stop-color:#FFFAE6;stop-opacity:0.7"/>
		<stop  offset="0.3209" style="stop-color:#FFFCEF;stop-opacity:0.4696"/>
		<stop  offset="0.9749" style="stop-color:#FFFFFF;stop-opacity:0"/>
	</linearGradient>
	<path style="clip-path:url(#XMLID_3_);fill:url(#SVGID_6_);" d="M145.772,393.207c29.394,0,53.222,23.828,53.222,53.222
		c0,2.198-0.149,4.361-0.408,6.489c3.499-0.864,7.155-1.331,10.921-1.331c9.881,0,19.017,3.167,26.47,8.528
		c9.336-4.9,19.956-7.687,31.232-7.687c24.842,0,46.526,13.467,58.19,33.489c4.783-3.524,10.69-5.61,17.086-5.61
		c12.556,0,23.233,8.027,27.192,19.228c3.395-0.613,6.887-0.951,10.459-0.951c32.297,0,58.478,26.182,58.478,58.478
		c0,32.297-26.182,58.479-58.478,58.479c-31.57,0-57.282-25.021-58.424-56.311c-12.234,16.857-32.082,27.829-54.503,27.829
		c-29.378,0-54.345-18.827-63.534-45.068c-22.314-2.864-39.562-21.916-39.562-45.008c0-0.195,0.012-0.387,0.015-0.581
		c-5.722,2.102-11.904,3.251-18.355,3.251c-29.394,0-53.222-23.828-53.222-53.222C92.55,417.035,116.379,393.207,145.772,393.207z"
		/>
	
		<linearGradient id="SVGID_7_" gradientUnits="userSpaceOnUse" x1="1277.152" y1="-386.4847" x2="1276.4617" y2="-229.5686" gradientTransform="matrix(-0.9033 0.4291 0.4291 0.9033 1899.3772 43.7274)">
		<stop  offset="0" style="stop-color:#FFFAE6;stop-opacity:0.7"/>
		<stop  offset="0.3209" style="stop-color:#FFFCEF;stop-opacity:0.4696"/>
		<stop  offset="0.9749" style="stop-color:#FFFFFF;stop-opacity:0"/>
	</linearGradient>
	<path style="clip-path:url(#XMLID_3_);fill:url(#SVGID_7_);" d="M535.341,380.472c9.865-4.686,20.785-4.49,30.049-0.4
		c3.287-15.137,13.293-28.642,28.366-35.803c8.343-3.963,17.211-5.485,25.811-4.876c2.859-11.291,10.542-21.27,21.884-26.658
		c3.412-1.621,6.937-2.711,10.486-3.325c2.702-17.334,13.646-33.075,30.687-41.17c27.379-13.006,60.117-1.354,73.122,26.025
		c13.006,27.379,1.354,60.116-26.025,73.122c-11.928,5.666-24.873,6.649-36.76,3.693c-3.949,6.205-9.627,11.415-16.762,14.804
		c-2.78,1.321-5.636,2.284-8.518,2.933c0.846,20.126-10.17,39.758-29.513,48.946c-18.998,9.024-40.722,5.447-55.766-7.353
		c-3.519,6.413-9.007,11.822-16.119,15.2c-17.988,8.545-39.497,0.889-48.042-17.099S517.353,389.016,535.341,380.472z"/>
	
		<linearGradient id="SVGID_8_" gradientUnits="userSpaceOnUse" x1="1708.9547" y1="358.5402" x2="1762.6028" y2="521.0202" gradientTransform="matrix(-1 0 0 1 2037.8346 0)">
		<stop  offset="0" style="stop-color:#FFFAE6;stop-opacity:0.7"/>
		<stop  offset="0.1586" style="stop-color:#FFFCEF;stop-opacity:0.4696"/>
		<stop  offset="0.4818" style="stop-color:#FFFFFF;stop-opacity:0"/>
	</linearGradient>
	<path style="clip-path:url(#XMLID_3_);fill:url(#SVGID_8_);" d="M216.892,356.951c19.964,0,36.995,12.518,43.697,30.13
		c4.241-2.356,9.119-3.702,14.314-3.702c8.446,0,16.057,3.552,21.438,9.237c6.79-4.325,14.844-6.841,23.491-6.841
		c12.294,0,23.397,5.072,31.352,13.229c9.718-7.539,21.918-12.029,35.169-12.029c31.718,0,57.431,25.713,57.431,57.431
		c0,31.718-25.713,57.431-57.431,57.431c-22.291,0-41.615-12.699-51.133-31.257c-4.788,1.798-9.971,2.787-15.388,2.787
		c-19.769,0-36.473-13.101-41.918-31.093c-0.99,0.1-1.995,0.152-3.011,0.152c-8.533,0-16.215-3.624-21.605-9.412
		c-8.569,10.629-21.69,17.435-36.406,17.435c-25.819,0-46.749-20.93-46.749-46.749C170.142,377.882,191.073,356.951,216.892,356.951
		z"/>
	
		<linearGradient id="SVGID_9_" gradientUnits="userSpaceOnUse" x1="1457.6002" y1="405.8765" x2="1381.9292" y2="499.1541" gradientTransform="matrix(-1 0 0 1 2037.8346 0)">
		<stop  offset="0.4017" style="stop-color:#FFFAE6;stop-opacity:0.7"/>
		<stop  offset="0.5986" style="stop-color:#FFFCEF;stop-opacity:0.4696"/>
		<stop  offset="1" style="stop-color:#FFFFFF;stop-opacity:0"/>
	</linearGradient>
	<path style="clip-path:url(#XMLID_3_);fill:url(#SVGID_9_);" d="M615.988,463.568c4.003,0,7.925,0.37,11.738,1.073
		c8.017-35.491,38.148-61.877,74.1-61.877c42.082,0,76.195,36.148,76.195,80.739c0,44.591-34.114,80.739-76.195,80.739
		c-7.704,0-15.14-1.216-22.15-3.47c-9.638,27.351-34.515,46.829-63.688,46.829c-37.536,0-67.964-32.243-67.964-72.017
		S578.453,463.568,615.988,463.568z"/>
	<radialGradient id="SVGID_10_" cx="363.5223" cy="368.1141" r="112.1515" gradientUnits="userSpaceOnUse">
		<stop  offset="0" style="stop-color:#FFFFFF"/>
		<stop  offset="1" style="stop-color:#FFFFFF;stop-opacity:0"/>
	</radialGradient>
	<circle style="clip-path:url(#XMLID_3_);fill:url(#SVGID_10_);" cx="363.522" cy="368.114" r="112.152"/>
	<circle style="clip-path:url(#XMLID_3_);fill:#FFFFFF;" cx="363.522" cy="368.114" r="90.848"/>
	<circle style="clip-path:url(#XMLID_3_);fill:#EFF0E2;" cx="298.723" cy="361.528" r="18.158"/>
	<circle style="clip-path:url(#XMLID_3_);fill:#EFF0E2;" cx="337.649" cy="378.825" r="10.889"/>
	<circle style="clip-path:url(#XMLID_3_);fill:#EFF0E2;" cx="340.202" cy="422.201" r="13.677"/>
	
		<linearGradient id="SVGID_11_" gradientUnits="userSpaceOnUse" x1="751.922" y1="759.4001" x2="751.922" y2="639.8343" gradientTransform="matrix(0.5526 0.8334 -0.8334 0.5526 704.0733 -795.8789)">
		<stop  offset="0" style="stop-color:#FFC5D3"/>
		<stop  offset="1" style="stop-color:#FFFFFF;stop-opacity:0"/>
	</linearGradient>
	<path style="clip-path:url(#XMLID_3_);fill:url(#SVGID_11_);" d="M464.694,265.057L464.694,265.057
		c-1.299-1.958-0.759-4.623,1.2-5.922l136.708-87.231c1.958-1.299,3.729,1.372,1.771,2.671l-133.757,91.682
		C468.658,267.555,465.993,267.015,464.694,265.057z"/>
	
		<linearGradient id="SVGID_12_" gradientUnits="userSpaceOnUse" x1="626.8152" y1="975.358" x2="626.8152" y2="901.6899" gradientTransform="matrix(0.5526 0.8334 -0.8334 0.5526 704.0733 -795.8789)">
		<stop  offset="0" style="stop-color:#FFC5D3"/>
		<stop  offset="1" style="stop-color:#FFFFFF;stop-opacity:0"/>
	</linearGradient>
	<path style="clip-path:url(#XMLID_3_);fill:url(#SVGID_12_);" d="M224.021,274.532L224.021,274.532
		c-0.8-1.207-0.467-2.849,0.739-3.649l84.23-53.746c1.207-0.8,2.298,0.845,1.091,1.645l-82.411,56.488
		C226.463,276.071,224.821,275.738,224.021,274.532z"/>
	
		<linearGradient id="SVGID_13_" gradientUnits="userSpaceOnUse" x1="847.0363" y1="943.5185" x2="847.0363" y2="861.0972" gradientTransform="matrix(0.4328 0.6527 -0.5438 0.3606 802.3822 -554.7216)">
		<stop  offset="0" style="stop-color:#FFC5D3"/>
		<stop  offset="1" style="stop-color:#FFFFFF;stop-opacity:0"/>
	</linearGradient>
	<path style="clip-path:url(#XMLID_3_);fill:url(#SVGID_13_);" d="M646.016,344.945L646.016,344.945
		c-0.701-1.057-0.554-2.4,0.327-2.984l61.63-39.021c0.881-0.584,1.837,0.858,0.956,1.442l-60.037,41.424
		C648.011,346.389,646.717,346.002,646.016,344.945z"/>
	
		<linearGradient id="SVGID_14_" gradientUnits="userSpaceOnUse" x1="920.4477" y1="997.7446" x2="920.4477" y2="802.566" gradientTransform="matrix(0.5526 0.8334 -0.8334 0.5526 704.0733 -795.8789)">
		<stop  offset="0" style="stop-color:#FFC5D3"/>
		<stop  offset="1" style="stop-color:#FFFFFF;stop-opacity:0"/>
	</linearGradient>
	<path style="clip-path:url(#XMLID_3_);fill:url(#SVGID_14_);" d="M345.264,546.457L345.264,546.457
		c-2.12-3.197-1.239-7.547,1.958-9.667l223.161-142.396c3.197-2.12,6.088,2.24,2.891,4.359L354.931,548.416
		C351.734,550.535,347.384,549.654,345.264,546.457z"/>
	<g style="clip-path:url(#XMLID_3_);">
		<circle style="fill:#FFFFFF;" cx="354.55" cy="215.007" r="1.411"/>
		<circle style="fill:#FFFFFF;" cx="574.665" cy="574.601" r="2.301"/>
		<circle style="fill:#FFFFFF;" cx="375.431" cy="574.601" r="2.301"/>
		<circle style="opacity:0.46;fill:#FFFFFF;" cx="223.585" cy="497.633" r="2.864"/>
		<circle style="fill:#FFFFFF;" cx="771.936" cy="541.049" r="2.139"/>
		<circle style="fill:#FFFFFF;" cx="511.599" cy="408.524" r="1.009"/>
		<circle style="fill:#FFFFFF;" cx="292.973" cy="266.964" r="2.219"/>
		<circle style="fill:#FFFFFF;" cx="272.675" cy="198.87" r="1.641"/>
		<circle style="fill:#FFFFFF;" cx="418.636" cy="256.523" r="0.561"/>
		<circle style="opacity:0.47;fill:#FFFFFF;" cx="433.488" cy="204.566" r="3.072"/>
		<circle style="fill:#FFFFFF;" cx="740.614" cy="432.642" r="1.963"/>
		<circle style="fill:#FFFFFF;" cx="454.37" cy="541.049" r="1.063"/>
		<circle style="fill:#FFFFFF;" cx="475.674" cy="361.528" r="1.527"/>
		<circle style="fill:#FFFFFF;" cx="761.496" cy="324.44" r="0.416"/>
		<circle style="fill:#FFFFFF;" cx="600.61" cy="297.442" r="1.424"/>
		<circle style="fill:#FFFFFF;" cx="558.126" cy="508.074" r="1.235"/>
		<circle style="fill:#FFFFFF;" cx="334.267" cy="497.633" r="0.86"/>
		<circle style="fill:#FFFFFF;" cx="227.843" cy="422.201" r="1.394"/>
		<circle style="opacity:0.38;fill:#FFFFFF;" cx="615.665" cy="446.319" r="3.236"/>
		<circle style="fill:#FFFFFF;" cx="511.599" cy="266.964" r="2.219"/>
		<circle style="opacity:0.64;fill:#FFFFFF;" cx="585.106" cy="361.528" r="2.589"/>
		<circle style="fill:#FFFFFF;" cx="234.026" cy="313.999" r="2.599"/>
	</g>
</g>
</svg>
