<?xml version="1.0" encoding="iso-8859-1"?>
<!-- Generator: Adobe Illustrator 23.0.2, SVG Export Plug-In . SVG Version: 6.00 Build 0)  -->
<svg version="1.1" id="&#x56FE;&#x5C42;_1" xmlns="http://www.w3.org/2000/svg" xmlns:xlink="http://www.w3.org/1999/xlink" x="0px"
	 y="0px" viewBox="0 0 1000 1000" style="enable-background:new 0 0 1000 1000;" xml:space="preserve">
<g>
	<defs>
		<path id="XMLID_67_" d="M244.091,552.606c0,0,41.3-54.829,4.984-91.857c0,0-68.358-12.817-56.965-98.265
			c11.393-85.448,76.903-227.861,254.208-228.573s211.733,147.398,218.017,178.017c6.284,30.619,11.98,53.405,11.98,66.222
			c0,0,45.572,54.829,44.86,69.07c-0.712,14.241-9.257,33.467-14.953,46.284c0,0,16.394,29.195,14.962,49.845
			c0,0,0.704,16.378-4.993,24.21c0,0,7.833,18.514-11.393,35.603c0,0,10.163,72.631,16.474,102.537
			c6.312,29.907-9.354,68.358-8.642,82.6H397.897c0,0,18.514-98.977,51.269-122.475c0,0-9.969-68.358-41.3-37.74
			s-42.724,32.043-54.829,35.603c-12.105,3.56-7.121-13.529-15.665-27.058c-8.545-13.529-20.65-16.378-26.346-19.938
			c-5.697-3.56-11.393-35.603-24.21-39.876C273.998,572.544,240.531,572.544,244.091,552.606z"/>
	</defs>
	<linearGradient id="XMLID_2_" gradientUnits="userSpaceOnUse" x1="456.802" y1="788.3" x2="456.802" y2="133.9088">
		<stop  offset="0" style="stop-color:#FFCDB5"/>
		<stop  offset="0.4388" style="stop-color:#D2ADB1"/>
		<stop  offset="0.7974" style="stop-color:#B498AF"/>
		<stop  offset="1" style="stop-color:#A990AE"/>
	</linearGradient>
	<use xlink:href="#XMLID_67_"  style="overflow:visible;fill:url(#XMLID_2_);"/>
	<clipPath id="XMLID_3_">
		<use xlink:href="#XMLID_67_"  style="overflow:visible;"/>
	</clipPath>
	<radialGradient id="SVGID_1_" cx="467.4088" cy="464.5869" r="183.0234" gradientUnits="userSpaceOnUse">
		<stop  offset="0" style="stop-color:#FFFFFF"/>
		<stop  offset="0.947" style="stop-color:#FFFFFF;stop-opacity:0.053"/>
		<stop  offset="1" style="stop-color:#FFFFFF;stop-opacity:0"/>
	</radialGradient>
	<circle style="clip-path:url(#XMLID_3_);fill:url(#SVGID_1_);" cx="467.409" cy="464.587" r="183.023"/>
	<g style="clip-path:url(#XMLID_3_);">
		<defs>
			<circle id="XMLID_73_" cx="467.409" cy="464.587" r="151.67"/>
		</defs>
		<use xlink:href="#XMLID_73_"  style="overflow:visible;fill:#FFFFFF;"/>
		<clipPath id="XMLID_4_">
			<use xlink:href="#XMLID_73_"  style="overflow:visible;"/>
		</clipPath>
		<circle style="clip-path:url(#XMLID_4_);fill:#EFF0E2;" cx="369.072" cy="422.896" r="22.417"/>
		<circle style="clip-path:url(#XMLID_4_);fill:#EFF0E2;" cx="418.458" cy="392.201" r="9.88"/>
		<circle style="clip-path:url(#XMLID_4_);fill:#EFF0E2;" cx="405.295" cy="477.205" r="28.918"/>
	</g>
	<g style="clip-path:url(#XMLID_3_);">
		<linearGradient id="SVGID_2_" gradientUnits="userSpaceOnUse" x1="500.7923" y1="601.4805" x2="500.7923" y2="439.295">
			<stop  offset="0.64" style="stop-color:#F8B485"/>
			<stop  offset="0.8558" style="stop-color:#F09B6D"/>
			<stop  offset="1" style="stop-color:#ED9062"/>
		</linearGradient>
		<path style="fill:url(#SVGID_2_);" d="M174.488,521.823c0,0,6.409-68.808,88.652-77.353
			c82.244-8.545,105.742,97.197,159.147,91.857c53.405-5.341,89.72-5.341,178.372-68.358s190.122-6.704,236.05,22.282v111.23
			l-671.834-23.498L174.488,521.823z"/>
		<linearGradient id="SVGID_3_" gradientUnits="userSpaceOnUse" x1="516.4014" y1="654.6023" x2="516.4014" y2="465.6266">
			<stop  offset="0.5761" style="stop-color:#D3868B"/>
			<stop  offset="0.6666" style="stop-color:#D18188"/>
			<stop  offset="0.7694" style="stop-color:#C97480"/>
			<stop  offset="0.8252" style="stop-color:#C46979"/>
		</linearGradient>
		<path style="fill:url(#SVGID_3_);" d="M174.488,515.749c0,0,42.724-25.634,123.899-11.749s71.563,13.115,107.878-4.123
			s58.745,6.26,122.831,15.873c64.086,9.613,67.29-23.498,107.878-36.315c40.588-12.817,108.946-33.623,195.462,29.651
			l25.878,135.904l-683.827,9.613V515.749z"/>
		<linearGradient id="SVGID_4_" gradientUnits="userSpaceOnUse" x1="513.6094" y1="668.0228" x2="513.6094" y2="464.0158">
			<stop  offset="0" style="stop-color:#945B72"/>
			<stop  offset="0.3317" style="stop-color:#764E68"/>
			<stop  offset="0.6297" style="stop-color:#634561"/>
			<stop  offset="0.8342" style="stop-color:#5C425F"/>
		</linearGradient>
		<path style="fill:url(#SVGID_4_);" d="M179.829,464.016c0,0,60.882,99.333,140.989,80.107s130.308-23.899,187.985,2.47
			c57.677,26.369,79.039,22.764,129.24,0c50.201-22.764,128.172-28.104,202.939,10.347l6.409,111.082l-631.197-4.272
			L179.829,464.016z"/>
		<linearGradient id="SVGID_5_" gradientUnits="userSpaceOnUse" x1="538.7098" y1="714.7074" x2="538.7098" y2="491.233">
			<stop  offset="0" style="stop-color:#8D5B6F"/>
			<stop  offset="0.2444" style="stop-color:#724D65"/>
			<stop  offset="0.486" style="stop-color:#5F435F"/>
			<stop  offset="0.6518" style="stop-color:#583F5C"/>
		</linearGradient>
		<path style="fill:url(#SVGID_5_);" d="M230.029,659.166c0,0,50.913-118.203,105.208-130.842
			c54.295-12.639,72.097,0.534,96.663,20.828s85.092,58.745,137.785,63.73s106.098-59.814,133.868-81.888
			c27.771-22.074,64.798-72.939,111.082-7.631l32.755,191.344l-593.863-3.56L230.029,659.166z"/>
		<path style="fill:#4E3754;" d="M199.054,681.908c0,0,64.086-139.921,195.462-84.38c131.376,55.541,133.512,51.051,152.738,35.672
			s64.086-52.98,130.308,0s61.95,16.665,79.039,8.12c17.09-8.545,38.452-10.681,55.541,8.545
			c17.09,19.226,75.835,50.201,87.584,106.81L557.936,872.03l-369.562-48.064L199.054,681.908z"/>
	</g>
	<path style="clip-path:url(#XMLID_3_);fill:#44353E;" d="M489.279,352.295c0,0,17.564-32.755,60.051-2.611
		c0,0,26.821-30.144,58.864,2.611c0,0-33.704-15.665-53.405,10.444h-9.732C545.058,362.739,522.984,334.494,489.279,352.295z"/>
	<path style="clip-path:url(#XMLID_3_);fill:#44353E;" d="M554.315,392.204c0,0,4.242-7.911,14.503-0.631
		c0,0,6.478-7.28,14.217,0.631c0,0-8.14-3.783-12.898,2.522h-2.35C567.786,394.727,562.455,387.905,554.315,392.204z"/>
	<path style="clip-path:url(#XMLID_3_);fill:#44353E;" d="M581.58,375.019c0,0,9.969-18.591,34.083-1.482
		c0,0,15.223-17.109,33.409,1.482c0,0-19.13-8.891-30.311,5.927h-5.523C613.238,380.947,600.71,364.916,581.58,375.019z"/>
	<g style="clip-path:url(#XMLID_3_);">
		<circle style="fill:#FFFFFF;" cx="318.324" cy="191.665" r="1.127"/>
		<circle style="fill:#FFFFFF;" cx="371.736" cy="167.989" r="2.136"/>
		<circle style="fill:#FFFFFF;" cx="482.099" cy="212.893" r="1.127"/>
		<circle style="fill:#FFFFFF;" cx="424.574" cy="154.104" r="0.844"/>
		<circle style="fill:#FFFFFF;" cx="399.506" cy="222.818" r="0.705"/>
		<circle style="opacity:0.46;fill:#FFFFFF;" cx="228.257" cy="407.955" r="1.305"/>
		<circle style="opacity:0.56;fill:#FFFFFF;" cx="304.439" cy="344.937" r="1.75"/>
		<circle style="opacity:0.49;fill:#FFFFFF;" cx="599.056" cy="226.778" r="1.268"/>
		<circle style="opacity:0.39;fill:#FFFFFF;" cx="340.22" cy="236.703" r="2.077"/>
		<circle style="fill:#FFFFFF;" cx="557.578" cy="288.684" r="0.712"/>
		<circle style="opacity:0.6;fill:#FFFFFF;" cx="662.964" cy="407.955" r="1.78"/>
		<circle style="fill:#FFFFFF;" cx="283.077" cy="260.914" r="1.068"/>
		<circle style="opacity:0.44;fill:#FFFFFF;" cx="417.631" cy="191.665" r="1.853"/>
		<circle style="fill:#FFFFFF;" cx="385.621" cy="267.856" r="0.816"/>
		<circle style="fill:#FFFFFF;" cx="276.134" cy="394.07" r="0.712"/>
		<circle style="fill:#FFFFFF;" cx="534.97" cy="219.835" r="1.045"/>
		<circle style="opacity:0.49;fill:#FFFFFF;" cx="605.999" cy="274.799" r="2.047"/>
		<circle style="fill:#FFFFFF;" cx="521.085" cy="171.193" r="0.712"/>
		<circle style="fill:#FFFFFF;" cx="456.802" cy="255.039" r="0.662"/>
		<circle style="fill:#FFFFFF;" cx="318.324" cy="288.684" r="2.937"/>
		<circle style="fill:#FFFFFF;" cx="244.981" cy="341.199" r="1.483"/>
	</g>
	
		<linearGradient id="SVGID_6_" gradientUnits="userSpaceOnUse" x1="-793.6274" y1="554.2462" x2="-793.6274" y2="455.5598" gradientTransform="matrix(0.7071 0.7071 -0.7071 0.7071 1247.0066 440.6955)">
		<stop  offset="0" style="stop-color:#FFFFFF"/>
		<stop  offset="0.7995" style="stop-color:#FFFFFF;stop-opacity:0.053"/>
		<stop  offset="0.8442" style="stop-color:#FFFFFF;stop-opacity:0"/>
	</linearGradient>
	<path style="clip-path:url(#XMLID_3_);fill:url(#SVGID_6_);" d="M293.937,271.448L293.937,271.448
		c-1.292-1.292-0.6-2.715,0.692-4.007l67.218-65.708c1.292-1.292,3.055,0.47,1.762,1.762l-65.708,67.218
		C296.61,272.006,295.229,272.741,293.937,271.448z"/>
	
		<linearGradient id="SVGID_7_" gradientUnits="userSpaceOnUse" x1="-640.2944" y1="350.8196" x2="-640.2944" y2="252.1332" gradientTransform="matrix(0.7071 0.7071 -0.7071 0.7071 1247.0066 440.6955)">
		<stop  offset="0" style="stop-color:#FFFFFF"/>
		<stop  offset="0.7995" style="stop-color:#FFFFFF;stop-opacity:0.053"/>
		<stop  offset="0.8442" style="stop-color:#FFFFFF;stop-opacity:0"/>
	</linearGradient>
	<path style="clip-path:url(#XMLID_3_);fill:url(#SVGID_7_);" d="M546.204,236.027L546.204,236.027
		c-1.292-1.292-0.6-2.715,0.692-4.007l67.218-65.708c1.292-1.292,3.055,0.47,1.762,1.762l-65.708,67.218
		C548.877,236.585,547.496,237.319,546.204,236.027z"/>
</g>
</svg>
