<?xml version="1.0" encoding="iso-8859-1"?>
<!-- Generator: Adobe Illustrator 23.0.2, SVG Export Plug-In . SVG Version: 6.00 Build 0)  -->
<svg version="1.1" id="&#x56FE;&#x5C42;_1" xmlns="http://www.w3.org/2000/svg" xmlns:xlink="http://www.w3.org/1999/xlink" x="0px"
	 y="0px" viewBox="0 0 1000 1000" style="enable-background:new 0 0 1000 1000;" xml:space="preserve">
<g>
	<defs>
		<path id="XMLID_38_" d="M95.447,566.255c0,0,56.609-33.841,64.086-100.063c0,0-19.226-227.505,137.785-259.548
			s246.731-38.452,326.838,37.383c0,0,45.928,55.541,60.882,107.878s32.043,72.631,48.064,86.516s27.771,67.29,25.634,103.606
			c-2.136,36.315,35.247,98.265,59.814,112.15c24.566,13.885,42.724,63.018,44.86,79.039c0,0-36.315-2.71-66.222,14.667
			c-29.907,17.376-89.72,1.849-104.674,0c-14.953-1.849-97.197-1.849-108.946,17.376l2.136,24.566c0,0,32.043-21.362,34.179-6.409
			v54.473H360.336c0,0,3.204-106.81-17.09-108.946c-20.294-2.136-118.559,60.882-150.602,5.341c0,0-34.179-96.129-22.43-138.853
			C170.214,595.432,112.537,586.21,95.447,566.255z"/>
	</defs>
	<linearGradient id="XMLID_2_" gradientUnits="userSpaceOnUse" x1="479.429" y1="837.89" x2="479.429" y2="184.0249">
		<stop  offset="0" style="stop-color:#10AFBC"/>
		<stop  offset="0.0829" style="stop-color:#0EA7BC"/>
		<stop  offset="0.2122" style="stop-color:#0A91BC"/>
		<stop  offset="0.3547" style="stop-color:#0371BC"/>
		<stop  offset="0.5216" style="stop-color:#055CA1"/>
		<stop  offset="0.8784" style="stop-color:#0A285C"/>
		<stop  offset="1" style="stop-color:#0C1543"/>
	</linearGradient>
	<use xlink:href="#XMLID_38_"  style="overflow:visible;fill:url(#XMLID_2_);"/>
	<clipPath id="XMLID_3_">
		<use xlink:href="#XMLID_38_"  style="overflow:visible;"/>
	</clipPath>
	<linearGradient id="SVGID_1_" gradientUnits="userSpaceOnUse" x1="642.6071" y1="787.7595" x2="584.2405" y2="681.8041">
		<stop  offset="0" style="stop-color:#066DBA"/>
		<stop  offset="0.4464" style="stop-color:#0E69B6"/>
		<stop  offset="1" style="stop-color:#1F61AF"/>
	</linearGradient>
	<path style="display:none;clip-path:url(#XMLID_3_);fill:url(#SVGID_1_);" d="M337.55,791.955c0,0,18.243-43.378,110.764-29.716
		s182.435-25.679,206.542-127.083c24.107-101.404,71.019-124.148,111.415-108.094l187.731,217.036l-80.651,197.619L602.08,978.002
		l-235.862-83.033L337.55,791.955z"/>
	<linearGradient id="SVGID_2_" gradientUnits="userSpaceOnUse" x1="390.7213" y1="1006.1458" x2="859.9999" y2="708.674">
		<stop  offset="0.1878" style="stop-color:#363B97"/>
		<stop  offset="0.3638" style="stop-color:#36439C"/>
		<stop  offset="0.6381" style="stop-color:#3559AB"/>
		<stop  offset="0.9749" style="stop-color:#337DC2"/>
		<stop  offset="1" style="stop-color:#3380C4"/>
	</linearGradient>
	<path style="display:none;clip-path:url(#XMLID_3_);fill:url(#SVGID_2_);" d="M420.7,910.025c0,0-66.964-52.697-107.361-65.726
		c-40.396-13.029,143.848-67.488,205.093-61.753c61.246,5.735,250.196,39.952,243.68-11.94s-45.609-137.514-29.971-164.271
		c15.637-26.757,15.637-17.392,56.033-14.716c40.396,2.676,72.974-1.338,83.399-12.041c10.425-10.703,48.215,298.339,48.215,298.339
		l-190.253,136.46L420.7,910.025z"/>
	<linearGradient id="SVGID_3_" gradientUnits="userSpaceOnUse" x1="459.9309" y1="465.3045" x2="465.3141" y2="622.079">
		<stop  offset="0" style="stop-color:#FFFFFF"/>
		<stop  offset="1" style="stop-color:#FFFFFF;stop-opacity:0"/>
	</linearGradient>
	<path style="clip-path:url(#XMLID_3_);fill:url(#SVGID_3_);" d="M812.663,448.01c-30.054,4.016-51.261,31.331-47.896,61.317
		c-8.421-2.618-17.526-3.504-26.842-2.259c-25.56,3.416-45.438,21.803-52,45.146c-9.274-2.643-19.225-3.478-29.393-2.119
		c-25.278,3.378-45.739,19.428-55.883,40.887c-12.385-8.195-27.666-12.133-43.543-10.011c-3.822,0.511-7.51,1.369-11.058,2.505
		c-18.289-15.562-42.847-23.608-68.523-20.177c-8.158,1.09-15.891,3.291-23.098,6.392c-15.517-7.151-33.168-10.153-51.355-7.723
		c-16.699,2.232-31.755,8.768-44.246,18.314c-9.488-5.778-20.937-8.475-32.805-6.889c-3.376,0.451-6.627,1.231-9.73,2.297
		c-9.336-29.443-38.703-48.844-70.376-44.611c-5.188,0.693-10.142,1.997-14.819,3.804c-7.358-35.79-40.434-60.643-77.006-57.538
		c0.271-3.672,0.175-7.427-0.333-11.222c-3.967-29.686-31.248-50.535-60.934-46.568c-29.686,3.967-50.535,31.248-46.568,60.934
		c3.245,24.282,22.091,42.643,45.091,46.355c-3.333,10.083-4.497,21.057-2.996,32.29c5.3,39.661,41.748,67.515,81.408,62.215
		c8.146-1.089,15.782-3.509,22.747-6.984c9.102,29.815,38.677,49.538,70.589,45.273c9.89-1.322,18.956-4.812,26.793-9.921
		c7.485,12.094,19.865,20.594,34.021,23.098c9.537,47.912,54.796,80.795,103.897,74.233c13.191-1.763,25.356-6.216,36.047-12.708
		c11.608,3.502,24.124,4.667,36.925,2.956c22.435-2.998,41.747-14.227,55.313-30.234c5.79,0.867,11.793,0.961,17.886,0.147
		c19.721-2.635,36.115-14.036,45.796-29.749c15.022,12.515,35.031,18.948,55.938,16.154c33.197-4.436,58.103-30.714,62.208-62.421
		c5.385,0.717,10.95,0.754,16.593,0c34.276-4.581,58.35-36.08,53.769-70.357c-0.155-1.157-0.346-2.301-0.561-3.434
		c6.282,1.426,12.919,1.783,19.679,0.88c30.451-4.069,51.837-32.053,47.768-62.504C871.098,465.327,843.114,443.94,812.663,448.01z"
		/>
	<linearGradient id="SVGID_4_" gradientUnits="userSpaceOnUse" x1="457.7288" y1="356.7651" x2="463.6867" y2="530.2785">
		<stop  offset="0" style="stop-color:#FFFFFF"/>
		<stop  offset="1" style="stop-color:#FFFFFF;stop-opacity:0"/>
	</linearGradient>
	<path style="clip-path:url(#XMLID_3_);fill:url(#SVGID_4_);" d="M848.122,337.624c-33.263,4.445-56.734,34.676-53.01,67.864
		c-9.32-2.897-19.397-3.878-29.708-2.5c-28.289,3.78-50.289,24.131-57.552,49.966c-10.264-2.925-21.278-3.849-32.531-2.345
		c-27.977,3.739-50.622,21.502-61.849,45.252c-13.708-9.07-30.62-13.428-48.192-11.08c-4.23,0.565-8.312,1.515-12.239,2.773
		c-20.241-17.223-47.422-26.128-75.839-22.331c-9.029,1.207-17.587,3.643-25.564,7.074c-17.173-7.914-36.709-11.237-56.838-8.547
		c-18.481,2.47-35.146,9.705-48.97,20.27c-10.501-6.395-23.172-9.38-36.307-7.625c-3.737,0.499-7.335,1.363-10.769,2.542
		c-10.333-32.587-42.835-54.059-77.891-49.374c-5.742,0.767-11.225,2.211-16.401,4.21c-8.144-39.611-44.751-67.118-85.228-63.682
		c0.3-4.065,0.193-8.22-0.368-12.42c-4.391-32.855-34.585-55.931-67.44-51.54c-32.856,4.391-55.931,34.585-51.54,67.44
		c3.591,26.875,24.45,47.196,49.905,51.304c-3.689,11.16-4.977,23.305-3.315,35.738c5.866,43.895,46.205,74.724,90.1,68.858
		c9.016-1.205,17.467-3.884,25.175-7.729c10.074,32.999,42.806,54.827,78.125,50.107c10.946-1.463,20.98-5.326,29.654-10.98
		c8.284,13.385,21.986,22.793,37.653,25.565c10.555,53.028,60.646,89.422,114.99,82.159c14.599-1.951,28.063-6.88,39.895-14.065
		c12.848,3.876,26.7,5.165,40.867,3.272c24.83-3.318,46.205-15.746,61.219-33.462c6.408,0.959,13.052,1.064,19.796,0.162
		c21.826-2.917,39.971-15.534,50.686-32.925c16.626,13.851,38.771,20.971,61.911,17.878c36.741-4.91,64.307-33.994,68.85-69.086
		c5.96,0.793,12.119,0.834,18.365,0c37.936-5.07,64.58-39.933,59.51-77.869c-0.171-1.281-0.383-2.546-0.621-3.801
		c6.953,1.578,14.298,1.973,21.78,0.973c33.702-4.504,57.372-35.476,52.868-69.178C912.796,356.79,881.824,333.12,848.122,337.624z"
		/>
	
		<linearGradient id="SVGID_5_" gradientUnits="userSpaceOnUse" x1="-137.8198" y1="232.6568" x2="-130.5652" y2="443.9312" gradientTransform="matrix(-1 0 0 1 306.4178 0)">
		<stop  offset="0" style="stop-color:#FFFFFF"/>
		<stop  offset="1" style="stop-color:#FFFFFF;stop-opacity:0"/>
	</linearGradient>
	<path style="clip-path:url(#XMLID_3_);fill:url(#SVGID_5_);" d="M-31.115,209.35c40.502,5.413,69.08,42.222,64.547,82.633
		c11.348-3.527,23.618-4.722,36.173-3.044c34.445,4.603,61.233,29.383,70.076,60.84c12.498-3.561,25.909-4.686,39.611-2.855
		c34.066,4.552,61.639,26.181,75.31,55.101c16.691-11.044,37.284-16.35,58.68-13.491c5.151,0.688,10.121,1.845,14.902,3.376
		c24.646-20.972,57.742-31.815,92.344-27.191c10.994,1.469,21.415,4.435,31.127,8.613c20.911-9.636,44.698-13.683,69.207-10.408
		c22.503,3.007,42.794,11.817,59.627,24.681c12.786-7.786,28.215-11.421,44.209-9.284c4.55,0.608,8.931,1.659,13.113,3.095
		c12.582-39.678,52.157-65.823,94.842-60.119c6.992,0.934,13.667,2.692,19.97,5.126c9.916-48.232,54.49-81.725,103.775-77.54
		c-0.365-4.949-0.235-10.009,0.448-15.123c5.346-40.006,42.111-68.103,82.117-62.756c40.006,5.346,68.103,42.111,62.757,82.117
		c-4.373,32.723-29.771,57.466-60.766,62.469c4.492,13.589,6.06,28.377,4.037,43.515c-7.143,53.448-56.261,90.986-109.708,83.843
		c-10.978-1.467-21.268-4.729-30.654-9.411c-12.266,40.18-52.122,66.759-95.127,61.012c-13.328-1.781-25.546-6.485-36.107-13.37
		c-10.087,16.298-26.77,27.753-45.847,31.128c-12.853,64.568-73.845,108.882-140.015,100.039
		c-17.776-2.376-34.17-8.378-48.577-17.125c-15.644,4.72-32.51,6.289-49.761,3.984c-30.234-4.04-56.26-19.173-74.541-40.744
		c-7.803,1.168-15.892,1.295-24.104,0.198c-26.576-3.552-48.669-18.915-61.717-40.091c-20.245,16.865-47.209,25.534-75.385,21.769
		c-44.737-5.978-78.301-41.392-83.833-84.121c-7.257,0.966-14.756,1.016-22.361,0c-46.192-6.173-78.634-48.623-72.461-94.815
		c0.208-1.559,0.466-3.101,0.756-4.628c-8.466,1.922-17.41,2.403-26.519,1.185c-41.037-5.484-69.858-43.196-64.374-84.233
		C-109.864,232.687-72.152,203.866-31.115,209.35z"/>
	<g style="clip-path:url(#XMLID_3_);">
		<defs>
			<polygon id="XMLID_52_" points="465.198,880.612 621.543,625.982 778.193,877.862 			"/>
		</defs>
		<use xlink:href="#XMLID_52_"  style="overflow:visible;fill:#3A3AC1;"/>
		<clipPath id="XMLID_4_">
			<use xlink:href="#XMLID_52_"  style="overflow:visible;"/>
		</clipPath>
		<linearGradient id="SVGID_6_" gradientUnits="userSpaceOnUse" x1="562.8342" y1="785.0939" x2="743.5403" y2="778.2927">
			<stop  offset="0.1983" style="stop-color:#62CEB4"/>
			<stop  offset="0.377" style="stop-color:#66B5BF;stop-opacity:0.7771"/>
			<stop  offset="0.6249" style="stop-color:#6A99CC;stop-opacity:0.4679"/>
			<stop  offset="0.841" style="stop-color:#6C87D4;stop-opacity:0.1983"/>
			<stop  offset="1" style="stop-color:#6D81D7;stop-opacity:0"/>
		</linearGradient>
		<polygon style="clip-path:url(#XMLID_4_);fill:url(#SVGID_6_);" points="621.695,598.553 607.28,967.747 908.998,933.001 		"/>
	</g>
	<g style="clip-path:url(#XMLID_3_);">
		<defs>
			<polygon id="XMLID_45_" points="140.988,909.802 358.225,555.216 601.794,905.716 			"/>
		</defs>
		<use xlink:href="#XMLID_45_"  style="overflow:visible;fill:#284999;"/>
		<clipPath id="XMLID_5_">
			<use xlink:href="#XMLID_45_"  style="overflow:visible;"/>
		</clipPath>
		<linearGradient id="SVGID_7_" gradientUnits="userSpaceOnUse" x1="362.45" y1="829.8207" x2="680.7374" y2="635.7935">
			<stop  offset="0" style="stop-color:#62CEB4"/>
			<stop  offset="0.2229" style="stop-color:#66B5BF;stop-opacity:0.7771"/>
			<stop  offset="0.5321" style="stop-color:#6A99CC;stop-opacity:0.4679"/>
			<stop  offset="0.8017" style="stop-color:#6C87D4;stop-opacity:0.1983"/>
			<stop  offset="1" style="stop-color:#6D81D7;stop-opacity:0"/>
		</linearGradient>
		<polygon style="clip-path:url(#XMLID_5_);fill:url(#SVGID_7_);" points="360.419,546.438 345.059,603.673 386.495,672.063 
			290.274,759.835 412.692,836.636 298.817,914.328 671.776,925.877 		"/>
	</g>
	<g style="clip-path:url(#XMLID_3_);">
		
			<linearGradient id="SVGID_8_" gradientUnits="userSpaceOnUse" x1="-238.9912" y1="688.3167" x2="-70.9437" y2="688.3167" gradientTransform="matrix(0.9002 -0.4354 0.4354 0.9002 150.5619 -30.1597)">
			<stop  offset="0" style="stop-color:#FFF7EE"/>
			<stop  offset="0.1822" style="stop-color:#FEF4E6"/>
			<stop  offset="0.4663" style="stop-color:#FDECD0"/>
			<stop  offset="0.8149" style="stop-color:#FADEAC"/>
			<stop  offset="1" style="stop-color:#F8D696"/>
		</linearGradient>
		<path style="opacity:0.26;fill:url(#SVGID_8_);" d="M312.427,625.605l37.742-18.253c0.134-0.065,0.273-0.099,0.41-0.151
			l20.675-9.999c1.741-0.842,2.497-2.912,1.68-4.601c-0.817-1.689-2.909-2.381-4.65-1.539l-65.514,31.684l-5.38,2.602
			l-45.417,21.964c-17.494,8.46-25.093,29.266-16.887,46.235c8.206,16.969,29.234,23.93,46.728,15.47l50.798-24.567
			c0.148-0.072,0.29-0.151,0.437-0.225c0.038-0.017,0.078-0.025,0.116-0.043l29.909-14.464c1.958-0.947,2.809-3.276,1.89-5.175
			c-0.919-1.9-3.272-2.679-5.231-1.732l-6.221,3.009l-4.25,2.055l-9.399,4.546c-1.322,0.639-2.911,0.113-3.531-1.169
			c-0.62-1.282-0.046-2.854,1.276-3.494l13.649-6.601c0.177-0.086,0.359-0.147,0.543-0.192l36.168-17.492
			c2.611-1.263,3.745-4.368,2.52-6.901c-1.225-2.532-4.363-3.571-6.974-2.309l-29.622,14.326l-1.276,0.617l-12.669,6.127
			c-1.485,0.718-3.27,0.127-3.967-1.313c-0.697-1.44-0.052-3.207,1.434-3.925l13.946-6.744c0.067-0.032,0.137-0.048,0.205-0.075
			l9.012-4.359c1.654-0.8,2.372-2.767,1.596-4.371c-0.776-1.604-2.763-2.262-4.417-1.462l-8.496,4.109l-0.232,0.112l-6.949,3.36
			c-1.485,0.718-3.27,0.127-3.967-1.313c-0.697-1.44-0.051-3.207,1.434-3.925l7.18-3.473c0.067-0.032,0.137-0.048,0.205-0.075
			l13.997-6.769c2.872-1.389,4.12-4.805,2.772-7.591c-1.347-2.786-4.8-3.929-7.672-2.54l-19.224,9.297
			c-0.03-0.018-0.062-0.032-0.092-0.05l-20.224,9.781c-2.383,1.152-5.246,0.204-6.364-2.107
			C309.01,629.591,310.045,626.757,312.427,625.605z"/>
		
			<linearGradient id="SVGID_9_" gradientUnits="userSpaceOnUse" x1="-234.4815" y1="688.3167" x2="-96.5781" y2="688.3167" gradientTransform="matrix(0.9002 -0.4354 0.4354 0.9002 150.5619 -30.1597)">
			<stop  offset="0" style="stop-color:#FFF7EE"/>
			<stop  offset="0.1822" style="stop-color:#FEF4E6"/>
			<stop  offset="0.4663" style="stop-color:#FDECD0"/>
			<stop  offset="0.8149" style="stop-color:#FADEAC"/>
			<stop  offset="1" style="stop-color:#F8D696"/>
		</linearGradient>
		<path style="opacity:0.58;fill:url(#SVGID_9_);" d="M302.136,634.841l30.972-14.979c0.11-0.053,0.225-0.08,0.337-0.122
			l16.967-8.205c1.428-0.691,2.022-2.445,1.32-3.898c-0.703-1.453-2.446-2.077-3.875-1.386l-53.763,26l-4.415,2.135l-37.27,18.025
			c-14.356,6.943-20.324,24.571-13.262,39.173c7.062,14.602,24.586,20.869,38.942,13.926l41.686-20.16
			c0.122-0.059,0.238-0.125,0.359-0.185c0.031-0.014,0.064-0.02,0.096-0.035l24.544-11.87c1.607-0.777,2.275-2.75,1.485-4.385
			c-0.791-1.635-2.752-2.336-4.359-1.559l-5.105,2.469l-3.487,1.687l-7.713,3.73c-1.085,0.525-2.409,0.051-2.943-1.052
			c-0.534-1.103-0.083-2.435,1.002-2.96l11.201-5.417c0.145-0.07,0.295-0.12,0.447-0.155l29.681-14.354
			c2.143-1.036,3.034-3.667,1.979-5.847c-1.054-2.179-3.669-3.115-5.812-2.078l-24.308,11.756l-1.047,0.506l-10.397,5.028
			c-1.219,0.589-2.706,0.057-3.306-1.182c-0.599-1.239-0.093-2.736,1.126-3.325l11.444-5.534c0.055-0.027,0.113-0.039,0.169-0.061
			l7.396-3.577c1.357-0.656,1.921-2.323,1.254-3.703c-0.668-1.38-2.324-1.973-3.681-1.316l-6.972,3.372l-0.19,0.092l-5.702,2.758
			c-1.219,0.589-2.706,0.057-3.306-1.182s-0.093-2.736,1.126-3.325l5.892-2.85c0.055-0.027,0.113-0.039,0.169-0.061l11.486-5.555
			c2.357-1.14,3.337-4.034,2.177-6.431c-1.159-2.397-4.036-3.426-6.393-2.286l-15.775,7.629c-0.025-0.016-0.052-0.028-0.077-0.044
			l-16.596,8.026c-1.955,0.946-4.342,0.092-5.304-1.897S300.181,635.786,302.136,634.841z"/>
		
			<linearGradient id="SVGID_10_" gradientUnits="userSpaceOnUse" x1="-230.3278" y1="688.3167" x2="-116.8719" y2="688.3167" gradientTransform="matrix(0.9002 -0.4354 0.4354 0.9002 150.5619 -30.1597)">
			<stop  offset="0" style="stop-color:#FFF7EE"/>
			<stop  offset="0.1822" style="stop-color:#FEF4E6"/>
			<stop  offset="0.4663" style="stop-color:#FDECD0"/>
			<stop  offset="0.8149" style="stop-color:#FADEAC"/>
			<stop  offset="1" style="stop-color:#F8D696"/>
		</linearGradient>
		<path style="fill:url(#SVGID_10_);" d="M294.851,643.387l25.481-12.323c0.09-0.044,0.185-0.066,0.277-0.101l13.959-6.751
			c1.175-0.568,1.672-1.995,1.103-3.17c-0.568-1.175-1.995-1.672-3.17-1.103L288.27,641.33l-3.633,1.757l-30.663,14.829
			c-11.811,5.712-16.801,20.049-11.089,31.86s20.049,16.801,31.86,11.089l34.296-16.586c0.1-0.048,0.196-0.102,0.295-0.152
			c0.026-0.011,0.053-0.016,0.079-0.029l20.193-9.766c1.322-0.639,1.881-2.244,1.241-3.566s-2.244-1.881-3.566-1.241l-4.2,2.031
			l-2.869,1.388l-6.346,3.069c-0.892,0.432-1.976,0.055-2.407-0.838c-0.432-0.893-0.055-1.976,0.838-2.407l9.215-4.456
			c0.12-0.058,0.243-0.099,0.367-0.128l24.419-11.809c1.763-0.852,2.508-2.992,1.655-4.755c-0.852-1.763-2.992-2.508-4.755-1.655
			l-19.999,9.672l-0.862,0.417l-8.554,4.137c-1.003,0.485-2.22,0.061-2.705-0.941c-0.485-1.003-0.061-2.22,0.941-2.705l9.415-4.553
			c0.045-0.022,0.093-0.032,0.139-0.05l6.085-2.943c1.116-0.54,1.588-1.895,1.048-3.012c-0.54-1.117-1.895-1.588-3.012-1.048
			l-5.736,2.774l-0.157,0.076l-4.691,2.269c-1.003,0.485-2.22,0.061-2.705-0.941c-0.485-1.003-0.061-2.22,0.941-2.705l4.848-2.344
			c0.045-0.022,0.093-0.032,0.139-0.05l9.45-4.57c1.939-0.938,2.758-3.292,1.821-5.231c-0.938-1.939-3.292-2.758-5.231-1.821
			l-12.979,6.277c-0.02-0.013-0.042-0.023-0.063-0.036l-13.654,6.603c-1.609,0.778-3.561,0.098-4.339-1.51
			C292.563,646.118,293.243,644.165,294.851,643.387z"/>
	</g>
	<g style="clip-path:url(#XMLID_3_);">
		
			<linearGradient id="SVGID_11_" gradientUnits="userSpaceOnUse" x1="214.6259" y1="429.9997" x2="325.6347" y2="429.9997" gradientTransform="matrix(0.9002 -0.4354 0.4354 0.9002 150.5619 -30.1597)">
			<stop  offset="0" style="stop-color:#FFF7EE"/>
			<stop  offset="0.1822" style="stop-color:#FEF4E6"/>
			<stop  offset="0.4663" style="stop-color:#FDECD0"/>
			<stop  offset="0.8149" style="stop-color:#FADEAC"/>
			<stop  offset="1" style="stop-color:#F8D696"/>
		</linearGradient>
		<path style="opacity:0.26;fill:url(#SVGID_11_);" d="M582.08,218.622l24.932-12.057c0.089-0.043,0.181-0.066,0.271-0.1
			l13.658-6.605c1.15-0.556,1.649-1.924,1.11-3.039c-0.539-1.115-1.922-1.573-3.071-1.017l-43.278,20.93l-3.554,1.719
			l-30.002,14.509c-11.556,5.589-16.576,19.333-11.155,30.542c5.421,11.209,19.311,15.808,30.868,10.219l33.556-16.228
			c0.098-0.047,0.192-0.1,0.289-0.148c0.025-0.011,0.052-0.016,0.077-0.028l19.757-9.555c1.294-0.626,1.856-2.164,1.249-3.419
			c-0.607-1.255-2.162-1.769-3.455-1.144l-4.11,1.987l-2.807,1.358l-6.209,3.003c-0.873,0.422-1.923,0.075-2.332-0.772
			c-0.41-0.847-0.03-1.885,0.843-2.308l9.016-4.36c0.117-0.057,0.237-0.097,0.359-0.127l23.892-11.555
			c1.725-0.834,2.474-2.885,1.665-4.559c-0.809-1.673-2.882-2.359-4.607-1.525l-19.568,9.463l-0.843,0.408l-8.369,4.047
			c-0.981,0.474-2.16,0.084-2.62-0.867c-0.46-0.951-0.034-2.118,0.947-2.593l9.212-4.455c0.044-0.021,0.09-0.032,0.135-0.05
			l5.953-2.879c1.092-0.528,1.567-1.828,1.054-2.887c-0.512-1.06-1.825-1.494-2.918-0.966l-5.612,2.714l-0.153,0.074l-4.59,2.22
			c-0.981,0.474-2.16,0.084-2.62-0.867c-0.46-0.951-0.034-2.118,0.947-2.593l4.743-2.294c0.044-0.021,0.09-0.032,0.135-0.05
			l9.246-4.472c1.897-0.918,2.721-3.174,1.831-5.014c-0.89-1.84-3.171-2.595-5.068-1.678l-12.699,6.141
			c-0.02-0.012-0.041-0.021-0.061-0.033l-13.36,6.461c-1.574,0.761-3.466,0.135-4.204-1.392
			C579.822,221.256,580.506,219.384,582.08,218.622z"/>
		
			<linearGradient id="SVGID_12_" gradientUnits="userSpaceOnUse" x1="217.605" y1="429.9997" x2="308.7012" y2="429.9997" gradientTransform="matrix(0.9002 -0.4354 0.4354 0.9002 150.5619 -30.1597)">
			<stop  offset="0" style="stop-color:#FFF7EE"/>
			<stop  offset="0.1822" style="stop-color:#FEF4E6"/>
			<stop  offset="0.4663" style="stop-color:#FDECD0"/>
			<stop  offset="0.8149" style="stop-color:#FADEAC"/>
			<stop  offset="1" style="stop-color:#F8D696"/>
		</linearGradient>
		<path style="opacity:0.58;fill:url(#SVGID_12_);" d="M575.282,224.724l20.459-9.895c0.073-0.035,0.148-0.053,0.223-0.081
			l11.208-5.42c0.944-0.456,1.336-1.615,0.872-2.575c-0.464-0.96-1.616-1.372-2.56-0.915l-35.514,17.175l-2.917,1.411l-24.62,11.907
			c-9.483,4.586-13.426,16.231-8.761,25.877s16.241,13.786,25.724,9.199l27.537-13.317c0.08-0.039,0.157-0.082,0.237-0.122
			c0.021-0.009,0.043-0.013,0.063-0.023l16.213-7.841c1.062-0.513,1.503-1.817,0.981-2.897c-0.522-1.08-1.818-1.543-2.88-1.03
			l-3.372,1.631l-2.304,1.114l-5.095,2.464c-0.717,0.347-1.591,0.034-1.944-0.695c-0.352-0.729-0.055-1.609,0.662-1.955l7.399-3.578
			c0.096-0.046,0.195-0.079,0.295-0.102l19.606-9.482c1.415-0.685,2.004-2.422,1.307-3.862c-0.696-1.44-2.424-2.057-3.839-1.373
			l-16.058,7.766l-0.692,0.335l-6.868,3.321c-0.805,0.389-1.788,0.038-2.184-0.781c-0.396-0.819-0.061-1.807,0.744-2.197l7.56-3.656
			c0.036-0.018,0.074-0.026,0.111-0.04l4.886-2.363c0.896-0.434,1.269-1.534,0.828-2.446c-0.441-0.912-1.535-1.303-2.432-0.87
			l-4.606,2.227l-0.126,0.061l-3.767,1.822c-0.805,0.389-1.788,0.038-2.184-0.781c-0.396-0.819-0.061-1.807,0.744-2.197l3.892-1.882
			c0.036-0.018,0.074-0.026,0.111-0.04l7.588-3.67c1.557-0.753,2.204-2.665,1.438-4.248c-0.766-1.584-2.666-2.263-4.223-1.51
			l-10.421,5.04c-0.017-0.011-0.034-0.019-0.051-0.029l-10.963,5.302c-1.292,0.625-2.868,0.061-3.503-1.253
			C573.453,226.934,573.99,225.348,575.282,224.724z"/>
		
			<linearGradient id="SVGID_13_" gradientUnits="userSpaceOnUse" x1="220.3488" y1="429.9997" x2="295.2955" y2="429.9997" gradientTransform="matrix(0.9002 -0.4354 0.4354 0.9002 150.5619 -30.1597)">
			<stop  offset="0" style="stop-color:#FFF7EE"/>
			<stop  offset="0.1822" style="stop-color:#FEF4E6"/>
			<stop  offset="0.4663" style="stop-color:#FDECD0"/>
			<stop  offset="0.8149" style="stop-color:#FADEAC"/>
			<stop  offset="1" style="stop-color:#F8D696"/>
		</linearGradient>
		<path style="fill:url(#SVGID_13_);" d="M570.47,230.369l16.832-8.14c0.06-0.029,0.122-0.044,0.183-0.067l9.221-4.459
			c0.776-0.375,1.104-1.318,0.729-2.094c-0.375-0.776-1.318-1.104-2.094-0.729l-29.218,14.131l-2.4,1.16l-20.255,9.796
			c-7.802,3.773-11.099,13.244-7.325,21.046c3.773,7.802,13.244,11.099,21.046,7.325l22.655-10.956
			c0.066-0.032,0.129-0.068,0.195-0.1c0.017-0.008,0.035-0.011,0.052-0.019l13.339-6.451c0.873-0.422,1.242-1.482,0.82-2.356
			c-0.422-0.873-1.483-1.242-2.356-0.82l-2.775,1.342l-1.895,0.917l-4.192,2.027c-0.59,0.285-1.305,0.036-1.59-0.553
			s-0.036-1.305,0.554-1.59l6.087-2.944c0.079-0.038,0.16-0.065,0.243-0.085l16.131-7.801c1.164-0.563,1.656-1.977,1.093-3.141
			c-0.563-1.164-1.977-1.656-3.141-1.093l-13.211,6.389l-0.569,0.275l-5.65,2.733c-0.662,0.32-1.466,0.04-1.787-0.622
			c-0.32-0.662-0.04-1.466,0.622-1.787l6.219-3.008c0.03-0.014,0.061-0.021,0.092-0.033l4.019-1.944
			c0.737-0.357,1.049-1.252,0.692-1.99c-0.357-0.738-1.252-1.049-1.989-0.692l-3.789,1.832l-0.103,0.05l-3.099,1.499
			c-0.662,0.32-1.466,0.04-1.787-0.622c-0.32-0.662-0.04-1.466,0.622-1.787l3.202-1.549c0.03-0.014,0.061-0.021,0.092-0.033
			l6.243-3.019c1.281-0.619,1.822-2.174,1.203-3.455c-0.62-1.281-2.174-1.822-3.455-1.203l-8.573,4.146
			c-0.013-0.008-0.028-0.015-0.042-0.024l-9.02,4.362c-1.063,0.514-2.352,0.065-2.866-0.998
			C568.958,232.173,569.407,230.883,570.47,230.369z"/>
	</g>
	<g style="clip-path:url(#XMLID_3_);">
		<path style="opacity:0.4;fill:#FFFFFF;" d="M447.92,630.41c-104.358,0-189.26-84.901-189.26-189.26s84.901-189.26,189.26-189.26
			s189.26,84.901,189.26,189.26S552.278,630.41,447.92,630.41z M447.92,252.891c-103.807,0-188.26,84.453-188.26,188.26
			s84.453,188.26,188.26,188.26s188.26-84.453,188.26-188.26S551.727,252.891,447.92,252.891z"/>
		<radialGradient id="SVGID_14_" cx="447.92" cy="441.1505" r="194.2766" gradientUnits="userSpaceOnUse">
			<stop  offset="0.3793" style="stop-color:#FFFFFF"/>
			<stop  offset="1" style="stop-color:#FFFFFF;stop-opacity:0"/>
		</radialGradient>
		<circle style="fill:url(#SVGID_14_);" cx="447.92" cy="441.151" r="188.76"/>
		<g style="opacity:0.4;">
			<path style="fill:#FFFFFF;" d="M295.469,425.69c-0.017,0-0.035-0.001-0.052-0.002c-0.275-0.029-0.475-0.274-0.446-0.549
				c1.075-10.386,3.217-20.678,6.365-30.591c0.084-0.263,0.363-0.409,0.628-0.325c0.263,0.083,0.409,0.365,0.325,0.628
				c-3.128,9.848-5.255,20.073-6.323,30.391C295.939,425.499,295.722,425.69,295.469,425.69z"/>
			<path style="fill:#FFFFFF;" d="M305.527,498.476c-0.198,0-0.386-0.119-0.464-0.314c-3.602-9.017-6.353-18.427-8.177-27.972
				c-0.052-0.271,0.126-0.533,0.397-0.585c0.271-0.051,0.533,0.125,0.585,0.397c1.813,9.481,4.546,18.831,8.124,27.788
				c0.103,0.256-0.022,0.547-0.279,0.65C305.652,498.465,305.589,498.476,305.527,498.476z"/>
			<path style="fill:#FFFFFF;" d="M355.702,564.088c-0.105,0-0.21-0.033-0.301-0.101c-6.62-4.994-12.884-10.566-18.62-16.562
				c-0.191-0.2-0.184-0.516,0.016-0.707c0.2-0.191,0.517-0.184,0.707,0.016c5.699,5.958,11.922,11.494,18.5,16.456
				c0.22,0.166,0.264,0.479,0.098,0.7C356.003,564.02,355.854,564.088,355.702,564.088z"/>
			<path style="fill:#FFFFFF;" d="M447.92,594.923c-12.649,0-25.229-1.54-37.389-4.578c-0.268-0.067-0.431-0.338-0.364-0.606
				c0.066-0.268,0.336-0.434,0.606-0.364c12.081,3.017,24.579,4.547,37.146,4.547c0.276,0,0.5,0.224,0.5,0.5
				S448.196,594.923,447.92,594.923z"/>
			<path style="fill:#FFFFFF;" d="M506.355,583.39c-0.196,0-0.383-0.116-0.462-0.309c-0.105-0.255,0.017-0.548,0.271-0.653
				c9.773-4.033,19.167-9.115,27.92-15.104c0.229-0.155,0.54-0.098,0.695,0.13c0.156,0.228,0.098,0.539-0.13,0.695
				c-8.81,6.028-18.266,11.144-28.103,15.204C506.483,583.377,506.419,583.39,506.355,583.39z"/>
			<path style="fill:#FFFFFF;" d="M578.537,521.888c-0.089,0-0.18-0.024-0.262-0.074c-0.235-0.145-0.308-0.453-0.164-0.688
				c8.463-13.747,14.652-28.657,18.396-44.314c0.064-0.269,0.335-0.434,0.603-0.37c0.269,0.064,0.434,0.334,0.37,0.603
				c-3.769,15.761-10,30.769-18.518,44.606C578.869,521.803,578.705,521.888,578.537,521.888z"/>
			<path style="fill:#FFFFFF;" d="M589.571,383.001c-0.196,0-0.382-0.116-0.462-0.309c-4.614-11.133-10.568-21.731-17.697-31.5
				c-0.163-0.223-0.114-0.536,0.109-0.699c0.223-0.164,0.537-0.113,0.699,0.109c7.175,9.833,13.168,20.5,17.813,31.707
				c0.106,0.255-0.015,0.547-0.271,0.653C589.7,382.989,589.635,383.001,589.571,383.001z"/>
			<path style="fill:#FFFFFF;" d="M522.766,307.864c-0.083,0-0.167-0.021-0.244-0.064c-9.948-5.577-20.525-10.031-31.44-13.24
				c-0.265-0.078-0.417-0.355-0.338-0.621c0.078-0.264,0.353-0.419,0.621-0.338c10.986,3.229,21.634,7.713,31.647,13.327
				c0.241,0.135,0.327,0.439,0.191,0.681C523.111,307.772,522.941,307.864,522.766,307.864z"/>
			<path style="fill:#FFFFFF;" d="M322.122,354.064c-0.099,0-0.198-0.029-0.286-0.09c-0.227-0.158-0.282-0.47-0.124-0.696
				c6.825-9.784,14.796-18.781,23.693-26.744c6.326-5.663,13.166-10.834,20.327-15.373c13.542-8.58,28.257-14.951,43.735-18.936
				c0.265-0.068,0.54,0.092,0.609,0.36c0.069,0.267-0.092,0.54-0.36,0.609c-15.376,3.958-29.995,10.288-43.449,18.812
				c-7.115,4.508-13.91,9.647-20.195,15.273c-8.839,7.911-16.759,16.851-23.54,26.571
				C322.435,353.989,322.28,354.064,322.122,354.064z"/>
		</g>
		<radialGradient id="SVGID_15_" cx="447.92" cy="441.1505" r="157.752" gradientUnits="userSpaceOnUse">
			<stop  offset="0.6816" style="stop-color:#FFFFFF"/>
			<stop  offset="1" style="stop-color:#FFFFFF;stop-opacity:0"/>
		</radialGradient>
		<circle style="fill:url(#SVGID_15_);" cx="447.92" cy="441.151" r="153.272"/>
		<circle style="fill:#FFFFFF;" cx="447.92" cy="441.151" r="124.968"/>
		<circle style="fill:#EFF0E2;" cx="460.737" cy="516.986" r="32.043"/>
		<circle style="fill:#EFF0E2;" cx="545.948" cy="422.637" r="18.514"/>
		<circle style="fill:#EFF0E2;" cx="474.148" cy="432.368" r="13.173"/>
	</g>
	
		<linearGradient id="SVGID_16_" gradientUnits="userSpaceOnUse" x1="-486.9549" y1="-751.4426" x2="-485.3802" y2="-516.4868" gradientTransform="matrix(-0.5488 -0.836 0.836 -0.5488 705.8692 -526.7954)">
		<stop  offset="0.357" style="stop-color:#4BC2AC"/>
		<stop  offset="0.4028" style="stop-color:#62CAB7;stop-opacity:0.9287"/>
		<stop  offset="0.5079" style="stop-color:#92DACD;stop-opacity:0.7653"/>
		<stop  offset="0.6128" style="stop-color:#B9E7DF;stop-opacity:0.6022"/>
		<stop  offset="0.7156" style="stop-color:#D8F2ED;stop-opacity:0.4423"/>
		<stop  offset="0.8156" style="stop-color:#EDF9F7;stop-opacity:0.2867"/>
		<stop  offset="0.9119" style="stop-color:#FBFDFD;stop-opacity:0.137"/>
		<stop  offset="1" style="stop-color:#FFFFFF;stop-opacity:0"/>
	</linearGradient>
	<path style="clip-path:url(#XMLID_3_);fill:url(#SVGID_16_);" d="M534.193,170.951L359.35,293.005
		c-3.818,2.506-8.993,1.433-11.499-2.385v0c-2.506-3.818-1.433-8.993,2.385-11.499L531.76,167.244
		C535.578,164.738,538.012,168.445,534.193,170.951z"/>
	
		<linearGradient id="SVGID_17_" gradientUnits="userSpaceOnUse" x1="-890.7727" y1="-1056.908" x2="-889.198" y2="-821.9521" gradientTransform="matrix(-0.5488 -0.836 0.836 -0.5488 705.8692 -526.7954)">
		<stop  offset="0.357" style="stop-color:#4BC2AC"/>
		<stop  offset="0.4028" style="stop-color:#62CAB7;stop-opacity:0.9287"/>
		<stop  offset="0.5079" style="stop-color:#92DACD;stop-opacity:0.7653"/>
		<stop  offset="0.6128" style="stop-color:#B9E7DF;stop-opacity:0.6022"/>
		<stop  offset="0.7156" style="stop-color:#D8F2ED;stop-opacity:0.4423"/>
		<stop  offset="0.8156" style="stop-color:#EDF9F7;stop-opacity:0.2867"/>
		<stop  offset="0.9119" style="stop-color:#FBFDFD;stop-opacity:0.137"/>
		<stop  offset="1" style="stop-color:#FFFFFF;stop-opacity:0"/>
	</linearGradient>
	<path style="clip-path:url(#XMLID_3_);fill:url(#SVGID_17_);" d="M500.431,676.162L325.587,798.216
		c-3.818,2.506-8.993,1.433-11.499-2.385l0,0c-2.506-3.818-1.433-8.993,2.385-11.499l181.525-111.877
		C501.815,669.949,504.249,673.655,500.431,676.162z"/>
	<g style="display:none;clip-path:url(#XMLID_3_);">
		<g style="display:inline;">
			<circle style="fill:#84382F;" cx="561.005" cy="305.336" r="38.879"/>
			<polygon style="fill:#FF846C;" points="551.331,360.228 551.331,377.122 571.404,377.122 571.404,355.455 			"/>
			<path style="fill:#FFBFB0;" d="M564.033,366.592h-6.057c-6.91,0-12.564-5.654-12.564-12.564v-25.496
				c0-6.91,5.654-12.564,12.564-12.564h6.057c6.91,0,12.564,5.654,12.564,12.564v25.496
				C576.597,360.938,570.943,366.592,564.033,366.592z"/>
			<path style="fill:none;stroke:#84382F;stroke-linecap:round;stroke-miterlimit:10;" d="M549.521,330.952c0,0,4.86-6.48,9.72,0"/>
			<path style="fill:none;stroke:#84382F;stroke-linecap:round;stroke-miterlimit:10;" d="M563.696,330.952c0,0,4.05-7.492,9.112,0"
				/>
			<path style="fill:#84382F;" d="M554.544,340.039h-0.324c-0.37,0-0.673-0.303-0.673-0.673v-4.121c0-0.37,0.303-0.673,0.673-0.673
				h0.324c0.37,0,0.673,0.303,0.673,0.673v4.121C555.217,339.737,554.914,340.039,554.544,340.039z"/>
			<path style="fill:#84382F;" d="M568.415,340.039h-0.324c-0.37,0-0.673-0.303-0.673-0.673v-4.121c0-0.37,0.303-0.673,0.673-0.673
				h0.324c0.37,0,0.673,0.303,0.673,0.673v4.121C569.088,339.737,568.785,340.039,568.415,340.039z"/>
			<path style="fill:none;stroke:#84382F;stroke-miterlimit:10;" d="M561.367,341.28c0,0,2.911,7.872,2.329,10.15
				c0,0-0.202,1.139-2.329,0.456"/>
			<path style="fill:#FF846C;" d="M557.776,355.53c0,0,2.506,1.833,10.643-0.884c0,0,3.785,0.732-1.252,4.149
				c0,0-6.353,3.417-10.758-0.304C556.41,358.492,553.296,354.647,557.776,355.53z"/>
		</g>
		<g style="display:inline;">
			<defs>
				<polygon id="SVGID_79_" points="657.168,750.59 720.117,792.385 753.3,828.04 769.625,764.225 677.587,706.924 				"/>
			</defs>
			<use xlink:href="#SVGID_79_"  style="overflow:visible;fill:#FFBFB0;"/>
			<clipPath id="SVGID_18_">
				<use xlink:href="#SVGID_79_"  style="overflow:visible;"/>
			</clipPath>
			<polygon style="clip-path:url(#SVGID_18_);fill:#FFDF62;" points="675.177,793.998 725.445,714.389 798.75,772.73 
				745.241,860.139 			"/>
			<polygon style="clip-path:url(#SVGID_18_);fill:#544000;" points="673.419,811.026 731.765,714.428 736.866,717.954 
				679.064,814.079 			"/>
			<polygon style="clip-path:url(#SVGID_18_);fill:#FFFFFF;" points="680.617,815.817 740.796,712.976 742.769,715.242 
				684.954,814.698 			"/>
			<polygon style="clip-path:url(#SVGID_18_);fill:#544000;" points="743.702,840.068 766.005,752.44 778.884,758.655 
				751.156,840.052 			"/>
		</g>
		<g style="display:inline;">
			<defs>
				<polygon id="XMLID_24_" points="688.014,627.177 761.704,577.903 803.316,565.167 745.028,528.467 661.782,584.737 				"/>
			</defs>
			<use xlink:href="#XMLID_24_"  style="overflow:visible;fill:#FFBFB0;"/>
			<clipPath id="XMLID_6_">
				<use xlink:href="#XMLID_24_"  style="overflow:visible;"/>
			</clipPath>
			<polygon style="clip-path:url(#XMLID_6_);fill:#FFDF62;" points="743.498,616.974 680.149,543.498 756.086,507.946 
				823.393,568.661 			"/>
			<polygon style="clip-path:url(#XMLID_6_);fill:#544000;" points="742.813,605.877 695.259,549.637 698.977,546.9 
				746.141,601.605 			"/>
			<polygon style="clip-path:url(#XMLID_6_);fill:#FFFFFF;" points="747.538,599.7 700.262,546.493 702.444,544.144 
				750.219,597.388 			"/>
			<polygon style="clip-path:url(#XMLID_6_);fill:#544000;" points="802.734,573.032 736.039,527.802 738.119,520.048 
				810.488,564.944 			"/>
		</g>
		<g style="display:inline;">
			<defs>
				<path id="XMLID_35_" d="M715.011,625.227L591.199,759.856c-26.447,20.45-64.817,15.544-85.267-10.902l0,0
					c-20.45-26.447-15.544-64.817,10.902-85.267l150.369-116.276L715.011,625.227z"/>
			</defs>
			<linearGradient id="XMLID_7_" gradientUnits="userSpaceOnUse" x1="493.2998" y1="659.9502" x2="715.0109" y2="659.9502">
				<stop  offset="0.2863" style="stop-color:#125389"/>
				<stop  offset="0.4192" style="stop-color:#13599A"/>
				<stop  offset="0.6069" style="stop-color:#1460AB"/>
				<stop  offset="0.7454" style="stop-color:#1462B1"/>
			</linearGradient>
			<use xlink:href="#XMLID_35_"  style="overflow:visible;fill:url(#XMLID_7_);"/>
			<clipPath id="XMLID_8_">
				<use xlink:href="#XMLID_35_"  style="overflow:visible;"/>
			</clipPath>
			
				<line style="clip-path:url(#XMLID_8_);fill:none;stroke:#FFFFFF;stroke-width:4;stroke-miterlimit:10;" x1="555.357" y1="709.924" x2="699.198" y2="577.822"/>
			
				<line style="clip-path:url(#XMLID_8_);fill:none;stroke:#FFFFFF;stroke-width:4;stroke-miterlimit:10;" x1="715.011" y1="647.583" x2="645.119" y2="539.425"/>
			
				<line style="clip-path:url(#XMLID_8_);fill:none;stroke:#FFFFFF;stroke-width:4;stroke-miterlimit:10;" x1="704.455" y1="665.609" x2="629.346" y2="547.411"/>
		</g>
		<g style="display:inline;">
			<defs>
				<path id="XMLID_33_" d="M522.125,491.46l-51.331,146.359c0,0-17.954,60.588,34.622,81.619
					c52.577,21.031,153.223,63.592,153.223,63.592l40.559-74.609l-115.68-83.371c0,0,65.357-65.345,34.241-131.695L522.125,491.46z"
					/>
			</defs>
			<linearGradient id="XMLID_9_" gradientUnits="userSpaceOnUse" x1="467.8368" y1="637.2449" x2="699.1976" y2="637.2449">
				<stop  offset="0.2863" style="stop-color:#115EAA"/>
				<stop  offset="0.4243" style="stop-color:#1967BC"/>
				<stop  offset="0.6091" style="stop-color:#2171CD"/>
				<stop  offset="0.7454" style="stop-color:#2474D3"/>
			</linearGradient>
			<use xlink:href="#XMLID_33_"  style="overflow:visible;fill:url(#XMLID_9_);"/>
			<clipPath id="XMLID_10_">
				<use xlink:href="#XMLID_33_"  style="overflow:visible;"/>
			</clipPath>
			<path style="clip-path:url(#XMLID_10_);fill:none;stroke:#FFFFFF;stroke-width:4;stroke-miterlimit:10;" d="M582.362,476.25
				l-55.23,154.809c0,0-10.701,22.783,31.611,45.066l130.69,74.358"/>
			
				<line style="clip-path:url(#XMLID_10_);fill:none;stroke:#FFFFFF;stroke-width:4;stroke-miterlimit:10;" x1="693.69" y1="688.893" x2="640.612" y2="786.034"/>
			
				<line style="clip-path:url(#XMLID_10_);fill:none;stroke:#FFFFFF;stroke-width:4;stroke-miterlimit:10;" x1="681.309" y1="681.157" x2="626.046" y2="786.811"/>
		</g>
		<path style="display:inline;fill:#FFBFB0;" d="M442.433,371.771c0,0-13.873-36.699-9.997-47.449c0,0,3.528-8.757,13.648,15.592
			c0,0-10.797-25.742-6.194-29.398s13.6,19.011,15.052,27.724c0,0-7.285-27.057,0.185-26.329c7.47,0.729,8.844,16.355,10.451,23.986
			c0,0-1.217-16.706,3.985-15.698c5.202,1.008,8.564,6.035,10.581,30.183s0.663,21.363,0.663,21.363l-33.536,12.055L442.433,371.771
			z"/>
		<g style="display:inline;">
			<defs>
				<path id="XMLID_37_" d="M669.395,453.244l-52.088-67.361c-5.057-6.54-13.159-9.419-20.821-8.193h-66.909
					c-6.701,0-12.6,3.544-15.959,8.84c-1.959,1.905-3.592,4.204-4.752,6.851l-8.469,19.326l-12.297-57.253l-61.15,17.209
					l44.54,113.737c2.792,11.703,14.651,18.993,26.353,16.202l0,0c2.673-0.638,5.113-1.753,7.258-3.227
					c2.784-1.496,5.257-3.595,7.198-6.21c0.933,0.889,2.188,1.445,3.571,1.445h98.518c2.857,0,5.195-2.338,5.195-5.195v-29.071
					l15.204,19.662c7.359,9.517,21.168,11.283,30.685,3.923v0C674.989,476.57,676.754,462.762,669.395,453.244z"/>
			</defs>
			<linearGradient id="XMLID_11_" gradientUnits="userSpaceOnUse" x1="550.6395" y1="544.5047" x2="550.2543" y2="297.513">
				<stop  offset="0.2863" style="stop-color:#F79A34"/>
				<stop  offset="0.3765" style="stop-color:#F9AB3F"/>
				<stop  offset="0.5562" style="stop-color:#FCC752"/>
				<stop  offset="0.713" style="stop-color:#FED95E"/>
				<stop  offset="0.8282" style="stop-color:#FFDF62"/>
			</linearGradient>
			<use xlink:href="#XMLID_37_"  style="overflow:visible;fill:url(#XMLID_11_);"/>
			<clipPath id="XMLID_12_">
				<use xlink:href="#XMLID_37_"  style="overflow:visible;"/>
			</clipPath>
			<polygon style="clip-path:url(#XMLID_12_);fill:#FF9245;" points="617.328,452.299 597.8,406.232 611.32,454.597 			"/>
			<g style="clip-path:url(#XMLID_12_);">
				<path style="fill:#FF9245;" d="M500.834,405.576c0.67,3.248,0.943,6.477,1.096,9.7c0.137,3.222,0.116,6.437-0.038,9.644
					c-0.153,3.208-0.447,6.409-0.896,9.603c-0.465,3.193-1.052,6.38-2.04,9.547c-0.676-3.248-0.95-6.477-1.101-9.7
					c-0.136-3.222-0.117-6.437,0.043-9.644c0.159-3.208,0.452-6.409,0.901-9.602C499.266,411.931,499.851,408.744,500.834,405.576z"
					/>
			</g>
			<polygon style="clip-path:url(#XMLID_12_);fill:#FF9245;" points="511.675,501.37 518.685,428.264 519.686,501.37 			"/>
			<path style="clip-path:url(#XMLID_12_);fill:#FF9245;" d="M608.315,432.945c0,0,55.205,12.594,62.904,19.918l7.135,15.21
				l-66.284-30.795L608.315,432.945z"/>
		</g>
		<path style="display:inline;fill:#FFBFB0;" d="M591.35,442.259c0,0-32.799-12.089-35.963-8.722c0,0-4.936,1.9,9.111,7.342
			c0,0,5.004,1.999-5.867,1.579s-18.332-7.982-21.115-2.651c0,0,0.711,7.319,18.936,11.768c0,0-30.343-4.784-28.937-0.523
			c0,0-5.732,4.983,27.137,11.945c0,0-15.905-3.945-15.605,0.499c0.3,4.444,14.178,5.627,43.314,12.754L591.35,442.259z"/>
		<path style="display:inline;fill:#FFDF62;" d="M674.329,474.31L674.329,474.31c-2.598,11.747-14.335,19.233-26.082,16.635
			l-78.285-4.633l13.269-60.003l74.463,21.919C669.441,450.826,676.927,462.563,674.329,474.31z"/>
		<path style="display:inline;fill:none;stroke:#FFFFFF;stroke-width:2;stroke-linecap:round;stroke-miterlimit:10;" d="
			M547.477,499.242c0,0-12.648,12.393,6.069,36.804"/>
	</g>
	<g style="clip-path:url(#XMLID_3_);">
		<radialGradient id="SVGID_19_" cx="256.227" cy="219.8661" r="83.109" gradientUnits="userSpaceOnUse">
			<stop  offset="0" style="stop-color:#FFFFFF"/>
			<stop  offset="1" style="stop-color:#FFFFFF;stop-opacity:0"/>
		</radialGradient>
		<circle style="fill:url(#SVGID_19_);" cx="256.227" cy="219.866" r="83.109"/>
		
			<linearGradient id="SVGID_20_" gradientUnits="userSpaceOnUse" x1="423.0209" y1="41.8474" x2="547.3253" y2="41.8474" gradientTransform="matrix(0.9164 0.4003 -0.4003 0.9164 -171.6206 -12.7077)">
			<stop  offset="0" style="stop-color:#F585A1"/>
			<stop  offset="0.4385" style="stop-color:#50A5DE"/>
			<stop  offset="1" style="stop-color:#F6CD81"/>
		</linearGradient>
		<circle style="fill:url(#SVGID_20_);" cx="256.227" cy="219.866" r="62.152"/>
	</g>
	<g style="clip-path:url(#XMLID_3_);">
		<linearGradient id="SVGID_21_" gradientUnits="userSpaceOnUse" x1="228.8789" y1="566.6401" x2="229.0426" y2="591.0604">
			<stop  offset="0.357" style="stop-color:#D3EEC3"/>
			<stop  offset="0.4879" style="stop-color:#E2F4D8"/>
			<stop  offset="0.6676" style="stop-color:#F2FAED"/>
			<stop  offset="0.8411" style="stop-color:#FCFEFB"/>
			<stop  offset="1" style="stop-color:#FFFFFF"/>
		</linearGradient>
		<path style="fill:url(#SVGID_21_);" d="M230.884,589.819l-4.626-4.187c-0.297-0.268-0.664-0.446-1.059-0.512l-6.154-1.029
			c-1.631-0.273-2.316-2.241-1.206-3.467l4.187-4.626c0.268-0.297,0.446-0.664,0.512-1.059l1.029-6.154
			c0.273-1.631,2.241-2.316,3.467-1.206l4.626,4.187c0.297,0.268,0.664,0.446,1.059,0.512l6.154,1.029
			c1.631,0.273,2.316,2.241,1.206,3.467l-4.187,4.626c-0.268,0.297-0.446,0.664-0.512,1.059l-1.029,6.154
			C234.079,590.244,232.111,590.929,230.884,589.819z"/>
		<linearGradient id="SVGID_22_" gradientUnits="userSpaceOnUse" x1="752.8004" y1="684.5696" x2="752.881" y2="696.5907">
			<stop  offset="0.357" style="stop-color:#D3EEC3"/>
			<stop  offset="0.4879" style="stop-color:#E2F4D8"/>
			<stop  offset="0.6676" style="stop-color:#F2FAED"/>
			<stop  offset="0.8411" style="stop-color:#FCFEFB"/>
			<stop  offset="1" style="stop-color:#FFFFFF"/>
		</linearGradient>
		<path style="fill:url(#SVGID_22_);" d="M753.788,695.98l-2.277-2.061c-0.146-0.132-0.327-0.22-0.521-0.252l-3.029-0.507
			c-0.803-0.134-1.14-1.103-0.594-1.707l2.061-2.277c0.132-0.146,0.22-0.327,0.252-0.521l0.507-3.03
			c0.134-0.803,1.103-1.14,1.707-0.594l2.277,2.061c0.146,0.132,0.327,0.22,0.521,0.252l3.03,0.507
			c0.803,0.134,1.14,1.103,0.594,1.707l-2.061,2.277c-0.132,0.146-0.22,0.327-0.252,0.521l-0.507,3.03
			C755.36,696.189,754.391,696.526,753.788,695.98z"/>
		
			<linearGradient id="SVGID_23_" gradientUnits="userSpaceOnUse" x1="776.8054" y1="-169.6684" x2="777.0327" y2="-135.7488" gradientTransform="matrix(0.7071 0.7071 -0.7071 0.7071 -410.9023 -110.1874)">
			<stop  offset="0.357" style="stop-color:#D3EEC3"/>
			<stop  offset="0.4879" style="stop-color:#E2F4D8"/>
			<stop  offset="0.6676" style="stop-color:#F2FAED"/>
			<stop  offset="0.8411" style="stop-color:#FCFEFB"/>
			<stop  offset="1" style="stop-color:#FFFFFF"/>
		</linearGradient>
		<path style="fill:url(#SVGID_23_);" d="M237.56,343.858l-0.432-8.656c-0.028-0.555-0.214-1.091-0.537-1.543l-5.034-7.056
			c-1.334-1.87-0.073-4.476,2.221-4.59l8.656-0.432c0.555-0.028,1.091-0.214,1.543-0.537l7.056-5.034
			c1.87-1.334,4.476-0.073,4.59,2.221l0.432,8.656c0.028,0.555,0.214,1.091,0.537,1.543l5.034,7.056
			c1.334,1.87,0.073,4.476-2.221,4.59l-8.656,0.432c-0.555,0.028-1.091,0.214-1.543,0.537l-7.056,5.034
			C240.28,347.414,237.674,346.153,237.56,343.858z"/>
		<circle style="opacity:0.35;fill:#FFFFFF;" cx="408.994" cy="201.659" r="1.661"/>
		<circle style="opacity:0.33;fill:#FFFFFF;" cx="234.099" cy="456.829" r="2.182"/>
		<circle style="fill:#FFFFFF;" cx="300.313" cy="307.282" r="2.182"/>
		<circle style="fill:#FFFFFF;" cx="422.76" cy="279.986" r="0.593"/>
		<circle style="opacity:0.38;fill:#FFFFFF;" cx="645.159" cy="536.093" r="2.182"/>
		<circle style="fill:#FFFFFF;" cx="326.157" cy="705.09" r="3.086"/>
		<circle style="fill:#FFFFFF;" cx="208.606" cy="533.007" r="1.395"/>
		<circle style="fill:#FFFFFF;" cx="519.601" cy="204.745" r="1.172"/>
		<circle style="fill:#FFFFFF;" cx="284.62" cy="567.034" r="0.504"/>
		<circle style="opacity:0.5;fill:#FFFFFF;" cx="350.633" cy="240.111" r="3.086"/>
		<circle style="fill:#FFFFFF;" cx="479.429" cy="747.883" r="1.068"/>
		<circle style="opacity:0.29;fill:#FFFFFF;" cx="386.588" cy="708.175" r="2.182"/>
		<circle style="fill:#FFFFFF;" cx="730.61" cy="483.874" r="1.146"/>
		<circle style="fill:#FFFFFF;" cx="522.687" cy="796.471" r="1.543"/>
		<circle style="fill:#FFFFFF;" cx="443.173" cy="774.872" r="0.712"/>
		<circle style="opacity:0.42;fill:#FFFFFF;" cx="217.296" cy="708.175" r="3.95"/>
		<circle style="opacity:0.42;fill:#FFFFFF;" cx="440.087" cy="650.023" r="1.201"/>
		<circle style="fill:#FFFFFF;" cx="425.846" cy="617.98" r="1.543"/>
		<circle style="opacity:0.26;fill:#FFFFFF;" cx="205.106" cy="440.913" r="1.068"/>
		<circle style="fill:#FFFFFF;" cx="188.491" cy="487.91" r="1.365"/>
		<circle style="fill:#FFFFFF;" cx="687.886" cy="487.91" r="1.78"/>
		<circle style="fill:#FFFFFF;" cx="630.209" cy="286.158" r="2.182"/>
		<circle style="opacity:0.43;fill:#FFFFFF;" cx="648.96" cy="411.718" r="3.086"/>
		<circle style="fill:#FFFFFF;" cx="652.046" cy="358.314" r="1.305"/>
		<circle style="fill:#FFFFFF;" cx="231.014" cy="398.901" r="1.643"/>
		<circle style="fill:#FFFFFF;" cx="191.576" cy="373.03" r="2.182"/>
		<circle style="fill:#FFFFFF;" cx="491.356" cy="246.282" r="1.424"/>
		<circle style="opacity:0.49;fill:#FFFFFF;" cx="217.296" cy="304.197" r="1.382"/>
	</g>
</g>
</svg>
