<?xml version="1.0" encoding="iso-8859-1"?>
<!-- Generator: Adobe Illustrator 23.0.2, SVG Export Plug-In . SVG Version: 6.00 Build 0)  -->
<svg version="1.1" id="&#x56FE;&#x5C42;_1" xmlns="http://www.w3.org/2000/svg" xmlns:xlink="http://www.w3.org/1999/xlink" x="0px"
	 y="0px" viewBox="0 0 1000 1000" style="enable-background:new 0 0 1000 1000;" xml:space="preserve">
<g>
	<defs>
		<path id="XMLID_53_" d="M220.248,624.938c0,0-9.196-64.187-3.5-111.896c0,0-33.609-4.333-48.856-11.903
			c-7.103-3.527-9.772-12.278-5.915-19.208c4.862-8.734,19.106-30.334,26.346-49.489c5.783-15.298,24.518-65.308,20.582-91.231
			c-10.257-67.559,10.406-91.079,10.406-91.079s-88.31-90.108,156.939-107.365c143.026-10.064,197.242,2.848,254.207,90.432
			c0,0,25.634,51.981,49.133,163.063c0,0,7.833,64.086,42.012,81.888c34.179,17.802,106.098,66.934,98.977,143.125h-29.195
			c0,0,2.136,27.058,41.3,54.829c39.164,27.771,70.495,46.284,67.646,117.491H346.344c0,0,17.802-119.627-34.891-131.02
			C258.76,651.183,224.995,672.409,220.248,624.938z"/>
	</defs>
	<linearGradient id="XMLID_2_" gradientUnits="userSpaceOnUse" x1="530.3602" y1="793.5961" x2="530.3602" y2="139.8676">
		<stop  offset="0" style="stop-color:#ED6BB2"/>
		<stop  offset="0.1027" style="stop-color:#C452A7"/>
		<stop  offset="0.2829" style="stop-color:#802994"/>
		<stop  offset="0.4137" style="stop-color:#561088"/>
		<stop  offset="0.4804" style="stop-color:#460684"/>
		<stop  offset="0.6649" style="stop-color:#330867"/>
		<stop  offset="1" style="stop-color:#120B35"/>
	</linearGradient>
	<use xlink:href="#XMLID_53_"  style="overflow:visible;fill:url(#XMLID_2_);"/>
	<clipPath id="XMLID_3_">
		<use xlink:href="#XMLID_53_"  style="overflow:visible;"/>
	</clipPath>
	
		<linearGradient id="SVGID_1_" gradientUnits="userSpaceOnUse" x1="1567.5941" y1="477.0341" x2="1500.673" y2="218.9179" gradientTransform="matrix(-1 0 0 1 1806.6646 0)">
		<stop  offset="0.3197" style="stop-color:#FFFFFF;stop-opacity:0"/>
		<stop  offset="0.4053" style="stop-color:#FDF9FA;stop-opacity:0.0881"/>
		<stop  offset="0.5225" style="stop-color:#F9E7EE;stop-opacity:0.2087"/>
		<stop  offset="0.658" style="stop-color:#F1CAD9;stop-opacity:0.348"/>
		<stop  offset="0.8071" style="stop-color:#E7A2BC;stop-opacity:0.5016"/>
		<stop  offset="0.9658" style="stop-color:#D96F97;stop-opacity:0.6648"/>
		<stop  offset="1" style="stop-color:#D6638E;stop-opacity:0.7"/>
	</linearGradient>
	<path style="clip-path:url(#XMLID_3_);fill:url(#SVGID_1_);" d="M185.31,204.189c26.555,0,49.21,16.648,58.132,40.07
		c3.672-0.673,7.45-1.043,11.316-1.043c28.701,0,52.858,19.393,60.123,45.785c9.289-7.31,20.998-11.684,33.736-11.684
		c28.818,0,52.406,22.327,54.45,50.625c2.835-0.891,5.852-1.373,8.981-1.373c16.526,0,29.923,13.397,29.923,29.923
		c0,16.526-13.397,29.923-29.923,29.923c-11.039,0-20.674-5.981-25.861-14.876c-9.79,9.288-23.009,14.998-37.57,14.998
		c-23.438,0-43.42-14.768-51.167-35.505c-11.159,10.487-26.17,16.923-42.693,16.923c-26.701,0-49.473-16.784-58.368-40.373
		c-3.598,0.647-7.296,1.004-11.08,1.004c-34.352,0-62.199-27.847-62.199-62.199S150.959,204.189,185.31,204.189z"/>
	
		<linearGradient id="SVGID_2_" gradientUnits="userSpaceOnUse" x1="1158.946" y1="381.4756" x2="1190.9044" y2="218.5213" gradientTransform="matrix(-1 0 0 1 1806.6646 0)">
		<stop  offset="0.3197" style="stop-color:#FFFFFF;stop-opacity:0"/>
		<stop  offset="0.4053" style="stop-color:#FDF9FA;stop-opacity:0.0755"/>
		<stop  offset="0.5225" style="stop-color:#F9E7EE;stop-opacity:0.1789"/>
		<stop  offset="0.658" style="stop-color:#F1CAD9;stop-opacity:0.2983"/>
		<stop  offset="0.8071" style="stop-color:#E7A2BC;stop-opacity:0.4299"/>
		<stop  offset="0.9658" style="stop-color:#D96F97;stop-opacity:0.5698"/>
		<stop  offset="1" style="stop-color:#D6638E;stop-opacity:0.6"/>
	</linearGradient>
	<path style="clip-path:url(#XMLID_3_);fill:url(#SVGID_2_);" d="M542.751,246.656c17.632,0,33.676,6.775,45.69,17.855
		c10.607-11.797,25.982-19.22,43.096-19.22c5.858,0,11.509,0.877,16.839,2.494c7.622-29.752,34.611-51.745,66.74-51.745
		c38.048,0,68.892,30.844,68.892,68.892s-30.844,68.892-68.892,68.892c-10.988,0-21.367-2.585-30.583-7.16
		c-9,20.327-29.335,34.515-52.995,34.515c-12.05,0-23.239-3.681-32.51-9.976c-12.065,18.252-32.759,30.299-56.276,30.299
		c-37.237,0-67.424-30.187-67.424-67.424S505.514,246.656,542.751,246.656z"/>
	<linearGradient id="SVGID_3_" gradientUnits="userSpaceOnUse" x1="607.0597" y1="577.4542" x2="540.1384" y2="319.3379">
		<stop  offset="0.3197" style="stop-color:#FFFFFF;stop-opacity:0"/>
		<stop  offset="0.4053" style="stop-color:#FDF9FA;stop-opacity:0.1258"/>
		<stop  offset="0.5225" style="stop-color:#F9E7EE;stop-opacity:0.2981"/>
		<stop  offset="0.658" style="stop-color:#F1CAD9;stop-opacity:0.4972"/>
		<stop  offset="0.8071" style="stop-color:#E7A2BC;stop-opacity:0.7165"/>
		<stop  offset="0.9658" style="stop-color:#D96F97;stop-opacity:0.9497"/>
		<stop  offset="1" style="stop-color:#D6638E"/>
	</linearGradient>
	<path style="clip-path:url(#XMLID_3_);fill:url(#SVGID_3_);" d="M660.82,304.609c-26.555,0-49.21,16.648-58.132,40.07
		c-3.672-0.673-7.45-1.043-11.316-1.043c-28.701,0-52.858,19.393-60.123,45.785c-9.289-7.31-20.998-11.684-33.736-11.684
		c-28.818,0-52.406,22.327-54.45,50.625c-2.835-0.891-5.852-1.373-8.981-1.373c-16.526,0-29.923,13.397-29.923,29.923
		c0,16.526,13.397,29.923,29.923,29.923c11.039,0,20.674-5.981,25.861-14.876c9.79,9.288,23.009,14.998,37.57,14.998
		c23.438,0,43.42-14.768,51.167-35.505c11.159,10.487,26.17,16.923,42.693,16.923c26.701,0,49.473-16.784,58.368-40.373
		c3.598,0.647,7.296,1.004,11.08,1.004c34.352,0,62.199-27.847,62.199-62.199S695.171,304.609,660.82,304.609z"/>
	<linearGradient id="SVGID_4_" gradientUnits="userSpaceOnUse" x1="238.2966" y1="482.791" x2="305.8109" y2="331.0766">
		<stop  offset="0.3197" style="stop-color:#FFFFFF;stop-opacity:0"/>
		<stop  offset="0.4053" style="stop-color:#FDF9FA;stop-opacity:0.1258"/>
		<stop  offset="0.5225" style="stop-color:#F9E7EE;stop-opacity:0.2981"/>
		<stop  offset="0.658" style="stop-color:#F1CAD9;stop-opacity:0.4972"/>
		<stop  offset="0.8071" style="stop-color:#E7A2BC;stop-opacity:0.7165"/>
		<stop  offset="0.9658" style="stop-color:#D96F97;stop-opacity:0.9497"/>
		<stop  offset="1" style="stop-color:#D6638E"/>
	</linearGradient>
	<path style="clip-path:url(#XMLID_3_);fill:url(#SVGID_4_);" d="M364.368,352.11c-17.632,0-33.676,6.775-45.69,17.855
		c-10.607-11.797-25.982-19.22-43.096-19.22c-5.858,0-11.509,0.877-16.839,2.494c-7.622-29.752-34.611-51.745-66.74-51.745
		c-38.048,0-68.892,30.844-68.892,68.892s30.844,68.892,68.892,68.892c10.988,0,21.367-2.585,30.583-7.16
		c9,20.327,29.335,34.515,52.995,34.515c12.05,0,23.239-3.681,32.51-9.976c12.065,18.252,32.759,30.299,56.276,30.299
		c37.237,0,67.424-30.187,67.424-67.424S401.605,352.11,364.368,352.11z"/>
	<circle style="opacity:0.08;clip-path:url(#XMLID_3_);fill:#FFFFFF;" cx="478.09" cy="486.957" r="202.845"/>
	<circle style="opacity:0.08;clip-path:url(#XMLID_3_);fill:#FFFFFF;" cx="478.09" cy="486.957" r="168.515"/>
	<radialGradient id="SVGID_5_" cx="478.0902" cy="486.9575" r="185.8354" gradientUnits="userSpaceOnUse">
		<stop  offset="0" style="stop-color:#FFFFFF"/>
		<stop  offset="1" style="stop-color:#FFFFFF;stop-opacity:0"/>
	</radialGradient>
	<circle style="clip-path:url(#XMLID_3_);fill:url(#SVGID_5_);" cx="478.09" cy="486.957" r="185.835"/>
	<circle style="clip-path:url(#XMLID_3_);fill:#FFFFFF;" cx="478.09" cy="486.957" r="151.904"/>
	<g style="clip-path:url(#XMLID_3_);">
		<linearGradient id="SVGID_6_" gradientUnits="userSpaceOnUse" x1="557.8372" y1="652.992" x2="557.8372" y2="564.9741">
			<stop  offset="0.0056" style="stop-color:#C56E91"/>
			<stop  offset="0.1857" style="stop-color:#B96CAD"/>
			<stop  offset="0.3641" style="stop-color:#AF6AC2"/>
			<stop  offset="0.4809" style="stop-color:#AC69CA"/>
			<stop  offset="0.9671" style="stop-color:#9155B5;stop-opacity:0.438"/>
			<stop  offset="1" style="stop-color:#8F53B3;stop-opacity:0.4"/>
		</linearGradient>
		<path style="opacity:0.29;fill:url(#SVGID_6_);" d="M443.089,602.561c0,0,30.264-4.558,43.294-2.507
			c13.029,2.052,17.953,1.949,19.8,1.847c1.847-0.103,13.234,1.128,19.903,6.053c6.668,4.924,32.111-5.258,38.882-12.734
			c6.771-7.476,24.827-18.761,32.214-16.504c7.387,2.257,24.468,7.313,28.931-0.293c4.463-7.607,17.235-20.841,46.474-8.222
			l-3.078,56.63l-144.654,26.161l-75.815-24.006L443.089,602.561z"/>
		<linearGradient id="SVGID_7_" gradientUnits="userSpaceOnUse" x1="443.0491" y1="666.4327" x2="476.3229" y2="576.6413">
			<stop  offset="0.0056" style="stop-color:#FFFFFF"/>
			<stop  offset="0.0949" style="stop-color:#EAD8F1"/>
			<stop  offset="0.2202" style="stop-color:#CFA9E0"/>
			<stop  offset="0.3309" style="stop-color:#BC86D4"/>
			<stop  offset="0.4216" style="stop-color:#B071CD"/>
			<stop  offset="0.4809" style="stop-color:#AC69CA"/>
			<stop  offset="0.7336" style="stop-color:#BF66AF"/>
			<stop  offset="1" style="stop-color:#D6638E"/>
		</linearGradient>
		<path style="opacity:0.96;fill:url(#SVGID_7_);" d="M366.915,592.668c0,0,32.265,4.104,51.142,0
			c18.877-4.104,32.419-7.022,43.088,6.543c10.669,13.565,18.877,1.254,25.032,6.589c6.155,5.335,33.65,34.676,52.527,37.856
			l2.873,36.112L485.767,685l-129.265-56.015L366.915,592.668z"/>
		<linearGradient id="SVGID_8_" gradientUnits="userSpaceOnUse" x1="590.0389" y1="679.7683" x2="590.0389" y2="584.9852">
			<stop  offset="0.0056" style="stop-color:#FFFFFF"/>
			<stop  offset="0.0949" style="stop-color:#EAD8F1"/>
			<stop  offset="0.2202" style="stop-color:#CFA9E0"/>
			<stop  offset="0.3309" style="stop-color:#BC86D4"/>
			<stop  offset="0.4216" style="stop-color:#B071CD"/>
			<stop  offset="0.4809" style="stop-color:#AC69CA"/>
			<stop  offset="0.7336" style="stop-color:#BF66AF"/>
			<stop  offset="1" style="stop-color:#D6638E"/>
		</linearGradient>
		<path style="fill:url(#SVGID_8_);" d="M518.391,679.768c0,0-7.387-39.395,38.78-57.862s42.165-24.314,47.705-30.777
			c5.54-6.463,10.156,2.462,17.235,1.847s11.695-2.154,16.312-6.155c4.617-4.001,21.852-0.616,23.699,2.154l-27.084,74.481
			L518.391,679.768z"/>
		<linearGradient id="SVGID_9_" gradientUnits="userSpaceOnUse" x1="366.9148" y1="667.1496" x2="366.9148" y2="531.2731">
			<stop  offset="0.0056" style="stop-color:#C56E91"/>
			<stop  offset="0.1857" style="stop-color:#B96CAD"/>
			<stop  offset="0.3641" style="stop-color:#AF6AC2"/>
			<stop  offset="0.4809" style="stop-color:#AC69CA"/>
			<stop  offset="0.9671" style="stop-color:#9155B5;stop-opacity:0.438"/>
			<stop  offset="1" style="stop-color:#8F53B3;stop-opacity:0.4"/>
		</linearGradient>
		<path style="fill:url(#SVGID_9_);" d="M271.761,534.191c0,0,36.522-6.566,47.397,0c10.875,6.566,19.287,20.723,26.263,21.955
			c6.976,1.231,22.16,19.082,30.162,33.445c8.002,14.363,44.319,40.934,55.399,44.319c11.08,3.385,28.007,18.774,34.163,33.24
			l-196.462-15.799L271.761,534.191z"/>
		<linearGradient id="SVGID_10_" gradientUnits="userSpaceOnUse" x1="263.1455" y1="581.8904" x2="312.6722" y2="489.702">
			<stop  offset="0" style="stop-color:#FFFFFF;stop-opacity:0.6"/>
			<stop  offset="0.018" style="stop-color:#FAF5FC;stop-opacity:0.6164"/>
			<stop  offset="0.1203" style="stop-color:#DEC4EA;stop-opacity:0.7096"/>
			<stop  offset="0.217" style="stop-color:#C89CDC;stop-opacity:0.7976"/>
			<stop  offset="0.3052" style="stop-color:#B980D2;stop-opacity:0.8779"/>
			<stop  offset="0.3822" style="stop-color:#AF6FCC;stop-opacity:0.948"/>
			<stop  offset="0.4393" style="stop-color:#AC69CA"/>
			<stop  offset="0.76" style="stop-color:#A984DA"/>
			<stop  offset="1" style="stop-color:#A79BE7"/>
		</linearGradient>
		<path style="fill:url(#SVGID_10_);" d="M187.021,484.742c0,0,11.49-10.669,20.929-8.207c9.438,2.462,15.184,2.052,21.339,17.235
			c0,0,1.334,2.719,8.105,2.257c6.771-0.462,10.926,7.387,15.235,15.543c4.309,8.156,4.463,7.079,15.85,12.003
			s15.081,2.924,34.471,26.622c19.39,23.699,20.005,18.159,29.854,25.237s34.163,37.548,40.318,53.553l-228.06-79.098
			L187.021,484.742z"/>
		<linearGradient id="SVGID_11_" gradientUnits="userSpaceOnUse" x1="732.1276" y1="636.6735" x2="640.5368" y2="449.8633">
			<stop  offset="0" style="stop-color:#FFFFFF;stop-opacity:0.6"/>
			<stop  offset="0.0904" style="stop-color:#EAD8F1;stop-opacity:0.6752"/>
			<stop  offset="0.2172" style="stop-color:#CFA9E0;stop-opacity:0.7806"/>
			<stop  offset="0.3292" style="stop-color:#BC86D4;stop-opacity:0.8738"/>
			<stop  offset="0.4209" style="stop-color:#B071CD;stop-opacity:0.9501"/>
			<stop  offset="0.4809" style="stop-color:#AC69CA"/>
			<stop  offset="0.7779" style="stop-color:#A984DA"/>
			<stop  offset="1" style="stop-color:#A79BE7"/>
		</linearGradient>
		<path style="fill:url(#SVGID_11_);" d="M801.748,449.861c0,0-27.289,19.698-36.061,29.546c-8.772,9.849-19.544,24.16-27.7,28.931
			c-8.156,4.77-20.467,24.93-24.776,32.316c-4.309,7.387-13.542,4.001-20.467,5.232c-6.925,1.231-33.701,28.007-44.781,38.933
			c-11.08,10.926-21.852,18.159-27.854,32.932s-20.467,22.929-25.699,24.93c-5.232,2-13.08,9.079-13.08,15.235l287.307-34.324
			L801.748,449.861z"/>
		<linearGradient id="SVGID_12_" gradientUnits="userSpaceOnUse" x1="335.9334" y1="698.4589" x2="395.3788" y2="519.1063">
			<stop  offset="0" style="stop-color:#FFFFFF;stop-opacity:0.8"/>
			<stop  offset="0.4809" style="stop-color:#9B54B5"/>
			<stop  offset="0.6674" style="stop-color:#B665B9"/>
			<stop  offset="1" style="stop-color:#EF88C0"/>
		</linearGradient>
		<path style="fill:url(#SVGID_12_);" d="M177.172,500.747c0,0,34.06,2.873,66.479,31.188s40.216,29.136,57.861,36.933
			c17.646,7.797,31.598,32.829,53.758,42.268c22.16,9.438,33.65,25.853,56.22,27.084c22.57,1.231,59.503,25.853,69.352,31.188
			c9.849,5.335,62.786,23.801,82.483,19.698H166.913L177.172,500.747z"/>
		<linearGradient id="SVGID_13_" gradientUnits="userSpaceOnUse" x1="748.6764" y1="679.468" x2="682.7914" y2="442.0147">
			<stop  offset="0" style="stop-color:#FFFFFF;stop-opacity:0.8"/>
			<stop  offset="0.4809" style="stop-color:#9B54B5"/>
			<stop  offset="0.6674" style="stop-color:#B665B9"/>
			<stop  offset="1" style="stop-color:#EF88C0"/>
		</linearGradient>
		<path style="fill:url(#SVGID_13_);" d="M610.518,657.916c0,0,42.678-50.475,98.898-70.172
			c56.22-19.698,117.775-82.894,117.775-82.894l29.752,88.434l-190.82,64.633H610.518z"/>
		<linearGradient id="SVGID_14_" gradientUnits="userSpaceOnUse" x1="657.2313" y1="601.7595" x2="704.2557" y2="724.054">
			<stop  offset="0" style="stop-color:#642184"/>
			<stop  offset="0.4353" style="stop-color:#8A54B5"/>
			<stop  offset="0.6135" style="stop-color:#A561B7"/>
			<stop  offset="0.9951" style="stop-color:#EA84BB"/>
			<stop  offset="1" style="stop-color:#EB84BB"/>
		</linearGradient>
		<path style="fill:url(#SVGID_14_);" d="M482.689,689.104c0,0,16.004-18.877,106.49-36.112c0,0,67.095-17.235,102.796-40.011
			s136.652-65.864,157.58-52.322l15.047,128.444H482.689z"/>
		<linearGradient id="SVGID_15_" gradientUnits="userSpaceOnUse" x1="285.7262" y1="617.1664" x2="277.5542" y2="707.6942">
			<stop  offset="0" style="stop-color:#642184"/>
			<stop  offset="0.4353" style="stop-color:#8A54B5"/>
			<stop  offset="0.6135" style="stop-color:#A561B7"/>
			<stop  offset="0.9951" style="stop-color:#EA84BB"/>
			<stop  offset="1" style="stop-color:#EB84BB"/>
		</linearGradient>
		<path style="fill:url(#SVGID_15_);" d="M170.196,689.104h256.068c0,0,19.185-47.5-170.096-75.199
			c0,0-100.027-14.773-116.031-15.696L170.196,689.104z"/>
	</g>
	<g style="clip-path:url(#XMLID_3_);">
		
			<linearGradient id="SVGID_16_" gradientUnits="userSpaceOnUse" x1="264.2803" y1="-1706.8185" x2="313.807" y2="-1799.0068" gradientTransform="matrix(1 0 0 -1 0 -910.9777)">
			<stop  offset="0" style="stop-color:#FFFFFF;stop-opacity:0.6"/>
			<stop  offset="0.018" style="stop-color:#FAF5FC;stop-opacity:0.6164"/>
			<stop  offset="0.1203" style="stop-color:#DEC4EA;stop-opacity:0.7096"/>
			<stop  offset="0.217" style="stop-color:#C89CDC;stop-opacity:0.7976"/>
			<stop  offset="0.3052" style="stop-color:#B980D2;stop-opacity:0.8779"/>
			<stop  offset="0.3822" style="stop-color:#AF6FCC;stop-opacity:0.948"/>
			<stop  offset="0.4393" style="stop-color:#AC69CA"/>
			<stop  offset="0.76" style="stop-color:#A984DA"/>
			<stop  offset="1" style="stop-color:#A79BE7"/>
		</linearGradient>
		<path style="fill:url(#SVGID_16_);" d="M188.156,892.989c0,0,11.49,10.669,20.929,8.207c9.438-2.462,15.184-2.052,21.339-17.235
			c0,0,1.334-2.719,8.105-2.257c6.771,0.462,10.926-7.387,15.235-15.543c4.309-8.156,4.463-7.079,15.85-12.003
			s15.081-2.924,34.471-26.622c19.39-23.699,20.005-18.159,29.854-25.237c9.849-7.079,34.163-37.548,40.318-53.553l-228.06,79.098
			L188.156,892.989z"/>
		
			<linearGradient id="SVGID_17_" gradientUnits="userSpaceOnUse" x1="733.2624" y1="-1652.0353" x2="641.6716" y2="-1838.8455" gradientTransform="matrix(1 0 0 -1 0 -910.9777)">
			<stop  offset="0" style="stop-color:#FFFFFF;stop-opacity:0.6"/>
			<stop  offset="0.0904" style="stop-color:#EAD8F1;stop-opacity:0.6752"/>
			<stop  offset="0.2172" style="stop-color:#CFA9E0;stop-opacity:0.7806"/>
			<stop  offset="0.3292" style="stop-color:#BC86D4;stop-opacity:0.8738"/>
			<stop  offset="0.4209" style="stop-color:#B071CD;stop-opacity:0.9501"/>
			<stop  offset="0.4809" style="stop-color:#AC69CA"/>
			<stop  offset="0.7779" style="stop-color:#A984DA"/>
			<stop  offset="1" style="stop-color:#A79BE7"/>
		</linearGradient>
		<path style="fill:url(#SVGID_17_);" d="M802.883,927.87c0,0-27.289-19.698-36.061-29.546s-19.544-24.16-27.7-28.931
			s-20.467-24.93-24.776-32.316c-4.309-7.387-13.542-4.001-20.467-5.232c-6.925-1.231-33.701-28.007-44.781-38.933
			s-21.852-18.159-27.854-32.932c-6.002-14.773-20.467-22.929-25.699-24.93c-5.232-2.001-13.08-9.079-13.08-15.235l287.307,34.324
			L802.883,927.87z"/>
		
			<linearGradient id="SVGID_18_" gradientUnits="userSpaceOnUse" x1="337.0682" y1="-1590.2499" x2="396.5135" y2="-1769.6025" gradientTransform="matrix(1 0 0 -1 0 -910.9777)">
			<stop  offset="0" style="stop-color:#FFFFFF"/>
			<stop  offset="0.125" style="stop-color:#E6C3D9"/>
			<stop  offset="0.2413" style="stop-color:#D293BB"/>
			<stop  offset="0.343" style="stop-color:#C370A5"/>
			<stop  offset="0.4264" style="stop-color:#BA5B98"/>
			<stop  offset="0.4809" style="stop-color:#B75393"/>
			<stop  offset="0.7489" style="stop-color:#D26DA9"/>
			<stop  offset="1" style="stop-color:#EF88C0"/>
		</linearGradient>
		<path style="fill:url(#SVGID_18_);" d="M178.307,876.985c0,0,34.06-2.873,66.479-31.188s40.216-29.136,57.861-36.933
			c17.646-7.797,31.598-32.829,53.758-42.268c22.16-9.438,33.65-25.853,56.22-27.084c22.57-1.231,59.503-25.853,69.352-31.188
			c9.849-5.335,62.786-23.801,82.483-19.698H168.048L178.307,876.985z"/>
		
			<linearGradient id="SVGID_19_" gradientUnits="userSpaceOnUse" x1="798.0616" y1="-1618.1653" x2="732.2924" y2="-1855.2013" gradientTransform="matrix(1 0 0 -1 0 -910.9777)">
			<stop  offset="0" style="stop-color:#FFFFFF;stop-opacity:0.8"/>
			<stop  offset="0.4809" style="stop-color:#B75393"/>
			<stop  offset="0.7489" style="stop-color:#D26DA9"/>
			<stop  offset="1" style="stop-color:#EF88C0"/>
		</linearGradient>
		<path style="fill:url(#SVGID_19_);" d="M611.653,719.815c0,0,42.678,50.475,98.898,70.172
			c56.22,19.698,215.289,105.219,215.289,105.219l30.619-99.689l-289.202-75.702H611.653z"/>
		
			<linearGradient id="SVGID_20_" gradientUnits="userSpaceOnUse" x1="716.581" y1="-1599.6047" x2="716.581" y2="-1738.6378" gradientTransform="matrix(1 0 0 -1 0 -910.9777)">
			<stop  offset="0" style="stop-color:#3D2147"/>
			<stop  offset="0.0267" style="stop-color:#48254E"/>
			<stop  offset="0.1594" style="stop-color:#77396B"/>
			<stop  offset="0.2766" style="stop-color:#9A4781"/>
			<stop  offset="0.3725" style="stop-color:#AF508E"/>
			<stop  offset="0.4353" style="stop-color:#B75393"/>
			<stop  offset="0.747" style="stop-color:#D26CA8"/>
			<stop  offset="1" style="stop-color:#EB84BB"/>
		</linearGradient>
		<path style="fill:url(#SVGID_20_);" d="M483.824,688.627c0,0,16.004,18.877,106.49,36.112c0,0,67.095,17.235,102.796,40.011
			s235.299,74.216,256.228,60.674l-64.086-136.796H483.824z"/>
		
			<linearGradient id="SVGID_21_" gradientUnits="userSpaceOnUse" x1="284.6076" y1="-1599.6047" x2="284.6076" y2="-1690.5006" gradientTransform="matrix(1 0 0 -1 0 -910.9777)">
			<stop  offset="0" style="stop-color:#3D2147"/>
			<stop  offset="0.0267" style="stop-color:#48254E"/>
			<stop  offset="0.1594" style="stop-color:#77396B"/>
			<stop  offset="0.2766" style="stop-color:#9A4781"/>
			<stop  offset="0.3725" style="stop-color:#AF508E"/>
			<stop  offset="0.4353" style="stop-color:#B75393"/>
			<stop  offset="0.747" style="stop-color:#D26CA8"/>
			<stop  offset="1" style="stop-color:#EB84BB"/>
		</linearGradient>
		<path style="fill:url(#SVGID_21_);" d="M171.331,688.627h256.068c0,0,19.185,47.5-170.096,75.199
			c0,0-100.026,14.773-116.031,15.696L171.331,688.627z"/>
	</g>
	<linearGradient id="SVGID_22_" gradientUnits="userSpaceOnUse" x1="620.4493" y1="665.2289" x2="614.0999" y2="917.8495">
		<stop  offset="0" style="stop-color:#8929D3"/>
		<stop  offset="0.1762" style="stop-color:#7123B3;stop-opacity:0.8238"/>
		<stop  offset="0.5693" style="stop-color:#3E166F;stop-opacity:0.4307"/>
		<stop  offset="0.8544" style="stop-color:#1E0E45;stop-opacity:0.1456"/>
		<stop  offset="1" style="stop-color:#120B35;stop-opacity:0"/>
	</linearGradient>
	<polygon style="clip-path:url(#XMLID_3_);fill:url(#SVGID_22_);" points="237.984,688.165 875.995,688.165 997.047,875.753 
		888.813,897.115 296.374,878.601 	"/>
	<circle style="clip-path:url(#XMLID_3_);fill:#EFF0E2;" cx="393.697" cy="497.733" r="33.111"/>
	<circle style="clip-path:url(#XMLID_3_);fill:#EFF0E2;" cx="451.018" cy="561.8" r="20.65"/>
	<circle style="clip-path:url(#XMLID_3_);fill:#EFF0E2;" cx="464.66" cy="499.887" r="12.93"/>
	
		<linearGradient id="SVGID_23_" gradientUnits="userSpaceOnUse" x1="-1009.5286" y1="160.761" x2="-1008.4245" y2="325.5033" gradientTransform="matrix(0.5488 -0.836 -0.836 -0.5488 1173.0229 -526.7954)">
		<stop  offset="0.357" style="stop-color:#E9ABE4"/>
		<stop  offset="0.4183" style="stop-color:#EDB9E9;stop-opacity:0.9046"/>
		<stop  offset="0.5719" style="stop-color:#F5D8F2;stop-opacity:0.6658"/>
		<stop  offset="0.7225" style="stop-color:#FAEDF9;stop-opacity:0.4316"/>
		<stop  offset="0.8673" style="stop-color:#FEFBFE;stop-opacity:0.2063"/>
		<stop  offset="1" style="stop-color:#FFFFFF;stop-opacity:0"/>
	</linearGradient>
	<path style="clip-path:url(#XMLID_3_);fill:url(#SVGID_23_);" d="M351.915,143.598l122.594,85.58
		c2.677,1.757,6.306,1.005,8.063-1.672l0,0c1.757-2.677,1.005-6.306-1.672-8.063l-127.279-78.444
		C350.944,139.242,349.238,141.841,351.915,143.598z"/>
	
		<linearGradient id="SVGID_24_" gradientUnits="userSpaceOnUse" x1="-1144.9515" y1="42.646" x2="-1143.8474" y2="207.3884" gradientTransform="matrix(0.5488 -0.836 -0.836 -0.5488 1173.0229 -526.7954)">
		<stop  offset="0.357" style="stop-color:#E9ABE4"/>
		<stop  offset="0.4183" style="stop-color:#EDB9E9;stop-opacity:0.9046"/>
		<stop  offset="0.5719" style="stop-color:#F5D8F2;stop-opacity:0.6658"/>
		<stop  offset="0.7225" style="stop-color:#FAEDF9;stop-opacity:0.4316"/>
		<stop  offset="0.8673" style="stop-color:#FEFBFE;stop-opacity:0.2063"/>
		<stop  offset="1" style="stop-color:#FFFFFF;stop-opacity:0"/>
	</linearGradient>
	<path style="clip-path:url(#XMLID_3_);fill:url(#SVGID_24_);" d="M376.342,321.626l122.594,85.58
		c2.677,1.757,6.306,1.005,8.063-1.672l0,0c1.757-2.677,1.005-6.306-1.672-8.063l-127.279-78.444
		C375.371,317.269,373.664,319.868,376.342,321.626z"/>
	
		<linearGradient id="SVGID_25_" gradientUnits="userSpaceOnUse" x1="-1303.2185" y1="191.477" x2="-1302.5448" y2="291.9911" gradientTransform="matrix(0.5488 -0.836 -0.836 -0.5488 1173.0229 -526.7954)">
		<stop  offset="0.357" style="stop-color:#E9ABE4"/>
		<stop  offset="0.4183" style="stop-color:#EDB9E9;stop-opacity:0.9046"/>
		<stop  offset="0.5719" style="stop-color:#F5D8F2;stop-opacity:0.6658"/>
		<stop  offset="0.7225" style="stop-color:#FAEDF9;stop-opacity:0.4316"/>
		<stop  offset="0.8673" style="stop-color:#FEFBFE;stop-opacity:0.2063"/>
		<stop  offset="1" style="stop-color:#FFFFFF;stop-opacity:0"/>
	</linearGradient>
	<path style="clip-path:url(#XMLID_3_);fill:url(#SVGID_25_);" d="M216.817,405.529l74.798,52.215
		c1.633,1.072,3.847,0.613,4.919-1.02l0,0c1.072-1.633,0.613-3.847-1.02-4.919l-77.656-47.861
		C216.224,402.871,215.183,404.457,216.817,405.529z"/>
	<g style="clip-path:url(#XMLID_3_);">
		<circle style="fill:#FFFFFF;" cx="327.652" cy="190.654" r="1.888"/>
		<circle style="opacity:0.53;fill:#FFFFFF;" cx="446.033" cy="318.442" r="2.433"/>
		<circle style="fill:#FFFFFF;" cx="312.758" cy="423.5" r="1.394"/>
		<circle style="fill:#FFFFFF;" cx="366.104" cy="286.249" r="1.691"/>
		<circle style="opacity:0.53;fill:#FFFFFF;" cx="410.43" cy="146.289" r="3.224"/>
		<circle style="fill:#FFFFFF;" cx="394.943" cy="206.511" r="1.009"/>
		<circle style="opacity:0.5;fill:#FFFFFF;" cx="296.678" cy="472.88" r="2.26"/>
		<circle style="fill:#FFFFFF;" cx="652.601" cy="396.263" r="2.577"/>
		<circle style="fill:#FFFFFF;" cx="507.983" cy="240.558" r="3.372"/>
		<circle style="opacity:0.38;fill:#FFFFFF;" cx="527.921" cy="200.637" r="1.401"/>
		<circle style="fill:#FFFFFF;" cx="446.033" cy="265.362" r="2.433"/>
		<circle style="fill:#FFFFFF;" cx="477.364" cy="160.025" r="4.154"/>
		<circle style="opacity:0.43;fill:#FFFFFF;" cx="273.417" cy="390.389" r="2.287"/>
		<circle style="fill:#FFFFFF;" cx="243.807" cy="456.789" r="2.67"/>
		<circle style="opacity:0.36;fill:#FFFFFF;" cx="327.652" cy="239.075" r="1.888"/>
		<circle style="fill:#FFFFFF;" cx="267.542" cy="240.558" r="2.136"/>
		<circle style="fill:#FFFFFF;" cx="383.194" cy="259.487" r="2.314"/>
		<circle style="opacity:0.54;fill:#FFFFFF;" cx="318.633" cy="304.585" r="1.365"/>
		<circle style="fill:#FFFFFF;" cx="258.819" cy="308.382" r="1.483"/>
	</g>
	<g style="display:none;clip-path:url(#XMLID_3_);">
		<g style="display:inline;">
			<defs>
				<path id="SVGID_26_" d="M828.643,448.044l93.8-50.034l20.249-77.8c0,0-10.397,14.393-18.3,15.922l-127.095,60.275
					L828.643,448.044z"/>
			</defs>
			<use xlink:href="#SVGID_26_"  style="overflow:visible;fill:#FFBFB0;"/>
			<clipPath id="SVGID_27_">
				<use xlink:href="#SVGID_26_"  style="overflow:visible;"/>
			</clipPath>
			<polygon style="clip-path:url(#SVGID_27_);fill:#4848DC;" points="878.906,435.72 842.375,358.219 949.183,313.756 
				932.649,405.187 			"/>
			<path style="clip-path:url(#SVGID_27_);fill:#F74D4D;" d="M909.28,410.318c0,0-8.94-19.224,15.022-29.161l-3.819,30.281
				L909.28,410.318z"/>
			<polygon style="clip-path:url(#SVGID_27_);fill:#FFFFFF;" points="896.286,438.438 854.093,348.906 858.149,346.822 
				900.52,436.825 			"/>
			<polygon style="clip-path:url(#SVGID_27_);fill:#FFFFFF;" points="916.305,406.834 938.338,309.805 956.7,310.623 
				924.974,406.428 			"/>
			<polygon style="clip-path:url(#SVGID_27_);fill:#ED9685;" points="850.519,457.85 797.15,374.102 773.928,393.856 
				826.982,470.579 			"/>
		</g>
		<g style="display:inline;">
			<defs>
				<path id="SVGID_28_" d="M572.632,748.761l-75.147,78.988c0,0-15.17,19.711-14.99,27.214l-40.032-57.71l86.178-92.188
					L572.632,748.761z"/>
			</defs>
			<use xlink:href="#SVGID_28_"  style="overflow:visible;fill:#FFBFB0;"/>
			<clipPath id="SVGID_29_">
				<use xlink:href="#SVGID_28_"  style="overflow:visible;"/>
			</clipPath>
			<polygon style="clip-path:url(#SVGID_29_);fill:#4848DC;" points="546.727,815.812 478.615,726.715 414.171,810.041 
				486.808,875.838 			"/>
			<path style="clip-path:url(#SVGID_29_);fill:#F74D4D;" d="M450.303,803.545c0,0,18.86-10.609,6.113-27.512l-14.926,13.196
				L450.303,803.545z"/>
			<polygon style="clip-path:url(#SVGID_29_);fill:#FFFFFF;" points="544.928,831.672 466.319,727.152 462.681,732.43 
				541.798,836.432 			"/>
			<polygon style="clip-path:url(#SVGID_29_);fill:#FFFFFF;" points="506.03,874.272 438.257,777.729 428.477,792.603 
				489.047,875.889 			"/>
			<path style="clip-path:url(#SVGID_29_);fill:#ED9685;" d="M582.35,774.755c0,0-56.617,0.835-85.007-84.302l16.909-11.892
				l72.686,80.994L582.35,774.755z"/>
		</g>
		<g style="display:inline;">
			<defs>
				<path id="XMLID_20_" d="M526.367,553.496l49.828,59.814c0,0,8.716,8.545-6.301,21.362l-66.287,74.767l66.287,56.253
					l104.609-106.098c0,0,28.957-30.144-14.479-86.635l-49.328-70.732L526.367,553.496z"/>
			</defs>
			<linearGradient id="XMLID_4_" gradientUnits="userSpaceOnUse" x1="546.0049" y1="594.0045" x2="669.694" y2="725.2585">
				<stop  offset="0.2808" style="stop-color:#FF6D00"/>
				<stop  offset="0.4604" style="stop-color:#FF8015"/>
				<stop  offset="0.6689" style="stop-color:#FF8F26"/>
				<stop  offset="0.8227" style="stop-color:#FF952C"/>
			</linearGradient>
			<use xlink:href="#XMLID_20_"  style="overflow:visible;fill:url(#XMLID_4_);"/>
			<clipPath id="XMLID_5_">
				<use xlink:href="#XMLID_20_"  style="overflow:visible;"/>
			</clipPath>
			
				<line style="clip-path:url(#XMLID_5_);fill:none;stroke:#FFFFFF;stroke-width:4;stroke-miterlimit:10;" x1="494.825" y1="685.94" x2="588.343" y2="761.894"/>
			
				<line style="clip-path:url(#XMLID_5_);fill:none;stroke:#FFFFFF;stroke-width:4;stroke-miterlimit:10;" x1="507.167" y1="679.294" x2="608.28" y2="757.621"/>
			<path style="clip-path:url(#XMLID_5_);fill:#AA5318;" d="M507.642,587.675c0,0,85.395,2.466,161.402-40.35l-16.615-29.432
				l-146.211,46.996L507.642,587.675z"/>
		</g>
		<g style="display:inline;">
			<defs>
				<path id="XMLID_10_" d="M517.442,384.85c0,0-34.866,65.65-39.644,80.515c-4.219,13.127-19.407,137.264,104.631,101.774
					c0,0,182.031-68.235,260.303-102.894l-43.807-80.118c0,0-120.15,37.873-207.929,62.003l12.538-22.368L517.442,384.85z"/>
			</defs>
			<linearGradient id="XMLID_6_" gradientUnits="userSpaceOnUse" x1="474.9208" y1="478.8104" x2="842.7318" y2="478.8104">
				<stop  offset="0.2808" style="stop-color:#FF6D00"/>
				<stop  offset="0.4604" style="stop-color:#FF8015"/>
				<stop  offset="0.6689" style="stop-color:#FF8F26"/>
				<stop  offset="0.8227" style="stop-color:#FF952C"/>
			</linearGradient>
			<use xlink:href="#XMLID_10_"  style="overflow:visible;fill:url(#XMLID_6_);"/>
			<clipPath id="XMLID_11_">
				<use xlink:href="#XMLID_10_"  style="overflow:visible;"/>
			</clipPath>
			<path style="clip-path:url(#XMLID_11_);fill:none;stroke:#FFFFFF;stroke-width:4;stroke-miterlimit:10;" d="M541.346,426.454
				c0,0-38.684,56.673-27.058,75.773c6.646,10.918,18.523,38.313,264.176-69.248"/>
			
				<line style="clip-path:url(#XMLID_11_);fill:none;stroke:#FFFFFF;stroke-width:4;stroke-miterlimit:10;" x1="752.83" y1="376.749" x2="804.099" y2="485.849"/>
			
				<line style="clip-path:url(#XMLID_11_);fill:none;stroke:#FFFFFF;stroke-width:4;stroke-miterlimit:10;" x1="769.919" y1="363.976" x2="831.157" y2="487.273"/>
			<g style="clip-path:url(#XMLID_11_);">
				<path style="fill:#AA5318;" d="M598.726,438.809c-3.265,3.403-6.777,6.469-10.344,9.456c-3.583,2.967-7.258,5.807-11.012,8.538
					c-3.753,2.732-7.589,5.351-11.517,7.844c-3.942,2.473-7.943,4.865-12.19,6.917c3.263-3.407,6.772-6.475,10.341-9.461
					c3.583-2.967,7.258-5.807,11.015-8.534c3.757-2.728,7.592-5.347,11.52-7.839C590.482,443.258,594.481,440.865,598.726,438.809z"
					/>
			</g>
		</g>
		<path style="display:inline;fill:#FFBFB0;" d="M545.989,299.657l-18.578-18.578c-1.26-1.26-1.26-3.323,0-4.583l74.406-74.406
			c1.26-1.26,3.323-1.26,4.583,0l19.172,19.172c0.938,0.938,0.938,2.458,0,3.395l-75,75
			C549.312,300.918,547.25,300.918,545.989,299.657z"/>
		<path style="display:inline;fill:#4848DC;" d="M545.9,352.066l-39.216-45.524c-2.086-2.421-1.811-6.108,0.61-8.194l22.302-19.212
			c2.589-2.23,6.531-1.936,8.761,0.652l38.954,45.219c5.996,6.96,5.207,17.561-1.753,23.557l-6.101,5.255
			C562.497,359.815,551.896,359.026,545.9,352.066z"/>
		<path style="display:inline;fill:#4848DC;" d="M509.432,289.223l20.83-20.83c1.944-1.944,5.124-1.944,7.068,0l21.872,21.872
			c2.15,2.15,2.15,5.669,0,7.819l-20.454,20.454c-5.635,5.635-14.856,5.635-20.491,0l-8.825-8.825
			C503.797,304.079,503.797,294.858,509.432,289.223z"/>
		<linearGradient id="SVGID_30_" gradientUnits="userSpaceOnUse" x1="601.3995" y1="312.5691" x2="544.777" y2="427.9114">
			<stop  offset="0.2808" style="stop-color:#4848DC"/>
			<stop  offset="0.2884" style="stop-color:#4949DC"/>
			<stop  offset="0.596" style="stop-color:#5A5AE0"/>
			<stop  offset="0.8227" style="stop-color:#6060E1"/>
		</linearGradient>
		<path style="display:inline;fill:url(#SVGID_30_);" d="M571.428,448.346l-46.595-26.902
			c-17.624-10.175-23.718-32.919-13.543-50.543l24.238-41.981c10.175-17.624,32.919-23.718,50.543-13.543l28.884,16.676
			c17.624,10.175,23.718,32.919,13.543,50.543l-34.463,59.693C589.483,450.171,579.31,452.897,571.428,448.346z"/>
		<g style="display:inline;">
			<path style="fill:#381F1F;" d="M614.514,268.632c0,0,14.345-18.169,23.115-21.328c0,0,18.874,3.806,16.695,23.174l-23.052,23.508
				L622.844,297l-8.852-16.098L614.514,268.632z"/>
			<g>
				<g>
					<defs>
						<path id="XMLID_9_" d="M581.906,322.625l15.416-18.228l27.41-3.606l-21.366,34.169
							C603.365,334.96,584.742,344.3,581.906,322.625z"/>
					</defs>
					<clipPath id="XMLID_12_">
						<use xlink:href="#XMLID_9_"  style="overflow:visible;"/>
					</clipPath>
				</g>
				<g>
					<defs>
						<path id="XMLID_8_" d="M581.906,322.625l15.416-18.228l27.41-3.606l-21.366,34.169
							C603.365,334.96,584.742,344.3,581.906,322.625z"/>
					</defs>
					<use xlink:href="#XMLID_8_"  style="overflow:visible;fill:#FFBFB0;"/>
					<clipPath id="XMLID_13_">
						<use xlink:href="#XMLID_8_"  style="overflow:visible;"/>
					</clipPath>
					<path style="clip-path:url(#XMLID_13_);fill:#FFBFB0;" d="M593.576,306.101c0,0,5.995,13.348,31.237,1.672l1.402-8.515
						l-34.261,3.969L593.576,306.101z"/>
				</g>
				<g>
					<defs>
						<path id="XMLID_7_" d="M581.906,322.625l15.416-18.228l27.41-3.606l-21.366,34.169
							C603.365,334.96,584.742,344.3,581.906,322.625z"/>
					</defs>
					<clipPath id="XMLID_14_">
						<use xlink:href="#XMLID_7_"  style="overflow:visible;"/>
					</clipPath>
				</g>
			</g>
			<path style="fill:#FFBFB0;" d="M615.226,267.898c0,0-7.785,7.922-11.216,12.851c0,0-8.447,2.62-9.407,6.272
				c0,0,2.367,3.703,3.204,4.314c0,0-6.701,9.474-1.229,13.907c0,0,10.333,12.376,28.153-4.452c0,0,6.69,2.918,9.369-6.868
				c0,0,0.793-4.399-7.487,0.803c0,0-4.339,2.043-4.617-0.735c0,0-0.658-1.876,2.328-6.895c0,0-7.287-1.045-4.629-6.203
				c0,0,2.071-5.599,3.445-6.565C623.141,274.327,621.262,268.705,615.226,267.898z"/>
			<path style="fill:#020101;" d="M611.253,276.365c0,0,5.635-0.038,3.676,6.67c0,0-0.633,1.118-0.656-0.277
				c-0.024-1.395-0.343-5.297-3.262-5.819C611.01,276.939,610.161,276.549,611.253,276.365z"/>
			
				<ellipse transform="matrix(0.6802 -0.733 0.733 0.6802 -11.0089 537.5327)" style="fill:#020101;" cx="610.553" cy="281.383" rx="1.513" ry="0.668"/>
			<path style="fill:#020101;" d="M598.029,294.778c0,0,3.409,3.37,7.169,1.478c0,0,1.821,0.205-0.765,1.449
				c0,0-3.641,1.153-6.773-2.052C597.661,295.652,596.64,294.256,598.029,294.778z"/>
			<path style="fill:none;stroke:#282828;stroke-linecap:round;stroke-miterlimit:10;" d="M626.219,297.264
				c0,0,1.187,1.08,5.455-2.626"/>
			
				<ellipse transform="matrix(0.563 -0.8265 0.8265 0.563 -15.0985 632.9976)" style="fill:#FFBFB0;" cx="590.996" cy="330.776" rx="8.601" ry="16.95"/>
		</g>
		<path style="display:inline;fill:#FFBFB0;" d="M621.752,193.966l-29.706,29.706c-1.297,1.297-3.418,1.297-4.715,0l-1.136-1.136
			c-1.297-1.297-1.297-3.418,0-4.715l29.706-29.706c1.297-1.297,3.418-1.297,4.715,0l1.137,1.136
			C623.049,190.547,623.049,192.669,621.752,193.966z"/>
		<path style="display:inline;fill:#FFBFB0;" d="M634.075,193.115l-29.706,29.706c-1.297,1.297-3.418,1.297-4.715,0l-1.136-1.136
			c-1.297-1.297-1.297-3.418,0-4.715l29.706-29.706c1.297-1.297,3.418-1.297,4.715,0l1.136,1.136
			C635.372,189.697,635.372,191.819,634.075,193.115z"/>
		<path style="display:inline;fill:#FFBFB0;" d="M636.696,201.967l-29.706,29.706c-1.297,1.297-3.418,1.297-4.715,0l-1.136-1.136
			c-1.297-1.297-1.297-3.418,0-4.715l29.706-29.706c1.297-1.297,3.418-1.297,4.715,0l1.136,1.136
			C637.993,198.549,637.993,200.67,636.696,201.967z"/>
		<path style="display:inline;fill:#FFBFB0;" d="M634.075,216.155L604.37,245.86c-1.297,1.297-3.418,1.297-4.715,0l-1.136-1.136
			c-1.297-1.297-1.297-3.418,0-4.715l29.706-29.706c1.297-1.297,3.418-1.297,4.715,0l1.136,1.136
			C635.372,212.736,635.372,214.858,634.075,216.155z"/>
		<path style="display:inline;fill:#FFBFB0;" d="M602.451,388.85l-149.525,53.697c-2.245,0.806-4.742-0.371-5.548-2.616
			l-9.089-25.308c-0.688-1.917,0.317-4.049,2.234-4.738l150.122-53.911c7.285-2.616,15.386,1.204,18.002,8.489l2.293,6.385
			C613.556,378.133,609.736,386.234,602.451,388.85z"/>
		<path style="display:inline;fill:#6060E1;" d="M643.065,375.863l-48.763,19.731c-2.779,1.124-5.972-0.229-7.097-3.008
			l-11.678-28.86c-1.169-2.889,0.238-6.208,3.127-7.377l48.564-19.65c8.678-3.512,18.652,0.716,22.164,9.395l3.078,7.607
			C655.971,362.378,651.744,372.351,643.065,375.863z"/>
		<path style="display:inline;fill:#FFBFB0;" d="M445.997,407.917l-22.833,8.491c-1.843,0.685-2.79,2.753-2.104,4.596l0.601,1.615
			c0.685,1.843,2.753,2.79,4.596,2.104l22.833-8.491c1.843-0.685,2.79-2.753,2.104-4.596l-0.601-1.615
			C449.908,408.178,447.839,407.232,445.997,407.917z"/>
		<path style="display:inline;fill:#FFBFB0;" d="M443.838,417.892l-23.686,8.808c-1.843,0.685-2.79,2.753-2.104,4.596l0.601,1.615
			c0.685,1.843,2.753,2.79,4.596,2.104l23.686-8.808c1.843-0.685,2.79-2.753,2.104-4.596l-0.601-1.615
			C447.749,418.154,445.68,417.207,443.838,417.892z"/>
		<path style="display:inline;fill:#FFBFB0;" d="M451.132,424.555l-23.686,8.808c-1.843,0.685-2.79,2.753-2.104,4.596l0.601,1.615
			c0.685,1.843,2.753,2.79,4.596,2.104l23.686-8.808c1.843-0.685,2.79-2.753,2.104-4.596l-0.601-1.615
			C455.043,424.816,452.975,423.869,451.132,424.555z"/>
		<path style="display:inline;fill:#FFBFB0;" d="M460.784,430.247l-23.686,8.808c-1.843,0.685-2.79,2.753-2.104,4.596l0.601,1.615
			c0.685,1.843,2.753,2.79,4.596,2.104l23.686-8.808c1.843-0.685,2.79-2.753,2.104-4.596l-0.601-1.615
			C464.695,430.509,462.627,429.562,460.784,430.247z"/>
	</g>
</g>
</svg>
