<?xml version="1.0" encoding="iso-8859-1"?>
<!-- Generator: Adobe Illustrator 23.0.2, SVG Export Plug-In . SVG Version: 6.00 Build 0)  -->
<svg version="1.1" id="&#x56FE;&#x5C42;_1" xmlns="http://www.w3.org/2000/svg" xmlns:xlink="http://www.w3.org/1999/xlink" x="0px"
	 y="0px" viewBox="0 0 1000 1000" style="enable-background:new 0 0 1000 1000;" xml:space="preserve">
<g>
	<defs>
		<path id="XMLID_14_" d="M306.585,279.471c0,0-14.233,29.06-24.316,34.991c-10.082,5.931-13.64,21.35-13.047,49.224
			c0.593,27.874-40.328,58.12-87.773,87.18c0,0-14.827,7.117,0,24.909c14.827,17.792,28.17,48.631,1.779,106.158
			s1.779,67.016,30.839,74.726c29.06,7.71,96.669-4.151,106.751,78.284c0,0,26.984,67.485,14.975,107.431h188.149
			c0,0-52.486-57.613-21.647-140.642c0,0,8.896-23.722,68.795,9.489c59.899,33.211,78.877-8.303,94.297-14.233
			s23.129,16.606,47.445-12.454c24.315-29.06,36.77-100.227,24.315-128.101c0,0-3.558-14.234,11.861,8.896
			c15.42,23.129,42.256,23.871,54.043,16.087s27.577-15.123,30.691-25.576c3.114-10.453-6.005-23.574,19.126-28.689
			c25.131-5.115,59.825-63.828,36.696-104.75c0,0-12.01-22.462,1.112-37.808c13.121-15.345,15.79-54.043-66.275-90.071
			s-68.054,10.008-90.071,9.341c-22.017-0.667-21.795-8.08-35.139-24.39c-13.344-16.309-35.584-28.319-50.262-36.77
			c-14.678-8.451-26.688-44.48-65.385-47.593c-38.697-3.114-52.486-25.798-77.839-34.249
			C480.352,152.408,329.418,151.221,306.585,279.471z"/>
	</defs>
	<linearGradient id="XMLID_2_" gradientUnits="userSpaceOnUse" x1="535.1869" y1="877.1912" x2="535.1869" y2="178.0314">
		<stop  offset="0" style="stop-color:#251017"/>
		<stop  offset="0.0045" style="stop-color:#2A1219"/>
		<stop  offset="0.08" style="stop-color:#7F3A41"/>
		<stop  offset="0.1333" style="stop-color:#B45359"/>
		<stop  offset="0.1592" style="stop-color:#C85D63"/>
		<stop  offset="0.3547" style="stop-color:#E6625E"/>
		<stop  offset="0.3821" style="stop-color:#E87160"/>
		<stop  offset="0.4434" style="stop-color:#ED8D65"/>
		<stop  offset="0.497" style="stop-color:#F09F68"/>
		<stop  offset="0.5363" style="stop-color:#F1A569"/>
		<stop  offset="0.6508" style="stop-color:#E55F5C"/>
		<stop  offset="0.7626" style="stop-color:#BC4E5A"/>
		<stop  offset="0.8464" style="stop-color:#5D233C"/>
		<stop  offset="1" style="stop-color:#321420"/>
	</linearGradient>
	<use xlink:href="#XMLID_14_"  style="overflow:visible;fill:url(#XMLID_2_);"/>
	<clipPath id="XMLID_3_">
		<use xlink:href="#XMLID_14_"  style="overflow:visible;"/>
	</clipPath>
	<path style="opacity:0.21;clip-path:url(#XMLID_3_);fill:#FFF5F5;" d="M346.063,551.076
		c27.595,57.291,86.207,96.828,154.054,96.828c67.847,0,126.459-39.537,154.054-96.828H346.063z"/>
	
		<linearGradient id="SVGID_1_" gradientUnits="userSpaceOnUse" x1="781.5439" y1="100.3345" x2="776.971" y2="218.7169" gradientTransform="matrix(1 0 0 -1 0 851.1053)">
		<stop  offset="0" style="stop-color:#FFFAE6;stop-opacity:0.7"/>
		<stop  offset="0.3209" style="stop-color:#FFFCEF;stop-opacity:0.4696"/>
		<stop  offset="0.9749" style="stop-color:#FFFFFF;stop-opacity:0"/>
	</linearGradient>
	<path style="clip-path:url(#XMLID_3_);fill:url(#SVGID_1_);" d="M899.058,799.807c-29.394,0-53.222-23.828-53.222-53.222
		c0-2.198,0.149-4.361,0.408-6.489c-3.499,0.864-7.155,1.331-10.921,1.331c-9.881,0-19.017-3.167-26.47-8.528
		c-9.336,4.9-19.956,7.687-31.232,7.687c-24.842,0-46.526-13.467-58.19-33.489c-4.783,3.524-10.69,5.61-17.086,5.61
		c-12.556,0-23.233-8.027-27.192-19.228c-3.395,0.613-6.887,0.951-10.459,0.951c-32.297,0-58.478-26.182-58.478-58.479
		c0-32.297,26.182-58.478,58.478-58.478c31.57,0,57.281,25.021,58.424,56.311c12.234-16.857,32.082-27.829,54.503-27.829
		c29.378,0,54.345,18.827,63.534,45.068c22.314,2.864,39.562,21.916,39.562,45.009c0,0.195-0.012,0.387-0.015,0.581
		c5.722-2.102,11.904-3.251,18.355-3.251c29.394,0,53.222,23.828,53.222,53.222C952.28,775.978,928.451,799.807,899.058,799.807z"/>
	
		<linearGradient id="SVGID_2_" gradientUnits="userSpaceOnUse" x1="243.9041" y1="93.5675" x2="249.7565" y2="213.5365" gradientTransform="matrix(1 0 0 -1 0 851.1053)">
		<stop  offset="0.4017" style="stop-color:#FFFAE6;stop-opacity:0.7"/>
		<stop  offset="0.5986" style="stop-color:#FFFCEF;stop-opacity:0.4696"/>
		<stop  offset="1" style="stop-color:#FFFFFF;stop-opacity:0"/>
	</linearGradient>
	<path style="clip-path:url(#XMLID_3_);fill:url(#SVGID_2_);" d="M295.793,704.122c-4.003,0-7.925-0.37-11.738-1.073
		c-8.017,35.491-38.148,61.877-74.1,61.877c-42.082,0-76.195-36.148-76.195-80.739c0-44.591,34.114-80.739,76.195-80.739
		c7.704,0,15.14,1.216,22.15,3.47c9.638-27.351,34.515-46.829,63.688-46.829c37.536,0,67.964,32.243,67.964,72.017
		C363.757,671.879,333.328,704.122,295.793,704.122z"/>
	<linearGradient id="SVGID_3_" gradientUnits="userSpaceOnUse" x1="749.5723" y1="376.6403" x2="801.1652" y2="483.2867">
		<stop  offset="0" style="stop-color:#FFFAE6;stop-opacity:0.7"/>
		<stop  offset="0.3209" style="stop-color:#FFFCEF;stop-opacity:0.4696"/>
		<stop  offset="0.9749" style="stop-color:#FFFFFF;stop-opacity:0"/>
	</linearGradient>
	<path style="clip-path:url(#XMLID_3_);fill:url(#SVGID_3_);" d="M899.058,328.839c-29.394,0-53.222,23.828-53.222,53.222
		c0,2.198,0.149,4.361,0.408,6.489c-3.499-0.864-7.155-1.331-10.921-1.331c-9.881,0-19.017,3.167-26.47,8.528
		c-9.336-4.9-19.956-7.687-31.232-7.687c-24.842,0-46.526,13.467-58.19,33.489c-4.783-3.524-10.69-5.61-17.086-5.61
		c-12.556,0-23.233,8.027-27.192,19.228c-3.395-0.613-6.887-0.951-10.459-0.951c-32.297,0-58.478,26.182-58.478,58.479
		s26.182,58.479,58.478,58.479c31.57,0,57.281-25.021,58.424-56.311c12.234,16.857,32.082,27.829,54.503,27.829
		c29.378,0,54.345-18.827,63.534-45.068c22.314-2.864,39.562-21.916,39.562-45.009c0-0.195-0.012-0.387-0.015-0.581
		c5.722,2.102,11.904,3.251,18.355,3.251c29.394,0,53.222-23.828,53.222-53.222C952.28,352.668,928.451,328.839,899.058,328.839z"/>
	
		<linearGradient id="SVGID_4_" gradientUnits="userSpaceOnUse" x1="323.977" y1="97.165" x2="323.2867" y2="254.081" gradientTransform="matrix(0.9033 0.4291 -0.4291 0.9033 138.4575 43.7274)">
		<stop  offset="0" style="stop-color:#FFFAE6;stop-opacity:0.7"/>
		<stop  offset="0.3209" style="stop-color:#FFFCEF;stop-opacity:0.4696"/>
		<stop  offset="0.9749" style="stop-color:#FFFFFF;stop-opacity:0"/>
	</linearGradient>
	<path style="clip-path:url(#XMLID_3_);fill:url(#SVGID_4_);" d="M433.999,408.354c-9.865-4.686-20.785-4.49-30.049-0.4
		c-3.287-15.137-13.293-28.642-28.366-35.803c-8.343-3.963-17.211-5.485-25.811-4.876c-2.859-11.291-10.542-21.27-21.884-26.658
		c-3.412-1.621-6.937-2.711-10.486-3.325c-2.702-17.334-13.646-33.075-30.687-41.17c-27.379-13.006-60.117-1.354-73.122,26.025
		c-13.006,27.379-1.354,60.116,26.025,73.122c11.928,5.666,24.873,6.649,36.76,3.693c3.949,6.205,9.627,11.415,16.762,14.804
		c2.78,1.321,5.636,2.284,8.518,2.933c-0.846,20.126,10.17,39.758,29.513,48.946c18.998,9.024,40.722,5.447,55.766-7.353
		c3.519,6.413,9.007,11.822,16.119,15.2c17.988,8.545,39.497,0.889,48.042-17.099C459.642,438.407,451.987,416.898,433.999,408.354z
		"/>
	<linearGradient id="SVGID_5_" gradientUnits="userSpaceOnUse" x1="671.0007" y1="270.2607" x2="763.4581" y2="550.2796">
		<stop  offset="0" style="stop-color:#FFFAE6;stop-opacity:0.7"/>
		<stop  offset="0.1586" style="stop-color:#FFFCEF;stop-opacity:0.4696"/>
		<stop  offset="0.4818" style="stop-color:#FFFFFF;stop-opacity:0"/>
	</linearGradient>
	<path style="clip-path:url(#XMLID_3_);fill:url(#SVGID_5_);" d="M864.002,267.522c-34.406,0-63.758,21.574-75.308,51.926
		c-7.308-4.06-15.716-6.38-24.669-6.38c-14.555,0-27.673,6.121-36.947,15.919c-11.702-7.454-25.583-11.79-40.485-11.79
		c-21.187,0-40.323,8.741-54.031,22.799c-16.748-12.992-37.774-20.73-60.611-20.73c-54.664,0-98.977,44.314-98.977,98.977
		c0,54.664,44.314,98.977,98.977,98.977c38.416,0,71.719-21.886,88.124-53.869c8.252,3.098,17.185,4.804,26.519,4.804
		c34.07,0,62.857-22.578,72.242-53.585c1.706,0.173,3.438,0.262,5.19,0.262c14.705,0,27.946-6.246,37.235-16.22
		c14.769,18.318,37.38,30.047,62.742,30.047c44.496,0,80.568-36.071,80.568-80.568C944.57,303.594,908.499,267.522,864.002,267.522z
		"/>
	<linearGradient id="SVGID_6_" gradientUnits="userSpaceOnUse" x1="331.5464" y1="366.8328" x2="255.8754" y2="460.1105">
		<stop  offset="0.4017" style="stop-color:#FFFAE6;stop-opacity:0.7"/>
		<stop  offset="0.5986" style="stop-color:#FFFCEF;stop-opacity:0.4696"/>
		<stop  offset="1" style="stop-color:#FFFFFF;stop-opacity:0"/>
	</linearGradient>
	<path style="clip-path:url(#XMLID_3_);fill:url(#SVGID_6_);" d="M295.793,424.524c-4.003,0-7.925,0.37-11.738,1.073
		c-8.017-35.491-38.148-61.877-74.1-61.877c-42.082,0-76.195,36.148-76.195,80.739c0,44.591,34.114,80.739,76.195,80.739
		c7.704,0,15.14-1.216,22.15-3.47c9.638,27.351,34.515,46.829,63.688,46.829c37.536,0,67.964-32.243,67.964-72.017
		S333.328,424.524,295.793,424.524z"/>
	
		<radialGradient id="SVGID_7_" cx="500.0425" cy="479.0114" r="200.6271" fx="501.7923" fy="481.4102" gradientUnits="userSpaceOnUse">
		<stop  offset="0.6532" style="stop-color:#FFFFFF;stop-opacity:0.7"/>
		<stop  offset="0.948" style="stop-color:#FFFFFF;stop-opacity:0"/>
	</radialGradient>
	<circle style="clip-path:url(#XMLID_3_);fill:url(#SVGID_7_);" cx="498.871" cy="477.473" r="187.451"/>
	<path style="clip-path:url(#XMLID_3_);fill:#FFF5F5;" d="M654.172,551.076c10.793-22.408,16.842-47.531,16.842-74.068
		c0-94.383-76.513-170.896-170.896-170.896s-170.896,76.513-170.896,170.896c0,26.536,6.049,51.66,16.842,74.068H654.172z"/>
	<path style="clip-path:url(#XMLID_3_);fill:#E29B71;" d="M173.353,527.109c0,0,71.255-6.478,106.883-3.239
		c0,0,5.182,0.864,24.615-4.966s20.081,2.159,30.661,4.103c10.58,1.943,57.436-4.103,70.175-4.966
		c12.74-0.864,36.059,10.796,48.799,12.74c12.74,1.943,91.336,11.228,110.769,4.318c19.433-6.91,27.638-2.159,34.548-2.591
		c6.91-0.432,14.683-11.228,32.389-10.364c17.706,0.864,30.229,10.364,50.958,10.364l6.046,24.266l-529.447-7.158L173.353,527.109z"
		/>
	<path style="clip-path:url(#XMLID_3_);fill:#F5B460;" d="M179.831,532.291c0,0,53.981,3.455,74.71,3.239
		c0,0,37.571,0.442,47.935-1.615c10.364-2.056,21.592-1.976,45.344,1.654c23.752,3.631,80.108-0.688,82.699-3.279
		c2.591-2.591,24.184-10.659,63.482,2.336c39.298,12.995,122.213,6.218,128.691,2.697s37.571-6.976,56.14-7.408
		c0,0,4.318-10.472,38.003-9.555c33.684,0.918,43.185,1.349,53.117-4.265c9.932-5.614,25.911-1.296,49.231,8.421
		c23.32,9.717,25.263-0.648,25.263-0.648l8.421,38.036l-693.117-5.134L179.831,532.291z"/>
	<path style="clip-path:url(#XMLID_3_);fill:#AD446C;" d="M181.774,537.473c0,0,276.599-0.534,525.344,6.858
		c0,0,4.534-8.171,31.093-6.867l106.235-0.141l-2.375,24.583l-677.139-2.409L181.774,537.473z"/>
	<path style="clip-path:url(#XMLID_3_);fill:#502038;" d="M170.114,548.553c0,0,85.506-3.819,237.085,0
		c0,0,25.911,1.207,39.514-1.697c13.603-2.905,40.162-2.92,62.834,1.946c22.672,4.866,79.028-1.627,88.097,0
		c9.069,1.627,91.984,1.412,118.542,1.844c26.559,0.431,17.49-12.091,83.563,0c0,0,41.457-12.026,49.879-2.883v21.451H164.932
		L170.114,548.553z"/>
	<path style="clip-path:url(#XMLID_3_);fill:#050000;" d="M176.16,551.076c0,0,32.821-8.637,48.367,6.046s14.683,6.046,18.138,0
		c0,0,151.147-12.575,193.468-0.242c42.321,12.333,158.92,4.077,177.058,0s75.142,2.349,106.235,0
		c31.093-2.349,60.459-12.334,81.188,0c0,0,26.775-8.879,41.457,0v18.379H170.114L176.16,551.076z"/>
	
		<linearGradient id="SVGID_8_" gradientUnits="userSpaceOnUse" x1="665.3583" y1="122.6966" x2="664.0892" y2="5.6642" gradientTransform="matrix(0.6222 0.7828 -0.7828 0.6222 393.9006 -221.668)">
		<stop  offset="0.6532" style="stop-color:#E5A25E"/>
		<stop  offset="0.7253" style="stop-color:#EBB985;stop-opacity:0.7919"/>
		<stop  offset="0.856" style="stop-color:#F6DEC6;stop-opacity:0.4153"/>
		<stop  offset="0.9511" style="stop-color:#FCF6EF;stop-opacity:0.141"/>
		<stop  offset="1" style="stop-color:#FFFFFF;stop-opacity:0"/>
	</linearGradient>
	<path style="clip-path:url(#XMLID_3_);fill:url(#SVGID_8_);" d="M708.303,378.21L708.303,378.21
		c-0.914-1.15-0.721-2.838,0.429-3.752l124.244-96.022c1.15-0.914,2.257,0.48,1.108,1.394l-122.029,98.809
		C710.905,379.553,709.217,379.36,708.303,378.21z"/>
	
		<linearGradient id="SVGID_9_" gradientUnits="userSpaceOnUse" x1="406.2467" y1="466.5096" x2="405.3817" y2="386.7447" gradientTransform="matrix(0.6222 0.7828 -0.7828 0.6222 393.9006 -221.668)">
		<stop  offset="0.6532" style="stop-color:#E5A25E"/>
		<stop  offset="0.7253" style="stop-color:#EBB985;stop-opacity:0.7919"/>
		<stop  offset="0.856" style="stop-color:#F6DEC6;stop-opacity:0.4153"/>
		<stop  offset="0.9511" style="stop-color:#FCF6EF;stop-opacity:0.141"/>
		<stop  offset="1" style="stop-color:#FFFFFF;stop-opacity:0"/>
	</linearGradient>
	<path style="clip-path:url(#XMLID_3_);fill:url(#SVGID_9_);" d="M279.055,388.444L279.055,388.444
		c-0.623-0.784-0.491-1.934,0.292-2.557l84.68-65.445c0.784-0.623,1.539,0.327,0.755,0.95l-83.17,67.345
		C280.828,389.36,279.678,389.228,279.055,388.444z"/>
	<linearGradient id="SVGID_10_" gradientUnits="userSpaceOnUse" x1="499.1334" y1="162.974" x2="585.5845" y2="162.974">
		<stop  offset="0.6532" style="stop-color:#FFFAE6;stop-opacity:0.7"/>
		<stop  offset="0.7673" style="stop-color:#FFFCEF;stop-opacity:0.4696"/>
		<stop  offset="1" style="stop-color:#FFFFFF;stop-opacity:0"/>
	</linearGradient>
	<path style="clip-path:url(#XMLID_3_);fill:url(#SVGID_10_);" d="M499.527,196.734L499.527,196.734
		c-0.623-0.784-0.491-1.934,0.292-2.557l84.68-65.445c0.784-0.623,1.539,0.327,0.755,0.95l-83.17,67.345
		C501.3,197.649,500.149,197.518,499.527,196.734z"/>
	<g style="clip-path:url(#XMLID_3_);">
		<circle style="fill:#FFFFFF;" cx="261.576" cy="500" r="1.561"/>
		<circle style="fill:#FFFFFF;" cx="764.294" cy="385.083" r="1.78"/>
		<circle style="fill:#FFFFFF;" cx="835.669" cy="397.188" r="0.663"/>
		<circle style="fill:#FFFFFF;" cx="840.179" cy="497.114" r="2.205"/>
		<circle style="opacity:0.58;fill:#FFFFFF;" cx="824.582" cy="338.086" r="2.433"/>
		<circle style="opacity:0.52;fill:#FFFFFF;" cx="721.333" cy="481.212" r="2.077"/>
		<circle style="fill:#FFFFFF;" cx="786.605" cy="450.593" r="0.482"/>
		<circle style="fill:#FFFFFF;" cx="668.64" cy="376.538" r="1.899"/>
		<circle style="fill:#FFFFFF;" cx="709.465" cy="333.102" r="2.136"/>
		<circle style="fill:#FFFFFF;" cx="553.523" cy="256.911" r="0.475"/>
		<circle style="fill:#FFFFFF;" cx="621.644" cy="301.059" r="1.543"/>
		<circle style="fill:#FFFFFF;" cx="576.309" cy="222.732" r="0.949"/>
		<circle style="fill:#FFFFFF;" cx="521.48" cy="280.172" r="1.661"/>
		<circle style="fill:#FFFFFF;" cx="241.638" cy="457.476" r="1.78"/>
		<circle style="opacity:0.63;fill:#FFFFFF;" cx="287.922" cy="443.709" r="1.899"/>
		<circle style="fill:#FFFFFF;" cx="325.424" cy="361.584" r="1.721"/>
		<circle style="opacity:0.21;fill:#FFFFFF;" cx="426.063" cy="226.055" r="2.463"/>
		<circle style="fill:#FFFFFF;" cx="369.097" cy="243.144" r="1.661"/>
		<circle style="fill:#FFFFFF;" cx="639.683" cy="251.926" r="1.78"/>
		<circle style="fill:#FFFFFF;" cx="446.001" cy="274" r="0.712"/>
		<circle style="fill:#FFFFFF;" cx="431.759" cy="184.043" r="1.187"/>
		<circle style="opacity:0.62;fill:#FFFFFF;" cx="494.184" cy="245.518" r="2.136"/>
		<circle style="fill:#FFFFFF;" cx="393.07" cy="284.681" r="1.187"/>
		<circle style="fill:#FFFFFF;" cx="324.712" cy="316.012" r="0.831"/>
	</g>
	<g style="opacity:0.4;clip-path:url(#XMLID_3_);">
		<circle style="fill:#FFFFFF;" cx="764.294" cy="635.123" r="1.78"/>
		<circle style="fill:#FFFFFF;" cx="835.669" cy="623.018" r="0.663"/>
		<circle style="opacity:0.58;fill:#FFFFFF;" cx="824.582" cy="682.12" r="2.433"/>
		<circle style="fill:#FFFFFF;" cx="786.605" cy="569.613" r="0.482"/>
		<circle style="fill:#FFFFFF;" cx="668.64" cy="643.668" r="1.899"/>
		<circle style="fill:#FFFFFF;" cx="709.465" cy="687.104" r="2.136"/>
		<circle style="fill:#FFFFFF;" cx="553.523" cy="763.295" r="0.475"/>
		<circle style="fill:#FFFFFF;" cx="621.644" cy="719.147" r="1.543"/>
		<circle style="fill:#FFFFFF;" cx="576.309" cy="797.474" r="0.949"/>
		<circle style="fill:#FFFFFF;" cx="521.48" cy="740.034" r="1.661"/>
		<circle style="fill:#FFFFFF;" cx="325.424" cy="658.621" r="1.721"/>
		<circle style="opacity:0.21;fill:#FFFFFF;" cx="426.063" cy="794.151" r="2.463"/>
		<circle style="fill:#FFFFFF;" cx="369.097" cy="777.062" r="1.661"/>
		<circle style="fill:#FFFFFF;" cx="639.683" cy="768.28" r="1.78"/>
		<circle style="fill:#FFFFFF;" cx="446.001" cy="746.206" r="0.712"/>
		<circle style="fill:#FFFFFF;" cx="431.759" cy="836.163" r="1.187"/>
		<circle style="opacity:0.62;fill:#FFFFFF;" cx="494.184" cy="774.688" r="2.136"/>
		<circle style="fill:#FFFFFF;" cx="393.07" cy="735.525" r="1.187"/>
		<circle style="fill:#FFFFFF;" cx="324.712" cy="704.194" r="0.831"/>
	</g>
	<circle style="clip-path:url(#XMLID_3_);fill:#EFF0E2;" cx="387.997" cy="443.739" r="31.717"/>
	<circle style="clip-path:url(#XMLID_3_);fill:#EFF0E2;" cx="441.016" cy="382.114" r="16.378"/>
	<circle style="clip-path:url(#XMLID_3_);fill:#EFF0E2;" cx="434.923" cy="502.338" r="14.241"/>
</g>
</svg>
