<?xml version="1.0" encoding="iso-8859-1"?>
<!-- Generator: Adobe Illustrator 23.0.2, SVG Export Plug-In . SVG Version: 6.00 Build 0)  -->
<svg version="1.1" id="&#x56FE;&#x5C42;_1" xmlns="http://www.w3.org/2000/svg" xmlns:xlink="http://www.w3.org/1999/xlink" x="0px"
	 y="0px" viewBox="0 0 1000 1000" style="enable-background:new 0 0 1000 1000;" xml:space="preserve">
<g>
	<defs>
		<path id="XMLID_65_" d="M275.869,391.493c0,0,37.19-40.503,28.742-67.34c-8.449-26.836-41.249-35.533-69.824-27.83
			c0,0,9.277-60.548,57.649-96.33s96.081-9.939,103.37-3.313l-17.228-42.408c0,0,70.404-41.911,153.398,0
			c0,0,18.388,8.614,48.703,3.644s95.418,37.273,96.412,56.158c0,0,117.285,89.952,60.63,253.952c0,0-13.915,52.679-32.8,71.564
			c0,0,0,44.85-32.8,59.201c0,0,8.945,41.684-10.933,53.612c0,0-37.77-34.788-43.237,22.364c0,0-6.792,38.101,11.099,67.919
			c0,0,22.198-12.259,36.113,23.523c13.915,35.782,29.818,52.679,38.764,83.491H402.762c0,0,6.958-23.855,27.83-36.776
			c20.873-12.921,5.964-151.079-49.697-140.146s-124.243,13.915-117.285-17.891c6.958-31.806,6.295-99.063-6.295-118.279
			c0,0-30.481-8.614-31.806-21.204c0,0,27.83-43.071,52.348-74.877C277.857,440.527,256.653,407.396,275.869,391.493z"/>
	</defs>
	<linearGradient id="XMLID_2_" gradientUnits="userSpaceOnUse" x1="489.3452" y1="825.1896" x2="489.3452" y2="144.9488">
		<stop  offset="0" style="stop-color:#4A3844"/>
		<stop  offset="0.2654" style="stop-color:#EF7476"/>
		<stop  offset="0.7702" style="stop-color:#E9454E"/>
		<stop  offset="0.9604" style="stop-color:#3C2C37"/>
	</linearGradient>
	<use xlink:href="#XMLID_65_"  style="overflow:visible;fill:url(#XMLID_2_);"/>
	<clipPath id="XMLID_3_">
		<use xlink:href="#XMLID_65_"  style="overflow:visible;"/>
	</clipPath>
	<linearGradient id="SVGID_1_" gradientUnits="userSpaceOnUse" x1="499.612" y1="746.3185" x2="499.612" y2="606.7303">
		<stop  offset="0" style="stop-color:#FFFFFF;stop-opacity:0.5"/>
		<stop  offset="0.6248" style="stop-color:#FFFFFF;stop-opacity:0"/>
	</linearGradient>
	<path style="clip-path:url(#XMLID_3_);fill:url(#SVGID_1_);" d="M310.124,568.497c25.04,80.855,100.404,139.588,189.488,139.588
		S664.06,649.352,689.1,568.497H310.124z"/>
	<radialGradient id="SVGID_2_" cx="499.0146" cy="509.1514" r="258.7025" gradientUnits="userSpaceOnUse">
		<stop  offset="0" style="stop-color:#FFFFFF"/>
		<stop  offset="0.9168" style="stop-color:#FFFFFF;stop-opacity:0"/>
	</radialGradient>
	<circle style="clip-path:url(#XMLID_3_);fill:url(#SVGID_2_);" cx="499.015" cy="509.151" r="239.557"/>
	<g style="clip-path:url(#XMLID_3_);">
		<defs>
			<path id="XMLID_66_" d="M689.1,568.497c5.749-18.564,8.848-38.294,8.848-58.748c0-109.538-88.798-198.336-198.336-198.336
				s-198.336,88.798-198.336,198.336c0,20.454,3.099,40.184,8.848,58.748H689.1z"/>
		</defs>
		<use xlink:href="#XMLID_66_"  style="overflow:visible;fill:#FFFFFF;"/>
		<clipPath id="XMLID_4_">
			<use xlink:href="#XMLID_66_"  style="overflow:visible;"/>
		</clipPath>
		<circle style="clip-path:url(#XMLID_4_);fill:#EFF0E2;" cx="411.197" cy="384.295" r="23.896"/>
		<circle style="clip-path:url(#XMLID_4_);fill:#EFF0E2;" cx="429.119" cy="454.788" r="19.117"/>
		<circle style="clip-path:url(#XMLID_4_);fill:#EFF0E2;" cx="526.022" cy="439.38" r="53.293"/>
	</g>
	<g style="opacity:0.37;clip-path:url(#XMLID_3_);">
		<g>
			<defs>
				<polygon id="SVGID_3_" points="219.194,580.521 363.41,687.422 543.931,568.419 199.024,568.419 				"/>
			</defs>
			<use xlink:href="#SVGID_3_"  style="overflow:visible;fill:#DF4B6D;"/>
			<clipPath id="SVGID_4_">
				<use xlink:href="#SVGID_3_"  style="overflow:visible;"/>
			</clipPath>
			<polygon style="clip-path:url(#SVGID_4_);fill:#FEA7AF;" points="274.662,635.989 349.291,643.491 364.418,614.81 
				385.597,643.491 498.549,619.853 365.427,710.618 			"/>
			<polygon style="opacity:0.69;clip-path:url(#SVGID_4_);fill:#962344;" points="363.015,708.169 364.924,534.761 588.103,544.636 
							"/>
			<polygon style="opacity:0.69;clip-path:url(#SVGID_4_);fill:#962344;" points="358.703,695.827 433.332,555.981 604.778,565.394 
							"/>
		</g>
		<g>
			<defs>
				<polygon id="SVGID_5_" points="460.155,568.482 624.877,767.493 789.599,568.482 				"/>
			</defs>
			<use xlink:href="#SVGID_5_"  style="overflow:visible;fill:#DF4B6D;"/>
			<clipPath id="SVGID_6_">
				<use xlink:href="#SVGID_5_"  style="overflow:visible;"/>
			</clipPath>
			<polygon style="clip-path:url(#SVGID_6_);fill:#FEA7AF;" points="553.259,702.949 595.617,716.395 611.96,693.383 
				642.008,721.774 702.518,706.31 618.476,781.612 			"/>
			<polygon style="opacity:0.69;clip-path:url(#SVGID_6_);fill:#962344;" points="582.17,522.091 627.889,784.973 820.176,551.674 
							"/>
			<polygon style="opacity:0.69;clip-path:url(#SVGID_6_);fill:#962344;" points="648.731,774.216 642.008,721.774 727.394,531.504 
				814.797,556.38 			"/>
		</g>
	</g>
	<g style="clip-path:url(#XMLID_3_);">
		<g>
			<defs>
				<polygon id="SVGID_7_" points="219.183,556.457 363.399,449.556 543.92,568.559 199.013,568.559 				"/>
			</defs>
			<use xlink:href="#SVGID_7_"  style="overflow:visible;fill:#DF4B6D;"/>
			<clipPath id="SVGID_8_">
				<use xlink:href="#SVGID_7_"  style="overflow:visible;"/>
			</clipPath>
			<polygon style="clip-path:url(#SVGID_8_);fill:#FEA7AF;" points="274.651,500.99 349.28,493.488 364.407,522.168 
				385.586,493.488 498.538,517.126 365.416,426.361 			"/>
			<polygon style="opacity:0.69;clip-path:url(#SVGID_8_);fill:#962344;" points="363.004,428.81 364.913,602.218 588.092,592.343 
							"/>
			<polygon style="opacity:0.69;clip-path:url(#SVGID_8_);fill:#962344;" points="358.692,441.152 433.321,580.998 604.766,571.585 
							"/>
		</g>
		<g>
			<defs>
				<polygon id="SVGID_9_" points="460.144,568.497 624.866,369.486 789.588,568.497 				"/>
			</defs>
			<use xlink:href="#SVGID_9_"  style="overflow:visible;fill:#DF4B6D;"/>
			<clipPath id="SVGID_10_">
				<use xlink:href="#SVGID_9_"  style="overflow:visible;"/>
			</clipPath>
			<polygon style="clip-path:url(#SVGID_10_);fill:#FEA7AF;" points="553.248,434.03 595.605,420.583 611.949,443.596 
				641.997,415.205 702.507,430.668 618.465,355.367 			"/>
			<polygon style="opacity:0.69;clip-path:url(#SVGID_10_);fill:#962344;" points="582.159,614.888 627.878,352.005 
				820.165,585.305 			"/>
			<polygon style="opacity:0.69;clip-path:url(#SVGID_10_);fill:#962344;" points="648.72,362.763 641.997,415.205 727.383,605.475 
				814.786,580.599 			"/>
		</g>
	</g>
	<g style="clip-path:url(#XMLID_3_);">
		<linearGradient id="SVGID_11_" gradientUnits="userSpaceOnUse" x1="559.8443" y1="595.2538" x2="559.8443" y2="692.0989">
			<stop  offset="0" style="stop-color:#FFFFFF;stop-opacity:0.2"/>
			<stop  offset="1" style="stop-color:#FFFFFF;stop-opacity:0"/>
		</linearGradient>
		<polygon style="fill:url(#SVGID_11_);" points="206.583,628.295 458.64,646.118 314.789,663.94 644.5,703.403 913.106,665.849 
			429.36,615.565 		"/>
		<linearGradient id="SVGID_12_" gradientUnits="userSpaceOnUse" x1="586.7788" y1="674.9418" x2="585.1599" y2="762.6711">
			<stop  offset="0" style="stop-color:#FFFFFF;stop-opacity:0.3"/>
			<stop  offset="1" style="stop-color:#FFFFFF;stop-opacity:0"/>
		</linearGradient>
		<polygon style="fill:url(#SVGID_12_);" points="258.352,734.38 644.5,703.403 913.106,729.288 626.678,763.235 		"/>
		<linearGradient id="SVGID_13_" gradientUnits="userSpaceOnUse" x1="636.8617" y1="763.235" x2="636.8617" y2="816.7017">
			<stop  offset="0" style="stop-color:#FFFFFF;stop-opacity:0.1"/>
			<stop  offset="1" style="stop-color:#FFFFFF;stop-opacity:0"/>
		</linearGradient>
		<polygon style="fill:url(#SVGID_13_);" points="418.752,785.301 626.678,763.235 854.972,785.301 626.678,816.702 		"/>
		<linearGradient id="SVGID_14_" gradientUnits="userSpaceOnUse" x1="610.5527" y1="778.4681" x2="610.5527" y2="854.491">
			<stop  offset="0" style="stop-color:#FFFFFF;stop-opacity:0.2"/>
			<stop  offset="1" style="stop-color:#FFFFFF;stop-opacity:0"/>
		</linearGradient>
		<polygon style="fill:url(#SVGID_14_);" points="422.995,844.708 626.678,816.702 798.11,837.919 650.44,875.26 		"/>
	</g>
	<linearGradient id="SVGID_15_" gradientUnits="userSpaceOnUse" x1="510.7155" y1="479.6631" x2="510.7155" y2="890.5485">
		<stop  offset="0.3324" style="stop-color:#E2335C;stop-opacity:0.5"/>
		<stop  offset="0.6508" style="stop-color:#EA5F3B;stop-opacity:0.3"/>
		<stop  offset="1" style="stop-color:#FFFFFF;stop-opacity:0"/>
	</linearGradient>
	<polygon style="clip-path:url(#XMLID_3_);fill:url(#SVGID_15_);" points="225.509,568.419 733.792,568.419 795.922,863.409 
		253.484,884.915 	"/>
	<g style="clip-path:url(#XMLID_3_);">
		<circle style="opacity:0.42;fill:#FFFFFF;" cx="314.419" cy="217.82" r="1.245"/>
		<circle style="fill:#FFFFFF;" cx="369.379" cy="210.651" r="1.328"/>
		<circle style="opacity:0.44;fill:#FFFFFF;" cx="417.968" cy="294.685" r="2.921"/>
		<circle style="fill:#FFFFFF;" cx="642.988" cy="261.531" r="0.499"/>
		<circle style="opacity:0.22;fill:#FFFFFF;" cx="614.711" cy="191.535" r="1.394"/>
		<circle style="fill:#FFFFFF;" cx="515.941" cy="224.989" r="2.157"/>
		<circle style="fill:#FFFFFF;" cx="410.799" cy="198.703" r="1.328"/>
		<circle style="fill:#FFFFFF;" cx="372.964" cy="287.517" r="0.664"/>
		<circle style="fill:#FFFFFF;" cx="265.034" cy="268.7" r="0.947"/>
		<circle style="fill:#FFFFFF;" cx="722.242" cy="395.447" r="0.846"/>
		<circle style="fill:#FFFFFF;" cx="519.525" cy="268.7" r="1.478"/>
		<circle style="fill:#FFFFFF;" cx="551.755" cy="191.535" r="0.797"/>
		<circle style="opacity:0.38;fill:#FFFFFF;" cx="689.983" cy="275.869" r="1.096"/>
		<circle style="fill:#FFFFFF;" cx="669.671" cy="344.07" r="0.83"/>
		<circle style="fill:#FFFFFF;" cx="596.391" cy="287.517" r="1.128"/>
		<circle style="fill:#FFFFFF;" cx="456.998" cy="248.675" r="1.555"/>
		<circle style="fill:#FFFFFF;" cx="592.806" cy="221.405" r="0.797"/>
		<circle style="fill:#FFFFFF;" cx="445.05" cy="158.479" r="2.589"/>
		<circle style="opacity:0.63;fill:#FFFFFF;" cx="480.097" cy="187.95" r="0.73"/>
		<circle style="opacity:0.5;fill:#FFFFFF;" cx="295.7" cy="399.031" r="1.394"/>
		<circle style="fill:#FFFFFF;" cx="314.419" cy="275.869" r="1.245"/>
		<circle style="fill:#FFFFFF;" cx="389.72" cy="245.091" r="1.607"/>
		<circle style="fill:#FFFFFF;" cx="343.89" cy="330.928" r="1.493"/>
		
			<linearGradient id="SVGID_16_" gradientUnits="userSpaceOnUse" x1="-71.1437" y1="780.6553" x2="-71.1437" y2="700.7449" gradientTransform="matrix(0.7071 0.7071 -0.7071 0.7071 952.1338 -250.8359)">
			<stop  offset="0" style="stop-color:#FFA561"/>
			<stop  offset="0.1339" style="stop-color:#FFA865;stop-opacity:0.8539"/>
			<stop  offset="0.2812" style="stop-color:#FFAF73;stop-opacity:0.6933"/>
			<stop  offset="0.4348" style="stop-color:#FFBC89;stop-opacity:0.5257"/>
			<stop  offset="0.5929" style="stop-color:#FFCDA8;stop-opacity:0.3533"/>
			<stop  offset="0.7543" style="stop-color:#FFE4CF;stop-opacity:0.1772"/>
			<stop  offset="0.9168" style="stop-color:#FFFFFF;stop-opacity:0"/>
		</linearGradient>
		<path style="fill:url(#SVGID_16_);" d="M349.821,250.865L349.821,250.865c-0.774-0.774-0.774-2.042,0-2.816l55.549-53.484
			c0.774-0.774,1.432-0.117,0.657,0.657l-53.39,55.643C351.863,251.639,350.595,251.639,349.821,250.865z"/>
		
			<linearGradient id="SVGID_17_" gradientUnits="userSpaceOnUse" x1="211.7041" y1="596.9095" x2="211.7041" y2="546.2166" gradientTransform="matrix(0.7071 0.7071 -0.7071 0.7071 952.1338 -250.8359)">
			<stop  offset="0" style="stop-color:#FFA561"/>
			<stop  offset="0.1339" style="stop-color:#FFA865;stop-opacity:0.8539"/>
			<stop  offset="0.2812" style="stop-color:#FFAF73;stop-opacity:0.6933"/>
			<stop  offset="0.4348" style="stop-color:#FFBC89;stop-opacity:0.5257"/>
			<stop  offset="0.5929" style="stop-color:#FFCDA8;stop-opacity:0.3533"/>
			<stop  offset="0.7543" style="stop-color:#FFE4CF;stop-opacity:0.1772"/>
			<stop  offset="0.9168" style="stop-color:#FFFFFF;stop-opacity:0"/>
		</linearGradient>
		<path style="fill:url(#SVGID_17_);" d="M679.753,320.94L679.753,320.94c-0.491-0.491-0.491-1.295,0-1.786l35.239-33.929
			c0.491-0.491,0.908-0.074,0.417,0.417l-33.869,35.298C681.048,321.432,680.244,321.432,679.753,320.94z"/>
		
			<linearGradient id="SVGID_18_" gradientUnits="userSpaceOnUse" x1="77.6124" y1="602.1724" x2="77.6124" y2="488.9927" gradientTransform="matrix(0.7071 0.7071 -0.7071 0.7071 952.1338 -250.8359)">
			<stop  offset="0" style="stop-color:#FFA561"/>
			<stop  offset="0.1339" style="stop-color:#FFA865;stop-opacity:0.8539"/>
			<stop  offset="0.2812" style="stop-color:#FFAF73;stop-opacity:0.6933"/>
			<stop  offset="0.4348" style="stop-color:#FFBC89;stop-opacity:0.5257"/>
			<stop  offset="0.5929" style="stop-color:#FFCDA8;stop-opacity:0.3533"/>
			<stop  offset="0.7543" style="stop-color:#FFE4CF;stop-opacity:0.1772"/>
			<stop  offset="0.9168" style="stop-color:#FFFFFF;stop-opacity:0"/>
		</linearGradient>
		<path style="fill:url(#SVGID_18_);" d="M581.214,229.845L581.214,229.845c-1.097-1.097-1.097-2.892,0-3.989l78.676-75.751
			c1.097-1.097,2.028-0.166,0.931,0.931l-75.618,78.809C584.106,230.941,582.311,230.941,581.214,229.845z"/>
		
			<linearGradient id="SVGID_19_" gradientUnits="userSpaceOnUse" x1="-17.6652" y1="954.5587" x2="-17.6652" y2="874.6484" gradientTransform="matrix(0.7071 0.7071 -0.7071 0.7071 952.1338 -250.8359)">
			<stop  offset="0" style="stop-color:#FFA561"/>
			<stop  offset="0.1339" style="stop-color:#FFA865;stop-opacity:0.8539"/>
			<stop  offset="0.2812" style="stop-color:#FFAF73;stop-opacity:0.6933"/>
			<stop  offset="0.4348" style="stop-color:#FFBC89;stop-opacity:0.5257"/>
			<stop  offset="0.5929" style="stop-color:#FFCDA8;stop-opacity:0.3533"/>
			<stop  offset="0.7543" style="stop-color:#FFE4CF;stop-opacity:0.1772"/>
			<stop  offset="0.9168" style="stop-color:#FFFFFF;stop-opacity:0"/>
		</linearGradient>
		<path style="fill:url(#SVGID_19_);" d="M264.668,411.648L264.668,411.648c-0.774-0.774-0.774-2.042,0-2.816l55.549-53.484
			c0.774-0.774,1.432-0.117,0.657,0.657l-53.39,55.643C266.709,412.422,265.442,412.422,264.668,411.648z"/>
	</g>
	<g style="clip-path:url(#XMLID_3_);">
		<circle style="opacity:0.42;fill:#FFFFFF;" cx="436.733" cy="683.127" r="1.245"/>
		<circle style="fill:#FFFFFF;" cx="491.694" cy="690.296" r="1.328"/>
		<circle style="opacity:0.44;fill:#FFFFFF;" cx="540.282" cy="606.262" r="2.921"/>
		<circle style="fill:#FFFFFF;" cx="642.988" cy="793.412" r="0.499"/>
		<circle style="opacity:0.22;fill:#FFFFFF;" cx="591.268" cy="640.181" r="1.394"/>
		<circle style="fill:#FFFFFF;" cx="515.941" cy="829.954" r="2.157"/>
		<circle style="fill:#FFFFFF;" cx="387.356" cy="633.012" r="1.328"/>
		<circle style="fill:#FFFFFF;" cx="531.451" cy="629.206" r="0.664"/>
		<circle style="fill:#FFFFFF;" cx="423.521" cy="648.023" r="0.947"/>
		<circle style="fill:#FFFFFF;" cx="722.242" cy="659.497" r="0.846"/>
		<circle style="fill:#FFFFFF;" cx="519.525" cy="786.243" r="1.478"/>
		<circle style="fill:#FFFFFF;" cx="551.755" cy="863.409" r="0.797"/>
		<circle style="opacity:0.38;fill:#FFFFFF;" cx="689.983" cy="779.074" r="1.096"/>
		<circle style="fill:#FFFFFF;" cx="669.671" cy="710.873" r="0.83"/>
		<circle style="fill:#FFFFFF;" cx="596.391" cy="767.427" r="1.128"/>
		<circle style="fill:#FFFFFF;" cx="456.998" cy="806.268" r="1.555"/>
		<circle style="fill:#FFFFFF;" cx="592.806" cy="833.539" r="0.797"/>
		<circle style="fill:#FFFFFF;" cx="445.05" cy="896.465" r="2.589"/>
		<circle style="opacity:0.63;fill:#FFFFFF;" cx="480.097" cy="866.993" r="0.73"/>
		<circle style="opacity:0.5;fill:#FFFFFF;" cx="295.7" cy="655.912" r="1.394"/>
		<circle style="fill:#FFFFFF;" cx="314.419" cy="779.074" r="1.245"/>
		<circle style="fill:#FFFFFF;" cx="389.72" cy="809.853" r="1.607"/>
		<circle style="fill:#FFFFFF;" cx="343.89" cy="724.016" r="1.493"/>
		
			<linearGradient id="SVGID_20_" gradientUnits="userSpaceOnUse" x1="647.9473" y1="1499.7462" x2="647.9473" y2="1419.8359" gradientTransform="matrix(0.7071 -0.7071 -0.7071 -0.7071 952.1338 2322.7275)">
			<stop  offset="0" style="stop-color:#FFA561"/>
			<stop  offset="0.1339" style="stop-color:#FFA865;stop-opacity:0.8539"/>
			<stop  offset="0.2812" style="stop-color:#FFAF73;stop-opacity:0.6933"/>
			<stop  offset="0.4348" style="stop-color:#FFBC89;stop-opacity:0.5257"/>
			<stop  offset="0.5929" style="stop-color:#FFCDA8;stop-opacity:0.3533"/>
			<stop  offset="0.7543" style="stop-color:#FFE4CF;stop-opacity:0.1772"/>
			<stop  offset="0.9168" style="stop-color:#FFFFFF;stop-opacity:0"/>
		</linearGradient>
		<path style="fill:url(#SVGID_20_);" d="M349.821,804.079L349.821,804.079c-0.774,0.774-0.774,2.042,0,2.816l55.549,53.484
			c0.774,0.774,1.432,0.117,0.657-0.657l-53.39-55.643C351.863,803.304,350.595,803.304,349.821,804.079z"/>
		
			<linearGradient id="SVGID_21_" gradientUnits="userSpaceOnUse" x1="930.7951" y1="1316.0005" x2="930.7951" y2="1265.3075" gradientTransform="matrix(0.7071 -0.7071 -0.7071 -0.7071 952.1338 2322.7275)">
			<stop  offset="0" style="stop-color:#FFA561"/>
			<stop  offset="0.1339" style="stop-color:#FFA865;stop-opacity:0.8539"/>
			<stop  offset="0.2812" style="stop-color:#FFAF73;stop-opacity:0.6933"/>
			<stop  offset="0.4348" style="stop-color:#FFBC89;stop-opacity:0.5257"/>
			<stop  offset="0.5929" style="stop-color:#FFCDA8;stop-opacity:0.3533"/>
			<stop  offset="0.7543" style="stop-color:#FFE4CF;stop-opacity:0.1772"/>
			<stop  offset="0.9168" style="stop-color:#FFFFFF;stop-opacity:0"/>
		</linearGradient>
		<path style="fill:url(#SVGID_21_);" d="M679.753,734.003L679.753,734.003c-0.491,0.491-0.491,1.295,0,1.786l35.239,33.929
			c0.491,0.491,0.908,0.074,0.417-0.417l-33.869-35.298C681.048,733.512,680.244,733.512,679.753,734.003z"/>
		
			<linearGradient id="SVGID_22_" gradientUnits="userSpaceOnUse" x1="796.7034" y1="1321.2634" x2="796.7034" y2="1208.0837" gradientTransform="matrix(0.7071 -0.7071 -0.7071 -0.7071 952.1338 2322.7275)">
			<stop  offset="0" style="stop-color:#FFA561"/>
			<stop  offset="0.1339" style="stop-color:#FFA865;stop-opacity:0.8539"/>
			<stop  offset="0.2812" style="stop-color:#FFAF73;stop-opacity:0.6933"/>
			<stop  offset="0.4348" style="stop-color:#FFBC89;stop-opacity:0.5257"/>
			<stop  offset="0.5929" style="stop-color:#FFCDA8;stop-opacity:0.3533"/>
			<stop  offset="0.7543" style="stop-color:#FFE4CF;stop-opacity:0.1772"/>
			<stop  offset="0.9168" style="stop-color:#FFFFFF;stop-opacity:0"/>
		</linearGradient>
		<path style="fill:url(#SVGID_22_);" d="M581.214,825.099L581.214,825.099c-1.097,1.097-1.097,2.892,0,3.989l78.676,75.751
			c1.097,1.097,2.028,0.166,0.931-0.931l-75.618-78.809C584.106,824.002,582.311,824.002,581.214,825.099z"/>
		
			<linearGradient id="SVGID_23_" gradientUnits="userSpaceOnUse" x1="701.4258" y1="1673.6497" x2="701.4258" y2="1593.7394" gradientTransform="matrix(0.7071 -0.7071 -0.7071 -0.7071 952.1338 2322.7275)">
			<stop  offset="0" style="stop-color:#FFA561"/>
			<stop  offset="0.1339" style="stop-color:#FFA865;stop-opacity:0.8539"/>
			<stop  offset="0.2812" style="stop-color:#FFAF73;stop-opacity:0.6933"/>
			<stop  offset="0.4348" style="stop-color:#FFBC89;stop-opacity:0.5257"/>
			<stop  offset="0.5929" style="stop-color:#FFCDA8;stop-opacity:0.3533"/>
			<stop  offset="0.7543" style="stop-color:#FFE4CF;stop-opacity:0.1772"/>
			<stop  offset="0.9168" style="stop-color:#FFFFFF;stop-opacity:0"/>
		</linearGradient>
		<path style="fill:url(#SVGID_23_);" d="M264.668,643.295L264.668,643.295c-0.774,0.774-0.774,2.042,0,2.816l55.549,53.484
			c0.774,0.774,1.432,0.117,0.657-0.657l-53.39-55.643C266.709,642.521,265.442,642.521,264.668,643.295z"/>
	</g>
</g>
</svg>
