<?xml version="1.0" standalone="no"?><!DOCTYPE svg PUBLIC "-//W3C//DTD SVG 1.1//EN" "http://www.w3.org/Graphics/SVG/1.1/DTD/svg11.dtd"><svg t="1554366450246" class="icon" style="" viewBox="0 0 3299 1024" version="1.1" xmlns="http://www.w3.org/2000/svg" p-id="4886" xmlns:xlink="http://www.w3.org/1999/xlink" width="103.09375" height="32"><defs><style type="text/css"></style></defs><path d="M1497.425 614.398V908.4h78.791v-84.65a21.049 21.049 0 0 1 0-10.695V614.398h-78.79z m-20.935-41.927h236.43a20.992 20.992 0 0 1 0 41.927h-94.72v183.068h23.324c20.139 0 36.41-16.27 36.41-36.409v-62.69a20.992 20.992 0 0 1 41.983 0v62.69a78.563 78.563 0 0 1-78.393 78.393H1618.2v68.95h105.358a20.992 20.992 0 0 1 0 41.926h-373.475a20.992 20.992 0 1 1 0-41.927h105.415v-294h-94.72a20.992 20.992 0 0 1 0-41.928h115.712z m1124.918 264.533l-119.353 38.002a56.32 56.32 0 0 1-72.362-42.667l-14.45-71.225a20.992 20.992 0 1 1 41.13-8.362l14.45 71.338a14.45 14.45 0 0 0 18.49 10.866l132.095-41.984V592.155a20.992 20.992 0 1 1 41.927 0V779.66l22.755-7.225a20.992 20.992 0 0 1 12.687 39.993l-35.442 11.264v105.813a20.992 20.992 0 0 1-41.927-0.114v-92.33z m165.262-96.54v-83.058h-36.182a20.992 20.992 0 1 1 0-41.984h36.182v-21.959a20.992 20.992 0 1 1 41.927 0v21.96h16.611a20.992 20.992 0 1 1 0 41.926h-16.611v69.803l12.856-4.096a20.992 20.992 0 0 1 12.687 39.993l-25.543 8.135v120.604a58.595 58.595 0 0 1-58.482 58.595h-19.57a20.992 20.992 0 0 1 0-41.984h19.57c9.102 0 16.555-7.395 16.555-16.554v-107.35l-29.81 9.444a20.935 20.935 0 1 1-12.63-39.936l42.44-13.54z m253.837 126.918c32.256 22.13 66.958 37.376 98.02 41.188a20.992 20.992 0 0 1-2.504 41.756h0.057c-0.853 0-1.706 0-2.56-0.114-40.903-5.006-85.902-25.6-126.35-55.238-40.106 29.468-84.991 50.062-126.69 55.182a20.992 20.992 0 0 1-5.12-41.643c31.857-3.868 66.559-19.058 98.474-40.96a329.784 329.784 0 0 1-67.584-85.674 20.992 20.992 0 1 1 36.977-19.627c15.02 28.388 37.718 55.751 64 79.075 33.45-29.923 60.871-66.502 74.126-102.911h-176.07a20.992 20.992 0 0 1 0-41.984h80.782v-39.083h-80.725a20.992 20.992 0 0 1 0-41.927h80.668v-21.959a20.992 20.992 0 0 1 41.984 0v21.96h80.725a20.992 20.992 0 1 1 0 41.926h-80.782v39.083h56.888a39.253 39.253 0 0 1 37.433 51.996c-14.279 42.268-44.373 84.195-81.749 118.954zM2019.266 592.27v-0.171a20.992 20.992 0 1 1 41.983 0v0.17h113.949a20.992 20.992 0 1 1 0 41.984h-269.88a20.992 20.992 0 0 1 0-41.983h113.948z m208.212 316.244a20.992 20.992 0 0 0 2.162 41.813h-267.946c-42.666 0-77.312-34.702-77.369-77.368v-18.774c0-39.537 32.086-71.623 71.68-71.623h168.675c39.595 0 71.68 32.086 71.68 71.68v19.684a20.992 20.992 0 1 1-41.984 0V854.24a29.696 29.696 0 0 0-29.866-29.753h-168.675a29.696 29.696 0 0 0-29.583 29.753v18.83c0.057 19.57 15.93 35.442 35.499 35.442h265.67a21.22 21.22 0 0 1 2.276-0.114c16.498 0 29.81-13.369 29.81-29.866l0.17-2.39a21.22 21.22 0 0 1-0.17-2.275V756.96a20.992 20.992 0 1 1 41.983 0v116.85c0 0.796 0 1.593-0.113 2.332a71.964 71.964 0 0 1-69.063 74.126z m141.653-285.581v46.42h46.649a20.992 20.992 0 0 1 0 41.985h-46.649V929.39a21.049 21.049 0 0 1-41.927 0V711.337h-46.649a20.992 20.992 0 0 1 0-41.984h46.65v-41.529a581.218 581.218 0 0 1-46.65 1.877 20.992 20.992 0 0 1 0-41.984 538.736 538.736 0 0 0 128.341-15.53l1.935-0.455a20.992 20.992 0 1 1 10.012 40.732l-1.991 0.512c-16.44 3.982-32.996 7.339-49.72 9.899z m-193.99 74.695h-269.824a20.992 20.992 0 1 1 0-41.927h269.88a20.992 20.992 0 0 1 0 41.927z m0 63.43h-269.824a20.992 20.992 0 0 1 0-41.927h269.88a20.992 20.992 0 1 1 0 41.927z m386.502 25.6a20.594 20.594 0 0 1-6.543-1.024l-58.88-19.228a34.987 34.987 0 0 1-17.521-53.817l44.658-61.553-49.607-16.327a20.992 20.992 0 0 1 13.255-39.823l58.595 19.513a34.987 34.987 0 0 1 17.294 53.703l-44.6 61.497 49.777 16.213a20.992 20.992 0 0 1-6.428 40.96v-0.114z m-1186.927 58.71a20.935 20.935 0 0 1-20.935-20.992V698.309a20.992 20.992 0 0 1 41.927 0v126.066a20.935 20.935 0 0 1-20.992 20.992z m464.952 104.902a20.992 20.992 0 0 1-20.992-20.935V623.671a9.216 9.216 0 0 0-9.216-9.216h-25.885a20.992 20.992 0 0 1 0-41.984h25.885c28.274 0 51.2 22.983 51.257 51.257v305.606a20.992 20.992 0 0 1-21.05 20.935zM1388.54 36.181h60.814L1630.26 458.41h-57.855l-56.32-132.892H1320.5L1265.49 458.41h-57.06l180.167-422.228z m-49.607 244.963h156.444l-78.222-188.302-78.222 188.302z m446.292-2.958c69.177 0 103.538 30.55 103.538 91.534 0 59.164-43.008 88.746-129.138 88.746a387.412 387.412 0 0 1-107.86-14.905v-47.047c34.758 11.72 71.224 17.636 107.917 17.636 49.55 0 74.354-14.791 74.354-44.373 0-27.307-16.327-41.188-48.81-41.188h-50.404c-65.422 0-97.906-30.606-97.906-91.534 0-59.164 43.236-88.69 129.422-88.69a395.775 395.775 0 0 1 107.804 14.735v47.331a326.712 326.712 0 0 0-107.747-17.749c-51.712 0-77.54 14.791-77.54 44.373 0 27.307 15.36 41.188 46.024 41.188h50.346z m147.456-129.877h54.84v310.157h-54.84V148.31z m0-112.128h54.84v44.146h-54.84V36.18z m222.321 112.128c92.501 0 138.809 32.995 138.809 99.157v210.943h-54.841v-19.626a203.548 203.548 0 0 1-90.624 19.626c-78.051 0-116.906-32.199-116.906-96.483 0-63.715 42.097-95.573 126.293-95.573a482.985 482.985 0 0 1 81.237 6.03v-29.297c0-33.792-28.046-50.46-83.968-50.46a352.824 352.824 0 0 0-98.531 14.79V163.1a351.231 351.231 0 0 1 98.531-14.791z m83.968 241.436l0.057-73.273a483.327 483.327 0 0 0-81.237-5.746c-47.787 0-71.68 16.669-71.68 50.12 0 35.555 20.878 53.133 62.236 53.133 38.115 0 68.267-8.078 90.624-24.234zM2352.349 36.18h54.727v422.285h-54.727V36.181z m274.033 112.128c71.907 0 107.577 38.514 107.577 115.427v194.73h-54.67v-195.47c0-46.08-22.983-69.347-69.234-69.347-31.403 0-61.212 13.312-89.315 39.424V458.41h-54.955v-310.1h47.047l-0.227 39.538c37.83-26.34 75.718-39.538 113.777-39.538z m221.183-32.085l0.114 32.085h93.355v44.373h-93.355v266.41h-54.897V133.12c-0.114-74.923 38.684-112.413 116.28-112.413 23.609-0.227 47.104 3.812 69.29 12.004v44.146c-19.57-7.851-42.893-11.776-69.745-11.776-40.675 0-61.042 16.896-61.042 51.143z m261.973 32.085c98.759 0 148.195 51.598 148.195 154.851 0 103.196-49.436 154.794-148.195 154.794-98.417-0.113-147.91-51.712-148.252-154.794 0-103.253 49.38-154.851 148.252-154.851z m0 265.727c62.293 0 93.468-37.205 93.468-111.73 0.057-73.101-31.061-109.624-93.468-109.68-62.35 0-93.525 36.522-93.525 109.68 0 74.525 31.175 111.73 93.525 111.73zM858.451 674.473h-0.057c6.827 41.529 7.794 88.064-5.404 134.428-22.187 77.482-79.53 139.946-170.439 185.57a511.316 511.316 0 0 1-667.305-358.17c3.3 4.835 6.656 9.443 10.468 14.108 71.224 86.186 196.323 115.484 252.87 124.757 18.432 3.584 30.89 5.461 30.89 5.461 240.128 18.261 324.722 9.102 406.072-4.494 86.016-14.45 127.374-58.027 142.905-101.66z m97.109-417.791h0.057a512.17 512.17 0 0 1-135.395 664.233 281.77 281.77 0 0 0 56.945-105.13c7.965-28.445 11.776-57.856 11.378-87.382 0 0-0.569-4.665-0.569-7.225 0-59.335-42.382-168.106-42.382-168.106-104.334-217.2-154.567-285.866-207.075-349.41-55.523-67.47-114.062-81.465-159.743-73.045 30.094-24.349 66.73-46.308 109.909-57.856 80.895-21.846 168.39-3.584 259.981 54.215v-0.228a512.055 512.055 0 0 1 106.95 129.934zM501.19 84.025l0.113-0.399c-51.313 31.687-120.945 118.557-120.945 118.557C244.28 401.179 209.976 479.003 181.248 556.2c-29.867 79.815-14.223 136.59 14.45 172.089-52.395-17.522-111.503-46.535-150.756-94.151C16.384 599.607 1.536 558.76 0.114 512.567v-3.584h12.288H0.114h12.288H0.17c0.057-5.802 0.17-11.548 0.398-17.35 0.227-4.267 0.114-8.534 0.569-12.914H0.853A512.34 512.34 0 0 1 511.373 0c73.955 0.114 147.057 16.213 214.3 47.16-49.437-11.206-97.565-10.979-143.758 1.537-25.145 6.94-49.323 17.066-71.85 30.208-1.707 1.024-3.528 1.877-5.291 2.844-0.967 0.569-2.048 1.365-3.072 1.877l-0.512 0.399z" p-id="4887" fill="#7b93a7"></path></svg>