<?xml version="1.0" standalone="no"?><!DOCTYPE svg PUBLIC "-//W3C//DTD SVG 1.1//EN" "http://www.w3.org/Graphics/SVG/1.1/DTD/svg11.dtd"><svg t="1619003729693" class="icon" viewBox="0 0 1024 1024" version="1.1" xmlns="http://www.w3.org/2000/svg" p-id="1355" xmlns:xlink="http://www.w3.org/1999/xlink" width="128" height="128"><defs><style type="text/css"></style></defs><path d="M939.086 0H84.282C55.93 0 34.25 25.258 38.546 53.28L172.46 926.884C181.024 982.75 229.08 1024 285.594 1024h452.18c56.516 0 104.562-41.25 113.132-97.118l133.914-873.6C989.12 25.258 967.43 0 939.086 0z m0 0" fill="#9CDAE3" p-id="1356"></path><path d="M939.086 0H84.282C55.93 0 34.25 25.258 38.546 53.28l8.244 53.782h929.78l8.25-53.78C989.12 25.258 967.43 0 939.086 0z m0 0" fill="#EEEEED" p-id="1357"></path><path d="M38.546 53.28L172.46 926.884C181.024 982.75 229.08 1024 285.594 1024h385.032C397.07 833.976 326.35 206.57 314.532 0H84.28C55.93 0 34.25 25.258 38.546 53.28z m0 0" fill="#75B1D9" p-id="1358"></path><path d="M161.274 320.14l95.508 623.04h509.92l95.314-621.812c2.694-17.548-9.46-33.876-27.024-36.47-188.508-27.882-365.266 42.376-645.288 6.242-16.782-2.164-30.994 12.274-28.43 29z m0 0" fill="#739CDA" p-id="1359"></path><path d="M584.71 943.18c-129.24-157.156-199.18-422.304-235.648-641.476-49.476-0.25-102.272-3.196-159.36-10.564-16.78-2.164-30.992 12.274-28.428 29l95.508 623.04z m0 0" fill="#6082C4" p-id="1360"></path><path d="M164.774 876.758l7.686 50.124C181.024 982.75 229.08 1024 285.594 1024h452.18c56.516 0 104.562-41.25 113.132-97.118l7.68-50.124z m0 0" fill="#EEEEED" p-id="1361"></path><path d="M386.04 561.4c0-32.314-32.9-58.51-73.47-58.51-40.578 0-73.468 26.196-73.468 58.508s32.89 58.508 73.468 58.508c40.57 0 73.47-26.196 73.47-58.508z m0 0M784.266 561.4c0-32.314-32.89-58.51-73.47-58.51-40.578 0-73.468 26.196-73.468 58.508s32.89 58.508 73.468 58.508c40.58 0 73.47-26.196 73.47-58.508z m0 0" fill="#FFFFFF" p-id="1362"></path><path d="M390.36 512.726a14.994 14.994 0 0 1-15-15c0-11.008-8.96-19.968-19.978-19.968-11.008 0-19.968 8.96-19.968 19.968 0 8.29-6.71 15-15 15a15 15 0 0 1-15-15c0-27.546 22.414-49.968 49.968-49.968s49.978 22.42 49.978 49.968a15 15 0 0 1-15 15z m0 0M702.954 512.726a14.994 14.994 0 0 1-15-15c0-11.008-8.96-19.968-19.978-19.968-11.008 0-19.968 8.96-19.968 19.968 0 8.29-6.712 15-15 15a15 15 0 0 1-15-15c0-27.546 22.42-49.968 49.968-49.968 27.556 0 49.978 22.42 49.978 49.968a15 15 0 0 1-15 15z m0 0M511.68 570.5a64.2 64.2 0 0 1-48.4-22.04c-5.444-6.25-4.796-15.726 1.454-21.164a14.994 14.994 0 0 1 21.164 1.454 34.2 34.2 0 0 0 25.79 11.75c9.874 0 19.272-4.28 25.78-11.75a14.994 14.994 0 0 1 21.164-1.454c6.25 5.44 6.9 14.914 1.454 21.164a64.204 64.204 0 0 1-48.406 22.04z m0 0" fill="#495059" p-id="1363"></path><path d="M172.46 926.89C181.024 982.75 229.08 1024 285.594 1024h385.032c-51.266-35.61-95.416-86.562-133.376-147.242H164.774z m0 0M38.546 53.28l8.244 53.782H323.14c-4.234-42.172-6.984-78.608-8.608-107.062H84.28C55.93 0 34.25 25.258 38.546 53.28z m0 0" fill="#DFDFDD" p-id="1364"></path></svg>